<svg width="492" height="321" viewBox="0 0 492 321" fill="none" xmlns="http://www.w3.org/2000/svg">
<g clip-path="url(#clip0_248:9939)">
<path d="M96.584 204.153L93.8649 202.463C93.6055 202.303 93.3505 202.13 93.0911 201.966C98.88 200.972 104.159 198.039 108.059 193.648C111.96 189.257 114.251 183.669 114.555 177.803C114.859 171.938 113.159 166.143 109.734 161.372C106.308 156.6 101.361 153.136 95.7064 151.549L95.8404 162.213L89.983 150.615H89.9009C86.5067 150.457 83.1144 150.968 79.9179 152.121C76.7214 153.273 73.7831 155.044 71.2711 157.332C68.759 159.62 66.7222 162.381 65.2771 165.456C63.832 168.531 63.0068 171.861 62.8487 175.255C62.8228 175.748 62.8487 176.237 62.8487 176.725C60.8127 174.399 58.9582 171.905 57.7348 169.173C55.2578 163.644 55.2103 157.376 55.4048 149.764C55.7939 134.673 56.4466 119.469 57.2939 104.314C63.4105 103.633 69.084 100.794 73.2958 96.3061C77.5075 91.8186 79.9817 85.9767 80.274 79.8292C80.3086 79.0382 80.2956 78.2557 80.274 77.482C80.274 77.2874 80.274 77.0929 80.2437 76.9027C80.1918 76.1505 80.1227 75.407 80.006 74.6721C80.006 74.5511 79.9627 74.4344 79.9411 74.3177C79.8374 73.6952 79.7077 73.0813 79.5607 72.4718C79.5045 72.247 79.4483 72.0395 79.3878 71.7931C79.2062 71.1361 79.0074 70.4963 78.774 69.8435C78.6961 69.6317 78.6054 69.4113 78.5232 69.2124C78.3417 68.7412 78.1428 68.2744 77.931 67.8161C77.8186 67.5741 77.7105 67.332 77.5938 67.0942C77.5592 67.0337 77.5376 66.9689 77.5031 66.9083C74.7714 61.5109 70.2334 57.2424 64.6791 54.846C59.1247 52.4495 52.9058 52.0769 47.105 53.7929L47.2779 67.6692L41.4853 56.2051C36.7221 58.9339 32.9556 63.1136 30.7354 68.1341C28.5152 73.1547 27.9575 78.7533 29.1437 84.1132H29.1178C29.1567 84.299 29.2129 84.472 29.2561 84.6578C29.3382 84.9993 29.4247 85.3365 29.5198 85.6737C29.6408 86.106 29.7792 86.5382 29.9218 86.9705C30.0299 87.2861 30.1336 87.606 30.2547 87.9216C30.4319 88.3798 30.6308 88.825 30.8296 89.2703C30.9463 89.5296 31.0501 89.7977 31.1754 90.0527C31.504 90.7242 31.8613 91.3769 32.2475 92.0109C32.3815 92.2357 32.5328 92.4432 32.6798 92.6637C32.9564 93.096 33.2331 93.5282 33.5443 93.9303C33.7302 94.1853 33.9291 94.4274 34.1236 94.6781C34.4089 95.0369 34.6985 95.3914 34.9882 95.7329C35.2 95.9793 35.4204 96.2127 35.6409 96.4505C35.9608 96.7833 36.285 97.1075 36.6222 97.4274C36.8426 97.6392 37.0545 97.8597 37.3009 98.0586C37.6813 98.3957 38.079 98.7199 38.481 99.0355C38.6842 99.1911 38.883 99.3597 39.0905 99.5154C39.7043 99.9476 40.3355 100.38 40.9882 100.812C41.1093 100.89 41.2433 100.951 41.3643 101.024C41.9133 101.344 42.4666 101.646 43.0372 101.927C43.2836 102.049 43.5344 102.152 43.7851 102.265C44.2519 102.476 44.7231 102.697 45.2073 102.861C45.4883 102.969 45.7736 103.069 46.0719 103.168C46.5474 103.328 47.0315 103.475 47.52 103.6C47.8053 103.678 48.0949 103.76 48.3846 103.83C48.9119 103.955 49.4523 104.059 49.997 104.154L50.1007 104.175C49.7462 110.567 49.4292 116.964 49.1497 123.364C47.6089 120.195 45.4366 117.375 42.7661 115.076C40.0956 112.777 36.9833 111.048 33.6204 109.995C30.2575 108.943 26.7149 108.589 23.2102 108.955C19.7055 109.321 16.3127 110.4 13.2401 112.125L17.8136 124.661L8.39419 115.583C3.35003 120.196 0.343046 126.622 0.0338594 133.449C-0.0866479 135.845 0.134596 138.245 0.690928 140.578C1.87368 145.625 4.54566 150.201 8.36034 153.711C12.175 157.221 16.9564 159.504 22.0844 160.264C27.2124 161.024 32.4505 160.226 37.1193 157.973C41.788 155.72 45.6721 152.116 48.2678 147.628C48.2678 148.277 48.2246 148.925 48.2073 149.578C48.0344 156.296 47.8183 164.656 51.1684 172.121C53.4379 177.179 57.0864 181.286 60.6786 184.969C63.0259 187.368 65.4597 189.685 67.9539 191.928C70.4073 195.227 73.6109 197.895 77.2999 199.71C81.3979 202.87 85.6429 205.839 90.0306 208.58L92.7712 210.283C95.2352 211.809 97.7598 213.378 100.232 215.008C99.8001 214.965 99.3679 214.917 98.9356 214.896C93.4496 214.64 88.0244 216.136 83.4443 219.166C78.8643 222.197 75.3666 226.605 73.4569 231.755L89.6242 244.909L71.8402 240.785C71.8457 245.16 72.9601 249.463 75.0792 253.291C77.1983 257.119 80.2531 260.348 83.9581 262.675C87.6632 265.003 91.8977 266.353 96.2662 266.6C100.635 266.848 104.994 265.984 108.939 264.089C108.541 264.591 108.14 265.089 107.737 265.585C106.941 266.573 106.156 267.556 105.381 268.533C94.8592 281.856 91.9326 294.509 97.1416 304.153L103.479 300.729C98.4082 291.345 106.034 279.327 111.031 272.999C111.792 272.033 112.564 271.068 113.348 270.102C120.078 261.729 127.695 252.271 127.509 240.651C127.228 223.148 110.218 212.618 96.584 204.153Z" fill="#F2F2F2"/>
<path d="M346.88 151.415L349.599 149.725C349.858 149.565 350.113 149.392 350.373 149.228C344.585 148.231 339.308 145.296 335.41 140.903C331.511 136.51 329.223 130.922 328.922 125.056C328.62 119.191 330.322 113.398 333.749 108.628C337.176 103.858 342.124 100.396 347.779 98.8111L347.645 109.475L353.503 97.8774H353.576C356.97 97.7187 360.362 98.2302 363.559 99.3826C366.756 100.535 369.694 102.306 372.206 104.594C374.718 106.882 376.755 109.643 378.2 112.718C379.645 115.793 380.47 119.123 380.628 122.517C380.654 123.01 380.628 123.499 380.628 123.987C382.664 121.661 384.519 119.167 385.742 116.435C388.219 110.906 388.267 104.638 388.072 97.0258C387.683 81.9348 387.03 66.7315 386.183 51.5757C380.066 50.8947 374.393 48.0556 370.181 43.5681C365.969 39.0806 363.495 33.2387 363.203 27.0913C363.168 26.3002 363.181 25.5178 363.203 24.744C363.203 24.5494 363.203 24.3549 363.233 24.1647C363.285 23.4125 363.354 22.669 363.471 21.9341C363.471 21.8131 363.514 21.6964 363.536 21.5797C363.64 20.9572 363.769 20.3433 363.916 19.7338C363.972 19.509 364.029 19.3015 364.089 19.0551C364.271 18.3981 364.47 17.7583 364.703 17.1056C364.781 16.8937 364.872 16.6733 364.954 16.4744C365.135 16.0032 365.334 15.5364 365.546 15.0782C365.658 14.8361 365.766 14.594 365.887 14.3562C365.918 14.2957 365.939 14.2309 365.974 14.1704C368.704 8.77584 373.239 4.50903 378.79 2.11201C384.34 -0.285011 390.556 -0.660585 396.355 1.05061L396.182 14.9269L401.974 3.46275C406.739 6.19124 410.507 10.3713 412.728 15.3928C414.949 20.4143 415.507 26.0142 414.32 31.3752H414.346C414.307 31.561 414.251 31.734 414.208 31.9198C414.126 32.2613 414.039 32.5985 413.944 32.9357C413.823 33.368 413.685 33.8003 413.542 34.2325C413.434 34.5481 413.33 34.868 413.209 35.1836C413.032 35.6418 412.833 36.087 412.634 36.5323C412.518 36.7916 412.414 37.0597 412.289 37.3147C411.96 37.9862 411.603 38.6389 411.216 39.2729C411.082 39.4977 410.931 39.7052 410.784 39.9257C410.508 40.358 410.231 40.7903 409.92 41.1923C409.734 41.4473 409.535 41.6894 409.34 41.9401C409.055 42.2989 408.765 42.6534 408.476 42.9949C408.264 43.2413 408.044 43.4747 407.823 43.7125C407.507 44.0453 407.179 44.3695 406.842 44.6894C406.621 44.9013 406.409 45.1217 406.163 45.3206C405.783 45.6577 405.385 45.982 404.983 46.2975C404.78 46.4531 404.581 46.6217 404.373 46.7774C403.76 47.2096 403.128 47.6419 402.476 48.0526C402.355 48.1304 402.221 48.1909 402.1 48.2644C401.551 48.5843 400.997 48.8869 400.427 49.1679C400.18 49.2889 399.93 49.3927 399.679 49.5051C399.212 49.7169 398.741 49.9373 398.257 50.1016C397.976 50.2097 397.69 50.3091 397.392 50.4085C396.917 50.5685 396.432 50.7154 395.944 50.8408C395.659 50.9186 395.369 51.0007 395.079 51.0699C394.552 51.1953 394.012 51.299 393.467 51.3941H393.363C393.718 57.789 394.035 64.1853 394.314 70.5831C395.855 67.414 398.027 64.5934 400.698 62.2944C403.368 59.9953 406.481 58.2665 409.844 57.2139C413.206 56.1613 416.749 55.8073 420.254 56.1736C423.758 56.5399 427.151 57.6187 430.224 59.3438L425.65 71.8799L435.061 62.8453C440.105 67.4575 443.112 73.8835 443.421 80.7115C443.542 83.1067 443.321 85.5069 442.764 87.8398C441.582 92.8871 438.91 97.4625 435.095 100.973C431.28 104.483 426.499 106.766 421.371 107.526C416.243 108.286 411.005 107.488 406.336 105.235C401.667 102.982 397.783 99.3776 395.187 94.8903C395.187 95.5387 395.235 96.1871 395.248 96.8399C395.421 103.558 395.637 111.918 392.287 119.383C390.017 124.441 386.369 128.548 382.777 132.231C380.429 134.63 377.996 136.947 375.501 139.191C373.048 142.489 369.844 145.157 366.155 146.972C362.057 150.132 357.812 153.101 353.425 155.842L350.684 157.545C348.22 159.071 345.696 160.64 343.223 162.27C343.655 162.227 344.087 162.179 344.52 162.158C350.006 161.902 355.431 163.398 360.011 166.428C364.591 169.459 368.089 173.867 369.998 179.017L353.831 192.171L371.615 188.047C371.61 192.422 370.495 196.725 368.376 200.553C366.257 204.381 363.202 207.61 359.497 209.937C355.792 212.265 351.558 213.615 347.189 213.862C342.821 214.11 338.461 213.246 334.517 211.351C334.914 211.853 335.315 212.351 335.718 212.847C336.514 213.835 337.299 214.818 338.074 215.795C348.596 229.118 351.523 241.771 346.314 251.415L339.976 247.991C345.047 238.607 337.422 226.589 332.424 220.261C331.664 219.295 330.891 218.33 330.107 217.364C323.385 209.013 315.769 199.546 315.955 187.935C316.235 170.41 333.228 159.88 346.88 151.415Z" fill="#F2F2F2"/>
<path d="M277.848 320.39C396.069 320.39 491.905 314.003 491.905 306.125C491.905 298.246 396.069 291.859 277.848 291.859C159.628 291.859 63.791 298.246 63.791 306.125C63.791 314.003 159.628 320.39 277.848 320.39Z" fill="#F2F2F2"/>
<path d="M285.038 306.557L208.01 305.571L208.235 303.596L211.961 271.006H279.609L284.584 303.596L284.965 306.064L285.038 306.557Z" fill="#2F2E41"/>
<path opacity="0.1" d="M284.965 306.064H246.522L208.01 305.571L208.235 303.596H284.584L284.965 306.064Z" fill="#F5F5F5"/>
<path d="M297.383 304.088H195.17V306.557H297.383V304.088Z" fill="#85E09F"/>
<path d="M394.906 75.2644C394.91 74.4203 394.747 73.5836 394.428 72.8022C394.109 72.0208 393.639 71.31 393.044 70.7103C392.45 70.1105 391.744 69.6337 390.966 69.307C390.187 68.9803 389.352 68.8101 388.508 68.8062H103.064C102.22 68.8101 101.385 68.9803 100.606 69.307C99.8279 69.6337 99.1215 70.1105 98.5274 70.7103C97.9333 71.31 97.4632 72.0208 97.1438 72.8022C96.8244 73.5836 96.6621 74.4203 96.6661 75.2644V248.289H394.906V75.2644Z" fill="#85E09F"/>
<path d="M96.666 246.565V266.83C96.666 268.527 97.3401 270.154 98.5399 271.354C99.7397 272.554 101.367 273.228 103.064 273.228H388.508C390.205 273.228 391.832 272.554 393.032 271.354C394.232 270.154 394.906 268.527 394.906 266.83V246.565H96.666Z" fill="#85E09F"/>
<path d="M384.038 79.6694H109.008V235.209H384.038V79.6694Z" fill="#2F2E41"/>
<path d="M247.252 265.537C248.262 265.539 249.259 265.31 250.167 264.869C251.075 264.428 251.872 263.786 252.495 262.991C252.686 262.749 252.859 262.493 253.014 262.226L249.357 261.625L253.312 261.656C253.691 260.83 253.898 259.936 253.92 259.028C253.942 258.119 253.78 257.216 253.442 256.373L248.134 259.127L253.027 255.53C252.567 254.74 251.95 254.053 251.214 253.512C250.478 252.97 249.638 252.586 248.747 252.383C247.856 252.18 246.933 252.162 246.035 252.331C245.136 252.5 244.283 252.851 243.526 253.364C242.769 253.877 242.126 254.539 241.637 255.311C241.147 256.083 240.822 256.947 240.68 257.85C240.538 258.753 240.584 259.675 240.814 260.559C241.044 261.444 241.453 262.272 242.017 262.991C242.64 263.784 243.434 264.426 244.341 264.867C245.248 265.308 246.243 265.537 247.252 265.537Z" fill="#CDF4DE"/>
<path opacity="0.1" d="M253.932 273.228L284.663 304.089L279.946 273.228H253.932Z" fill="#F5F5F5"/>
<path d="M336.466 294.289L344.744 289.447C343.623 287.537 342.193 285.827 340.512 284.385L324.902 289.24L337.132 282.046C334.103 280.387 330.695 279.546 327.243 279.604C323.79 279.662 320.413 280.618 317.442 282.379C314.471 284.139 312.01 286.642 310.301 289.642C308.592 292.642 307.693 296.036 307.693 299.489C307.693 310.473 316.598 310.854 327.578 310.854C338.558 310.854 347.463 310.473 347.463 299.489C347.467 296.71 346.886 293.962 345.76 291.423L336.466 294.289Z" fill="#57B894"/>
<path opacity="0.1" d="M338.575 304.966C337.692 304.083 336.707 303.31 335.64 302.662C334.14 301.663 332.584 300.647 330.811 300.306C329.26 300.008 327.652 300.258 326.056 300.172C323.304 300.003 320.713 298.815 318.79 296.839C317.657 295.672 316.771 294.245 315.409 293.342C313.944 292.382 312.085 292.175 310.352 292.412C309.846 292.488 309.345 292.592 308.852 292.724C308.071 294.886 307.673 297.168 307.676 299.467C307.676 310.451 316.581 310.832 327.561 310.832C332.891 310.832 337.732 310.741 341.303 309.392L340.706 308.277C340.139 307.088 339.423 305.975 338.575 304.966Z" fill="#F5F5F5"/>
<path opacity="0.3" d="M130.367 139.674H121.225V142.45H130.367V139.674Z" fill="#CDF4DE"/>
<path opacity="0.3" d="M374.326 139.757H365.184V142.532H374.326V139.757Z" fill="#CDF4DE"/>
<path opacity="0.3" d="M130.449 159.184H121.307V161.959H130.449V159.184Z" fill="#CDF4DE"/>
<path opacity="0.3" d="M130.531 178.692H121.389V181.468H130.531V178.692Z" fill="#CDF4DE"/>
<path opacity="0.3" d="M130.613 198.197H121.471V200.972H130.613V198.197Z" fill="#CDF4DE"/>
<g opacity="0.2">
<path opacity="0.2" d="M132.961 141.01H130.367V141.118H132.961V141.01Z" fill="#F2F2F2"/>
<path opacity="0.2" d="M357.329 141.118H352.232V141.01H357.329V141.118ZM347.131 141.118H342.035V141.01H347.131V141.118ZM336.934 141.118H331.833V141.01H336.934V141.118ZM326.736 141.118H321.635V141.01H326.736V141.118ZM316.539 141.118H311.438V141.01H316.539V141.118ZM306.337 141.118H301.24V141.01H306.337V141.118ZM296.139 141.118H291.038V141.01H296.139V141.118ZM285.942 141.118H280.841V141.01H285.942V141.118ZM275.744 141.118H270.643V141.01H275.744V141.118ZM265.542 141.118H260.446V141.01H265.542V141.118ZM255.345 141.118H250.244V141.01H255.345V141.118ZM245.147 141.118H240.046V141.01H245.147V141.118ZM234.95 141.118H229.849V141.01H234.95V141.118ZM224.748 141.118H219.651V141.01H224.748V141.118ZM214.55 141.118H209.454V141.01H214.55V141.118ZM204.353 141.118H199.269V141.01H204.37L204.353 141.118ZM194.155 141.118H189.054V141.01H194.155V141.118ZM183.954 141.118H178.857V141.01H183.954V141.118ZM173.756 141.118H168.659V141.01H173.765L173.756 141.118ZM163.558 141.118H158.458V141.01H163.558V141.118ZM153.361 141.118H148.26V141.01H153.361V141.118ZM143.159 141.118H138.062V141.01H143.159V141.118Z" fill="#F2F2F2"/>
<path opacity="0.2" d="M365.023 141.01H362.43V141.118H365.023V141.01Z" fill="#F2F2F2"/>
<path opacity="0.2" d="M132.961 141.01H130.367V141.118H132.961V141.01Z" fill="#F2F2F2"/>
<path opacity="0.2" d="M357.329 141.118H352.232V141.01H357.329V141.118ZM347.131 141.118H342.035V141.01H347.131V141.118ZM336.934 141.118H331.833V141.01H336.934V141.118ZM326.736 141.118H321.635V141.01H326.736V141.118ZM316.539 141.118H311.438V141.01H316.539V141.118ZM306.337 141.118H301.24V141.01H306.337V141.118ZM296.139 141.118H291.038V141.01H296.139V141.118ZM285.942 141.118H280.841V141.01H285.942V141.118ZM275.744 141.118H270.643V141.01H275.744V141.118ZM265.542 141.118H260.446V141.01H265.542V141.118ZM255.345 141.118H250.244V141.01H255.345V141.118ZM245.147 141.118H240.046V141.01H245.147V141.118ZM234.95 141.118H229.849V141.01H234.95V141.118ZM224.748 141.118H219.651V141.01H224.748V141.118ZM214.55 141.118H209.454V141.01H214.55V141.118ZM204.353 141.118H199.269V141.01H204.37L204.353 141.118ZM194.155 141.118H189.054V141.01H194.155V141.118ZM183.954 141.118H178.857V141.01H183.954V141.118ZM173.756 141.118H168.659V141.01H173.765L173.756 141.118ZM163.558 141.118H158.458V141.01H163.558V141.118ZM153.361 141.118H148.26V141.01H153.361V141.118ZM143.159 141.118H138.062V141.01H143.159V141.118Z" fill="#F2F2F2"/>
<path opacity="0.2" d="M365.023 141.01H362.43V141.118H365.023V141.01Z" fill="#F2F2F2"/>
</g>
<path opacity="0.3" d="M130.367 120.222H121.225V122.997H130.367V120.222Z" fill="#CDF4DE"/>
<path opacity="0.3" d="M374.326 120.304H365.184V123.079H374.326V120.304Z" fill="#CDF4DE"/>
<g opacity="0.2">
<path opacity="0.2" d="M132.961 121.558H130.367V121.666H132.961V121.558Z" fill="#F2F2F2"/>
<path opacity="0.2" d="M357.329 121.666H352.232V121.558H357.329V121.666ZM347.131 121.666H342.035V121.558H347.131V121.666ZM336.934 121.666H331.833V121.558H336.934V121.666ZM326.736 121.666H321.635V121.558H326.736V121.666ZM316.539 121.666H311.438V121.558H316.539V121.666ZM306.337 121.666H301.24V121.558H306.337V121.666ZM296.139 121.666H291.038V121.558H296.139V121.666ZM285.942 121.666H280.841V121.558H285.942V121.666ZM275.744 121.666H270.643V121.558H275.744V121.666ZM265.542 121.666H260.446V121.558H265.542V121.666ZM255.345 121.666H250.244V121.558H255.345V121.666ZM245.147 121.666H240.046V121.558H245.147V121.666ZM234.95 121.666H229.849V121.558H234.95V121.666ZM224.748 121.666H219.651V121.558H224.748V121.666ZM214.55 121.666H209.454V121.558H214.55V121.666ZM204.353 121.666H199.269V121.558H204.37L204.353 121.666ZM194.155 121.666H189.054V121.558H194.155V121.666ZM183.954 121.666H178.857V121.558H183.954V121.666ZM173.756 121.666H168.659V121.558H173.765L173.756 121.666ZM163.558 121.666H158.458V121.558H163.558V121.666ZM153.361 121.666H148.26V121.558H153.361V121.666ZM143.159 121.666H138.062V121.558H143.159V121.666Z" fill="#F2F2F2"/>
<path opacity="0.2" d="M365.023 121.558H362.43V121.666H365.023V121.558Z" fill="#F2F2F2"/>
</g>
<path opacity="0.3" d="M374.326 159.184H365.184V161.959H374.326V159.184Z" fill="#CDF4DE"/>
<g opacity="0.2">
<path opacity="0.2" d="M132.961 160.438H130.367V160.546H132.961V160.438Z" fill="#F2F2F2"/>
<path opacity="0.2" d="M357.329 160.541H352.232V160.433H357.329V160.541ZM347.131 160.541H342.035V160.433H347.131V160.541ZM336.934 160.541H331.833V160.433H336.934V160.541ZM326.736 160.541H321.635V160.433H326.736V160.541ZM316.539 160.541H311.438V160.433H316.539V160.541ZM306.337 160.541H301.24V160.433H306.337V160.541ZM296.139 160.541H291.038V160.433H296.139V160.541ZM285.942 160.541H280.841V160.433H285.942V160.541ZM275.744 160.541H270.643V160.433H275.744V160.541ZM265.542 160.541H260.446V160.433H265.542V160.541ZM255.345 160.541H250.244V160.433H255.345V160.541ZM245.147 160.541H240.046V160.433H245.147V160.541ZM234.95 160.541H229.849V160.433H234.95V160.541ZM224.748 160.541H219.651V160.433H224.748V160.541ZM214.55 160.541H209.454V160.433H214.55V160.541ZM204.353 160.541H199.269V160.433H204.37L204.353 160.541ZM194.155 160.541H189.054V160.433H194.155V160.541ZM183.954 160.541H178.857V160.433H183.954V160.541ZM173.756 160.541H168.659V160.433H173.765L173.756 160.541ZM163.558 160.541H158.458V160.433H163.558V160.541ZM153.361 160.541H148.26V160.433H153.361V160.541ZM143.159 160.541H138.062V160.433H143.159V160.541Z" fill="#F2F2F2"/>
<path opacity="0.2" d="M365.023 160.437H362.43V160.545H365.023V160.437Z" fill="#F2F2F2"/>
<path opacity="0.2" d="M132.961 160.438H130.367V160.546H132.961V160.438Z" fill="#F2F2F2"/>
<path opacity="0.2" d="M357.329 160.541H352.232V160.433H357.329V160.541ZM347.131 160.541H342.035V160.433H347.131V160.541ZM336.934 160.541H331.833V160.433H336.934V160.541ZM326.736 160.541H321.635V160.433H326.736V160.541ZM316.539 160.541H311.438V160.433H316.539V160.541ZM306.337 160.541H301.24V160.433H306.337V160.541ZM296.139 160.541H291.038V160.433H296.139V160.541ZM285.942 160.541H280.841V160.433H285.942V160.541ZM275.744 160.541H270.643V160.433H275.744V160.541ZM265.542 160.541H260.446V160.433H265.542V160.541ZM255.345 160.541H250.244V160.433H255.345V160.541ZM245.147 160.541H240.046V160.433H245.147V160.541ZM234.95 160.541H229.849V160.433H234.95V160.541ZM224.748 160.541H219.651V160.433H224.748V160.541ZM214.55 160.541H209.454V160.433H214.55V160.541ZM204.353 160.541H199.269V160.433H204.37L204.353 160.541ZM194.155 160.541H189.054V160.433H194.155V160.541ZM183.954 160.541H178.857V160.433H183.954V160.541ZM173.756 160.541H168.659V160.433H173.765L173.756 160.541ZM163.558 160.541H158.458V160.433H163.558V160.541ZM153.361 160.541H148.26V160.433H153.361V160.541ZM143.159 160.541H138.062V160.433H143.159V160.541Z" fill="#F2F2F2"/>
<path opacity="0.2" d="M365.023 160.437H362.43V160.545H365.023V160.437Z" fill="#F2F2F2"/>
</g>
<path opacity="0.3" d="M374.326 178.61H365.184V181.386H374.326V178.61Z" fill="#CDF4DE"/>
<g opacity="0.2">
<path opacity="0.2" d="M132.961 179.859H130.367V179.967H132.961V179.859Z" fill="#F2F2F2"/>
<path opacity="0.2" d="M357.329 179.967H352.232V179.859H357.329V179.967ZM347.131 179.967H342.035V179.859H347.131V179.967ZM336.934 179.967H331.833V179.859H336.934V179.967ZM326.736 179.967H321.635V179.859H326.736V179.967ZM316.539 179.967H311.438V179.859H316.539V179.967ZM306.337 179.967H301.24V179.859H306.337V179.967ZM296.139 179.967H291.038V179.859H296.139V179.967ZM285.942 179.967H280.841V179.859H285.942V179.967ZM275.744 179.967H270.643V179.859H275.744V179.967ZM265.542 179.967H260.446V179.859H265.542V179.967ZM255.345 179.967H250.244V179.859H255.345V179.967ZM245.147 179.967H240.046V179.859H245.147V179.967ZM234.95 179.967H229.849V179.859H234.95V179.967ZM224.748 179.967H219.651V179.859H224.748V179.967ZM214.55 179.967H209.454V179.859H214.55V179.967ZM204.353 179.967H199.269V179.859H204.37L204.353 179.967ZM194.155 179.967H189.054V179.859H194.155V179.967ZM183.954 179.967H178.857V179.859H183.954V179.967ZM173.756 179.967H168.659V179.859H173.765L173.756 179.967ZM163.558 179.967H158.458V179.859H163.558V179.967ZM153.361 179.967H148.26V179.859H153.361V179.967ZM143.159 179.967H138.062V179.859H143.159V179.967Z" fill="#F2F2F2"/>
<path opacity="0.2" d="M365.023 179.859H362.43V179.967H365.023V179.859Z" fill="#F2F2F2"/>
<path opacity="0.2" d="M132.961 179.859H130.367V179.967H132.961V179.859Z" fill="#F2F2F2"/>
<path opacity="0.2" d="M357.329 179.967H352.232V179.859H357.329V179.967ZM347.131 179.967H342.035V179.859H347.131V179.967ZM336.934 179.967H331.833V179.859H336.934V179.967ZM326.736 179.967H321.635V179.859H326.736V179.967ZM316.539 179.967H311.438V179.859H316.539V179.967ZM306.337 179.967H301.24V179.859H306.337V179.967ZM296.139 179.967H291.038V179.859H296.139V179.967ZM285.942 179.967H280.841V179.859H285.942V179.967ZM275.744 179.967H270.643V179.859H275.744V179.967ZM265.542 179.967H260.446V179.859H265.542V179.967ZM255.345 179.967H250.244V179.859H255.345V179.967ZM245.147 179.967H240.046V179.859H245.147V179.967ZM234.95 179.967H229.849V179.859H234.95V179.967ZM224.748 179.967H219.651V179.859H224.748V179.967ZM214.55 179.967H209.454V179.859H214.55V179.967ZM204.353 179.967H199.269V179.859H204.37L204.353 179.967ZM194.155 179.967H189.054V179.859H194.155V179.967ZM183.954 179.967H178.857V179.859H183.954V179.967ZM173.756 179.967H168.659V179.859H173.765L173.756 179.967ZM163.558 179.967H158.458V179.859H163.558V179.967ZM153.361 179.967H148.26V179.859H153.361V179.967ZM143.159 179.967H138.062V179.859H143.159V179.967Z" fill="#F2F2F2"/>
<path opacity="0.2" d="M365.023 179.859H362.43V179.967H365.023V179.859Z" fill="#F2F2F2"/>
</g>
<path opacity="0.3" d="M374.326 198.033H365.184V200.808H374.326V198.033Z" fill="#CDF4DE"/>
<g opacity="0.2">
<path opacity="0.2" d="M132.961 199.286H130.367V199.394H132.961V199.286Z" fill="#F2F2F2"/>
<path opacity="0.2" d="M357.329 199.394H352.232V199.286H357.329V199.394ZM347.131 199.394H342.035V199.286H347.131V199.394ZM336.934 199.394H331.833V199.286H336.934V199.394ZM326.736 199.394H321.635V199.286H326.736V199.394ZM316.539 199.394H311.438V199.286H316.539V199.394ZM306.337 199.394H301.24V199.286H306.337V199.394ZM296.139 199.394H291.038V199.286H296.139V199.394ZM285.942 199.394H280.841V199.286H285.942V199.394ZM275.744 199.394H270.643V199.286H275.744V199.394ZM265.542 199.394H260.446V199.286H265.542V199.394ZM255.345 199.394H250.244V199.286H255.345V199.394ZM245.147 199.394H240.046V199.286H245.147V199.394ZM234.95 199.394H229.849V199.286H234.95V199.394ZM224.748 199.394H219.651V199.286H224.748V199.394ZM214.55 199.394H209.454V199.286H214.55V199.394ZM204.353 199.394H199.269V199.286H204.37L204.353 199.394ZM194.155 199.394H189.054V199.286H194.155V199.394ZM183.954 199.394H178.857V199.286H183.954V199.394ZM173.756 199.394H168.659V199.286H173.765L173.756 199.394ZM163.558 199.394H158.458V199.286H163.558V199.394ZM153.361 199.394H148.26V199.286H153.361V199.394ZM143.159 199.394H138.062V199.286H143.159V199.394Z" fill="#F2F2F2"/>
<path opacity="0.2" d="M365.023 199.286H362.43V199.394H365.023V199.286Z" fill="#F2F2F2"/>
<path opacity="0.2" d="M132.961 199.286H130.367V199.394H132.961V199.286Z" fill="#F2F2F2"/>
<path opacity="0.2" d="M357.329 199.394H352.232V199.286H357.329V199.394ZM347.131 199.394H342.035V199.286H347.131V199.394ZM336.934 199.394H331.833V199.286H336.934V199.394ZM326.736 199.394H321.635V199.286H326.736V199.394ZM316.539 199.394H311.438V199.286H316.539V199.394ZM306.337 199.394H301.24V199.286H306.337V199.394ZM296.139 199.394H291.038V199.286H296.139V199.394ZM285.942 199.394H280.841V199.286H285.942V199.394ZM275.744 199.394H270.643V199.286H275.744V199.394ZM265.542 199.394H260.446V199.286H265.542V199.394ZM255.345 199.394H250.244V199.286H255.345V199.394ZM245.147 199.394H240.046V199.286H245.147V199.394ZM234.95 199.394H229.849V199.286H234.95V199.394ZM224.748 199.394H219.651V199.286H224.748V199.394ZM214.55 199.394H209.454V199.286H214.55V199.394ZM204.353 199.394H199.269V199.286H204.37L204.353 199.394ZM194.155 199.394H189.054V199.286H194.155V199.394ZM183.954 199.394H178.857V199.286H183.954V199.394ZM173.756 199.394H168.659V199.286H173.765L173.756 199.394ZM163.558 199.394H158.458V199.286H163.558V199.394ZM153.361 199.394H148.26V199.286H153.361V199.394ZM143.159 199.394H138.062V199.286H143.159V199.394Z" fill="#F2F2F2"/>
<path opacity="0.2" d="M365.023 199.286H362.43V199.394H365.023V199.286Z" fill="#F2F2F2"/>
</g>
<path d="M160.174 121.691V199.584" stroke="#F2F2F2" stroke-width="0.1" stroke-miterlimit="10"/>
<path d="M191.73 121.691V199.584" stroke="#F2F2F2" stroke-width="0.1" stroke-miterlimit="10"/>
<path d="M223.287 121.691V199.584" stroke="#F2F2F2" stroke-width="0.1" stroke-miterlimit="10"/>
<path d="M254.844 121.691V199.584" stroke="#F2F2F2" stroke-width="0.1" stroke-miterlimit="10"/>
<path d="M286.4 121.691V199.584" stroke="#F2F2F2" stroke-width="0.1" stroke-miterlimit="10"/>
<path d="M317.957 121.691V199.584" stroke="#F2F2F2" stroke-width="0.1" stroke-miterlimit="10"/>
<path d="M349.512 121.691V199.584" stroke="#F2F2F2" stroke-width="0.1" stroke-miterlimit="10"/>
<path opacity="0.3" d="M356.296 116.313L352.687 120.074C352.614 120.153 352.553 120.242 352.505 120.338L350.266 124.95C350.177 125.136 350.034 125.29 349.856 125.392C349.678 125.495 349.473 125.541 349.268 125.525L348.55 125.469C348.342 125.454 348.143 125.376 347.981 125.244C347.818 125.113 347.7 124.935 347.642 124.734L346.951 122.339C346.89 122.13 346.765 121.945 346.592 121.812C346.419 121.679 346.209 121.604 345.991 121.599C345.773 121.594 345.559 121.658 345.38 121.783C345.202 121.907 345.067 122.086 344.997 122.292L343.834 125.698C343.765 125.901 343.634 126.078 343.46 126.203C343.285 126.328 343.076 126.395 342.861 126.394H338.422C338.178 126.393 337.943 126.306 337.757 126.147C337.572 125.989 337.449 125.77 337.41 125.53L336.156 117.684C336.123 117.469 336.023 117.271 335.869 117.117C335.716 116.963 335.517 116.862 335.303 116.829C335.088 116.795 334.869 116.83 334.676 116.93C334.483 117.029 334.326 117.187 334.229 117.381L327.8 130.069C327.734 130.2 327.64 130.315 327.525 130.407C327.41 130.499 327.277 130.565 327.134 130.601C326.992 130.637 326.843 130.641 326.698 130.614C326.554 130.587 326.416 130.529 326.296 130.445L322.475 127.747C322.266 127.601 322.011 127.537 321.758 127.567C321.505 127.597 321.272 127.72 321.104 127.911L319.656 129.584C319.614 129.634 319.576 129.687 319.544 129.744L315.679 136.432C315.581 136.603 315.435 136.742 315.26 136.832C315.084 136.922 314.886 136.959 314.689 136.938L312.333 136.704C312.169 136.688 312.003 136.712 311.849 136.773L309.74 137.616C309.495 137.708 309.225 137.704 308.984 137.603C308.743 137.503 308.55 137.314 308.443 137.076L307.98 136.017C307.897 135.827 307.758 135.667 307.582 135.558C307.407 135.448 307.202 135.394 306.995 135.403L304.583 135.515C304.433 135.522 304.287 135.561 304.155 135.63C304.023 135.7 303.907 135.798 303.817 135.917L303.134 136.808C303.022 136.955 302.872 137.068 302.7 137.137C302.529 137.205 302.341 137.226 302.159 137.197C301.976 137.168 301.805 137.089 301.663 136.971C301.521 136.852 301.414 136.697 301.353 136.523L300.489 134.08C300.436 133.928 300.347 133.791 300.231 133.68C300.115 133.568 299.974 133.486 299.82 133.439C299.665 133.392 299.502 133.382 299.344 133.41C299.185 133.439 299.036 133.504 298.907 133.6L294.8 136.678L290.261 140.34C290.106 140.464 289.918 140.541 289.72 140.561C289.522 140.581 289.323 140.543 289.146 140.452L285.623 138.623C285.434 138.527 285.219 138.49 285.009 138.52L277.872 139.518C277.665 139.546 277.472 139.636 277.317 139.777C277.163 139.917 277.055 140.102 277.007 140.305L275.741 145.808C275.701 145.98 275.618 146.138 275.5 146.268C275.381 146.399 275.231 146.496 275.063 146.551C274.896 146.606 274.717 146.618 274.544 146.584C274.372 146.549 274.21 146.471 274.077 146.357C273.958 146.256 273.818 146.183 273.667 146.144C273.516 146.105 273.358 146.1 273.206 146.131C273.053 146.162 272.909 146.227 272.785 146.322C272.661 146.416 272.56 146.538 272.49 146.677L271.517 148.626C271.444 148.77 271.339 148.896 271.209 148.992C271.079 149.088 270.929 149.152 270.77 149.18L268.561 149.547C268.418 149.572 268.283 149.626 268.163 149.707L264.683 152.024C264.516 152.137 264.318 152.197 264.117 152.197H262.487C262.287 152.197 262.091 152.139 261.923 152.029C261.756 151.919 261.624 151.763 261.545 151.579L261.112 150.546C261.057 150.421 260.978 150.308 260.878 150.214C260.779 150.12 260.662 150.046 260.534 149.999C260.405 149.951 260.269 149.929 260.132 149.934C259.996 149.94 259.861 149.973 259.738 150.031L255.96 151.799C255.807 151.871 255.64 151.904 255.472 151.896C255.304 151.887 255.14 151.838 254.996 151.752L253.266 150.71C253.107 150.614 252.925 150.564 252.739 150.563H248.922C248.72 150.564 248.523 150.624 248.356 150.736L244.547 153.265C244.401 153.362 244.231 153.42 244.056 153.433C243.88 153.446 243.704 153.413 243.544 153.338L241.815 152.521C241.614 152.427 241.387 152.401 241.17 152.447C240.952 152.493 240.755 152.609 240.609 152.776L239.788 153.714C239.681 153.839 239.545 153.935 239.392 153.996C239.239 154.056 239.074 154.079 238.911 154.062C238.747 154.045 238.59 153.989 238.453 153.898C238.316 153.808 238.203 153.685 238.124 153.541L237.877 153.109C237.81 152.99 237.72 152.885 237.612 152.801C237.504 152.717 237.381 152.655 237.249 152.62C237.116 152.584 236.979 152.576 236.843 152.594C236.707 152.613 236.577 152.659 236.459 152.729L233.464 154.505C233.308 154.595 233.133 154.641 232.954 154.641C232.775 154.641 232.599 154.595 232.443 154.505L231.207 153.818C231.068 153.74 230.911 153.695 230.751 153.688C230.591 153.681 230.432 153.713 230.286 153.779L229.111 154.315C228.978 154.375 228.835 154.405 228.69 154.406C228.545 154.406 228.402 154.376 228.269 154.317C228.137 154.258 228.018 154.172 227.921 154.065C227.824 153.957 227.751 153.831 227.706 153.693L226.945 151.428C226.88 151.22 226.75 151.038 226.574 150.91C226.398 150.781 226.186 150.713 225.968 150.714H224.861C224.687 150.715 224.516 150.67 224.364 150.585L220.115 148.255C219.942 148.161 219.746 148.119 219.549 148.134C219.353 148.148 219.165 148.219 219.008 148.337L215.891 150.671C215.714 150.804 215.499 150.875 215.278 150.874H211.357C211.155 150.874 210.958 150.935 210.791 151.047L210.056 151.536C209.935 151.617 209.798 151.671 209.654 151.695C209.511 151.719 209.364 151.712 209.223 151.675C209.082 151.638 208.951 151.571 208.838 151.479C208.726 151.387 208.634 151.273 208.569 151.142L208.391 150.792C208.307 150.621 208.177 150.477 208.015 150.376C207.853 150.275 207.666 150.221 207.475 150.222H205.508C205.352 150.222 205.198 150.258 205.058 150.327C204.918 150.396 204.795 150.496 204.7 150.619L203.481 152.18C203.38 152.309 203.249 152.412 203.1 152.481C202.95 152.549 202.787 152.581 202.623 152.573C202.459 152.564 202.299 152.517 202.157 152.435C202.015 152.352 201.896 152.236 201.808 152.098L201.462 151.557C201.319 151.331 201.093 151.17 200.833 151.108C200.573 151.047 200.299 151.09 200.07 151.229L199.058 151.834C198.886 151.937 198.688 151.987 198.487 151.979C198.287 151.97 198.093 151.903 197.93 151.786L193.854 148.834C193.781 148.782 193.703 148.739 193.62 148.704L190.434 147.481C190.186 147.391 189.913 147.4 189.671 147.506C189.43 147.612 189.239 147.808 189.138 148.051L186.92 153.455C186.888 153.531 186.866 153.611 186.855 153.693L186.137 158.56C186.106 158.766 186.012 158.958 185.869 159.109L184.352 160.739C184.195 160.905 183.987 161.014 183.761 161.05C183.535 161.085 183.303 161.044 183.103 160.933L180.47 159.472C180.339 159.399 180.194 159.355 180.044 159.344C179.894 159.334 179.744 159.356 179.604 159.409C179.464 159.463 179.337 159.547 179.233 159.655C179.128 159.763 179.049 159.892 179.001 160.034L177.332 164.915C177.294 165.022 177.275 165.134 177.276 165.248V168.325C177.275 168.525 177.216 168.72 177.107 168.887C176.997 169.053 176.841 169.184 176.658 169.264L173.982 170.448C173.833 170.512 173.671 170.54 173.51 170.529C173.348 170.519 173.191 170.47 173.052 170.387L171.038 169.203C170.837 169.085 170.602 169.04 170.372 169.073L166.84 169.579C166.638 169.608 166.432 169.576 166.249 169.486C166.066 169.397 165.913 169.255 165.812 169.078L165.215 168.057C165.086 167.837 164.88 167.674 164.636 167.599L163.032 167.098C162.845 167.038 162.645 167.034 162.455 167.085C162.266 167.137 162.096 167.242 161.964 167.387L159.738 169.86C159.562 170.054 159.32 170.174 159.059 170.197L155.774 170.474C155.622 170.483 155.474 170.527 155.342 170.604L149.614 173.898C149.435 173.999 149.23 174.045 149.025 174.029C148.82 174.012 148.625 173.935 148.464 173.807L146.839 172.51C146.657 172.365 146.431 172.286 146.199 172.285H140.043C139.89 172.286 139.738 172.251 139.599 172.185C139.461 172.118 139.339 172.021 139.244 171.9L137.692 169.964C137.599 169.848 137.482 169.754 137.349 169.688C137.216 169.622 137.07 169.586 136.921 169.581C136.773 169.577 136.625 169.606 136.489 169.664C136.353 169.723 136.23 169.81 136.131 169.921L134.264 171.996C134.095 172.183 134.001 172.426 134 172.679V198.46C134 198.732 134.108 198.992 134.3 199.184C134.492 199.376 134.753 199.484 135.025 199.484H357.101C357.235 199.484 357.369 199.458 357.494 199.406C357.618 199.354 357.731 199.278 357.826 199.183C357.922 199.087 357.997 198.974 358.048 198.849C358.1 198.724 358.126 198.59 358.125 198.456L358.064 117.044C358.068 116.838 358.009 116.635 357.895 116.463C357.782 116.291 357.619 116.157 357.429 116.078C357.238 115.999 357.028 115.98 356.826 116.022C356.624 116.064 356.44 116.165 356.296 116.313Z" fill="#CDF4DE"/>
<path opacity="0.3" d="M356.14 149.82L352.794 152.051C352.676 152.13 352.573 152.228 352.487 152.34L350.408 155.085C350.282 155.248 350.119 155.378 349.932 155.466C349.746 155.553 349.541 155.594 349.336 155.587L348.657 155.552C348.424 155.541 348.199 155.465 348.006 155.334C347.813 155.203 347.66 155.021 347.563 154.809L347.131 153.888C347.034 153.672 346.879 153.487 346.682 153.355C346.486 153.223 346.256 153.149 346.019 153.141C345.783 153.133 345.548 153.192 345.344 153.311C345.139 153.431 344.972 153.605 344.861 153.814L343.997 155.47C343.889 155.673 343.728 155.843 343.53 155.961C343.333 156.079 343.107 156.141 342.877 156.14H338.589C338.306 156.141 338.031 156.047 337.809 155.873C337.586 155.699 337.428 155.455 337.361 155.18L336.333 151.061C336.275 150.831 336.155 150.622 335.985 150.458C335.815 150.293 335.602 150.179 335.371 150.129C335.14 150.079 334.899 150.095 334.676 150.175C334.453 150.255 334.258 150.395 334.111 150.581L327.929 158.397C327.755 158.619 327.511 158.776 327.236 158.843C326.962 158.909 326.673 158.882 326.416 158.764L322.443 156.97C322.235 156.873 322.005 156.834 321.776 156.857C321.548 156.881 321.33 156.966 321.147 157.104L319.724 158.155C319.656 158.205 319.594 158.263 319.538 158.327L315.786 162.482C315.66 162.626 315.503 162.74 315.326 162.815C315.149 162.89 314.958 162.924 314.766 162.914L312.315 162.758C312.181 162.75 312.047 162.762 311.917 162.793L309.708 163.359C309.456 163.425 309.19 163.411 308.947 163.32C308.703 163.229 308.493 163.064 308.347 162.849L308.096 162.477C307.976 162.303 307.814 162.161 307.626 162.065C307.437 161.969 307.227 161.922 307.015 161.928L304.551 162.002C304.267 162.007 303.993 162.111 303.777 162.296L303.172 162.802C303.029 162.922 302.861 163.009 302.68 163.057C302.499 163.104 302.31 163.111 302.126 163.077C301.942 163.042 301.768 162.968 301.616 162.858C301.464 162.749 301.339 162.607 301.249 162.443L300.609 161.284C300.453 161.001 300.195 160.788 299.887 160.689C299.579 160.591 299.245 160.613 298.953 160.753L294.808 162.745L290.221 165.114C290.071 165.191 289.908 165.237 289.74 165.25C289.572 165.263 289.404 165.242 289.244 165.188L285.591 163.977C285.427 163.923 285.254 163.903 285.081 163.917L278.009 164.518C277.769 164.543 277.541 164.634 277.35 164.781C277.159 164.929 277.013 165.126 276.928 165.352L275.904 168.214C275.842 168.386 275.744 168.542 275.616 168.673C275.488 168.803 275.333 168.904 275.162 168.969C274.991 169.034 274.808 169.061 274.626 169.048C274.444 169.036 274.266 168.984 274.106 168.897L274.062 168.875C273.8 168.73 273.494 168.683 273.2 168.743C272.906 168.803 272.643 168.967 272.459 169.204L271.655 170.233C271.441 170.5 271.13 170.673 270.79 170.712L268.577 170.95C268.452 170.963 268.33 170.993 268.214 171.041L264.708 172.541C264.55 172.606 264.381 172.64 264.211 172.64H262.525C262.319 172.64 262.115 172.59 261.933 172.493C261.751 172.397 261.595 172.257 261.479 172.087L261.237 171.733C261.085 171.511 260.866 171.343 260.613 171.254C260.36 171.165 260.085 171.158 259.827 171.235L255.898 172.424C255.628 172.505 255.339 172.495 255.077 172.394L253.252 171.694C253.115 171.639 252.968 171.61 252.82 171.607H248.904C248.734 171.607 248.566 171.642 248.411 171.711L244.52 173.362C244.247 173.48 243.94 173.497 243.656 173.41L241.732 172.835C241.545 172.779 241.347 172.767 241.154 172.8C240.962 172.833 240.779 172.91 240.621 173.025L239.778 173.643C239.523 173.83 239.207 173.914 238.893 173.88C238.578 173.846 238.288 173.695 238.079 173.457L237.954 173.315C237.784 173.121 237.559 172.983 237.308 172.921C237.058 172.858 236.795 172.873 236.553 172.965L233.419 174.162C233.14 174.264 232.834 174.264 232.555 174.162L231.18 173.669C230.929 173.582 230.657 173.575 230.402 173.648L229.105 174.024C228.821 174.106 228.518 174.086 228.247 173.967C227.976 173.849 227.755 173.639 227.622 173.375L227.138 172.403C227.033 172.193 226.871 172.016 226.671 171.892C226.471 171.769 226.241 171.703 226.006 171.702H224.882C224.735 171.705 224.588 171.681 224.449 171.633L220.088 170.103C219.931 170.047 219.765 170.022 219.598 170.031C219.432 170.04 219.269 170.082 219.119 170.155L215.934 171.685C215.762 171.766 215.575 171.809 215.385 171.81H211.36C211.189 171.811 211.021 171.845 210.863 171.91L210.042 172.264C209.785 172.373 209.499 172.395 209.229 172.325C208.958 172.256 208.718 172.099 208.546 171.88C208.428 171.727 208.276 171.604 208.103 171.519C207.93 171.435 207.74 171.391 207.547 171.391H205.516C205.223 171.391 204.939 171.491 204.712 171.676L203.531 172.645C203.289 172.846 202.98 172.948 202.665 172.932C202.351 172.916 202.053 172.783 201.833 172.558L201.564 172.29C201.391 172.116 201.171 171.996 200.931 171.944C200.691 171.893 200.441 171.912 200.211 172.001L199.036 172.454C198.714 172.574 198.358 172.562 198.046 172.42L193.909 170.501C193.836 170.466 193.759 170.44 193.68 170.423L190.433 169.623C190.177 169.559 189.908 169.577 189.662 169.675C189.417 169.773 189.209 169.945 189.067 170.168L187.027 173.349C186.949 173.471 186.892 173.606 186.858 173.747L186.24 176.449C186.166 176.757 185.982 177.028 185.721 177.21L184.373 178.135C184.209 178.248 184.02 178.32 183.822 178.346C183.624 178.371 183.423 178.349 183.236 178.282L180.461 177.296C180.17 177.194 179.853 177.2 179.567 177.315C179.282 177.429 179.048 177.644 178.909 177.918L177.448 180.651C177.351 180.835 177.301 181.039 177.301 181.247V182.479C177.299 182.756 177.208 183.024 177.04 183.244C176.873 183.464 176.638 183.624 176.371 183.698L173.942 184.372C173.684 184.445 173.41 184.433 173.159 184.338L171.041 183.538C170.862 183.469 170.67 183.443 170.479 183.46L166.826 183.793C166.632 183.812 166.435 183.785 166.253 183.715C166.071 183.644 165.907 183.532 165.776 183.387L165.344 182.907C165.164 182.705 164.922 182.568 164.656 182.518L162.992 182.181C162.822 182.149 162.647 182.151 162.478 182.187C162.309 182.223 162.148 182.293 162.006 182.393L159.815 183.953C159.619 184.091 159.388 184.172 159.149 184.187L155.79 184.364C155.663 184.372 155.538 184.398 155.418 184.442L149.587 186.603C149.424 186.665 149.249 186.692 149.075 186.681C148.9 186.671 148.73 186.623 148.575 186.543L146.89 185.678C146.711 185.587 146.514 185.54 146.315 185.54H140.047C139.757 185.54 139.476 185.44 139.251 185.259L137.734 184.044C137.519 183.872 137.253 183.774 136.978 183.767C136.703 183.759 136.432 183.841 136.208 184.001L134.582 185.159C134.418 185.277 134.284 185.432 134.192 185.611C134.099 185.791 134.051 185.99 134.051 186.192V198.344C134.051 198.68 134.184 199.002 134.422 199.239C134.659 199.477 134.981 199.61 135.317 199.61H356.901C357.236 199.61 357.559 199.477 357.796 199.239C358.034 199.002 358.167 198.68 358.167 198.344L358.107 150.892C358.11 150.662 358.05 150.435 357.933 150.236C357.817 150.037 357.649 149.874 357.446 149.763C357.244 149.653 357.015 149.6 356.785 149.61C356.555 149.62 356.332 149.693 356.14 149.82Z" fill="#CDF4DE"/>
<path d="M357.034 152.526C358.705 152.526 360.06 151.171 360.06 149.5C360.06 147.829 358.705 146.474 357.034 146.474C355.363 146.474 354.008 147.829 354.008 149.5C354.008 151.171 355.363 152.526 357.034 152.526Z" fill="#CDF4DE"/>
<path opacity="0.3" d="M356.839 179.436L352.728 180.806C352.649 180.833 352.574 180.87 352.503 180.914L350.247 182.406C350.082 182.513 349.889 182.567 349.693 182.561L348.288 182.527C348.158 182.524 348.029 182.495 347.91 182.44C347.791 182.386 347.684 182.308 347.597 182.211L346.732 181.26C346.646 181.165 346.542 181.088 346.426 181.034C346.31 180.979 346.185 180.949 346.057 180.944C345.929 180.938 345.801 180.959 345.681 181.003C345.561 181.048 345.451 181.116 345.358 181.204L343.901 182.57C343.724 182.739 343.488 182.833 343.244 182.834H338.195C338.015 182.835 337.838 182.785 337.685 182.69C337.532 182.595 337.409 182.459 337.33 182.298L336.176 179.993C336.116 179.873 336.031 179.767 335.927 179.681C335.824 179.596 335.703 179.533 335.574 179.497C335.444 179.461 335.309 179.452 335.176 179.471C335.043 179.49 334.915 179.537 334.801 179.609L327.656 184.135C327.439 184.27 327.178 184.315 326.929 184.26L322.036 183.158C321.855 183.115 321.665 183.127 321.491 183.192L319.706 183.854C319.659 183.868 319.614 183.889 319.572 183.914L315.625 186.102C315.473 186.185 315.301 186.226 315.128 186.223L312.206 186.128C312.156 186.123 312.105 186.123 312.055 186.128L309.245 186.486C309 186.516 308.753 186.453 308.553 186.309L307.982 185.877C307.814 185.752 307.609 185.687 307.399 185.691L304.317 185.734C304.193 185.734 304.071 185.759 303.958 185.808L302.575 186.391C302.405 186.461 302.219 186.482 302.039 186.45C301.858 186.419 301.69 186.337 301.554 186.214L300.422 185.211C300.306 185.107 300.167 185.033 300.017 184.994C299.866 184.956 299.708 184.955 299.557 184.991L294.828 186.132L289.965 187.39C289.834 187.418 289.698 187.418 289.567 187.39L285.461 186.707C285.394 186.702 285.328 186.702 285.262 186.707L277.667 187.048C277.521 187.055 277.379 187.094 277.251 187.164C277.122 187.234 277.012 187.332 276.927 187.45L275.782 189.028C275.667 189.188 275.507 189.31 275.321 189.375C275.135 189.441 274.934 189.448 274.744 189.396L273.521 189.058C273.391 189.024 273.255 189.017 273.121 189.038C272.988 189.059 272.861 189.107 272.747 189.179L271.524 189.962C271.383 190.049 271.222 190.1 271.057 190.109L268.463 190.252C268.414 190.247 268.365 190.247 268.316 190.252L264.573 191.051C264.506 191.065 264.438 191.072 264.37 191.073H262.174C261.97 191.073 261.771 191.008 261.607 190.887L261.037 190.455C260.936 190.38 260.822 190.325 260.7 190.295C260.578 190.264 260.452 190.259 260.328 190.277L255.655 190.978C255.547 190.995 255.438 190.995 255.331 190.978L253.135 190.545C253.074 190.539 253.013 190.539 252.953 190.545H248.738C248.672 190.539 248.606 190.539 248.539 190.545L244.264 191.453C244.15 191.475 244.033 191.475 243.918 191.453L241.372 191.068C241.212 191.047 241.049 191.064 240.897 191.12L239.263 191.717C239.131 191.766 238.991 191.785 238.851 191.773C238.711 191.761 238.576 191.718 238.454 191.648L237.681 191.215C237.484 191.1 237.252 191.06 237.028 191.103L233.137 191.842C233.021 191.864 232.903 191.864 232.787 191.842L230.915 191.509C230.814 191.494 230.71 191.494 230.608 191.509L228.542 191.808C228.394 191.83 228.243 191.818 228.102 191.771C227.96 191.725 227.831 191.645 227.725 191.54L227.042 190.887C226.859 190.708 226.615 190.608 226.359 190.606H224.721C224.666 190.61 224.611 190.61 224.556 190.606L219.775 189.767C219.646 189.739 219.512 189.739 219.382 189.767L215.768 190.632C215.694 190.649 215.619 190.658 215.543 190.658H211.19C211.124 190.651 211.058 190.651 210.991 190.658L209.517 190.973C209.269 191.042 209.004 191.011 208.778 190.887L208.372 190.623C208.217 190.525 208.037 190.472 207.853 190.472H205.22C205.096 190.473 204.972 190.497 204.857 190.545L203.016 191.298C202.889 191.351 202.752 191.375 202.615 191.37C202.477 191.365 202.343 191.33 202.22 191.267L201.244 190.775C201.054 190.68 200.838 190.649 200.63 190.688L198.702 191.06C198.571 191.088 198.435 191.088 198.304 191.06L193.834 190.022H193.735L189.935 189.551C189.682 189.522 189.427 189.594 189.226 189.75L187.065 191.427C186.944 191.521 186.847 191.643 186.784 191.782L186.3 192.858C186.245 192.976 186.167 193.083 186.07 193.17C185.974 193.258 185.861 193.325 185.738 193.368L184.078 193.935C183.924 193.99 183.758 194.004 183.598 193.973L179.906 193.316C179.759 193.291 179.608 193.3 179.464 193.343C179.321 193.385 179.19 193.461 179.08 193.563L177.615 194.933C177.519 195.023 177.442 195.133 177.39 195.254C177.338 195.375 177.312 195.506 177.312 195.638C177.312 195.87 177.228 196.094 177.076 196.269C176.923 196.444 176.712 196.557 176.482 196.589L173.712 196.973C173.608 196.991 173.503 196.991 173.4 196.973L170.893 196.498C170.818 196.489 170.743 196.489 170.668 196.498L166.479 196.688C166.303 196.695 166.129 196.655 165.974 196.571L165.239 196.169C165.126 196.105 165.001 196.065 164.871 196.053L162.671 195.832C162.525 195.817 162.377 195.835 162.239 195.884L159.645 196.805C159.549 196.839 159.449 196.858 159.347 196.861L155.659 196.96C155.609 196.956 155.558 196.956 155.508 196.96L149.262 198.115C149.126 198.143 148.986 198.143 148.851 198.115L146.724 197.57C146.645 197.551 146.564 197.541 146.482 197.54H139.777C139.654 197.541 139.532 197.517 139.419 197.471L137.318 196.632C137.098 196.548 136.855 196.548 136.635 196.632L134.681 197.328C134.494 197.393 134.331 197.516 134.217 197.678C134.102 197.839 134.041 198.033 134.041 198.231V198.664C134.04 198.79 134.065 198.915 134.113 199.032C134.161 199.149 134.231 199.255 134.321 199.345C134.41 199.435 134.516 199.506 134.632 199.554C134.749 199.603 134.874 199.628 135.001 199.628H357.193C357.32 199.628 357.445 199.603 357.562 199.554C357.678 199.506 357.784 199.435 357.873 199.345C357.963 199.255 358.033 199.149 358.081 199.032C358.129 198.915 358.154 198.79 358.153 198.664L358.097 180.391C358.103 180.236 358.071 180.082 358.005 179.942C357.939 179.802 357.84 179.68 357.717 179.586C357.593 179.492 357.449 179.43 357.296 179.403C357.143 179.377 356.986 179.388 356.839 179.436Z" fill="#CDF4DE"/>
<path d="M190.606 172.843C192.277 172.843 193.632 171.489 193.632 169.817C193.632 168.146 192.277 166.792 190.606 166.792C188.935 166.792 187.58 168.146 187.58 169.817C187.58 171.489 188.935 172.843 190.606 172.843Z" fill="#CDF4DE"/>
<path d="M335.852 153.823C337.523 153.823 338.878 152.468 338.878 150.797C338.878 149.126 337.523 147.771 335.852 147.771C334.181 147.771 332.826 149.126 332.826 150.797C332.826 152.468 334.181 153.823 335.852 153.823Z" fill="#CDF4DE"/>
<path d="M260.635 174.14C262.306 174.14 263.661 172.786 263.661 171.114C263.661 169.443 262.306 168.088 260.635 168.088C258.964 168.088 257.609 169.443 257.609 171.114C257.609 172.786 258.964 174.14 260.635 174.14Z" fill="#CDF4DE"/>
<path d="M299.973 163.333C301.644 163.333 302.999 161.978 302.999 160.307C302.999 158.636 301.644 157.281 299.973 157.281C298.302 157.281 296.947 158.636 296.947 160.307C296.947 161.978 298.302 163.333 299.973 163.333Z" fill="#CDF4DE"/>
<path d="M358.538 150.866C358.537 150.638 358.475 150.413 358.357 150.218C358.239 150.022 358.07 149.862 357.868 149.754C357.667 149.646 357.44 149.595 357.211 149.606C356.983 149.617 356.762 149.689 356.571 149.816L353.226 152.046C353.108 152.125 353.004 152.223 352.919 152.336L350.839 155.081C350.713 155.244 350.55 155.374 350.364 155.461C350.177 155.548 349.973 155.59 349.767 155.582L349.089 155.548C348.856 155.536 348.63 155.461 348.437 155.329C348.245 155.198 348.091 155.017 347.995 154.804L347.563 153.883C347.466 153.667 347.311 153.482 347.114 153.35C346.917 153.218 346.688 153.144 346.451 153.136C346.214 153.129 345.98 153.188 345.775 153.307C345.571 153.426 345.403 153.6 345.293 153.81L344.429 155.466C344.321 155.669 344.159 155.838 343.962 155.957C343.765 156.075 343.539 156.137 343.309 156.136H339.021C338.738 156.137 338.463 156.043 338.24 155.869C338.018 155.695 337.86 155.451 337.793 155.176L336.764 151.056C336.707 150.827 336.587 150.618 336.417 150.453C336.247 150.288 336.034 150.175 335.803 150.125C335.571 150.075 335.331 150.091 335.108 150.171C334.885 150.25 334.689 150.391 334.542 150.577L328.361 158.392C328.186 158.614 327.942 158.771 327.668 158.838C327.393 158.905 327.105 158.877 326.848 158.76L322.875 156.966C322.667 156.868 322.436 156.829 322.208 156.853C321.98 156.877 321.762 156.962 321.578 157.1L320.156 158.15C320.088 158.201 320.026 158.259 319.97 158.323L316.218 162.477C316.092 162.622 315.934 162.736 315.758 162.811C315.581 162.886 315.389 162.919 315.198 162.91L312.747 162.754C312.613 162.746 312.479 162.758 312.349 162.788L310.14 163.355C309.888 163.421 309.622 163.407 309.378 163.315C309.135 163.224 308.925 163.06 308.778 162.845L308.528 162.473C308.408 162.298 308.246 162.157 308.057 162.061C307.868 161.965 307.659 161.918 307.447 161.924L304.983 161.997C304.699 162.002 304.425 162.106 304.209 162.291L303.604 162.797C303.461 162.917 303.292 163.004 303.111 163.052C302.931 163.1 302.741 163.106 302.557 163.072C302.373 163.038 302.199 162.963 302.048 162.854C301.896 162.744 301.771 162.602 301.68 162.438L301.04 161.28C300.885 160.997 300.626 160.784 300.318 160.685C300.011 160.586 299.677 160.609 299.385 160.748L295.239 162.741L290.653 165.11C290.503 165.187 290.34 165.233 290.172 165.246C290.004 165.258 289.835 165.237 289.676 165.183L286.023 163.973C285.859 163.919 285.685 163.898 285.513 163.912L278.441 164.518C278.201 164.542 277.973 164.634 277.782 164.781C277.591 164.928 277.445 165.126 277.36 165.352L276.336 168.214C276.274 168.386 276.175 168.542 276.047 168.672C275.919 168.803 275.764 168.904 275.594 168.969C275.423 169.034 275.24 169.061 275.058 169.048C274.875 169.036 274.698 168.984 274.537 168.897L274.494 168.875C274.232 168.729 273.926 168.682 273.631 168.743C273.337 168.803 273.074 168.966 272.89 169.204L272.086 170.232C271.873 170.5 271.562 170.673 271.222 170.712L269.008 170.95C268.884 170.962 268.761 170.993 268.645 171.041L265.14 172.541C264.982 172.606 264.813 172.639 264.642 172.64H262.956C262.75 172.64 262.547 172.59 262.365 172.493C262.183 172.397 262.026 172.257 261.91 172.087L261.668 171.732C261.516 171.511 261.298 171.343 261.045 171.254C260.791 171.164 260.516 171.158 260.259 171.235L256.33 172.424C256.06 172.505 255.771 172.495 255.508 172.394L253.684 171.693C253.546 171.639 253.4 171.61 253.252 171.607H249.335C249.166 171.607 248.998 171.642 248.842 171.711L244.952 173.362C244.679 173.48 244.372 173.497 244.087 173.41L242.164 172.835C241.976 172.779 241.779 172.767 241.586 172.8C241.393 172.833 241.211 172.91 241.053 173.025L240.21 173.643C239.955 173.83 239.639 173.914 239.324 173.88C239.01 173.845 238.72 173.695 238.511 173.457L238.386 173.315C238.216 173.12 237.99 172.983 237.74 172.92C237.49 172.858 237.226 172.873 236.985 172.964L233.851 174.162C233.572 174.264 233.266 174.264 232.986 174.162L231.612 173.669C231.361 173.582 231.089 173.575 230.834 173.647L229.537 174.023C229.253 174.105 228.949 174.085 228.678 173.967C228.408 173.849 228.187 173.639 228.054 173.375L227.57 172.402C227.464 172.192 227.303 172.016 227.103 171.892C226.903 171.768 226.672 171.703 226.437 171.702H225.313C225.166 171.705 225.02 171.681 224.881 171.633L220.519 170.103C220.363 170.047 220.196 170.022 220.03 170.031C219.864 170.04 219.701 170.082 219.551 170.155L216.365 171.685C216.194 171.766 216.006 171.809 215.816 171.81H211.792C211.621 171.811 211.452 171.845 211.295 171.91L210.473 172.264C210.216 172.373 209.931 172.394 209.66 172.325C209.39 172.255 209.15 172.099 208.978 171.879C208.859 171.727 208.708 171.604 208.535 171.519C208.362 171.435 208.172 171.391 207.979 171.391H205.947C205.654 171.39 205.37 171.491 205.143 171.676L203.963 172.644C203.72 172.845 203.411 172.948 203.097 172.932C202.782 172.916 202.485 172.783 202.264 172.558L201.996 172.29C201.823 172.116 201.603 171.996 201.363 171.944C201.122 171.893 200.872 171.912 200.643 172L199.467 172.454C199.146 172.574 198.79 172.562 198.477 172.42L194.34 170.5C194.267 170.465 194.191 170.439 194.111 170.423L190.865 169.623C190.609 169.559 190.339 169.577 190.094 169.675C189.849 169.773 189.641 169.945 189.499 170.168L187.459 173.349C187.38 173.471 187.324 173.606 187.29 173.747L186.672 176.449C186.598 176.757 186.413 177.028 186.153 177.209L184.804 178.134C184.64 178.248 184.451 178.32 184.254 178.345C184.056 178.371 183.855 178.349 183.667 178.281L180.892 177.296C180.602 177.193 180.284 177.2 179.999 177.315C179.713 177.429 179.479 177.644 179.34 177.918L177.879 180.65C177.783 180.835 177.733 181.039 177.732 181.247V182.479C177.731 182.756 177.64 183.024 177.472 183.244C177.304 183.464 177.069 183.624 176.803 183.698L174.373 184.372C174.116 184.445 173.841 184.433 173.591 184.338L171.473 183.538C171.294 183.469 171.102 183.443 170.911 183.46L167.258 183.793C167.063 183.812 166.867 183.785 166.685 183.714C166.502 183.644 166.339 183.532 166.208 183.387L165.775 182.907C165.595 182.705 165.354 182.568 165.088 182.518L163.424 182.181C163.254 182.148 163.079 182.15 162.909 182.187C162.74 182.223 162.58 182.293 162.438 182.392L160.246 183.953C160.05 184.091 159.82 184.172 159.581 184.186L156.222 184.364C156.095 184.372 155.97 184.398 155.85 184.441L150.019 186.603C149.855 186.665 149.681 186.691 149.506 186.681C149.332 186.671 149.162 186.623 149.007 186.542L147.321 185.678C147.143 185.587 146.946 185.54 146.746 185.539H140.478C140.189 185.539 139.908 185.44 139.683 185.258L138.165 184.044C137.95 183.872 137.685 183.774 137.41 183.766C137.134 183.759 136.864 183.841 136.64 184.001L135.014 185.159C134.85 185.277 134.716 185.432 134.623 185.611C134.531 185.791 134.483 185.99 134.482 186.192" stroke="#CDF4DE" stroke-miterlimit="10"/>
<path opacity="0.2" d="M374.326 217.347H121.441V217.39H374.326V217.347Z" fill="#F2F2F2"/>
<path opacity="0.3" d="M160.347 219.53C161.541 219.53 162.508 218.562 162.508 217.368C162.508 216.175 161.541 215.207 160.347 215.207C159.153 215.207 158.186 216.175 158.186 217.368C158.186 218.562 159.153 219.53 160.347 219.53Z" fill="#CDF4DE"/>
<path opacity="0.3" d="M191.904 219.53C193.097 219.53 194.065 218.562 194.065 217.368C194.065 216.175 193.097 215.207 191.904 215.207C190.71 215.207 189.742 216.175 189.742 217.368C189.742 218.562 190.71 219.53 191.904 219.53Z" fill="#CDF4DE"/>
<path opacity="0.3" d="M223.46 219.53C224.654 219.53 225.622 218.562 225.622 217.368C225.622 216.175 224.654 215.207 223.46 215.207C222.267 215.207 221.299 216.175 221.299 217.368C221.299 218.562 222.267 219.53 223.46 219.53Z" fill="#CDF4DE"/>
<path opacity="0.3" d="M255.015 219.53C256.209 219.53 257.176 218.562 257.176 217.368C257.176 216.175 256.209 215.207 255.015 215.207C253.821 215.207 252.854 216.175 252.854 217.368C252.854 218.562 253.821 219.53 255.015 219.53Z" fill="#CDF4DE"/>
<path opacity="0.3" d="M286.572 219.53C287.765 219.53 288.733 218.562 288.733 217.368C288.733 216.175 287.765 215.207 286.572 215.207C285.378 215.207 284.41 216.175 284.41 217.368C284.41 218.562 285.378 219.53 286.572 219.53Z" fill="#CDF4DE"/>
<path opacity="0.3" d="M318.128 219.53C319.322 219.53 320.29 218.562 320.29 217.368C320.29 216.175 319.322 215.207 318.128 215.207C316.935 215.207 315.967 216.175 315.967 217.368C315.967 218.562 316.935 219.53 318.128 219.53Z" fill="#CDF4DE"/>
<path opacity="0.3" d="M349.685 219.53C350.879 219.53 351.846 218.562 351.846 217.368C351.846 216.175 350.879 215.207 349.685 215.207C348.491 215.207 347.523 216.175 347.523 217.368C347.523 218.562 348.491 219.53 349.685 219.53Z" fill="#CDF4DE"/>
<path d="M103.617 300.721C102.321 298.339 103.79 295.421 105.472 293.299C107.154 291.176 109.194 288.976 109.151 286.257C109.086 282.366 104.958 280.067 101.659 278.005C99.2097 276.473 96.9516 274.655 94.9329 272.588C94.0881 271.794 93.3888 270.857 92.8666 269.822C92.1836 268.3 92.2009 266.571 92.2441 264.907C92.3911 259.35 92.6663 253.804 93.0698 248.268" stroke="#85E09F" stroke-width="4" stroke-miterlimit="10"/>
<path d="M86.7972 247.974C86.8432 246.958 87.1445 245.97 87.6734 245.101C88.2023 244.232 88.9417 243.51 89.8232 243.003L91.1806 245.687L91.1373 242.437C91.7866 242.246 92.4629 242.165 93.1388 242.195C94.3328 242.254 95.4825 242.665 96.4429 243.377C97.4033 244.089 98.1314 245.069 98.5352 246.195C98.9391 247.32 99.0006 248.539 98.7121 249.7C98.4236 250.86 97.798 251.908 96.9141 252.713C96.0303 253.518 94.9278 254.044 93.7459 254.223C92.5639 254.402 91.3553 254.227 90.2727 253.72C89.19 253.213 88.2817 252.397 87.6624 251.374C87.0431 250.352 86.7406 249.168 86.7929 247.974H86.7972Z" fill="#57B894"/>
<path d="M97.6177 289.036C98.2541 290.27 99.2951 291.247 100.566 291.804C101.837 292.361 103.262 292.465 104.6 292.097C105.938 291.729 107.109 290.913 107.917 289.784C108.725 288.655 109.12 287.283 109.037 285.898C108.954 284.512 108.397 283.198 107.459 282.174C106.522 281.151 105.261 280.48 103.888 280.276C102.516 280.071 101.114 280.344 99.9191 281.05C98.724 281.756 97.8077 282.851 97.3238 284.152L101.115 287.234L96.9434 286.27C96.9449 287.232 97.1761 288.181 97.6177 289.036Z" fill="#57B894"/>
<path d="M100.613 277.257C102.121 277.363 103.613 276.902 104.798 275.963C105.982 275.025 106.773 273.677 107.014 272.186C107.255 270.694 106.93 269.166 106.101 267.902C105.273 266.638 104.001 265.73 102.537 265.356L102.572 267.855L101.197 265.136C100.401 265.097 99.605 265.215 98.855 265.485C98.105 265.754 97.4156 266.169 96.8264 266.706C96.2371 267.242 95.7597 267.89 95.4214 268.612C95.0832 269.333 94.8908 270.115 94.8553 270.911C94.8198 271.611 94.9076 272.312 95.1147 272.982C95.4793 274.174 96.2031 275.224 97.1873 275.989C98.1715 276.755 99.3681 277.197 100.613 277.257Z" fill="#57B894"/>
<path d="M85.8866 267.457C86.8179 267.491 87.7445 267.31 88.5942 266.927C89.4439 266.544 90.1937 265.971 90.7853 265.25C91.3768 264.53 91.7941 263.683 92.0045 262.776C92.2149 261.868 92.2129 260.924 91.9985 260.017C91.7841 259.11 91.3632 258.265 90.7685 257.547C90.1739 256.83 89.4215 256.259 88.5702 255.88C87.7188 255.501 86.7914 255.324 85.8603 255.362C84.9292 255.4 84.0195 255.653 83.2021 256.101L84.2742 259.04L82.0696 256.922C80.8881 258.004 80.1839 259.51 80.1113 261.111C80.0825 261.673 80.1335 262.236 80.2626 262.784C80.5654 264.068 81.2779 265.218 82.2926 266.061C83.3073 266.904 84.5689 267.394 85.8866 267.457Z" fill="#57B894"/>
<path opacity="0.1" d="M87.6151 249.59C89.0157 249.742 90.3773 250.178 91.7823 250.265C93.1872 250.351 94.7304 250.014 95.6209 248.925C96.0964 248.337 96.3385 247.589 96.7405 246.949C97.1245 246.351 97.6501 245.856 98.2708 245.51C98.6368 246.275 98.838 247.109 98.8611 247.956C98.8842 248.804 98.7289 249.648 98.4051 250.432C98.0813 251.216 97.5964 251.923 96.9817 252.507C96.367 253.092 95.6363 253.54 94.837 253.824C94.0377 254.108 93.1876 254.221 92.342 254.155C91.4963 254.089 90.6739 253.847 89.9282 253.442C89.1824 253.038 88.5299 252.482 88.013 251.809C87.4961 251.137 87.1264 250.363 86.9277 249.539C87.1583 249.547 87.3874 249.565 87.6151 249.59Z" fill="#F5F5F5"/>
<path opacity="0.1" d="M85.8864 267.457C86.9328 267.51 87.975 267.291 88.911 266.82C89.8471 266.35 90.645 265.644 91.2267 264.773C91.8083 263.902 92.1538 262.894 92.2293 261.849C92.3048 260.804 92.1077 259.757 91.6574 258.812C91.176 259.135 90.762 259.549 90.4384 260.031C90.0061 260.683 89.7424 261.435 89.2366 262.036C88.2899 263.147 86.6775 263.51 85.2121 263.446C83.7466 263.381 82.3331 262.961 80.8892 262.827C80.6861 262.827 80.4829 262.797 80.2754 262.793C80.5791 264.073 81.2905 265.22 82.3024 266.062C83.3143 266.903 84.5721 267.392 85.8864 267.457Z" fill="#F5F5F5"/>
<path opacity="0.1" d="M100.613 277.257C101.652 277.311 102.687 277.096 103.619 276.634C104.551 276.171 105.347 275.476 105.932 274.616C106.517 273.755 106.87 272.759 106.958 271.722C107.045 270.686 106.864 269.644 106.432 268.698C105.928 269.026 105.489 269.444 105.135 269.93C104.664 270.595 104.37 271.361 103.838 271.974C102.813 273.116 101.093 273.518 99.5454 273.479C97.9978 273.44 96.5929 273.081 95.1016 272.964C95.4639 274.162 96.1884 275.217 97.1755 275.986C98.1625 276.755 99.3635 277.199 100.613 277.257Z" fill="#F5F5F5"/>
<path opacity="0.1" d="M97.6172 289.037C98.2735 290.503 99.4858 291.65 100.987 292.223C102.489 292.796 104.156 292.749 105.623 292.093C107.09 291.436 108.236 290.224 108.809 288.723C109.382 287.221 109.336 285.554 108.679 284.087C108.179 284.413 107.73 284.812 107.348 285.271C106.769 285.976 106.388 286.776 105.722 287.433C104.482 288.652 102.48 289.162 100.695 289.201C99.6668 289.205 98.6391 289.15 97.6172 289.037Z" fill="#F5F5F5"/>
<path d="M112.77 297.981C112.77 297.981 107.98 297.834 106.537 296.805C105.093 295.776 99.1878 294.553 98.816 296.2C98.4442 297.847 91.6185 304.413 97.022 304.439C102.426 304.465 109.584 303.596 111.028 302.71C112.472 301.824 112.77 297.981 112.77 297.981Z" fill="#656380"/>
<path opacity="0.2" d="M96.9262 303.864C102.334 303.907 109.488 303.025 110.928 302.134C112.026 301.464 112.462 299.065 112.609 297.963H112.769C112.769 297.963 112.467 301.823 111.04 302.718C109.614 303.613 102.442 304.482 97.0343 304.447C95.4738 304.447 94.9377 303.881 94.968 303.059C95.1712 303.544 95.7634 303.855 96.9262 303.864Z" fill="#F5F5F5"/>
<path d="M414.544 244.771C414.229 245.673 414.11 246.633 414.194 247.585C414.404 248.536 414.85 249.419 415.491 250.153C415.812 250.664 416.311 251.038 416.891 251.203C417.192 251.231 417.495 251.176 417.767 251.044C418.039 250.913 418.27 250.709 418.435 250.455C418.759 249.944 418.952 249.36 418.997 248.756C419.118 247.147 419.038 245.53 418.759 243.941C418.577 242.605 418.53 241.135 418.175 239.843C417.259 239.843 416.2 239.674 415.69 240.547C415.037 241.684 414.881 243.5 414.544 244.771Z" fill="#FFC0C6"/>
<path d="M419.559 220.974C419.334 221.609 419.019 222.214 418.811 222.859C418.613 223.529 418.468 224.214 418.379 224.908C417.737 228.978 416.871 233.01 415.785 236.985C415.399 238.153 415.18 239.37 415.137 240.599L417.609 240.513C417.842 240.476 418.08 240.528 418.275 240.66C418.487 240.85 418.63 241.269 418.898 241.161C419.361 238.786 419.686 236.386 419.87 233.972C419.97 232.243 419.922 230.549 420.034 228.841C420.251 225.439 421.262 221.562 419.939 218.272C419.989 219.189 419.86 220.106 419.559 220.974Z" fill="#85E09F"/>
<path opacity="0.1" d="M419.559 220.974C419.334 221.609 419.019 222.214 418.811 222.859C418.613 223.529 418.468 224.214 418.379 224.908C417.737 228.978 416.871 233.01 415.785 236.985C415.399 238.153 415.18 239.37 415.137 240.599L417.609 240.513C417.842 240.476 418.08 240.528 418.275 240.66C418.487 240.85 418.63 241.269 418.898 241.161C419.361 238.786 419.686 236.386 419.87 233.972C419.97 232.243 419.922 230.549 420.034 228.841C420.251 225.439 421.262 221.562 419.939 218.272C419.989 219.189 419.86 220.106 419.559 220.974Z" fill="#F5F5F5"/>
<path d="M422.633 200.596C422.028 201.115 421.821 201.945 421.643 202.723L420.208 209.043C419.88 210.486 419.551 211.93 419.344 213.396C418.436 219.517 419.486 225.811 418.479 231.915C418.188 233.275 417.994 234.655 417.9 236.043C417.857 238.585 418.838 241.114 418.432 243.621C418.295 244.066 418.295 244.542 418.432 244.987C418.639 245.419 419.339 245.557 419.534 245.138C419.568 245.061 419.59 244.98 419.599 244.896L421.094 235.459C421.453 233.216 421.808 230.938 421.561 228.677C421.393 227.138 420.943 225.599 421.189 224.069C421.352 223.311 421.573 222.566 421.851 221.842C423.295 217.52 423.096 212.821 422.283 208.351C422.119 207.702 422.072 207.028 422.145 206.362C422.344 205.269 423.191 204.43 423.762 203.479C424.194 202.762 424.937 201.184 424.626 200.319C424.306 199.308 423.243 200.073 422.633 200.596Z" fill="#85E09F"/>
<path d="M425.028 291.972C424.829 291.951 424.628 291.987 424.449 292.076C424.298 292.186 424.18 292.335 424.107 292.508C423.628 293.498 423.29 294.643 422.378 295.283C421.919 295.57 421.415 295.778 420.887 295.897L416.824 297.055C416.3 297.202 415.704 297.419 415.527 297.92C415.349 298.421 415.73 299.035 416.218 299.329C416.945 299.675 417.75 299.824 418.553 299.762L424.436 299.848C424.995 299.888 425.556 299.831 426.096 299.679C426.783 299.437 427.363 298.888 428.084 298.815C428.672 298.75 429.239 299.005 429.814 299.135C431.011 299.398 432.252 299.135 433.44 298.832C433.656 298.802 433.857 298.706 434.015 298.555C434.144 298.368 434.207 298.143 434.193 297.916C434.24 296.908 434.257 295.906 434.253 294.89C434.253 293.978 434.145 292.918 433.389 292.417C433.04 292.218 432.652 292.098 432.252 292.067C429.84 291.76 427.458 291.989 425.028 291.972Z" fill="#575A88"/>
<path d="M440.594 304.772C440.428 305.165 440.218 305.537 439.967 305.883L437.49 309.635C436.479 311.161 435.432 312.795 435.363 314.623C437.014 315.259 438.787 315.515 440.551 315.371C441.434 315.349 442.293 315.081 443.032 314.597C444.095 313.815 444.515 312.436 444.861 311.174C444.885 311.006 444.97 310.852 445.098 310.741C445.319 310.59 445.617 310.741 445.885 310.685C446.434 310.616 446.624 309.924 446.663 309.388C446.773 307.679 446.627 305.963 446.231 304.296C446.201 304.088 446.109 303.894 445.967 303.739C445.803 303.615 445.606 303.542 445.401 303.527C444.165 303.315 442.928 303.068 441.688 302.887C440.049 302.623 441.056 303.592 440.594 304.772Z" fill="#575A88"/>
<path d="M420.139 237.911C418.941 239.432 418.557 241.464 418.647 243.396C418.738 245.329 419.27 247.213 419.715 249.098C420.446 252.165 420.974 255.277 421.297 258.414C421.348 259.291 421.493 260.161 421.73 261.008C421.941 261.665 422.27 262.278 422.46 262.94C422.694 263.744 422.715 264.6 422.931 265.408C423.223 266.281 423.597 267.125 424.047 267.928C426.022 271.966 426.446 276.574 426.48 281.07C426.48 282.284 426.48 283.495 426.593 284.701C426.844 287.148 427.6 289.888 426.135 291.859C426.506 293.2 428.296 293.455 429.662 293.277C431.267 293.078 432.837 292.656 434.326 292.024C433.894 291.107 433.263 290.04 433.293 288.998C433.384 288.183 433.591 287.385 433.907 286.629C434.689 284.251 434.772 281.709 434.815 279.207C434.847 278.434 434.835 277.661 434.78 276.89C434.704 276.178 434.588 275.471 434.434 274.771L432.761 266.389C432.468 264.917 432.428 263.405 432.645 261.92C432.96 260.158 433.557 258.459 434.413 256.888C436.414 252.846 437.106 248.29 437.499 243.794C437.711 241.339 437.763 238.607 436.202 236.7C435.237 235.6 433.932 234.854 432.493 234.582C431.068 234.322 429.612 234.265 428.171 234.414C425.279 234.656 421.933 235.637 420.139 237.911Z" fill="#85E09F"/>
<path d="M420.489 238.987C419.936 240.846 421.311 242.657 422.02 244.464C422.426 245.506 422.629 246.625 423.252 247.572C424.021 248.726 425.344 249.409 426.178 250.52C427.013 251.631 427.255 252.932 427.907 254.086C428.56 255.241 429.637 256.2 430.242 257.402C431.158 259.196 431.024 261.349 431.668 263.259C432.126 264.63 432.987 265.853 433.32 267.267C433.467 267.902 433.505 268.564 433.67 269.186C434.054 270.673 435.109 271.97 435.217 273.509C435.286 274.516 434.949 275.623 435.481 276.479C435.801 277.002 436.38 277.309 436.778 277.776C437.069 278.2 437.278 278.675 437.396 279.176L438.261 282.008C439.095 284.757 439.19 287.597 439.99 290.359C440.789 293.122 441.356 296.109 440.422 298.832C440.046 299.96 439.419 301.119 439.735 302.264C439.869 302.669 440.09 303.04 440.383 303.351C440.676 303.661 441.033 303.904 441.429 304.063C442.227 304.369 443.073 304.528 443.928 304.534C445.073 304.594 446.305 304.534 447.252 303.898C446.787 300.426 446.602 296.922 446.699 293.42C446.807 291.137 447.131 288.864 447.131 286.577C447.083 285.129 446.946 283.685 446.72 282.254C446.462 280.112 446.004 278 445.354 275.943C444.992 275.023 444.689 274.082 444.447 273.124C444.308 272.471 444.265 271.801 444.17 271.14C444.075 270.479 443.932 269.843 443.789 269.164L443.21 266.493C443.081 265.905 442.726 265.391 442.7 264.79L442.523 260.899C442.238 254.527 441.961 248.052 443.495 241.879C442.601 239.225 441.092 236.428 438.52 235.317C437.461 234.894 436.331 234.678 435.191 234.681C429.939 234.517 425.236 236.769 420.489 238.987Z" fill="#85E09F"/>
<path d="M424.414 195.413C424.661 195.574 424.887 195.764 425.088 195.979C425.328 196.273 425.518 196.605 425.65 196.961C426.14 198.144 426.432 199.4 426.515 200.678C429.32 198.709 431.9 196.437 434.209 193.904C433.176 193.982 432.225 193.243 431.733 192.335C431.298 191.394 431.049 190.379 430.998 189.344C430.972 189.149 428.305 190.282 428.088 190.398C427.137 190.917 426.247 191.535 425.317 192.089C424.871 192.362 424.411 192.611 423.939 192.837C423.506 193.035 422.823 193.126 422.464 193.411C421.509 194.181 423.826 195.002 424.414 195.413Z" fill="#FFC0C6"/>
<path d="M423.982 198.339C423.874 199.174 424.017 200.025 423.891 200.855C423.714 202.053 423.027 203.095 422.508 204.193C421.09 207.275 421.211 210.806 421.146 214.195C421.081 217.904 420.775 221.6 420.463 225.296L419.897 232.062C419.798 233.229 419.698 234.405 419.465 235.559C419.341 236.045 419.282 236.545 419.287 237.046C419.361 237.649 419.539 238.234 419.815 238.775C420.072 239.495 420.484 240.15 421.021 240.694C421.295 240.961 421.646 241.134 422.024 241.189C422.402 241.245 422.788 241.179 423.126 241.001L423.636 239.467C423.655 240.081 423.903 240.665 424.332 241.105C424.761 241.544 425.34 241.807 425.953 241.84C426.394 241.824 426.83 241.749 427.25 241.615L431.249 240.53C432.114 240.335 432.954 240.045 433.756 239.666C435.485 238.745 436.644 237.016 437.266 235.165C437.889 233.315 438.014 231.348 438.087 229.403C438.247 224.912 438.126 220.377 437.175 216.002C436.778 214.165 436.233 212.358 435.904 210.508C435.522 208.012 435.335 205.49 435.342 202.965L435.204 196.714C435.241 195.939 435.11 195.164 434.819 194.445C434.666 194.089 434.405 193.792 434.073 193.594C433.741 193.396 433.354 193.308 432.969 193.342C431.772 193.567 431.491 195.11 430.842 196.143C430.289 197.03 429.36 197.6 428.465 198.141C427.877 198.495 427.142 198.858 426.537 198.53C425.932 198.201 425.936 197.142 425.313 196.87C424.488 196.424 424.056 197.7 423.982 198.339Z" fill="#F2F2F2"/>
<path d="M429.71 200.094C428.577 202.991 427.981 206.064 427.41 209.125C426.809 212.423 426.269 215.808 426.818 219.115C427.855 225.37 432.602 230.423 434.218 236.553C434.499 237.617 434.685 238.715 435.083 239.743C435.701 241.472 436.812 242.942 437.906 244.399C438.494 245.181 439.363 246.059 440.288 245.743C440.975 245.506 441.278 244.723 441.801 244.213C442.531 243.5 443.651 243.375 444.671 243.422C445.691 243.47 446.737 243.656 447.727 243.422C448.717 243.189 449.659 242.302 449.56 241.261C449.495 240.608 449.037 240.076 448.695 239.532C447.701 238.045 447.321 236.238 447.031 234.47C445.367 224.272 446.11 213.789 444.342 203.609C444.122 202.312 443.845 201.015 443.115 199.952C442.755 199.5 442.422 199.028 442.116 198.538C441.84 198.007 441.718 197.388 441.355 196.909C440.837 196.226 439.946 195.971 439.129 195.707C438.018 195.348 436.938 194.898 435.9 194.362C435.113 193.956 433.998 192.832 433.203 193.368C432.407 193.904 431.806 195.776 431.378 196.589C430.756 197.725 430.199 198.895 429.71 200.094Z" fill="#85E09F"/>
<path d="M433.134 242.238C432.52 242.38 431.867 242.186 431.249 242.324C430.233 242.557 429.65 243.591 429.192 244.524C429.023 244.813 428.918 245.134 428.885 245.467C428.873 245.633 428.915 245.798 429.003 245.939C429.092 246.079 429.223 246.188 429.378 246.249C429.549 246.274 429.724 246.252 429.883 246.184C430.043 246.116 430.18 246.005 430.281 245.864C430.479 245.582 430.711 245.325 430.973 245.099C431.69 244.619 432.667 245.13 433.225 245.787C433.782 246.444 434.202 247.269 434.954 247.663C435.39 247.857 435.857 247.971 436.333 248C436.833 248.082 437.342 248.082 437.842 248C438.093 247.96 438.331 247.86 438.536 247.71C438.741 247.56 438.908 247.363 439.022 247.135C439.132 246.837 439.18 246.519 439.164 246.202L439.238 241.879C439.268 241.626 439.216 241.37 439.091 241.148C438.94 240.973 438.74 240.846 438.516 240.785C437.712 240.478 435.97 239.436 435.161 239.959C434.258 240.599 434.431 241.939 433.134 242.238Z" fill="#FFC0C6"/>
<path d="M424.828 195.343C429.059 195.343 432.488 191.914 432.488 187.683C432.488 183.453 429.059 180.023 424.828 180.023C420.598 180.023 417.168 183.453 417.168 187.683C417.168 191.914 420.598 195.343 424.828 195.343Z" fill="#FFC0C6"/>
<path d="M424.078 186.849C424.02 186.573 423.886 186.318 423.693 186.113C423.499 185.908 423.252 185.76 422.98 185.686C422.768 185.67 422.557 185.64 422.349 185.596C421.627 185.349 421.644 184.247 421.026 183.806C420.555 183.473 419.906 183.646 419.392 183.897C418.877 184.148 418.359 184.485 417.788 184.454C417.431 184.408 417.099 184.249 416.839 184C416.579 183.751 416.406 183.426 416.344 183.071C416.237 182.357 416.374 181.627 416.733 181.001C417.883 178.744 420.291 177.452 422.621 176.466C423.631 175.996 424.702 175.672 425.802 175.502C426.912 175.335 428.044 175.576 428.988 176.181C429.287 176.388 429.546 176.639 429.853 176.833C430.155 177.011 430.466 177.171 430.787 177.313C433.864 178.856 435.468 182.73 434.625 186.071C434.331 187.234 433.761 188.328 433.584 189.508C433.559 189.828 433.477 190.142 433.341 190.433C432.948 191.125 431.993 191.189 431.18 191.168C430.964 191.186 430.747 191.135 430.562 191.021C430.393 190.852 430.285 190.631 430.255 190.394C429.935 189.097 429.434 187.77 428.383 186.936C427.821 186.503 426.913 186.279 426.455 186.828C426.272 187.118 426.127 187.43 426.023 187.757C425.798 188.22 425.106 188.743 424.549 188.622C423.766 188.436 424.264 187.571 424.078 186.849Z" fill="#85E09F"/>
<path opacity="0.1" d="M442.941 197.077C442.02 196.969 441.843 201.793 440.914 201.797C440.65 201.797 440.698 200.782 440.482 200.933C440.265 201.084 441.039 204.391 440.914 204.651C440.443 205.623 441.381 201.491 440.914 202.463C440.296 203.734 440.577 204.149 440.257 205.528C439.548 208.554 436.016 210.75 436.734 213.767C437.57 217.069 438.179 220.424 438.558 223.809C438.685 224.89 438.703 225.98 438.614 227.064C438.368 229.416 437.291 231.59 436.206 233.696C435.255 235.537 434.287 237.37 433.513 239.289C433.267 239.756 433.19 240.294 433.297 240.811C433.617 241.784 434.905 241.887 435.891 242.168C437.909 242.743 439.634 244.762 441.683 244.291C442.6 241.507 442.492 238.572 443.291 235.749C444.113 232.857 446.032 230.341 446.655 227.402C446.871 226.186 446.975 224.953 446.966 223.719L447.268 210.08C447.308 209.269 447.281 208.457 447.186 207.651C447.037 206.822 446.819 206.008 446.534 205.217L444.951 200.462C444.536 199.191 444.242 197.233 442.941 197.077Z" fill="#F5F5F5"/>
<path d="M443.599 197.077C442.676 196.969 441.748 196.917 440.819 196.922C440.548 196.876 440.269 196.933 440.038 197.083C439.806 197.233 439.64 197.463 439.57 197.73L438.156 200.639C437.495 201.89 436.971 203.209 436.596 204.573C435.887 207.599 436.674 210.742 437.391 213.759C438.227 217.061 438.837 220.416 439.215 223.801C439.342 224.881 439.361 225.972 439.272 227.056C439.025 229.407 437.949 231.582 436.864 233.687C435.913 235.529 434.945 237.361 434.171 239.281C433.922 239.747 433.846 240.286 433.955 240.802C434.274 241.775 435.563 241.879 436.548 242.16C438.567 242.735 440.292 244.753 442.341 244.282C443.257 241.498 443.149 238.563 443.949 235.74C444.77 232.848 446.69 230.333 447.312 227.393C447.528 226.177 447.632 224.945 447.623 223.71L447.922 210.072C447.966 209.261 447.938 208.448 447.839 207.642C447.694 206.814 447.477 205.999 447.191 205.208L445.609 200.453C445.194 199.191 444.9 197.233 443.599 197.077Z" fill="#85E09F"/>
</g>
<defs>
<clipPath id="clip0_248:9939">
<rect width="491.906" height="320.39" fill="white"/>
</clipPath>
</defs>
</svg>
