<svg xmlns="http://www.w3.org/2000/svg" width="380" height="280" fill="none" viewBox="0 0 380 280"><g clip-path="url(#clip0_407_2285)"><path fill="#F2F2F2" d="M251.873 269.599L235.358 259.058L256.869 265.217C270.383 252.307 280.282 234.421 280.282 234.421C280.282 234.421 244.088 212.32 221.793 218.217C199.498 224.115 195.22 239.428 199.545 255.778C203.87 272.128 215.16 283.322 237.455 277.425C242.418 276.112 247.292 273.251 251.873 269.599Z"/><path fill="#fff" d="M233.716 255.658L232.617 255.949C219.825 259.263 209.289 259.745 201.152 257.374C201.033 257.342 200.918 257.303 200.799 257.27L200.962 256.72L201.125 256.194C209.944 258.879 221.095 257.705 232.253 254.817C232.614 254.728 232.98 254.637 233.343 254.535C238.055 253.271 242.75 251.72 247.263 250.032C247.613 249.904 247.968 249.769 248.322 249.635C254.267 247.375 259.866 244.905 264.691 242.616C265.033 242.455 265.373 242.29 265.708 242.125C273.86 238.217 279.636 234.902 280.912 234.157C281.069 234.069 281.155 234.017 281.175 234.006L281.458 234.484L281.465 234.488L281.75 234.971C281.73 234.982 281.444 235.157 280.908 235.462C278.908 236.614 273.459 239.673 266.138 243.199C265.807 243.357 265.467 243.522 265.125 243.682C261.211 245.544 256.808 247.518 252.135 249.395C250.963 249.868 249.802 250.321 248.653 250.752C248.3 250.892 247.945 251.027 247.595 251.155C242.717 252.981 238.09 254.482 233.716 255.658Z"/><path fill="#fff" d="M266.138 243.199C265.993 242.848 265.846 242.491 265.709 242.125C265.334 241.134 265.011 240.123 264.739 239.099C263.578 234.733 263.412 230.162 264.251 225.723C263.903 225.571 263.554 225.418 263.198 225.262C262.271 229.943 262.426 234.774 263.651 239.386C263.941 240.48 264.288 241.558 264.692 242.616C264.828 242.975 264.975 243.332 265.125 243.682C266.353 246.577 268.013 249.269 270.049 251.665C270.286 251.352 270.519 251.045 270.749 250.746C268.849 248.471 267.295 245.928 266.138 243.199V243.199Z"/><path fill="#fff" d="M248.653 250.752C248.532 250.383 248.421 250.01 248.322 249.635C248.287 249.522 248.255 249.402 248.225 249.288C246.973 244.556 246.884 239.591 247.965 234.817C249.047 230.042 251.267 225.6 254.436 221.869C254.057 221.737 253.679 221.604 253.296 221.478C250.111 225.336 247.891 229.896 246.82 234.783C245.749 239.669 245.857 244.74 247.137 249.576C247.177 249.728 247.217 249.881 247.263 250.032C247.369 250.411 247.479 250.783 247.595 251.154C249.429 256.885 252.875 261.965 257.52 265.789C257.795 265.53 258.07 265.271 258.343 265.006C253.795 261.299 250.427 256.345 248.653 250.752V250.752Z"/><path fill="#fff" d="M233.716 255.659C233.583 255.286 233.46 254.911 233.343 254.535C233.219 254.131 233.1 253.726 232.992 253.318C231.317 246.957 231.748 240.224 234.219 234.129C236.691 228.033 241.071 222.901 246.703 219.503C246.197 219.375 245.697 219.245 245.195 219.128C239.637 222.748 235.361 228.029 232.975 234.218C230.589 240.407 230.215 247.191 231.904 253.606C232.012 254.014 232.125 254.42 232.254 254.817C232.367 255.201 232.489 255.576 232.617 255.949C235.254 263.482 240.654 269.732 247.726 273.432C248.098 273.212 248.461 272.976 248.829 272.739C241.762 269.227 236.341 263.1 233.716 255.659Z"/><path fill="#3F3D56" d="M211.864 277.965L130.197 245.093C125.303 243.116 121.393 239.279 119.325 234.424C117.256 229.568 117.198 224.09 119.164 219.192L202.371 12.4742C204.348 7.58031 208.184 3.67019 213.04 1.60165C217.896 -0.46689 223.373 -0.52491 228.272 1.44032L309.939 34.3128C314.833 36.2891 318.743 40.1259 320.811 44.9816C322.88 49.8372 322.938 55.315 320.972 60.2134L237.765 266.931C235.789 271.825 231.952 275.735 227.096 277.804C222.241 279.872 216.763 279.93 211.864 277.965Z"/><path fill="#fff" d="M306.718 39.6779L297.628 36.0189C296.816 35.6931 295.908 35.7026 295.104 36.0454C294.299 36.3882 293.663 37.0361 293.336 37.8471C292.667 39.5052 291.367 40.8301 289.722 41.5309C288.077 42.2317 286.221 42.2512 284.562 41.5851L240.102 23.6894C238.444 23.0201 237.119 21.7203 236.418 20.0753C235.718 18.4303 235.698 16.5744 236.364 14.915C236.69 14.1034 236.681 13.1957 236.338 12.391C235.995 11.5864 235.347 10.9507 234.536 10.6233L226.521 7.39696C222.805 5.90704 218.651 5.95134 214.968 7.52014C211.286 9.08895 208.376 12.0542 206.876 15.7656L124.26 221.014C122.77 224.729 122.814 228.884 124.383 232.566C125.952 236.249 128.917 239.159 132.629 240.658L212.826 272.939C216.541 274.429 220.696 274.385 224.378 272.816C228.061 271.247 230.971 268.282 232.47 264.571L315.087 59.3222C316.577 55.607 316.532 51.4526 314.964 47.77C313.395 44.0874 310.429 41.1773 306.718 39.6779V39.6779Z"/><path fill="#fff" d="M275.621 31.9488L250.539 21.8529C250.301 21.7572 250.111 21.5711 250.011 21.3355C249.91 21.0999 249.908 20.8341 250.003 20.5965C250.099 20.3589 250.285 20.1691 250.521 20.0687C250.756 19.9683 251.022 19.9657 251.26 20.0613L276.342 30.1572C276.459 30.2046 276.566 30.2746 276.657 30.3634C276.748 30.4521 276.82 30.5579 276.869 30.6745C276.919 30.7912 276.945 30.9165 276.947 31.0433C276.948 31.1701 276.924 31.2959 276.877 31.4136C276.83 31.5312 276.759 31.6383 276.671 31.7289C276.582 31.8195 276.476 31.8917 276.36 31.9414C276.243 31.9911 276.118 32.0173 275.991 32.0186C275.864 32.0198 275.738 31.9961 275.621 31.9488V31.9488Z"/><path fill="#fff" d="M279.921 33.4121C280.348 33.4121 280.693 33.0662 280.693 32.6396C280.693 32.2129 280.348 31.8671 279.921 31.8671C279.494 31.8671 279.148 32.2129 279.148 32.6396C279.148 33.0662 279.494 33.4121 279.921 33.4121Z"/><path fill="#3F3D56" d="M296.311 123.551C295.884 123.378 295.542 123.043 295.362 122.619C295.181 122.195 295.176 121.717 295.348 121.289L308.04 89.7577C308.212 89.3305 308.547 88.9893 308.971 88.809C309.395 88.6287 309.873 88.624 310.301 88.796C310.728 88.968 311.069 89.3026 311.25 89.7264C311.431 90.1501 311.436 90.6282 311.265 91.0557L298.573 122.587C298.4 123.014 298.065 123.356 297.641 123.537C297.217 123.717 296.739 123.722 296.311 123.551V123.551Z"/><path fill="#3F3D56" d="M186.368 52.2327C185.941 52.0601 185.599 51.7251 185.419 51.3012C185.238 50.8772 185.233 50.3989 185.404 49.9713L188.289 42.805C188.374 42.5929 188.5 42.3996 188.66 42.2362C188.819 42.0728 189.01 41.9425 189.22 41.8528C189.43 41.763 189.656 41.7156 189.884 41.7132C190.113 41.7108 190.34 41.7535 190.552 41.8389C190.764 41.9242 190.957 42.0505 191.12 42.2105C191.283 42.3705 191.413 42.5611 191.502 42.7714C191.592 42.9817 191.639 43.2076 191.641 43.4361C191.643 43.6646 191.599 43.8912 191.514 44.1031L188.629 51.2693C188.457 51.6966 188.122 52.038 187.698 52.2186C187.274 52.3992 186.796 52.4043 186.368 52.2327V52.2327Z"/><path fill="#3F3D56" d="M181.032 65.4902C180.605 65.3177 180.263 64.9827 180.083 64.5587C179.902 64.1348 179.897 63.6565 180.068 63.2288L182.953 56.0625C183.038 55.8504 183.164 55.657 183.324 55.4936C183.483 55.3302 183.674 55.1998 183.884 55.1101C184.094 55.0203 184.32 54.9728 184.548 54.9704C184.777 54.968 185.004 55.0107 185.216 55.0961C185.428 55.1814 185.621 55.3077 185.784 55.4677C185.947 55.6278 186.077 55.8184 186.166 56.0288C186.256 56.2391 186.303 56.465 186.305 56.6935C186.307 56.9221 186.264 57.1487 186.178 57.3606L183.293 64.5268C183.121 64.9541 182.786 65.2955 182.362 65.4761C181.938 65.6568 181.46 65.6618 181.032 65.4902V65.4902Z"/><path fill="#3F3D56" d="M257.661 95.9248L222.968 81.9601C222.257 81.672 221.689 81.1141 221.389 80.4085C221.088 79.7028 221.079 78.9068 221.363 78.1945L229.69 57.5087C229.978 56.7979 230.536 56.2301 231.241 55.9294C231.947 55.6287 232.743 55.6196 233.455 55.9041L268.148 69.8687C268.859 70.1568 269.427 70.7146 269.727 71.4201C270.028 72.1256 270.037 72.9215 269.753 73.6338L261.426 94.3198C261.138 95.0306 260.58 95.5983 259.875 95.8991C259.169 96.1998 258.373 96.209 257.661 95.9248ZM232.87 57.3594C232.544 57.2291 232.179 57.2334 231.855 57.3713C231.532 57.5091 231.276 57.7693 231.144 58.0951L222.819 78.7795C222.688 79.106 222.693 79.4708 222.83 79.7942C222.968 80.1176 223.229 80.3733 223.554 80.5055L258.245 94.469C258.572 94.5994 258.937 94.5953 259.26 94.4574C259.584 94.3195 259.84 94.0592 259.972 93.7332L268.298 73.0491C268.428 72.7226 268.423 72.3578 268.286 72.0344C268.148 71.7111 267.887 71.4554 267.562 71.3233L232.87 57.3594Z"/><path fill="#3F3D56" d="M257.867 82.7618L257.865 82.761L231.084 71.9813C230.711 71.8299 230.393 71.5673 230.174 71.229C229.955 70.8908 229.846 70.4933 229.861 70.0907L230.366 57.5476C230.379 57.235 230.466 56.93 230.621 56.6583C230.776 56.3865 230.994 56.156 231.257 55.9859C231.519 55.8159 231.819 55.7113 232.13 55.681C232.442 55.6508 232.756 55.6957 233.046 55.812L268.488 70.0081C268.967 70.2002 269.351 70.574 269.555 71.0478C269.76 71.5217 269.769 72.0572 269.58 72.5376L269.696 72.6539L268.585 73.7608L268.584 73.7605L259.974 82.3333C259.704 82.6035 259.36 82.7882 258.985 82.8644C258.61 82.9406 258.221 82.9049 257.867 82.7618V82.7618Z"/><path fill="#3F3D56" d="M237.757 83.674L225.846 78.8797C225.553 78.7615 225.319 78.5316 225.195 78.2406C225.071 77.9496 225.068 77.6214 225.186 77.328C225.304 77.0346 225.534 76.8002 225.825 76.6761C226.116 76.5521 226.444 76.5487 226.737 76.6666L238.648 81.4609C238.941 81.5792 239.176 81.8091 239.3 82.1C239.423 82.391 239.427 82.7193 239.309 83.0127C239.19 83.306 238.961 83.5405 238.67 83.6645C238.379 83.7885 238.051 83.792 237.757 83.674V83.674Z"/><path fill="#fff" d="M245.131 79.7056C246.741 79.7056 248.046 78.4002 248.046 76.7899C248.046 75.1797 246.741 73.8743 245.131 73.8743C243.52 73.8743 242.215 75.1797 242.215 76.7899C242.215 78.4002 243.52 79.7056 245.131 79.7056Z"/><path fill="#3F3D56" d="M205.929 224.447L171.235 210.483C170.525 210.195 169.957 209.637 169.656 208.931C169.355 208.225 169.346 207.429 169.631 206.717L177.957 186.031C178.245 185.321 178.803 184.753 179.509 184.452C180.214 184.151 181.01 184.142 181.723 184.427L216.416 198.391C217.126 198.679 217.694 199.237 217.995 199.943C218.296 200.648 218.305 201.444 218.021 202.156L209.694 222.842C209.406 223.553 208.848 224.121 208.142 224.422C207.437 224.722 206.641 224.732 205.929 224.447V224.447ZM181.138 185.882C180.811 185.752 180.446 185.756 180.123 185.894C179.8 186.032 179.544 186.292 179.412 186.618L171.086 207.302C170.956 207.629 170.96 207.993 171.098 208.317C171.236 208.64 171.496 208.896 171.822 209.028L206.512 222.992C206.839 223.122 207.204 223.118 207.528 222.98C207.851 222.842 208.107 222.582 208.239 222.256L216.565 201.572C216.695 201.245 216.691 200.88 216.553 200.557C216.415 200.234 216.155 199.978 215.829 199.846L181.138 185.882Z"/><path fill="#3F3D56" d="M206.134 211.285L206.132 211.284L179.352 200.504C178.978 200.353 178.66 200.09 178.442 199.752C178.223 199.413 178.113 199.016 178.128 198.613L178.634 186.07C178.646 185.758 178.734 185.453 178.889 185.181C179.044 184.909 179.262 184.679 179.524 184.509C179.787 184.339 180.086 184.234 180.398 184.204C180.709 184.173 181.023 184.218 181.314 184.335L216.756 198.531C217.235 198.723 217.618 199.097 217.823 199.571C218.027 200.044 218.036 200.58 217.847 201.06L217.963 201.177L216.852 202.284L216.852 202.283L208.242 210.856C207.971 211.126 207.627 211.311 207.252 211.387C206.878 211.463 206.489 211.428 206.134 211.285Z"/><path fill="#3F3D56" d="M186.023 212.197L174.112 207.402C173.819 207.284 173.584 207.054 173.461 206.763C173.337 206.472 173.333 206.144 173.452 205.851C173.57 205.557 173.799 205.323 174.09 205.199C174.381 205.075 174.709 205.071 175.003 205.189L186.914 209.984C187.059 210.042 187.191 210.129 187.303 210.238C187.415 210.348 187.504 210.479 187.566 210.623C187.627 210.767 187.66 210.922 187.661 211.078C187.663 211.235 187.633 211.39 187.575 211.536C187.516 211.681 187.43 211.813 187.32 211.925C187.211 212.037 187.08 212.126 186.936 212.188C186.792 212.249 186.637 212.281 186.48 212.283C186.324 212.284 186.168 212.255 186.023 212.197V212.197Z"/><path fill="#fff" d="M193.398 208.228C195.008 208.228 196.314 206.923 196.314 205.313C196.314 203.702 195.008 202.397 193.398 202.397C191.788 202.397 190.482 203.702 190.482 205.313C190.482 206.923 191.788 208.228 193.398 208.228Z"/><path fill="#CDF4DE" d="M219.672 172.059C237.285 172.059 251.564 157.781 251.564 140.168C251.564 122.555 237.285 108.277 219.672 108.277C202.059 108.277 187.781 122.555 187.781 140.168C187.781 157.781 202.059 172.059 219.672 172.059Z"/><path fill="#3F3D56" d="M231.776 160.178L197.083 146.214C196.372 145.926 195.804 145.368 195.504 144.662C195.203 143.956 195.194 143.16 195.479 142.448L203.805 121.762C204.093 121.051 204.651 120.484 205.356 120.183C206.062 119.882 206.858 119.873 207.57 120.158L242.263 134.122C242.974 134.41 243.542 134.968 243.843 135.674C244.143 136.379 244.152 137.175 243.868 137.887L235.542 158.573C235.253 159.284 234.696 159.852 233.99 160.153C233.285 160.453 232.489 160.463 231.776 160.178V160.178ZM206.985 121.613C206.659 121.483 206.294 121.487 205.971 121.625C205.647 121.763 205.392 122.023 205.26 122.349L196.934 143.033C196.804 143.36 196.808 143.724 196.946 144.048C197.084 144.371 197.344 144.627 197.67 144.759L232.36 158.723C232.687 158.853 233.052 158.849 233.375 158.711C233.699 158.573 233.955 158.313 234.087 157.987L242.413 137.303C242.543 136.976 242.539 136.611 242.401 136.288C242.263 135.965 242.003 135.709 241.677 135.577L206.985 121.613Z"/><path fill="#3F3D56" d="M231.982 147.016L231.98 147.015L205.199 136.235C204.826 136.084 204.508 135.821 204.289 135.483C204.07 135.144 203.961 134.747 203.976 134.344L204.482 121.801C204.494 121.489 204.582 121.184 204.737 120.912C204.892 120.64 205.109 120.41 205.372 120.24C205.635 120.07 205.934 119.965 206.246 119.935C206.557 119.904 206.871 119.949 207.161 120.066L242.603 134.262C243.082 134.454 243.466 134.828 243.671 135.302C243.875 135.775 243.884 136.311 243.695 136.791L243.811 136.908L242.7 138.015L242.7 138.014L234.089 146.587C233.819 146.857 233.475 147.042 233.1 147.118C232.725 147.194 232.336 147.159 231.982 147.016V147.016Z"/><path fill="#3F3D56" d="M211.87 147.928L199.96 143.133C199.666 143.015 199.432 142.785 199.308 142.494C199.184 142.203 199.181 141.875 199.299 141.582C199.417 141.288 199.647 141.054 199.938 140.93C200.229 140.806 200.557 140.802 200.851 140.92L212.761 145.715C213.055 145.833 213.289 146.063 213.413 146.354C213.537 146.645 213.54 146.973 213.422 147.266C213.304 147.56 213.074 147.794 212.783 147.918C212.492 148.042 212.164 148.046 211.87 147.928V147.928Z"/><path fill="#9E616A" d="M133.492 163.512C133.495 162.902 133.365 162.299 133.109 161.744C132.854 161.19 132.48 160.699 132.015 160.305C131.549 159.911 131.002 159.624 130.414 159.464C129.825 159.304 129.208 159.275 128.607 159.379L121.426 146.403L117.852 153.23L125.219 164.506C125.46 165.504 126.06 166.379 126.904 166.965C127.748 167.55 128.777 167.806 129.797 167.684C130.817 167.561 131.756 167.069 132.437 166.3C133.118 165.531 133.494 164.539 133.492 163.512H133.492Z"/><path fill="#CACACA" d="M128.854 111.101L121.469 110.583C121.469 110.583 120.56 110.459 118.058 114.426C115.557 118.392 106.982 138.507 106.982 138.507L122.005 160.311L126.884 155.454L118.161 137.909L126.522 126.167L128.854 111.101Z"/><path fill="#9E616A" d="M210.26 134.672C209.765 134.861 209.235 134.939 208.706 134.901C208.178 134.862 207.665 134.709 207.202 134.45C206.74 134.192 206.34 133.836 206.03 133.406C205.72 132.976 205.508 132.484 205.41 131.964L192.672 130.088L197.129 125.099L208.542 127.645C209.427 127.537 210.321 127.757 211.055 128.264C211.788 128.771 212.311 129.529 212.522 130.396C212.734 131.262 212.621 132.176 212.204 132.964C211.787 133.752 211.095 134.36 210.26 134.672V134.672Z"/><path fill="#9E616A" d="M161.296 274.199H166.739L169.328 253.204L161.295 253.204L161.296 274.199Z"/><path fill="#2F2E41" d="M159.908 272.422L161.44 272.422L167.422 269.99L170.628 272.422H170.628C172.44 272.422 174.177 273.141 175.458 274.423C176.739 275.704 177.459 277.441 177.459 279.253V279.475L159.909 279.475L159.908 272.422Z"/><path fill="#9E616A" d="M128.464 274.199H133.907L136.496 253.204L128.463 253.204L128.464 274.199Z"/><path fill="#2F2E41" d="M127.074 272.422L128.606 272.422L134.588 269.99L137.794 272.422H137.794C139.606 272.422 141.343 273.141 142.624 274.423C143.905 275.704 144.625 277.441 144.625 279.253V279.475L127.075 279.475L127.074 272.422Z"/><path fill="#2F2E41" d="M130.562 170.813L126.965 192.499L128.175 262.208H137.029L150.633 188.472L160.418 260.996L169.321 260.611L173.764 187.405L169.772 168.719L130.562 170.813Z"/><path fill="#CACACA" d="M163.096 106.323L153.619 104.926L151.604 99.6947L138.253 99.6763L135.253 106.507L121.609 110.626L132.913 149.456C132.913 149.456 126.683 163.886 128.216 163.948C129.748 164.01 130.502 166.201 129.434 167.352C128.365 168.503 126.221 167.771 127.293 169.519C127.907 170.466 128.319 171.529 128.501 172.642C128.501 172.642 173.709 182.294 171.204 169.848C170.893 168.301 167.116 146.867 167.116 146.867C167.116 146.867 170.405 143.228 168.999 141.781C167.593 140.335 168.336 125.059 168.336 125.059L163.096 106.323Z"/><path fill="#CACACA" d="M161.545 108.019L163.096 106.323L184.169 118.679L201.999 125.79L202.345 132.011L179.188 129.246L162.799 121.232L161.545 108.019Z"/><path fill="#9E616A" d="M155.685 84.6908C155.685 86.1557 155.397 87.6062 154.836 88.9596C154.276 90.313 153.454 91.5427 152.418 92.5785C151.382 93.6143 150.153 94.436 148.799 94.9965C147.446 95.5571 145.995 95.8457 144.53 95.8457C143.652 95.8443 142.777 95.7419 141.921 95.5404C139.884 95.0514 138.026 93.9986 136.559 92.5025C135.092 91.0065 134.075 89.1277 133.626 87.0811C133.177 85.0345 133.314 82.9028 134.02 80.9301C134.725 78.9573 135.973 77.2231 137.618 75.926C139.264 74.6289 141.241 73.8213 143.324 73.5956C145.407 73.3699 147.512 73.7352 149.397 74.6497C151.282 75.5642 152.872 76.991 153.984 78.7668C155.096 80.5425 155.685 82.5955 155.685 84.6908V84.6908Z"/><path fill="#2F2E41" d="M147.519 93.7364L139.507 95.2816C138.761 95.4834 137.979 95.5159 137.218 95.3766C136.026 95.0628 135.228 93.963 134.618 92.892C131.789 87.8759 130.899 81.9966 132.114 76.3677C132.388 75.1252 132.973 73.7016 134.22 73.4485C134.582 73.375 134.992 73.4041 135.278 73.1708C135.701 72.8273 135.562 72.0991 135.147 71.7466C134.696 71.4359 134.165 71.2631 133.617 71.2494C133.971 70.8338 134.409 70.4977 134.902 70.2633C135.394 70.0289 135.931 69.9015 136.477 69.8895L134.334 68.6987C135.366 67.9824 136.753 68.0479 137.97 68.3573C139.188 68.6668 140.36 69.1908 141.611 69.3081C143.182 69.4553 144.731 68.9506 146.297 68.7556C148.632 68.5023 150.992 68.9241 153.095 69.9709C155.198 71.0177 156.957 72.6457 158.163 74.6618C158.588 75.3342 158.857 76.0932 158.951 76.8832C158.994 77.2783 158.945 77.6779 158.806 78.0504C158.668 78.4229 158.444 78.7579 158.154 79.0289C157.276 79.7669 155.895 79.6584 155.045 80.4278C154.39 81.0208 154.227 81.9784 154.19 82.8612C154.153 83.744 154.194 84.6665 153.816 85.465C153.438 86.2635 152.45 86.8639 151.661 86.467C151.626 85.3734 150.366 84.5991 149.295 84.8249C148.224 85.0507 147.434 86.0244 147.126 87.0743C146.818 88.1242 146.909 89.2461 147.043 90.332C147.177 91.4179 147.352 92.5165 147.201 93.6003"/><path fill="#CDF4DE" d="M218 144.283C219.61 144.283 220.915 142.978 220.915 141.367C220.915 139.757 219.61 138.452 218 138.452C216.389 138.452 215.084 139.757 215.084 141.367C215.084 142.978 216.389 144.283 218 144.283Z"/><path fill="#CACACA" d="M281.131 280H57.4123C57.3034 280 57.199 279.956 57.1221 279.879C57.0451 279.802 57.002 279.697 57.002 279.589C57.002 279.48 57.0451 279.375 57.1221 279.298C57.199 279.221 57.3034 279.177 57.4123 279.177H281.131C281.24 279.177 281.344 279.22 281.422 279.298C281.499 279.375 281.542 279.479 281.542 279.589C281.542 279.698 281.499 279.802 281.422 279.88C281.344 279.957 281.24 280 281.131 280Z"/></g><defs><clipPath id="clip0_407_2285"><rect width="265.413" height="280" fill="#fff" transform="translate(57)"/></clipPath></defs></svg>