<svg xmlns="http://www.w3.org/2000/svg" width="48" height="61" fill="none" viewBox="0 0 48 61"><path fill="#000" d="M13.5395 59.72C13.2338 59.72 12.9791 59.5366 12.7754 59.1698C12.592 58.803 12.5003 58.4668 12.5003 58.1612C12.5003 57.8148 12.5716 57.5499 12.7143 57.3665C12.8569 57.1831 13.1218 57.071 13.5089 57.0303C14.7315 56.9284 15.7707 56.7348 16.6265 56.4496C17.5027 56.1439 17.9408 55.6854 17.9408 55.0742L17.9714 22.0033C17.9714 21.2086 17.737 20.6075 17.2684 20.1999C16.7997 19.7924 16.2801 19.5275 15.7096 19.4053C15.1594 19.283 14.3647 19.1608 13.3255 19.0385C12.8773 18.9977 12.5818 18.9162 12.4392 18.794C12.2965 18.6513 12.2252 18.3559 12.2252 17.9076C12.2252 17.602 12.3169 17.2657 12.5003 16.899C12.7041 16.5322 12.9588 16.3488 13.2644 16.3488H20.0803C21.3844 16.3488 23.1368 16.2877 25.3374 16.1654C27.5788 16.0432 29.4127 15.982 30.8391 15.982C33.4065 15.982 35.7803 16.4201 37.9606 17.2963C40.1613 18.1521 41.9442 19.5479 43.3094 21.4837C44.6746 23.399 45.3572 25.8544 45.3572 28.8497C45.3572 31.5394 44.6848 33.9438 43.34 36.063C41.9951 38.1617 40.1205 39.802 37.7161 40.9839C35.3117 42.1657 32.6016 42.7566 29.5859 42.7566H24.2677V54.0655C24.2677 54.8602 24.5835 55.4715 25.2152 55.8994C25.8672 56.3069 26.6008 56.582 27.4158 56.7246C28.2309 56.8469 29.2395 56.9488 30.4417 57.0303C30.89 57.071 31.1855 57.1627 31.3281 57.3054C31.4707 57.4276 31.542 57.7129 31.542 58.1612C31.542 58.4668 31.4402 58.803 31.2364 59.1698C31.053 59.5366 30.8085 59.72 30.5028 59.72H13.5395ZM29.4942 40.1281C30.4723 40.1281 31.6643 39.7817 33.0703 39.0889C34.4762 38.3757 35.709 37.2244 36.7686 35.6351C37.8485 34.0253 38.3885 31.9775 38.3885 29.4916C38.3885 25.6201 37.441 22.8591 35.546 21.2086C33.6714 19.5377 31.3179 18.7023 28.4856 18.7023H24.2982L24.2677 40.1281H29.4942Z"/><path fill="#fff" d="M12.7754 59.1698L12.338 59.3885L12.3427 59.398L12.3479 59.4073L12.7754 59.1698ZM13.5089 57.0303L13.4683 56.5428L13.4577 56.5439L13.5089 57.0303ZM16.6265 56.4496L16.7812 56.9135L16.7876 56.9113L16.6265 56.4496ZM17.9408 55.0742L17.4518 55.0737V55.0742H17.9408ZM17.9714 22.0033L18.4604 22.0037V22.0033H17.9714ZM17.2684 20.1999L17.5893 19.8309L17.5893 19.8309L17.2684 20.1999ZM15.7096 19.4053L15.6035 19.8827L15.6071 19.8834L15.7096 19.4053ZM13.3255 19.0385L13.3827 18.5526L13.3698 18.5515L13.3255 19.0385ZM12.4392 18.794L12.0934 19.1398L12.1067 19.1531L12.1209 19.1653L12.4392 18.794ZM12.5003 16.899L12.0728 16.6615L12.0676 16.6708L12.0629 16.6803L12.5003 16.899ZM25.3374 16.1654L25.3108 15.6771L25.3103 15.6771L25.3374 16.1654ZM37.9606 17.2963L37.7782 17.7501L37.7834 17.7521L37.9606 17.2963ZM43.3094 21.4837L42.9098 21.7655L42.9112 21.7675L43.3094 21.4837ZM43.34 36.063L43.7517 36.3268L43.7529 36.325L43.34 36.063ZM24.2677 42.7566V42.2676H23.7786V42.7566H24.2677ZM25.2152 55.8994L24.9409 56.3043L24.9483 56.3093L24.956 56.3141L25.2152 55.8994ZM27.4158 56.7246L27.3315 57.2065L27.3433 57.2083L27.4158 56.7246ZM30.4417 57.0303L30.486 56.5431L30.4748 56.5424L30.4417 57.0303ZM31.3281 57.3054L30.9823 57.6512L30.9956 57.6644L31.0098 57.6767L31.3281 57.3054ZM31.2364 59.1698L30.8089 58.9323L30.8037 58.9416L30.799 58.9511L31.2364 59.1698ZM33.0703 39.0889L33.2864 39.5276L33.2915 39.525L33.0703 39.0889ZM36.7686 35.6351L36.3625 35.3626L36.3617 35.3638L36.7686 35.6351ZM35.546 21.2086L35.2206 21.5737L35.2248 21.5773L35.546 21.2086ZM24.2982 18.7023V18.2132H23.8099L23.8092 18.7016L24.2982 18.7023ZM24.2677 40.1281L23.7786 40.1274L23.7779 40.6171H24.2677V40.1281ZM13.5395 59.2309C13.4756 59.2309 13.3569 59.2095 13.2029 58.9323L12.3479 59.4073C12.6014 59.8637 12.9921 60.209 13.5395 60.209V59.2309ZM13.2128 58.9511C13.0523 58.6301 12.9893 58.3695 12.9893 58.1612H12.0113C12.0113 58.5641 12.1317 58.976 12.338 59.3885L13.2128 58.9511ZM12.9893 58.1612C12.9893 57.8724 13.0501 57.7312 13.1003 57.6667L12.3282 57.0663C12.0931 57.3686 12.0113 57.7571 12.0113 58.1612H12.9893ZM13.1003 57.6667C13.1206 57.6406 13.2204 57.5524 13.5601 57.5166L13.4577 56.5439C13.0231 56.5897 12.5932 56.7256 12.3282 57.0663L13.1003 57.6667ZM13.5495 57.5176C14.7981 57.4136 15.8779 57.2146 16.7812 56.9135L16.4719 55.9856C15.6635 56.2551 14.665 56.4432 13.4683 56.5429L13.5495 57.5176ZM16.7876 56.9113C17.7398 56.5791 18.4298 55.9972 18.4298 55.0742H17.4518C17.4518 55.3736 17.2656 55.7087 16.4654 55.9878L16.7876 56.9113ZM18.4298 55.0746L18.4604 22.0037L17.4823 22.0028L17.4518 55.0737L18.4298 55.0746ZM18.4604 22.0033C18.4604 21.1095 18.1931 20.356 17.5893 19.8309L16.9475 20.569C17.281 20.859 17.4823 21.3077 17.4823 22.0033H18.4604ZM17.5893 19.8309C17.0624 19.3727 16.4687 19.0678 15.812 18.9271L15.6071 19.8834C16.0916 19.9873 16.5371 20.2121 16.9475 20.569L17.5893 19.8309ZM15.8157 18.9279C15.2411 18.8002 14.427 18.6757 13.3827 18.5528L13.2684 19.5242C14.3025 19.6458 15.0778 19.7658 15.6035 19.8827L15.8157 18.9279ZM13.3698 18.5515C13.1625 18.5326 13.0077 18.5057 12.8978 18.4754C12.7808 18.4431 12.7502 18.4165 12.7574 18.4227L12.1209 19.1653C12.2707 19.2937 12.4592 19.369 12.6377 19.4182C12.8232 19.4694 13.0403 19.5036 13.2813 19.5255L13.3698 18.5515ZM12.785 18.4482C12.8017 18.4649 12.7786 18.4521 12.7541 18.3507C12.7307 18.2537 12.7143 18.1095 12.7143 17.9076H11.7362C11.7362 18.154 11.7554 18.3817 11.8033 18.5802C11.8502 18.7742 11.934 18.9804 12.0934 19.1398L12.785 18.4482ZM12.7143 17.9076C12.7143 17.6993 12.7772 17.4387 12.9377 17.1177L12.0629 16.6803C11.8566 17.0928 11.7362 17.5047 11.7362 17.9076H12.7143ZM12.9278 17.1365C13.0818 16.8593 13.2005 16.8378 13.2644 16.8378V15.8598C12.717 15.8598 12.3264 16.2051 12.0728 16.6615L12.9278 17.1365ZM13.2644 16.8378H20.0803V15.8598H13.2644V16.8378ZM20.0803 16.8378C21.3975 16.8378 23.1601 16.7762 25.3646 16.6537L25.3103 15.6771C23.1135 15.7992 21.3713 15.8598 20.0803 15.8598V16.8378ZM25.3641 16.6537C27.601 16.5317 29.4251 16.4711 30.8391 16.4711V15.493C29.4003 15.493 27.5567 15.5546 25.3108 15.6771L25.3641 16.6537ZM30.8391 16.4711C33.3498 16.4711 35.6611 16.8993 37.7783 17.7501L38.143 16.8425C35.8996 15.941 33.4631 15.493 30.8391 15.493V16.4711ZM37.7834 17.7521C39.8941 18.5729 41.5998 19.9081 42.9098 21.7655L43.7091 21.2018C42.2886 19.1877 40.4284 17.7313 38.1379 16.8405L37.7834 17.7521ZM42.9112 21.7675C44.203 23.5799 44.8682 25.9282 44.8682 28.8497H45.8463C45.8463 25.7805 45.1463 23.2182 43.7076 21.1998L42.9112 21.7675ZM44.8682 28.8497C44.8682 31.4536 44.2186 33.7658 42.9271 35.8009L43.7529 36.325C45.151 34.1218 45.8463 31.6253 45.8463 28.8497H44.8682ZM42.9282 35.7991C41.6351 37.8171 39.8309 39.3995 37.5004 40.545L37.9318 41.4228C40.4101 40.2046 42.3551 38.5064 43.7517 36.3268L42.9282 35.7991ZM37.5004 40.545C35.1711 41.6899 32.5363 42.2676 29.5859 42.2676V43.2457C32.6669 43.2457 35.4523 42.6415 37.9318 41.4228L37.5004 40.545ZM29.5859 42.2676H24.2677V43.2457H29.5859V42.2676ZM23.7786 42.7566V54.0655H24.7567V42.7566H23.7786ZM23.7786 54.0655C23.7786 55.0144 24.1684 55.781 24.9409 56.3043L25.4894 55.4945C24.9986 55.162 24.7567 54.706 24.7567 54.0655H23.7786ZM24.956 56.3141C25.6654 56.7575 26.4592 57.0537 27.3315 57.2064L27.5001 56.2429C26.7424 56.1103 26.069 55.8564 25.4744 55.4847L24.956 56.3141ZM27.3433 57.2083C28.1759 57.3332 29.1987 57.4362 30.4086 57.5182L30.4748 56.5424C29.2804 56.4614 28.2859 56.3606 27.4884 56.241L27.3433 57.2083ZM30.3974 57.5173C30.6014 57.5359 30.7507 57.5644 30.8546 57.5967C30.9634 57.6304 30.9892 57.6581 30.9823 57.6512L31.6739 56.9596C31.5244 56.81 31.3311 56.7205 31.1445 56.6626C30.9529 56.6031 30.7303 56.5655 30.486 56.5433L30.3974 57.5173ZM31.0098 57.6767C30.9717 57.644 30.9901 57.6337 31.0141 57.7296C31.0364 57.8189 31.053 57.9585 31.053 58.1612H32.0311C32.0311 57.9156 32.012 57.6884 31.963 57.4924C31.9156 57.303 31.8271 57.089 31.6463 56.9341L31.0098 57.6767ZM31.053 58.1612C31.053 58.3585 30.9867 58.6124 30.8089 58.9323L31.6639 59.4073C31.8937 58.9937 32.0311 58.5752 32.0311 58.1612H31.053ZM30.799 58.9511C30.6654 59.2183 30.5594 59.2309 30.5028 59.2309V60.209C31.0576 60.209 31.4406 59.8549 31.6738 59.3885L30.799 58.9511ZM30.5028 59.2309H13.5395V60.209H30.5028V59.2309ZM29.4942 40.6171C30.5791 40.6171 31.8493 40.2357 33.2864 39.5275L32.8541 38.6502C31.4793 39.3276 30.3654 39.639 29.4942 39.639V40.6171ZM33.2915 39.525C34.7869 38.7665 36.0791 37.551 37.1755 35.9063L36.3617 35.3638C35.339 36.8979 34.1656 37.9849 32.849 38.6527L33.2915 39.525ZM37.1747 35.9075C38.3221 34.1972 38.8775 32.0473 38.8775 29.4916H37.8995C37.8995 31.9077 37.375 33.8534 36.3625 35.3626L37.1747 35.9075ZM38.8775 29.4916C38.8775 25.555 37.9154 22.6237 35.8672 20.8398L35.2248 21.5773C36.9666 23.0944 37.8995 25.6851 37.8995 29.4916H38.8775ZM35.8714 20.8435C33.8956 19.0825 31.4214 18.2132 28.4856 18.2132V19.1913C31.2144 19.1913 33.4471 19.9929 35.2206 21.5736L35.8714 20.8435ZM28.4856 18.2132H24.2982V19.1913H28.4856V18.2132ZM23.8092 18.7016L23.7786 40.1274L24.7567 40.1288L24.7873 18.703L23.8092 18.7016ZM24.2677 40.6171H29.4942V39.639H24.2677V40.6171Z"/><path fill="#000" d="M4.24848 46.027C3.94283 46.027 3.68813 45.8436 3.48436 45.4769C3.30098 45.1101 3.20928 44.7739 3.20928 44.4682C3.20928 44.1218 3.2806 43.8569 3.42323 43.6735C3.56587 43.4902 3.83076 43.3781 4.21791 43.3373C5.4405 43.2355 6.47969 43.0419 7.3355 42.7566C8.21169 42.451 8.64978 41.9925 8.64978 41.3812L8.68035 8.31031C8.68035 7.51563 8.44602 6.91453 7.97736 6.507C7.5087 6.09947 6.9891 5.83458 6.41857 5.71232C5.8684 5.59006 5.07372 5.4678 4.03453 5.34554C3.58625 5.30479 3.29079 5.22329 3.14815 5.10103C3.00552 4.95839 2.9342 4.66294 2.9342 4.21465C2.9342 3.90901 3.0259 3.5728 3.20928 3.20602C3.41305 2.83925 3.66775 2.65586 3.9734 2.65586H10.7893C12.0934 2.65586 13.8458 2.59473 16.0464 2.47247C18.2878 2.35021 20.1217 2.28909 21.548 2.28909C24.1155 2.28909 26.4893 2.72718 28.6696 3.60336C30.8702 4.45917 32.6532 5.85495 34.0184 7.79071C35.3836 9.70609 36.0662 12.1614 36.0662 15.1568C36.0662 17.8465 35.3938 20.2509 34.049 22.37C32.7041 24.4688 30.8295 26.1091 28.4251 27.2909C26.0207 28.4728 23.3106 29.0637 20.2949 29.0637H14.9767V40.3726C14.9767 41.1673 15.2925 41.7785 15.9242 42.2064C16.5762 42.614 17.3098 42.8891 18.1248 43.0317C18.9399 43.154 19.9485 43.2558 21.1507 43.3373C21.599 43.3781 21.8944 43.4698 22.0371 43.6124C22.1797 43.7347 22.251 44.0199 22.251 44.4682C22.251 44.7739 22.1491 45.1101 21.9454 45.4769C21.762 45.8436 21.5175 46.027 21.2118 46.027H4.24848ZM20.2032 26.4351C21.1813 26.4351 22.3733 26.0887 23.7793 25.3959C25.1852 24.6827 26.418 23.5315 27.4776 21.9421C28.5575 20.3324 29.0975 18.2846 29.0975 15.7986C29.0975 11.9271 28.15 9.16612 26.255 7.51563C24.3804 5.84477 22.0269 5.00933 19.1946 5.00933H15.0072L14.9767 26.4351H20.2032Z"/><path fill="#fff" d="M3.48436 45.4769L3.04696 45.6956L3.05171 45.7051L3.05687 45.7144L3.48436 45.4769ZM4.21791 43.3373L4.17729 42.8499L4.16672 42.851L4.21791 43.3373ZM7.3355 42.7566L7.49016 43.2206L7.49658 43.2184L7.3355 42.7566ZM8.64978 41.3812L8.16075 41.3808V41.3812H8.64978ZM8.68035 8.31031L9.16938 8.31076V8.31031H8.68035ZM7.97736 6.507L8.29825 6.13797L8.29825 6.13797L7.97736 6.507ZM6.41857 5.71232L6.31248 6.18972L6.3161 6.1905L6.41857 5.71232ZM4.03453 5.34554L4.09169 4.85969L4.0788 4.85852L4.03453 5.34554ZM3.14815 5.10103L2.80235 5.44683L2.81563 5.46011L2.82989 5.47233L3.14815 5.10103ZM3.20928 3.20602L2.78179 2.96853L2.77663 2.97782L2.77188 2.98732L3.20928 3.20602ZM16.0464 2.47247L16.0198 1.98416L16.0193 1.98419L16.0464 2.47247ZM28.6696 3.60336L28.4872 4.05715L28.4923 4.05914L28.6696 3.60336ZM34.0184 7.79071L33.6188 8.07257L33.6202 8.07456L34.0184 7.79071ZM34.049 22.37L34.4607 22.6339L34.4619 22.6321L34.049 22.37ZM14.9767 29.0637V28.5746H14.4876V29.0637H14.9767ZM15.9242 42.2064L15.6499 42.6113L15.6573 42.6164L15.665 42.6211L15.9242 42.2064ZM18.1248 43.0317L18.0405 43.5135L18.0523 43.5153L18.1248 43.0317ZM21.1507 43.3373L21.195 42.8502L21.1838 42.8494L21.1507 43.3373ZM22.0371 43.6124L21.6913 43.9582L21.7046 43.9715L21.7188 43.9837L22.0371 43.6124ZM21.9454 45.4769L21.5179 45.2394L21.5127 45.2487L21.508 45.2582L21.9454 45.4769ZM23.7793 25.3959L23.9954 25.8346L24.0005 25.8321L23.7793 25.3959ZM27.4776 21.9421L27.0715 21.6697L27.0707 21.6709L27.4776 21.9421ZM26.255 7.51563L25.9296 7.88073L25.9338 7.8844L26.255 7.51563ZM15.0072 5.00933V4.5203H14.5189L14.5182 5.00864L15.0072 5.00933ZM14.9767 26.4351L14.4876 26.4344L14.4869 26.9242H14.9767V26.4351ZM4.24848 45.538C4.18461 45.538 4.06584 45.5165 3.91186 45.2394L3.05687 45.7144C3.31042 46.1707 3.70105 46.5161 4.24848 46.5161V45.538ZM3.92177 45.2582C3.76127 44.9372 3.69832 44.6766 3.69832 44.4682H2.72025C2.72025 44.8712 2.84068 45.283 3.04696 45.6956L3.92177 45.2582ZM3.69832 44.4682C3.69832 44.1795 3.75913 44.0382 3.80925 43.9738L3.03722 43.3733C2.80207 43.6756 2.72025 44.0642 2.72025 44.4682H3.69832ZM3.80925 43.9738C3.82959 43.9476 3.92943 43.8594 4.26911 43.8237L4.16672 42.851C3.7321 42.8967 3.30215 43.0327 3.03722 43.3733L3.80925 43.9738ZM4.25853 43.8247C5.50704 43.7206 6.58688 43.5216 7.49015 43.2205L7.18086 42.2927C6.37251 42.5621 5.37395 42.7503 4.1773 42.85L4.25853 43.8247ZM7.49658 43.2184C8.4488 42.8862 9.13881 42.3043 9.13881 41.3812H8.16075C8.16075 41.6807 7.97458 42.0157 7.17443 42.2949L7.49658 43.2184ZM9.13881 41.3817L9.16938 8.31076L8.19131 8.30986L8.16075 41.3808L9.13881 41.3817ZM9.16938 8.31031C9.16938 7.41651 8.90204 6.663 8.29825 6.13797L7.65647 6.87603C7.99 7.16605 8.19131 7.61475 8.19131 8.31031H9.16938ZM8.29825 6.13797C7.77134 5.67978 7.17765 5.37485 6.52103 5.23414L6.3161 6.1905C6.80056 6.29431 7.24607 6.51916 7.65647 6.87603L8.29825 6.13797ZM6.52465 5.23493C5.95007 5.10725 5.13595 4.98272 4.09167 4.85986L3.97739 5.83123C5.0115 5.95289 5.78674 6.07288 6.31248 6.18971L6.52465 5.23493ZM4.0788 4.85852C3.87153 4.83968 3.71673 4.81276 3.60677 4.78243C3.48978 4.75015 3.45923 4.72357 3.46641 4.72973L2.82989 5.47233C2.97972 5.60075 3.16821 5.67604 3.34667 5.72528C3.53218 5.77645 3.74924 5.81066 3.99025 5.83257L4.0788 4.85852ZM3.49395 4.75523C3.51072 4.77199 3.48755 4.75914 3.46307 4.65771C3.43966 4.56073 3.42323 4.41657 3.42323 4.21465H2.44517C2.44517 4.46102 2.4644 4.68873 2.51231 4.88721C2.55914 5.08124 2.64295 5.28743 2.80235 5.44683L3.49395 4.75523ZM3.42323 4.21465C3.42323 4.00631 3.48619 3.74573 3.64669 3.42473L2.77188 2.98732C2.5656 3.39987 2.44517 3.81171 2.44517 4.21465H3.42323ZM3.63677 3.44352C3.79076 3.16635 3.90953 3.14489 3.9734 3.14489V2.16683C3.42597 2.16683 3.03534 2.51214 2.78179 2.96853L3.63677 3.44352ZM3.9734 3.14489H10.7893V2.16683H3.9734V3.14489ZM10.7893 3.14489C12.1065 3.14489 13.8691 3.08322 16.0735 2.96075L16.0193 1.98419C13.8224 2.10624 12.0803 2.16683 10.7893 2.16683V3.14489ZM16.073 2.96078C18.31 2.83877 20.1341 2.77812 21.548 2.77812V1.80005C20.1093 1.80005 18.2657 1.86166 16.0198 1.98417L16.073 2.96078ZM21.548 2.77812C24.0588 2.77812 26.3701 3.20631 28.4872 4.05713L28.8519 3.1496C26.6085 2.24804 24.1721 1.80005 21.548 1.80005V2.77812ZM28.4923 4.05914C30.6031 4.87998 32.3088 6.21512 33.6188 8.07256L34.418 7.50886C32.9976 5.49479 31.1374 4.03836 28.8468 3.14758L28.4923 4.05914ZM33.6202 8.07456C34.912 9.88693 35.5772 12.2353 35.5772 15.1568H36.5553C36.5553 12.0876 35.8553 9.52526 34.4166 7.50687L33.6202 8.07456ZM35.5772 15.1568C35.5772 17.7606 34.9276 20.0729 33.6361 22.108L34.4619 22.6321C35.86 20.4289 36.5553 17.9323 36.5553 15.1568H35.5772ZM33.6372 22.1062C32.3441 24.1242 30.5399 25.7065 28.2094 26.852L28.6408 27.7298C31.1191 26.5117 33.0641 24.8134 34.4607 22.6339L33.6372 22.1062ZM28.2094 26.852C25.8801 27.9969 23.2453 28.5746 20.2949 28.5746V29.5527C23.3759 29.5527 26.1612 28.9486 28.6408 27.7298L28.2094 26.852ZM20.2949 28.5746H14.9767V29.5527H20.2949V28.5746ZM14.4876 29.0637V40.3726H15.4657V29.0637H14.4876ZM14.4876 40.3726C14.4876 41.3214 14.8774 42.088 15.6499 42.6113L16.1984 41.8016C15.7076 41.4691 15.4657 41.0131 15.4657 40.3726H14.4876ZM15.665 42.6211C16.3744 43.0645 17.1681 43.3607 18.0405 43.5134L18.2091 42.55C17.4514 42.4174 16.778 42.1634 16.1833 41.7917L15.665 42.6211ZM18.0523 43.5153C18.8849 43.6402 19.9076 43.7432 21.1176 43.8253L21.1838 42.8494C19.9894 42.7684 18.9949 42.6677 18.1973 42.5481L18.0523 43.5153ZM21.1064 43.8244C21.3104 43.8429 21.4597 43.8715 21.5636 43.9037C21.6723 43.9375 21.6982 43.9651 21.6913 43.9582L22.3829 43.2666C22.2334 43.1171 22.0401 43.0276 21.8535 42.9696C21.6619 42.9102 21.4393 42.8725 21.195 42.8503L21.1064 43.8244ZM21.7188 43.9837C21.6807 43.9511 21.6991 43.9408 21.7231 44.0367C21.7454 44.1259 21.762 44.2655 21.762 44.4682H22.7401C22.7401 44.2226 22.721 43.9955 22.672 43.7995C22.6246 43.6101 22.5361 43.396 22.3553 43.2411L21.7188 43.9837ZM21.762 44.4682C21.762 44.6655 21.6956 44.9194 21.5179 45.2394L22.3729 45.7144C22.6026 45.3008 22.7401 44.8822 22.7401 44.4682H21.762ZM21.508 45.2582C21.3744 45.5253 21.2684 45.538 21.2118 45.538V46.5161C21.7665 46.5161 22.1496 46.162 22.3828 45.6956L21.508 45.2582ZM21.2118 45.538H4.24848V46.5161H21.2118V45.538ZM20.2032 26.9242C21.2881 26.9242 22.5583 26.5427 23.9954 25.8346L23.5631 24.9573C22.1883 25.6347 21.0744 25.9461 20.2032 25.9461V26.9242ZM24.0005 25.8321C25.4959 25.0735 26.7881 23.858 27.8845 22.2134L27.0707 21.6709C26.0479 23.205 24.8746 24.292 23.558 24.9598L24.0005 25.8321ZM27.8837 22.2146C29.0311 20.5043 29.5865 18.3544 29.5865 15.7986H28.6085C28.6085 18.2148 28.0839 20.1605 27.0715 21.6697L27.8837 22.2146ZM29.5865 15.7986C29.5865 11.8621 28.6244 8.93077 26.5762 7.14686L25.9338 7.8844C27.6756 9.40147 28.6085 11.9921 28.6085 15.7986H29.5865ZM26.5804 7.15056C24.6046 5.38955 22.1304 4.5203 19.1946 4.5203V5.49837C21.9233 5.49837 24.1561 6.29999 25.9296 7.8807L26.5804 7.15056ZM19.1946 4.5203H15.0072V5.49837H19.1946V4.5203ZM14.5182 5.00864L14.4876 26.4344L15.4657 26.4358L15.4963 5.01003L14.5182 5.00864ZM14.9767 26.9242H20.2032V25.9461H14.9767V26.9242Z"/></svg>