<svg width="623" height="522" viewBox="0 0 623 522" fill="none" xmlns="http://www.w3.org/2000/svg">
<path d="M480.866 305.166V352.282C480.866 356.378 479.426 360.306 476.862 363.202C474.299 366.098 470.822 367.725 467.196 367.725H317.642C314.018 367.722 310.544 366.094 307.982 363.198C305.421 360.302 303.982 356.376 303.982 352.282V312.465L285.355 290.368L467.157 289.734C468.955 289.727 470.736 290.121 472.399 290.893C474.062 291.665 475.574 292.801 476.848 294.235C478.121 295.668 479.132 297.372 479.822 299.248C480.511 301.124 480.866 303.135 480.866 305.166Z" fill="#F5F5F5"/>
<path d="M326.022 318.276L461.738 317.565L461.718 312.854L326.012 313.566L326.022 318.276Z" fill="#E6E6E6"/>
<path d="M326.022 333.774L461.738 333.074L461.718 328.364L326.012 329.064L326.022 333.774Z" fill="#E6E6E6"/>
<path d="M379.692 343.891L325.996 344.187L326.016 348.898L379.712 348.601L379.692 343.891Z" fill="#E6E6E6"/>
<path d="M215.815 35H304.021C305.055 35 306.078 35.2299 307.032 35.6765C307.987 36.1232 308.854 36.7779 309.585 37.6032C310.315 38.4285 310.895 39.4083 311.29 40.4866C311.686 41.5649 311.889 42.7206 311.889 43.8878V92.6706C311.889 95.0278 311.06 97.2884 309.585 98.9552C308.109 100.622 306.108 101.558 304.021 101.558H229.171C227.084 101.558 225.083 100.622 223.607 98.9552C222.132 97.2884 221.303 95.0278 221.303 92.6706V41.1548L215.815 35Z" fill="#F5F5F5"/>
<path d="M326.631 123.722V141.231C326.631 142.41 327.045 143.54 327.783 144.373C328.521 145.207 329.521 145.675 330.565 145.675H417.168C418.211 145.675 419.211 145.207 419.949 144.373C420.687 143.54 421.101 142.41 421.101 141.231V131.666L431.044 119.645L330.575 119.278C330.057 119.277 329.544 119.391 329.066 119.613C328.588 119.836 328.153 120.163 327.787 120.576C327.42 120.989 327.13 121.479 326.931 122.019C326.733 122.559 326.631 123.138 326.631 123.722Z" fill="#F0F0F0"/>
<path d="M268.252 88.8933V120.145C268.254 121.49 268.02 122.821 267.566 124.064C267.111 125.307 266.444 126.436 265.603 127.387C264.762 128.339 263.763 129.093 262.663 129.608C261.564 130.123 260.385 130.388 259.195 130.388H159.964C158.774 130.388 157.595 130.123 156.496 129.608C155.396 129.093 154.397 128.339 153.556 127.387C152.715 126.436 152.048 125.307 151.593 124.064C151.139 122.821 150.905 121.49 150.907 120.145V93.7482L138.584 79.0834L259.165 78.6612C260.357 78.6568 261.538 78.9182 262.64 79.4305C263.743 79.9427 264.745 80.6957 265.589 81.6463C266.433 82.5969 267.103 83.7263 267.56 84.9699C268.017 86.2135 268.252 87.5467 268.252 88.8933V88.8933Z" fill="#E0E0E0"/>
<path d="M165.561 97.5923L255.566 97.1257L255.556 94.0039L165.551 94.4705L165.561 97.5923Z" fill="#F0F0F0"/>
<path d="M165.561 107.879L255.566 107.402L255.556 104.28L165.551 104.746L165.561 107.879Z" fill="#F0F0F0"/>
<path d="M201.148 114.586L165.537 114.782L165.551 117.904L201.161 117.707L201.148 114.586Z" fill="#F0F0F0"/>
<path d="M122.053 192.025V239.153C122.053 241.18 122.406 243.188 123.094 245.061C123.781 246.934 124.788 248.635 126.057 250.068C127.327 251.502 128.834 252.638 130.492 253.413C132.151 254.188 133.928 254.586 135.723 254.584H285.277C287.071 254.586 288.849 254.188 290.507 253.413C292.166 252.638 293.673 251.502 294.942 250.068C296.212 248.635 297.219 246.934 297.906 245.061C298.593 243.188 298.947 241.18 298.947 239.153V199.336L317.563 177.238L135.762 176.561C133.962 176.555 132.179 176.951 130.514 177.725C128.85 178.5 127.337 179.639 126.064 181.076C124.79 182.513 123.78 184.22 123.091 186.099C122.403 187.978 122.05 189.992 122.053 192.025V192.025Z" fill="#F0F0F0"/>
<path d="M276.898 205.135L141.182 204.435L141.201 199.725L276.908 200.425L276.898 205.135Z" fill="#E6E6E6"/>
<path d="M276.898 220.644L141.182 219.933L141.201 215.223L276.908 215.934L276.898 220.644Z" fill="#E6E6E6"/>
<path d="M223.204 230.73L223.184 235.44L276.88 235.737L276.9 231.026L223.204 230.73Z" fill="#E6E6E6"/>
<path d="M415.653 80.9864C419.769 70.6512 415.688 58.504 406.539 53.8549C397.39 49.2057 386.638 53.8151 382.522 64.1503C378.407 74.4855 382.487 86.6327 391.636 91.2818C400.785 95.9309 411.538 91.3215 415.653 80.9864Z" fill="#F5F5F5"/>
<path d="M392.817 67.3962C393.495 67.3296 394.125 68.185 394.203 69.3071C394.282 70.4292 393.8 71.3957 393.112 71.4624C392.423 71.529 391.794 70.6625 391.715 69.5404C391.637 68.4183 392.128 67.4518 392.817 67.3962Z" fill="#E0E0E0"/>
<path d="M394.41 62.1965C393.316 62.3493 392.234 62.5982 391.175 62.9409C390.171 63.4589 389.204 64.0644 388.283 64.7517C388.951 63.6696 389.896 62.8446 390.992 62.3878C392.087 61.9309 393.28 61.8642 394.41 62.1965Z" fill="#E0E0E0"/>
<path d="M404.363 67.1294C403.665 67.1294 403.075 67.9737 403.035 69.1069C402.996 70.2401 403.517 71.1622 404.215 71.1956C404.914 71.2289 405.494 70.3401 405.533 69.218C405.573 68.0959 405.051 67.1516 404.363 67.1294Z" fill="#E0E0E0"/>
<path d="M402.572 62.0077C403.684 61.6188 404.874 61.6232 405.983 62.0204C407.092 62.4176 408.068 63.1884 408.778 64.2296C407.837 63.579 406.85 63.0179 405.827 62.5521C404.756 62.2791 403.668 62.0971 402.572 62.0077V62.0077Z" fill="#E0E0E0"/>
<path d="M408.042 72.3511C408.049 72.7266 408.006 73.1012 407.914 73.462C407.682 74.4492 407.31 75.3872 406.812 76.2395C406.1 77.5221 405.159 78.6231 404.049 79.4724C402.693 80.5569 401.093 81.1847 399.434 81.2831C397.775 81.3814 396.125 80.9462 394.677 80.0279C393.491 79.3094 392.45 78.3222 391.618 77.1283C391.062 76.3315 390.624 75.4386 390.32 74.4841C390.183 74.1335 390.106 73.7564 390.094 73.3732C390.566 74.6086 391.177 75.7699 391.913 76.8283C392.728 77.9351 393.731 78.8456 394.864 79.5057C396.239 80.3472 397.792 80.7437 399.354 80.6516C400.916 80.5595 402.425 79.9823 403.715 78.9836C404.791 78.1944 405.717 77.1709 406.439 75.9729C407.107 74.847 407.645 73.6301 408.042 72.3511V72.3511Z" fill="#E0E0E0"/>
<path d="M149.49 303.211H152.096L157.84 294.568V288.891C157.84 288.891 161.901 288.624 161.429 296.057C160.957 303.489 161.429 301.612 161.429 301.612C161.429 301.612 170.054 301.612 170.772 302.456C171.293 303.045 171.529 312.31 171.618 317.332C171.661 318.566 171.333 319.781 170.686 320.778C170.039 321.775 169.113 322.494 168.058 322.82C167.735 322.906 167.406 322.951 167.074 322.953C165.029 322.898 154.063 320.987 154.063 320.987H149.49V303.211Z" fill="#F0F0F0"/>
<path d="M141.967 301.623L143.58 321.054H148.084V302.012L141.967 301.623Z" fill="#F0F0F0"/>
<path d="M511.057 134.255C510.437 133.504 509.582 133.057 508.674 133.01C507.766 132.962 506.878 133.317 506.199 133.999C505.524 134.609 504.976 135.379 504.594 136.254C504.212 137.13 504.004 138.089 503.986 139.065C503.826 138.088 503.479 137.162 502.97 136.352C502.46 135.543 501.8 134.868 501.036 134.377C500.276 133.798 499.347 133.577 498.446 133.759C497.544 133.942 496.741 134.514 496.207 135.354C495.63 136.508 495.455 137.863 495.715 139.154C495.886 140.457 496.369 141.683 497.112 142.698C499.836 145.964 501.242 146.486 504.616 148.697C507.684 146.009 508.677 145.364 510.979 141.665C511.599 140.548 511.939 139.261 511.962 137.943C512.072 136.63 511.75 135.317 511.057 134.255V134.255Z" fill="#F0F0F0"/>
<path d="M349.004 434.006L246.646 433.461C243.719 433.448 240.822 432.784 238.122 431.506C235.422 430.228 232.972 428.362 230.91 426.013C228.849 423.665 227.218 420.881 226.109 417.821C225 414.76 224.436 411.483 224.449 408.176L225.541 118.289C225.575 111.615 227.952 105.228 232.15 100.531C236.349 95.8335 242.025 93.2104 247.934 93.237L350.292 93.7703C356.204 93.8026 361.863 96.4853 366.025 101.229C370.188 105.972 372.512 112.388 372.489 119.067L371.407 408.92C371.378 415.602 369.003 421.997 364.802 426.701C360.601 431.405 354.919 434.032 349.004 434.006Z" fill="#263238"/>
<path d="M350.144 103.747L330.298 103.647C329.65 103.659 329.011 103.815 328.417 104.106C327.823 104.397 327.286 104.818 326.836 105.345C326.387 105.871 326.034 106.493 325.797 107.174C325.561 107.855 325.446 108.582 325.459 109.313V113.379C325.472 114.111 325.357 114.838 325.121 115.519C324.884 116.2 324.531 116.821 324.082 117.348C323.632 117.874 323.095 118.295 322.501 118.586C321.907 118.878 321.268 119.034 320.621 119.045L281.912 118.845C281.263 118.828 280.625 118.666 280.032 118.369C279.439 118.071 278.904 117.644 278.458 117.113C278.012 116.581 277.664 115.955 277.433 115.27C277.202 114.585 277.093 113.856 277.113 113.124V109.058C277.132 108.325 277.023 107.596 276.792 106.911C276.561 106.227 276.213 105.6 275.767 105.069C275.321 104.537 274.786 104.11 274.193 103.813C273.601 103.515 272.962 103.353 272.313 103.336H265.331L247.992 103.236C245.942 103.226 243.909 103.672 242.011 104.549C240.113 105.426 238.386 106.717 236.929 108.348C235.473 109.979 234.315 111.918 233.521 114.055C232.728 116.192 232.315 118.484 232.306 120.8L231.244 403.743C231.229 408.421 232.857 412.915 235.773 416.238C238.688 419.56 242.651 421.44 246.793 421.463L348.944 421.996C350.995 422.007 353.027 421.56 354.926 420.683C356.824 419.806 358.551 418.515 360.007 416.884C361.464 415.253 362.622 413.314 363.415 411.177C364.208 409.041 364.621 406.749 364.63 404.432L365.692 121.489C365.703 119.171 365.309 116.873 364.533 114.727C363.757 112.581 362.615 110.628 361.171 108.98C359.727 107.333 358.01 106.023 356.118 105.125C354.226 104.227 352.196 103.759 350.144 103.747Z" fill="white"/>
<path d="M293.999 386.268C293.999 386.747 293.873 387.215 293.637 387.614C293.402 388.012 293.067 388.322 292.675 388.506C292.284 388.689 291.852 388.737 291.437 388.644C291.021 388.55 290.639 388.319 290.339 387.981C290.039 387.642 289.835 387.21 289.752 386.741C289.669 386.271 289.712 385.784 289.874 385.341C290.036 384.899 290.311 384.52 290.664 384.254C291.016 383.988 291.431 383.846 291.855 383.846C292.423 383.849 292.966 384.105 293.368 384.559C293.769 385.012 293.996 385.627 293.999 386.268V386.268Z" fill="#455A64"/>
<path d="M302.141 386.268C302.141 386.747 302.016 387.215 301.78 387.614C301.544 388.012 301.21 388.322 300.818 388.506C300.426 388.689 299.995 388.737 299.579 388.644C299.163 388.55 298.781 388.319 298.481 387.981C298.182 387.642 297.977 387.21 297.895 386.741C297.812 386.271 297.854 385.784 298.017 385.341C298.179 384.899 298.454 384.52 298.806 384.254C299.159 383.988 299.573 383.846 299.997 383.846C300.565 383.849 301.109 384.105 301.511 384.559C301.912 385.012 302.139 385.627 302.141 386.268V386.268Z" fill="#455A64"/>
<path d="M310.286 386.268C310.286 386.747 310.16 387.215 309.925 387.614C309.689 388.012 309.354 388.322 308.962 388.506C308.571 388.689 308.14 388.737 307.724 388.644C307.308 388.55 306.926 388.319 306.626 387.981C306.326 387.642 306.122 387.21 306.039 386.741C305.957 386.271 305.999 385.784 306.161 385.341C306.324 384.899 306.598 384.52 306.951 384.254C307.303 383.988 307.718 383.846 308.142 383.846C308.71 383.849 309.254 384.105 309.655 384.559C310.057 385.012 310.283 385.627 310.286 386.268V386.268Z" fill="#455A64"/>
<path d="M251.337 182.682C251.337 182.682 251.337 182.482 251.337 182.071C251.412 180.459 251.916 178.91 252.782 177.627C253.5 176.523 254.45 175.637 255.546 175.05C256.944 174.348 258.477 174.061 260.001 174.216H278.608L357.284 174.394H357.864L357.461 174.872L347.381 186.848L347.45 186.659V206.49C347.52 207.812 347.434 209.138 347.194 210.434C346.892 211.732 346.323 212.932 345.532 213.934C344.757 214.933 343.787 215.717 342.7 216.222C341.617 216.703 340.459 216.926 339.297 216.878H307.197L264.21 216.778H259.686C258.238 216.903 256.786 216.609 255.467 215.922C254.268 215.267 253.243 214.266 252.497 213.019C251.751 211.772 251.31 210.325 251.219 208.823C251.219 203.268 251.219 198.591 251.219 194.714C251.219 190.837 251.219 187.859 251.268 185.826C251.268 184.815 251.268 184.049 251.268 183.504C251.268 182.96 251.268 182.715 251.268 182.715C251.268 182.715 251.268 182.982 251.268 183.504C251.268 184.026 251.268 184.815 251.268 185.826C251.268 187.881 251.268 190.881 251.268 194.714C251.268 198.547 251.268 203.324 251.337 208.801C251.431 210.242 251.861 211.628 252.583 212.82C253.305 214.013 254.293 214.968 255.448 215.589C256.721 216.247 258.124 216.522 259.519 216.389H264.21L307.246 216.333H332.659H339.326C340.421 216.384 341.513 216.176 342.532 215.722C343.55 215.249 344.458 214.519 345.188 213.589C345.921 212.654 346.447 211.534 346.722 210.323C346.954 209.075 347.037 207.797 346.968 206.524V186.559L347.037 186.482L357.127 174.505L357.314 174.983L278.637 174.605L265.42 174.528H260.021C258.531 174.362 257.029 174.626 255.654 175.294C254.575 175.857 253.636 176.712 252.92 177.783C252.39 178.564 251.984 179.444 251.72 180.382C251.53 181.134 251.401 181.904 251.337 182.682V182.682Z" fill="#455A64"/>
<path d="M335.236 189.792L261.703 189.403L261.713 186.848L335.236 187.237V189.792Z" fill="#455A64"/>
<path d="M335.236 198.191L261.703 197.802L261.713 195.247L335.236 195.635V198.191Z" fill="#455A64"/>
<path d="M306.136 203.653L306.125 206.208L335.215 206.369L335.226 203.813L306.136 203.653Z" fill="#455A64"/>
<path d="M351.305 238.942V264.494C351.305 266.711 350.526 268.837 349.139 270.405C347.753 271.974 345.871 272.857 343.909 272.86H262.873C260.908 272.86 259.025 271.978 257.636 270.409C256.247 268.84 255.467 266.713 255.467 264.494V242.908L245.387 230.931L343.87 230.587C344.844 230.581 345.81 230.793 346.712 231.21C347.614 231.627 348.434 232.242 349.125 233.018C349.816 233.795 350.364 234.718 350.738 235.734C351.112 236.751 351.305 237.841 351.305 238.942V238.942Z" fill="#92E3A9"/>
<path d="M267.416 246.052L340.949 245.663L340.939 243.107L267.406 243.496L267.416 246.052Z" fill="white"/>
<path d="M267.416 254.451L340.949 254.062L340.939 251.518L267.406 251.895L267.416 254.451Z" fill="white"/>
<path d="M296.483 259.928L267.393 260.089L267.404 262.644L296.494 262.483L296.483 259.928Z" fill="white"/>
<path d="M307.198 141.142C307.911 140.791 308.516 140.209 308.936 139.469C309.356 138.73 309.572 137.866 309.558 136.987C309.584 136.417 309.507 135.847 309.332 135.311C309.156 134.775 308.886 134.285 308.538 133.871C308.19 133.457 307.771 133.127 307.306 132.902C306.842 132.677 306.341 132.561 305.836 132.561C305.33 132.561 304.83 132.677 304.365 132.902C303.901 133.127 303.481 133.457 303.133 133.871C302.785 134.285 302.515 134.775 302.34 135.311C302.164 135.847 302.087 136.417 302.113 136.987C302.094 137.873 302.309 138.745 302.731 139.491C303.154 140.237 303.764 140.824 304.483 141.176C298.75 142.153 299.006 149.197 299.006 149.197L312.567 149.264C312.567 149.264 312.882 142.12 307.198 141.142Z" fill="#92E3A9"/>
<path opacity="0.5" d="M307.198 141.142C307.911 140.791 308.516 140.209 308.936 139.469C309.356 138.73 309.572 137.866 309.558 136.987C309.584 136.417 309.507 135.847 309.332 135.311C309.156 134.775 308.886 134.285 308.538 133.871C308.19 133.457 307.771 133.127 307.306 132.902C306.842 132.677 306.341 132.561 305.836 132.561C305.33 132.561 304.83 132.677 304.365 132.902C303.901 133.127 303.481 133.457 303.133 133.871C302.785 134.285 302.515 134.775 302.34 135.311C302.164 135.847 302.087 136.417 302.113 136.987C302.094 137.873 302.309 138.745 302.731 139.491C303.154 140.237 303.764 140.824 304.483 141.176C298.75 142.153 299.006 149.197 299.006 149.197L312.567 149.264C312.567 149.264 312.882 142.12 307.198 141.142Z" fill="white"/>
<path d="M299.752 141.143C300.463 140.786 301.065 140.203 301.486 139.465C301.907 138.727 302.128 137.866 302.123 136.988C302.16 136.409 302.091 135.828 301.921 135.281C301.75 134.733 301.482 134.232 301.132 133.807C300.782 133.382 300.359 133.043 299.888 132.811C299.417 132.58 298.909 132.46 298.395 132.46C297.882 132.46 297.374 132.58 296.903 132.811C296.432 133.043 296.008 133.382 295.659 133.807C295.309 134.232 295.04 134.733 294.87 135.281C294.7 135.828 294.631 136.409 294.668 136.988C294.649 137.873 294.864 138.745 295.286 139.491C295.708 140.238 296.319 140.824 297.038 141.176C291.305 142.154 291.56 149.197 291.56 149.197L305.122 149.264C305.122 149.264 305.437 142.12 299.752 141.143Z" fill="#92E3A9"/>
<path d="M320.489 152.375L284.033 152.188L284.013 157.299L320.469 157.486L320.489 152.375Z" fill="#92E3A9"/>
<path opacity="0.3" d="M320.489 152.375L284.033 152.188L284.013 157.299L320.469 157.486L320.489 152.375Z" fill="white"/>
<path d="M253.039 297.123C253.022 296.923 253.022 296.722 253.039 296.523C253.098 295.923 253.269 295.344 253.541 294.823C253.991 293.961 254.683 293.292 255.507 292.923C256.647 292.572 257.833 292.455 259.009 292.579H281.559L357.492 292.757H358.072L357.639 293.212L347.706 305.255L347.775 305.055V313.11C347.775 313.71 347.775 314.221 347.775 314.887C347.734 315.824 347.447 316.725 346.949 317.476C346.451 318.226 345.766 318.791 344.982 319.098C344.466 319.296 343.923 319.386 343.379 319.365H332.787H309.863L271.095 319.276H257.828C257.259 319.31 256.689 319.273 256.127 319.165C255.335 318.97 254.613 318.513 254.052 317.852C253.491 317.191 253.118 316.356 252.98 315.454C252.922 314.905 252.902 314.351 252.921 313.799C252.921 311.677 252.921 309.744 252.921 307.999C252.921 304.522 252.921 301.822 252.97 299.956C252.97 299.056 252.97 298.367 252.97 297.867C252.97 297.367 252.97 297.156 252.97 297.156C252.97 297.156 252.97 297.401 252.97 297.867C252.97 298.334 252.97 299.056 252.97 299.956C252.97 301.822 252.97 304.522 253.019 307.999C253.019 309.744 253.019 311.677 253.019 313.799C253.003 314.333 253.026 314.868 253.088 315.398C253.218 316.242 253.568 317.022 254.094 317.638C254.62 318.254 255.297 318.677 256.039 318.854C256.582 318.946 257.132 318.975 257.681 318.942H263.228H271.095L309.902 318.876H343.409C343.892 318.896 344.376 318.817 344.835 318.642C345.757 318.277 346.513 317.514 346.939 316.521C347.15 316.027 347.27 315.49 347.293 314.943C347.293 314.387 347.293 313.776 347.293 313.199V305.033L347.362 304.955L357.315 292.935L357.492 293.412L281.569 293.046L259.018 292.879C257.865 292.736 256.698 292.833 255.576 293.168C254.94 293.452 254.38 293.92 253.952 294.524C253.524 295.128 253.243 295.848 253.137 296.612C253.112 296.784 253.08 296.955 253.039 297.123V297.123Z" fill="#455A64"/>
<path d="M338.531 303.856L264.998 303.478L265.008 300.923L338.541 301.312L338.531 303.856Z" fill="#455A64"/>
<path d="M308.706 309.354L308.695 311.91L338.533 312.074L338.544 309.519L308.706 309.354Z" fill="#455A64"/>
<path d="M348.718 342.696V360.194C348.718 361.372 348.304 362.503 347.566 363.336C346.828 364.169 345.827 364.638 344.784 364.638H258.181C257.138 364.638 256.137 364.169 255.4 363.336C254.662 362.503 254.247 361.372 254.247 360.194V350.628L244.305 338.607L344.784 338.252C345.827 338.252 346.828 338.72 347.566 339.554C348.304 340.387 348.718 341.517 348.718 342.696Z" fill="#92E3A9"/>
<path d="M263.236 349.428L336.769 349.05L336.759 346.495L263.227 346.883L263.236 349.428Z" fill="white"/>
<path d="M263.236 357.649L336.769 357.26L336.759 354.716L263.227 355.094L263.236 357.649Z" fill="white"/>
<path d="M467.245 132.932C473.616 132.932 478.781 127.098 478.781 119.9C478.781 112.703 473.616 106.869 467.245 106.869C460.874 106.869 455.709 112.703 455.709 119.9C455.709 127.098 460.874 132.932 467.245 132.932Z" fill="#92E3A9"/>
<path opacity="0.5" d="M467.245 132.932C473.616 132.932 478.781 127.098 478.781 119.9C478.781 112.703 473.616 106.869 467.245 106.869C460.874 106.869 455.709 112.703 455.709 119.9C455.709 127.098 460.874 132.932 467.245 132.932Z" fill="white"/>
<path d="M463.42 116.168C463.853 116.168 464.247 116.69 464.286 117.401C464.325 118.112 464.001 118.723 463.558 118.745C463.116 118.768 462.732 118.223 462.693 117.512C462.653 116.801 462.978 116.19 463.42 116.168Z" fill="#263238"/>
<path d="M464.491 112.891C464.491 113.079 463.507 113.024 462.524 113.446C461.541 113.868 460.744 114.557 460.626 114.424C460.508 114.29 461.108 113.313 462.327 112.824C463.547 112.335 464.54 112.724 464.491 112.891Z" fill="#263238"/>
<path d="M472.851 118.201C472.723 118.312 472.104 117.556 471.11 117.445C470.117 117.334 469.37 117.901 469.271 117.768C469.173 117.634 469.35 117.445 469.674 117.19C470.123 116.872 470.652 116.731 471.179 116.79C471.704 116.854 472.194 117.121 472.566 117.545C472.841 117.879 472.91 118.145 472.851 118.201Z" fill="#263238"/>
<path d="M473.845 116.023C473.756 116.178 472.861 115.634 471.573 115.59C470.284 115.545 469.35 115.99 469.271 115.812C469.568 115.467 469.934 115.207 470.338 115.054C470.741 114.901 471.172 114.86 471.592 114.934C473.028 114.99 473.943 115.901 473.845 116.023Z" fill="#263238"/>
<path d="M473.027 119.645C473.033 120.546 472.777 121.424 472.3 122.145C471.797 123.095 471.091 123.887 470.246 124.449C469.401 125.01 468.445 125.322 467.466 125.356C466.486 125.39 465.515 125.146 464.641 124.645C463.767 124.144 463.019 123.402 462.465 122.489C461.941 121.808 461.64 120.946 461.609 120.045C461.948 120.821 462.342 121.564 462.79 122.267C463.338 123.059 464.044 123.695 464.85 124.122C465.656 124.548 466.54 124.754 467.43 124.723C468.32 124.692 469.191 124.424 469.972 123.941C470.753 123.458 471.422 122.774 471.926 121.945C472.34 121.208 472.708 120.44 473.027 119.645V119.645Z" fill="#263238"/>
<path d="M144.446 350.417C144.348 354.04 143.3 357.549 141.437 360.499C139.573 363.45 136.977 365.711 133.976 366.995C130.976 368.279 127.705 368.53 124.579 367.715C121.452 366.9 118.61 365.056 116.411 362.417C114.211 359.777 112.754 356.46 112.224 352.885C111.693 349.31 112.112 345.638 113.429 342.332C114.745 339.026 116.9 336.236 119.62 334.313C122.34 332.391 125.504 331.422 128.711 331.53C130.842 331.602 132.94 332.148 134.885 333.136C136.829 334.124 138.582 335.536 140.043 337.29C141.505 339.044 142.646 341.106 143.401 343.358C144.157 345.611 144.512 348.009 144.446 350.417V350.417Z" fill="#92E3A9"/>
<path opacity="0.5" d="M144.446 350.417C144.348 354.04 143.3 357.549 141.437 360.499C139.573 363.45 136.977 365.711 133.976 366.995C130.976 368.279 127.705 368.53 124.579 367.715C121.452 366.9 118.61 365.056 116.411 362.417C114.211 359.777 112.754 356.46 112.224 352.885C111.693 349.31 112.112 345.638 113.429 342.332C114.745 339.026 116.9 336.236 119.62 334.313C122.34 332.391 125.504 331.422 128.711 331.53C130.842 331.602 132.94 332.148 134.885 333.136C136.829 334.124 138.582 335.536 140.043 337.29C141.505 339.044 142.646 341.106 143.401 343.358C144.157 345.611 144.512 348.009 144.446 350.417V350.417Z" fill="white"/>
<path d="M125.032 344.817C124.745 344.395 124.323 344.115 123.857 344.038C123.39 343.962 122.916 344.094 122.534 344.406C122.165 344.688 121.853 345.055 121.621 345.485C121.388 345.914 121.24 346.395 121.187 346.895C121.145 346.385 121.008 345.892 120.784 345.447C120.56 345.003 120.255 344.618 119.889 344.317C119.52 343.984 119.052 343.823 118.582 343.868C118.111 343.914 117.674 344.162 117.361 344.562C117.018 345.123 116.87 345.807 116.948 346.484C116.981 347.162 117.175 347.818 117.509 348.383C118.507 349.795 119.732 350.982 121.118 351.883C122.484 351.067 123.697 349.957 124.688 348.617C125.049 348.075 125.277 347.435 125.347 346.761C125.461 346.092 125.349 345.398 125.032 344.817V344.817Z" fill="#92E3A9"/>
<path d="M139.312 345.273C139.025 344.849 138.603 344.57 138.136 344.495C137.668 344.421 137.194 344.556 136.814 344.873C136.442 345.151 136.129 345.518 135.896 345.948C135.663 346.378 135.516 346.86 135.467 347.361C135.425 346.852 135.288 346.359 135.064 345.914C134.841 345.47 134.535 345.084 134.169 344.784C133.801 344.448 133.333 344.285 132.861 344.331C132.39 344.376 131.953 344.626 131.641 345.028C131.296 345.588 131.149 346.274 131.228 346.95C131.256 347.63 131.45 348.287 131.789 348.85C132.787 350.261 134.012 351.448 135.398 352.35C136.76 351.526 137.972 350.418 138.968 349.083C139.33 348.538 139.557 347.894 139.627 347.217C139.739 346.547 139.627 345.854 139.312 345.273V345.273Z" fill="#92E3A9"/>
<path d="M133.491 354.371C133.331 355.888 132.669 357.28 131.638 358.267C130.606 359.255 129.282 359.765 127.932 359.694C126.581 359.624 125.304 358.979 124.358 357.888C123.411 356.798 122.866 355.343 122.83 353.816L133.491 354.371Z" fill="white"/>
<path d="M431.988 467.547L430.021 455.815L411.385 459.548L414.089 477.135L415.26 476.991C420.462 476.291 441.577 472.647 444.822 470.725C448.49 468.581 431.988 467.547 431.988 467.547Z" fill="#92E3A9"/>
<path d="M445.167 469.558C445.167 469.758 438.283 471.369 429.668 473.158C421.053 474.947 414.09 476.235 414.061 476.035C414.031 475.835 420.945 474.236 429.55 472.447C438.155 470.658 445.108 469.37 445.167 469.558Z" fill="#263238"/>
<path d="M432.707 469.858C432.539 469.791 432.569 469.147 432.874 468.458C433.179 467.769 433.602 467.347 433.749 467.447C433.897 467.547 433.749 468.125 433.444 468.769C433.139 469.414 432.874 469.936 432.707 469.858Z" fill="#263238"/>
<path d="M434.025 470.402C433.848 470.402 433.818 469.658 434.025 468.847C434.231 468.036 434.684 467.502 434.841 467.591C434.999 467.68 434.841 468.336 434.635 469.08C434.428 469.824 434.202 470.435 434.025 470.402Z" fill="#263238"/>
<path d="M419.597 474.791C419.528 474.869 419.204 474.613 418.712 474.18C418.103 473.607 417.444 473.104 416.745 472.68C416.112 472.288 415.402 472.082 414.68 472.08C414.1 472.08 413.746 472.291 413.697 472.191C413.647 472.091 413.952 471.758 414.621 471.569C415.486 471.374 416.383 471.528 417.158 472.002C417.906 472.456 418.573 473.063 419.125 473.791C419.479 474.302 419.686 474.724 419.597 474.791Z" fill="#263238"/>
<path d="M432.382 467.636C432.5 467.78 432.244 468.258 431.752 468.591C431.26 468.925 430.769 468.947 430.71 468.758C430.651 468.569 430.995 468.258 431.428 467.958C431.86 467.658 432.283 467.503 432.382 467.636Z" fill="#263238"/>
<path d="M431.93 466.58C431.93 466.78 431.507 467.047 430.878 467.191C430.249 467.336 429.727 467.28 429.708 467.08C429.688 466.88 430.16 466.613 430.75 466.48C431.34 466.347 431.881 466.391 431.93 466.58Z" fill="#263238"/>
<path d="M454.412 343.507C448.639 330.342 417.699 279.415 417.699 279.415L401.187 281.37V281.259L382.708 283.547L372.52 284.814L409.409 466.825L434.92 466.302L428.783 432.629C433.002 420.686 457.608 350.795 454.412 343.507ZM428.095 351.361L418.978 379.013L408.652 322.354L428.095 351.361Z" fill="#263238"/>
<path d="M407.628 195.348C407.392 193.448 408.297 185.549 408.297 185.549C408.297 185.549 414.719 185.016 415.319 177.861C415.919 170.706 415.987 154.142 415.987 154.142L404.511 147.276L391.362 157.786L387.959 167.784L392.444 180.205L392.306 184.316V193.726L407.628 195.348Z" fill="#FFBE9D"/>
<path d="M415.132 166.14C415.128 166.323 415.076 166.5 414.983 166.65C414.89 166.799 414.759 166.913 414.608 166.979C414.457 167.044 414.292 167.057 414.134 167.016C413.976 166.975 413.833 166.883 413.722 166.749C413.611 166.616 413.538 166.449 413.511 166.269C413.485 166.088 413.506 165.903 413.573 165.737C413.64 165.57 413.749 165.43 413.886 165.334C414.024 165.237 414.184 165.189 414.346 165.196C414.452 165.199 414.557 165.226 414.655 165.275C414.753 165.324 414.84 165.394 414.914 165.482C414.987 165.57 415.044 165.674 415.081 165.786C415.119 165.899 415.136 166.02 415.132 166.14V166.14Z" fill="#263238"/>
<path d="M415.191 165.174C415.083 165.296 414.493 164.696 413.628 164.607C412.762 164.518 412.084 164.974 411.995 164.84C411.907 164.707 412.064 164.563 412.359 164.352C412.755 164.082 413.217 163.965 413.677 164.018C414.134 164.062 414.565 164.272 414.906 164.618C415.162 164.896 415.241 165.129 415.191 165.174Z" fill="#263238"/>
<path d="M404.845 165.018C404.975 165.126 405.074 165.275 405.13 165.446C405.185 165.617 405.194 165.803 405.156 165.981C405.118 166.158 405.034 166.318 404.915 166.442C404.796 166.565 404.648 166.646 404.488 166.674C404.329 166.702 404.166 166.676 404.019 166.599C403.873 166.522 403.75 166.398 403.666 166.242C403.582 166.086 403.541 165.906 403.548 165.723C403.554 165.541 403.609 165.365 403.704 165.218C403.768 165.12 403.847 165.038 403.939 164.975C404.03 164.912 404.132 164.87 404.238 164.851C404.344 164.833 404.452 164.838 404.556 164.866C404.66 164.895 404.759 164.947 404.845 165.018V165.018Z" fill="#263238"/>
<path d="M405.484 164.83C405.376 164.941 404.796 164.341 403.921 164.263C403.046 164.185 402.377 164.63 402.288 164.485C402.2 164.341 402.357 164.219 402.652 164.007C403.048 163.737 403.509 163.617 403.97 163.663C404.431 163.71 404.866 163.924 405.209 164.274C405.465 164.541 405.543 164.774 405.484 164.83Z" fill="#263238"/>
<path d="M408.406 173.295C408.877 173.176 409.36 173.124 409.842 173.139C410.068 173.139 410.285 173.139 410.344 172.928C410.373 172.652 410.336 172.371 410.235 172.117C410.068 171.462 409.891 170.773 409.695 170.051C409.184 168.29 408.789 166.489 408.514 164.663C408.734 165.147 408.905 165.658 409.026 166.185C409.301 167.14 409.665 168.462 410.009 169.94C410.186 170.662 410.363 171.362 410.521 172.017C410.645 172.348 410.666 172.716 410.58 173.062C410.544 173.148 410.491 173.223 410.424 173.282C410.357 173.34 410.279 173.378 410.196 173.395C410.069 173.416 409.94 173.416 409.813 173.395C409.342 173.424 408.87 173.391 408.406 173.295V173.295Z" fill="#263238"/>
<path d="M405.494 174.117C404.619 173.428 407.884 175.861 409.674 175.917C409.339 176.414 408.865 176.768 408.328 176.919C407.792 177.071 407.226 177.011 406.723 176.75C404.904 175.783 405.494 174.117 405.494 174.117Z" fill="white"/>
<path d="M408.297 185.549C405.284 185.298 402.397 184.08 399.977 182.039C399.977 182.039 401.727 187.371 408.11 187.305L408.297 185.549Z" fill="#EB996E"/>
<path d="M393.192 169.784C393.192 169.784 393.104 169.861 392.947 169.961C392.725 170.079 392.472 170.099 392.239 170.017C391.875 169.792 391.572 169.461 391.361 169.058C391.15 168.656 391.039 168.196 391.039 167.728C390.995 167.205 391.055 166.677 391.216 166.184C391.256 165.99 391.339 165.811 391.455 165.662C391.572 165.513 391.719 165.398 391.885 165.329C391.99 165.287 392.105 165.288 392.209 165.333C392.314 165.378 392.401 165.463 392.455 165.573C392.534 165.74 392.504 165.873 392.534 165.873C392.563 165.873 392.652 165.762 392.593 165.518C392.554 165.368 392.471 165.238 392.357 165.151C392.28 165.091 392.193 165.049 392.102 165.028C392.011 165.007 391.917 165.007 391.826 165.029C391.606 165.093 391.406 165.22 391.242 165.397C391.078 165.574 390.958 165.795 390.891 166.04C390.69 166.588 390.609 167.182 390.655 167.773C390.661 168.319 390.808 168.851 391.079 169.303C391.35 169.756 391.733 170.108 392.18 170.317C392.326 170.356 392.479 170.356 392.625 170.317C392.772 170.279 392.909 170.202 393.025 170.095C393.193 169.895 393.212 169.795 393.192 169.784Z" fill="#EB996E"/>
<path d="M417.63 155.33C417.284 155.461 416.923 155.54 416.558 155.564C417.754 154.855 418.737 153.76 419.381 152.419C419.852 151.493 420.1 150.444 420.1 149.375C420.1 148.307 419.852 147.258 419.381 146.331C418.873 145.435 418.091 144.782 417.185 144.495C416.278 144.208 415.309 144.308 414.464 144.776C414.789 144.012 414.858 143.14 414.657 142.322C414.457 141.505 414 140.798 413.372 140.332C412.719 139.895 411.988 139.629 411.232 139.554C410.477 139.479 409.715 139.597 409.005 139.899C407.589 140.515 406.263 141.369 405.072 142.432C404.982 141.857 404.773 141.315 404.459 140.851C404.146 140.387 403.739 140.015 403.272 139.766C402.333 139.273 401.281 139.122 400.262 139.332C398.783 139.619 397.417 140.412 396.349 141.604C395.281 142.796 394.564 144.33 394.293 145.998C393.829 145.46 393.25 145.067 392.612 144.855C391.973 144.643 391.298 144.62 390.65 144.789C390.002 144.957 389.403 145.311 388.911 145.817C388.419 146.323 388.051 146.963 387.841 147.676C387.846 147.727 387.846 147.779 387.841 147.831C387.252 148.12 386.757 148.609 386.425 149.231C386.146 149.762 385.973 150.355 385.921 150.97C385.868 151.585 385.936 152.205 386.12 152.786C386.497 153.928 387.186 154.905 388.087 155.575C388.433 155.849 388.738 156.183 388.992 156.563C389.187 156.896 389.305 157.278 389.336 157.674C389.248 160.074 388.166 162.34 387.635 164.696C386.907 167.962 388.51 172.417 389.435 175.617C390.359 178.816 390.684 180.061 392.483 180.316L392.759 171.717C390.792 173.539 388.166 167.273 389.887 164.774C391.608 162.274 393.437 163.129 393.752 164.707C393.874 165.313 394.028 165.91 394.214 166.496H396.181L395.965 164.618C395.965 164.618 395.562 156.275 399.092 155.73C400.014 155.509 400.975 155.709 401.767 156.286C402.905 156.803 404.137 156.998 405.357 156.852C406.616 156.852 408.307 155.23 408.307 153.819C409.028 154.769 409.94 155.508 410.967 155.974C411.995 156.44 413.106 156.619 414.208 156.497C414.777 156.429 415.336 156.276 415.87 156.041C416.535 156.249 417.24 156.23 417.896 155.986C418.571 155.738 419.162 155.261 419.587 154.619C419.902 154.119 419.961 153.742 419.902 153.708C419.254 154.424 418.48 154.976 417.63 155.33V155.33ZM388.323 155.064C387.522 154.434 386.911 153.542 386.573 152.508C386.413 152.007 386.351 151.473 386.39 150.942C386.429 150.411 386.569 149.896 386.799 149.431C387.006 148.985 387.306 148.604 387.674 148.32C387.34 150.842 388.795 153.397 389.179 156.03C388.942 155.672 388.668 155.348 388.363 155.064H388.323Z" fill="#92E3A9"/>
<path d="M451.441 165.762V180.082C451.441 181.641 451.99 183.136 452.965 184.238C453.941 185.34 455.264 185.959 456.644 185.959H478.604V194.147L482.538 186.315C483.704 186.219 484.794 185.629 485.589 184.662C486.385 183.696 486.827 182.424 486.826 181.105V165.762C486.825 164.985 486.687 164.215 486.421 163.498C486.154 162.781 485.765 162.131 485.275 161.586C484.784 161.04 484.203 160.61 483.565 160.32C482.926 160.03 482.243 159.886 481.555 159.896H456.644C455.266 159.896 453.944 160.514 452.969 161.613C451.993 162.713 451.444 164.205 451.441 165.762V165.762Z" fill="#92E3A9"/>
<path d="M463.391 173.683C463.391 174.162 463.266 174.63 463.03 175.029C462.794 175.427 462.46 175.737 462.068 175.921C461.676 176.104 461.245 176.152 460.829 176.059C460.413 175.965 460.031 175.734 459.731 175.396C459.432 175.057 459.227 174.625 459.145 174.156C459.062 173.686 459.104 173.199 459.267 172.756C459.429 172.314 459.704 171.936 460.056 171.669C460.409 171.403 460.823 171.261 461.247 171.261C461.816 171.261 462.361 171.516 462.763 171.971C463.165 172.425 463.391 173.041 463.391 173.683Z" fill="white"/>
<path d="M471.534 173.683C471.534 174.162 471.408 174.63 471.173 175.029C470.937 175.427 470.602 175.737 470.21 175.921C469.819 176.104 469.388 176.152 468.972 176.059C468.556 175.965 468.174 175.734 467.874 175.396C467.574 175.057 467.37 174.625 467.287 174.156C467.205 173.686 467.247 173.199 467.409 172.756C467.572 172.314 467.846 171.936 468.199 171.669C468.551 171.403 468.966 171.261 469.39 171.261C469.959 171.261 470.504 171.516 470.906 171.971C471.308 172.425 471.534 173.041 471.534 173.683Z" fill="white"/>
<path d="M479.677 173.683C479.677 174.162 479.551 174.63 479.315 175.029C479.08 175.427 478.745 175.737 478.353 175.921C477.961 176.104 477.53 176.152 477.114 176.059C476.698 175.965 476.316 175.734 476.017 175.396C475.717 175.057 475.513 174.625 475.43 174.156C475.347 173.686 475.39 173.199 475.552 172.756C475.714 172.314 475.989 171.936 476.342 171.669C476.694 171.403 477.109 171.261 477.533 171.261C478.101 171.261 478.647 171.516 479.049 171.971C479.451 172.425 479.677 173.041 479.677 173.683Z" fill="white"/>
<path d="M468.771 208.324C468.328 207.213 440.398 235.065 434.832 236.021L418.546 212.046C418.546 212.046 415.163 205.991 407.895 195.614C403.214 188.949 390.282 190.304 386.879 198.47C381.106 212.324 380.909 230.688 376.444 260.195L372.668 285.226C372.668 285.226 378.244 284.481 378.224 284.537L417.877 279.882L418.861 249.886C426.728 258.862 429.128 260.74 433.209 260.029C443.467 258.229 479.353 221.767 479.353 221.767C479.353 221.767 469.204 209.457 468.771 208.324Z" fill="#455A64"/>
<path d="M474.513 226.866C473.797 226.374 473.136 225.784 472.547 225.111C469.478 222.033 466.804 218.489 464.6 214.579C464.103 213.796 463.697 212.945 463.391 212.046C463.923 212.767 464.406 213.532 464.836 214.335C465.741 215.768 467.029 217.723 468.573 219.767C470.117 221.811 471.612 223.556 472.724 224.8C473.37 225.432 473.968 226.123 474.513 226.866V226.866Z" fill="#263238"/>
<path d="M433.248 245.519C433.417 242.298 433.918 239.11 434.743 236.021C434.587 239.243 434.085 242.433 433.248 245.519Z" fill="#263238"/>
<path d="M436.807 244.53C436.231 243.225 435.811 241.839 435.558 240.409C435.136 239.032 434.881 237.597 434.801 236.143C435.372 237.45 435.792 238.836 436.05 240.264C436.466 241.643 436.721 243.077 436.807 244.53Z" fill="#263238"/>
<path opacity="0.2" d="M397.805 218.411L418.447 262.495L418.91 249.418L397.805 218.411Z" fill="black"/>
<path d="M396.467 216.267C396.827 216.679 397.156 217.125 397.45 217.6L399.909 221.322C401.984 224.477 404.885 228.799 408.14 233.543L416.5 245.641L419.008 249.33C419.331 249.768 419.62 250.236 419.873 250.729C419.516 250.342 419.187 249.922 418.89 249.474C418.211 248.541 417.326 247.341 416.254 245.897C414.051 242.853 411.032 238.631 407.777 233.898C404.521 229.165 401.659 224.788 399.653 221.578C398.67 219.967 397.853 218.656 397.322 217.734C396.999 217.275 396.712 216.784 396.467 216.267V216.267Z" fill="#263238"/>
<path d="M397.116 230.043C396.948 229.613 396.826 229.162 396.752 228.699C396.556 227.821 396.3 226.566 395.995 225.022L396.3 225.188L392.238 227.666L391.963 227.832L391.874 227.488C391.727 226.888 391.569 226.255 391.402 225.611L390.694 222.733L391.058 222.9L387.055 225.444L386.81 225.599V225.288C386.577 223.918 386.439 222.528 386.396 221.133C386.752 222.471 387.015 223.838 387.183 225.222L386.898 225.066L390.832 222.411L391.107 222.222L391.196 222.578C391.422 223.5 391.668 224.466 391.914 225.455C392.081 226.099 392.238 226.733 392.386 227.333L392.022 227.166L396.123 224.755L396.369 224.6L396.418 224.911C396.674 226.455 396.88 227.732 396.998 228.621C397.09 229.088 397.13 229.566 397.116 230.043Z" fill="#263238"/>
<path d="M401.964 205.124C401.571 204.955 401.201 204.727 400.862 204.446C400.184 203.969 399.23 203.269 398.069 202.402L398.384 202.28C397.971 203.758 397.509 205.446 397.007 207.257L396.909 207.602L396.633 207.424L395.138 206.435L392.857 204.924L393.221 204.758L391.913 209.735L391.834 210.035L391.618 209.846C390.608 209.04 389.655 208.149 388.766 207.179C389.841 207.867 390.87 208.643 391.844 209.501L391.549 209.613C391.893 208.146 392.296 206.457 392.739 204.613L392.827 204.258L393.103 204.446L395.394 205.935L396.889 206.924L396.525 207.079L397.961 202.113L398.059 201.813L398.285 201.991C399.416 202.902 400.341 203.658 400.98 204.213C401.34 204.47 401.67 204.776 401.964 205.124V205.124Z" fill="#263238"/>
<path d="M416.451 213.689C416.105 213.421 415.791 213.103 415.516 212.745C414.946 212.112 414.14 211.19 413.176 210.056H413.51C412.822 211.401 412.035 212.923 411.199 214.578L411.042 214.878L410.806 214.634L409.537 213.311L407.57 211.278L407.963 211.201C407.137 212.878 406.38 214.4 405.721 215.722L405.584 216L405.406 215.767C404.58 214.721 403.823 213.607 403.145 212.434C404.061 213.369 404.916 214.379 405.702 215.456H405.387L407.521 210.867L407.678 210.545L407.914 210.79L409.881 212.823L411.14 214.156H410.756L413.136 209.712L413.284 209.445L413.471 209.679C414.454 210.79 415.162 211.812 415.674 212.5C415.98 212.854 416.242 213.254 416.451 213.689V213.689Z" fill="#E0E0E0"/>
<path d="M454.648 241.742C454.648 241.742 454.313 241.386 453.822 240.686C453.33 239.986 452.632 238.953 451.806 237.687H452.14L449.347 241.842L449.15 242.119L448.954 241.853L447.833 240.353L446.151 238.064H446.544L443.82 242.23L443.653 242.486L443.505 242.23C442.802 241.084 442.174 239.881 441.627 238.631C442.433 239.676 443.166 240.791 443.82 241.964H443.505C444.282 240.731 445.167 239.298 446.141 237.72L446.328 237.431L446.534 237.709L448.236 239.997L449.347 241.497H448.954L451.816 237.409L451.993 237.153L452.15 237.409C452.947 238.709 453.586 239.775 454.028 240.531C454.273 240.908 454.481 241.314 454.648 241.742V241.742Z" fill="#263238"/>
<path d="M430.996 239.497C430.642 239.269 430.312 238.997 430.012 238.686C429.383 238.131 428.488 237.32 427.416 236.331L427.74 236.242L425.872 240.997L425.754 241.319L425.498 241.108L424.092 239.997L421.958 238.22L422.341 238.098C421.692 239.875 421.102 241.43 420.581 242.886L420.473 243.186L420.276 242.964C419.346 242.05 418.481 241.054 417.689 239.986C418.695 240.792 419.645 241.684 420.532 242.653L420.227 242.73C420.709 241.308 421.269 239.675 421.879 237.898L421.997 237.553L422.253 237.764L424.397 239.52L425.793 240.631L425.41 240.753L427.317 235.998L427.435 235.709L427.642 235.909C428.684 236.953 429.54 237.809 430.13 238.42C430.72 239.031 431.025 239.453 430.996 239.497Z" fill="#E0E0E0"/>
<path d="M464.835 233.221C464.702 232.775 464.616 232.312 464.58 231.843C464.462 230.943 464.304 229.621 464.127 228.11L464.422 228.299L460.174 230.366L459.889 230.499L459.83 230.155C459.731 229.532 459.623 228.888 459.515 228.233C459.348 227.21 459.19 226.233 459.043 225.288L459.387 225.488L455.207 227.666L454.952 227.788V227.477C454.831 226.089 454.808 224.692 454.883 223.3C455.127 224.669 455.275 226.059 455.325 227.455L455.06 227.266L459.2 225.044L459.485 224.877L459.544 225.244C459.702 226.188 459.869 227.166 460.036 228.177C460.144 228.844 460.243 229.488 460.341 230.099L459.997 229.888L464.275 227.921L464.54 227.799V228.11C464.668 229.677 464.767 230.966 464.816 231.865C464.868 232.315 464.874 232.77 464.835 233.221V233.221Z" fill="#E0E0E0"/>
<path d="M417.69 221.377C417.368 221.665 417.018 221.911 416.647 222.111C415.959 222.555 414.956 223.222 413.697 223.922L413.756 223.544L416.972 227.288L417.188 227.543L416.923 227.732L415.448 228.743L413.186 230.299V229.854L416.431 233.52L416.628 233.754L416.372 233.876C415.265 234.494 414.118 235.014 412.94 235.431C413.987 234.689 415.082 234.036 416.215 233.476L416.166 233.831L412.841 230.254L412.605 230.01L412.881 229.821L415.143 228.254L416.618 227.243V227.677C415.467 226.299 414.395 224.999 413.461 223.866L413.264 223.633L413.52 223.499C414.769 222.811 415.802 222.244 416.52 221.877C416.888 221.653 417.282 221.484 417.69 221.377V221.377Z" fill="#263238"/>
<path d="M435.736 245.519C435.414 245.821 435.061 246.079 434.684 246.286C433.995 246.73 432.992 247.397 431.734 248.085L431.783 247.719L435.008 251.463L435.225 251.707L434.959 251.896L433.484 252.918L431.212 254.462L431.261 254.029L434.507 257.695L434.704 257.917L434.448 258.04C433.339 258.655 432.192 259.179 431.016 259.606C432.082 258.865 433.197 258.215 434.35 257.662L434.291 258.017L430.976 254.44L430.74 254.185L431.016 253.996L433.268 252.44L434.753 251.418L434.704 251.863L431.547 248.052L431.35 247.819L431.596 247.685C432.845 246.986 433.877 246.43 434.605 246.052C434.96 245.82 435.34 245.641 435.736 245.519V245.519Z" fill="#E0E0E0"/>
<path d="M399.929 245.197C399.764 244.762 399.642 244.307 399.565 243.841C399.368 242.964 399.113 241.708 398.808 240.175L399.113 240.331L395.012 242.83L394.736 243.008L394.658 242.664C394.5 242.053 394.343 241.42 394.185 240.775C393.94 239.786 393.694 238.82 393.468 237.898L393.831 238.064L389.839 240.609L389.593 240.764V240.453C389.367 239.085 389.229 237.7 389.18 236.309C389.538 237.642 389.801 239.006 389.966 240.386L389.681 240.231L393.615 237.576L393.89 237.398L393.979 237.742C394.205 238.664 394.451 239.631 394.707 240.62L395.169 242.508L394.805 242.331L398.906 239.92L399.152 239.775L399.211 240.075C399.467 241.62 399.663 242.897 399.791 243.786C399.886 244.248 399.933 244.722 399.929 245.197Z" fill="#E0E0E0"/>
<path d="M416.313 255.684C416.146 255.25 416.024 254.795 415.949 254.329C415.753 253.451 415.497 252.196 415.192 250.663L415.497 250.818L411.445 253.318L411.17 253.496L411.081 253.151C410.924 252.54 410.767 251.907 410.609 251.274C410.363 250.274 410.127 249.307 409.891 248.385L410.255 248.552L406.262 251.096L406.017 251.251V250.951C405.791 249.579 405.653 248.191 405.604 246.796C405.96 248.13 406.223 249.493 406.39 250.874L406.105 250.729L410.039 248.074L410.314 247.885L410.403 248.241C410.639 249.163 410.875 250.118 411.131 251.107L411.593 252.996L411.239 252.818L415.33 250.407L415.586 250.263L415.635 250.563C415.89 252.107 416.087 253.384 416.215 254.273C416.303 254.737 416.336 255.211 416.313 255.684V255.684Z" fill="#263238"/>
<path d="M392.266 278.771C392.098 278.34 391.976 277.889 391.903 277.426C391.706 276.549 391.45 275.293 391.145 273.76L391.45 273.916L387.398 276.415L387.123 276.582L387.034 276.238C386.877 275.638 386.72 275.004 386.562 274.36L385.854 271.483L386.208 271.649L382.225 274.238L381.979 274.393V274.082C381.753 272.71 381.615 271.322 381.566 269.927C381.922 271.265 382.185 272.632 382.353 274.016L382.068 273.86L386.002 271.205L386.277 271.016L386.366 271.371C386.602 272.294 386.838 273.26 387.093 274.249L387.556 276.126L387.202 275.96L391.293 273.549L391.548 273.393L391.598 273.705C391.853 275.249 392.05 276.526 392.178 277.415C392.265 277.86 392.295 278.316 392.266 278.771Z" fill="#E0E0E0"/>
<path d="M392.74 254.541C392.367 254.325 392.02 254.056 391.707 253.741C391.068 253.207 390.163 252.408 389.081 251.419L389.406 251.33L387.626 256.152L387.508 256.474L387.252 256.263C386.79 255.907 386.318 255.518 385.836 255.152L383.692 253.407L384.066 253.285L382.355 258.096L382.246 258.385L382.05 258.174C381.114 257.263 380.237 256.28 379.424 255.229C380.444 256.016 381.408 256.893 382.305 257.851L382 257.94C382.463 256.518 382.984 254.874 383.604 253.085L383.712 252.741L383.977 252.952L386.16 254.663L387.567 255.774L387.193 255.885L389.052 251.108L389.17 250.819L389.376 251.019C390.429 252.052 391.294 252.896 391.884 253.507C392.204 253.813 392.491 254.159 392.74 254.541V254.541Z" fill="#263238"/>
<path d="M401.316 255.196C401.021 255.522 400.69 255.806 400.333 256.04C399.674 256.54 398.71 257.24 397.53 258.073V257.695L400.982 261.173L401.208 261.417L400.952 261.617L399.546 262.728L397.382 264.45V264.017L400.913 267.439L401.119 267.65L400.883 267.794C399.815 268.496 398.7 269.105 397.549 269.616C398.55 268.791 399.601 268.048 400.696 267.394V267.75L397.156 264.417L396.91 264.184L397.176 263.972L399.329 262.239L400.736 261.128V261.573L397.353 258.029L397.146 257.807L397.382 257.651C398.582 256.862 399.575 256.218 400.283 255.785C400.605 255.541 400.951 255.343 401.316 255.196V255.196Z" fill="#263238"/>
<path d="M410.747 262.773C410.563 263.197 410.332 263.593 410.059 263.951C409.587 264.684 408.888 265.706 408.033 266.95L407.954 266.584L412.242 268.528L412.527 268.65L412.35 268.95L411.367 270.561L409.852 273.016L409.734 272.583L414.012 274.449L414.278 274.571L414.091 274.794C413.303 275.869 412.442 276.872 411.514 277.793C412.207 276.64 412.973 275.545 413.806 274.516L413.884 274.86L409.567 273.116L409.262 272.994L409.449 272.694C409.921 271.905 410.432 271.083 410.944 270.228C411.288 269.683 411.613 269.117 411.927 268.628L412.035 269.05L407.797 267.017L407.541 266.895L407.718 266.65C408.613 265.439 409.351 264.428 409.882 263.784C410.413 263.14 410.747 262.74 410.747 262.773Z" fill="#E0E0E0"/>
<path d="M405.396 280.881C405.396 280.881 405.396 281.003 405.504 281.247C405.612 281.492 405.671 281.881 405.789 282.358C406.025 283.325 406.379 284.758 406.772 286.613C407.166 288.469 407.667 290.735 408.012 293.435C408.246 294.907 408.071 296.424 407.51 297.779C406.888 299.28 406.035 300.645 404.992 301.812V301.623C407.569 315.443 411.178 334.808 415.181 356.227C419.066 377.336 422.537 396.389 425.016 410.22C426.245 417.131 427.218 422.73 427.858 426.607C428.182 428.54 428.418 430.051 428.566 431.051C428.674 431.568 428.727 432.098 428.723 432.629C428.723 432.629 428.645 432.095 428.467 431.073C428.29 430.051 428.005 428.529 427.661 426.629C426.943 422.73 425.92 417.153 424.662 410.276C422.105 396.444 418.594 377.38 414.709 356.327C410.775 334.885 407.215 315.51 404.678 301.689V301.578L404.747 301.501C406.832 299.134 408.238 296.146 407.697 293.457C407.382 290.78 406.9 288.491 406.536 286.636C406.173 284.78 405.858 283.381 405.642 282.37L405.406 281.259C405.389 281.134 405.386 281.007 405.396 280.881V280.881Z" fill="#455A64"/>
<path d="M384.686 283.548C384.686 283.548 384.843 283.792 384.991 284.303C385.201 285.022 385.326 285.769 385.364 286.525C385.527 289.063 384.849 291.579 383.463 293.585C382.076 295.59 380.08 296.943 377.861 297.379C377.212 297.516 376.552 297.561 375.894 297.513C375.648 297.518 375.405 297.469 375.176 297.368C375.176 297.257 376.218 297.368 377.821 296.98C379.912 296.46 381.776 295.133 383.092 293.226C384.408 291.319 385.094 288.953 385.03 286.536C384.967 285.533 384.852 284.536 384.686 283.548V283.548Z" fill="#455A64"/>
<path d="M401.157 284.736C401.157 284.736 401.157 284.57 401.393 284.425C401.54 284.329 401.703 284.267 401.872 284.242C402.041 284.217 402.212 284.23 402.376 284.281C402.631 284.351 402.86 284.507 403.036 284.727C403.211 284.947 403.324 285.221 403.36 285.514C403.407 285.882 403.345 286.257 403.183 286.58C403.02 286.903 402.767 287.155 402.463 287.297C402.159 287.438 401.822 287.461 401.505 287.362C401.188 287.262 400.91 287.046 400.714 286.747C400.553 286.516 400.453 286.239 400.423 285.946C400.394 285.654 400.437 285.358 400.547 285.092C400.95 284.192 401.599 284.17 401.58 284.236C401.56 284.303 401.108 284.503 400.891 285.236C400.827 285.434 400.811 285.647 400.844 285.854C400.877 286.06 400.958 286.254 401.078 286.414C401.225 286.601 401.416 286.735 401.629 286.8C401.843 286.865 402.068 286.858 402.278 286.781C402.475 286.674 402.639 286.502 402.748 286.287C402.856 286.073 402.905 285.827 402.888 285.581C402.874 285.374 402.806 285.176 402.692 285.014C402.578 284.851 402.424 284.732 402.248 284.67C401.888 284.56 401.505 284.583 401.157 284.736Z" fill="#455A64"/>
<path d="M421.947 287.203C421.387 287.65 420.725 287.908 420.04 287.947C418.386 288.228 416.698 287.819 415.292 286.796C413.886 285.774 412.857 284.209 412.398 282.392C412.161 281.684 412.097 280.917 412.211 280.17C412.3 280.17 412.319 281.037 412.733 282.315C413.253 283.983 414.249 285.409 415.565 286.37C416.88 287.331 418.44 287.772 420 287.625C421.2 287.447 421.918 287.114 421.947 287.203Z" fill="#455A64"/>
<path d="M432.746 457.06C432.426 457.159 432.094 457.204 431.762 457.193L429.087 457.36L420.236 457.837L411.385 458.359L408.7 458.482C408.374 458.534 408.043 458.534 407.717 458.482C408.034 458.36 408.365 458.292 408.7 458.282C409.32 458.193 410.234 458.082 411.365 457.971C413.618 457.737 416.745 457.482 420.216 457.282C423.688 457.082 426.806 456.993 429.068 456.982C430.199 456.982 431.113 456.982 431.752 456.982C432.085 456.956 432.419 456.982 432.746 457.06V457.06Z" fill="#455A64"/>
<path d="M387.851 296.224C387.989 296.224 395.719 332.253 405.15 376.769C414.582 421.286 422.086 457.426 421.948 457.459C421.81 457.493 414.08 421.441 404.649 376.903C395.218 332.364 387.714 296.257 387.851 296.224Z" fill="#455A64"/>
<path d="M413.017 297.658C413.085 297.731 413.144 297.813 413.194 297.902L413.676 298.624L415.505 301.457L422.134 311.911L431.919 327.465L437.672 336.675C439.639 339.875 441.606 343.463 442.127 347.685C442.649 351.907 441.557 355.984 440.426 359.639C439.295 363.294 438.056 366.849 436.915 370.193C434.614 376.859 432.43 382.881 430.532 387.869C428.634 392.857 427.031 396.868 425.91 399.623L424.583 402.789L424.228 403.6C424.14 403.778 424.101 403.878 424.091 403.867C424.108 403.766 424.137 403.669 424.179 403.578C424.258 403.356 424.366 403.078 424.494 402.734L425.723 399.534C426.795 396.745 428.349 392.713 430.198 387.713C432.047 382.714 434.201 376.715 436.472 370.004C437.603 366.671 438.774 363.127 439.944 359.45C441.114 355.773 442.137 351.829 441.626 347.763C441.114 343.696 439.177 340.186 437.259 336.997L431.536 327.776L421.839 312.1L415.338 301.535L413.597 298.646C413.41 298.335 413.263 298.091 413.155 297.891C413.047 297.691 413.007 297.658 413.017 297.658Z" fill="#455A64"/>
<path d="M462.998 209.457L484.959 191.348L486.04 193.292L464.218 211.623L462.998 209.457Z" fill="#263238"/>
<path d="M468.426 208.901C468.426 208.901 471.376 200.235 472.035 198.391C472.694 196.547 473.815 193.336 474.238 193.27C474.661 193.203 476.205 193.47 474.189 198.98C472.173 204.49 476.559 201.124 476.559 201.124L480.788 197.702C480.788 197.702 484.132 208.99 482.233 212.39C480.739 214.934 479.062 217.334 477.218 219.566L468.426 208.901Z" fill="#FFBE9D"/>
<path d="M189.714 352.538C190 350.661 189.37 343.795 189.37 343.795C189.37 343.795 182.997 343.029 182.614 335.896C182.23 328.764 182.614 312.299 182.614 312.299L194.219 305.889L207.003 316.81L205.037 352.505L189.714 352.538Z" fill="#B78876"/>
<path d="M184.375 324.231C184.375 324.472 184.46 324.704 184.611 324.875C184.762 325.046 184.968 325.142 185.181 325.142C185.395 325.142 185.6 325.046 185.752 324.875C185.903 324.704 185.988 324.472 185.988 324.231C185.988 324.111 185.967 323.993 185.926 323.882C185.886 323.772 185.827 323.671 185.752 323.587C185.677 323.502 185.588 323.435 185.49 323.389C185.392 323.343 185.287 323.32 185.181 323.32C185.076 323.32 184.971 323.343 184.873 323.389C184.775 323.435 184.686 323.502 184.611 323.587C184.536 323.671 184.477 323.772 184.436 323.882C184.396 323.993 184.375 324.111 184.375 324.231V324.231Z" fill="#263238"/>
<path d="M183.193 323.576C183.292 323.687 183.892 323.12 184.757 323.065C185.622 323.009 186.281 323.487 186.38 323.353C186.478 323.22 186.311 323.076 186.026 322.853C185.642 322.569 185.186 322.432 184.728 322.465C184.269 322.5 183.832 322.699 183.479 323.031C183.223 323.287 183.134 323.52 183.193 323.576Z" fill="#263238"/>
<path d="M194.592 324.975C195.037 324.975 195.398 324.567 195.398 324.064C195.398 323.561 195.037 323.153 194.592 323.153C194.146 323.153 193.785 323.561 193.785 324.064C193.785 324.567 194.146 324.975 194.592 324.975Z" fill="#263238"/>
<path d="M192.596 323.398C192.704 323.52 193.294 322.942 194.169 322.898C195.045 322.853 195.694 323.32 195.782 323.187C195.871 323.053 195.723 322.909 195.438 322.687C195.053 322.403 194.598 322.267 194.14 322.298C193.68 322.329 193.242 322.528 192.891 322.864C192.625 323.12 192.547 323.353 192.596 323.398Z" fill="#263238"/>
<path d="M189.606 331.608C189.14 331.471 188.661 331.404 188.18 331.408C187.964 331.408 187.747 331.352 187.698 331.175C187.671 330.9 187.715 330.622 187.826 330.375L188.416 328.342C188.979 326.613 189.423 324.838 189.744 323.031C189.083 324.715 188.527 326.448 188.082 328.22C187.875 328.931 187.688 329.619 187.511 330.264C187.376 330.586 187.345 330.951 187.423 331.297C187.456 331.385 187.507 331.463 187.572 331.525C187.637 331.587 187.714 331.63 187.796 331.652C187.92 331.673 188.046 331.673 188.17 331.652C188.649 331.703 189.131 331.688 189.606 331.608Z" fill="#263238"/>
<path d="M192.489 332.541C191.215 333.451 189.77 334.011 188.27 334.174C188.589 334.673 189.048 335.036 189.573 335.203C190.098 335.371 190.657 335.333 191.161 335.096C193.02 334.218 192.489 332.541 192.489 332.541Z" fill="white"/>
<path d="M189.371 343.795C192.374 343.653 195.278 342.543 197.74 340.595C197.74 340.595 195.842 345.839 189.509 345.55L189.371 343.795Z" fill="#A36957"/>
<path d="M215.373 322.097C215.373 322.097 217.949 338.551 205.646 341.517L206.01 321.697L215.373 322.097Z" fill="#263238"/>
<path d="M214.969 318.454C214.202 314.933 212.765 311.642 210.76 308.81C212.53 309.644 213.711 310.477 213.956 310.21C214.202 309.944 213.75 309.444 212.973 308.699C211.964 307.767 210.81 307.055 209.57 306.599L208.99 306.422C209.802 306.056 210.543 305.517 211.173 304.833C211.928 304.035 212.449 302.996 212.669 301.855C212.888 300.714 212.796 299.525 212.403 298.445C211.958 297.527 211.283 296.778 210.462 296.293C209.641 295.809 208.711 295.61 207.79 295.723C206.875 295.869 206.003 296.256 205.245 296.852C204.487 297.448 203.863 298.238 203.424 299.156C203.212 299.596 203.037 300.057 202.902 300.534C202.932 299.744 203.005 298.958 203.119 298.178C203.512 295.434 204.417 293.379 204.269 293.29C203.337 294.685 202.755 296.34 202.588 298.078C202.588 298.345 202.529 298.6 202.499 298.856C202.306 298.146 202.07 297.452 201.791 296.778C201.191 295.345 200.621 294.557 200.454 294.679C200.109 294.868 201.231 297.878 201.693 301.944C200.586 301.529 199.435 301.286 198.27 301.222C196.126 301.222 192.566 300.111 187.531 304.678C185.826 305.907 184.352 307.504 183.194 309.377C181.53 312.128 180.592 315.357 180.489 318.687C180.459 319.687 180.515 320.688 180.657 321.675C180.687 322.04 180.77 322.397 180.903 322.731C181.001 322.731 180.716 321.187 180.903 318.709C181.013 316.872 181.375 315.066 181.974 313.354C181.225 316.316 181.392 319.479 182.447 322.32L193.707 320.331C192.979 317.543 193.51 313.121 193.855 310.955C195.822 321.342 203.738 326.33 203.738 326.33L215.589 324.231C215.422 323.02 215.225 319.542 214.969 318.454Z" fill="#263238"/>
<path d="M242.23 477.568C242.594 477.767 271.646 484.233 270.574 479.789C269.502 475.346 242.486 468.369 242.486 468.369L242.23 477.568Z" fill="#92E3A9"/>
<path d="M255.439 474.668C255.576 474.668 255.783 475.423 255.773 476.412C255.763 477.401 255.557 478.179 255.419 478.156C255.281 478.134 255.252 477.357 255.261 476.412C255.271 475.468 255.301 474.679 255.439 474.668Z" fill="#263238"/>
<path d="M253.894 474.067C254.022 474.067 254.278 474.945 254.18 476.1C254.081 477.256 253.717 478.1 253.589 478.045C253.462 477.989 253.589 477.123 253.668 476.045C253.747 474.967 253.747 474.09 253.894 474.067Z" fill="#263238"/>
<path d="M252.016 473.89C252.153 473.89 252.35 474.756 252.37 475.867C252.389 476.978 252.222 477.867 252.084 477.856C251.947 477.845 251.878 476.967 251.858 475.878C251.839 474.79 251.878 473.901 252.016 473.89Z" fill="#263238"/>
<path d="M248.477 470.679C248.629 470.671 248.782 470.689 248.929 470.735C249.224 470.735 249.657 470.89 250.208 471.035C251.319 471.301 252.922 471.735 254.879 472.346C256.836 472.957 259.157 473.723 261.694 474.701C262.963 475.19 264.31 475.69 265.628 476.345C267.057 476.996 268.369 477.933 269.503 479.112C269.68 479.271 269.824 479.472 269.926 479.7C269.988 479.862 269.998 480.044 269.953 480.212C269.908 480.381 269.811 480.527 269.68 480.623C269.301 480.845 268.877 480.948 268.451 480.923C267.693 480.989 266.946 481.023 266.218 481.045C264.753 481.045 263.337 481.045 261.989 480.923C259.305 480.734 256.905 480.356 254.899 480C252.892 479.645 251.28 479.289 250.168 479.034L248.89 478.734C248.737 478.711 248.588 478.662 248.447 478.589C249.035 478.611 249.62 478.686 250.198 478.812L254.948 479.589C256.915 479.9 259.354 480.234 262.019 480.4C263.356 480.478 264.753 480.523 266.208 480.478C266.926 480.478 267.674 480.423 268.411 480.356C268.75 480.378 269.087 480.305 269.395 480.145C269.483 480.067 269.493 480.023 269.464 479.923C269.382 479.772 269.279 479.637 269.159 479.523C268.066 478.394 266.804 477.495 265.432 476.867C264.114 476.223 262.776 475.756 261.498 475.201C258.97 474.212 256.669 473.39 254.732 472.735C252.794 472.079 251.201 471.624 250.109 471.246C249.555 471.098 249.009 470.908 248.477 470.679V470.679Z" fill="#263238"/>
<path d="M263.905 475.557C264.043 475.612 263.758 476.856 263.905 478.39C264.053 479.923 264.427 481.112 264.289 481.189C263.765 480.384 263.455 479.427 263.394 478.429C263.333 477.432 263.524 476.436 263.945 475.557H263.905Z" fill="#263238"/>
<path d="M146.197 471.068C145.794 471.068 116.477 475.634 118.749 479.356C121.02 483.077 148.596 479.811 148.596 479.811L146.197 471.068Z" fill="#92E3A9"/>
<path d="M134.494 478.678C134.376 478.745 133.953 478.078 133.677 477.145C133.402 476.212 133.412 475.412 133.51 475.412C133.609 475.412 133.894 476.112 134.159 477.011C134.425 477.911 134.622 478.6 134.494 478.678Z" fill="#263238"/>
<path d="M136.135 478.668C136.017 478.746 135.515 477.979 135.27 476.857C135.024 475.735 135.132 474.791 135.27 474.791C135.407 474.791 135.535 475.668 135.771 476.713C136.007 477.757 136.263 478.59 136.135 478.668Z" fill="#263238"/>
<path d="M137.955 478.145C137.827 478.211 137.395 477.445 137.05 476.401C136.706 475.356 136.608 474.456 136.746 474.412C136.883 474.367 137.198 475.19 137.532 476.201C137.867 477.212 138.083 478.078 137.955 478.145Z" fill="#263238"/>
<path d="M142.262 479.856C142.121 479.918 141.972 479.955 141.82 479.967L140.522 480.156C139.391 480.311 137.758 480.489 135.732 480.633C133.706 480.778 131.287 480.9 128.602 480.922C127.255 480.922 125.849 480.922 124.373 480.822C122.836 480.747 121.326 480.347 119.918 479.645C119.702 479.558 119.505 479.422 119.338 479.245C119.241 479.11 119.188 478.941 119.188 478.767C119.188 478.593 119.241 478.424 119.338 478.289C119.628 477.934 119.999 477.676 120.41 477.545C121.108 477.201 121.797 476.901 122.485 476.601C123.862 476.034 125.219 475.567 126.517 475.156C129.114 474.345 131.494 473.823 133.49 473.423C135.486 473.023 137.119 472.757 138.24 472.59L139.538 472.401C139.688 472.374 139.841 472.374 139.991 472.401C139.428 472.596 138.853 472.741 138.27 472.834L133.559 473.845C131.592 474.301 129.212 474.867 126.675 475.69C125.386 476.112 124.049 476.578 122.741 477.156C122.062 477.456 121.374 477.756 120.686 478.089C120.365 478.194 120.071 478.384 119.83 478.645C119.771 478.756 119.771 478.789 119.83 478.878C119.953 478.993 120.093 479.083 120.243 479.145C121.597 479.806 123.047 480.182 124.521 480.256C125.957 480.389 127.373 480.378 128.71 480.389C131.385 480.389 133.795 480.322 135.821 480.233C137.847 480.145 139.479 480.011 140.61 479.934C141.159 479.866 141.711 479.84 142.262 479.856V479.856Z" fill="#263238"/>
<path d="M126.243 480.967C126.086 480.967 126.007 479.689 125.456 478.278C124.906 476.867 124.178 475.89 124.286 475.778C124.394 475.667 125.358 476.501 125.929 478C126.367 478.907 126.479 479.969 126.243 480.967Z" fill="#263238"/>
<path d="M237.098 430.862H222.179L167.105 432.473L151.37 430.173C148.921 429.562 147.308 429.306 146.787 429.495C144.674 430.491 142.821 432.082 141.408 434.117C135.409 442.205 139.185 454.67 148.213 457.447L156.691 460.047L138.143 466.779L144.407 486.866C144.407 486.866 172.101 480.1 198.959 472.956L241.936 486.088L248.132 463.546L240.845 460.869C245.418 459.291 248.309 458.047 248.712 457.292C251.417 452.559 256.206 430.551 237.029 430.884" fill="#455A64"/>
<path opacity="0.2" d="M240.608 460.947L208.665 475.89L199.008 472.935L240.608 460.947Z" fill="black"/>
<path opacity="0.2" d="M156.828 432.55L197.72 445.782L228.866 433.783L156.828 432.55Z" fill="black"/>
<path d="M151.006 485.41C150.484 484.497 150.046 483.525 149.698 482.511C148.97 480.678 148.026 478.067 147.102 475.223C146.177 472.379 145.42 469.668 144.938 467.757C144.627 466.729 144.406 465.668 144.279 464.591C144.68 465.574 145.009 466.592 145.263 467.635C145.833 469.535 146.63 472.157 147.554 475.023C148.479 477.889 149.374 480.478 150.013 482.344C150.413 483.336 150.745 484.361 151.006 485.41V485.41Z" fill="#263238"/>
<path d="M249.587 438.35C249.508 438.404 249.421 438.445 249.332 438.472L248.564 438.794L245.614 439.972L234.708 444.16C225.453 447.648 212.649 452.37 198.457 457.403C184.266 462.436 171.363 466.824 162.011 469.935L150.917 473.556L147.898 474.501L147.102 474.734C147.012 474.766 146.92 474.785 146.826 474.79L147.092 474.678L147.869 474.39L150.819 473.334L161.863 469.535C171.196 466.335 184.07 461.88 198.251 456.847C212.432 451.815 225.257 447.16 234.531 443.771L245.526 439.761L248.525 438.65L249.302 438.383C249.395 438.356 249.491 438.345 249.587 438.35V438.35Z" fill="#263238"/>
<path d="M219.808 437.539C219.61 437.667 219.399 437.767 219.179 437.839L217.35 438.594C215.757 439.238 213.416 440.149 210.564 441.249C204.821 443.471 196.864 446.404 188.062 449.593C179.261 452.781 171.255 455.592 165.443 457.569C162.493 458.558 160.182 459.336 158.559 459.858L156.68 460.447C156.461 460.52 156.238 460.575 156.012 460.613C156.215 460.493 156.429 460.4 156.651 460.336L158.5 459.647L165.384 457.181L187.944 449.048L210.485 440.86L217.32 438.383L219.189 437.727C219.389 437.64 219.596 437.576 219.808 437.539V437.539Z" fill="#263238"/>
<path d="M197.514 445.705C197.514 445.86 188.338 443.038 177.097 439.406C165.856 435.773 156.789 432.74 156.828 432.551C156.868 432.362 166.004 435.217 177.235 438.85C188.466 442.483 197.553 445.549 197.514 445.705Z" fill="#263238"/>
<path d="M242.172 462.014C241.164 465.763 239.989 469.453 238.651 473.068C236.576 479.112 234.786 483.955 234.658 483.9C235.664 480.153 236.839 476.467 238.179 472.857C240.254 466.813 242.044 461.958 242.172 462.014Z" fill="#263238"/>
<path d="M238.336 471.323C235.623 470.794 232.94 470.086 230.301 469.201C227.632 468.489 225.005 467.591 222.434 466.513C225.147 467.039 227.83 467.748 230.468 468.635C233.137 469.347 235.765 470.245 238.336 471.323Z" fill="#263238"/>
<path d="M177.166 452.904C176.651 452.833 176.141 452.718 175.642 452.559L171.531 451.448C168.069 450.448 163.28 449.093 158.058 447.315C153.581 445.829 149.196 444.014 144.929 441.883C143.306 441.038 141.978 440.305 141.132 439.761C140.662 439.51 140.214 439.209 139.795 438.861C140.286 439.052 140.762 439.286 141.221 439.561C142.126 440.038 143.434 440.672 145.076 441.505C149.367 443.519 153.749 445.273 158.205 446.76C163.417 448.537 168.187 449.948 171.629 451.048L175.691 452.37C176.197 452.492 176.691 452.67 177.166 452.904V452.904Z" fill="#263238"/>
<path d="M207.396 351.55H206.187L206.01 346.817L189.399 347.928C189.399 347.928 189.566 350.15 189.556 351.694C179.329 352.805 162.934 358.738 162.541 384.746L175.66 385.09C174.549 397.022 174.677 404.143 173.605 408.62C171.776 416.019 165.983 431.64 167.144 432.428C168.304 433.217 222.138 434.339 224.705 432.762C227.272 431.184 222.601 410.798 221.43 405.265C220.693 401.732 220.535 393.644 220.516 387.39L235.582 386.623C235.582 386.623 236.674 351.45 207.396 351.55Z" fill="#92E3A9"/>
<path d="M206.098 351.361C205.305 351.626 204.486 351.782 203.659 351.828C202.135 352.028 200.03 352.216 197.7 352.272C195.369 352.328 193.264 352.272 191.74 352.116C190.911 352.101 190.087 351.982 189.281 351.761C190.1 351.651 190.927 351.632 191.75 351.705C193.274 351.705 195.369 351.705 197.65 351.705C199.932 351.705 202.066 351.528 203.551 351.439C204.396 351.321 205.249 351.295 206.098 351.361V351.361Z" fill="#263238"/>
<path d="M192.42 347.772C192.567 347.772 192.675 348.683 192.675 349.806C192.675 350.928 192.567 351.85 192.42 351.85C192.272 351.85 192.164 350.939 192.164 349.806C192.164 348.672 192.233 347.772 192.42 347.772Z" fill="#263238"/>
<path d="M196.815 347.417C196.952 347.417 197.09 348.416 197.12 349.638C197.21 350.386 197.142 351.148 196.923 351.86C196.775 351.86 196.638 350.861 196.608 349.638C196.515 348.89 196.586 348.127 196.815 347.417V347.417Z" fill="#263238"/>
<path d="M201.399 347.239C201.536 347.239 201.733 348.217 201.753 349.461C201.772 350.705 201.625 351.683 201.477 351.683C201.263 350.969 201.182 350.212 201.241 349.461C201.271 348.261 201.271 347.25 201.399 347.239Z" fill="#263238"/>
<path d="M204.722 347.061C204.869 347.061 204.968 348.039 205.105 349.228C205.243 350.416 205.351 351.394 205.214 351.449C205.076 351.505 204.732 350.55 204.604 349.305C204.476 348.061 204.584 347.05 204.722 347.061Z" fill="#263238"/>
<path d="M177.736 384.812C177.471 382.977 177.372 381.116 177.441 379.258C177.336 377.402 177.409 375.54 177.657 373.703C177.917 375.539 178.016 377.399 177.952 379.258C178.044 381.113 177.971 382.973 177.736 384.812Z" fill="#263238"/>
<path d="M219.955 386.667C219.557 384.696 219.32 382.688 219.247 380.668C219.01 378.662 218.947 376.634 219.06 374.613C219.692 378.591 219.991 382.627 219.955 386.667V386.667Z" fill="#263238"/>
<path d="M177.737 384.812C176.987 384.924 176.229 384.95 175.475 384.89H170.056H164.627C163.876 384.951 163.121 384.925 162.375 384.812C163.108 384.599 163.861 384.491 164.617 384.49C166.004 384.368 167.932 384.279 170.056 384.29C172.18 384.301 174.108 384.379 175.494 384.501C176.25 384.504 177.003 384.609 177.737 384.812Z" fill="#263238"/>
<path d="M235.554 386.667C232.89 386.96 230.213 387.056 227.539 386.956C224.861 387.057 222.18 386.96 219.514 386.667C222.181 386.381 224.861 386.285 227.539 386.378C230.213 386.285 232.89 386.381 235.554 386.667V386.667Z" fill="#263238"/>
<path d="M234.895 386.812C234.895 386.812 238.829 428.284 227.578 432.361C216.327 436.439 194.141 417.13 194.141 417.13L200.533 402.51C200.533 402.51 215.285 414.086 218.471 411.475C221.658 408.864 219.996 386.812 219.996 386.812H234.895Z" fill="#B78876"/>
<path d="M162.728 384.812C162.728 384.812 158.725 425.862 169.966 429.951C181.207 434.039 203.403 414.708 203.403 414.708L197.001 400.088C197.001 400.088 182.161 410.809 179.082 408.098C177.302 406.52 177.253 385.023 177.253 385.023C172.021 384.767 167.173 384.512 162.728 384.812Z" fill="#B78876"/>
<path d="M227.892 393.366L220.428 434.694C220.428 434.694 174.559 434.294 174.087 434.139C173.615 433.983 169.17 393.366 169.17 393.366H227.892Z" fill="#263238"/>
<path d="M194.946 414.308C194.908 414.931 195.037 415.552 195.316 416.09C195.595 416.629 196.011 417.06 196.51 417.328C197.008 417.596 197.567 417.689 198.113 417.594C198.659 417.499 199.167 417.22 199.571 416.795C199.975 416.369 200.256 415.817 200.378 415.208C200.501 414.6 200.458 413.964 200.256 413.383C200.055 412.802 199.703 412.303 199.247 411.951C198.791 411.599 198.252 411.41 197.699 411.409C196.995 411.385 196.31 411.676 195.795 412.219C195.279 412.762 194.974 413.513 194.946 414.308V414.308Z" fill="white"/>
<path d="M204.584 323.631C204.999 323.34 205.472 323.171 205.959 323.138C206.447 323.105 206.934 323.21 207.377 323.442C207.943 323.957 208.315 324.695 208.419 325.508C208.551 326.166 208.544 326.85 208.399 327.504C208.254 328.158 207.974 328.765 207.583 329.274C207.176 329.766 206.63 330.084 206.039 330.175C205.448 330.266 204.847 330.125 204.338 329.774" fill="#B78876"/>
<path d="M205.764 328.641C205.764 328.552 206.078 328.497 206.442 328.186C206.683 328.01 206.877 327.765 207.005 327.476C207.133 327.186 207.19 326.864 207.17 326.541C207.142 326.223 207.041 325.918 206.877 325.657C206.714 325.396 206.493 325.188 206.236 325.053C205.823 324.83 205.508 324.842 205.498 324.753C205.488 324.664 205.813 324.497 206.364 324.653C206.723 324.773 207.043 325.012 207.281 325.34C207.519 325.667 207.665 326.068 207.7 326.49C207.735 326.911 207.657 327.336 207.477 327.707C207.297 328.079 207.022 328.381 206.688 328.574C206.118 328.819 205.764 328.763 205.764 328.641Z" fill="#A36957"/>
</svg>
