<svg width="495" height="327" viewBox="0 0 495 327" fill="none" xmlns="http://www.w3.org/2000/svg">
<g opacity="0.1">
<path opacity="0.1" d="M261.389 168.76C264.464 168.76 266.957 165.499 266.957 161.477C266.957 157.455 264.464 154.195 261.389 154.195C258.313 154.195 255.82 157.455 255.82 161.477C255.82 165.499 258.313 168.76 261.389 168.76Z" fill="#3F3D56"/>
<path opacity="0.1" d="M265.785 130.312C266.559 128.958 266.959 127.422 266.943 125.863C266.943 121.839 264.45 118.574 261.381 118.574C258.313 118.574 255.813 121.845 255.813 125.863C255.796 127.423 256.198 128.96 256.978 130.312C256.214 131.672 255.813 133.205 255.813 134.765C255.813 136.324 256.214 137.858 256.978 139.218C256.214 140.577 255.813 142.111 255.813 143.67C255.813 145.23 256.214 146.763 256.978 148.123C256.198 149.475 255.796 151.012 255.813 152.572C255.813 156.596 258.306 159.861 261.381 159.861C264.457 159.861 266.943 156.59 266.943 152.572C266.959 151.013 266.559 149.477 265.785 148.123C266.542 146.761 266.94 145.228 266.94 143.67C266.94 142.112 266.542 140.579 265.785 139.218C266.542 137.856 266.94 136.323 266.94 134.765C266.94 133.207 266.542 131.674 265.785 130.312Z" fill="#3F3D56"/>
<path opacity="0.1" d="M288.164 63.5979C288.173 69.5779 286.163 75.3856 282.459 80.0803C285.556 84.0112 287.484 88.7346 288.023 93.71C288.561 98.6855 287.688 103.712 285.503 108.215C283.319 112.717 279.911 116.514 275.67 119.17C271.428 121.827 266.525 123.235 261.52 123.235C256.516 123.235 251.612 121.827 247.371 119.17C243.13 116.514 239.722 112.717 237.537 108.215C235.353 103.712 234.48 98.6855 235.018 93.71C235.557 88.7346 237.485 84.0112 240.582 80.0803C236.996 75.5458 288.164 60.6077 288.164 63.5979Z" fill="black"/>
</g>
<g opacity="0.1">
<path opacity="0.1" d="M468.439 164.834C471.515 164.834 474.008 161.574 474.008 157.552C474.008 153.53 471.515 150.269 468.439 150.269C465.364 150.269 462.871 153.53 462.871 157.552C462.871 161.574 465.364 164.834 468.439 164.834Z" fill="#3F3D56"/>
<path opacity="0.1" d="M464.041 126.386C463.267 125.032 462.868 123.496 462.883 121.937C462.883 117.913 465.376 114.647 468.445 114.647C471.514 114.647 474.013 117.919 474.013 121.937C474.03 123.497 473.628 125.034 472.849 126.386C473.612 127.746 474.013 129.279 474.013 130.839C474.013 132.398 473.612 133.931 472.849 135.291C473.612 136.651 474.013 138.184 474.013 139.744C474.013 141.303 473.612 142.837 472.849 144.197C473.628 145.549 474.03 147.085 474.013 148.646C474.013 152.67 471.52 155.935 468.445 155.935C465.37 155.935 462.883 152.663 462.883 148.646C462.868 147.086 463.267 145.551 464.041 144.197C463.284 142.835 462.886 141.302 462.886 139.744C462.886 138.186 463.284 136.653 464.041 135.291C463.284 133.929 462.886 132.397 462.886 130.839C462.886 129.28 463.284 127.748 464.041 126.386Z" fill="#3F3D56"/>
<path opacity="0.1" d="M468.439 120.314C471.515 120.314 474.008 117.054 474.008 113.032C474.008 109.01 471.515 105.749 468.439 105.749C465.364 105.749 462.871 109.01 462.871 113.032C462.871 117.054 465.364 120.314 468.439 120.314Z" fill="#3F3D56"/>
<path opacity="0.1" d="M468.439 111.409C471.515 111.409 474.008 108.148 474.008 104.126C474.008 100.104 471.515 96.8438 468.439 96.8438C465.364 96.8438 462.871 100.104 462.871 104.126C462.871 108.148 465.364 111.409 468.439 111.409Z" fill="#3F3D56"/>
<path opacity="0.1" d="M489.273 43.1896C490.037 42.2246 490.731 41.2056 491.347 40.1405L476.723 37.7391L492.538 37.8569C494.055 34.5549 494.883 30.9783 494.971 27.3455C495.059 23.7127 494.405 20.1003 493.049 16.7289L471.829 27.7411L491.4 13.3461C489.57 10.1714 487.105 7.40812 484.159 5.22865C481.213 3.04917 477.849 1.50032 474.278 0.678755C470.707 -0.142807 467.005 -0.219435 463.403 0.453652C459.801 1.12674 456.376 2.53509 453.342 4.5908C450.309 6.64651 447.732 9.30546 445.772 12.4016C443.812 15.4978 442.511 18.9648 441.95 22.5862C441.39 26.2075 441.582 29.9055 442.515 33.4493C443.447 36.9931 445.1 40.3067 447.371 43.1831C446.186 44.6908 445.166 46.3206 444.328 48.0447L463.303 57.9053L443.104 51.12C441.683 55.3212 441.332 59.8106 442.082 64.1818C442.833 68.553 444.662 72.668 447.403 76.1543C444.306 80.0852 442.378 84.8086 441.839 89.7841C441.301 94.7595 442.174 99.7861 444.358 104.289C446.543 108.791 449.951 112.588 454.192 115.244C458.434 117.901 463.337 119.309 468.342 119.309C473.346 119.309 478.25 117.901 482.491 115.244C486.732 112.588 490.14 108.791 492.325 104.289C494.509 99.7861 495.382 94.7595 494.844 89.7841C494.305 84.8086 492.377 80.0852 489.28 76.1543C492.976 71.4555 494.986 65.6505 494.986 59.6719C494.986 53.6934 492.976 47.8884 489.28 43.1896H489.273Z" fill="#CDF4DE"/>
<path opacity="0.1" d="M441.665 59.6717C441.657 65.6516 443.667 71.4594 447.371 76.154C444.274 80.0849 442.346 84.8083 441.807 89.7838C441.269 94.7593 442.142 99.7858 444.326 104.288C446.511 108.791 449.919 112.588 454.16 115.244C458.401 117.9 463.305 119.309 468.309 119.309C473.314 119.309 478.217 117.9 482.459 115.244C486.7 112.588 490.108 108.791 492.293 104.288C494.477 99.7858 495.35 94.7593 494.812 89.7838C494.273 84.8083 492.345 80.0849 489.248 76.154C492.833 71.6196 441.665 56.6814 441.665 59.6717Z" fill="black"/>
</g>
<path opacity="0.1" d="M261.389 124.24C264.464 124.24 266.957 120.98 266.957 116.958C266.957 112.936 264.464 109.675 261.389 109.675C258.313 109.675 255.82 112.936 255.82 116.958C255.82 120.98 258.313 124.24 261.389 124.24Z" fill="#3F3D56"/>
<path opacity="0.1" d="M261.389 115.334C264.464 115.334 266.957 112.073 266.957 108.051C266.957 104.029 264.464 100.769 261.389 100.769C258.313 100.769 255.82 104.029 255.82 108.051C255.82 112.073 258.313 115.334 261.389 115.334Z" fill="#3F3D56"/>
<path d="M343.683 168.451C379.806 168.451 409.089 139.168 409.089 103.046C409.089 66.9228 379.806 37.6396 343.683 37.6396C307.561 37.6396 278.277 66.9228 278.277 103.046C278.277 139.168 307.561 168.451 343.683 168.451Z" fill="#3F3D56"/>
<path d="M370.13 120.309C367.853 118.032 362.376 114.597 359.661 113.314C356.527 111.809 355.375 111.835 353.157 113.438C351.312 114.747 350.114 116.01 347.994 115.545C345.874 115.081 341.673 111.914 337.61 107.864C333.547 103.813 330.393 99.6387 329.941 97.486C329.49 95.3333 330.733 94.1621 332.055 92.3169C333.651 90.0987 333.697 88.9471 332.179 85.8129C330.871 83.0975 327.475 77.6339 325.178 75.3438C322.881 73.0537 322.384 73.5575 321.128 74.0352C319.835 74.5772 318.593 75.2341 317.418 75.9981C315.141 77.5227 313.865 78.7921 312.968 80.7027C312.072 82.6133 311.058 86.1597 316.273 95.4445C320.12 102.547 324.992 109.045 330.733 114.727C336.435 120.481 342.955 125.363 350.081 129.214C359.36 134.449 362.913 133.408 364.823 132.518C366.734 131.628 368.003 130.366 369.521 128.069C370.287 126.894 370.944 125.653 371.484 124.359C371.916 123.103 372.427 122.592 370.13 120.309Z" fill="#92E3A9"/>
<path opacity="0.1" d="M343.684 37.6475C330.739 37.641 318.084 41.4739 307.319 48.6611C296.554 55.8484 288.162 66.0672 283.206 78.0246C278.249 89.9821 276.951 103.141 279.474 115.837C281.998 128.532 288.231 140.194 297.383 149.347C306.536 158.5 318.198 164.732 330.894 167.256C343.589 169.78 356.748 168.481 368.706 163.525C380.663 158.568 390.882 150.176 398.069 139.411C405.256 128.646 409.089 115.991 409.083 103.047C409.074 85.7045 402.181 69.075 389.918 56.8121C377.655 44.5492 361.026 37.6561 343.684 37.6475ZM343.684 159.757C332.467 159.757 321.503 156.431 312.177 150.199C302.851 143.968 295.583 135.111 291.29 124.749C286.998 114.386 285.875 102.984 288.063 91.9832C290.251 80.9826 295.653 70.8778 303.584 62.9468C311.515 55.0158 321.619 49.6147 332.62 47.4265C343.621 45.2383 355.023 46.3614 365.385 50.6536C375.748 54.9459 384.605 62.2145 390.836 71.5404C397.067 80.8663 400.393 91.8306 400.393 103.047C400.393 110.494 398.927 117.868 396.077 124.749C393.227 131.629 389.05 137.881 383.784 143.147C378.518 148.413 372.266 152.59 365.385 155.44C358.505 158.29 351.131 159.757 343.684 159.757Z" fill="black"/>
<path d="M220.687 265.978C256.81 265.978 286.093 236.695 286.093 200.572C286.093 164.449 256.81 135.166 220.687 135.166C184.564 135.166 155.281 164.449 155.281 200.572C155.281 236.695 184.564 265.978 220.687 265.978Z" fill="#3F3D56"/>
<path d="M257.888 180.812L238.304 200.736C238.27 200.769 238.242 200.808 238.223 200.852C238.205 200.896 238.195 200.943 238.195 200.991C238.195 201.039 238.205 201.086 238.223 201.13C238.242 201.174 238.27 201.213 238.304 201.246L252.045 215.857C252.373 216.188 252.597 216.609 252.687 217.067C252.778 217.525 252.731 217.999 252.553 218.43C252.374 218.862 252.073 219.231 251.686 219.491C251.298 219.751 250.843 219.892 250.376 219.894C249.748 219.893 249.146 219.644 248.701 219.201L235.032 204.642C234.963 204.573 234.869 204.535 234.771 204.535C234.673 204.535 234.579 204.573 234.509 204.642L231.178 208.005C229.815 209.4 228.186 210.508 226.388 211.264C224.591 212.02 222.66 212.409 220.709 212.409C218.722 212.4 216.756 211.994 214.927 211.217C213.098 210.44 211.443 209.305 210.057 207.881L206.857 204.609C206.788 204.541 206.694 204.502 206.596 204.502C206.498 204.502 206.404 204.541 206.334 204.609L192.698 219.135C192.478 219.355 192.218 219.529 191.931 219.648C191.644 219.767 191.337 219.829 191.026 219.829C190.715 219.829 190.408 219.767 190.121 219.648C189.834 219.529 189.574 219.355 189.354 219.135C189.134 218.916 188.959 218.656 188.839 218.369C188.72 218.082 188.658 217.774 188.658 217.463C188.658 217.153 188.72 216.845 188.839 216.558C188.959 216.271 189.134 216.011 189.354 215.792L203.043 201.213C203.103 201.142 203.137 201.052 203.137 200.958C203.137 200.865 203.103 200.774 203.043 200.703L183.459 180.779C183.408 180.728 183.344 180.694 183.274 180.68C183.204 180.666 183.132 180.673 183.066 180.7C183 180.728 182.943 180.774 182.904 180.833C182.864 180.893 182.843 180.963 182.844 181.034V220.902C182.849 222.443 183.463 223.92 184.553 225.009C185.643 226.099 187.12 226.714 188.661 226.719H252.699C254.24 226.714 255.717 226.099 256.806 225.009C257.896 223.92 258.511 222.443 258.516 220.902V181.067C258.519 180.993 258.499 180.919 258.459 180.857C258.419 180.794 258.361 180.746 258.292 180.718C258.223 180.69 258.147 180.684 258.075 180.701C258.003 180.717 257.937 180.756 257.888 180.812Z" fill="#92E3A9"/>
<path d="M220.689 207.679C222.016 207.692 223.333 207.438 224.56 206.933C225.788 206.427 226.901 205.679 227.834 204.735L256.356 175.703C255.343 174.864 254.072 174.402 252.757 174.394H188.673C187.358 174.398 186.085 174.861 185.074 175.703L213.603 204.735C214.527 205.674 215.631 206.418 216.848 206.924C218.065 207.43 219.371 207.687 220.689 207.679Z" fill="#92E3A9"/>
<path opacity="0.1" d="M219.863 135.173C206.919 135.166 194.264 138.999 183.499 146.187C172.734 153.374 164.342 163.593 159.385 175.55C154.429 187.508 153.13 200.666 155.654 213.362C158.178 226.058 164.41 237.72 173.563 246.872C182.716 256.025 194.378 262.258 207.073 264.781C219.769 267.305 232.928 266.006 244.885 261.05C256.843 256.093 267.062 247.702 274.249 236.937C281.436 226.171 285.269 213.516 285.263 200.572C285.254 183.23 278.361 166.6 266.098 154.337C253.835 142.075 237.206 135.182 219.863 135.173ZM219.863 257.282C208.647 257.282 197.683 253.956 188.357 247.725C179.031 241.493 171.762 232.637 167.47 222.274C163.178 211.912 162.055 200.509 164.243 189.509C166.431 178.508 171.832 168.403 179.763 160.472C187.694 152.541 197.799 147.14 208.8 144.952C219.8 142.764 231.203 143.887 241.565 148.179C251.928 152.471 260.784 159.74 267.016 169.066C273.247 178.392 276.573 189.356 276.573 200.572C276.573 215.613 270.598 230.037 259.963 240.672C249.328 251.307 234.904 257.282 219.863 257.282Z" fill="black"/>
<path d="M65.4645 217.135C101.587 217.135 130.87 187.852 130.87 151.73C130.87 115.607 101.587 86.3237 65.4645 86.3237C29.3418 86.3237 0.0585938 115.607 0.0585938 151.73C0.0585938 187.852 29.3418 217.135 65.4645 217.135Z" fill="#3F3D56"/>
<path d="M65.4653 120.431L39.3906 180.589L41.8247 183.023L65.4718 172.594L89.119 183.023L91.5531 180.589L65.4653 120.431Z" fill="#92E3A9"/>
<path opacity="0.1" d="M65.4648 86.3018C52.5222 86.2953 39.8683 90.1273 29.1038 97.3132C18.3392 104.499 9.94754 114.716 4.99013 126.671C0.0327155 138.627 -1.26771 151.784 1.25331 164.479C3.77432 177.174 10.0035 188.836 19.1531 197.99C28.3026 207.144 39.9614 213.379 52.6549 215.906C65.3483 218.434 78.5062 217.14 90.4643 212.188C102.422 207.237 112.643 198.85 119.835 188.089C127.026 177.328 130.864 164.676 130.864 151.734C130.864 134.386 123.975 117.748 111.711 105.478C99.4473 93.208 82.8128 86.3104 65.4648 86.3018ZM65.4648 208.411C54.2472 208.411 43.2816 205.084 33.955 198.851C24.6284 192.619 17.3598 183.76 13.0685 173.396C8.77722 163.031 7.65609 151.627 9.84691 140.626C12.0377 129.624 17.4421 119.519 25.3764 111.59C33.3107 103.66 43.4185 98.2613 54.4213 96.0768C65.4241 93.8923 76.8276 95.0201 87.1894 99.3173C97.5512 103.615 106.406 110.888 112.633 120.219C118.861 129.549 122.181 140.516 122.175 151.734C122.173 166.773 116.197 181.196 105.562 191.83C94.9275 202.463 80.5041 208.437 65.4648 208.437V208.411Z" fill="black"/>
<path d="M359.302 243.518C358.706 242.095 358.095 240.677 357.469 239.264C356.953 237.884 356.195 236.603 355.229 235.479C354.862 235.074 354.415 234.746 353.915 234.515C353.365 234.316 352.787 234.203 352.201 234.18C351.308 234.07 350.405 234.047 349.507 234.11C349.159 234.007 348.765 233.872 348.378 233.718C350.321 233.218 352.05 232.121 353.308 230.588C354.566 229.055 355.288 227.168 355.367 225.203C355.367 225.075 355.367 224.94 355.367 224.811C355.372 223.609 355.135 222.417 354.67 221.304C354.204 220.191 353.519 219.179 352.653 218.325C351.788 217.471 350.759 216.792 349.625 216.327C348.491 215.862 347.275 215.62 346.046 215.615C344.315 215.612 342.619 216.086 341.152 216.984C339.214 216.554 337.185 216.779 335.395 217.623C333.605 218.467 332.161 219.88 331.298 221.63C330.21 222.648 329.35 223.877 328.773 225.238C328.197 226.598 327.915 228.062 327.948 229.534C327.948 229.669 327.948 229.811 327.948 229.939C328.119 234.932 331.416 238.936 335.581 239.341C335.136 239.536 334.727 239.804 334.372 240.131C333.098 241.333 332.888 243.241 332.75 244.976L332.651 246.262L330.444 247.033C330.374 247.057 330.312 247.1 330.265 247.157C330.218 247.213 330.188 247.282 330.177 247.354C330.167 247.426 330.178 247.5 330.207 247.567C330.237 247.633 330.285 247.691 330.345 247.733L332.454 249.205C332.454 249.327 332.454 249.449 332.454 249.571C332.454 249.693 332.454 249.847 332.494 249.989C332.133 250.299 331.854 250.689 331.679 251.126C331.474 251.801 331.409 252.509 331.489 253.208L331.567 255.001C331.557 256.351 331.745 257.695 332.126 258.992C332.402 259.789 333.597 261.71 334.458 261.723C333.663 265.257 333.453 272.712 333.453 272.712C333.354 272.808 333.63 272.898 334.11 272.975C334.583 276.523 336.126 286.47 338.866 290.847C339.297 292.273 339.641 293.724 339.897 295.191C339.897 295.191 340.679 304.644 341.71 307.452C342.59 309.842 343.287 315.742 343.477 317.451C343.299 317.496 343.136 317.588 343.007 317.717C342.879 317.846 342.789 318.008 342.748 318.183C342.229 319.713 338.866 322.039 338.866 322.039C337.835 322.543 336.861 323.153 335.962 323.858C334.904 324.79 334.944 325.631 339.641 325.104C348.706 324.083 350.256 321.249 350.256 321.249C350.256 321.249 350.112 320.773 349.895 320.156C349.618 319.196 349.219 318.274 348.706 317.412C348.575 317.29 348.443 317.496 348.286 317.817C347.602 313.717 347.394 309.554 347.668 305.408C347.668 305.408 347.924 301.064 346.63 297.999C346.342 296.394 346.342 294.752 346.63 293.147C347.149 291.104 344.561 281.137 344.561 281.137L343.076 273.798C343.279 274.048 343.42 274.341 343.49 274.653L343.53 274.8L343.569 275.012C343.584 275.087 343.62 275.156 343.674 275.212C344.686 279.324 347.458 290.718 347.458 292.389C347.458 294.432 350.046 299.541 350.046 299.541C350.046 299.541 351.077 307.972 352.89 311.288C354.27 313.814 354.303 317.515 354.237 319.147C354.237 319.147 353.928 321.249 353.409 321.756C352.997 322.258 352.667 322.82 352.431 323.421L352.372 323.543C352.372 323.543 351.596 325.079 352.115 325.336C354.089 326.093 356.225 326.356 358.33 326.101C358.33 326.101 359.368 324.815 359.368 324.314C359.346 324.008 359.306 323.703 359.249 323.402C359.059 322.193 358.704 320.291 358.698 320.272C358.914 319.449 358.041 317.162 358.041 317.162L357.778 310.009C358.259 305.167 357.64 300.28 355.965 295.698C355.965 295.698 354.651 291.104 354.933 289.825C355.216 288.546 354.414 275.006 354.414 275.006L354.336 274.813C354.266 273.855 354.292 272.893 354.414 271.941C354.671 268.875 353.639 262.488 353.377 262.237C353.162 261.551 353.039 260.84 353.009 260.123C353.068 259.59 353.245 258.028 353.488 256.087C356.042 256.002 358.59 255.787 361.121 255.445C361.366 255.445 361.601 255.353 361.778 255.188C361.882 255.033 361.935 254.852 361.929 254.667C362.232 250.818 360.793 247.078 359.302 243.518ZM354.093 251.621C354.362 249.79 354.651 248.016 354.94 246.699L354.979 246.814C355.477 248.139 355.893 249.49 356.228 250.863C355.538 251.171 354.824 251.425 354.093 251.621Z" fill="url(#paint0_linear_248:14369)"/>
<path d="M333.836 272.39C333.836 272.39 335.379 286.078 338.722 291.397C339.151 292.811 339.494 294.25 339.748 295.704C339.748 295.704 340.52 305.079 341.547 307.865C342.574 310.65 343.345 318.258 343.345 318.258C343.345 318.258 346.943 322.307 348.231 319.019C347.422 314.674 347.163 310.248 347.459 305.84C347.459 305.84 347.714 301.533 346.432 298.49C346.146 296.899 346.146 295.271 346.432 293.68C346.943 291.649 344.372 281.771 344.372 281.771L342.319 271.887L333.836 272.39Z" fill="#BE6F72"/>
<path d="M350.192 321.234C350.192 321.234 348.685 323.804 339.907 324.737C335.349 325.219 335.317 324.452 336.344 323.595C337.216 322.95 338.157 322.392 339.154 321.93C339.154 321.93 342.416 319.83 342.914 318.426C343.412 317.022 345.174 318.194 345.174 318.194C347.683 321.698 348.187 317.254 348.685 317.724C349.185 318.509 349.574 319.351 349.841 320.228C350.051 320.794 350.192 321.234 350.192 321.234Z" fill="#FF6F61"/>
<path opacity="0.1" d="M350.277 321.158C350.277 321.158 348.733 323.985 339.736 325.012C335.064 325.542 335.031 324.698 336.085 323.756C336.818 324.22 338.296 324.41 341.273 323.213C345.559 321.459 348.667 320.445 349.917 320.052C350.133 320.674 350.277 321.158 350.277 321.158Z" fill="black"/>
<path opacity="0.1" d="M347.507 305.841C347.507 305.841 347.745 301.534 346.546 298.491C346.277 296.9 346.277 295.272 346.546 293.681C347.023 291.649 344.618 281.771 344.618 281.771L342.696 271.887L341.031 271.99L342.935 281.771C342.935 281.771 345.34 291.649 344.863 293.681C344.594 295.272 344.594 296.9 344.863 298.491C346.087 301.534 345.823 305.841 345.823 305.841C345.546 310.249 345.788 314.676 346.546 319.021C346.415 319.434 346.173 319.797 345.848 320.065C346.742 320.491 347.684 320.472 348.229 319.021C347.472 314.676 347.229 310.249 347.507 305.841Z" fill="black"/>
<path d="M346.03 214.823C344.314 214.82 342.632 215.298 341.175 216.204C339.251 215.76 337.233 215.98 335.451 216.83C333.668 217.68 332.226 219.108 331.36 220.882C330.281 221.903 329.427 223.138 328.853 224.508C328.28 225.879 327.999 227.354 328.03 228.839C328.03 234.309 331.713 238.739 336.254 238.739C339.526 238.739 342.392 236.409 343.707 233.04C344.463 233.24 345.242 233.341 346.023 233.341C348.479 233.341 350.834 232.365 352.57 230.629C354.307 228.892 355.282 226.537 355.282 224.082C355.282 221.626 354.307 219.271 352.57 217.535C350.834 215.799 348.479 214.823 346.023 214.823H346.03Z" fill="#3F3D56"/>
<path d="M353.556 273.851L354.345 275.841C354.345 275.841 355.135 289.046 354.867 290.295C354.6 291.544 355.924 296.001 355.924 296.001C357.625 300.462 358.254 305.227 357.765 309.948L358.026 316.921C358.026 316.921 359.076 319.66 358.554 320.161C358.032 320.662 354.064 319.717 354.064 319.717C354.064 319.717 354.593 314.487 352.726 311.248C350.859 308.008 349.835 299.786 349.835 299.786C349.835 299.786 347.205 294.803 347.205 292.812C347.205 290.822 342.996 274.624 342.996 274.624L353.556 273.851Z" fill="#BE6F72"/>
<path d="M333.856 273.505C333.856 273.505 334.118 264.347 335.165 261.551C335.699 260.244 336.083 258.883 336.312 257.493C336.312 257.493 351.891 260.276 353.181 259.26C353.181 259.26 353.436 262.819 353.698 263.072C353.96 263.324 355.008 269.686 354.727 272.741C354.445 275.796 354.727 275.789 354.727 275.789C354.727 275.789 344.17 277.317 343.915 275.789C343.659 274.262 342.886 274.268 342.886 274.268C342.886 274.268 333.345 273.983 333.856 273.505Z" fill="#3F3D56"/>
<g opacity="0.1">
<path opacity="0.1" d="M342.045 273.291C342.045 273.291 335.541 273.118 333.578 272.771C333.578 273.099 333.578 273.291 333.578 273.291C333.068 273.792 342.582 274.049 342.582 274.049C342.711 274.061 342.834 274.11 342.935 274.19C342.588 273.291 342.045 273.291 342.045 273.291Z" fill="black"/>
<path opacity="0.1" d="M353.366 262.938C353.104 262.687 352.849 259.155 352.849 259.155C352.716 259.236 352.566 259.289 352.411 259.309C352.502 260.375 352.679 262.013 352.849 262.18C353.019 262.347 354.158 268.744 353.876 271.775C353.595 274.807 353.876 274.8 353.876 274.8C353.876 274.8 345.534 276.001 343.512 275.199C343.512 275.308 343.571 275.43 343.59 275.558C343.845 277.074 354.393 275.558 354.393 275.558C354.393 275.558 354.131 275.558 354.393 272.533C354.655 269.508 353.621 263.195 353.366 262.938Z" fill="black"/>
</g>
<path d="M344.891 231.024C345.113 231.52 345.449 231.955 345.873 232.294C346.145 232.496 346.461 232.633 346.795 232.693C346.219 233.027 345.591 233.275 345.015 233.609C344.11 234.218 343.236 234.873 342.398 235.572C341.541 236.261 340.492 236.668 339.395 236.737C339.78 236.217 340.021 235.606 340.095 234.964C340.168 234.322 340.071 233.672 339.814 233.079C339.578 232.69 339.422 232.259 339.355 231.81C339.355 231.07 340.01 230.501 340.618 230.108C341.109 229.775 341.613 229.454 342.123 229.133C342.522 228.885 343.124 228.361 343.628 228.381C344.132 228.401 344.191 228.845 344.282 229.303C344.412 229.9 344.617 230.479 344.891 231.024Z" fill="#BE6F72"/>
<path opacity="0.1" d="M344.891 231.024C345.113 231.52 345.449 231.955 345.873 232.294C346.145 232.496 346.461 232.633 346.795 232.693C346.219 233.027 345.591 233.275 345.015 233.609C344.11 234.218 343.236 234.873 342.398 235.572C341.541 236.261 340.492 236.668 339.395 236.737C339.78 236.217 340.021 235.606 340.095 234.964C340.168 234.322 340.071 233.672 339.814 233.079C339.578 232.69 339.422 232.259 339.355 231.81C339.355 231.07 340.01 230.501 340.618 230.108C341.109 229.775 341.613 229.454 342.123 229.133C342.522 228.885 343.124 228.361 343.628 228.381C344.132 228.401 344.191 228.845 344.282 229.303C344.412 229.9 344.617 230.479 344.891 231.024Z" fill="black"/>
<path d="M350.846 247.677C354.098 247.677 356.735 245.04 356.735 241.788C356.735 238.535 354.098 235.899 350.846 235.899C347.594 235.899 344.957 238.535 344.957 241.788C344.957 245.04 347.594 247.677 350.846 247.677Z" fill="#BE6F72"/>
<path d="M359.274 324.239C359.274 324.756 358.247 326.038 358.247 326.038C356.158 326.295 354.038 326.03 352.077 325.266C351.56 325.011 352.332 323.467 352.332 323.467L352.391 323.343C352.626 322.737 352.955 322.172 353.366 321.668C353.876 321.157 354.184 319.05 354.184 319.05C355.78 316.433 358.613 320.182 358.613 320.182C358.613 320.182 358.973 322.145 359.163 323.336C359.228 323.761 359.274 324.108 359.274 324.239Z" fill="#FF6F61"/>
<path opacity="0.1" d="M359.274 324.238C359.274 324.755 358.247 326.038 358.247 326.038C356.158 326.294 354.038 326.029 352.077 325.266C351.56 325.01 352.332 323.466 352.332 323.466L352.391 323.342C354.143 324.156 356.061 324.55 357.992 324.494L359.163 323.322C359.228 323.761 359.274 324.107 359.274 324.238Z" fill="black"/>
<path d="M339.089 233.72C342.283 233.72 344.873 231.13 344.873 227.936C344.873 224.741 342.283 222.151 339.089 222.151C335.894 222.151 333.305 224.741 333.305 227.936C333.305 231.13 335.894 233.72 339.089 233.72Z" fill="#BE6F72"/>
<path d="M334.358 241.337C333.118 242.518 332.913 244.39 332.785 246.095L332.594 248.592C332.524 249.265 332.509 249.942 332.549 250.617C332.549 251.032 332.651 251.454 332.689 251.894C332.728 252.335 332.741 252.891 332.747 253.395V257.087C332.686 257.849 332.828 258.613 333.156 259.304C333.332 259.637 333.626 259.893 333.981 260.021C334.336 260.149 334.726 260.139 335.074 259.993C335.472 259.688 335.752 259.255 335.867 258.767C336.491 257.269 336.921 255.698 337.146 254.092C337.197 253.536 337.204 252.98 337.255 252.425C337.306 251.869 337.402 251.288 337.485 250.726C337.843 248.375 338.003 245.999 338.163 243.63C338.207 242.927 338.84 240.161 337.92 239.855C337.472 239.708 336.545 240.168 336.117 240.321C335.468 240.538 334.87 240.883 334.358 241.337Z" fill="#BE6F72"/>
<path opacity="0.1" d="M334.358 241.337C333.118 242.518 332.913 244.39 332.785 246.095L332.594 248.592C332.524 249.265 332.509 249.942 332.549 250.617C332.549 251.032 332.651 251.454 332.689 251.894C332.728 252.335 332.741 252.891 332.747 253.395V257.087C332.686 257.849 332.828 258.613 333.156 259.304C333.332 259.637 333.626 259.893 333.981 260.021C334.336 260.149 334.726 260.139 335.074 259.993C335.472 259.688 335.752 259.255 335.867 258.767C336.491 257.269 336.921 255.698 337.146 254.092C337.197 253.536 337.204 252.98 337.255 252.425C337.306 251.869 337.402 251.288 337.485 250.726C337.843 248.375 338.003 245.999 338.163 243.63C338.207 242.927 338.84 240.161 337.92 239.855C337.472 239.708 336.545 240.168 336.117 240.321C335.468 240.538 334.87 240.883 334.358 241.337Z" fill="black"/>
<path d="M346.28 233.281C346.28 233.281 341.842 236.54 339.231 237.293C339.231 237.293 337.683 238.989 337.417 239.397C337.151 239.806 336.62 244.308 336.088 245.316C335.557 246.324 334.261 248.575 336.088 250.826C336.088 250.826 336.606 253.084 336.347 253.837C336.088 254.589 335.138 257.344 336.002 257.472C336.865 257.599 339.483 259.347 341.828 258.849C344.174 258.352 352.93 260.763 352.93 260.763C352.93 260.763 354.379 247.848 355.428 245.565L353.077 244.812C353.077 244.812 346.552 241.056 350.465 235.29C350.459 235.29 346.791 234.538 346.28 233.281Z" fill="#FF6F61"/>
<path d="M330.72 248.608L335.803 252.186C335.868 252.233 335.946 252.258 336.025 252.258C336.105 252.258 336.183 252.233 336.248 252.186L337.625 251.159C337.667 251.123 337.701 251.078 337.725 251.027C337.748 250.977 337.76 250.922 337.76 250.867C337.76 250.811 337.748 250.756 337.725 250.706C337.701 250.655 337.667 250.61 337.625 250.574L333.712 247.121C333.662 247.075 333.599 247.044 333.532 247.03C333.464 247.017 333.395 247.023 333.33 247.046L330.82 247.942C330.754 247.965 330.695 248.005 330.651 248.058C330.606 248.112 330.577 248.176 330.567 248.245C330.556 248.313 330.565 248.384 330.592 248.448C330.619 248.512 330.663 248.567 330.72 248.608Z" fill="#3F3D56"/>
<path d="M332.496 259.93C332.144 258.605 331.969 257.232 331.975 255.853L331.902 254.011C331.828 253.296 331.888 252.572 332.079 251.883C332.268 251.411 332.552 250.99 332.909 250.65C333.266 250.311 333.688 250.062 334.145 249.922C335.06 249.646 336.016 249.572 336.958 249.702C337.085 249.703 337.21 249.739 337.32 249.809C337.416 249.905 337.484 250.03 337.516 250.168C337.655 250.463 337.737 250.785 337.756 251.116C337.775 251.447 337.731 251.778 337.626 252.089C337.484 252.343 337.291 252.559 337.062 252.721C336.394 253.24 335.616 253.586 334.985 254.151C334.856 254.245 334.758 254.38 334.703 254.537C334.672 254.674 334.672 254.818 334.703 254.956C334.781 255.321 334.888 255.68 335.021 256.026C335.075 256.2 335.17 256.356 335.297 256.478C335.414 256.585 335.567 256.625 335.689 256.724C335.953 256.957 336.504 257.263 336.474 257.629C336.382 258.959 335.646 260.448 335.358 261.765C334.807 264.338 332.852 261.053 332.496 259.93Z" fill="#BE6F72"/>
<g opacity="0.1">
<path opacity="0.1" d="M340.507 259.155H340.363C340.919 259.261 341.49 259.261 342.045 259.155H342.208C341.644 259.075 341.071 259.075 340.507 259.155Z" fill="black"/>
<path opacity="0.1" d="M354.006 245.398C353.084 247.434 351.723 258.462 351.48 260.652C352.383 260.883 352.979 261.05 352.979 261.05C352.979 261.05 354.392 248.076 355.426 245.777L354.006 245.398Z" fill="black"/>
</g>
<path d="M351.18 242.072C351.228 242.322 351.328 242.56 351.473 242.772C351.618 242.985 351.805 243.166 352.024 243.307C352.57 243.75 353.072 244.242 353.522 244.776C354.169 245.656 354.67 246.629 355.007 247.658C355.498 248.947 355.911 250.262 356.243 251.597C352.973 253.066 349.257 252.997 345.777 253.966C344.279 254.348 342.92 255.127 341.852 256.214C341.32 256.761 340.915 257.412 340.666 258.123C340.417 258.834 340.328 259.59 340.407 260.337C340.412 260.424 340.439 260.509 340.485 260.584C340.542 260.646 340.613 260.694 340.692 260.725C340.772 260.756 340.858 260.768 340.943 260.761C341.813 260.76 342.657 260.479 343.344 259.963C344.023 259.45 344.639 258.863 345.182 258.215C345.519 257.79 345.972 257.466 346.49 257.278C348.381 256.721 350.415 256.752 352.377 256.721C355.313 256.665 358.242 256.441 361.149 256.049C361.255 256.062 361.363 256.05 361.464 256.016C361.565 255.983 361.657 255.927 361.732 255.854C361.808 255.781 361.865 255.692 361.9 255.594C361.935 255.496 361.947 255.392 361.934 255.289C362.222 251.553 360.79 247.905 359.318 244.441C358.729 243.052 358.123 241.669 357.499 240.292C356.986 238.948 356.233 237.7 355.275 236.607C354.912 236.209 354.466 235.89 353.967 235.669C353.404 235.473 352.812 235.366 352.214 235.353C351.262 235.228 350.298 235.211 349.342 235.302C349.19 235.768 349.097 236.251 349.067 236.74C349.12 238.449 349.892 240.052 350.65 241.597C350.749 241.831 351.03 241.844 351.18 242.072Z" fill="#BE6F72"/>
<path opacity="0.1" d="M340.484 245.061C339.969 245.874 339.706 246.803 339.723 247.745C339.725 248.117 339.789 248.487 339.914 248.841C340.121 249.338 340.447 249.786 340.867 250.15C341.287 250.515 341.79 250.788 342.34 250.949" stroke="black" stroke-miterlimit="10"/>
<path d="M343.976 222.284C343.654 222.283 343.333 222.334 343.027 222.434C342.17 221.126 340.155 220.223 337.793 220.223C334.665 220.223 332.133 221.839 332.133 223.828C332.133 225.817 334.665 227.427 337.793 227.427C338.964 227.439 340.123 227.194 341.189 226.707C341.428 227.203 341.796 227.625 342.254 227.93C342.713 228.236 343.244 228.413 343.794 228.443C344.344 228.473 344.892 228.355 345.38 228.102C345.869 227.849 346.281 227.47 346.574 227.003C346.867 226.537 347.029 226 347.044 225.45C347.059 224.9 346.926 224.355 346.66 223.874C346.393 223.392 346.003 222.99 345.528 222.711C345.054 222.431 344.513 222.284 343.963 222.284H343.976Z" fill="#3F3D56"/>
<path opacity="0.1" d="M344.233 227.681C343.652 227.681 343.084 227.517 342.593 227.208C342.102 226.899 341.709 226.457 341.458 225.934C340.393 226.42 339.233 226.666 338.062 226.653C334.941 226.653 332.409 225.044 332.409 223.055C332.399 222.935 332.399 222.815 332.409 222.695C332.223 223.043 332.124 223.432 332.121 223.827C332.121 225.79 334.653 227.426 337.781 227.426C338.952 227.438 340.112 227.193 341.177 226.706C341.459 227.29 341.918 227.77 342.488 228.079C343.059 228.387 343.713 228.507 344.356 228.422C344.999 228.337 345.599 228.052 346.07 227.606C346.541 227.161 346.86 226.578 346.981 225.94C346.732 226.459 346.342 226.897 345.856 227.205C345.37 227.512 344.808 227.677 344.233 227.681Z" fill="black"/>
<path opacity="0.1" d="M331.369 222.401C332.236 220.627 333.678 219.199 335.46 218.349C337.242 217.499 339.26 217.279 341.184 217.723C342.53 216.892 344.067 216.42 345.648 216.352C347.229 216.284 348.801 216.623 350.213 217.336C351.626 218.048 352.832 219.112 353.716 220.423C354.601 221.735 355.134 223.252 355.265 224.829C355.265 224.574 355.265 224.319 355.265 224.057C355.262 222.411 354.819 220.796 353.983 219.379C353.148 217.961 351.949 216.792 350.511 215.992C349.073 215.192 347.447 214.79 345.802 214.827C344.157 214.865 342.552 215.34 341.151 216.205C339.227 215.761 337.21 215.981 335.427 216.831C333.645 217.681 332.203 219.109 331.337 220.883C330.257 221.904 329.404 223.139 328.83 224.509C328.256 225.88 327.976 227.355 328.006 228.84C328.006 229.102 328.006 229.357 328.006 229.612C328.135 226.86 329.343 224.269 331.369 222.401Z" fill="black"/>
<path opacity="0.1" d="M378.961 202.051C377.102 202.254 375.296 202.83 373.425 202.947C371.554 203.065 369.499 202.614 368.334 201.168C367.787 200.325 367.289 199.451 366.843 198.55C366.334 197.756 365.637 197.1 364.814 196.64C364.293 197.66 363.996 198.781 363.942 199.926C363.889 201.071 364.08 202.214 364.504 203.279C364.927 204.344 365.573 205.306 366.399 206.101C367.224 206.897 368.209 207.507 369.289 207.891C370.369 208.275 371.518 208.424 372.661 208.328C373.803 208.233 374.911 207.894 375.912 207.336C376.913 206.778 377.783 206.012 378.465 205.091C379.146 204.169 379.623 203.113 379.864 201.992C379.569 201.999 379.262 202.018 378.961 202.051Z" fill="black"/>
<path opacity="0.1" d="M356.662 214.018C355.274 214.082 353.893 213.786 352.653 213.159C351.413 212.531 350.356 211.594 349.585 210.438C348.814 209.282 348.355 207.946 348.252 206.56C348.15 205.174 348.407 203.785 349 202.528C349.64 202.957 350.191 203.506 350.623 204.144C351.101 205.063 351.634 205.953 352.219 206.808C353.469 208.286 355.615 208.771 357.558 208.679C359.502 208.587 361.38 208.025 363.316 207.861C363.585 207.861 363.86 207.815 364.128 207.809C363.728 209.515 362.783 211.044 361.436 212.165C360.089 213.286 358.413 213.936 356.662 214.018Z" fill="black"/>
<path d="M131.642 83.0442C131.579 81.6205 131.172 80.2363 130.459 79.0192C129.746 77.802 128.75 76.791 127.562 76.0793L125.729 79.8451L125.782 75.2847C124.91 75.0141 124 74.8996 123.091 74.9462C121.475 75.0245 119.918 75.5995 118.616 76.5984C117.314 77.5973 116.326 78.9752 115.778 80.5578C115.229 82.1405 115.144 83.8568 115.533 85.4897C115.923 87.1226 116.769 88.5988 117.965 89.7315C119.161 90.8642 120.653 91.6027 122.253 91.8534C123.853 92.1041 125.488 91.8558 126.952 91.14C128.416 90.4242 129.643 89.273 130.478 87.8319C131.313 86.3909 131.718 84.7247 131.642 83.0442Z" fill="#CDF4DE"/>
<path d="M139.573 78.1978C137.564 78.2983 135.59 77.626 134.027 76.3095C132.464 74.9929 131.423 73.1242 131.101 71.0602C130.78 68.9961 131.201 66.8812 132.284 65.1194C133.367 63.3575 135.037 62.072 136.974 61.5083L136.934 65.0121L138.789 61.2042C140.957 61.101 143.076 61.8968 144.681 63.4168C146.285 64.9368 147.243 67.0566 147.345 69.3106C147.396 70.4266 147.235 71.542 146.871 72.5932C146.506 73.6444 145.946 74.6107 145.223 75.4368C144.499 76.2628 143.626 76.9324 142.653 77.4074C141.68 77.8824 140.627 78.1533 139.553 78.2047L139.573 78.1978Z" fill="#CDF4DE"/>
<path opacity="0.1" d="M130.107 85.9111C128.275 86.1332 126.489 86.7439 124.651 86.8688C122.813 86.9937 120.781 86.5149 119.627 84.9742C119.087 84.0814 118.598 83.1544 118.163 82.1983C117.659 81.3578 116.973 80.6622 116.163 80.1719C115.649 81.2549 115.355 82.4436 115.302 83.6586C115.249 84.8737 115.437 86.0869 115.855 87.2172C116.272 88.3475 116.909 89.3688 117.723 90.2128C118.537 91.0568 119.509 91.704 120.575 92.1112C121.64 92.5183 122.773 92.676 123.9 92.5737C125.026 92.4714 126.119 92.1114 127.106 91.5179C128.093 90.9243 128.95 90.1109 129.621 89.132C130.292 88.1531 130.761 87.0313 130.997 85.8417C130.7 85.8556 130.403 85.8764 130.107 85.9111Z" fill="black"/>
<path opacity="0.1" d="M139.409 78.8532C138.037 78.9231 136.671 78.6252 135.441 77.9882C134.211 77.3511 133.159 76.3962 132.386 75.215C131.613 74.0338 131.145 72.6659 131.026 71.2424C130.907 69.8189 131.142 68.3876 131.708 67.0854C132.366 67.5408 132.94 68.1151 133.403 68.7811C134.055 69.6968 134.414 70.7549 135.144 71.5959C136.501 73.1695 138.777 73.7188 140.831 73.6714C142.885 73.6239 144.743 73.1152 146.7 72.9592C146.216 74.6027 145.256 76.0508 143.951 77.1057C142.646 78.1606 141.06 78.7709 139.409 78.8532Z" fill="black"/>
<path d="M156.48 229.192C157.271 229.192 157.913 228.547 157.913 227.752C157.913 226.957 157.271 226.312 156.48 226.312C155.688 226.312 155.047 226.957 155.047 227.752C155.047 228.547 155.688 229.192 156.48 229.192Z" fill="#E8E8F0"/>
<path d="M156.166 226.673C156.486 227.315 156.542 228.057 156.323 228.741C156.097 229.412 155.787 230.051 155.401 230.645C155.068 231.256 154.666 231.827 154.203 232.346C156.415 232.451 158.554 231.587 160.498 230.54C162.068 229.696 163.632 228.656 164.469 227.079C164.219 227.138 163.96 227.144 163.707 227.097C163.455 227.05 163.215 226.95 163.004 226.804C162.582 226.514 162.205 226.163 161.885 225.763L160.779 224.52C160.528 224.247 160.309 223.946 160.125 223.624C159.882 223.183 159.779 222.678 159.83 222.178C159.389 222.638 158.898 223.046 158.365 223.395C157.573 223.912 156.703 224.285 155.904 224.795C155.63 224.978 155.001 225.266 155.165 225.633C155.329 225.999 155.944 226.28 156.166 226.673Z" fill="#FBBEBE"/>
<path d="M155.335 228.328C156.361 228.328 157.193 227.49 157.193 226.457C157.193 225.423 156.361 224.585 155.335 224.585C154.309 224.585 153.477 225.423 153.477 226.457C153.477 227.49 154.309 228.328 155.335 228.328Z" fill="#2F2E41"/>
<path opacity="0.1" d="M156.166 226.673C156.486 227.315 156.542 228.057 156.323 228.741C156.097 229.412 155.787 230.051 155.401 230.645C155.068 231.256 154.666 231.827 154.203 232.346C156.415 232.451 158.554 231.587 160.498 230.54C162.068 229.696 163.632 228.656 164.469 227.079C164.219 227.138 163.96 227.144 163.707 227.097C163.455 227.05 163.215 226.95 163.004 226.804C162.582 226.514 162.205 226.163 161.885 225.763L160.779 224.52C160.528 224.247 160.309 223.946 160.125 223.624C159.882 223.183 159.779 222.678 159.83 222.178C159.389 222.638 158.898 223.046 158.365 223.395C157.573 223.912 156.703 224.285 155.904 224.795C155.63 224.978 155.001 225.266 155.165 225.633C155.329 225.999 155.944 226.28 156.166 226.673Z" fill="black"/>
<path d="M161.422 225.327C161.017 225.539 160.667 225.84 160.398 226.209C160.129 226.578 159.949 227.004 159.871 227.454C159.721 228.356 159.458 229.235 159.086 230.071C158.026 231.916 155.323 232.453 154.571 234.448C154.382 235.119 154.28 235.812 154.27 236.509C154.139 237.942 153.668 239.323 153.524 240.749C153.452 241.86 153.478 242.974 153.602 244.08L154.551 255.347C154.733 257.005 154.638 258.681 154.27 260.307C155.242 260.446 156.234 260.281 157.11 259.836C157.993 259.43 158.804 258.874 159.661 258.403C161.127 257.592 162.75 257.022 164.039 255.943C164.27 255.759 164.469 255.538 164.628 255.288C164.825 254.816 164.957 254.318 165.02 253.81C165.132 253.411 165.274 253.022 165.446 252.645C165.918 251.508 166.329 250.346 166.676 249.164C166.912 248.382 167.1 247.587 167.238 246.782C167.343 246.128 167.402 245.474 167.454 244.819C167.523 243.805 167.725 242.804 168.056 241.842C168.877 239.545 169.343 237.135 169.437 234.697C169.462 234.346 169.438 233.994 169.365 233.65C169.221 233.229 169.028 232.827 168.789 232.453C168.397 231.713 168.135 230.902 167.795 230.149C166.867 228.492 165.537 227.095 163.928 226.086C163.169 225.569 162.279 225.02 161.422 225.327Z" fill="#2F2E41"/>
<path opacity="0.1" d="M147.774 214.262C148.16 212.836 150.28 212.155 152.596 212.679C152.871 210.962 153.744 209.397 155.062 208.262C156.379 207.127 158.055 206.494 159.794 206.476H160.271C159.605 206.273 158.913 206.17 158.217 206.168C156.478 206.187 154.802 206.819 153.485 207.955C152.167 209.09 151.294 210.654 151.019 212.371C148.703 211.848 146.583 212.528 146.197 213.955C145.811 215.381 147.447 217.226 149.887 217.881C150.345 218.007 150.814 218.089 151.288 218.123C148.952 217.423 147.388 215.722 147.774 214.262Z" fill="black"/>
<path d="M173.525 223.65C173.534 222.646 173.307 221.654 172.862 220.754C172.418 219.854 171.769 219.071 170.967 218.467C170.957 216.693 170.321 214.98 169.17 213.629C168.02 212.279 166.429 211.378 164.679 211.087C164.408 209.797 163.804 208.601 162.925 207.619C162.046 206.637 160.925 205.904 159.673 205.492C159.369 205.397 159.059 205.325 158.744 205.276H158.652H158.489H158.358H158.214H158.037H157.638C155.9 205.317 154.231 205.971 152.928 207.123C151.625 208.275 150.772 209.85 150.519 211.571C148.223 211.041 146.122 211.728 145.736 213.181C145.639 213.566 145.662 213.973 145.802 214.345C146.194 215.471 147.47 216.55 149.178 217.08L149.4 217.146L149.734 217.231H149.806C149.441 218.006 149.254 218.854 149.256 219.711C149.251 220.763 149.536 221.795 150.08 222.696C150.623 223.596 151.405 224.329 152.338 224.814L152.188 224.906C151.975 225.1 151.806 225.336 151.691 225.6C151.277 226.33 150.954 227.108 150.729 227.916C150.565 228.609 150.539 229.329 150.336 230.016C149.957 231.279 148.988 232.346 148.877 233.661C148.825 234.25 148.923 234.969 148.504 235.349C148.401 235.438 148.289 235.517 148.17 235.584C147.88 235.789 147.633 236.05 147.444 236.35C147.319 236.623 147.146 236.871 146.934 237.083C146.554 237.364 145.933 237.338 145.749 237.776C145.566 238.215 146.044 238.732 145.933 239.209C145.821 239.687 145.416 239.779 145.121 240.047C144.779 240.415 144.537 240.866 144.421 241.356C143.802 241.474 143.164 241.454 142.554 241.298C141.943 241.142 141.374 240.853 140.888 240.453C141.055 240.875 141.177 241.314 141.254 241.761C140.685 241.327 140.039 241.003 139.35 240.806C138.575 240.454 137.884 239.941 137.322 239.301L138.408 239.151L133.612 231.829L132.192 231.534L133.461 233.975C133.355 234.023 133.261 234.095 133.186 234.184C133.112 234.274 133.058 234.379 133.029 234.492C132.962 234.763 132.946 235.045 132.984 235.323C133.049 235.984 133.158 236.639 133.311 237.286L133.677 239C133.71 239.157 133.749 239.321 133.795 239.478C133.316 239.454 132.837 239.507 132.375 239.635C131.424 239.281 130.433 239.046 129.424 238.935C129.208 238.891 128.986 238.891 128.77 238.935C128.525 239.051 128.312 239.223 128.148 239.438C127.322 240.397 126.588 241.431 125.956 242.527C123.339 247.015 119.93 250.935 116.704 254.992C114.479 255.895 112.235 256.752 109.991 257.609L105.162 259.454C104.22 259.881 103.199 260.104 102.165 260.108C101.707 260.108 101.138 260.01 100.856 260.403C100.73 260.607 100.631 260.827 100.562 261.057L100.065 261.11C99.8357 260.324 99.4407 259.596 98.9065 258.976C98.7887 258.997 98.6776 259.045 98.5829 259.118C98.4883 259.191 98.4129 259.286 98.3634 259.395C98.2456 259.611 98.1737 259.847 98.0363 260.05C97.7811 260.429 97.3296 260.612 97.009 260.933C96.6883 261.253 96.4855 261.751 96.1322 262.078C95.6505 262.434 95.0846 262.66 94.4898 262.732C93.5932 262.942 92.7284 263.269 91.9184 263.707C91.6219 263.893 91.3031 264.04 90.9696 264.146C90.601 264.217 90.2234 264.231 89.8507 264.185L87.2989 263.995C87.0697 263.967 86.8373 263.978 86.6118 264.028C86.3556 264.132 86.1391 264.315 85.9933 264.55C85.8475 264.785 85.78 265.061 85.8005 265.336C85.8334 265.614 85.9223 265.881 86.0617 266.123C86.2012 266.365 86.3884 266.576 86.6118 266.743C87.0532 267.069 87.5435 267.323 88.0644 267.496C90.2728 268.355 92.549 269.03 94.8693 269.511V270.028C96.4928 270.846 98.2858 271.272 100.104 271.271C100.239 271.28 100.374 271.255 100.497 271.199C100.664 271.074 100.78 270.893 100.824 270.689C101.366 269.066 101.709 267.383 101.844 265.677C102.164 265.655 102.476 265.575 102.767 265.441C103.644 265.199 104.521 265.801 105.43 265.899C106.549 266.023 107.583 265.369 108.643 264.97L109.101 264.82C108.799 265.208 108.442 265.549 108.041 265.834C107.602 266.148 107.112 266.383 106.686 266.71C106.326 267.037 105.941 267.334 105.535 267.6C105.248 267.733 104.953 267.847 104.651 267.941C104.205 268.106 103.781 268.326 103.389 268.595C103.041 268.802 102.747 269.089 102.531 269.432C102.424 269.608 102.361 269.807 102.349 270.012C102.336 270.218 102.374 270.423 102.459 270.61C102.55 270.763 102.672 270.895 102.818 270.996C102.963 271.098 103.129 271.167 103.304 271.199C103.648 271.252 103.999 271.252 104.344 271.199C105.731 271.094 107.112 270.97 108.492 270.846C109.076 270.809 109.656 270.726 110.226 270.597C110.527 270.525 110.828 270.427 111.129 270.342C111.646 270.212 112.174 270.133 112.706 270.106C112.86 270.094 113.015 270.11 113.164 270.152C113.485 270.257 113.714 270.584 114.041 270.65C114.263 270.678 114.488 270.648 114.695 270.564C115.704 270.347 116.732 270.238 117.764 270.237C118.215 270.237 118.745 270.126 118.955 269.707C119.164 269.289 118.785 268.615 118.615 268.058C118.527 267.703 118.479 267.338 118.471 266.972C118.392 266.071 118.134 265.194 117.712 264.394C117.484 264.021 117.293 263.627 117.142 263.216C119.121 262.465 121.014 261.504 122.789 260.351C123.762 259.646 124.852 259.121 126.008 258.8C127.375 258.637 128.76 258.798 130.052 259.271C133.198 260.183 136.293 261.261 139.324 262.503C140.77 263.099 142.209 263.727 143.701 264.178C144.136 264.762 144.662 265.272 145.259 265.69C146.289 266.269 147.446 266.586 148.628 266.612C150.205 266.756 151.789 266.815 153.372 266.789C154.584 266.842 155.793 266.618 156.905 266.135C157.171 266.002 157.419 265.837 157.645 265.644C158.072 265.68 158.502 265.622 158.905 265.474C159.307 265.326 159.672 265.091 159.974 264.787C160.832 264.052 161.45 263.076 161.747 261.986C162.133 260.494 161.839 258.715 162.755 257.524C162.997 257.197 163.318 256.935 163.56 256.608C163.853 256.16 163.999 255.631 163.979 255.096C163.989 255.075 164.003 255.055 164.018 255.037C164.219 254.557 164.351 254.05 164.411 253.532C164.523 253.126 164.665 252.728 164.836 252.342C165.301 251.187 165.707 250.01 166.053 248.815C166.289 248.02 166.477 247.211 166.616 246.394C166.714 245.74 166.773 245.085 166.825 244.431C166.894 243.4 167.094 242.382 167.42 241.401C168.24 239.067 168.703 236.623 168.794 234.152V234.008C170 233.869 171.11 233.285 171.907 232.369C172.703 231.454 173.129 230.274 173.1 229.061C173.1 228.332 172.946 227.612 172.648 226.947C173.227 225.945 173.53 224.807 173.525 223.65ZM150.114 252.093C150.186 252.348 150.271 252.597 150.356 252.845C149.97 252.473 149.597 252.086 149.211 251.707C149.361 251.759 149.518 251.805 149.662 251.864C149.813 251.926 149.958 252.002 150.094 252.093H150.114ZM148.262 250.837C145.998 248.874 143.381 247.349 141.064 245.445C142.327 246.067 143.557 246.793 144.774 247.487C146.218 248.311 147.682 249.103 149.165 249.862C148.921 250.242 148.608 250.573 148.242 250.837H148.262ZM149.224 245.89L149.335 245.779C149.335 246.06 149.335 246.315 149.335 246.557L148.726 246.348C148.895 246.205 149.054 246.052 149.204 245.89H149.224ZM129.313 251.19C130.241 250.139 131.049 248.986 131.721 247.755C132.617 249.319 134.076 250.451 135.313 251.766C133.317 251.511 131.315 251.295 129.313 251.19Z" fill="url(#paint1_linear_248:14369)"/>
<path d="M132.535 232.136L133.962 232.424L138.823 239.615L136.684 239.903L132.535 232.136Z" fill="#2F2E41"/>
<path d="M97.9453 261.308C98.3323 262.577 98.809 263.817 99.3717 265.018C100.983 264.678 102.568 264.225 104.116 263.664C103.81 263.21 103.481 262.773 103.128 262.355C102.744 261.937 102.29 261.59 101.786 261.328C101.25 261.206 100.693 261.206 100.157 261.328C99.4241 261.308 98.6847 261.321 97.9453 261.308Z" fill="#FBBEBE"/>
<path d="M101.793 263.223C101.406 263.05 101.061 262.795 100.781 262.477C100.501 262.159 100.293 261.784 100.171 261.378C99.9214 260.563 99.4996 259.811 98.934 259.173C98.8149 259.189 98.7019 259.236 98.6057 259.308C98.5095 259.38 98.4333 259.475 98.3843 259.585C98.2666 259.794 98.1946 260.03 98.0637 260.239C97.802 260.612 97.344 260.796 97.0168 261.11C96.6897 261.424 96.4934 261.914 96.14 262.235C95.6543 262.593 95.0838 262.818 94.4846 262.889C93.5741 263.095 92.6942 263.418 91.8673 263.851C91.5647 264.032 91.2418 264.177 90.9055 264.283C90.5324 264.339 90.1531 264.339 89.78 264.283L87.202 264.1C86.9854 264.064 86.7643 264.064 86.5477 264.1C86.2845 264.195 86.0609 264.376 85.9126 264.613C85.7643 264.85 85.6999 265.13 85.7298 265.409C85.7603 265.684 85.8489 265.951 85.9899 266.19C86.1309 266.429 86.321 266.635 86.5477 266.796C86.9955 267.117 87.4898 267.369 88.0134 267.542C90.258 268.387 92.5692 269.044 94.923 269.505V270.015C96.5623 270.82 98.3641 271.238 100.19 271.239C100.324 271.247 100.459 271.224 100.583 271.173C100.75 271.048 100.866 270.867 100.91 270.663C101.53 268.855 101.894 266.97 101.99 265.062C102.032 264.577 101.994 264.088 101.878 263.616C101.734 263.151 102.219 263.347 101.774 263.164" fill="#2F2E41"/>
<path d="M151.232 253.509C143.589 253.967 136.039 251.729 128.383 251.493C127.433 251.431 126.478 251.49 125.543 251.67C124.569 251.934 123.626 252.3 122.73 252.763C118.627 254.673 114.381 256.257 110.141 257.834L105.266 259.646C104.318 260.074 103.29 260.297 102.249 260.3C101.785 260.3 101.216 260.202 100.941 260.588C100.149 261.766 100.522 263.487 101.045 264.809C101.216 265.234 101.504 265.699 101.962 265.744C102.283 265.723 102.598 265.643 102.891 265.509C103.774 265.273 104.657 265.869 105.573 265.967C106.699 266.085 107.746 265.443 108.812 265.051C110.579 264.397 112.503 264.397 114.361 264.109C117.469 263.592 120.354 262.146 123.05 260.503C124.03 259.805 125.127 259.286 126.289 258.972C127.666 258.81 129.061 258.969 130.366 259.437C133.536 260.331 136.657 261.393 139.716 262.617C141.306 263.309 142.936 263.905 144.597 264.403C148.223 265.352 152.057 265.123 155.544 263.749C156.767 263.265 158.096 262.44 158.161 261.092C158.207 260.34 157.618 259.679 157.232 259.031C156.983 258.619 156.728 258.207 156.46 257.808C155.151 255.91 153.555 253.371 151.232 253.509Z" fill="#2F2E41"/>
<path opacity="0.1" d="M151.232 253.509C143.589 253.967 136.039 251.729 128.383 251.493C127.433 251.431 126.478 251.49 125.543 251.67C124.569 251.934 123.626 252.3 122.73 252.763C118.627 254.673 114.381 256.257 110.141 257.834L105.266 259.646C104.318 260.074 103.29 260.297 102.249 260.3C101.785 260.3 101.216 260.202 100.941 260.588C100.149 261.766 100.522 263.487 101.045 264.809C101.216 265.234 101.504 265.699 101.962 265.744C102.283 265.723 102.598 265.643 102.891 265.509C103.774 265.273 104.657 265.869 105.573 265.967C106.699 266.085 107.746 265.443 108.812 265.051C110.579 264.397 112.503 264.397 114.361 264.109C117.469 263.592 120.354 262.146 123.05 260.503C124.03 259.805 125.127 259.286 126.289 258.972C127.666 258.81 129.061 258.969 130.366 259.437C133.536 260.331 136.657 261.393 139.716 262.617C141.306 263.309 142.936 263.905 144.597 264.403C148.223 265.352 152.057 265.123 155.544 263.749C156.767 263.265 158.096 262.44 158.161 261.092C158.207 260.34 157.618 259.679 157.232 259.031C156.983 258.619 156.728 258.207 156.46 257.808C155.151 255.91 153.555 253.371 151.232 253.509Z" fill="black"/>
<path d="M112.621 261.661C113.816 262.067 115.022 262.442 116.239 262.787C116.894 261.668 118.202 260.889 118.484 259.607C118.5 259.551 118.5 259.492 118.484 259.437C118.452 259.382 118.404 259.339 118.346 259.312C117.472 258.832 116.502 258.548 115.507 258.481C114.721 258.436 114.362 259.253 114.008 259.829C113.871 260.084 112.942 261.786 112.621 261.661Z" fill="#FBBEBE"/>
<path d="M114.299 260.861C113.941 260.801 113.6 260.666 113.297 260.467C112.994 260.268 112.736 260.007 112.538 259.703C112.375 259.408 112.192 259.009 111.851 259.049C111.511 259.088 111.4 259.441 111.328 259.749C111.101 260.908 110.771 262.045 110.34 263.145C109.908 264.25 109.176 265.213 108.226 265.925C107.781 266.233 107.291 266.462 106.852 266.789C106.489 267.111 106.102 267.404 105.694 267.666C105.405 267.795 105.108 267.905 104.804 267.993C104.357 268.161 103.931 268.381 103.535 268.647C103.182 268.85 102.883 269.135 102.665 269.478C102.557 269.65 102.494 269.846 102.482 270.049C102.471 270.252 102.511 270.454 102.599 270.637C102.691 270.787 102.813 270.916 102.959 271.016C103.105 271.115 103.27 271.182 103.443 271.212C103.793 271.265 104.148 271.265 104.497 271.212C105.89 271.114 107.284 270.99 108.678 270.866C109.265 270.828 109.849 270.747 110.425 270.624L111.334 270.375C111.854 270.238 112.387 270.159 112.924 270.139C113.081 270.125 113.238 270.141 113.389 270.185C113.71 270.29 113.939 270.61 114.272 270.676C114.494 270.697 114.718 270.668 114.927 270.591C115.944 270.373 116.981 270.265 118.022 270.27C118.48 270.27 119.016 270.152 119.226 269.747C119.487 269.236 119.055 268.667 118.879 268.117C118.794 267.768 118.746 267.41 118.735 267.051C118.657 266.161 118.396 265.297 117.969 264.512C117.616 263.858 117.132 263.138 117.38 262.445C117.504 262.224 117.584 261.982 117.616 261.731C117.518 260.606 114.94 261.005 114.299 260.861Z" fill="#2F2E41"/>
<path d="M139.779 241.244C138.422 240.65 137.336 239.572 136.729 238.221C136.605 237.933 136.5 237.626 136.376 237.338C135.977 236.363 135.354 235.495 134.557 234.806C134.473 234.717 134.372 234.646 134.259 234.597C134.147 234.549 134.025 234.524 133.903 234.524C133.781 234.561 133.672 234.629 133.585 234.723C133.499 234.816 133.439 234.93 133.412 235.054C133.339 235.321 133.321 235.599 133.36 235.872C133.426 236.516 133.535 237.154 133.687 237.783L134.06 239.471C134.109 239.729 134.186 239.982 134.289 240.224C134.448 240.506 134.659 240.757 134.91 240.963C135.251 241.277 135.597 241.578 135.944 241.879C136.145 242.053 136.364 242.205 136.599 242.33C136.964 242.505 137.355 242.62 137.757 242.671C139.318 242.874 140.808 243.448 142.101 244.346C142.101 244.346 142.101 243.214 142.101 243.089C142.085 242.761 141.971 242.444 141.774 242.18C141.175 241.743 140.497 241.426 139.779 241.244Z" fill="#FBBEBE"/>
<path opacity="0.1" d="M139.779 241.244C138.422 240.65 137.336 239.572 136.729 238.221C136.605 237.933 136.5 237.626 136.376 237.338C135.977 236.363 135.354 235.495 134.557 234.806C134.473 234.717 134.372 234.646 134.259 234.597C134.147 234.549 134.025 234.524 133.903 234.524C133.781 234.561 133.672 234.629 133.585 234.723C133.499 234.816 133.439 234.93 133.412 235.054C133.339 235.321 133.321 235.599 133.36 235.872C133.426 236.516 133.535 237.154 133.687 237.783L134.06 239.471C134.109 239.729 134.186 239.982 134.289 240.224C134.448 240.506 134.659 240.757 134.91 240.963C135.251 241.277 135.597 241.578 135.944 241.879C136.145 242.053 136.364 242.205 136.599 242.33C136.964 242.505 137.355 242.62 137.757 242.671C139.318 242.874 140.808 243.448 142.101 244.346C142.101 244.346 142.101 243.214 142.101 243.089C142.085 242.761 141.971 242.444 141.774 242.18C141.175 241.743 140.497 241.426 139.779 241.244Z" fill="black"/>
<path d="M154.186 225.331C153.688 225.212 153.164 225.287 152.72 225.541C152.505 225.732 152.334 225.966 152.216 226.228C151.8 226.944 151.475 227.709 151.248 228.505C151.084 229.159 151.058 229.899 150.848 230.572C150.469 231.816 149.494 232.869 149.383 234.165C149.33 234.747 149.429 235.428 149.003 235.82C148.899 235.91 148.788 235.991 148.67 236.062C148.375 236.259 148.125 236.515 147.937 236.815C147.809 237.082 147.634 237.323 147.42 237.528C147.04 237.809 146.412 237.783 146.229 238.182C146.046 238.581 146.523 239.124 146.412 239.596C146.301 240.067 145.889 240.158 145.594 240.42C145.247 240.786 145.004 241.238 144.888 241.729C144.266 241.848 143.625 241.832 143.011 241.679C142.396 241.526 141.822 241.242 141.328 240.845C141.76 242.157 141.948 243.536 141.884 244.915C141.917 245.136 141.905 245.361 141.848 245.577C141.792 245.792 141.693 245.995 141.557 246.171C143.033 246.281 144.495 246.536 145.921 246.93C146.539 247.137 147.208 247.137 147.826 246.93C148.156 246.753 148.453 246.518 148.702 246.237C149.487 245.439 150.312 244.568 150.502 243.463C150.549 242.838 150.56 242.211 150.534 241.585C150.609 240.808 150.769 240.042 151.012 239.301C151.426 237.762 151.704 236.19 151.843 234.603C151.928 233.622 152.779 232.836 153.224 231.986C154.061 230.33 154.925 228.61 154.984 226.751C155.01 226.149 154.801 225.397 154.186 225.331Z" fill="#2F2E41"/>
<path opacity="0.1" d="M154.186 225.331C153.688 225.212 153.164 225.287 152.72 225.541C152.505 225.732 152.334 225.966 152.216 226.228C151.8 226.944 151.475 227.709 151.248 228.505C151.084 229.159 151.058 229.899 150.848 230.572C150.469 231.816 149.494 232.869 149.383 234.165C149.33 234.747 149.429 235.428 149.003 235.82C148.899 235.91 148.788 235.991 148.67 236.062C148.375 236.259 148.125 236.515 147.937 236.815C147.809 237.082 147.634 237.323 147.42 237.528C147.04 237.809 146.412 237.783 146.229 238.182C146.046 238.581 146.523 239.124 146.412 239.596C146.301 240.067 145.889 240.158 145.594 240.42C145.247 240.786 145.004 241.238 144.888 241.729C144.266 241.848 143.625 241.832 143.011 241.679C142.396 241.526 141.822 241.242 141.328 240.845C141.76 242.157 141.948 243.536 141.884 244.915C141.917 245.136 141.905 245.361 141.848 245.577C141.792 245.792 141.693 245.995 141.557 246.171C143.033 246.281 144.495 246.536 145.921 246.93C146.539 247.137 147.208 247.137 147.826 246.93C148.156 246.753 148.453 246.518 148.702 246.237C149.487 245.439 150.312 244.568 150.502 243.463C150.549 242.838 150.56 242.211 150.534 241.585C150.609 240.808 150.769 240.042 151.012 239.301C151.426 237.762 151.704 236.19 151.843 234.603C151.928 233.622 152.779 232.836 153.224 231.986C154.061 230.33 154.925 228.61 154.984 226.751C155.01 226.149 154.801 225.397 154.186 225.331Z" fill="black"/>
<path d="M152.444 255.118C150.854 254.359 149.69 252.952 148.401 251.742C145.947 249.432 142.943 247.816 140.359 245.637C138.645 244.204 137.087 242.536 135.236 241.332C133.577 240.28 131.699 239.624 129.746 239.415C129.531 239.365 129.307 239.365 129.092 239.415C128.844 239.52 128.63 239.689 128.47 239.905C127.635 240.847 126.893 241.865 126.252 242.948C122.98 248.51 118.328 253.181 114.474 258.351C114.385 258.458 114.321 258.583 114.284 258.717C114.268 258.917 114.319 259.118 114.428 259.286L115.213 260.817C115.652 261.681 116.358 262.682 117.301 262.512C117.725 262.389 118.105 262.146 118.393 261.812L121.914 258.442L125.604 254.915C127.763 252.854 129.962 250.741 131.375 248.097C132.474 250.008 134.431 251.258 135.766 253.005C136.276 253.659 136.695 254.399 137.153 255.105C137.879 256.231 138.71 257.291 139.534 258.377L143.768 263.775C144.304 264.537 144.968 265.201 145.731 265.738C146.775 266.306 147.939 266.618 149.127 266.647C150.717 266.789 152.314 266.846 153.91 266.818C155.132 266.867 156.351 266.643 157.476 266.163C158.037 265.917 158.516 265.516 158.858 265.007C159.2 264.498 159.39 263.903 159.406 263.291C159.341 262.657 159.133 262.046 158.798 261.504C157.267 258.776 155.29 256.473 152.444 255.118Z" fill="#2F2E41"/>
<path d="M156.193 226.889C155.969 227.204 155.849 227.581 155.849 227.968C155.849 228.355 155.969 228.732 156.193 229.048C156.259 229.126 156.494 229.617 156.593 229.624C156.641 229.62 156.687 229.606 156.73 229.583C156.773 229.561 156.811 229.53 156.841 229.493C157.344 228.968 157.812 228.411 158.241 227.824C158.68 227.239 159.31 226.827 160.021 226.66C160.903 226.626 161.769 226.896 162.475 227.425C162.803 227.575 163.092 227.799 163.319 228.079C163.477 228.368 163.571 228.687 163.594 229.015C163.808 230.99 163.891 232.977 163.842 234.963C163.88 236.397 163.786 237.832 163.561 239.249C163.417 239.975 163.208 240.688 163.11 241.428C163.033 242.079 163.002 242.735 163.018 243.391V246.126C163 246.627 163.036 247.13 163.123 247.624C163.253 248.219 163.535 248.776 163.725 249.358C163.92 250.027 164.054 250.712 164.124 251.406L164.497 254.233C164.614 255.122 164.706 256.097 164.163 256.85C163.921 257.171 163.6 257.432 163.352 257.753C162.429 258.957 162.697 260.678 162.337 262.15C162.034 263.227 161.409 264.186 160.545 264.898C160.237 265.203 159.865 265.436 159.457 265.582C159.049 265.728 158.614 265.783 158.182 265.742C157.031 265.526 156.344 264.329 156.03 263.197C155.716 262.065 155.604 260.835 154.924 259.879C154.299 259.156 153.561 258.54 152.739 258.054C151.906 257.561 151.295 256.767 151.031 255.836C150.959 255.423 151.031 254.998 150.959 254.579C150.897 254.052 150.695 253.552 150.374 253.129C150.053 252.707 149.625 252.378 149.133 252.178C148.544 251.949 147.825 251.864 147.484 251.327C148.327 250.8 148.941 249.976 149.205 249.018C149.466 248.066 149.606 247.086 149.624 246.099L149.82 242.828C149.912 241.356 149.951 239.903 150.599 238.581C150.887 237.992 151.253 237.436 151.548 236.854C151.947 236.036 152.286 235.189 152.562 234.322C153.033 232.974 153.504 231.626 153.923 230.265C154.086 229.604 154.337 228.968 154.669 228.374C155.022 227.759 155.533 227.019 156.193 226.889Z" fill="#E8E8F0"/>
<path d="M148.898 248.245H149.768L149.952 246.937C149.975 246.674 150.037 246.416 150.135 246.171C150.278 245.911 150.447 245.666 150.639 245.438C151.489 244.228 151.43 242.625 151.64 241.153C152.019 239.207 152.662 237.323 153.55 235.552L155.238 231.789C155.392 231.481 155.515 231.159 155.605 230.827C155.676 230.461 155.711 230.088 155.71 229.715C155.71 229.133 155.893 227.013 155.912 226.443C155.912 226.227 155.435 226.345 155.337 226.156C155.127 225.737 154.839 226.869 154.44 227.117C154.065 227.404 153.792 227.803 153.662 228.256C153.295 229.198 153.073 230.219 152.732 231.155C152.437 232.131 151.893 233.015 151.155 233.719C150.809 234.02 150.41 234.263 150.082 234.59C149.035 235.624 148.931 237.266 148.898 238.745C148.872 239.648 148.702 248.245 148.898 248.245Z" fill="#2F2E41"/>
<path d="M141.655 243.711C140.983 243.359 140.375 242.896 139.855 242.344C139.62 242.069 139.424 241.761 139.201 241.487C138.594 240.834 137.806 240.378 136.937 240.178C136.078 239.989 135.199 239.903 134.32 239.923C133.73 239.883 133.137 239.954 132.573 240.132C132.292 240.226 132.038 240.389 131.836 240.607C131.634 240.824 131.489 241.088 131.415 241.375C131.391 241.731 131.46 242.087 131.615 242.408C131.769 242.729 132.005 243.005 132.298 243.207C132.809 243.627 133.412 243.918 134.058 244.058C134.584 244.151 135.115 244.215 135.648 244.248C138.776 244.575 141.57 246.276 144.311 247.827C146.719 249.197 149.175 250.47 151.679 251.648C151.776 250.9 151.818 250.145 151.803 249.391C151.803 248.828 151.758 247.964 151.228 247.631C150.474 247.315 149.688 247.08 148.885 246.931C147.27 246.403 145.694 245.765 144.167 245.02C143.304 244.647 142.473 244.189 141.655 243.711Z" fill="#FBBEBE"/>
<path d="M155.337 226.031C158.415 226.031 160.911 223.521 160.911 220.424C160.911 217.327 158.415 214.816 155.337 214.816C152.258 214.816 149.762 217.327 149.762 220.424C149.762 223.521 152.258 226.031 155.337 226.031Z" fill="#FBBEBE"/>
<path d="M163.011 231.68C162.566 232.305 162.203 232.985 161.931 233.702C161.277 235.116 160.165 236.32 159.622 237.818C159.079 239.316 159.072 241.24 157.953 242.464C157.729 242.651 157.56 242.895 157.462 243.17C157.458 243.341 157.44 243.512 157.41 243.681C157.246 244.126 156.52 244.145 156.383 244.603C156.344 244.734 156.383 244.878 156.317 245.009C156.206 245.303 155.814 245.349 155.558 245.526C155.015 245.892 155.126 246.743 154.74 247.273C154.572 247.47 154.354 247.62 154.11 247.706C153.865 247.792 153.602 247.812 153.347 247.764C152.839 247.66 152.351 247.477 151.901 247.221C151.739 247.132 151.561 247.076 151.377 247.057C151.16 247.065 150.95 247.138 150.775 247.266C150.282 247.63 149.886 248.11 149.623 248.664C149.361 249.217 149.24 249.828 149.27 250.44C149.345 251.666 149.638 252.869 150.134 253.993C150.189 254.187 150.285 254.368 150.415 254.523C150.61 254.676 150.846 254.767 151.093 254.786C151.34 254.805 151.587 254.749 151.803 254.627C152.229 254.374 152.684 254.17 153.157 254.019C154.021 253.862 154.865 254.457 155.742 254.405C156.38 254.311 156.981 254.046 157.482 253.639C158.362 253.114 159.153 252.451 159.825 251.676C160.204 251.173 160.479 250.603 160.819 250.067C161.252 249.415 161.722 248.788 162.226 248.189L165.445 244.263C165.765 243.89 166.054 243.492 166.309 243.072C166.595 242.499 166.814 241.896 166.963 241.273C167.307 240.236 167.527 239.162 167.617 238.073C167.637 237.173 167.558 236.273 167.382 235.39C167.284 234.511 167.064 233.65 166.728 232.832C166.027 231.353 164.326 230.149 163.011 231.68Z" fill="#2F2E41"/>
<path d="M174.212 224.363C174.217 223.369 173.986 222.388 173.538 221.501C173.09 220.614 172.437 219.845 171.634 219.259C171.608 217.493 170.957 215.794 169.796 214.463C168.635 213.132 167.04 212.256 165.294 211.99C164.958 210.315 164.042 208.814 162.707 207.749C161.371 206.685 159.703 206.126 157.996 206.173C156.289 206.219 154.653 206.867 153.377 208.002C152.102 209.137 151.268 210.686 151.023 212.376C148.707 211.852 146.587 212.533 146.201 213.959C145.815 215.386 147.451 217.231 149.891 217.885C150.661 218.101 151.463 218.181 152.26 218.121C152.828 218.958 153.565 219.667 154.424 220.202C155.283 220.738 156.244 221.087 157.246 221.229C157.543 222.578 158.209 223.817 159.171 224.809C160.132 225.8 161.351 226.505 162.69 226.843C163.063 227.737 163.638 228.532 164.371 229.166C164.371 229.342 164.371 229.526 164.371 229.709C164.371 230.328 164.493 230.942 164.731 231.514C164.968 232.087 165.315 232.607 165.753 233.045C166.191 233.483 166.711 233.83 167.284 234.067C167.856 234.304 168.47 234.426 169.089 234.426C169.709 234.426 170.322 234.304 170.894 234.067C171.467 233.83 171.987 233.483 172.425 233.045C172.863 232.607 173.211 232.087 173.448 231.514C173.685 230.942 173.807 230.328 173.807 229.709C173.807 228.989 173.653 228.277 173.355 227.621C173.931 226.633 174.227 225.507 174.212 224.363Z" fill="#F86D70"/>
<path opacity="0.1" d="M165.918 229.984C165.908 229.805 165.908 229.626 165.918 229.447C165.181 228.817 164.605 228.021 164.236 227.124C162.895 226.787 161.675 226.083 160.713 225.09C159.751 224.097 159.086 222.855 158.792 221.504C157.789 221.365 156.827 221.017 155.967 220.483C155.107 219.949 154.369 219.24 153.8 218.402C153.335 218.441 152.868 218.428 152.406 218.363C152.979 219.133 153.699 219.783 154.525 220.274C155.35 220.764 156.265 221.087 157.216 221.222C157.512 222.571 158.179 223.811 159.14 224.802C160.102 225.794 161.32 226.498 162.659 226.836C163.032 227.73 163.608 228.526 164.341 229.159C164.341 229.336 164.341 229.519 164.341 229.702C164.32 230.97 164.801 232.195 165.68 233.11C166.559 234.025 167.764 234.554 169.033 234.583C168.107 234.224 167.314 233.592 166.757 232.77C166.201 231.948 165.908 230.976 165.918 229.984Z" fill="black"/>
<path d="M157.892 222.482C158.269 222.196 158.265 221.556 157.882 221.052C157.499 220.549 156.884 220.372 156.507 220.659C156.13 220.945 156.134 221.585 156.517 222.089C156.899 222.593 157.515 222.769 157.892 222.482Z" fill="#FBBEBE"/>
<defs>
<linearGradient id="paint0_linear_248:14369" x1="344.942" y1="326.223" x2="344.942" y2="215.615" gradientUnits="userSpaceOnUse">
<stop stop-color="#808080" stop-opacity="0.25"/>
<stop offset="0.54" stop-color="#808080" stop-opacity="0.12"/>
<stop offset="1" stop-color="#808080" stop-opacity="0.1"/>
</linearGradient>
<linearGradient id="paint1_linear_248:14369" x1="40696.2" y1="43807.9" x2="40696.2" y2="37142.9" gradientUnits="userSpaceOnUse">
<stop stop-color="#808080" stop-opacity="0.25"/>
<stop offset="0.54" stop-color="#808080" stop-opacity="0.12"/>
<stop offset="1" stop-color="#808080" stop-opacity="0.1"/>
</linearGradient>
</defs>
</svg>
