<svg xmlns="http://www.w3.org/2000/svg" width="494" height="332" fill="none" viewBox="0 0 494 332"><path fill="#FAFAFA" d="M108.557 25.2734H21.418V177.728H108.557V25.2734Z"/><path fill="#F5F5F5" d="M48.5652 179.186C48.5652 179.186 39.0094 110.602 34.0159 103.061C34.0159 103.061 62.5658 81.6287 63.436 23.5332H20.1172V179.186H48.5652Z"/><path fill="#F5F5F5" d="M81.402 178.888C81.402 178.888 90.9422 110.296 95.9435 102.763C95.9435 102.763 67.4014 81.323 66.5234 23.2354H109.842V178.888H81.402Z"/><path fill="#EBEBEB" d="M110.846 19.4648H13.3438V182.769H114.891V19.4648H110.846ZM38.9305 104.307V143.142H21.418V104.307H38.9305ZM21.418 101.501V61.3099H38.9305V101.501H21.418ZM65.5913 101.501V61.3099H87.5407V101.501H65.5913ZM87.5407 104.307V143.142H65.5913V104.307H87.5407ZM39.7223 101.501V61.3099H62.7927V101.501H39.7223ZM62.7927 104.307V143.142H39.7144V104.307H62.7927ZM39.7144 60.5887V25.3128H62.7849V60.5887H39.7144ZM62.7849 143.84V177.744H39.7144V143.84H62.7849ZM65.5913 143.84H87.5407V177.744H65.5913V143.84ZM65.5913 60.6122V25.3128H87.5407V60.5887L65.5913 60.6122ZM88.2776 104.307H106.809V143.142H88.2776V104.307ZM88.2776 101.501V61.3099H106.809V101.501H88.2776ZM106.809 60.5887H88.2776V25.3128H106.809V60.5887ZM38.9305 25.3128V60.5887H21.418V25.3128H38.9305ZM21.418 143.84H38.9305V177.744H21.418V143.84ZM88.2776 177.744V143.84H106.809V177.744H88.2776Z"/><path fill="#F5F5F5" d="M405.251 55.4775H140.125V233.049H405.251V55.4775Z"/><path fill="#EBEBEB" d="M405.251 55.4775H140.125V73.2174H405.251V55.4775Z"/><path fill="#FAFAFA" d="M151.61 64.343C151.642 64.7734 151.543 65.2034 151.327 65.5768C151.11 65.9502 150.786 66.2497 150.397 66.4364C150.008 66.623 149.572 66.6881 149.145 66.6232C148.718 66.5582 148.321 66.3663 148.005 66.0723C147.689 65.7783 147.469 65.3959 147.374 64.975C147.278 64.5542 147.312 64.1143 147.47 63.7127C147.628 63.3111 147.903 62.9665 148.26 62.7238C148.617 62.481 149.039 62.3514 149.47 62.3518C150.018 62.3328 150.551 62.5317 150.952 62.905C151.353 63.2782 151.59 63.7954 151.61 64.343Z"/><path fill="#FAFAFA" d="M158.524 64.343C158.556 64.7734 158.457 65.2034 158.241 65.5768C158.024 65.9502 157.7 66.2497 157.311 66.4364C156.922 66.623 156.486 66.6881 156.059 66.6232C155.632 66.5582 155.235 66.3663 154.919 66.0723C154.603 65.7783 154.383 65.3959 154.288 64.975C154.192 64.5542 154.226 64.1143 154.384 63.7127C154.542 63.3111 154.817 62.9665 155.174 62.7238C155.531 62.481 155.953 62.3514 156.384 62.3518C156.932 62.3328 157.465 62.5317 157.866 62.905C158.267 63.2782 158.504 63.7954 158.524 64.343Z"/><path fill="#FAFAFA" d="M165.439 64.343C165.47 64.7734 165.371 65.2034 165.155 65.5768C164.938 65.9502 164.614 66.2497 164.225 66.4364C163.836 66.623 163.4 66.6881 162.973 66.6232C162.546 66.5582 162.149 66.3663 161.833 66.0723C161.517 65.7783 161.297 65.3959 161.202 64.975C161.106 64.5542 161.14 64.1143 161.298 63.7127C161.456 63.3111 161.731 62.9665 162.088 62.7238C162.445 62.481 162.867 62.3514 163.298 62.3518C163.846 62.3328 164.379 62.5317 164.78 62.905C165.181 63.2782 165.418 63.7954 165.439 64.343Z"/><path fill="#EBEBEB" d="M486.417 90.5649H433.15V160.027L486.417 161.368V90.5649Z"/><path fill="#FAFAFA" d="M482.912 93.042H436.301V156.037L482.912 157.613V93.042Z"/><path fill="#EBEBEB" d="M474.753 104.487L443.82 103.311V147.343H474.753V104.487Z"/><path fill="#F5F5F5" d="M443.82 147.343L474.753 124.72L443.82 103.311V147.343Z"/><path fill="#EBEBEB" d="M480.546 41.6887L450.898 40.7637V79.4261L480.546 80.1708V41.6887Z"/><path fill="#FAFAFA" d="M478.594 43.3733L452.654 42.1426V77.199L478.594 78.077V43.3733Z"/><path fill="#EBEBEB" d="M474.054 48.5081L456.84 47.8574V72.3624H474.054V48.5081Z"/><path fill="#F5F5F5" d="M456.84 72.3624L474.054 59.7728L456.84 47.8574V72.3624Z"/><path fill="#EBEBEB" d="M276.58 8.94434L273.742 35.2993H310.123L313.141 8.94434H276.58Z"/><path fill="#FAFAFA" d="M278.078 10.6768L275.311 33.7394H308.148L310.806 10.6768H278.078Z"/><path fill="#EBEBEB" d="M283.603 14.7139L281.902 30.0236H302.621L303.687 14.7139H283.603Z"/><path fill="#EBEBEB" d="M324.054 0L320.244 35.2994H368.988L373.033 0H324.054Z"/><path fill="#FAFAFA" d="M326.054 2.32031L322.354 33.2142H366.346L369.905 2.32031H326.054Z"/><path fill="#EBEBEB" d="M333.461 7.72949L331.18 28.2287H358.938L360.365 7.72949H333.461Z"/><path fill="#EBEBEB" d="M391.228 35.2998H249.277V39.3605H391.228V35.2998Z"/><path fill="#EBEBEB" d="M273.562 49.2376L267.346 39.3604H276.58V49.2376H273.562Z"/><path fill="#E0E0E0" d="M270.348 39.3604L275.843 49.2376H276.58V39.3604H270.348Z"/><path fill="#EBEBEB" d="M355.464 49.2376L349.248 39.3604H358.482V49.2376H355.464Z"/><path fill="#E0E0E0" d="M352.252 39.3604L357.747 49.2376H358.484V39.3604H352.252Z"/><path fill="#92E3A9" d="M79.475 276.704C92.5427 268.16 95.8587 251.784 95.7097 236.999C95.7097 234.53 96.0233 231.935 94.8866 229.74C93.7499 227.545 91.0141 226.009 88.7486 226.989C86.8751 227.812 86.0128 229.921 84.931 231.692C83.48 234.017 81.401 235.884 78.9341 237.078C77.327 237.862 75.3438 238.3 73.7916 237.407C71.6672 236.184 71.4869 233.236 71.5575 230.783L71.9808 217.072C72.1926 214.622 71.9993 212.154 71.4085 209.766C70.6952 207.414 69.0568 205.22 66.7051 204.506C64.3534 203.793 61.398 205.071 60.8415 207.462C60.7235 208.476 60.6764 209.498 60.7003 210.519C60.6063 211.53 60.0967 212.651 59.1325 212.871C58.1683 213.09 57.1571 212.416 56.428 211.679C53.9274 209.139 52.2576 205.909 50.7133 202.695C49.169 199.481 47.6326 196.205 45.3592 193.445C43.0859 190.686 39.9346 188.467 36.3757 188.185C32.8167 187.903 28.9756 189.98 28.0349 193.406C27.0942 196.832 29.0069 200.406 31.1705 203.26C34.3755 207.496 38.1748 211.248 42.4509 214.399C43.287 214.88 43.9465 215.616 44.3323 216.5C44.834 218.146 43.227 219.73 41.573 220.231C39.7073 220.796 37.7005 220.561 35.7564 220.733C33.8123 220.906 31.6957 221.705 30.9196 223.5C29.8379 225.985 31.8995 228.658 33.9455 230.43C38.0595 233.987 42.7524 236.814 47.8207 238.787C49.6315 239.484 51.5364 240.111 52.9788 241.413C54.4212 242.714 55.26 244.948 54.3272 246.649C53.3943 248.35 51.0975 248.86 49.1847 248.46C47.272 248.06 45.5944 247.002 43.7836 246.273C40.3971 244.917 35.9445 245.05 33.726 247.911C33.0341 248.893 32.5821 250.024 32.4065 251.213C32.2309 252.401 32.3365 253.614 32.7148 254.755C33.4978 257.028 34.7294 259.12 36.3365 260.908C41.6168 267.471 48.5369 272.523 56.3967 275.552C64.2358 278.452 71.581 279.362 79.522 276.704"/><path fill="#263238" d="M31.6641 190.129L31.8992 190.365L32.6204 191.039C33.2632 191.619 34.1883 192.481 35.3798 193.618C38.7158 196.827 41.8053 200.284 44.6221 203.958C46.4172 206.309 48.2751 208.896 50.2192 211.75C52.1633 214.603 54.2171 217.66 56.2474 220.961C58.3991 224.394 60.3618 227.943 62.1268 231.59C63.0361 233.487 63.8435 235.471 64.6666 237.493L67.1516 243.639C70.3599 251.417 73.1237 259.371 75.4297 267.462C77.2865 274.072 78.5096 280.845 79.0827 287.687C79.4523 292.304 79.4156 296.944 78.973 301.554C78.8083 303.185 78.6516 304.447 78.5105 305.301C78.4556 305.709 78.4086 306.03 78.3694 306.273C78.3625 306.383 78.3625 306.493 78.3694 306.603C78.4108 306.5 78.4372 306.392 78.4477 306.281L78.6359 305.317C78.8005 304.462 78.9886 303.2 79.1846 301.57C79.6957 296.952 79.7797 292.297 79.4355 287.663C78.9025 280.793 77.7027 273.99 75.853 267.352C73.5651 259.239 70.8063 251.266 67.5906 243.474L65.1056 237.321C64.2825 235.306 63.4672 233.307 62.5422 231.402C60.7724 227.739 58.7964 224.18 56.6237 220.741C54.5699 217.441 52.5082 214.384 50.5484 211.53C48.5887 208.677 46.7151 206.043 44.8964 203.762C42.0418 200.091 38.896 196.657 35.4895 193.492C34.2902 192.371 33.3338 191.525 32.6753 190.968L31.8914 190.333C31.8224 190.258 31.7463 190.19 31.6641 190.129Z"/><path fill="#263238" d="M62.4006 231.379C62.5285 231.042 62.6179 230.693 62.6671 230.336C62.8161 229.662 62.9964 228.682 63.2002 227.467C63.6078 225.029 64.0625 221.651 64.5485 217.919C65.0345 214.188 65.5284 210.825 65.9752 208.402C66.1947 207.187 66.3829 206.215 66.524 205.533C66.6173 205.188 66.6725 204.833 66.6886 204.475C66.5377 204.801 66.4246 205.143 66.3515 205.494C66.1634 206.161 65.9203 207.133 65.6617 208.34C65.1286 210.754 64.5799 214.125 64.0938 217.856C63.6078 221.588 63.2002 224.872 62.8788 227.412C62.722 228.565 62.5966 229.529 62.4947 230.305C62.4211 230.658 62.3895 231.018 62.4006 231.379Z"/><path fill="#263238" d="M30.582 224.723C30.999 224.822 31.4241 224.882 31.852 224.904C32.6359 224.998 33.8588 225.123 35.3168 225.319C38.233 225.703 42.2544 226.369 46.6443 227.294C51.0342 228.219 54.9851 229.246 57.815 230.062C59.2339 230.454 60.3706 230.806 61.1623 231.049C61.5628 231.201 61.9779 231.311 62.4009 231.379C62.0216 231.177 61.6255 231.01 61.2172 230.877C60.4333 230.587 59.3201 230.187 57.9091 229.748C55.0949 228.854 51.1518 227.788 46.7384 226.848C42.325 225.907 38.2957 225.28 35.356 224.998C33.8901 224.841 32.6907 224.762 31.8676 224.723C31.4401 224.683 31.0096 224.683 30.582 224.723Z"/><path fill="#263238" d="M75.4609 266.756C75.5557 266.64 75.6323 266.511 75.6883 266.372L76.2605 265.243C76.7622 264.263 77.4364 262.829 78.2517 261.034C79.8822 257.459 81.9752 252.45 84.2094 246.923C86.4435 241.397 88.4895 236.341 90.0495 232.735C90.8334 230.979 91.4292 229.536 91.8995 228.47L92.3934 227.302C92.4572 227.169 92.5071 227.03 92.5423 226.887C92.4473 227.001 92.3682 227.128 92.3071 227.263C92.1582 227.569 91.9622 227.945 91.7349 228.392C91.241 229.372 90.5669 230.814 89.7516 232.601C88.1211 236.176 86.028 241.224 83.786 246.751C81.5441 252.278 79.5059 257.334 77.9538 260.94L76.1037 265.188L75.6099 266.349C75.5416 266.477 75.4914 266.614 75.4609 266.756Z"/><path fill="#263238" d="M33.3281 252.239C33.4572 252.319 33.5971 252.379 33.7436 252.419L34.9665 252.858L39.4818 254.426C43.2916 255.751 48.5281 257.632 54.3134 259.725C60.0986 261.818 65.3665 263.645 69.2076 264.891C71.1282 265.518 72.6882 266.004 73.77 266.318L75.0164 266.678C75.1613 266.726 75.3112 266.758 75.4632 266.772C75.3336 266.692 75.1939 266.628 75.0478 266.584L73.8249 266.153L69.3095 264.585C65.4997 263.268 60.2632 261.387 54.4701 259.294C48.6771 257.201 43.4249 255.374 39.5759 254.12C37.6553 253.501 36.0953 253.015 35.0135 252.693L33.7671 252.341C33.6262 252.287 33.4785 252.252 33.3281 252.239Z"/><path fill="#263238" d="M435.344 306.399C435.344 306.516 347.436 306.602 239.014 306.602C130.591 306.602 42.668 306.516 42.668 306.399C42.668 306.281 130.56 306.195 239.014 306.195C347.467 306.195 435.344 306.289 435.344 306.399Z"/><path fill="#263238" d="M362.937 70.5752H96.0712C94.9773 70.5752 93.8941 70.7908 92.8835 71.2097C91.873 71.6285 90.9549 72.2424 90.1817 73.0163C89.4085 73.7902 88.7955 74.7089 88.3776 75.7198C87.9596 76.7308 87.7451 77.8142 87.7461 78.9081V267.399C87.7451 268.493 87.9596 269.576 88.3776 270.587C88.7955 271.598 89.4085 272.517 90.1817 273.291C90.9549 274.065 91.873 274.679 92.8835 275.098C93.8941 275.516 94.9773 275.732 96.0712 275.732H198.497C198.497 275.732 205.011 295.878 184.81 306.304H280.58C280.58 306.304 257.784 298.465 263.647 275.732H362.937C365.147 275.732 367.267 274.854 368.83 273.291C370.392 271.729 371.27 269.609 371.27 267.399V78.9081C371.27 76.6981 370.392 74.5786 368.83 73.0159C367.267 71.4531 365.147 70.5752 362.937 70.5752Z"/><path fill="#455A64" d="M233.348 255.836C236.978 261.026 231.295 266.709 226.105 263.08C225.932 262.957 225.781 262.806 225.658 262.633C222.037 257.443 227.712 251.768 232.902 255.39C233.075 255.512 233.226 255.663 233.348 255.836Z"/><path fill="#E0E0E0" d="M362.402 80.0996H96.6024C95.1867 80.0996 94.0391 81.2473 94.0391 82.663V238.238C94.0391 239.653 95.1867 240.801 96.6024 240.801H362.402C363.818 240.801 364.966 239.653 364.966 238.238V82.663C364.966 81.2473 363.818 80.0996 362.402 80.0996Z"/><path fill="#FAFAFA" d="M364.966 91.8745H94.0391V240.802H364.966V91.8745Z"/><path fill="#92E3A9" d="M116.265 86.3008C116.265 86.7287 116.138 87.147 115.9 87.5028C115.662 87.8586 115.324 88.1359 114.929 88.2997C114.534 88.4635 114.099 88.5063 113.679 88.4228C113.259 88.3393 112.874 88.1333 112.571 87.8307C112.269 87.5281 112.063 87.1426 111.979 86.7229C111.896 86.3032 111.938 85.8682 112.102 85.4728C112.266 85.0775 112.543 84.7396 112.899 84.5018C113.255 84.2641 113.673 84.1372 114.101 84.1372C114.675 84.1372 115.225 84.3652 115.631 84.7709C116.037 85.1767 116.265 85.727 116.265 86.3008Z"/><path fill="#92E3A9" d="M103.151 86.3008C103.151 86.7287 103.025 87.147 102.787 87.5028C102.549 87.8586 102.211 88.1359 101.816 88.2997C101.42 88.4635 100.985 88.5063 100.566 88.4228C100.146 88.3393 99.7605 88.1333 99.4579 87.8307C99.1553 87.5281 98.9493 87.1426 98.8658 86.7229C98.7823 86.3032 98.8252 85.8682 98.9889 85.4728C99.1527 85.0775 99.43 84.7396 99.7858 84.5018C100.142 84.2641 100.56 84.1372 100.988 84.1372C101.562 84.1372 102.112 84.3652 102.518 84.7709C102.923 85.1767 103.151 85.727 103.151 86.3008Z"/><path fill="#92E3A9" d="M109.444 86.3008C109.444 86.7287 109.317 87.147 109.08 87.5028C108.842 87.8586 108.504 88.1359 108.109 88.2997C107.713 88.4635 107.278 88.5063 106.859 88.4228C106.439 88.3393 106.053 88.1333 105.751 87.8307C105.448 87.5281 105.242 87.1426 105.159 86.7229C105.075 86.3032 105.118 85.8682 105.282 85.4728C105.446 85.0775 105.723 84.7396 106.079 84.5018C106.435 84.2641 106.853 84.1372 107.281 84.1372C107.855 84.1372 108.405 84.3652 108.811 84.7709C109.216 85.1767 109.444 85.727 109.444 86.3008Z"/><path fill="#455A64" d="M227.533 161.219C227.533 161.337 217.609 161.438 205.372 161.438C193.135 161.438 183.203 161.337 183.203 161.219C183.203 161.101 193.127 161 205.372 161C217.617 161 227.533 161.094 227.533 161.219Z"/><path fill="#455A64" d="M227.533 167.153C227.533 167.271 217.609 167.373 205.372 167.373C193.135 167.373 183.203 167.271 183.203 167.153C183.203 167.036 193.127 166.926 205.372 166.926C217.617 166.926 227.533 167.028 227.533 167.153Z"/><path fill="#455A64" d="M209.77 173.079C209.77 173.205 203.828 173.307 196.49 173.307C189.153 173.307 183.203 173.205 183.203 173.079C183.203 172.954 189.153 172.86 196.49 172.86C203.828 172.86 209.77 172.962 209.77 173.079Z"/><path fill="#455A64" d="M204.282 100.591H183.203V103.264H204.282V100.591Z"/><path fill="#E0E0E0" d="M229.524 109.207H183.203V154.023H229.524V109.207Z"/><path fill="#92E3A9" d="M186.793 150.181L199.61 127.119L210.091 141.864L216.456 134.033L225.934 150.181H186.793Z"/><path fill="#92E3A9" d="M211.22 125.966C213.06 125.966 214.552 124.475 214.552 122.635C214.552 120.795 213.06 119.303 211.22 119.303C209.38 119.303 207.889 120.795 207.889 122.635C207.889 124.475 209.38 125.966 211.22 125.966Z"/><path fill="#455A64" d="M225.934 150.306C225.925 150.247 225.925 150.186 225.934 150.126C225.934 149.985 225.934 149.82 225.934 149.601C225.934 149.123 225.934 148.448 225.934 147.586C225.934 145.807 225.934 143.235 225.887 139.974C225.887 133.429 225.832 124.108 225.793 112.914L225.981 113.102H186.848C186.793 113.149 187.256 112.687 187.06 112.89V122.94C187.06 126.233 187.06 129.462 187.06 132.598C187.06 138.869 187.06 144.811 187.06 150.267L186.864 150.071L215.163 150.173L223.143 150.22H225.26H225.808H225.283H223.198L215.265 150.267L186.84 150.369H186.652V150.173C186.652 144.686 186.652 138.783 186.652 132.504C186.652 129.368 186.652 126.138 186.652 122.846V112.93C186.456 113.118 186.919 112.647 186.879 112.702H226.012H226.2V112.89C226.161 124.132 226.13 133.492 226.106 140.068C226.106 143.314 226.067 145.869 226.051 147.641C226.051 148.488 226.051 149.146 226.051 149.617C226.051 149.828 226.051 149.993 226.051 150.118C226.018 150.184 225.978 150.247 225.934 150.306Z"/><path fill="#455A64" d="M284.006 161.219C284.006 161.337 274.082 161.438 261.837 161.438C249.592 161.438 239.676 161.337 239.676 161.219C239.676 161.101 249.592 161 261.837 161C274.082 161 284.006 161.094 284.006 161.219Z"/><path fill="#455A64" d="M284.006 167.153C284.006 167.271 274.082 167.373 261.837 167.373C249.592 167.373 239.676 167.271 239.676 167.153C239.676 167.036 249.592 166.926 261.837 166.926C274.082 166.926 284.006 167.028 284.006 167.153Z"/><path fill="#455A64" d="M266.242 173.079C266.242 173.205 260.293 173.307 252.955 173.307C245.618 173.307 239.691 173.205 239.691 173.079C239.691 172.954 245.633 172.86 252.971 172.86C260.308 172.86 266.242 172.962 266.242 173.079Z"/><path fill="#455A64" d="M260.755 100.591H239.676V103.264H260.755V100.591Z"/><path fill="#E0E0E0" d="M285.997 109.207H239.676V154.023H285.997V109.207Z"/><path fill="#92E3A9" d="M243.266 150.181L256.075 127.119L266.556 141.864L272.929 134.033L282.398 150.181H243.266Z"/><path fill="#92E3A9" d="M271.048 122.635C271.05 123.296 270.855 123.943 270.489 124.493C270.122 125.043 269.601 125.473 268.99 125.726C268.38 125.98 267.708 126.047 267.059 125.918C266.411 125.79 265.815 125.472 265.347 125.004C264.88 124.537 264.562 123.941 264.433 123.292C264.304 122.644 264.371 121.972 264.625 121.361C264.879 120.751 265.308 120.229 265.858 119.863C266.409 119.496 267.055 119.302 267.716 119.303C268.6 119.303 269.447 119.654 270.072 120.279C270.697 120.904 271.048 121.751 271.048 122.635Z"/><path fill="#455A64" d="M282.398 150.306C282.398 150.306 282.398 150.244 282.398 150.126C282.398 150.008 282.398 149.82 282.398 149.601C282.398 149.123 282.398 148.448 282.398 147.586C282.398 145.807 282.398 143.235 282.351 139.974C282.351 133.429 282.288 124.108 282.249 112.914L282.437 113.102H243.304C243.249 113.149 243.72 112.687 243.524 112.89V122.94C243.524 126.233 243.524 129.462 243.524 132.598C243.524 138.869 243.524 144.811 243.524 150.267L243.335 150.071L271.635 150.173L279.615 150.22H281.731H282.28H281.747H279.67L271.729 150.267L243.312 150.369H243.116V150.173C243.116 144.686 243.116 138.783 243.116 132.504V112.93C242.912 113.118 243.382 112.647 243.335 112.702H282.468H282.664V112.89C282.617 124.132 282.586 133.492 282.562 140.068C282.562 143.314 282.523 145.869 282.515 147.641C282.515 148.488 282.515 149.146 282.515 149.617C282.515 149.828 282.515 149.993 282.515 150.118C282.487 150.187 282.447 150.251 282.398 150.306Z"/><path fill="#455A64" d="M205.763 181.35H184.684V184.023H205.763V181.35Z"/><path fill="#E0E0E0" d="M231.005 189.957H184.684V234.773H231.005V189.957Z"/><path fill="#92E3A9" d="M188.275 230.94L201.092 207.877L211.573 222.614L217.938 214.791L227.416 230.94H188.275Z"/><path fill="#92E3A9" d="M216.04 203.393C216.04 204.054 215.844 204.699 215.477 205.248C215.11 205.798 214.589 206.226 213.979 206.478C213.369 206.731 212.697 206.797 212.049 206.668C211.402 206.54 210.806 206.222 210.339 205.755C209.872 205.287 209.554 204.692 209.425 204.045C209.297 203.397 209.363 202.725 209.616 202.115C209.868 201.505 210.296 200.983 210.845 200.617C211.395 200.25 212.04 200.054 212.701 200.054C213.14 200.053 213.574 200.138 213.98 200.306C214.386 200.473 214.754 200.719 215.064 201.03C215.375 201.34 215.621 201.708 215.788 202.114C215.956 202.52 216.041 202.954 216.04 203.393Z"/><path fill="#455A64" d="M227.414 231.065C227.414 231.065 227.414 230.995 227.414 230.877C227.414 230.759 227.414 230.571 227.414 230.352C227.414 229.881 227.414 229.207 227.414 228.337C227.414 226.565 227.414 223.994 227.36 220.725C227.36 214.18 227.305 204.859 227.265 193.673L227.454 193.861H188.321L188.54 193.641V196.205C188.54 197.051 188.54 197.898 188.54 198.737V213.388C188.54 219.659 188.54 225.593 188.54 231.057L188.344 230.861L216.643 230.963L224.624 231.01H226.748H227.297C227.359 231.004 227.422 231.004 227.485 231.01H226.787H224.71L216.769 231.065L188.344 231.159H188.156V230.971C188.156 225.484 188.156 219.573 188.156 213.302C188.156 210.166 188.156 206.947 188.156 203.644V193.673L188.384 193.445H227.516H227.704V193.641C227.665 204.883 227.634 214.242 227.61 220.819C227.61 224.065 227.61 226.62 227.563 228.384C227.563 229.239 227.563 229.897 227.563 230.367C227.563 230.571 227.563 230.736 227.563 230.869C227.53 230.945 227.479 231.012 227.414 231.065Z"/><path fill="#455A64" d="M262.275 181.35H241.195V184.023H262.275V181.35Z"/><path fill="#E0E0E0" d="M287.516 189.957H241.195V234.773H287.516V189.957Z"/><path fill="#92E3A9" d="M244.787 230.94L257.604 207.877L268.085 222.614L274.45 214.791L283.928 230.94H244.787Z"/><path fill="#92E3A9" d="M272.544 203.393C272.543 204.052 272.346 204.695 271.979 205.242C271.612 205.789 271.091 206.215 270.482 206.466C269.873 206.717 269.203 206.781 268.558 206.652C267.912 206.523 267.319 206.205 266.854 205.738C266.389 205.272 266.072 204.678 265.944 204.032C265.816 203.386 265.883 202.717 266.135 202.109C266.388 201.5 266.815 200.98 267.362 200.615C267.91 200.249 268.554 200.054 269.212 200.054C269.651 200.054 270.085 200.14 270.489 200.308C270.894 200.476 271.262 200.722 271.571 201.032C271.881 201.342 272.126 201.711 272.293 202.116C272.46 202.521 272.545 202.955 272.544 203.393Z"/><path fill="#455A64" d="M283.926 231.065C283.921 231.002 283.921 230.94 283.926 230.877C283.926 230.744 283.926 230.571 283.926 230.352C283.926 229.881 283.926 229.207 283.926 228.337C283.926 226.565 283.926 223.994 283.879 220.725C283.879 214.18 283.824 204.859 283.785 193.673L283.973 193.861H244.833L245.052 193.641V203.707C245.052 206.999 245.052 210.218 245.052 213.364C245.052 219.636 245.052 225.57 245.052 231.034L244.856 230.838L273.155 230.94L281.135 230.987H283.252H283.801H283.997H283.299H281.214L273.281 231.042L244.856 231.136H244.66V230.948C244.66 225.46 244.66 219.549 244.66 213.278C244.66 210.143 244.66 206.923 244.66 203.62V193.673L244.88 193.445H284.02H284.208V193.641C284.169 204.883 284.138 214.242 284.114 220.819C284.114 224.065 284.075 226.62 284.059 228.384C284.059 229.239 284.059 229.897 284.059 230.367C284.059 230.571 284.059 230.736 284.059 230.869C284.021 230.938 283.976 231.004 283.926 231.065Z"/><path fill="#455A64" d="M320.583 181.35H299.504V184.023H320.583V181.35Z"/><path fill="#E0E0E0" d="M345.825 189.957H299.504V234.773H345.825V189.957Z"/><path fill="#92E3A9" d="M303.094 230.94L315.911 207.877L326.392 222.614L332.757 214.791L342.234 230.94H303.094Z"/><path fill="#92E3A9" d="M330.861 203.393C330.861 204.054 330.665 204.699 330.298 205.248C329.931 205.798 329.409 206.226 328.799 206.478C328.189 206.731 327.517 206.797 326.87 206.668C326.222 206.54 325.627 206.222 325.16 205.755C324.693 205.287 324.375 204.692 324.246 204.045C324.117 203.397 324.183 202.725 324.436 202.115C324.689 201.505 325.117 200.983 325.666 200.617C326.215 200.25 326.861 200.054 327.521 200.054C327.96 200.053 328.395 200.138 328.8 200.306C329.206 200.473 329.574 200.719 329.885 201.03C330.195 201.34 330.441 201.708 330.608 202.114C330.776 202.52 330.862 202.954 330.861 203.393Z"/><path fill="#455A64" d="M342.235 231.065C342.235 231.065 342.235 230.995 342.235 230.877C342.235 230.759 342.235 230.571 342.235 230.352C342.235 229.881 342.235 229.207 342.235 228.337C342.235 226.565 342.235 223.994 342.18 220.725C342.18 214.18 342.125 204.859 342.086 193.673L342.274 193.861H303.141L303.361 193.641V213.364C303.361 219.636 303.361 225.57 303.361 231.034L303.165 230.838L331.464 230.94L339.444 230.987H341.568H342.109C342.174 230.98 342.24 230.98 342.305 230.987H341.608H339.53L331.589 231.042L303.165 231.136H302.977V230.948C302.977 225.46 302.977 219.549 302.977 213.278C302.977 210.143 302.977 206.923 302.977 203.62V193.673L303.204 193.445H342.337H342.525V193.641C342.486 204.883 342.454 214.242 342.431 220.819C342.431 224.065 342.391 226.62 342.384 228.384C342.384 229.239 342.384 229.897 342.384 230.367C342.384 230.571 342.384 230.736 342.384 230.869C342.35 230.945 342.299 231.012 342.235 231.065Z"/><path fill="#455A64" d="M341.49 154.014C343.174 153.798 344.874 153.724 346.57 153.795L346.35 154.014V153.513C346.35 153.34 346.35 153.175 346.35 153.011C346.35 152.682 346.35 152.368 346.35 152.054C346.35 151.498 346.35 150.957 346.398 150.44C346.374 149.938 346.427 149.436 346.554 148.95C346.672 149.438 346.722 149.939 346.703 150.44C346.703 150.957 346.703 151.498 346.75 152.054C346.75 152.368 346.75 152.682 346.75 153.011V154.014L346.523 154.242C344.842 154.314 343.158 154.238 341.49 154.014Z"/><path fill="#455A64" d="M318.389 154.014C322.235 153.722 326.097 153.722 329.943 154.014C326.098 154.318 322.234 154.318 318.389 154.014Z"/><path fill="#455A64" d="M301.754 148.935C301.975 150.619 302.049 152.318 301.973 154.015L301.754 153.795H303.737L305.352 153.842C305.853 153.829 306.354 153.882 306.842 153.999C306.356 154.126 305.854 154.179 305.352 154.156L303.737 154.203H302.781H301.754L301.535 153.976C301.466 152.292 301.54 150.606 301.754 148.935Z"/><path fill="#455A64" d="M301.753 125.833C301.975 127.751 302.048 129.682 301.973 131.611C302.048 133.537 301.975 135.466 301.753 137.38C301.536 135.465 301.463 133.537 301.534 131.611C301.463 129.682 301.537 127.751 301.753 125.833Z"/><path fill="#455A64" d="M306.84 109.191C305.154 109.412 303.452 109.485 301.753 109.41L301.972 109.191V110.202C301.972 110.523 301.972 110.845 301.972 111.158C301.972 111.715 301.972 112.248 301.925 112.773C301.948 113.275 301.895 113.777 301.768 114.263C301.641 113.777 301.589 113.275 301.611 112.773C301.611 112.248 301.611 111.715 301.564 111.158C301.564 110.845 301.564 110.523 301.564 110.202C301.564 110.037 301.564 109.865 301.564 109.692V109.191L301.784 108.971C303.473 108.903 305.164 108.976 306.84 109.191Z"/><path fill="#455A64" d="M329.943 109.191C326.097 109.484 322.235 109.484 318.389 109.191C322.235 108.899 326.097 108.899 329.943 109.191Z"/><path fill="#455A64" d="M346.578 114.286C346.352 112.601 346.275 110.898 346.351 109.199C346.797 109.638 346.476 109.324 346.57 109.418H345.52H344.563L342.948 109.371C342.447 109.394 341.945 109.341 341.459 109.215C341.945 109.088 342.447 109.035 342.948 109.058L344.563 109.011H346.539L346.766 109.23C346.845 110.918 346.782 112.609 346.578 114.286Z"/><path fill="#455A64" d="M346.578 137.412C346.351 135.497 346.275 133.568 346.351 131.642C346.275 129.713 346.351 127.782 346.578 125.865C346.795 127.782 346.868 129.714 346.797 131.642C346.868 133.568 346.795 135.497 346.578 137.412Z"/><path fill="#455A64" d="M345.926 161.156C345.926 161.274 335.994 161.376 323.757 161.376C311.52 161.376 301.588 161.274 301.588 161.156C301.588 161.038 311.512 160.937 323.757 160.937C336.001 160.937 345.926 161.031 345.926 161.156Z"/><path fill="#455A64" d="M345.926 167.09C345.926 167.208 335.994 167.31 323.757 167.31C311.52 167.31 301.619 167.2 301.619 167.09C301.619 166.98 311.543 166.863 323.788 166.863C336.033 166.863 345.926 166.965 345.926 167.09Z"/><path fill="#455A64" d="M322.667 100.529H301.588V103.202H322.667V100.529Z"/><path fill="#E0E0E0" d="M161.652 135.405C161.652 139.901 160.319 144.296 157.821 148.035C155.323 151.773 151.773 154.687 147.619 156.408C143.465 158.128 138.894 158.578 134.484 157.701C130.074 156.824 126.023 154.659 122.844 151.48C119.665 148.3 117.5 144.25 116.622 139.84C115.745 135.43 116.195 130.859 117.916 126.705C119.637 122.551 122.55 119.001 126.289 116.503C130.027 114.005 134.423 112.671 138.919 112.671C144.948 112.671 150.73 115.066 154.994 119.33C159.257 123.593 161.652 129.375 161.652 135.405Z"/><path fill="#455A64" d="M166.145 184.916C166.145 185.034 154.481 185.136 140.096 185.136C125.711 185.136 114.039 185.034 114.039 184.916C114.039 184.799 125.704 184.689 140.096 184.689C154.489 184.689 166.145 184.791 166.145 184.916Z"/><path fill="#455A64" d="M166.145 190.717C166.145 190.842 154.481 190.937 140.096 190.937C125.711 190.937 114.039 190.842 114.039 190.717C114.039 190.592 125.704 190.498 140.096 190.498C154.489 190.498 166.145 190.552 166.145 190.717Z"/><path fill="#455A64" d="M166.145 196.44C166.145 196.565 154.481 196.659 140.096 196.659C125.711 196.659 114.039 196.565 114.039 196.44C114.039 196.314 125.704 196.205 140.135 196.205C154.567 196.205 166.145 196.322 166.145 196.44Z"/><path fill="#455A64" d="M143.976 202.327C143.976 202.452 137.21 202.546 128.87 202.546C120.529 202.546 113.756 202.452 113.756 202.327C113.756 202.201 120.521 202.107 128.87 202.107C137.218 202.107 143.976 202.209 143.976 202.327Z"/><path fill="#455A64" d="M114.038 175.776H149.941V173.15H114.038V175.776Z"/><path fill="#92E3A9" d="M124.699 152.753C128.7 156.217 133.815 158.124 139.107 158.124C144.4 158.124 149.515 156.217 153.516 152.753C152.308 148.645 149.377 143.769 142.251 142.687C143.849 141.983 145.204 140.826 146.151 139.359C147.097 137.891 147.592 136.179 147.574 134.433C147.574 129.494 143.858 125.481 139.233 125.457C134.608 125.434 130.845 129.424 130.822 134.355C130.789 136.116 131.279 137.849 132.228 139.333C133.178 140.817 134.546 141.987 136.16 142.695C128.917 143.769 125.93 148.669 124.699 152.753Z"/><path fill="#92E3A9" d="M134.17 211.326H114.039V213.78H134.17V211.326Z"/><path fill="#92E3A9" d="M415.394 126.17L418.828 137.686C419.011 138.203 419.114 138.744 419.133 139.293C419.133 140.915 417.566 142.193 415.998 142.491C414.379 142.666 412.742 142.473 411.208 141.926C410.785 143.581 408.856 144.278 407.171 144.592C399.663 145.989 391.906 145.022 384.971 141.825C387.931 137.586 390.336 132.987 392.128 128.138L409.64 128.921C410.672 129.033 411.715 128.945 412.713 128.663C413.21 128.512 413.653 128.224 413.991 127.831C414.33 127.438 414.55 126.957 414.626 126.444"/><path fill="#FFBE9D" d="M395.327 148.661C395.546 147.375 395.021 141.966 395.021 141.966C395.021 141.966 390.09 141.441 389.793 136.549C389.495 131.658 389.793 120.369 389.793 120.369L398.776 115.979L408.669 123.466L407.172 147.932L396.471 157.48L395.327 148.661Z"/><path fill="#263238" d="M390.772 128.592C390.77 128.717 390.805 128.839 390.873 128.943C390.941 129.047 391.039 129.129 391.153 129.177C391.268 129.226 391.394 129.24 391.516 129.216C391.638 129.193 391.751 129.134 391.839 129.047C391.928 128.959 391.988 128.847 392.013 128.726C392.038 128.604 392.026 128.477 391.979 128.362C391.932 128.247 391.851 128.149 391.748 128.079C391.645 128.01 391.523 127.973 391.399 127.973C391.317 127.972 391.235 127.987 391.159 128.018C391.083 128.049 391.014 128.094 390.956 128.152C390.897 128.209 390.851 128.278 390.819 128.354C390.788 128.429 390.772 128.51 390.772 128.592Z"/><path fill="#263238" d="M390.199 127.911C390.286 127.997 390.748 127.605 391.422 127.566C392.097 127.526 392.598 127.856 392.669 127.762C392.739 127.668 392.622 127.573 392.402 127.425C392.103 127.228 391.748 127.134 391.391 127.158C391.036 127.176 390.697 127.311 390.427 127.542C390.199 127.722 390.121 127.879 390.199 127.911Z"/><path fill="#263238" d="M398.039 128.592C398.038 128.717 398.073 128.839 398.142 128.944C398.21 129.048 398.308 129.13 398.423 129.178C398.538 129.227 398.664 129.24 398.787 129.216C398.909 129.192 399.021 129.132 399.11 129.044C399.198 128.956 399.258 128.843 399.282 128.721C399.306 128.598 399.292 128.472 399.244 128.357C399.196 128.242 399.114 128.144 399.01 128.076C398.905 128.007 398.783 127.972 398.658 127.973C398.494 127.973 398.337 128.038 398.22 128.155C398.104 128.271 398.039 128.428 398.039 128.592Z"/><path fill="#263238" d="M397.64 127.911C397.718 127.997 398.181 127.605 398.855 127.566C399.529 127.526 400.039 127.856 400.109 127.762C400.18 127.668 400.062 127.573 399.835 127.425C399.538 127.23 399.186 127.137 398.832 127.158C398.477 127.179 398.139 127.314 397.867 127.542C397.663 127.722 397.601 127.879 397.64 127.911Z"/><path fill="#FAFAFA" d="M397.435 134.276C396.405 134.801 395.308 135.181 394.174 135.405C394.424 135.742 394.779 135.987 395.183 136.102C395.587 136.217 396.018 136.195 396.408 136.04C396.594 135.996 396.769 135.915 396.923 135.802C397.077 135.688 397.206 135.544 397.302 135.379C397.398 135.214 397.459 135.031 397.482 134.841C397.505 134.652 397.489 134.459 397.435 134.276Z"/><path fill="#EB996E" d="M395.021 141.966C397.347 141.87 399.596 141.111 401.504 139.779C401.504 139.779 400.038 143.369 395.131 143.165L395.021 141.966Z"/><path fill="#92E3A9" d="M422.906 137.537C422.29 137.56 421.68 137.422 421.134 137.137C420.329 136.699 419.659 136.048 419.198 135.256C418.626 134.268 418.144 133.232 417.755 132.159C416.838 129.886 416.188 127.769 415.678 126.233C415.607 125.99 415.537 125.771 415.474 125.559C415.445 125.332 415.403 125.107 415.349 124.885C412.676 114.694 403.708 112.781 401.936 112.781C400.031 112.781 396.7 111.731 391.847 116.779C391.113 117.532 390.492 118.387 390.005 119.319C388.935 120.665 388.197 122.244 387.849 123.928C387.637 124.718 387.599 125.545 387.739 126.351C387.834 126.351 387.849 125.433 388.226 123.999C388.451 123.165 388.766 122.358 389.166 121.592C388.744 123.477 388.916 125.446 389.66 127.229L391.4 126.743L397.672 124.626C397.099 122.698 397.938 120.299 398.408 119.139H398.456C399.882 126.46 407.949 127.229 407.949 127.229L407.549 141.127C415.835 139.356 415.945 130.309 415.89 128.06C416.266 129.329 416.752 130.788 417.363 132.316C417.773 133.406 418.282 134.455 418.884 135.452C419.393 136.297 420.14 136.974 421.032 137.396C421.632 137.681 422.304 137.779 422.961 137.678C423.203 137.656 423.436 137.569 423.635 137.427C423.39 137.448 423.146 137.485 422.906 137.537Z"/><path fill="#263238" d="M395.21 133.61C394.853 133.528 394.487 133.488 394.121 133.492C393.948 133.492 393.776 133.492 393.744 133.335C393.72 133.147 393.753 132.956 393.838 132.787C393.987 132.348 394.136 131.885 394.301 131.391C394.622 130.396 394.897 129.494 395.085 128.836C395.215 128.488 395.296 128.124 395.328 127.754C395.144 128.08 395.002 128.427 394.904 128.789C394.669 129.431 394.364 130.356 394.042 131.329L393.595 132.732C393.498 132.954 393.476 133.202 393.533 133.437C393.56 133.497 393.6 133.549 393.651 133.591C393.701 133.633 393.759 133.663 393.823 133.68C393.919 133.691 394.016 133.691 394.113 133.68C394.48 133.701 394.848 133.677 395.21 133.61Z"/><path fill="#263238" d="M406.585 129.628C405.064 129.33 403.778 129.118 403.339 129.087C403.397 128.829 403.429 128.567 403.433 128.303C403.426 127.456 403.152 126.633 402.649 125.951C402.187 125.316 401.541 124.837 400.799 124.579C400.133 124.343 399.416 124.288 398.722 124.423C398.117 124.545 397.552 124.814 397.076 125.206C396.376 125.748 395.885 126.515 395.688 127.378C395.633 127.609 395.604 127.846 395.602 128.083C395.589 128.164 395.589 128.246 395.602 128.326C395.602 128.326 395.602 127.989 395.774 127.409C396.001 126.588 396.495 125.865 397.178 125.355C397.639 125.007 398.176 124.773 398.745 124.673C399.476 124.541 400.228 124.63 400.907 124.93C401.586 125.229 402.16 125.725 402.554 126.353C402.949 126.981 403.147 127.713 403.122 128.455C403.097 129.196 402.85 129.913 402.414 130.513C401.983 131.111 401.382 131.564 400.69 131.815C400.068 132.044 399.397 132.104 398.745 131.987C398.176 131.885 397.638 131.648 397.178 131.297C396.494 130.792 396 130.071 395.774 129.251C395.71 129.021 395.665 128.784 395.641 128.546C395.759 128.546 395.837 128.483 395.837 128.452C395.837 128.42 395.743 128.373 395.61 128.35C395.453 128.336 395.296 128.336 395.139 128.35C394.95 128.349 394.76 128.37 394.575 128.413V128.366C394.572 127.518 394.297 126.694 393.791 126.014C393.33 125.381 392.688 124.902 391.949 124.642C391.28 124.405 390.56 124.351 389.864 124.485C389.132 124.633 388.458 124.987 387.921 125.505C387.383 126.023 387.005 126.684 386.83 127.409C386.775 127.64 386.746 127.877 386.744 128.115C386.731 128.195 386.731 128.277 386.744 128.358C386.744 128.358 386.744 128.021 386.916 127.441C387.143 126.619 387.636 125.896 388.319 125.387C388.781 125.039 389.318 124.805 389.887 124.705C390.423 124.607 390.973 124.628 391.499 124.767C392.025 124.905 392.515 125.158 392.933 125.506C393.351 125.855 393.687 126.291 393.918 126.783C394.149 127.276 394.269 127.814 394.269 128.358C394.269 129.118 394.035 129.859 393.601 130.483C393.167 131.106 392.552 131.582 391.839 131.846C391.215 132.076 390.542 132.135 389.887 132.019C389.317 131.916 388.78 131.679 388.319 131.329C387.636 130.823 387.142 130.103 386.916 129.283C386.76 128.703 386.775 128.358 386.744 128.358C386.732 128.441 386.732 128.525 386.744 128.609C386.746 128.844 386.775 129.078 386.83 129.306C387.026 130.172 387.516 130.942 388.218 131.486C388.697 131.873 389.261 132.141 389.864 132.269C390.56 132.403 391.28 132.349 391.949 132.113C392.686 131.85 393.328 131.372 393.791 130.741C394.258 130.115 394.531 129.365 394.575 128.585C394.765 128.632 394.96 128.653 395.155 128.648C395.307 128.658 395.458 128.658 395.61 128.648C395.612 128.883 395.641 129.117 395.696 129.345C395.865 130.075 396.241 130.74 396.78 131.26C397.318 131.78 397.995 132.133 398.73 132.277C399.424 132.411 400.141 132.357 400.807 132.121C401.547 131.859 402.192 131.381 402.657 130.749C402.98 130.31 403.204 129.808 403.316 129.275C403.731 129.408 405.001 129.706 406.538 130.004C407.662 130.269 408.804 130.449 409.955 130.545C408.859 130.145 407.732 129.838 406.585 129.628Z"/><path fill="#FFBE9D" d="M409.187 133.405C409.109 132.591 409.2 131.769 409.454 130.991C409.583 130.603 409.815 130.258 410.124 129.99C410.432 129.723 410.808 129.543 411.21 129.47C411.675 129.447 412.133 129.593 412.499 129.881C412.865 130.169 413.114 130.58 413.201 131.038C413.258 131.507 413.172 131.982 412.955 132.401C412.739 132.82 412.401 133.165 411.986 133.39C411.567 133.606 411.105 133.726 410.635 133.739C410.164 133.753 409.696 133.66 409.266 133.468"/><path fill="#EB996E" d="M410.581 132.708C410.581 132.653 410.848 132.771 411.193 132.708C411.408 132.633 411.594 132.491 411.725 132.304C411.856 132.117 411.925 131.894 411.922 131.665C411.943 131.551 411.939 131.433 411.909 131.321C411.879 131.208 411.824 131.104 411.749 131.015C411.599 130.894 411.407 130.838 411.216 130.858C410.848 130.858 410.589 130.983 410.573 130.921C410.558 130.858 410.738 130.693 411.177 130.576C411.311 130.542 411.451 130.539 411.586 130.566C411.722 130.593 411.85 130.65 411.961 130.733C412.09 130.855 412.188 131.006 412.246 131.174C412.305 131.341 412.323 131.521 412.298 131.697C412.286 132.032 412.159 132.354 411.937 132.606C411.753 132.819 411.496 132.956 411.216 132.99C410.793 132.982 410.581 132.708 410.581 132.708Z"/><path fill="#92E3A9" d="M429.569 318.988L423.666 314.982L431.105 303.882L439.799 309.652L439.383 310.365C437.502 313.548 429.592 326.388 427.625 328.027C425.383 329.845 429.569 318.988 429.569 318.988Z"/><path fill="#263238" d="M426.888 327.901C426.778 327.831 429.498 323.637 432.963 318.542C436.428 313.446 439.313 309.362 439.423 309.433C439.532 309.503 436.804 313.697 433.34 318.839C429.875 323.982 426.99 327.988 426.888 327.901Z"/><path fill="#263238" d="M430.641 319.999C430.641 320.125 430.273 320.195 429.857 320.227C429.442 320.258 429.073 320.227 429.034 320.101C428.995 319.976 429.356 319.795 429.818 319.772C430.281 319.748 430.657 319.874 430.641 319.999Z"/><path fill="#263238" d="M430.555 320.971C430.555 321.097 430.124 321.112 429.646 321.081C429.168 321.05 428.768 320.987 428.76 320.854C428.752 320.721 429.16 320.595 429.669 320.626C430.179 320.658 430.579 320.846 430.555 320.971Z"/><path fill="#263238" d="M437.117 312.756C437.063 312.756 436.914 312.544 436.733 312.144C436.49 311.608 436.349 311.031 436.318 310.443C436.287 309.833 436.464 309.231 436.819 308.734C437.11 308.358 437.392 308.256 437.423 308.303C437.454 308.35 437.274 308.546 437.086 308.907C436.858 309.38 436.75 309.903 436.772 310.428C436.81 310.973 436.899 311.514 437.039 312.042C437.141 312.458 437.18 312.732 437.117 312.756Z"/><path fill="#263238" d="M429.513 319.278C429.458 319.169 429.669 318.949 429.959 318.738C430.249 318.526 430.516 318.385 430.61 318.471C430.704 318.557 430.555 318.863 430.226 319.106C429.897 319.349 429.56 319.396 429.513 319.278Z"/><path fill="#263238" d="M429.058 318.722C428.956 318.643 429.058 318.29 429.325 317.938C429.591 317.585 429.866 317.35 429.968 317.412C430.07 317.475 429.968 317.828 429.701 318.196C429.435 318.565 429.152 318.8 429.058 318.722Z"/><path fill="#92E3A9" d="M359.995 328.113V320.98L373.322 320.894L373.432 331.335L372.601 331.39C368.916 331.617 353.85 332.292 351.372 331.563C348.652 330.747 359.995 328.113 359.995 328.113Z"/><path fill="#263238" d="M351.1 330.904C351.1 330.778 356.101 330.676 362.262 330.676C368.424 330.676 373.425 330.778 373.425 330.904C373.425 331.029 368.432 331.139 362.262 331.139C356.093 331.139 351.1 331.037 351.1 330.904Z"/><path fill="#263238" d="M359.761 329.571C359.652 329.634 359.393 329.375 359.126 329.03C358.86 328.685 358.68 328.372 358.766 328.246C358.852 328.121 359.205 328.348 359.487 328.724C359.769 329.101 359.871 329.508 359.761 329.571Z"/><path fill="#263238" d="M358.906 330.041C358.788 330.088 358.553 329.767 358.31 329.352C358.067 328.936 357.895 328.568 357.997 328.489C358.099 328.411 358.436 328.677 358.702 329.124C358.969 329.571 359.024 329.994 358.906 330.041Z"/><path fill="#263238" d="M369.395 330.857C369.348 330.857 369.458 330.567 369.686 330.198C369.993 329.698 370.389 329.257 370.854 328.897C371.345 328.532 371.943 328.339 372.555 328.348C373.025 328.348 373.276 328.56 373.252 328.607C373.229 328.654 372.962 328.607 372.562 328.67C372.044 328.751 371.552 328.955 371.128 329.266C370.697 329.602 370.301 329.98 369.944 330.394C369.654 330.708 369.45 330.896 369.395 330.857Z"/><path fill="#263238" d="M359.723 328.231C359.785 328.121 360.091 328.176 360.42 328.293C360.749 328.411 361.032 328.56 361.008 328.685C360.985 328.811 360.655 328.858 360.271 328.725C359.887 328.591 359.628 328.341 359.723 328.231Z"/><path fill="#263238" d="M359.934 327.541C359.934 327.415 360.303 327.313 360.718 327.321C361.133 327.329 361.502 327.439 361.502 327.564C361.502 327.69 361.157 327.784 360.718 327.784C360.279 327.784 359.918 327.666 359.934 327.541Z"/><path fill="#FFBE9D" d="M393.703 163.398L379.225 158.577C379.225 158.577 372.836 176.983 370.876 177.164C360.027 178.151 348.417 174.553 344.341 173.134C343.933 172.672 343.463 172.115 342.937 171.433C342.486 170.846 342.139 170.186 341.911 169.481C341.597 168.618 341.402 167.716 341.33 166.8C341.347 166.624 341.309 166.447 341.22 166.293C341.132 166.139 340.998 166.017 340.837 165.943C340.676 165.869 340.496 165.847 340.321 165.879C340.147 165.912 339.988 165.999 339.865 166.126C339.402 166.738 339.277 169.058 340.351 171.567C341.425 174.075 337.63 172.076 336.235 171.371C334.84 170.665 330.426 168.705 329.87 168.964C329.086 169.348 329.313 170.289 330.724 170.955C332.135 171.621 336.212 173.918 335.812 174.639C335.412 175.361 328.357 171.684 328.357 171.684C328.357 171.684 326.977 170.657 326.483 171.472C325.59 172.938 333.366 176.286 334.119 176.584C334.636 176.787 334.228 177.587 333.68 177.367C333.131 177.148 326.734 173.55 325.801 175.016C325.096 176.152 332.182 177.822 333.099 179.296C334.017 180.77 327.847 177.485 327.22 178.606C326.985 179.021 326.86 179.39 330.669 180.738C333.466 181.606 336.308 182.321 339.183 182.878V182.918C339.183 182.918 377.241 199.936 385.433 183.537C394.119 166.134 393.703 163.398 393.703 163.398Z"/><path fill="#455A64" d="M384.846 203.848C384.846 203.848 375.62 265.165 376.945 268.128C378.269 271.092 425.719 321.434 425.719 321.434L436.82 302.416C436.82 302.416 399.388 260.634 399.67 259.513C399.952 258.392 412.934 198.76 412.934 198.76L384.846 203.848Z"/><path fill="#263238" d="M386.861 279.581L394.661 262.453L402.461 245.324L389.323 268.097L386.861 279.581Z"/><path fill="#263238" d="M391.51 264.303C391.546 264.526 391.561 264.751 391.557 264.977C391.557 265.463 391.557 266.114 391.604 266.921V266.858C394.575 270.213 401.16 277.833 408.764 286.738L421.973 302.307L425.939 307.065C426.378 307.598 426.723 308.037 426.998 308.366C427.131 308.511 427.247 308.672 427.342 308.844C427.191 308.719 427.052 308.58 426.927 308.429L425.806 307.175C424.803 306.038 423.454 304.455 421.73 302.518L408.403 287.036C400.807 278.139 394.293 270.441 391.447 266.984C391.447 266.2 391.447 265.526 391.486 265.04C391.461 264.794 391.469 264.546 391.51 264.303Z"/><path fill="#263238" d="M433.26 298.481C433.37 298.551 430.775 302.667 427.475 307.668C424.175 312.67 421.415 316.675 421.313 316.605C421.212 316.534 423.798 312.419 427.099 307.417C430.399 302.416 433.158 298.41 433.26 298.481Z"/><path fill="#263238" d="M381.506 226.879C381.592 226.236 388.961 209.633 388.961 209.633L385.386 204.592L384.751 204.451L381.506 226.879Z"/><path fill="#455A64" d="M392.074 203.26L384.753 204.483L388.962 209.665C382.166 225.045 368.126 257.609 366.44 268.105C364.198 282.012 355.756 325.448 356.602 326.115C357.449 326.781 376.913 326.115 376.913 326.115L389.323 268.105L416.76 220.585C420.172 214.667 421.169 207.661 419.542 201.026L418.994 198.769"/><path fill="#263238" d="M370.141 319.67C370.145 319.562 370.158 319.455 370.18 319.349C370.18 319.114 370.258 318.8 370.321 318.401L370.925 314.771C371.481 311.596 372.273 307.042 373.276 301.445C374.28 295.847 375.479 289.114 376.804 281.682C377.494 277.966 378.215 274.063 378.96 270.018C379.148 269.014 379.352 267.995 379.548 266.968C379.649 266.451 379.744 265.941 379.861 265.4C379.924 265.142 379.971 264.875 380.049 264.617L380.339 263.833C381.123 261.841 382.017 259.913 382.895 257.883C389.989 241.946 396.59 227.6 401.364 217.221L407.063 204.938C407.729 203.511 408.262 202.398 408.631 201.614C408.803 201.253 408.944 200.963 409.054 200.751C409.096 200.65 409.148 200.552 409.211 200.461L409.093 200.775L408.717 201.653L407.22 205.016C405.879 207.963 403.966 212.197 401.63 217.37C396.927 227.788 390.373 242.15 383.287 258.087C382.409 260.078 381.523 262.053 380.739 264.005L380.457 264.726C380.379 264.977 380.339 265.236 380.277 265.51C380.159 266.012 380.065 266.537 379.955 267.078C379.759 268.105 379.563 269.124 379.367 270.127C378.583 274.165 377.886 278.068 377.188 281.776C375.824 289.208 374.593 295.887 373.559 301.523C372.524 307.159 371.685 311.667 371.105 314.849C370.807 316.417 370.572 317.609 370.415 318.463C370.329 318.855 370.266 319.169 370.219 319.404C370.203 319.495 370.176 319.585 370.141 319.67Z"/><path fill="#263238" d="M378.073 320.532C378.073 320.658 373.369 320.673 367.639 320.532C361.909 320.391 357.205 320.242 357.205 320.117C357.205 319.991 361.909 319.976 367.647 320.078C373.385 320.18 378.081 320.407 378.073 320.532Z"/><path fill="#263238" d="M384.752 204.475L385.034 205.141L420.208 202.296L418.97 198.76L384.752 204.475Z"/><path fill="#263238" d="M399.278 147.171L396.926 156.672L396.84 149.836L397.02 148.323L397.232 147.171L394.096 146.113L392.481 148.629H392.011C392.011 148.629 379.351 147.367 374.922 164.096L370.869 174.012L383.137 180.127V180.91L383.921 204.577L419.354 198.838C419.495 193.524 414.07 183.897 415.27 179.084L419.354 162.622L414 147.281L410.292 147.398L408.23 144.96L399.317 147.171"/><path fill="#455A64" d="M383.356 179.986C383.071 179.906 382.804 179.77 382.572 179.586C381.918 179.137 381.361 178.561 380.934 177.893C380.285 176.891 379.99 175.702 380.095 174.514C380.155 173.061 380.634 171.656 381.475 170.469C382.127 169.538 382.986 168.771 383.983 168.227L383.873 168.368C384.171 166.197 384.438 164.331 384.657 163.006C384.732 162.299 384.863 161.599 385.049 160.913C385.05 161.627 384.998 162.339 384.893 163.045C384.759 164.37 384.548 166.252 384.281 168.423V168.517L384.187 168.572C383.122 169.178 382.227 170.042 381.583 171.084C380.94 172.127 380.568 173.314 380.503 174.537C380.384 175.654 380.632 176.78 381.208 177.744C381.601 178.396 382.105 178.975 382.698 179.453C383.144 179.797 383.364 179.954 383.356 179.986Z"/><path fill="#455A64" d="M384.712 164.065C384.61 164.112 384.265 163.61 383.928 162.936C383.591 162.262 383.411 161.674 383.513 161.627C383.615 161.58 383.96 162.081 384.297 162.755C384.634 163.43 384.791 163.97 384.712 164.065Z"/><path fill="#92E3A9" d="M348.465 157.338L459.921 178.747C467.87 180.276 472.871 187.535 471.97 195.805C471.957 195.921 471.936 196.036 471.907 196.15C471.536 198.105 470.78 199.967 469.683 201.627C468.586 203.287 467.17 204.713 465.517 205.821C463.864 206.929 462.007 207.697 460.055 208.081C458.102 208.465 456.093 208.457 454.144 208.057L344.914 186.014L320.824 166.761L348.465 157.338Z"/><path fill="#E0E0E0" d="M348.465 157.338C348.465 157.338 354.548 159.62 353.294 165.452C352.039 171.284 346.152 171.041 346.152 171.041C346.152 171.041 351.875 172.311 350.291 180.487C349.264 185.755 344.914 186.029 344.914 186.029L320.824 166.761L348.465 157.338Z"/><path fill="#455A64" d="M326.061 170.947C328.412 169.779 329.235 166.667 328.412 164.182L320.848 166.761L326.061 170.947Z"/><path fill="#455A64" d="M458.4 193.791L458.11 193.751L457.248 193.61L453.963 193.022C451.11 192.505 446.994 191.729 441.899 190.749C431.708 188.789 417.684 185.975 402.194 182.777L362.544 174.53L350.527 172.014L347.266 171.316L346.419 171.12C346.319 171.106 346.222 171.079 346.129 171.042C346.229 171.045 346.329 171.058 346.427 171.081L347.281 171.23L350.558 171.857L362.622 174.256L402.304 182.385C417.786 185.583 431.818 188.444 441.985 190.475L454.018 192.873L457.287 193.54L458.142 193.72C458.23 193.733 458.317 193.756 458.4 193.791Z"/><path fill="#455A64" d="M454.145 208.057C456.094 208.457 458.103 208.465 460.056 208.081C462.008 207.697 463.865 206.929 465.518 205.821C467.171 204.713 468.587 203.287 469.684 201.627C470.781 199.967 471.537 198.105 471.908 196.15C471.937 196.037 471.958 195.921 471.971 195.805C472.872 187.535 467.871 180.276 459.922 178.747L454.145 208.057Z"/><path fill="#FFBE9D" d="M409.844 161.799C409.844 161.799 403.063 183.192 401.174 183.662C390.607 186.359 378.574 184.642 374.333 183.882C373.855 183.49 373.291 183.004 372.671 182.423C372.137 181.913 371.692 181.317 371.354 180.66C370.905 179.858 370.57 178.998 370.359 178.104C370.351 177.924 370.286 177.75 370.173 177.609C370.06 177.468 369.906 177.366 369.732 177.318C369.557 177.27 369.373 177.279 369.204 177.343C369.035 177.406 368.89 177.522 368.791 177.673C368.422 178.347 368.673 180.66 370.124 182.964C370.124 182.964 361.626 188.358 359.768 188.311C357.91 188.264 352.588 188.13 353.144 188.867C353.701 189.604 359.768 190.615 359.768 190.615L370.743 194.339C370.743 194.339 411.004 205.173 416.515 187.676C419.886 176.952 422.222 170.641 422.747 168.078L409.844 161.799Z"/><path fill="#263238" d="M414.054 147.313C414.054 147.313 422.912 148.88 423.257 163.383C423.421 172.202 421.521 180.937 417.707 188.891L402.123 180.707C405.623 173.703 408.256 166.298 409.962 158.656L414.007 147.305L414.054 147.313Z"/><path fill="#455A64" d="M409.507 159.463C409.508 159.764 409.474 160.064 409.406 160.357C409.319 160.921 409.17 161.736 408.951 162.708C408.376 165.316 407.651 167.889 406.779 170.414C405.903 172.939 404.88 175.41 403.714 177.814C403.268 178.739 402.883 179.476 402.601 179.97C402.473 180.247 402.315 180.51 402.131 180.754C402.202 180.463 402.313 180.184 402.46 179.923C402.727 179.319 403.064 178.582 403.456 177.72C404.287 175.854 405.368 173.244 406.395 170.304C407.422 167.365 408.167 164.645 408.669 162.661C408.899 161.736 409.095 160.952 409.257 160.31C409.306 160.018 409.39 159.734 409.507 159.463Z"/></svg>