<svg width="552" height="447" viewBox="0 0 552 447" fill="none" xmlns="http://www.w3.org/2000/svg">
<path d="M462.472 347.271C462.378 347.271 463.844 340.877 463.98 340.482C465.581 335.939 471.361 328.09 476.757 328.235C477.654 328.283 478.531 328.52 479.33 328.93C480.129 329.34 480.833 329.914 481.395 330.614C481.958 331.315 482.366 332.127 482.593 332.996C482.82 333.865 482.861 334.772 482.714 335.658C482.225 339.432 478.742 342.582 475.613 344.37C471.933 346.471 462.482 347.271 462.472 347.271Z" fill="#263238"/>
<path d="M463.076 321.26C462.982 321.26 465.394 315.146 465.592 314.783C467.869 310.52 474.761 303.638 480.074 304.605C480.953 304.788 481.783 305.155 482.51 305.681C483.238 306.207 483.847 306.88 484.297 307.657C484.747 308.434 485.028 309.297 485.123 310.189C485.218 311.082 485.123 311.985 484.846 312.839C483.806 316.508 479.866 319.076 476.529 320.376C472.547 321.904 463.086 321.26 463.076 321.26Z" fill="#263238"/>
<path d="M469.853 292.348C469.749 292.348 472.161 286.234 472.358 285.871C474.635 281.619 481.538 274.736 486.851 275.693C487.73 275.877 488.56 276.245 489.287 276.772C490.015 277.3 490.623 277.974 491.072 278.752C491.521 279.53 491.802 280.393 491.895 281.287C491.988 282.18 491.892 283.083 491.612 283.937C490.573 287.596 486.633 290.175 483.295 291.474C479.324 292.992 469.853 292.348 469.853 292.348Z" fill="#263238"/>
<path d="M474.917 264.777C474.813 264.777 477.225 258.664 477.423 258.289C479.7 254.037 486.603 247.155 491.915 248.122C492.794 248.306 493.624 248.672 494.352 249.198C495.079 249.724 495.688 250.397 496.138 251.174C496.588 251.951 496.87 252.814 496.964 253.706C497.059 254.599 496.965 255.502 496.687 256.356C495.648 260.026 491.697 262.593 488.37 263.893C484.388 265.411 474.917 264.777 474.917 264.777Z" fill="#263238"/>
<path d="M472.763 240.813C472.659 240.813 473.377 234.305 473.47 233.899C474.51 229.19 479.375 220.727 484.761 220.259C485.656 220.206 486.553 220.341 487.393 220.657C488.233 220.973 488.997 221.462 489.635 222.093C490.273 222.723 490.772 223.481 491.098 224.317C491.424 225.153 491.571 226.048 491.529 226.944C491.529 230.76 488.41 234.284 485.478 236.415C482.068 238.89 472.763 240.813 472.763 240.813Z" fill="#263238"/>
<path d="M459.852 346.564C459.946 346.564 458.906 340.098 458.813 339.703C457.513 335.056 452.263 326.843 446.867 326.635C445.969 326.625 445.079 326.804 444.254 327.161C443.43 327.518 442.69 328.045 442.083 328.707C441.476 329.369 441.015 330.151 440.73 331.004C440.446 331.856 440.344 332.758 440.432 333.652C440.671 337.457 443.946 340.826 446.95 342.811C450.464 345.151 459.842 346.564 459.852 346.564Z" fill="#263238"/>
<path d="M462.702 317.642C462.806 317.642 460.789 311.404 460.622 311.009C458.626 306.611 452.191 299.292 446.826 299.906C445.938 300.033 445.085 300.345 444.325 300.823C443.565 301.302 442.914 301.934 442.415 302.681C441.916 303.427 441.58 304.27 441.428 305.155C441.276 306.04 441.313 306.947 441.535 307.817C442.346 311.539 446.099 314.378 449.363 315.885C453.21 317.663 462.691 317.642 462.702 317.642Z" fill="#263238"/>
<path d="M469.146 290.383C469.24 290.383 467.233 284.145 467.067 283.76C465.081 279.362 458.646 272.043 453.281 272.657C452.392 272.783 451.54 273.094 450.78 273.571C450.019 274.048 449.368 274.679 448.868 275.425C448.368 276.17 448.03 277.012 447.877 277.897C447.724 278.781 447.759 279.688 447.979 280.558C448.8 284.29 452.543 287.118 455.818 288.636C459.654 290.403 469.136 290.383 469.146 290.383Z" fill="#263238"/>
<path d="M473.857 265.016C473.961 265.016 471.944 258.778 471.778 258.383C469.782 253.996 463.357 246.677 457.982 247.29C457.093 247.416 456.241 247.727 455.481 248.204C454.721 248.681 454.07 249.313 453.571 250.059C453.071 250.804 452.735 251.647 452.583 252.531C452.431 253.415 452.468 254.322 452.69 255.191C453.501 258.924 457.254 261.751 460.529 263.259C464.365 265.037 473.857 265.016 473.857 265.016Z" fill="#263238"/>
<path d="M472.568 241.593C472.672 241.593 469.989 235.594 469.771 235.231C467.307 231.072 460.113 224.512 454.842 225.718C453.972 225.941 453.159 226.344 452.456 226.903C451.753 227.461 451.175 228.161 450.761 228.958C450.347 229.755 450.106 230.63 450.053 231.526C450 232.422 450.137 233.32 450.455 234.16C451.671 237.767 455.705 240.179 459.125 241.312C463.138 242.653 472.568 241.593 472.568 241.593Z" fill="#263238"/>
<path d="M466.892 220.863C466.976 220.863 467.36 214.344 467.339 213.928C467.059 209.104 463.701 199.956 458.471 198.594C457.597 198.392 456.69 198.376 455.809 198.548C454.928 198.72 454.093 199.075 453.358 199.591C452.624 200.107 452.006 200.772 451.545 201.542C451.085 202.312 450.791 203.171 450.685 204.062C450.102 207.836 452.577 211.828 455.082 214.458C458.024 217.453 466.882 220.852 466.892 220.863Z" fill="#263238"/>
<path d="M461.621 382.203C461.621 382.203 461.278 379.448 460.862 374.665C460.446 369.883 459.968 363.042 459.749 354.819C459.635 350.66 459.593 346.252 459.677 341.532C459.677 339.162 459.801 336.792 459.895 334.255C459.978 333.028 460.072 331.791 460.155 330.533C460.238 329.275 460.446 327.986 460.581 326.697C461.293 321.449 462.289 316.243 463.565 311.102C464.844 305.852 466.299 300.581 467.723 295.321C469.148 290.06 470.551 284.8 471.653 279.57C472.774 274.464 473.528 269.284 473.909 264.07C474.177 259.188 474.01 254.293 473.41 249.442C472.918 245.045 472.164 240.681 471.154 236.374C470.239 232.392 469.168 228.795 468.191 225.624C467.214 222.453 466.205 219.729 465.374 217.494C463.679 213.024 462.525 210.549 462.525 210.549C462.525 210.549 463.731 213.003 465.519 217.432C466.413 219.646 467.443 222.36 468.524 225.51C469.605 228.66 470.728 232.246 471.726 236.228C472.848 240.505 473.72 244.845 474.335 249.224C475.051 254.124 475.329 259.078 475.167 264.028C474.889 269.314 474.24 274.573 473.223 279.768C472.183 285.07 470.936 290.393 469.615 295.695C468.295 300.997 466.912 306.31 465.758 311.508C464.612 316.593 463.745 321.736 463.159 326.915C463.055 328.173 462.868 329.369 462.827 330.637C462.785 331.905 462.702 333.143 462.64 334.369C462.64 336.74 462.567 339.193 462.588 341.512C462.588 346.18 462.743 350.588 462.951 354.653C463.336 362.793 463.991 369.561 464.48 374.281C464.968 379.001 465.384 381.662 465.384 381.662C465.42 381.909 465.408 382.16 465.347 382.401C465.286 382.643 465.178 382.87 465.029 383.07C464.881 383.27 464.694 383.438 464.48 383.566C464.266 383.694 464.03 383.778 463.783 383.814C463.537 383.85 463.286 383.838 463.044 383.777C462.803 383.716 462.575 383.608 462.376 383.459C462.176 383.311 462.007 383.124 461.879 382.91C461.752 382.696 461.667 382.46 461.631 382.213V382.203H461.621Z" fill="#263238"/>
<path d="M450.059 371.463H475.977V376.828H473.721L469.042 406.104H457.003L452.315 376.828H450.059V371.463Z" fill="#263238" stroke="#263238" stroke-linecap="round" stroke-linejoin="round"/>
<path d="M279.28 391.04C279.28 391.04 278.386 396.311 279.041 397.496C279.696 398.681 280.746 400.241 280.746 400.241H289L289.447 397.693C290.586 398.957 291.983 399.96 293.543 400.636C295.737 401.415 297.858 400.636 300.426 400.833C302.599 400.999 307.703 400.833 307.703 400.833L307.558 398.078L292.66 391.404L287.326 387.245C287.326 387.245 282.648 391.466 279.28 391.04Z" fill="#263238" stroke="#263238" stroke-linecap="round" stroke-linejoin="round"/>
<path d="M217.796 391.04C217.796 391.04 219.21 395.333 218.69 396.508C218.17 397.683 217.318 400.24 217.318 400.24H209.073L208.346 397.693C207.342 398.963 206.047 399.972 204.572 400.635C202.492 401.415 200.247 400.635 197.71 400.833C195.558 400.999 190.433 400.833 190.433 400.833L190.287 398.078L204.457 391.404L210.082 388.285C210.082 388.285 214.469 391.466 217.796 391.04Z" fill="#263238" stroke="#263238" stroke-linecap="round" stroke-linejoin="round"/>
<path d="M283.729 188.353C283.729 188.353 287.139 232.496 288.325 253.6C289.51 274.705 290.061 284.28 290.196 299.136C290.331 313.992 290.986 343.352 290.986 354.382C290.997 365.643 290.265 376.892 288.792 388.056L278.822 393.368C278.822 393.368 275.6 365.049 274.3 354.902C273.125 345.722 268.832 308.368 266.887 296.818C264.943 285.267 256.086 245.106 256.086 245.106C256.086 245.106 244.265 287.243 241.209 304.074C238.152 320.906 226.654 358.863 224.19 368.095C221.726 377.327 217.796 391.019 217.796 391.019C216.41 391.425 214.955 391.538 213.523 391.351C212.881 391.301 212.26 391.093 211.716 390.747C211.173 390.401 210.722 389.927 210.404 389.366C210.404 389.366 213.305 361.732 214.5 348.3C215.987 331.666 216.455 309.584 218.264 300.342C220.073 291.1 220.01 273.395 222.111 261.512C223.306 254.765 229.388 190.214 229.388 190.214C229.388 190.214 263.114 203.864 283.729 188.353Z" fill="#263238" stroke="#263238" stroke-linecap="round" stroke-linejoin="round"/>
<path d="M288.791 388.056L281.025 394.356" stroke="white" stroke-width="0.5" stroke-linecap="round" stroke-linejoin="round"/>
<path d="M210.093 388.264L216.258 392.995" stroke="white" stroke-width="0.5" stroke-linecap="round" stroke-linejoin="round"/>
<path d="M261.179 203.209L260.556 228.951L264.922 224.595" stroke="white" stroke-width="0.5" stroke-linecap="round" stroke-linejoin="round"/>
<path d="M258.456 244.358L270.859 228.93" stroke="white" stroke-width="0.5" stroke-linecap="round" stroke-linejoin="round"/>
<path d="M274.298 230.053L263.954 240.2" stroke="white" stroke-width="0.5" stroke-linecap="round" stroke-linejoin="round"/>
<path d="M251.074 231.186C247.874 224.102 242.405 218.285 235.531 214.656" stroke="white" stroke-width="0.5" stroke-linecap="round" stroke-linejoin="round"/>
<path d="M266.845 196.244L266.253 199.259L261.429 200.382L261.98 196.629" stroke="white" stroke-width="0.5" stroke-linecap="round" stroke-linejoin="round"/>
<path d="M261.43 200.381C261.43 200.381 252.395 200.007 247.811 198.5L248.777 195.495" stroke="white" stroke-width="0.5" stroke-linecap="round" stroke-linejoin="round"/>
<path d="M244.596 194.747L243.681 198.5C243.681 198.5 236.518 198.126 235.364 197.003" stroke="white" stroke-width="0.5" stroke-linecap="round" stroke-linejoin="round"/>
<path d="M266.252 199.228C268.711 199.155 271.12 198.515 273.29 197.357L276.565 195.475L275.297 192.845" stroke="white" stroke-width="0.5" stroke-linecap="round" stroke-linejoin="round"/>
<path d="M288.18 101.97C288.18 101.97 294.709 107.636 296.664 111.379C298.618 115.122 324.276 167.436 324.172 171.012C324.068 174.588 320.274 181.408 313.578 181.408C306.883 181.408 281.506 140.634 281.506 140.634L288.18 101.97Z" fill="white"/>
<g style="mix-blend-mode:multiply" opacity="0.5">
<path d="M288.978 108.25L289.415 108.489C290.184 108.936 291.91 109.944 293.802 111.202C295.94 112.842 297.889 114.715 299.614 116.785C299.614 116.785 297.264 110.547 293.823 107.564C291.909 105.919 290.129 104.126 288.5 102.199L288.978 108.25Z" fill="#92E3A9"/>
</g>
<path d="M288.18 101.97C288.18 101.97 294.709 107.636 296.664 111.379C298.618 115.122 324.276 167.436 324.172 171.012C324.068 174.588 320.274 181.408 313.578 181.408C306.883 181.408 281.506 140.634 281.506 140.634L288.18 101.97Z" stroke="#263238" stroke-linecap="round" stroke-linejoin="round"/>
<path opacity="0.5" d="M304.531 156.676C303.668 155.636 297.254 145.312 296.599 141.455C295.944 137.598 297.638 132.66 297.638 130.082C297.638 127.504 293.563 134.583 293.345 133.731C293.126 132.878 290.558 123.646 290.558 123.646L282.688 133.824L281.514 140.655C281.514 140.655 291.453 156.613 300.539 168.559C307.005 166.479 316.768 163.308 318.868 162.04C322.122 160.117 305.394 157.757 304.531 156.676Z" fill="#92E3A9"/>
<path d="M256.832 94.9009L288.219 101.97C288.219 101.97 290.402 118.053 290.152 126.745C289.903 135.436 283.436 189.185 283.436 189.185C283.436 189.185 266.802 206.152 229.459 190.225C229.459 190.225 228.159 187.719 227.671 168.985C227.203 150.511 213.313 116.203 214.426 112.294C216.713 104.278 244.18 96.5747 247.787 96.3564C250.831 96.0671 253.852 95.5809 256.832 94.9009Z" fill="white" stroke="#263238" stroke-linecap="round" stroke-linejoin="round"/>
<g style="mix-blend-mode:multiply" opacity="0.5">
<path d="M259.672 189.091L230.926 177.822L235.895 123.22L268.592 138.524L288.189 129.708L274.174 186.69L259.672 189.091Z" fill="#92E3A9"/>
</g>
<g style="mix-blend-mode:multiply" opacity="0.5">
<path d="M268.176 104.33C269.517 104.33 281.92 106.815 288.969 108.25C288.563 104.569 288.21 102.012 288.21 102.012L256.823 94.9424C253.843 95.6259 250.822 96.1155 247.779 96.4083C244.171 96.6266 216.704 104.33 214.417 112.346C214.053 113.645 215.321 118.261 217.203 124.53C219.948 117.45 222.401 111.618 223.243 110.797C225.135 108.905 244.036 103.998 244.036 103.998L268.176 104.33Z" fill="#92E3A9"/>
</g>
<path d="M265.359 110.953L261.045 120.601L270.505 187.449L263.571 196.806L256.99 189.175L258.83 121.453L250.118 111.286L255.691 100.744L265.359 110.953Z" fill="#263238"/>
<path d="M298.783 132.556L273.634 146.508L241.291 129.583L236.166 177.354L268.197 192.793L292.452 178.196L298.783 132.556Z" fill="#92E3A9" stroke="#263238" stroke-linecap="round" stroke-linejoin="round"/>
<path d="M272.678 157.237L273.634 149.564" stroke="#263238" stroke-width="0.5" stroke-linecap="round" stroke-linejoin="round"/>
<path d="M268.197 192.793L272.148 161.448" stroke="#263238" stroke-width="0.5" stroke-linecap="round" stroke-linejoin="round"/>
<path d="M259.756 92.2181C259.756 92.2181 265.422 92.2181 267.886 95.9608C270.35 99.7035 275.081 114.497 275.081 114.497L258.031 109.705L247.697 120.382C247.697 120.382 238.226 106.347 242.083 97.4371C245.94 88.5274 259.756 92.2181 259.756 92.2181Z" fill="white" stroke="#263238" stroke-linecap="round" stroke-linejoin="round"/>
<g style="mix-blend-mode:multiply" opacity="0.5">
<path d="M269.612 99.4232C269.124 98.2278 268.547 97.0705 267.886 95.9613C265.422 92.1666 259.756 92.2186 259.756 92.2186C259.756 92.2186 245.96 88.5279 242.082 97.4168C240.835 100.297 241.043 103.717 241.76 107.023C242.436 105.256 243.964 101.71 245.918 99.7455C248.559 97.1049 248.871 99.4024 248.871 99.4024L263.655 98.2277C265.613 98.753 267.602 99.1523 269.612 99.4232V99.4232Z" fill="#92E3A9"/>
</g>
<path d="M262.188 83.6104C262.188 83.6104 263.144 103.28 260.659 107.158C258.175 111.036 255.347 109.549 253.278 107.158C251.209 104.767 248.87 99.4231 248.87 99.4231L246.344 84.8683C246.344 84.8683 261.065 87.5817 262.188 83.6104Z" fill="white" stroke="#263238" stroke-linecap="round" stroke-linejoin="round"/>
<g style="mix-blend-mode:multiply" opacity="0.5">
<path d="M256.854 99.4232C258.995 98.8097 260.896 97.5542 262.301 95.8261C262.301 94.7136 262.301 93.6116 262.301 92.5408C259.879 89.765 254.317 84.5253 248.121 86.2095C247.591 86.355 247.081 86.5214 246.613 86.6877L248.859 99.4232C248.859 99.4232 251.208 104.808 253.267 107.158L251.188 97.8741C251.913 98.6069 252.819 99.1358 253.813 99.4078C254.808 99.6797 255.856 99.685 256.854 99.4232Z" fill="#92E3A9"/>
</g>
<path d="M270.86 65.718C270.86 65.718 273.708 65.5101 273.771 70.2612C273.833 75.0123 271.036 79.0045 269.113 77.3515C267.19 75.6985 270.329 63.5556 270.86 65.718Z" fill="white" stroke="#263238" stroke-linecap="round" stroke-linejoin="round"/>
<path d="M251.301 41.1207C238.337 44.1772 234.865 52.5566 234.969 60.1459C234.969 63.0465 236.31 68.0679 238.088 73.3596L237.859 72.8814C237.859 72.8814 233.96 66.0822 233.388 70.168C232.817 74.2537 236.674 78.485 237.952 79.8469C238.307 80.1738 238.765 80.3671 239.247 80.3936C239.728 80.4202 240.204 80.2784 240.593 79.9925C243.171 86.2302 246.051 91.8131 247.933 93.3309C252.008 96.6266 257.737 98.3212 262.29 94.3706C266.844 90.42 271.345 67.8912 271.345 67.8912C272.427 45.1024 264.266 38.0849 251.301 41.1207Z" fill="white"/>
<g style="mix-blend-mode:multiply" opacity="0.5">
<path d="M244.398 65.1156C244.398 65.1156 248.921 61.3417 253.453 61.3417C257.986 61.3417 267.426 65.5002 268.549 68.8894C269.235 70.9687 268.424 77.6743 267.665 82.7685C269.848 75.5951 271.387 67.9226 271.387 67.9226C272.427 45.1443 264.255 38.106 251.301 41.1625C238.348 44.219 234.865 52.5984 234.969 60.1877C234.969 63.0883 236.31 68.1097 238.088 73.4014L237.859 72.9232C237.859 72.9232 233.96 66.124 233.388 70.2098C232.817 74.2955 236.674 78.5268 237.952 79.8887C238.307 80.2156 238.765 80.4089 239.247 80.4354C239.728 80.462 240.204 80.3202 240.593 80.0343C243.171 86.2721 246.051 91.8549 247.933 93.3727C247.933 93.3727 243.598 83.6106 242.09 79.4625C240.583 75.3143 240.999 68.0993 244.398 65.1156Z" fill="#92E3A9"/>
</g>
<path d="M251.301 41.1207C238.337 44.1772 234.865 52.5566 234.969 60.1459C234.969 63.0465 236.31 68.0679 238.088 73.3596L237.859 72.8814C237.859 72.8814 233.96 66.0822 233.388 70.168C232.817 74.2537 236.674 78.485 237.952 79.8469C238.307 80.1738 238.765 80.3671 239.247 80.3936C239.728 80.4202 240.204 80.2784 240.593 79.9925C243.171 86.2302 246.051 91.8131 247.933 93.3309C252.008 96.6266 257.737 98.3212 262.29 94.3706C266.844 90.42 271.345 67.8912 271.345 67.8912C272.427 45.1024 264.266 38.0849 251.301 41.1207Z" stroke="#263238" stroke-linecap="round" stroke-linejoin="round"/>
<path d="M266.544 74.5239C265.895 75.5002 264.888 76.1824 263.741 76.4235C262.594 76.6646 261.397 76.4454 260.41 75.8131" stroke="#263238" stroke-linecap="round" stroke-linejoin="round"/>
<path d="M252.708 75.8965C252.059 76.8728 251.052 77.5549 249.905 77.7961C248.758 78.0372 247.561 77.818 246.574 77.1856" stroke="#263238" stroke-linecap="round" stroke-linejoin="round"/>
<path d="M253.372 72.7568C251.697 71.9159 249.883 71.3841 248.018 71.187C245.544 71.083 243.111 73.0999 243.111 73.0999" stroke="#263238" stroke-linecap="round" stroke-linejoin="round"/>
<path d="M259.339 83.2568C259.251 83.8886 258.918 84.4605 258.413 84.8494C257.907 85.2383 257.269 85.4131 256.636 85.3361C255.975 85.3562 255.321 85.193 254.746 84.8646C254.172 84.5361 253.7 84.0553 253.382 83.4752" stroke="#263238" stroke-linecap="round" stroke-linejoin="round"/>
<path d="M261.523 88.2778C261.523 88.2778 255.451 90.0868 251.553 88.517C252.062 89.4326 252.759 90.2308 253.597 90.8595C254.435 91.4882 255.397 91.9334 256.418 92.166C258.726 92.7794 261.523 88.2778 261.523 88.2778Z" fill="#263238"/>
<path d="M267.303 70.0225C267.303 70.0225 265.026 69.825 262.874 69.8458C260.899 69.8458 258.934 72.4137 258.934 72.4137L258.237 75.5325" stroke="#263238" stroke-linecap="round" stroke-linejoin="round"/>
<path d="M248.569 58.8048C253.284 62.7531 258.436 66.1471 263.924 68.9204C272.865 73.3908 279.727 64.7619 275.537 60.5202C271.347 56.2785 280.995 65.1777 282.513 59.8548C284.031 54.5319 270.141 36.2656 256.189 36.0057C242.238 35.7458 238.859 44.4891 238.859 44.4891C238.859 44.4891 237.216 39.9875 235.979 42.4722C235.26 43.8245 234.848 45.3191 234.773 46.849C234.773 46.849 231.945 48.9283 230.698 50.1655C229.45 51.4026 231.051 52.7125 231.051 52.7125C231.051 52.7125 228.556 58.9503 229.887 63.7638L237.05 74.1601C237.914 74.1321 238.76 73.9057 239.523 73.4982C240.285 73.0908 240.944 72.5133 241.448 71.8106C243.319 69.357 241.947 61.7054 241.947 61.7054C241.947 61.7054 242.061 69.9392 244.255 68.1303C246.448 66.3213 243.215 58.2746 243.215 58.2746L248.569 58.8048Z" fill="#263238"/>
<path d="M242.342 50.3008C242.342 50.3008 248.725 55.1039 253.341 59.4911C257.957 63.8784 264.995 65.5626 267.085 64.5957" stroke="white" stroke-width="0.5" stroke-miterlimit="10" stroke-linecap="round"/>
<path d="M262.063 56.3409C262.063 56.3409 252.914 54.2616 250.762 50.2903C248.61 46.3189 241.946 46.7867 241.946 46.7867C243.611 45.2516 245.642 44.17 247.845 43.6457C250.048 43.1214 252.348 43.172 254.526 43.7926" stroke="white" stroke-width="0.5" stroke-miterlimit="10" stroke-linecap="round"/>
<path d="M238.869 52.2656C238.869 52.2656 246.022 63.0466 241.51 66.363" stroke="white" stroke-width="0.5" stroke-miterlimit="10" stroke-linecap="round"/>
<path d="M214.427 112.304C214.427 112.304 195.017 165.221 195.911 171.127C196.805 177.032 206.993 174.682 210.206 173.882C213.418 173.081 225.8 153.432 225.883 149.201C226.683 148.7 227.368 148.036 227.891 147.25C228.414 146.465 228.765 145.578 228.919 144.647C229.678 141.237 230.198 129.053 225.27 119.914" fill="white"/>
<g style="mix-blend-mode:multiply" opacity="0.5">
<path d="M214.427 112.304C214.427 112.304 195.017 165.221 195.911 171.127C196.41 174.36 199.695 175.108 203.084 175.004C205.455 168.32 206.38 156.104 208.158 150.053C210.123 143.285 216.527 125.767 220.425 116.556L214.427 112.304Z" fill="#92E3A9"/>
</g>
<path d="M214.427 112.304C214.427 112.304 195.017 165.221 195.911 171.127C196.805 177.032 206.993 174.682 210.206 173.882C213.418 173.081 225.8 153.432 225.883 149.201C226.683 148.7 227.368 148.036 227.891 147.25C228.414 146.465 228.765 145.578 228.919 144.647C229.678 141.237 230.198 129.053 225.27 119.914" stroke="#263238" stroke-linecap="round" stroke-linejoin="round"/>
<path d="M229.098 166.292C229.098 166.292 204.147 164.774 200.945 164.514C197.743 164.254 193.906 168.673 196.921 174.786C199.936 180.899 204.729 181.252 210.613 180.14C216.497 179.028 229.493 171.095 229.493 171.095L229.098 166.292Z" fill="white"/>
<path opacity="0.5" d="M229.098 166.292C229.098 166.292 204.147 164.774 200.945 164.514C197.743 164.254 193.906 168.673 196.921 174.786C199.936 180.899 204.729 181.252 210.613 180.14C216.497 179.028 229.493 171.095 229.493 171.095L229.098 166.292Z" fill="#92E3A9" stroke="#263238" stroke-linecap="round" stroke-linejoin="round"/>
<path d="M229.098 166.292C229.098 166.292 204.147 164.774 200.945 164.514C197.743 164.254 193.906 168.673 196.921 174.786C199.936 180.899 204.729 181.252 210.613 180.14C216.497 179.028 229.493 171.095 229.493 171.095L229.098 166.292Z" stroke="#263238" stroke-linecap="round" stroke-linejoin="round"/>
<path d="M233.077 160.211C233.077 160.211 236.3 156.79 237.152 156.863C238.005 156.936 244.263 156.593 244.794 158.059C245.324 159.524 244.482 158.88 243.619 159.368C242.756 159.857 238.473 160.408 238.473 160.408C238.473 160.408 242.163 160.71 243.276 161.365C244.388 162.02 249.098 166.365 249.077 167.218C249.056 168.07 248.484 168.257 247.341 168.257C246.197 168.257 247.039 169.079 246.727 169.9C246.415 170.721 244.159 170.545 244.159 170.545C244.159 170.545 244.357 173.393 242.652 173.248C240.947 173.102 237.891 170.877 237.891 170.877C237.891 170.877 231.58 173.185 229.314 173.008C227.825 172.941 226.346 173.275 225.03 173.975C226.936 168.975 229.655 164.324 233.077 160.211Z" fill="white"/>
<g style="mix-blend-mode:multiply" opacity="0.5">
<path d="M233.077 160.211C229.664 164.296 226.945 168.915 225.03 173.882C226.346 173.182 227.825 172.848 229.314 172.915C230.059 172.927 230.803 172.847 231.528 172.676C231.98 170.688 232.248 168.662 232.328 166.625C232.328 163.6 237.152 156.863 237.152 156.863C236.289 156.79 233.077 160.211 233.077 160.211Z" fill="#92E3A9"/>
</g>
<path d="M233.077 160.211C233.077 160.211 236.3 156.79 237.152 156.863C238.005 156.936 244.263 156.593 244.794 158.059C245.324 159.524 244.482 158.88 243.619 159.368C242.756 159.857 238.473 160.408 238.473 160.408C238.473 160.408 242.163 160.71 243.276 161.365C244.388 162.02 249.098 166.365 249.077 167.218C249.056 168.07 248.484 168.257 247.341 168.257C246.197 168.257 247.039 169.079 246.727 169.9C246.415 170.721 244.159 170.545 244.159 170.545C244.159 170.545 244.357 173.393 242.652 173.248C240.947 173.102 237.891 170.877 237.891 170.877C237.891 170.877 231.58 173.185 229.314 173.008C227.825 172.941 226.346 173.275 225.03 173.975C226.936 168.975 229.655 164.324 233.077 160.211Z" stroke="#263238" stroke-linecap="round" stroke-linejoin="round"/>
<path d="M247.343 168.164L241.781 163.745L237.248 163.09" stroke="#263238" stroke-linecap="round" stroke-linejoin="round"/>
<path d="M244.151 170.451L237.986 167.113L235.158 166.604" stroke="#263238" stroke-linecap="round" stroke-linejoin="round"/>
<path d="M301.402 156C301.402 156 298.179 152.59 297.327 152.652C296.474 152.715 290.216 152.392 289.686 153.848C289.156 155.303 289.998 154.669 290.86 155.168C292.542 155.654 294.265 155.985 296.007 156.156C296.007 156.156 292.316 156.457 291.204 157.123C290.091 157.788 285.382 162.123 285.402 162.965C285.423 163.807 285.995 164.005 287.139 164.005C288.282 164.005 287.44 164.826 287.752 165.648C288.064 166.469 290.32 166.282 290.32 166.282C290.32 166.282 290.122 169.13 291.827 168.995C293.532 168.86 296.589 166.625 296.589 166.625C296.589 166.625 302.899 168.933 305.166 168.704C306.656 168.635 308.137 168.973 309.449 169.681C307.536 164.71 304.817 160.088 301.402 156V156Z" fill="white" stroke="#263238" stroke-linecap="round" stroke-linejoin="round"/>
<path d="M287.139 163.953L292.69 159.545L297.223 158.89" stroke="#263238" stroke-linecap="round" stroke-linejoin="round"/>
<path d="M290.319 166.24L296.484 162.913L299.312 162.394" stroke="#263238" stroke-linecap="round" stroke-linejoin="round"/>
<path d="M305.115 161.177C305.115 161.177 315.813 159.951 319.483 162.706C323.153 165.461 322.539 172.478 322.539 172.478" stroke="#263238" stroke-linecap="round" stroke-linejoin="round"/>
<path d="M220.602 387.401C220.602 387.401 221.745 385.124 225.394 385.582C229.043 386.039 231.331 390.374 228.815 391.736C226.299 393.098 220.602 387.401 220.602 387.401Z" fill="#92E3A9" stroke="#263238" stroke-linecap="round" stroke-linejoin="round"/>
<path d="M225.998 281.525C225.998 281.525 234.585 283.25 238.713 285.995C242.84 288.74 243.516 289.426 244.545 294.925C245.574 300.425 241.8 315.188 241.8 322.746C241.8 330.304 236.301 376.329 236.301 380.123C236.301 383.918 240.085 391.798 239.742 394.543C239.596 396.516 239.829 398.5 240.428 400.386C240.428 400.386 242.83 402.101 239.742 402.465C236.654 402.829 236.301 403.151 233.556 401.779C230.811 400.406 229.397 393.534 227.027 391.476C224.657 389.417 223.253 387.016 223.253 385.29C223.253 383.564 228.743 377.056 228.743 377.056C228.743 377.056 228.056 367.44 227.703 359.195C227.349 350.951 223.544 332.747 223.544 324.888C223.544 317.028 228.743 298.439 228.743 298.439C228.743 298.439 215.404 300.072 210.206 296.641C205.008 293.21 210.892 278.094 225.998 281.525Z" fill="white" stroke="#263238" stroke-linecap="round" stroke-linejoin="round"/>
<path d="M227.027 391.435C227.027 391.435 220.789 386.081 220.602 387.443C220.415 388.804 220.374 399.544 220.831 400.677C221.288 401.81 233.608 402.964 240.002 404.108C246.396 405.251 243.88 401.134 242.507 400.22C241.135 399.305 227.027 391.435 227.027 391.435Z" fill="#92E3A9" stroke="#263238" stroke-linecap="round" stroke-linejoin="round"/>
<path opacity="0.2" d="M227.027 391.435C227.027 391.435 220.789 386.081 220.602 387.443C220.415 388.804 220.374 399.544 220.831 400.677C221.288 401.81 233.608 402.964 240.002 404.108C246.396 405.251 243.88 401.134 242.507 400.22C241.135 399.305 227.027 391.435 227.027 391.435Z" fill="black"/>
<path d="M228.817 397.485C230.066 395.989 231.527 394.682 233.153 393.607C235.084 392.236 237.251 391.232 239.546 390.645L242.509 396.342C240.466 396.824 238.48 397.521 236.583 398.421C235.144 399.293 233.838 400.368 232.706 401.613C232.706 401.613 229.275 399.315 228.817 397.485Z" fill="#263238" stroke="#263238" stroke-linecap="round" stroke-linejoin="round"/>
<path d="M234.98 391.102C234.692 391.138 234.414 391.233 234.164 391.38C233.913 391.528 233.696 391.725 233.524 391.96C233.353 392.194 233.231 392.462 233.167 392.745C233.103 393.028 233.097 393.322 233.15 393.608C233.379 395.895 233.608 403.193 234.523 403.422C235.438 403.65 246.842 405.501 250.949 405.698C255.055 405.896 259.619 405.927 259.619 403.879C259.619 401.831 258.933 400.916 258.029 400.916C257.124 400.916 255.055 400.23 252.321 398.639C249.587 397.049 242.965 390.884 240.885 390.655C238.806 390.426 236.124 389.044 234.98 391.102Z" fill="#92E3A9" stroke="#263238" stroke-linecap="round" stroke-linejoin="round"/>
<path opacity="0.2" d="M234.98 391.102C234.692 391.138 234.414 391.233 234.164 391.38C233.913 391.528 233.696 391.725 233.524 391.96C233.353 392.194 233.231 392.462 233.167 392.745C233.103 393.028 233.097 393.322 233.15 393.608C233.379 395.895 233.608 403.193 234.523 403.422C235.438 403.65 246.842 405.501 250.949 405.698C255.055 405.896 259.619 405.927 259.619 403.879C259.619 401.831 258.933 400.916 258.029 400.916C257.124 400.916 255.055 400.23 252.321 398.639C249.587 397.049 242.965 390.884 240.885 390.655C238.806 390.426 236.124 389.044 234.98 391.102Z" fill="black"/>
<path d="M139.313 400.916C139.313 399.888 139.008 398.883 138.437 398.028C137.866 397.173 137.054 396.507 136.104 396.113C135.155 395.72 134.109 395.617 133.101 395.818C132.093 396.018 131.166 396.513 130.439 397.24C129.713 397.967 129.217 398.893 129.017 399.902C128.816 400.91 128.919 401.955 129.313 402.905C129.706 403.855 130.372 404.667 131.227 405.238C132.082 405.809 133.087 406.114 134.115 406.114C135.494 406.114 136.816 405.566 137.791 404.592C138.766 403.617 139.313 402.295 139.313 400.916V400.916Z" fill="#263238" stroke="#263238" stroke-linecap="round" stroke-linejoin="round"/>
<path d="M134.116 403.505C135.551 403.505 136.715 402.341 136.715 400.906C136.715 399.47 135.551 398.307 134.116 398.307C132.68 398.307 131.517 399.47 131.517 400.906C131.517 402.341 132.68 403.505 134.116 403.505Z" fill="white" stroke="#263238" stroke-linecap="round" stroke-linejoin="round"/>
<path d="M195.016 400.916C195.016 399.888 194.712 398.883 194.14 398.028C193.569 397.173 192.757 396.507 191.808 396.113C190.858 395.72 189.813 395.617 188.804 395.818C187.796 396.018 186.87 396.513 186.143 397.24C185.416 397.967 184.921 398.893 184.72 399.902C184.519 400.91 184.622 401.955 185.016 402.905C185.409 403.855 186.076 404.667 186.93 405.238C187.785 405.809 188.79 406.114 189.818 406.114C191.197 406.114 192.519 405.566 193.494 404.592C194.469 403.617 195.016 402.295 195.016 400.916V400.916Z" fill="#263238" stroke="#263238" stroke-linecap="round" stroke-linejoin="round"/>
<path d="M192.418 400.916C192.418 400.402 192.265 399.899 191.98 399.472C191.694 399.045 191.288 398.711 190.813 398.515C190.339 398.318 189.816 398.267 189.312 398.367C188.808 398.467 188.344 398.715 187.981 399.078C187.617 399.442 187.37 399.905 187.27 400.409C187.169 400.913 187.221 401.436 187.418 401.911C187.614 402.386 187.947 402.791 188.375 403.077C188.802 403.363 189.305 403.515 189.819 403.515C190.508 403.515 191.169 403.241 191.657 402.754C192.144 402.266 192.418 401.605 192.418 400.916V400.916Z" fill="white" stroke="#263238" stroke-linecap="round" stroke-linejoin="round"/>
<path d="M213.221 400.916C213.221 399.888 212.916 398.883 212.344 398.028C211.773 397.173 210.961 396.507 210.012 396.113C209.062 395.72 208.017 395.617 207.008 395.818C206 396.018 205.074 396.513 204.347 397.24C203.62 397.967 203.125 398.893 202.924 399.902C202.724 400.91 202.826 401.955 203.22 402.905C203.613 403.855 204.28 404.667 205.134 405.238C205.989 405.809 206.994 406.114 208.022 406.114C209.401 406.114 210.723 405.566 211.698 404.592C212.673 403.617 213.221 402.295 213.221 400.916V400.916Z" fill="#263238" stroke="#263238" stroke-linecap="round" stroke-linejoin="round"/>
<path d="M210.623 400.916C210.625 400.399 210.474 399.893 210.188 399.463C209.902 399.032 209.494 398.696 209.017 398.497C208.54 398.298 208.014 398.246 207.507 398.346C207 398.446 206.534 398.695 206.169 399.061C205.803 399.426 205.554 399.892 205.454 400.399C205.354 400.906 205.406 401.432 205.605 401.909C205.804 402.386 206.14 402.794 206.571 403.08C207.001 403.366 207.507 403.517 208.024 403.515C208.713 403.515 209.375 403.241 209.862 402.754C210.349 402.267 210.623 401.606 210.623 400.916V400.916Z" fill="white" stroke="#263238" stroke-linecap="round" stroke-linejoin="round"/>
<path d="M181.751 311.674H170.752V394.959H181.751V311.674Z" fill="#263238" stroke="#263238" stroke-linecap="round" stroke-linejoin="round"/>
<path d="M184.694 355.193H167.831V394.959H184.694V355.193Z" fill="#263238" stroke="#263238" stroke-linecap="round" stroke-linejoin="round"/>
<path d="M133.046 393.389H210.738C211.841 393.389 212.898 393.827 213.678 394.607C214.458 395.387 214.896 396.445 214.896 397.548V398.099H128.888V397.548C128.888 396.445 129.326 395.387 130.106 394.607C130.886 393.827 131.943 393.389 133.046 393.389Z" fill="#263238" stroke="#263238" stroke-linecap="round" stroke-linejoin="round"/>
<path d="M165.025 279.466H150.886V302.255H165.025V279.466Z" fill="#263238" stroke="#263238" stroke-linecap="round" stroke-linejoin="round"/>
<path d="M222.058 299.105H130.446C126.237 299.105 122.825 302.517 122.825 306.725V308.774C122.825 312.982 126.237 316.394 130.446 316.394H222.058C226.267 316.394 229.678 312.982 229.678 308.774V306.725C229.678 302.517 226.267 299.105 222.058 299.105Z" fill="#92E3A9" stroke="#263238" stroke-linecap="round" stroke-linejoin="round"/>
<path opacity="0.1" d="M222.058 299.105H130.446C126.237 299.105 122.825 302.517 122.825 306.725V308.774C122.825 312.982 126.237 316.394 130.446 316.394H222.058C226.267 316.394 229.678 312.982 229.678 308.774V306.725C229.678 302.517 226.267 299.105 222.058 299.105Z" fill="black"/>
<path d="M229.678 307.744C229.678 305.453 228.768 303.255 227.147 301.635C225.527 300.015 223.33 299.105 221.039 299.105H173.902C172.741 299.065 171.585 299.258 170.501 299.675C169.417 300.091 168.428 300.721 167.593 301.528C166.757 302.335 166.093 303.301 165.64 304.37C165.186 305.439 164.952 306.588 164.952 307.749C164.952 308.91 165.186 310.06 165.64 311.129C166.093 312.197 166.757 313.164 167.593 313.971C168.428 314.777 169.417 315.408 170.501 315.824C171.585 316.24 172.741 316.434 173.902 316.394H221.039C223.331 316.391 225.528 315.479 227.148 313.857C228.768 312.235 229.678 310.036 229.678 307.744V307.744Z" fill="#92E3A9" stroke="#263238" stroke-miterlimit="10"/>
<path opacity="0.1" d="M229.678 308.015C229.678 306.88 229.454 305.757 229.02 304.709C228.586 303.66 227.95 302.708 227.147 301.906C226.345 301.103 225.393 300.467 224.345 300.033C223.297 299.599 222.173 299.375 221.039 299.375H173.902C172.741 299.335 171.585 299.529 170.501 299.945C169.417 300.362 168.428 300.992 167.593 301.798C166.757 302.605 166.093 303.572 165.64 304.641C165.186 305.709 164.952 306.859 164.952 308.02C164.952 309.181 165.186 310.33 165.64 311.399C166.093 312.468 166.757 313.435 167.593 314.241C168.428 315.048 169.417 315.678 170.501 316.095C171.585 316.511 172.741 316.705 173.902 316.664H221.039C222.174 316.664 223.298 316.441 224.347 316.006C225.396 315.571 226.349 314.934 227.151 314.13C227.954 313.327 228.59 312.373 229.023 311.324C229.457 310.275 229.679 309.15 229.678 308.015V308.015Z" fill="black"/>
<path d="M185.806 279.477H130.706C129.417 279.477 128.142 279.22 126.955 278.719C125.768 278.219 124.693 277.486 123.794 276.563C122.895 275.641 122.189 274.548 121.719 273.348C121.25 272.149 121.025 270.867 121.058 269.58L122.42 215.862C122.48 213.344 123.523 210.949 125.326 209.191C127.129 207.432 129.549 206.45 132.068 206.453H177.531C179.837 206.449 182.069 207.272 183.82 208.774C185.571 210.275 186.726 212.355 187.074 214.635L195.34 268.394C195.546 269.767 195.454 271.167 195.07 272.501C194.685 273.834 194.018 275.069 193.113 276.121C192.208 277.173 191.087 278.017 189.826 278.596C188.565 279.175 187.194 279.476 185.806 279.477V279.477Z" fill="#92E3A9" stroke="#263238" stroke-linecap="round" stroke-linejoin="round"/>
<path opacity="0.1" d="M185.806 279.477H130.706C129.417 279.477 128.142 279.22 126.955 278.719C125.768 278.219 124.693 277.486 123.794 276.563C122.895 275.641 122.189 274.548 121.719 273.348C121.25 272.149 121.025 270.867 121.058 269.58L122.42 215.862C122.48 213.344 123.523 210.949 125.326 209.191C127.129 207.432 129.549 206.45 132.068 206.453H177.531C179.837 206.449 182.069 207.272 183.82 208.774C185.571 210.275 186.726 212.355 187.074 214.635L195.34 268.394C195.546 269.767 195.454 271.167 195.07 272.501C194.685 273.834 194.018 275.069 193.113 276.121C192.208 277.173 191.087 278.017 189.826 278.596C188.565 279.175 187.194 279.476 185.806 279.477V279.477Z" fill="black"/>
<path d="M167.809 313.639L143.648 329.546" stroke="#263238" stroke-linecap="round" stroke-linejoin="round"/>
<path d="M142.734 327.102L138.576 329.899C138.25 330.121 137.978 330.412 137.778 330.752C137.578 331.092 137.456 331.471 137.42 331.864C137.384 332.256 137.436 332.652 137.571 333.022C137.706 333.392 137.921 333.728 138.202 334.005L138.555 334.338C139.022 334.798 139.643 335.068 140.298 335.097C140.952 335.126 141.594 334.911 142.1 334.494L145.905 331.375C146.188 331.141 146.419 330.852 146.584 330.525C146.749 330.197 146.845 329.84 146.866 329.474C146.886 329.108 146.831 328.741 146.703 328.398C146.575 328.054 146.378 327.74 146.124 327.477V327.477C145.693 327.025 145.117 326.741 144.497 326.672C143.877 326.604 143.253 326.756 142.734 327.102V327.102Z" fill="#263238" stroke="#263238" stroke-linecap="round" stroke-linejoin="round"/>
<path d="M171.584 393.389H195.423C196.526 393.389 197.583 393.827 198.363 394.607C199.143 395.387 199.581 396.445 199.581 397.548V398.099H171.584V393.389Z" fill="#263238" stroke="#263238" stroke-linecap="round" stroke-linejoin="round"/>
<path d="M190.671 251.791C195.373 251.791 199.185 249.622 199.185 246.947C199.185 244.271 195.373 242.102 190.671 242.102C185.968 242.102 182.156 244.271 182.156 246.947C182.156 249.622 185.968 251.791 190.671 251.791Z" fill="white" stroke="#263238" stroke-linecap="round" stroke-linejoin="round"/>
<path d="M214.366 286.681C214.366 286.681 228.099 287.367 231.197 294.582C231.835 297.053 232.184 299.589 232.237 302.14C232.237 305.914 244.941 378.73 245.284 380.113C245.627 381.495 253.185 392.131 254.215 394.532C255.244 396.934 256.294 399.003 256.294 399.003C256.294 399.003 259.413 400.375 259.049 401.404C258.685 402.434 251.491 402.777 248.403 402.777C245.315 402.777 241.874 395.229 239.816 394.532C237.757 393.836 235.345 391.414 235.345 390.072C235.345 388.731 236.385 378.74 236.385 378.74C235.068 370.59 232.763 362.631 229.523 355.037C224.928 344.568 219.21 329.275 218.524 322.07C217.838 314.866 217.838 307.983 217.838 307.983L209.168 306.6C209.168 306.6 208.128 288.74 214.366 286.681Z" fill="white" stroke="#263238" stroke-linecap="round" stroke-linejoin="round"/>
<path d="M242.278 397.942C242.278 397.942 245.023 386.766 252.092 391.102L255.055 396.113C255.055 396.113 248.443 396.113 246.385 402.506C245.38 402.139 244.48 401.531 243.764 400.735C243.048 399.94 242.538 398.981 242.278 397.942V397.942Z" fill="#263238" stroke="#263238" stroke-linecap="round" stroke-linejoin="round"/>
<path d="M185.942 265.826L185.609 265.878C182.49 253.174 178.28 240.189 178.28 240.189C178.28 240.189 157.622 245.647 145.708 241.946C145.708 241.946 139.647 271.794 139.647 279.591C139.647 285.829 138.358 292.171 143.078 295.83C143.535 296.502 144.121 297.075 144.803 297.517C145.486 297.958 146.249 298.257 147.049 298.398C159.93 300.82 182.127 299.978 185.828 300.716C189.529 301.454 209.167 306.601 209.167 306.601C209.167 306.601 210.342 295.768 213.669 288.74C216.996 281.712 232.185 282.907 232.185 282.907L185.942 265.826Z" fill="#263238" stroke="#263238" stroke-linecap="round" stroke-linejoin="round"/>
<path d="M181.171 182.594C181.171 182.594 178.323 179.018 175.245 182.958C172.168 186.898 174.611 200.579 176.129 206.048C177.647 211.516 203.284 234.201 205.696 235.885C208.108 237.57 239.536 244.67 242.281 243.371C245.025 242.071 245.816 235.49 244.256 231.935C242.697 228.379 213.327 220.831 213.327 220.831L181.171 182.594Z" fill="white"/>
<g style="mix-blend-mode:multiply" opacity="0.5">
<path d="M205.695 235.906C208.107 237.58 239.535 244.691 242.279 243.391C243.86 242.643 244.785 240.127 244.993 237.455C240.138 235.501 234.378 234.18 231.706 234.336C227.828 234.555 230.428 238.172 224.211 237.154C217.994 236.135 210.903 232.995 204.458 229.315C198.012 225.634 186.441 214.76 186.441 214.76L195.517 215.8L185.172 212.608L194.165 209.229L186.441 208.772C186.935 207.548 187.166 206.234 187.116 204.915C187.116 202.243 182.022 192.325 182.022 192.325L176.616 207.181C180.39 213.959 203.418 234.315 205.695 235.906Z" fill="#92E3A9"/>
</g>
<path d="M181.171 182.594C181.171 182.594 178.323 179.018 175.245 182.958C172.168 186.898 174.611 200.579 176.129 206.048C177.647 211.516 203.284 234.201 205.696 235.885C208.108 237.57 239.536 244.67 242.281 243.371C245.025 242.071 245.816 235.49 244.256 231.935C242.697 228.379 213.327 220.831 213.327 220.831L181.171 182.594Z" stroke="#263238" stroke-linecap="round" stroke-linejoin="round"/>
<path d="M191.265 211.318L184.206 214.053L196.079 218.003" stroke="#263238" stroke-width="0.5" stroke-linecap="round" stroke-linejoin="round"/>
<path d="M242.352 231.903C241.444 232.089 240.614 232.545 239.97 233.211C239.327 233.877 238.899 234.722 238.744 235.635C238.131 238.89 241.333 241.665 241.333 241.665C241.333 241.665 248.08 243.984 250.097 238.546C252.114 233.109 245.616 231.695 242.352 231.903Z" fill="white"/>
<g style="mix-blend-mode:multiply" opacity="0.5">
<path d="M241.333 241.665C241.333 241.665 247.092 243.63 249.556 239.669C246.172 237.785 242.554 236.356 238.796 235.417C238.774 235.489 238.756 235.561 238.744 235.635C238.131 238.889 241.333 241.665 241.333 241.665Z" fill="#92E3A9"/>
</g>
<path d="M242.352 231.903C241.444 232.089 240.614 232.545 239.97 233.211C239.327 233.877 238.899 234.722 238.744 235.635C238.131 238.89 241.333 241.665 241.333 241.665C241.333 241.665 248.08 243.984 250.097 238.546C252.114 233.109 245.616 231.695 242.352 231.903Z" stroke="#263238" stroke-linecap="round" stroke-linejoin="round"/>
<path d="M262.282 239.42C264.166 239.722 265.903 240.627 267.23 241.998C269.195 244.213 267.594 245.117 266.336 244.795C265.078 244.472 260.941 238.359 262.282 239.42Z" fill="white" stroke="#263238" stroke-linecap="round" stroke-linejoin="round"/>
<path d="M260.971 239.014C262.797 239.575 264.391 240.713 265.514 242.258C267.157 244.711 265.441 245.377 264.246 244.898C263.05 244.42 259.786 237.777 260.971 239.014Z" fill="white" stroke="#263238" stroke-linecap="round" stroke-linejoin="round"/>
<path d="M249.202 234.169C249.202 234.169 246.083 235.313 245.74 237.288C245.684 237.905 245.756 238.527 245.953 239.114C246.15 239.701 246.467 240.24 246.884 240.698C246.884 240.698 250.003 243.193 251.188 243.453C252.373 243.713 255.035 245.231 255.347 243.786C255.658 242.341 252.498 241.062 252.498 241.062C252.498 241.062 258.538 241.426 258.736 242.642C258.933 243.859 261.116 245.117 263.05 245.148C264.984 245.179 262.645 241.27 262.177 240.293C261.709 239.316 253.07 234.242 249.202 234.169Z" fill="white" stroke="#263238" stroke-linecap="round" stroke-linejoin="round"/>
<path d="M150.198 172.894C150.198 172.894 131.194 183.945 129.707 184.673C128.22 185.4 126.744 196.836 126.744 197.918C126.744 198.999 145.749 241.946 145.749 241.946C145.749 241.946 150.427 245.907 164.119 245.907C177.811 245.907 178.871 243.828 178.871 243.828L179.963 225.707C179.963 225.707 184.641 213.46 185.005 211.298C185.369 209.135 181.169 182.593 181.169 182.593L161.728 169.629C161.728 169.629 153.806 164.972 150.198 172.894Z" fill="white"/>
<g style="mix-blend-mode:multiply" opacity="0.5">
<path d="M131.641 192.532C133.127 190.152 146.809 181.232 146.809 181.232L151.862 178.258L158.339 168.434C155.739 167.956 152.267 168.351 150.198 172.894C150.198 172.894 131.152 183.945 129.707 184.662C128.262 185.38 126.744 196.826 126.744 197.907C126.744 198.146 127.638 200.35 129.031 203.667C129.572 198.749 130.601 194.196 131.641 192.532Z" fill="#92E3A9"/>
</g>
<path d="M150.198 172.894C150.198 172.894 131.194 183.945 129.707 184.673C128.22 185.4 126.744 196.836 126.744 197.918C126.744 198.999 145.749 241.946 145.749 241.946C145.749 241.946 150.427 245.907 164.119 245.907C177.811 245.907 178.871 243.828 178.871 243.828L179.963 225.707C179.963 225.707 184.641 213.46 185.005 211.298C185.369 209.135 181.169 182.593 181.169 182.593L161.728 169.629C161.728 169.629 153.806 164.972 150.198 172.894Z" stroke="#263238" stroke-linecap="round" stroke-linejoin="round"/>
<path d="M156.571 190.037L162.112 196.015L160.958 221.434L169.068 223.576L169.92 212.473L172.904 224.002L178.882 218.024L165.959 195.589L167.664 188.759L160.407 180.649L155.719 191.753" fill="#263238"/>
<path d="M156.571 190.037L162.112 196.015L160.958 221.434L169.068 223.576L169.92 212.473L172.904 224.002L178.882 218.024L165.959 195.589L167.664 188.759L160.407 180.649L155.719 191.753" stroke="#263238" stroke-linecap="round" stroke-linejoin="round"/>
<path d="M146.486 172.956C146.486 172.956 147.672 180.868 149.252 184.392C150.832 187.916 154.398 193.894 154.398 193.894L161.914 186.367L169.441 191.565C169.441 191.565 168.651 178.508 165.875 172.571C163.1 166.635 149.647 160.688 146.486 172.956Z" fill="white" stroke="#263238" stroke-linecap="round" stroke-linejoin="round"/>
<g style="mix-blend-mode:multiply" opacity="0.5">
<path d="M151.861 178.258L159.378 166.822C158.006 166.222 156.538 165.869 155.042 165.783C153.753 166.043 152.298 166.365 150.759 166.708C148.877 167.748 147.318 169.702 146.486 172.946C146.486 172.946 147.079 176.938 147.994 180.525L151.861 178.258Z" fill="#92E3A9"/>
</g>
<path d="M165.086 170.575C164.068 172.817 163.53 175.246 163.506 177.707C163.506 181.658 164.296 186.024 164.296 187.999V193.936C164.296 193.936 159.545 187.999 155.979 183.643C152.413 179.287 149.647 175.326 150.043 171.771C150.438 168.215 154.004 154.347 154.004 154.347C155.887 154.33 157.738 154.839 159.347 155.819C160.956 156.798 162.26 158.207 163.111 159.888C166.271 165.824 165.086 170.575 165.086 170.575Z" fill="white" stroke="#263238" stroke-linecap="round" stroke-linejoin="round"/>
<g style="mix-blend-mode:multiply" opacity="0.5">
<path d="M152.757 163.693L151.571 164.264C150.844 167.383 150.199 170.367 150.043 171.771C149.658 175.201 152.226 179.048 155.605 183.207L156.031 175.025L165.087 170.606L157.809 163.422L152.757 163.693Z" fill="#92E3A9"/>
</g>
<path d="M172.78 166.323C172.78 166.323 170.16 171.178 172.988 171.376C175.816 171.573 175.202 169.151 175.608 168.35C176.013 167.55 177.833 169.39 176.824 173.195C175.816 177 170.763 179.662 167.728 176.626C164.692 173.59 165.513 170.388 166.522 167.945C167.53 165.502 171.595 164.306 172.78 166.323Z" fill="#263238" stroke="#263238" stroke-linecap="round" stroke-linejoin="round"/>
<path d="M167.104 123.407C166.22 123.282 165.295 123.189 164.338 123.137C160.856 122.96 157.061 123.189 154.348 125.362C148.713 129.874 149.659 138.939 150.064 145.25C150.522 152.413 150.428 162.861 155.803 168.049C164.879 176.803 179.07 167.435 179.07 157.06C179.07 152.673 179.236 145.988 179.528 144.491C179.907 142.641 180.167 140.77 180.307 138.887C180.931 129.333 175.515 124.603 167.104 123.407Z" fill="white" stroke="#263238" stroke-linecap="round" stroke-linejoin="round"/>
<g style="mix-blend-mode:multiply" opacity="0.5">
<path d="M170.451 169.92C167.911 169.885 165.377 169.69 162.862 169.338C159.005 168.745 153.65 162.497 156.322 153.879C158.994 145.26 159.005 140.79 159.005 140.79L149.908 135.103C149.699 138.484 149.755 141.877 150.074 145.25C150.532 152.413 150.438 162.861 155.813 168.049C160.221 172.311 165.835 172.27 170.451 169.92Z" fill="#92E3A9"/>
</g>
<path d="M165.295 151.062C165.863 151.062 166.324 150.27 166.324 149.294C166.324 148.318 165.863 147.527 165.295 147.527C164.726 147.527 164.266 148.318 164.266 149.294C164.266 150.27 164.726 151.062 165.295 151.062Z" fill="#263238"/>
<path d="M175.45 149.731C175.388 150.708 174.868 151.467 174.307 151.425C173.745 151.384 173.33 150.573 173.392 149.596C173.454 148.618 173.964 147.859 174.536 147.901C175.107 147.943 175.513 148.754 175.45 149.731Z" fill="#263238"/>
<path d="M162.103 145.063C162.103 145.063 164.182 140.676 167.519 142.744Z" fill="white"/>
<path d="M162.103 145.063C162.103 145.063 164.182 140.676 167.519 142.744" stroke="#263238" stroke-linecap="round" stroke-linejoin="round"/>
<path d="M172.935 143.514C172.935 143.514 175.398 140.686 176.802 145.323Z" fill="white"/>
<path d="M172.935 143.514C172.935 143.514 175.398 140.686 176.802 145.323" stroke="#263238" stroke-linecap="round" stroke-linejoin="round"/>
<path d="M171.335 152.808C171.335 152.985 171.335 153.162 171.335 153.318C171.595 155.126 172.884 156.436 172.375 157.185C171.865 157.933 169.256 158.225 169.256 158.225" fill="white"/>
<path d="M171.335 152.808C171.335 152.985 171.335 153.162 171.335 153.318C171.595 155.126 172.884 156.436 172.375 157.185C171.865 157.933 169.256 158.225 169.256 158.225" stroke="#263238" stroke-linecap="round" stroke-linejoin="round"/>
<path d="M168.289 162.352C168.289 162.352 163.745 163.755 162.051 160.085Z" fill="white"/>
<path d="M168.289 162.352C168.289 162.352 163.745 163.755 162.051 160.085" stroke="#263238" stroke-linecap="round" stroke-linejoin="round"/>
<path d="M164.41 153.619C167.361 153.619 169.754 151.227 169.754 148.275C169.754 145.324 167.361 142.932 164.41 142.932C161.459 142.932 159.066 145.324 159.066 148.275C159.066 151.227 161.459 153.619 164.41 153.619Z" stroke="#263238" stroke-width="0.5" stroke-linecap="round" stroke-linejoin="round"/>
<path d="M176.502 153.619C179.149 153.619 181.294 151.227 181.294 148.275C181.294 145.324 179.149 142.932 176.502 142.932C173.855 142.932 171.709 145.324 171.709 148.275C171.709 151.227 173.855 153.619 176.502 153.619Z" stroke="#263238" stroke-width="0.5" stroke-linecap="round" stroke-linejoin="round"/>
<path d="M159.065 148.275L151.435 148.598" stroke="#263238" stroke-width="0.5" stroke-linecap="round" stroke-linejoin="round"/>
<path d="M181.295 148.275H179.341" stroke="#263238" stroke-width="0.5" stroke-linecap="round" stroke-linejoin="round"/>
<path d="M169.744 146.643H171.959" stroke="#263238" stroke-width="0.5" stroke-linecap="round" stroke-linejoin="round"/>
<path d="M176.533 117.097C172.544 116.4 168.51 115.983 164.463 115.849C164.463 115.849 157.383 112.512 147.829 116.265C134.158 121.609 134.459 139.865 137.848 151.498C138.888 155.012 141.331 160.345 139.086 163.87C137.672 166.095 133.627 164.909 134.241 161.853C134.854 158.796 135.852 159.836 136.663 159.431C137.474 159.025 136.258 158.62 134.438 158.017C132.619 157.414 131.028 159.056 130.8 163.059C130.197 173.975 146.28 181.2 152.414 171.657C154.909 167.498 152.694 160.273 151.613 155.022C151.27 153.205 151.037 151.368 150.917 149.523C152.857 149.337 154.657 148.428 155.959 146.976C156.922 145.655 157.745 144.237 158.412 142.744C159.14 142.744 159.899 142.796 160.731 142.88C169.048 143.711 171.564 129.552 171.564 129.552C171.564 129.552 175.722 137.463 176.97 140.384L178.217 143.295C178.217 143.295 181.554 143.711 184.881 136.631C188.208 129.552 184.445 118.376 176.533 117.097Z" fill="#263238" stroke="#263238" stroke-linecap="round" stroke-linejoin="round"/>
<path d="M171.086 126.225C171.086 126.225 181.316 129.739 181.628 135.81C181.94 141.881 180.349 142.193 180.349 142.193" stroke="white" stroke-width="0.5" stroke-miterlimit="10" stroke-linecap="round"/>
<path d="M169.815 123.989C169.815 123.989 179.39 121.754 182.593 128.148" stroke="white" stroke-width="0.5" stroke-miterlimit="10" stroke-linecap="round"/>
<path d="M157.996 117.596C157.996 117.596 167.571 122.388 169.172 126.869C170.773 131.35 162.467 139.958 157.03 141.559C151.592 143.16 147.455 141.237 143.618 144.117C139.782 146.996 141.383 154.97 141.383 154.97" stroke="white" stroke-width="0.5" stroke-miterlimit="10" stroke-linecap="round"/>
<path d="M138.472 146.029C138.472 146.029 135.915 139.958 141.352 136.766C146.789 133.575 151.571 136.766 157.643 132.93C163.714 129.094 164.671 124.312 164.671 124.312" stroke="white" stroke-width="0.5" stroke-miterlimit="10" stroke-linecap="round"/>
<path d="M152.538 151.54C152.538 151.54 149.18 143.379 145.812 146.259C142.443 149.138 148.213 156.821 152.049 155.865" fill="white"/>
<path d="M152.538 151.54C152.538 151.54 149.18 143.379 145.812 146.259C142.443 149.138 148.213 156.821 152.049 155.865" stroke="#263238" stroke-linecap="round" stroke-linejoin="round"/>
<g opacity="0.37">
<path d="M152.538 151.54C152.538 151.54 149.18 143.379 145.812 146.259C142.443 149.138 148.213 156.821 152.049 155.865" fill="#92E3A9"/>
<path d="M152.538 151.54C152.538 151.54 149.18 143.379 145.812 146.259C142.443 149.138 148.213 156.821 152.049 155.865" stroke="#263238" stroke-linecap="round" stroke-linejoin="round"/>
</g>
<path d="M132.025 185.494C132.025 185.494 130.393 184.267 126.765 187.002C123.136 189.736 119.758 202.17 122.024 207.441C124.29 212.712 130.341 240.116 133.158 241.613C135.976 243.11 166.271 242.986 169.847 242.144C173.423 241.302 175.918 236.623 175.315 232.579C174.712 228.535 170.72 227.485 169.545 227.454C168.371 227.422 144.241 226.05 144.241 226.05L136.745 194.383" fill="white"/>
<g style="mix-blend-mode:multiply" opacity="0.5">
<path d="M170.803 235.355C169.078 233.224 141.611 236.935 138.679 235.355C135.747 233.775 134.333 230.77 136.475 228.743C138.616 226.716 132.379 226.258 132.431 224.47C132.483 222.682 136.059 222.193 135.83 219.802C135.602 217.411 127.877 216.912 128.064 210.071C128.251 203.23 129.967 194.955 131.516 192.616C132.374 191.629 133.36 190.762 134.448 190.037L132.025 185.484C132.025 185.484 130.393 184.257 126.765 186.991C123.136 189.726 119.758 202.17 122.024 207.441C124.29 212.712 130.341 240.116 133.158 241.614C135.976 243.111 166.271 242.986 169.847 242.144C171.003 241.774 172.054 241.133 172.911 240.274C173.768 239.414 174.407 238.362 174.775 237.206C172.852 236.655 171.313 235.979 170.803 235.355Z" fill="#92E3A9"/>
</g>
<path d="M132.025 185.494C132.025 185.494 130.393 184.267 126.765 187.002C123.136 189.736 119.758 202.17 122.024 207.441C124.29 212.712 130.341 240.116 133.158 241.613C135.976 243.11 166.271 242.986 169.847 242.144C173.423 241.302 175.918 236.623 175.315 232.579C174.712 228.535 170.72 227.485 169.545 227.454C168.371 227.422 144.241 226.05 144.241 226.05L136.745 194.383" stroke="#263238" stroke-linecap="round" stroke-linejoin="round"/>
<path d="M135.062 231.893C136.851 226.632 144.232 226.528 144.232 226.528C141.288 225.757 138.21 225.647 135.218 226.206" stroke="#263238" stroke-width="0.5" stroke-linecap="round" stroke-linejoin="round"/>
<path d="M174.006 228.764C172.913 229.231 171.981 230.008 171.324 230.998C170.666 231.987 170.312 233.148 170.305 234.336C170.18 238.599 173.008 239.389 173.704 239.877C174.401 240.366 178.601 242.622 180.296 241.239C181.99 239.857 183.986 236.135 182.375 233.016C180.763 229.897 175.659 228.805 174.006 228.764Z" fill="white"/>
<g style="mix-blend-mode:multiply" opacity="0.5">
<path d="M180.296 241.239C180.728 240.873 181.112 240.453 181.439 239.991L177.905 238.11C174.661 237.216 171.573 236.301 170.804 235.355C170.67 235.214 170.502 235.11 170.315 235.053C170.513 238.692 173.039 239.42 173.705 239.877C174.37 240.335 178.601 242.622 180.296 241.239Z" fill="#92E3A9"/>
</g>
<path d="M174.006 228.764C172.913 229.231 171.981 230.008 171.324 230.998C170.666 231.987 170.312 233.148 170.305 234.336C170.18 238.599 173.008 239.389 173.704 239.877C174.401 240.366 178.601 242.622 180.296 241.239C181.99 239.857 183.986 236.135 182.375 233.016C180.763 229.897 175.659 228.805 174.006 228.764Z" stroke="#263238" stroke-linecap="round" stroke-linejoin="round"/>
<path d="M179.86 232.579C179.86 232.579 177.282 233.567 176.928 235.511C176.575 237.455 176.7 238.505 177.147 238.63C177.594 238.755 179.08 239.43 179.08 239.43L183.665 241.811C183.665 241.811 187.304 245.97 188.499 246.302C189.695 246.635 188.666 245.855 188.499 244.951C187.979 243.655 187.305 242.427 186.493 241.291L191.92 246.094C191.92 246.094 193.708 246.739 193.292 245.377C192.876 244.015 190.1 241.218 190.1 241.218L195.226 245.866C195.226 245.866 196.265 246.344 196.265 245.741C196.324 245.439 196.303 245.127 196.204 244.835C196.106 244.543 195.934 244.282 195.704 244.077C195.122 243.61 191.629 239.607 191.629 239.607L196.494 242.591C196.494 242.591 197.534 243.973 198.261 243.994C198.989 244.015 198.573 243.547 198.022 241.915C197.471 240.283 193.77 237.892 192.45 236.956C191.13 236.02 183.915 232.693 179.86 232.579Z" fill="white" stroke="#263238" stroke-linecap="round" stroke-linejoin="round"/>
<path d="M412.468 231.332H371.86L379.169 207.628H419.777L412.468 231.332Z" fill="#263238" stroke="#263238" stroke-linecap="round" stroke-linejoin="round"/>
<path d="M409.274 233.567H368.677L375.985 209.853H416.583L409.274 233.567Z" fill="white" stroke="#263238" stroke-linecap="round" stroke-linejoin="round"/>
<path d="M350.932 224.179H417.842C419.497 224.179 421.083 224.836 422.253 226.006C423.423 227.176 424.08 228.763 424.08 230.417V247.862H350.932V224.179Z" fill="#263238" stroke="#263238" stroke-linecap="round" stroke-linejoin="round"/>
<path d="M412.104 224.179H338.925V247.893H412.104V224.179Z" fill="white" stroke="#263238" stroke-linecap="round" stroke-linejoin="round"/>
<path d="M395.637 241.53H337.179V244.66H395.637V241.53Z" fill="white" stroke="#263238" stroke-linecap="round" stroke-linejoin="round"/>
<path d="M395.637 238.401H349.654V241.53H395.637V238.401Z" fill="#263238" stroke="#263238" stroke-linecap="round" stroke-linejoin="round"/>
<path d="M337.416 245.585H291.287V247.737H337.416V245.585Z" fill="white" stroke="#263238" stroke-linecap="round" stroke-linejoin="round"/>
<path d="M372.888 169.411H273.458V233.536H372.888V169.411Z" fill="white" stroke="#263238" stroke-linecap="round" stroke-linejoin="round"/>
<path d="M372.889 169.411H278.886V233.536H372.889V169.411Z" fill="#263238" stroke="#263238" stroke-linecap="round" stroke-linejoin="round"/>
<path d="M338.488 199.207H316.729V248.714H338.488V199.207Z" fill="white" stroke="#263238" stroke-linecap="round" stroke-linejoin="round"/>
<path d="M340.494 199.207H318.734V248.714H340.494V199.207Z" fill="#263238" stroke="#263238" stroke-linecap="round" stroke-linejoin="round"/>
<path d="M317.29 199.789H341.004V233.691" stroke="white" stroke-linejoin="round"/>
<path d="M272.774 244.431H206.165V247.914H272.774V244.431Z" fill="white" stroke="#263238" stroke-linecap="round" stroke-linejoin="round"/>
<path d="M289.99 244.431H223.381V247.914H289.99V244.431Z" fill="white" stroke="#263238" stroke-linecap="round" stroke-linejoin="round"/>
<path d="M203.595 253.652H101.535L96.6901 402.798C96.6634 403.211 96.7192 403.625 96.8542 404.016C96.9893 404.408 97.2009 404.768 97.4766 405.077C97.7524 405.386 98.0869 405.636 98.4605 405.814C98.8342 405.992 99.2396 406.094 99.653 406.114V406.114C100.418 406.092 101.146 405.784 101.695 405.251C102.243 404.718 102.572 403.998 102.616 403.234L112.357 281.359C112.481 279.185 113.414 277.136 114.972 275.616C116.531 274.096 118.602 273.215 120.778 273.145H184.352C186.527 273.215 188.597 274.097 190.154 275.617C191.711 277.137 192.641 279.186 192.762 281.359L202.514 403.214C202.558 403.976 202.885 404.694 203.431 405.227C203.978 405.759 204.704 406.069 205.467 406.093C205.88 406.075 206.286 405.974 206.66 405.797C207.034 405.621 207.369 405.371 207.646 405.063C207.923 404.756 208.135 404.396 208.272 404.005C208.408 403.614 208.465 403.2 208.44 402.787L203.595 253.652Z" fill="#92E3A9" stroke="#263238" stroke-linecap="round" stroke-linejoin="round"/>
<path d="M203.824 260.514L203.595 253.652H170.212H134.917H101.534L101.306 260.514H203.824Z" fill="#263238" stroke="#263238" stroke-linecap="round" stroke-linejoin="round"/>
<path d="M436.015 253.652H333.923L329.089 402.798C329.064 403.21 329.12 403.623 329.256 404.013C329.392 404.403 329.604 404.763 329.879 405.07C330.155 405.378 330.489 405.627 330.862 405.805C331.235 405.982 331.639 406.084 332.052 406.104V406.104C332.815 406.079 333.541 405.77 334.087 405.237C334.633 404.704 334.961 403.986 335.004 403.224L344.777 281.359C344.9 279.185 345.833 277.136 347.392 275.616C348.951 274.096 351.022 273.215 353.198 273.145H416.771C418.946 273.215 421.016 274.097 422.573 275.617C424.13 277.137 425.061 279.186 425.182 281.359L434.934 403.214C434.972 403.979 435.297 404.702 435.844 405.24C436.391 405.777 437.12 406.089 437.886 406.114C438.299 406.094 438.703 405.993 439.076 405.815C439.449 405.638 439.783 405.388 440.059 405.081C440.334 404.773 440.546 404.414 440.682 404.024C440.818 403.634 440.874 403.22 440.849 402.808L436.015 253.652Z" fill="#92E3A9" stroke="#263238" stroke-linecap="round" stroke-linejoin="round"/>
<path d="M436.692 260.514L436.474 253.652H403.091H367.785H334.403L334.185 260.514H436.692Z" fill="#263238" stroke="#263238" stroke-linecap="round" stroke-linejoin="round"/>
<path d="M442.742 247.893H93.2598V255.753H442.742V247.893Z" fill="white" stroke="#263238" stroke-linecap="round" stroke-linejoin="round"/>
<path d="M442.751 247.893H192.263V255.753H442.751V247.893Z" fill="white" stroke="#263238" stroke-linecap="round" stroke-linejoin="round"/>
</svg>
