<svg width="539" height="249" viewBox="0 0 539 249" fill="none" xmlns="http://www.w3.org/2000/svg">
<path d="M538.283 249H0.664546C0.488298 249 0.319267 248.848 0.194641 248.578C0.070014 248.308 0 247.942 0 247.56C0 247.178 0.070014 246.811 0.194641 246.541C0.319267 246.271 0.488298 246.119 0.664546 246.119H538.283C538.459 246.119 538.628 246.271 538.752 246.541C538.877 246.811 538.947 247.178 538.947 247.56C538.947 247.942 538.877 248.308 538.752 248.578C538.628 248.848 538.459 249 538.283 249Z" fill="#CBCBCB"/>
<path d="M350.669 43.7592C344.565 39.9545 339.07 35.2519 334.37 29.8099C334.047 29.4274 333.852 28.9525 333.815 28.4529C333.778 27.9534 333.9 27.4549 334.163 27.0288L342.876 13.0527C343.206 12.5246 343.732 12.1489 344.339 12.0079C344.946 11.8669 345.584 11.9721 346.114 12.3005L381.235 34.1414C381.764 34.4711 382.14 34.9967 382.281 35.603C382.423 36.2093 382.317 36.8467 381.989 37.3756L373.281 51.3435C373.014 51.7725 372.616 52.1042 372.146 52.2897C371.675 52.4751 371.157 52.5045 370.669 52.3735C363.616 50.4967 356.877 47.5943 350.669 43.7592Z" fill="#92E3A9"/>
<path opacity="0.2" d="M381.503 36.8951L380.053 39.2006L356.998 34.106C356.568 34.0087 356.187 33.7657 355.919 33.419L342.023 15.4955L343.355 13.3788C343.618 12.9626 344.037 12.6665 344.52 12.5552C345.004 12.4439 345.512 12.5265 345.934 12.7849L380.903 34.3415C381.324 34.6023 381.623 35.0173 381.735 35.4958C381.848 35.9743 381.764 36.4773 381.503 36.8951Z" fill="black"/>
<path d="M357.996 31.3563C357.758 31.2081 357.549 31.0182 357.379 30.7957L336.72 3.76331C336.428 3.38107 336.26 2.91756 336.24 2.43612C336.22 1.95468 336.349 1.4788 336.609 1.07356C336.868 0.668318 337.246 0.353502 337.69 0.172101C338.135 -0.00930129 338.624 -0.0484313 339.091 0.0600929L369.864 7.20837C370.361 7.32527 370.806 7.60096 371.132 7.99393L393.57 35.1823C393.88 35.5579 394.065 36.0214 394.1 36.508C394.135 36.9945 394.017 37.4798 393.763 37.8959C393.51 38.312 393.133 38.638 392.686 38.8284C392.239 39.0188 391.744 39.064 391.27 38.9577L358.718 31.6538C358.462 31.5962 358.218 31.4956 357.996 31.3563Z" fill="#92E3A9"/>
<path d="M334.039 15.2228L333.25 14.734L340.37 3.35986L364.424 18.2565L363.932 19.0401L340.667 4.63228L334.039 15.2228Z" fill="#3F3D56"/>
<path d="M448.239 133.282C470.507 133.282 488.559 115.23 488.559 92.9612C488.559 70.6928 470.507 52.6406 448.239 52.6406C425.97 52.6406 407.918 70.6928 407.918 92.9612C407.918 115.23 425.97 133.282 448.239 133.282Z" fill="#2F2E41"/>
<path d="M476.09 113.997L465.641 120.384L477.083 139.108L487.532 132.721L476.09 113.997Z" fill="#2F2E41"/>
<path d="M455.188 126.771L444.738 133.158L456.18 151.882L466.63 145.495L455.188 126.771Z" fill="#2F2E41"/>
<path d="M480.949 141.527C485.759 138.588 488.764 134.743 487.662 132.939C486.56 131.135 481.767 132.056 476.958 134.995C472.149 137.935 469.144 141.78 470.246 143.584C471.348 145.387 476.14 144.467 480.949 141.527Z" fill="#2F2E41"/>
<path d="M459.785 153.865C464.595 150.926 467.6 147.081 466.498 145.277C465.396 143.474 460.603 144.394 455.794 147.334C450.985 150.273 447.979 154.118 449.082 155.922C450.184 157.726 454.976 156.805 459.785 153.865Z" fill="#2F2E41"/>
<path d="M425.476 86.335C428.219 83.5941 423.365 74.2888 414.635 65.5511C405.904 56.8134 396.604 51.952 393.861 54.6929C391.118 57.4338 395.972 66.7391 404.702 75.4768C413.432 84.2146 422.733 89.0759 425.476 86.335Z" fill="#2F2E41"/>
<path d="M502.644 127.265C505.829 125.053 502.7 115.035 495.656 104.889C488.611 94.7427 480.319 88.3106 477.134 90.5223C473.949 92.7339 477.078 102.752 484.122 112.898C491.167 123.044 499.459 129.476 502.644 127.265Z" fill="#2F2E41"/>
<path d="M435.732 95.575C443.361 95.575 449.545 89.3487 449.545 81.6681C449.545 73.9876 443.361 67.7612 435.732 67.7612C428.103 67.7612 421.918 73.9876 421.918 81.6681C421.918 89.3487 428.103 95.575 435.732 95.575Z" fill="white"/>
<path d="M431.249 81.7611C433.826 81.7611 435.916 79.7135 435.916 77.1877C435.916 74.6618 433.826 72.6143 431.249 72.6143C428.671 72.6143 426.582 74.6618 426.582 77.1877C426.582 79.7135 428.671 81.7611 431.249 81.7611Z" fill="#3F3D56"/>
<path d="M417.928 104.804C415.323 109.075 418.794 114.854 425.681 117.71C432.567 120.567 440.261 119.42 442.866 115.149L442.876 115.134C445.474 110.86 440.427 107.662 433.538 104.81C426.649 101.957 420.527 100.53 417.928 104.804Z" fill="white"/>
<path d="M91.4651 228.634C113.734 228.634 131.786 210.54 131.786 188.22C131.786 165.9 113.734 147.806 91.4651 147.806C69.1967 147.806 51.1445 165.9 51.1445 188.22C51.1445 210.54 69.1967 228.634 91.4651 228.634Z" fill="#2F2E41"/>
<path d="M85.3054 219.86H73.1719V241.7H85.3054V219.86Z" fill="#2F2E41"/>
<path d="M109.759 219.86H97.8125V241.7H109.759V219.86Z" fill="#2F2E41"/>
<path d="M83.4387 245.993C89.1089 245.993 93.7055 244.238 93.7055 242.073C93.7055 239.908 89.1089 238.153 83.4387 238.153C77.7685 238.153 73.1719 239.908 73.1719 242.073C73.1719 244.238 77.7685 245.993 83.4387 245.993Z" fill="#2F2E41"/>
<path d="M107.986 245.434C113.605 245.434 118.159 243.762 118.159 241.7C118.159 239.638 113.605 237.967 107.986 237.967C102.367 237.967 97.8125 239.638 97.8125 241.7C97.8125 243.762 102.367 245.434 107.986 245.434Z" fill="#2F2E41"/>
<path d="M134.97 170.59C143.701 161.852 148.554 152.547 145.812 149.806C143.069 147.065 133.768 151.926 125.038 160.664C116.308 169.402 111.454 178.707 114.197 181.448C116.94 184.189 126.24 179.327 134.97 170.59Z" fill="#2F2E41"/>
<path d="M59.0383 184.256C61.781 181.515 56.9273 172.21 48.197 163.472C39.4668 154.734 30.1661 149.873 27.4233 152.614C24.6805 155.355 29.5343 164.66 38.2645 173.398C46.9947 182.135 56.2955 186.997 59.0383 184.256Z" fill="#2F2E41"/>
<path d="M89.9737 196.34C97.6027 196.34 103.787 190.113 103.787 182.433C103.787 174.752 97.6027 168.526 89.9737 168.526C82.3447 168.526 76.1602 174.752 76.1602 182.433C76.1602 190.113 82.3447 196.34 89.9737 196.34Z" fill="white"/>
<path d="M89.9714 187.006C92.5488 187.006 94.6382 184.959 94.6382 182.433C94.6382 179.907 92.5488 177.859 89.9714 177.859C87.3941 177.859 85.3047 179.907 85.3047 182.433C85.3047 184.959 87.3941 187.006 89.9714 187.006Z" fill="#3F3D56"/>
<path d="M100.657 208.069C101.078 210.389 100.562 212.782 99.2233 214.721C97.8842 216.66 95.8312 217.987 93.5159 218.41C91.2006 218.832 88.8127 218.315 86.8776 216.973C84.9424 215.632 83.6184 213.574 83.1969 211.254L83.1938 211.237C82.3208 206.405 86.0492 204.695 90.8714 203.82C95.6936 202.945 99.7836 203.237 100.657 208.069Z" fill="white"/>
<path d="M90.5468 161.806C83.3755 161.798 76.2463 160.708 69.3999 158.573C68.9242 158.419 68.5093 158.119 68.2143 157.715C67.9194 157.311 67.7596 156.824 67.7578 156.324V139.883C67.7585 139.262 68.0056 138.666 68.4448 138.226C68.8841 137.787 69.4796 137.539 70.1007 137.539H111.336C111.957 137.539 112.552 137.787 112.991 138.226C113.431 138.666 113.678 139.262 113.679 139.883V156.314C113.679 156.819 113.517 157.31 113.217 157.715C112.916 158.121 112.494 158.418 112.011 158.565C105.054 160.692 97.8218 161.784 90.5468 161.806Z" fill="#92E3A9"/>
<path d="M90.1166 147.245C89.8354 147.245 89.5565 147.195 89.2931 147.097L57.3319 135.137C56.88 134.968 56.4915 134.664 56.2196 134.266C55.9477 133.869 55.8056 133.398 55.8128 132.917C55.8199 132.436 55.9759 131.968 56.2595 131.579C56.5431 131.19 56.9404 130.897 57.3971 130.742L87.4692 120.489C87.955 120.325 88.4812 120.323 88.9684 120.483L122.531 131.632C122.995 131.786 123.399 132.081 123.686 132.475C123.973 132.869 124.13 133.343 124.133 133.83C124.137 134.317 123.988 134.793 123.707 135.191C123.426 135.589 123.027 135.89 122.565 136.051L90.8914 147.114C90.6424 147.201 90.3805 147.245 90.1166 147.245Z" fill="#92E3A9"/>
<path d="M61.2294 146.312H60.293V132.872H88.8534V133.798H61.2294V146.312Z" fill="#3F3D56"/>
<path d="M60.6675 149.298C61.6984 149.298 62.5342 148.421 62.5342 147.338C62.5342 146.256 61.6984 145.378 60.6675 145.378C59.6365 145.378 58.8008 146.256 58.8008 147.338C58.8008 148.421 59.6365 149.298 60.6675 149.298Z" fill="#3F3D56"/>
<path d="M283.05 229.018C305.422 229.018 323.558 210.924 323.558 188.604C323.558 166.284 305.422 148.19 283.05 148.19C260.679 148.19 242.543 166.284 242.543 188.604C242.543 210.924 260.679 229.018 283.05 229.018Z" fill="#2F2E41"/>
<path d="M276.891 220.244H264.57V242.084H276.891V220.244Z" fill="#2F2E41"/>
<path d="M301.532 220.244H289.398V242.084H301.532V220.244Z" fill="#2F2E41"/>
<path d="M274.837 246.378C280.507 246.378 285.104 244.623 285.104 242.458C285.104 240.293 280.507 238.538 274.837 238.538C269.167 238.538 264.57 240.293 264.57 242.458C264.57 244.623 269.167 246.378 274.837 246.378Z" fill="#2F2E41"/>
<path d="M299.479 245.818C305.046 245.818 309.559 244.146 309.559 242.084C309.559 240.023 305.046 238.351 299.479 238.351C293.911 238.351 289.398 240.023 289.398 242.084C289.398 244.146 293.911 245.818 299.479 245.818Z" fill="#2F2E41"/>
<path d="M326.474 170.974C335.205 162.236 340.058 152.931 337.316 150.19C334.573 147.449 325.272 152.31 316.542 161.048C307.812 169.786 302.958 179.091 305.701 181.832C308.443 184.573 317.744 179.712 326.474 170.974Z" fill="#2F2E41"/>
<path d="M247.054 208.396C254.099 198.25 257.228 188.232 254.043 186.02C250.858 183.808 242.565 190.24 235.521 200.387C228.476 210.533 225.347 220.551 228.532 222.762C231.717 224.974 240.01 218.542 247.054 208.396Z" fill="#2F2E41"/>
<path d="M281.372 196.724C289.001 196.724 295.186 190.498 295.186 182.817C295.186 175.136 289.001 168.91 281.372 168.91C273.743 168.91 267.559 175.136 267.559 182.817C267.559 190.498 273.743 196.724 281.372 196.724Z" fill="white"/>
<path d="M285.944 182.724C288.47 182.724 290.518 180.634 290.518 178.057C290.518 175.48 288.47 173.39 285.944 173.39C283.419 173.39 281.371 175.48 281.371 178.057C281.371 180.634 283.419 182.724 285.944 182.724Z" fill="#3F3D56"/>
<path d="M297.759 208.453C299.117 213.284 294.171 217.913 286.711 218.792C279.251 219.672 272.103 216.468 270.745 211.638L270.74 211.62C269.389 206.789 275.158 205.079 282.619 204.204C290.08 203.33 296.408 203.621 297.759 208.453Z" fill="white"/>
<path d="M268.946 164.926C262.311 167.605 255.314 169.261 248.189 169.838C247.692 169.873 247.197 169.749 246.774 169.484C246.351 169.218 246.023 168.825 245.835 168.36L239.726 153.054C239.496 152.475 239.503 151.827 239.746 151.253C239.989 150.68 240.448 150.226 241.022 149.993L279.154 134.545C279.728 134.313 280.371 134.321 280.94 134.565C281.51 134.81 281.96 135.272 282.191 135.851L288.297 151.148C288.484 151.617 288.517 152.135 288.39 152.625C288.263 153.115 287.983 153.55 287.591 153.867C281.948 158.454 275.665 162.18 268.946 164.926Z" fill="#92E3A9"/>
<path d="M263.257 151.703C262.997 151.809 262.719 151.867 262.438 151.874L228.326 152.669C227.843 152.68 227.369 152.541 226.969 152.27C226.568 151.999 226.259 151.61 226.086 151.156C225.913 150.702 225.883 150.205 226 149.733C226.117 149.261 226.376 148.837 226.742 148.519L250.791 127.588C251.181 127.252 251.668 127.052 252.179 127.018L287.474 124.86C287.961 124.83 288.446 124.955 288.86 125.217C289.274 125.479 289.596 125.864 289.781 126.32C289.967 126.776 290.007 127.278 289.895 127.758C289.784 128.238 289.526 128.67 289.159 128.995L263.927 151.289C263.728 151.464 263.502 151.604 263.257 151.703Z" fill="#92E3A9"/>
<path d="M235.976 161.469L235.106 161.816L230.035 149.276L256.566 138.669L256.916 139.534L231.254 149.794L235.976 161.469Z" fill="#3F3D56"/>
<path d="M236.101 164.43C237.081 164.43 237.875 163.594 237.875 162.563C237.875 161.533 237.081 160.697 236.101 160.697C235.122 160.697 234.328 161.533 234.328 162.563C234.328 163.594 235.122 164.43 236.101 164.43Z" fill="#3F3D56"/>
</svg>
