<svg width="500" height="280" viewBox="0 0 500 280" fill="none" xmlns="http://www.w3.org/2000/svg">
<path d="M475.9 268.077V275.827L385.41 276.661L384.445 276.679L350.053 276.995L349.231 277.007L338.778 277.097H338.468L274.746 277.687L170.146 278.659H170.056L143.461 278.909L143.175 278.915L25 280V271.057L52.7866 254.365L108.539 253.9L109.73 253.894L110.123 253.888L111.314 253.87L138.082 253.649L139.28 253.643L139.661 253.637L140.852 253.631L149.435 253.56L149.662 253.554L170.837 253.375H171.009L336.24 251.98L340.284 251.95H340.69L343.775 251.92L366.201 251.736L367.392 251.718L368.494 251.706H369.066L376.041 251.652L377.423 251.634L379.275 251.622L385.083 251.569L394.297 251.491L395.488 251.479L397.561 251.467H397.948L442.449 251.086L475.9 268.077Z" fill="#65617D"/>
<path opacity="0.2" d="M475.9 268.077V275.827L385.41 276.661L384.445 276.679L350.053 276.995L349.231 277.007L338.778 277.097H338.468L274.746 277.687L170.146 278.659H170.056L143.461 278.909L143.175 278.915L25 280V271.057L52.7866 254.365L108.539 253.9L109.73 253.894L110.123 253.888L111.314 253.87L138.082 253.649L139.28 253.643L139.661 253.637L140.852 253.631L149.435 253.56L149.662 253.554L170.837 253.375H171.009L336.24 251.98L340.284 251.95H340.69L343.775 251.92L366.201 251.736L367.392 251.718L368.494 251.706H369.066L376.041 251.652L377.423 251.634L379.275 251.622L385.083 251.569L394.297 251.491L395.488 251.479L397.561 251.467H397.948L442.449 251.086L475.9 268.077Z" fill="black"/>
<path d="M138.171 238.274V252.874C138.171 253.565 137.975 254.243 137.606 254.827C137.237 255.412 136.71 255.88 136.086 256.177C135.621 256.402 135.113 256.524 134.597 256.534L113.809 256.976C113.254 256.989 112.703 256.873 112.201 256.636C111.566 256.344 111.027 255.876 110.651 255.288C110.274 254.699 110.073 254.014 110.074 253.315V238.274H138.171Z" fill="#3F3D56"/>
<path opacity="0.1" d="M138.171 238.274V252.874C138.171 253.565 137.975 254.243 137.606 254.827C137.237 255.412 136.71 255.88 136.086 256.177C135.621 256.402 135.113 256.524 134.597 256.534L113.809 256.976C113.254 256.989 112.703 256.873 112.201 256.636C111.566 256.344 111.027 255.876 110.651 255.288C110.274 254.699 110.073 254.014 110.074 253.315V238.274H138.171Z" fill="black"/>
<path d="M139.362 238.274V252.874C139.362 253.565 139.167 254.243 138.798 254.827C138.429 255.412 137.901 255.88 137.277 256.177C136.813 256.402 136.305 256.524 135.788 256.534L115 256.976C114.445 256.989 113.894 256.873 113.392 256.636C112.757 256.344 112.219 255.876 111.842 255.288C111.465 254.699 111.265 254.014 111.266 253.315V238.274H139.362Z" fill="#3F3D56"/>
<path d="M395.487 238.274H367.391V257.053H395.487V238.274Z" fill="#3F3D56"/>
<path opacity="0.1" d="M395.487 238.274H367.391V257.053H395.487V238.274Z" fill="black"/>
<path d="M394.3 238.274H366.203V257.053H394.3V238.274Z" fill="#3F3D56"/>
<path opacity="0.1" d="M99.157 108.404V111.82L87.8398 111.528V108.404H99.157Z" fill="black"/>
<path d="M99.1609 108.41H87.8438V142.785H99.1609V108.41Z" fill="#3F3D56"/>
<path d="M173.648 12.1708L160.05 109.943C159.963 110.567 159.65 111.138 159.17 111.546C158.69 111.954 158.076 112.171 157.447 112.154L48.5635 109.329L46.4967 109.275C46.1368 109.266 45.7828 109.182 45.4577 109.027C45.1326 108.873 44.8437 108.651 44.6099 108.377C44.3761 108.103 44.2026 107.783 44.1007 107.437C43.9989 107.092 43.971 106.729 44.0188 106.372L59.2851 4.02117C59.3835 3.38719 59.7158 2.81317 60.2165 2.41251C60.7172 2.01185 61.3497 1.81366 61.9893 1.85708L171.266 9.26149C171.618 9.28195 171.963 9.37532 172.277 9.53573C172.592 9.69613 172.87 9.92009 173.094 10.1935C173.318 10.4668 173.483 10.7837 173.578 11.124C173.673 11.4643 173.697 11.8208 173.648 12.1708V12.1708Z" fill="#65617D"/>
<path d="M66.5919 9.04626L55.0781 99.2646L155.146 102.442L167.452 15.4014L66.5919 9.04626Z" fill="#1EF0D5"/>
<path d="M309.622 7.65112H194.061C192.308 7.65112 190.887 9.07378 190.887 10.8287V107.808C190.887 109.563 192.308 110.985 194.061 110.985H309.622C311.375 110.985 312.796 109.563 312.796 107.808V10.8287C312.796 9.07378 311.375 7.65112 309.622 7.65112Z" fill="#65617D"/>
<path d="M307.426 14.6089H196.637V100.654H307.426V14.6089Z" fill="#1EF0D5"/>
<path opacity="0.1" d="M403.727 106.615V108.875L392.41 109.107V106.615H403.727Z" fill="black"/>
<path d="M403.723 106.621H392.406V142.988H403.723V106.621Z" fill="#3F3D56"/>
<path d="M454.79 104.708C454.807 104.955 454.773 105.203 454.691 105.436C454.609 105.67 454.48 105.884 454.313 106.067C454.147 106.25 453.944 106.397 453.719 106.499C453.494 106.601 453.251 106.657 453.003 106.663L341.5 108.97C341.036 108.98 340.587 108.814 340.241 108.505C339.895 108.197 339.679 107.769 339.635 107.307L330.051 7.57985C330.028 7.33243 330.054 7.08279 330.13 6.84603C330.206 6.60927 330.328 6.39033 330.491 6.20248C330.654 6.01463 330.853 5.86177 331.076 5.75319C331.299 5.6446 331.543 5.58254 331.791 5.57076L442.449 0.0621577L443.64 0.00253713C444.114 -0.0224347 444.578 0.137697 444.936 0.449137C445.294 0.760577 445.517 1.19898 445.558 1.67182L454.79 104.708Z" fill="#65617D"/>
<path d="M336.414 11.4309L437.476 6.45886L446.012 97.0767L345.748 99.4613L336.414 11.4309Z" fill="#1EF0D5"/>
<path opacity="0.1" d="M454.791 104.708C454.807 104.955 454.773 105.203 454.691 105.436C454.609 105.67 454.481 105.884 454.314 106.067C454.147 106.249 453.945 106.396 453.72 106.499C453.495 106.601 453.251 106.657 453.004 106.663L442.449 0.0621577L443.641 0.00253713C444.114 -0.0224347 444.579 0.137697 444.937 0.449137C445.294 0.760577 445.517 1.19898 445.558 1.67182L454.791 104.708Z" fill="black"/>
<path opacity="0.1" d="M62.0071 1.85082L48.5635 109.328L46.4967 109.275C46.1368 109.266 45.7828 109.182 45.4577 109.027C45.1326 108.872 44.8437 108.651 44.6099 108.377C44.3761 108.103 44.2026 107.783 44.1007 107.437C43.9989 107.092 43.971 106.728 44.0188 106.371L59.2851 4.02089C59.3823 3.38252 59.7167 2.80441 60.2213 2.40209C60.726 1.99978 61.3638 1.8029 62.0071 1.85082V1.85082Z" fill="black"/>
<path opacity="0.1" d="M99.157 132.603H87.8398V142.785H99.157V132.603Z" fill="black"/>
<path opacity="0.1" d="M139.362 238.268V241.231L111.266 241.982V238.268H139.362Z" fill="black"/>
<path d="M188.951 136.15V236.426C188.944 237.038 188.702 237.624 188.275 238.062C187.848 238.5 187.269 238.758 186.658 238.781L72.5037 241.821H72.4739C71.8523 241.813 71.2583 241.563 70.8187 241.123C70.3792 240.683 70.1288 240.088 70.1211 239.466V136.15C70.1288 135.528 70.3792 134.933 70.8187 134.493C71.2583 134.053 71.8523 133.803 72.4739 133.795H186.599C187.22 133.803 187.814 134.053 188.254 134.493C188.693 134.933 188.944 135.528 188.951 136.15V136.15Z" fill="#65617D"/>
<path opacity="0.1" d="M72.5037 133.795V241.821H72.4739C71.8523 241.813 71.2583 241.563 70.8187 241.123C70.3792 240.683 70.1288 240.088 70.1211 239.466V136.15C70.1288 135.528 70.3792 134.933 70.8187 134.493C71.2583 134.053 71.8523 133.803 72.4739 133.795H72.5037Z" fill="black"/>
<path d="M77.7148 140.198H183.441V228.58L77.7148 230.965V140.198Z" fill="#92E3A9"/>
<path opacity="0.1" d="M403.727 132.603H392.41V142.988H403.727V132.603Z" fill="black"/>
<path opacity="0.1" d="M394.3 238.268V242.089L366.203 241.338V238.268H394.3Z" fill="black"/>
<path d="M431.374 136.15V239.466C431.366 240.093 431.111 240.692 430.665 241.133C430.219 241.574 429.618 241.821 428.991 241.821V241.821L314.813 238.781C314.202 238.758 313.623 238.5 313.196 238.062C312.769 237.624 312.527 237.038 312.52 236.426V136.15C312.527 135.528 312.778 134.933 313.217 134.493C313.657 134.053 314.251 133.803 314.872 133.795H428.997C429.623 133.797 430.223 134.044 430.667 134.485C431.112 134.926 431.366 135.524 431.374 136.15V136.15Z" fill="#65617D"/>
<path opacity="0.1" d="M431.375 136.15V239.466C431.367 240.093 431.112 240.692 430.666 241.133C430.221 241.574 429.619 241.821 428.992 241.821V241.821V133.795C429.619 133.795 430.221 134.042 430.666 134.483C431.112 134.924 431.367 135.523 431.375 136.15Z" fill="black"/>
<path d="M423.781 140.198H318.055V228.58L423.781 230.965V140.198Z" fill="#92E3A9"/>
<path d="M309.565 136.15V236.426C309.557 237.038 309.315 237.624 308.888 238.062C308.462 238.5 307.883 238.758 307.271 238.781L193.117 241.821C192.49 241.821 191.889 241.574 191.443 241.133C190.997 240.692 190.742 240.093 190.734 239.466V136.15C190.742 135.528 190.992 134.933 191.432 134.493C191.872 134.053 192.466 133.803 193.087 133.795H307.212C307.833 133.803 308.427 134.053 308.867 134.493C309.307 134.933 309.557 135.528 309.565 136.15V136.15Z" fill="#65617D"/>
<path d="M198.332 140.198H304.058V228.58L198.332 230.965V140.198Z" fill="#92E3A9"/>
<path opacity="0.1" d="M475.9 268.077V275.827L385.41 276.661L384.445 276.679L350.053 276.995L349.231 277.007L338.778 277.097H338.468L274.746 277.687L170.146 278.659H170.056L143.461 278.909L143.175 278.915L25 280V271.058L145.623 270.265H145.909L170.324 270.098H170.438L339.052 268.983H339.224L339.326 268.977H339.605L342.459 268.959H343.328L387.698 268.661L390.318 268.649L390.902 268.643L475.9 268.077Z" fill="black"/>
<path d="M252.035 142.785C268.921 142.785 282.609 129.084 282.609 112.184C282.609 95.2831 268.921 81.5824 252.035 81.5824C235.149 81.5824 221.461 95.2831 221.461 112.184C221.461 129.084 235.149 142.785 252.035 142.785Z" fill="#FBBEBE"/>
<path d="M282.614 174.782C282.614 174.782 223.347 181.936 229.006 174.782C231.055 172.194 231.621 164.528 231.508 155.794C231.472 153.141 231.377 150.392 231.24 147.656C230.584 134.54 229.006 121.723 229.006 121.723C229.006 121.723 280.827 97.2796 274.87 116.655C272.488 124.483 273.268 135.476 275.079 145.796C275.609 148.807 276.222 151.758 276.866 154.56C278.436 161.394 280.354 168.144 282.614 174.782V174.782Z" fill="#FBBEBE"/>
<path opacity="0.1" d="M282.614 174.782C282.614 174.782 223.347 181.936 229.006 174.782C231.055 172.194 231.621 164.528 231.508 155.794C240.543 151.931 252.039 154.81 252.039 154.81C264.143 152.396 271.904 152.867 276.866 154.56C278.436 161.394 280.354 168.144 282.614 174.782V174.782Z" fill="black"/>
<path d="M170.117 279.332V278.831L274.724 277.693L338.457 277.096H338.636L338.571 277.979L338.66 277.096H338.773V276.995L339.589 268.977L339.899 265.942L339.994 264.994L340.077 264.201L343.759 251.914L347.44 239.645L350.537 229.313L355.266 213.527C355.266 213.527 352.586 207.267 351.097 205.478C349.608 203.69 348.119 191.468 348.119 191.468C348.119 191.468 335.408 179.348 329.85 177.953C327.521 177.357 322.923 176.564 318.039 175.569C316.21 175.199 314.334 174.806 312.529 174.376C311.511 174.144 310.51 173.899 309.551 173.655C307.684 173.188 305.845 172.619 304.041 171.95C303.095 171.606 302.195 171.148 301.361 170.585C296.983 167.371 286.011 167.008 285.588 167.008C285.587 166.994 285.587 166.98 285.588 166.966V166.912C285.604 166.662 285.604 166.411 285.588 166.161C285.588 165.923 285.588 165.642 285.535 165.326C285.535 165.231 285.535 165.13 285.493 165.028C285.463 164.814 285.427 164.587 285.374 164.349C285.356 164.242 285.332 164.137 285.302 164.033C285.13 163.314 284.88 162.617 284.558 161.952C284.516 161.857 284.462 161.755 284.415 161.66C284.123 161.109 283.784 160.585 283.402 160.092C283.325 159.991 283.241 159.883 283.152 159.782C282.664 159.206 282.122 158.679 281.532 158.208C281.371 158.083 281.204 157.952 281.032 157.833C280.935 157.754 280.834 157.683 280.728 157.618L280.198 157.272L279.703 156.986C279.269 156.748 278.81 156.515 278.31 156.294C278.155 156.223 277.988 156.157 277.821 156.092C277.654 156.026 277.392 155.925 277.172 155.841H277.136L276.689 155.663C276.35 155.549 276.004 155.448 275.641 155.347L275.087 155.203L274.491 155.066L273.896 154.941C273.3 154.822 272.663 154.715 271.996 154.631L271.317 154.548L270.62 154.476L269.899 154.417L268.875 154.357L267.683 154.315C262.429 154.315 257.19 154.872 252.054 155.979C248.485 155.184 244.831 154.847 241.177 154.977H240.659L240.063 155.013H239.682L238.914 155.084C238.658 155.084 238.396 155.138 238.14 155.174C237.883 155.209 237.615 155.239 237.359 155.281L236.966 155.347C236.579 155.412 236.186 155.484 235.775 155.567C235.644 155.591 235.513 155.621 235.382 155.657C234.864 155.77 234.345 155.907 233.833 156.062C233.577 156.133 233.321 156.217 233.065 156.306C232.934 156.342 232.809 156.39 232.683 156.438L232.302 156.575L231.927 156.724L231.48 156.903C231.254 156.998 231.034 157.099 230.813 157.207C230.688 157.26 230.563 157.32 230.444 157.385C230.325 157.451 230.2 157.505 230.086 157.57C228.74 158.267 227.495 159.145 226.388 160.182L226.084 160.474L225.786 160.778C225.685 160.879 225.589 160.986 225.494 161.094C225.106 161.518 224.744 161.966 224.41 162.435C224.315 162.56 224.225 162.685 224.136 162.817C223.758 163.375 223.416 163.956 223.112 164.557C223.034 164.7 222.963 164.85 222.891 164.993C222.405 166 222.007 167.047 221.7 168.122C221.589 168.52 221.487 168.917 221.396 169.315C221.396 169.315 208.786 174.883 198.327 178.913C195.545 179.986 192.924 180.958 190.733 181.691C190.095 181.906 189.5 182.103 188.946 182.287C187.744 182.722 186.494 183.011 185.223 183.146C184.624 183.156 184.026 183.212 183.436 183.313C178.629 184.094 170.391 187.486 169.492 190.89C169.419 191.162 169.399 191.445 169.432 191.725C169.432 191.725 169.432 191.767 169.432 191.79C170.028 195.964 165.859 195.367 165.859 195.367C165.859 195.367 164.369 206.397 162.285 209.377C160.778 211.524 159.747 216.311 159.616 219.924C159.541 221.049 159.63 222.18 159.878 223.28C159.878 223.31 159.878 223.34 159.878 223.364C160.117 224.162 159.545 226.344 158.574 229.14C157.52 232.211 155.983 236.026 154.506 239.627C152.278 245.064 150.181 250 150.05 251.085C149.997 251.568 149.842 252.433 149.627 253.548C148.758 258.09 146.828 266.741 145.875 270.24C145.166 272.852 144.136 276.429 143.427 278.885C143.427 278.956 143.385 279.028 143.367 279.093L170.07 278.831V279.332H170.153H170.117Z" fill="#CDF4DE"/>
<path opacity="0.1" d="M285.63 167.378C268.356 170.561 235.834 169.876 221.777 169.393C226.93 150.911 252.054 157.195 252.054 157.195C283.152 150.983 285.535 163.872 285.63 167.378Z" fill="black"/>
<path d="M377.32 247.663C377.32 247.663 397.667 244.533 398.067 253.476C398.466 262.418 387.69 268.666 387.69 268.666L377.32 247.663Z" fill="#FBBEBE"/>
<path opacity="0.1" d="M275.077 145.796C274.202 146.187 273.307 146.534 272.397 146.833C265.976 149.051 259.501 151.287 252.741 152.097C245.98 152.908 238.886 152.193 232.989 148.819C232.37 148.469 231.773 148.08 231.202 147.656C230.547 134.54 228.969 121.723 228.969 121.723C228.969 121.723 280.789 97.2796 274.833 116.655C272.462 124.483 273.267 135.476 275.077 145.796Z" fill="black"/>
<path d="M243.646 64.3527C242.796 64.5775 241.905 64.6002 241.045 64.419C240.184 64.2379 239.378 63.8579 238.691 63.3094L239.93 65.0324C239.199 65.1167 238.46 65.0404 237.762 64.8087C237.065 64.577 236.426 64.1955 235.891 63.691C235.779 65.2333 235.843 66.7835 236.082 68.3113C234.032 68.4103 232.013 67.7763 230.387 66.5228C230.356 67.0606 230.489 67.5953 230.77 68.0547C231.052 68.5141 231.467 68.8763 231.96 69.0923C229.901 68.8461 227.822 69.3582 226.112 70.5331C224.403 71.7079 223.178 73.4653 222.668 75.4773L225.777 75.7634C223.334 76.2858 221.14 77.6251 219.559 79.561C218.606 80.7534 217.879 82.2796 218.296 83.7342C218.713 85.1889 220.726 86.1189 221.822 85.0816C220.263 86.944 219.13 89.1252 218.502 91.4723C217.875 93.8193 217.768 96.2754 218.189 98.6683C218.471 99.6879 218.564 100.751 218.463 101.804C218.266 102.788 217.647 103.64 217.337 104.6C216.741 106.341 217.307 108.231 217.837 109.966L220.631 119.159C221.643 122.479 222.65 125.806 223.972 129.019C224.909 131.051 225.705 133.144 226.355 135.285C227.105 138.17 227.135 141.33 228.737 143.852C229.836 145.439 231.303 146.734 233.014 147.626C238.905 151 246.023 151.715 252.766 150.905C259.508 150.094 265.977 147.858 272.392 145.64C273.817 145.211 275.185 144.61 276.466 143.852C280.904 140.943 281.892 134.993 282.72 129.753C283.644 123.91 284.877 118.08 287.063 112.583C288.361 109.31 290.041 105.989 289.755 102.484C289.392 97.8277 285.71 94.0539 284.799 89.4753C284.494 87.9449 284.508 86.3678 284.841 84.8431C285.123 83.9347 285.282 82.9921 285.311 82.0411C285.21 80.1214 283.638 78.6429 282.16 77.4089C278.956 74.7301 275.648 72.1983 272.237 69.8137C272.064 68.6213 273.684 68.1086 274.417 67.1667C275.454 65.8372 274.381 63.7268 272.809 63.1067C271.236 62.4867 269.473 62.8921 267.835 63.3035C267.942 62.4643 267.775 61.6131 267.36 60.8764C266.944 60.1397 266.302 59.5568 265.53 59.2146C264.757 58.8723 263.894 58.7889 263.07 58.9767C262.246 59.1645 261.504 59.6136 260.956 60.2571C260.521 59.2587 259.826 58.3956 258.943 57.758C258.061 57.1204 257.024 56.7316 255.94 56.6324C251.991 56.3223 251.914 59.3449 249.388 61.0082C246.863 62.6716 244.778 60.4776 242.836 58.8799C242.479 59.783 242.367 60.7643 242.509 61.725C242.651 62.6856 243.043 63.5919 243.646 64.3527V64.3527Z" fill="#3F3D56"/>
<path d="M392.407 265.549C392.407 265.549 391.877 266.813 390.9 268.643C389.423 271.459 387.624 274.093 385.54 276.494L385.379 276.667H384.414L350.022 276.983H349.2L349.098 276.864L342.427 268.941L339.913 265.954L339.812 265.829L339.598 265.579L339.479 265.435L339.324 265.251L334.434 259.444L336.221 251.992L339.264 239.437L339.342 239.132L339.937 236.748L340.36 234.959L341.778 229.129L346.638 209.068L355.275 213.539L364.382 229.635L369.273 238.28H371.953C372.459 238.28 373.621 239.258 374.788 240.384C375.205 240.784 375.622 241.207 375.98 241.577C377.04 242.674 377.88 243.616 377.88 243.616C377.88 243.616 382.222 243.711 383.389 247.133C383.45 247.299 383.499 247.468 383.538 247.64C383.926 248.985 384.43 250.293 385.045 251.551C385.814 253.226 386.779 255.128 387.755 257.029C389.572 260.517 391.419 263.838 392.098 265.042L392.181 265.191L392.407 265.549Z" fill="#CDF4DE"/>
<path opacity="0.1" d="M341.242 238.631L341.182 239.484V239.543L341.081 240.914L340.289 251.95L339.33 265.244L339.056 268.988L338.46 277.001V277.102L274.727 277.698L170.138 278.831V279.332H170.055V278.831V278.664L170.323 270.103L170.835 253.374L171.276 239.192L171.317 237.779C171.344 236.926 171.543 236.087 171.904 235.314C172.264 234.541 172.779 233.85 173.415 233.282C174.052 232.715 174.797 232.283 175.606 232.014C176.415 231.745 177.27 231.643 178.12 231.716C180.931 231.954 184.582 232.246 188.948 232.556L190.735 232.687C215.949 234.44 262.546 236.706 309.566 233.88C310.554 233.826 311.549 233.766 312.544 233.695C319.835 233.236 327.119 232.646 334.332 231.906C335.244 231.811 336.166 231.916 337.033 232.216C337.899 232.515 338.69 233.001 339.349 233.64C340.007 234.278 340.518 235.053 340.845 235.91C341.172 236.767 341.308 237.686 341.242 238.601V238.631Z" fill="black"/>
<path d="M170.121 279.332V278.831L274.728 277.692L338.461 277.096H338.64V276.995L339.235 268.982L339.491 265.405L340.468 251.926L341.237 241.254V240.992C341.272 240.5 341.25 240.006 341.171 239.52C341.175 239.5 341.175 239.48 341.171 239.46C341.008 238.454 340.598 237.504 339.98 236.694C339.324 235.852 338.465 235.191 337.483 234.774C336.501 234.357 335.43 234.197 334.369 234.309C327.156 235.048 319.871 235.638 312.58 236.097C311.586 236.169 310.591 236.229 309.602 236.282C262.582 239.078 215.985 236.813 190.772 235.09L188.985 234.959C184.619 234.649 180.968 234.363 178.156 234.118C176.61 233.988 175.07 234.435 173.833 235.374C172.597 236.313 171.752 237.678 171.461 239.204C171.401 239.526 171.365 239.853 171.354 240.181L170.949 253.392L170.395 270.127L170.133 278.688V278.855V279.356L170.121 279.332Z" fill="#3F3D56"/>
<path opacity="0.1" d="M341.423 242.811L340.69 251.95L339.6 265.572L339.326 268.982L338.731 276.619L338.695 277.001V277.102L338.606 277.985L338.671 277.102H338.498L274.765 277.698L170.141 278.831V278.664L170.433 270.103L171.028 253.375L171.409 242.256C171.428 241.624 171.605 241.006 171.923 240.459C172.241 239.913 172.691 239.454 173.232 239.126C173.906 238.712 174.695 238.525 175.484 238.59C176.734 238.691 178.271 238.81 180.064 238.941C182.977 239.156 186.568 239.406 190.75 239.669C198.493 240.158 208.208 240.682 219.341 241.111C250.314 242.304 292.128 242.703 331.845 239.222C333.632 239.067 335.479 238.894 337.283 238.721C337.998 238.65 338.718 238.786 339.356 239.114C339.537 239.204 339.709 239.312 339.868 239.436C340.387 239.812 340.798 240.318 341.06 240.903C341.12 241.019 341.17 241.141 341.209 241.266C341.388 241.76 341.461 242.286 341.423 242.811V242.811Z" fill="black"/>
<path opacity="0.1" d="M139.362 250.972V252.874C139.362 253.565 139.167 254.243 138.798 254.827C138.429 255.412 137.901 255.88 137.277 256.176L113.392 256.636C112.757 256.344 112.219 255.876 111.842 255.288C111.465 254.699 111.265 254.014 111.266 253.315V251.526L139.362 250.972Z" fill="black"/>
<path d="M139.661 257.298L108.539 257.894V252.725L139.661 252.129V257.298Z" fill="#3F3D56"/>
<path opacity="0.1" d="M139.661 257.298L108.539 257.894V252.725L139.661 252.129V257.298Z" fill="black"/>
<path d="M140.853 257.298L109.73 257.894V252.725L140.853 252.129V257.298Z" fill="#3F3D56"/>
<g opacity="0.1">
<path opacity="0.1" d="M243.889 62.3975C243.307 61.6407 242.92 60.7521 242.763 59.8102C242.619 60.731 242.705 61.673 243.013 62.5526C243.309 62.5252 243.602 62.4734 243.889 62.3975Z" fill="black"/>
<path opacity="0.1" d="M236.326 66.3561C236.214 65.6252 236.14 64.8889 236.105 64.1503C236.105 64.8836 236.105 65.6228 236.105 66.362L236.326 66.3561Z" fill="black"/>
<path opacity="0.1" d="M284.869 86.2504C284.902 85.7192 284.974 85.1912 285.084 84.6705C285.365 83.7637 285.526 82.8235 285.56 81.8745C285.547 81.6615 285.515 81.45 285.465 81.2426C285.363 81.791 285.203 82.3395 285.084 82.882C284.846 83.988 284.773 85.1232 284.869 86.2504Z" fill="black"/>
<path opacity="0.1" d="M272.482 67.8287L273.131 68.2997C273.678 67.9034 274.19 67.4606 274.662 66.9762C274.886 66.6659 275.025 66.3022 275.064 65.9214C275.104 65.5406 275.043 65.1561 274.888 64.8062C274.829 64.9422 274.753 65.0704 274.662 65.1877C273.929 66.1296 272.309 66.6483 272.482 67.8287Z" fill="black"/>
<path opacity="0.1" d="M223.538 73.5636C223.32 73.9984 223.147 74.4537 223.02 74.9229C223.951 74.4023 224.955 74.0226 225.998 73.7961L223.538 73.5636Z" fill="black"/>
<path opacity="0.1" d="M231.75 67.0778C231.359 66.862 230.984 66.6169 230.63 66.3445C230.615 66.5803 230.633 66.8171 230.684 67.048C231.039 67.031 231.396 67.041 231.75 67.0778V67.0778Z" fill="black"/>
<path opacity="0.1" d="M289.986 102.204C289.742 105.096 288.395 107.88 287.305 110.622C285.119 116.119 283.886 121.949 282.963 127.798C282.135 133.038 281.176 138.988 276.709 141.891C275.433 142.654 274.066 143.255 272.641 143.68C266.22 145.903 259.745 148.133 252.985 148.944C246.224 149.755 239.13 149.045 233.233 145.671C231.523 144.778 230.056 143.483 228.957 141.897C227.366 139.375 227.336 136.216 226.574 133.33C225.924 131.188 225.128 129.092 224.191 127.058C222.875 123.851 221.862 120.501 220.856 117.204C219.923 114.139 218.991 111.073 218.062 108.005C217.756 107.082 217.529 106.135 217.383 105.173C217.151 106.699 217.604 108.297 218.062 109.793C218.991 112.866 219.923 115.932 220.856 118.992C221.862 122.313 222.875 125.64 224.191 128.847C225.128 130.881 225.924 132.976 226.574 135.119C227.324 138.004 227.354 141.164 228.957 143.686C230.056 145.271 231.523 146.566 233.233 147.459C239.13 150.834 246.242 151.543 252.985 150.732C259.727 149.922 266.196 147.692 272.641 145.468C274.066 145.044 275.433 144.443 276.709 143.68C281.147 140.776 282.135 134.827 282.963 129.586C283.886 123.738 285.119 117.907 287.305 112.411C288.604 109.144 290.284 105.823 289.998 102.311C289.998 102.276 289.986 102.24 289.986 102.204Z" fill="black"/>
<path opacity="0.1" d="M218.694 99.8964C218.694 99.8964 218.694 99.8547 218.694 99.8309C218.802 98.7796 218.709 97.7175 218.42 96.701C218.302 96.0467 218.224 95.3857 218.188 94.7217C218.12 95.9824 218.198 97.2468 218.42 98.4895C218.516 98.9545 218.623 99.4255 218.694 99.8964Z" fill="black"/>
<path opacity="0.1" d="M220.51 85.3143C220.968 84.544 221.488 83.8122 222.065 83.1263C220.975 84.1696 218.962 83.2396 218.539 81.7909C218.383 82.3769 218.383 82.9934 218.539 83.5794C218.685 84.0169 218.945 84.4077 219.291 84.7124C219.638 85.0171 220.058 85.2247 220.51 85.3143V85.3143Z" fill="black"/>
</g>
<path opacity="0.1" d="M179.863 209.061C179.863 209.061 213.815 226.648 226.025 224.562L179.863 209.061Z" fill="black"/>
<path opacity="0.1" d="M248.961 201.907C248.961 201.907 282.019 212.638 293.038 214.129C304.058 215.619 248.961 201.907 248.961 201.907Z" fill="black"/>
<path d="M285.626 166.185C268.353 169.368 235.831 168.683 221.773 168.2C226.926 149.718 252.05 156.002 252.05 156.002C283.148 149.79 285.531 162.679 285.626 166.185Z" fill="#CDF4DE"/>
<path opacity="0.1" d="M369.277 238.274C369.277 238.274 371.165 245.13 369.277 251.091C367.389 257.053 369.277 238.274 369.277 238.274Z" fill="black"/>
<path opacity="0.1" d="M377.316 245.266C377.316 245.266 378.108 253.971 376.321 255.515C374.535 257.059 377.316 245.266 377.316 245.266Z" fill="black"/>
<path d="M80.3281 154.333L140.851 153.737" stroke="#CDF4DE" stroke-width="2" stroke-miterlimit="10"/>
<path d="M80.3281 161.767L140.851 161.177" stroke="#CDF4DE" stroke-width="2" stroke-miterlimit="10"/>
<path d="M80.3281 169.207L140.851 168.611" stroke="#CDF4DE" stroke-width="2" stroke-miterlimit="10"/>
</svg>
