<svg xmlns="http://www.w3.org/2000/svg" width="479" height="358" fill="none" viewBox="0 0 479 358"><path fill="#92E3A9" d="M413.365 50.712C413.365 50.712 411.83 29.2546 380.328 28.45C348.827 27.6453 357.287 49.9073 348.837 55.2717C340.387 60.636 338.101 52.1925 329.629 57.5676C321.158 62.9427 325.023 73.6606 318.109 75.227C311.194 76.7934 302.004 68.3178 293.532 73.6928C285.061 79.0679 285.082 83.6705 281.239 83.6705C277.395 83.6705 269.718 80.6021 265.134 83.6705C260.549 86.7389 255.148 90.5798 255.148 90.5798H449.484C449.484 90.5798 451.781 83.6705 443.331 79.0679C434.882 74.4653 431.038 78.2954 427.967 74.4546C424.896 70.6137 436.417 60.7433 413.365 50.712Z"/><path fill="#fff" d="M413.365 50.712C413.365 50.712 411.83 29.2546 380.328 28.45C348.827 27.6453 357.287 49.9073 348.837 55.2717C340.387 60.636 338.101 52.1925 329.629 57.5676C321.158 62.9427 325.023 73.6606 318.109 75.227C311.194 76.7934 302.004 68.3178 293.532 73.6928C285.061 79.0679 285.082 83.6705 281.239 83.6705C277.395 83.6705 269.718 80.6021 265.134 83.6705C260.549 86.7389 255.148 90.5798 255.148 90.5798H449.484C449.484 90.5798 451.781 83.6705 443.331 79.0679C434.882 74.4653 431.038 78.2954 427.967 74.4546C424.896 70.6137 436.417 60.7433 413.365 50.712Z" opacity=".8"/><path fill="#92E3A9" d="M238.442 15.4685C238.442 15.4685 237.368 0.630691 215.637 0.0942568C193.906 -0.442177 199.704 14.9427 193.873 18.6549C188.043 22.367 186.454 16.5091 180.614 20.2427C174.773 23.9763 177.393 31.3791 172.658 32.4412C167.923 33.5034 161.513 27.667 155.683 31.3684C149.853 35.0698 149.842 38.2562 147.19 38.2562C144.538 38.2562 139.234 36.1104 136.045 38.2562C132.857 40.4019 129.152 43.0304 129.152 43.0304H263.362C263.362 43.0304 264.951 38.2562 259.121 35.0805C253.291 31.9048 250.628 34.544 248.502 31.8619C246.376 29.1797 254.364 22.367 238.442 15.4685Z"/><path fill="#fff" d="M238.442 15.4685C238.442 15.4685 237.368 0.630691 215.637 0.0942568C193.906 -0.442177 199.704 14.9427 193.873 18.6549C188.043 22.367 186.454 16.5091 180.614 20.2427C174.773 23.9763 177.393 31.3791 172.658 32.4412C167.923 33.5034 161.513 27.667 155.683 31.3684C149.853 35.0698 149.842 38.2562 147.19 38.2562C144.538 38.2562 139.234 36.1104 136.045 38.2562C132.857 40.4019 129.152 43.0304 129.152 43.0304H263.362C263.362 43.0304 264.951 38.2562 259.121 35.0805C253.291 31.9048 250.628 34.544 248.502 31.8619C246.376 29.1797 254.364 22.367 238.442 15.4685Z" opacity=".8"/><path fill="#92E3A9" d="M127.823 55.1216C127.823 55.1216 127.254 47.1716 115.594 46.882C103.934 46.5923 107.004 54.8426 103.934 56.8274C100.863 58.8122 99.9502 55.6902 96.8259 57.6857C93.7015 59.6813 95.1187 63.6509 92.5312 64.2195C89.9436 64.7881 86.5615 61.6661 83.4371 63.6509C80.3127 65.6357 80.302 67.3523 78.8847 67.3523C77.4675 67.3523 74.5901 66.215 72.9151 67.3523C71.2402 68.4895 69.2109 69.9057 69.2109 69.9057H141.147C141.147 69.9057 142.006 67.3523 138.871 65.6142C135.736 63.8762 134.319 65.3245 133.191 63.9084C132.064 62.4922 136.359 58.823 127.823 55.1216Z"/><path fill="#fff" d="M127.823 55.1216C127.823 55.1216 127.254 47.1716 115.594 46.882C103.934 46.5923 107.004 54.8426 103.934 56.8274C100.863 58.8122 99.9502 55.6902 96.8259 57.6857C93.7015 59.6813 95.1187 63.6509 92.5312 64.2195C89.9436 64.7881 86.5615 61.6661 83.4371 63.6509C80.3127 65.6357 80.302 67.3523 78.8847 67.3523C77.4675 67.3523 74.5901 66.215 72.9151 67.3523C71.2402 68.4895 69.2109 69.9057 69.2109 69.9057H141.147C141.147 69.9057 142.006 67.3523 138.871 65.6142C135.736 63.8762 134.319 65.3245 133.191 63.9084C132.064 62.4922 136.359 58.823 127.823 55.1216Z" opacity=".8"/><path fill="#92E3A9" d="M363.975 353.111C363.975 355.814 344.499 357.992 320.47 357.992C296.441 357.992 277.008 355.782 277.008 353.111C277.008 350.439 296.431 348.272 320.459 348.272C344.488 348.272 363.975 350.418 363.975 353.111Z" opacity=".33"/><path fill="#92E3A9" d="M449.643 350.901C449.643 353.594 430.167 355.782 406.138 355.782C382.109 355.782 362.633 353.636 362.633 350.901C362.633 348.165 382.109 346.019 406.138 346.019C430.167 346.019 449.643 348.208 449.643 350.901Z" opacity=".33"/><path fill="#92E3A9" d="M194.462 352.671C218.49 352.671 237.968 350.485 237.968 347.789C237.968 345.093 218.49 342.908 194.462 342.908C170.435 342.908 150.957 345.093 150.957 347.789C150.957 350.485 170.435 352.671 194.462 352.671Z" opacity=".33"/><path fill="#92E3A9" d="M97.017 356.662C121.044 356.662 140.522 354.476 140.522 351.78C140.522 349.084 121.044 346.898 97.017 346.898C72.9897 346.898 53.5117 349.084 53.5117 351.78C53.5117 354.476 72.9897 356.662 97.017 356.662Z" opacity=".33"/><path fill="#fff" d="M457.215 299.403C457.215 299.403 463.442 296.56 464.859 294.639C466.277 292.719 467.425 293.427 466.771 295.712C466.116 297.998 462.83 300.004 462.83 300.004"/><path stroke="#263238" stroke-linecap="round" stroke-linejoin="round" stroke-width=".827" d="M457.215 299.403C457.215 299.403 463.442 296.56 464.859 294.639C466.277 292.719 467.425 293.427 466.771 295.712C466.116 297.998 462.83 300.004 462.83 300.004"/><path fill="#fff" d="M434.687 324.851C434.687 324.851 436.834 332.597 438.08 335.58C439.325 338.562 440.109 339.968 437.575 341.931C435.041 343.894 428.438 346.748 426.581 346.823C424.723 346.898 422.286 342.886 423.445 342.843C424.473 342.91 425.485 343.123 426.452 343.476C426.452 343.476 430.134 342.21 431.187 340.687C432.239 339.163 428.062 327.018 428.062 327.018"/><path stroke="#263238" stroke-linecap="round" stroke-linejoin="round" stroke-width=".827" d="M434.687 324.851C434.687 324.851 436.834 332.597 438.08 335.58C439.325 338.562 440.109 339.968 437.575 341.931C435.041 343.894 428.438 346.748 426.581 346.823C424.723 346.898 422.286 342.886 423.445 342.843C424.473 342.91 425.485 343.123 426.452 343.476C426.452 343.476 430.134 342.21 431.187 340.687C432.239 339.163 428.062 327.018 428.062 327.018"/><path fill="#fff" stroke="#263238" stroke-linecap="round" stroke-linejoin="round" stroke-width=".827" d="M394.133 317.46C394.133 317.46 397.569 319.605 394.863 326.751C392.157 333.896 385.973 338.263 386.048 340.129C386.438 342.71 387.289 345.199 388.561 347.478C389.355 348.551 393.092 348.798 392.759 349.925C392.426 351.051 392.447 351.437 390.214 351.512C389.144 351.598 388.069 351.427 387.079 351.013C386.089 350.598 385.213 349.953 384.524 349.131C382.967 347.317 380.476 340.709 380.014 338.488C379.552 336.267 383.482 331.654 384.126 329.014C384.771 326.375 382.333 320.893 385.2 317.427C388.067 313.962 392.565 315.657 394.133 317.46Z"/><path fill="#fff" stroke="#263238" stroke-linecap="round" stroke-linejoin="round" stroke-width=".827" d="M444.373 295.047C442.017 294.722 439.622 294.813 437.298 295.315C434.345 296.173 426.561 297.59 413.161 298.105C399.762 298.62 394.297 292.483 384.301 294.36C374.305 296.238 369.935 308.694 370.579 315.743C371.224 322.791 375.067 326.01 373.661 328.295C372.254 330.58 367.992 326.278 368.292 333.724C368.593 341.17 372.018 353.325 374.241 352.875C376.463 352.424 375.132 337.189 375.078 335.709C375.024 334.228 385.461 334.196 388.295 330.344C391.13 326.493 393.481 319.712 393.481 319.712C393.481 319.712 396.476 319.97 402.221 323.843C407.965 327.716 421.493 330.57 431.145 329.454C440.798 328.338 443.171 321.944 443.171 321.944L446.445 319.959L444.373 295.047Z"/><path fill="#fff" stroke="#263238" stroke-linecap="round" stroke-linejoin="round" stroke-width=".827" d="M453.09 297.847C453.09 297.847 446.187 293.835 444.372 295.026C442.558 296.216 445.253 318.092 446.434 319.916C447.389 321.375 449.923 321.429 464.579 319.916C465.626 320.001 466.647 320.289 467.585 320.764C468.809 321.313 470.168 321.492 471.493 321.279L475.552 320.656C475.552 320.656 479.181 317.91 477.602 315.732C476.024 313.554 472.685 312.696 471.826 309.756C470.967 306.816 466.576 300.508 466.576 300.508C462.303 298.731 457.718 297.826 453.09 297.847Z"/><path fill="#fff" d="M463.902 302.139C465.914 302.049 467.901 301.658 469.797 300.98C472.266 299.907 473.769 298.319 473.855 300.508C473.941 302.697 470.967 306.87 469.131 307.879C467.738 308.454 466.185 308.515 464.751 308.05"/><path stroke="#263238" stroke-linecap="round" stroke-linejoin="round" stroke-width=".827" d="M463.902 302.139C465.914 302.049 467.901 301.658 469.797 300.98C472.266 299.907 473.769 298.319 473.855 300.508C473.941 302.697 470.967 306.87 469.131 307.879C467.738 308.454 466.185 308.515 464.751 308.05"/><path fill="#fff" d="M424.285 321.139C424.285 321.139 425.359 330.044 427.044 334.818C428.73 339.592 435.892 351.63 438.168 352.66C440.444 353.69 444.975 355.01 445.63 352.746C446.285 350.482 445.909 350.128 443.644 349.463L441.378 348.808C441.378 348.808 434.614 337.511 434.421 332.715C434.227 327.92 436.171 319.98 436.171 319.98"/><path stroke="#263238" stroke-linecap="round" stroke-linejoin="round" stroke-width=".827" d="M424.285 321.139C424.285 321.139 425.359 330.044 427.044 334.818C428.73 339.592 435.892 351.63 438.168 352.66C440.444 353.69 444.975 355.01 445.63 352.746C446.285 350.482 445.909 350.128 443.644 349.463L441.378 348.808C441.378 348.808 434.614 337.511 434.421 332.715C434.227 327.92 436.171 319.98 436.171 319.98"/><g style="mix-blend-mode:multiply" opacity=".6"><path fill="#92E3A9" d="M469.946 302.503C462.677 302.503 463.934 305.025 461.593 304.563C459.252 304.102 464.868 300.83 460.186 300.358C455.505 299.885 449.321 299.059 449.321 299.059L446.175 297.085C446.175 297.085 440.882 297.182 431.38 298.072C421.878 298.963 413.814 299.145 406.406 299.961C401.846 300.477 397.236 300.365 392.706 299.628C392.706 299.628 394.316 286.818 386.371 284.951C378.426 283.084 377.03 300.358 377.03 300.358C377.03 300.358 373.809 306.43 373.294 311.086C372.779 315.742 377.964 321.815 377.503 324.626C377.041 327.437 373.766 330.226 376.569 330.226C379.371 330.226 383.107 332.093 385.91 325.559C388.712 319.025 389.743 315.903 394.134 317.448C398.525 318.993 414.877 324.154 420.976 323.692C427.074 323.231 425.657 332.093 429.393 332.554C433.13 333.016 433.591 324.154 433.591 322.759C433.591 321.364 440.13 318.553 439.668 316.215C439.207 313.876 433.72 308.286 434.526 304.552C435.331 300.819 441.837 298.931 441.837 298.931C441.837 298.931 442.224 310.872 445.391 313.082C448.558 315.292 450.416 319.025 454.152 315.281C457.889 311.537 457.534 308.522 461.163 308.286C464.792 308.05 477.226 302.482 469.946 302.503ZM380.831 295.658C379.081 296.184 379.102 296.045 378.684 294.081C378.265 292.118 379.918 290.391 382.721 290.391C385.523 290.391 389.055 295.476 389.055 295.476C386.854 293.202 382.635 295.133 380.874 295.701L380.831 295.658Z"/></g><path fill="#fff" d="M373.446 302.965C373.446 302.965 376.291 299.51 373.371 291.421C370.45 283.331 377.343 278.224 383.646 277.237C389.948 276.25 395.853 284.232 397.163 289.393C398.473 294.553 396.455 300.229 392.708 299.628C388.96 299.027 388.338 292.708 384.558 291.367C380.779 290.026 377.955 294.221 379.19 296.045"/><path stroke="#263238" stroke-linecap="round" stroke-linejoin="round" stroke-width=".827" d="M373.446 302.965C373.446 302.965 376.291 299.51 373.371 291.421C370.45 283.331 377.343 278.224 383.646 277.237C389.948 276.25 395.853 284.232 397.163 289.393C398.473 294.553 396.455 300.229 392.708 299.628C388.96 299.027 388.338 292.708 384.558 291.367C380.779 290.026 377.955 294.221 379.19 296.045"/><g style="mix-blend-mode:multiply"><path fill="#92E3A9" d="M392.706 299.628C392.706 299.628 394.317 286.818 386.371 284.951C380.144 283.492 377.943 293.792 377.277 298.309L379.146 296.045C378.909 295.648 378.821 295.18 378.899 294.725C378.825 294.518 378.781 294.301 378.77 294.081C378.77 293.009 381.153 290.916 383.966 290.916C385.341 290.916 387.456 293.706 387.456 293.706C387.123 293.373 388.422 294.908 388.014 294.779C389.345 296.892 390.473 299.263 392.706 299.628Z"/></g><path fill="#263238" d="M468.734 317.964C470.124 318.662 471.428 319.519 472.621 320.517L468.734 317.964Z"/><path stroke="#263238" stroke-linecap="round" stroke-linejoin="round" stroke-width=".827" d="M468.734 317.964C470.124 318.662 471.428 319.519 472.621 320.517"/><path fill="#263238" d="M471.814 310.582C471.814 311.301 471.61 311.891 471.299 311.912C470.987 311.934 470.719 311.344 470.687 310.625C470.654 309.906 470.891 309.316 471.202 309.305C471.513 309.295 471.782 309.863 471.814 310.582Z"/><path fill="#263238" d="M477.987 316.955C477.987 317.674 477.793 318.264 477.482 318.275C477.171 318.285 476.902 317.717 476.87 316.998C476.838 316.279 477.074 315.689 477.386 315.678C477.697 315.668 477.965 316.236 477.987 316.955Z"/><path stroke="#263238" stroke-linecap="round" stroke-linejoin="round" stroke-width=".62" d="M464.577 319.949L461.195 318.532"/><path stroke="#263238" stroke-linecap="round" stroke-linejoin="round" stroke-width=".62" d="M376.43 294.468C376.43 294.468 377.364 289.468 378.931 288.535"/><path stroke="#263238" stroke-linecap="round" stroke-linejoin="round" stroke-width=".62" d="M380.812 289.468C380.812 289.468 382.058 286.968 384.248 286.968"/><path stroke="#263238" stroke-linecap="round" stroke-linejoin="round" stroke-width=".62" d="M384.559 289.157C385.457 288.702 386.488 288.578 387.469 288.805C388.45 289.033 389.32 289.598 389.927 290.402"/><path stroke="#263238" stroke-linecap="round" stroke-linejoin="round" stroke-width=".62" d="M388.672 291.035C388.672 291.035 391.796 293.18 391.796 295.401"/><path stroke="#263238" stroke-linecap="round" stroke-linejoin="round" stroke-width=".62" d="M397.078 318.532C398.592 319.092 400.256 319.092 401.77 318.532C404.272 317.599 405.517 317.288 405.517 317.288"/><path stroke="#263238" stroke-linecap="round" stroke-linejoin="round" stroke-width=".62" d="M409.586 316.032L407.707 316.977"/><path stroke="#263238" stroke-linecap="round" stroke-linejoin="round" stroke-width=".62" d="M402.391 320.378C402.391 320.378 405.826 321.001 407.759 319.755"/><path stroke="#263238" stroke-linecap="round" stroke-linejoin="round" stroke-width=".62" d="M412.711 325.098C412.711 325.098 417.403 326.032 419.593 325.41"/><path stroke="#263238" stroke-linecap="round" stroke-linejoin="round" stroke-width=".62" d="M425.539 298.534C425.539 298.534 421.781 300.089 420.847 301.345L419.902 302.6"/><path stroke="#263238" stroke-linecap="round" stroke-linejoin="round" stroke-width=".62" d="M419.282 300.089C419.282 300.089 416.78 302.911 416.469 304.156"/><path stroke="#263238" stroke-linecap="round" stroke-linejoin="round" stroke-width=".62" d="M415.523 301.656L413.344 304.156"/><path stroke="#263238" stroke-linecap="round" stroke-linejoin="round" stroke-width=".62" d="M444.5 303.694C444.836 304.722 445.484 305.62 446.353 306.264C447.223 306.908 448.271 307.266 449.353 307.288"/><path stroke="#263238" stroke-linecap="round" stroke-linejoin="round" stroke-width=".62" d="M446.496 308.576C446.496 308.576 449.62 309.832 451.499 309.198"/><path stroke="#263238" stroke-linecap="round" stroke-linejoin="round" stroke-width=".62" d="M384.556 300.089C384.556 300.089 380.809 302.235 382.054 306.033"/><path stroke="#263238" stroke-linecap="round" stroke-linejoin="round" stroke-width=".62" d="M379.555 305.411C379.555 305.411 380.5 311.655 386.437 311.977"/><path fill="#92E3A9" d="M344.361 222.328C343.691 225.518 343.193 228.741 342.868 231.984C342.868 234.226 355.162 276.669 355.162 282.999C355.162 289.329 360.38 344.442 360.38 344.442L351.791 346.298C351.791 346.298 344.704 319.863 341.355 310.185C338.005 300.508 336.512 283.75 336.512 283.75L328.685 255.855C328.685 255.855 322.351 243.196 319.366 238.346C316.381 233.497 313.783 229.763 314.148 225.686C314.513 221.609 318.625 218.992 318.625 218.992L344.361 222.328Z"/><path fill="#000" d="M344.361 222.328C343.691 225.518 343.193 228.741 342.868 231.984C342.868 234.226 355.162 276.669 355.162 282.999C355.162 289.329 360.38 344.442 360.38 344.442L351.791 346.298C351.791 346.298 344.704 319.863 341.355 310.185C338.005 300.508 336.512 283.75 336.512 283.75L328.685 255.855C328.685 255.855 322.351 243.196 319.366 238.346C316.381 233.497 313.783 229.763 314.148 225.686C314.513 221.609 318.625 218.992 318.625 218.992L344.361 222.328Z" opacity=".9"/><path fill="#92E3A9" stroke="#263238" stroke-linecap="round" stroke-linejoin="round" stroke-width=".827" d="M360.82 239.912C360.82 239.912 357.395 241.811 358.158 244.096C358.92 246.382 363.096 249.461 365.383 250.169C367.67 250.877 376.024 246.371 376.786 243.335C377.548 240.299 375.261 234.602 373.747 233.84L372.223 233.078L360.82 239.912Z"/><path stroke="#263238" stroke-linecap="round" stroke-linejoin="round" stroke-width=".827" d="M374.121 246.317L444.372 295.047"/><path fill="#263238" d="M441.958 295.09C441.958 295.09 441.797 299.51 441.797 305.207C441.797 310.904 445.115 320.378 445.115 320.378L446.435 319.895C446.435 319.895 444.503 306.344 444.503 303.694C444.503 301.045 444.749 294.886 444.749 294.886L441.958 295.09Z"/><path fill="#92E3A9" stroke="#263238" stroke-linecap="round" stroke-linejoin="round" stroke-width=".827" d="M445.573 295.251C445.573 295.251 439.238 289.157 437.595 289.157C435.953 289.157 435.448 290.327 436.189 291.303C436.93 292.279 441.976 295.133 441.976 295.133C441.976 295.133 443.909 297.59 445.573 295.251Z"/><path fill="#000" d="M445.573 295.251C445.573 295.251 439.238 289.157 437.595 289.157C435.953 289.157 435.448 290.327 436.189 291.303C436.93 292.279 441.976 295.133 441.976 295.133C441.976 295.133 443.909 297.59 445.573 295.251Z" opacity=".2"/><path fill="#fff" stroke="#263238" stroke-linecap="round" stroke-linejoin="round" stroke-width=".827" d="M365.758 225.804C365.758 225.804 369.559 229.988 370.322 231.169C371.353 233.317 371.996 235.631 372.222 238.003C372.222 239.526 365.78 242.949 363.482 242.562C361.185 242.176 359.671 239.151 359.295 238.003C358.919 236.855 357.395 233.068 357.395 233.068L365.758 225.804Z"/><path fill="#92E3A9" d="M307.831 220.461C307.213 225.063 307.468 229.74 308.582 234.248C310.44 240.943 313.425 246.908 313.425 248.023C313.425 249.139 311.191 281.529 310.815 282.656C310.44 283.782 285.101 340.762 285.477 341.835C285.853 342.908 291.436 345.182 291.436 345.182C291.436 345.182 328.703 293.427 330.56 290.82C332.418 288.213 339.15 241.672 340.223 239.065C341.297 236.458 342.5 219.721 342.5 219.721C342.5 219.721 317.15 218.981 307.831 220.461Z"/><path fill="#000" d="M307.831 220.461C307.213 225.063 307.468 229.74 308.582 234.248C310.44 240.943 313.425 246.908 313.425 248.023C313.425 249.139 311.191 281.529 310.815 282.656C310.44 283.782 285.101 340.762 285.477 341.835C285.853 342.908 291.436 345.182 291.436 345.182C291.436 345.182 328.703 293.427 330.56 290.82C332.418 288.213 339.15 241.672 340.223 239.065C341.297 236.458 342.5 219.721 342.5 219.721C342.5 219.721 317.15 218.981 307.831 220.461Z" opacity=".9"/><path stroke="#92E3A9" stroke-linecap="round" stroke-linejoin="round" stroke-width=".62" d="M341.706 233.518L335.457 268.526" opacity=".59"/><path stroke="#92E3A9" stroke-linecap="round" stroke-linejoin="round" stroke-width=".62" d="M330.134 228.83C329.175 230.616 328.023 232.293 326.699 233.829C325.847 234.727 324.767 235.376 323.574 235.707" opacity=".59"/><path stroke="#92E3A9" stroke-linecap="round" stroke-linejoin="round" stroke-width=".62" d="M322.317 228.208C322.317 228.208 322.628 237.273 322.94 241.018C323.304 247.275 323.095 253.552 322.317 259.771C321.383 268.837 321.383 273.214 321.383 273.214" opacity=".59"/><path fill="#fff" stroke="#263238" stroke-linecap="round" stroke-linejoin="round" stroke-width=".827" d="M360.377 344.463C360.377 344.463 374.163 346.695 374.163 348.186C374.163 349.678 352.925 356.769 351.809 354.892C350.692 353.014 351.809 346.309 351.809 346.309L360.377 344.463Z"/><path fill="#fff" stroke="#263238" stroke-linecap="round" stroke-linejoin="round" stroke-width=".827" d="M285.479 341.835C285.479 341.835 280.261 347.789 280.637 349.281C281.012 350.772 286.971 353.755 289.945 354.119C292.919 354.484 299.608 354.495 301.498 353.379C303.388 352.263 297.407 350.772 295.915 349.281C294.423 347.789 291.438 345.182 291.438 345.182L285.479 341.835Z"/><path fill="#92E3A9" stroke="#263238" stroke-linecap="round" stroke-linejoin="round" stroke-width=".62" d="M301.499 353.401C301.499 353.401 293.543 353.229 290.096 352.328C286.65 351.427 281.657 347.95 281.657 347.95L281.12 347.768C280.798 348.226 280.628 348.774 280.637 349.334C281.002 350.826 286.972 353.808 289.946 354.173C292.92 354.538 299.641 354.516 301.499 353.401Z"/><path fill="#92E3A9" stroke="#263238" stroke-linecap="round" stroke-linejoin="round" stroke-width=".62" d="M361.096 351.662C357.349 353.229 352.657 352.606 351.723 352.606H351.336C351.325 353.376 351.487 354.139 351.809 354.838C352.883 356.694 374.163 349.624 374.163 348.132C374.163 347.918 373.862 347.682 373.358 347.435L372.67 347.553C372.67 347.553 364.854 350.107 361.096 351.662Z"/><path fill="#263238" d="M389.431 145.146L391.579 146.09C391.876 146.215 392.14 146.407 392.35 146.651C392.56 146.896 392.71 147.185 392.788 147.498C392.867 147.81 392.871 148.137 392.801 148.451C392.73 148.766 392.588 149.059 392.384 149.309L382.721 161.572C382.556 161.78 382.35 161.953 382.115 162.079C381.881 162.206 381.624 162.284 381.359 162.308C381.094 162.332 380.827 162.302 380.573 162.22C380.32 162.137 380.087 162.005 379.886 161.829L378.254 160.392C377.886 160.068 377.654 159.618 377.604 159.13C377.554 158.643 377.691 158.154 377.986 157.763L386.865 145.854C387.151 145.465 387.56 145.183 388.025 145.055C388.491 144.926 388.986 144.959 389.431 145.146Z"/><path fill="#fff" stroke="#263238" stroke-linecap="round" stroke-linejoin="round" stroke-width=".827" d="M368.422 166.153C368.422 166.153 371.085 164.254 371.46 163.116C371.836 161.979 371.085 160.842 372.985 158.181C374.426 156.39 376.264 154.958 378.353 153.997C378.353 153.997 379.867 151.723 381.016 152.098C382.165 152.474 382.53 153.235 381.768 154.759C380.88 156.24 379.863 157.64 378.729 158.943C378.729 158.943 386.792 154.705 388.564 155.499C389.552 155.96 387.834 158.396 387.834 158.396C387.834 158.396 385.579 164.254 384.43 165.402C383.282 166.55 370.741 172.236 370.741 172.236L368.422 166.153Z"/><path fill="#fff" d="M363.095 232.263V234.548L365.757 235.685C365.757 235.685 361.194 242.122 363.481 242.519C365.768 242.916 369.183 237.96 369.558 236.822C369.762 235.565 369.762 234.282 369.558 233.024"/><path stroke="#263238" stroke-linecap="round" stroke-linejoin="round" stroke-width=".827" d="M363.095 232.263V234.548L365.757 235.685C365.757 235.685 361.194 242.122 363.481 242.519C365.768 242.916 369.183 237.96 369.558 236.822C369.762 235.565 369.762 234.282 369.558 233.024"/><path stroke="#263238" stroke-linecap="round" stroke-linejoin="round" stroke-width=".827" d="M359.293 237.96L365.756 235.685"/><path fill="#92E3A9" stroke="#263238" stroke-linecap="round" stroke-linejoin="round" stroke-width=".827" d="M347.505 190.474C347.505 190.474 355.493 208.327 357.017 210.988C358.542 213.648 366.895 223.53 367.282 225.042C367.668 226.555 360.84 231.479 358.918 233.024L357.017 234.548C357.017 234.548 351.305 229.988 351.305 228.111C351.305 226.233 345.228 212.146 344.863 211.009C344.498 209.872 341.062 198.135 341.062 198.135C341.062 198.135 341.428 187.814 347.505 190.474Z"/><path fill="#000" d="M347.505 190.474C347.505 190.474 355.493 208.327 357.017 210.988C358.542 213.648 366.895 223.53 367.282 225.042C367.668 226.555 360.84 231.479 358.918 233.024L357.017 234.548C357.017 234.548 351.305 229.988 351.305 228.111C351.305 226.233 345.228 212.146 344.863 211.009C344.498 209.872 341.062 198.135 341.062 198.135C341.062 198.135 341.428 187.814 347.505 190.474Z" opacity=".1"/><path fill="#92E3A9" stroke="#263238" stroke-linecap="round" stroke-linejoin="round" stroke-width=".827" d="M334.579 140.318L341.021 147.163C341.021 147.163 343.308 152.527 342.169 152.86L341.021 153.235C341.021 153.235 350.533 198.446 352.434 207.565C354.334 216.685 355.472 222.006 354.71 223.905C353.948 225.804 350.147 225.804 350.147 225.804L342.169 223.53L331.143 142.979C331.143 142.979 330.015 137.668 334.579 140.318Z"/><path fill="#000" d="M334.579 140.318L341.021 147.163C341.021 147.163 343.308 152.527 342.169 152.86L341.021 153.235C341.021 153.235 350.533 198.446 352.434 207.565C354.334 216.685 355.472 222.006 354.71 223.905C353.948 225.804 350.147 225.804 350.147 225.804L342.169 223.53L331.143 142.979C331.143 142.979 330.015 137.668 334.579 140.318Z" opacity=".1"/><path stroke="#263238" stroke-linecap="round" stroke-linejoin="round" stroke-width=".62" d="M362.044 219.142L356.418 222.897"/><path fill="#fff" d="M357.531 120.416C357.714 118.968 357.875 117.487 357.982 115.996C358.379 110.567 357.478 104.752 352.614 101.555C347.75 98.3581 338.366 97.3603 333.513 101.115C329.337 104.334 327.264 109.763 327.071 114.923C326.92 117.183 327.42 119.439 328.51 121.425C329.444 123.399 331.43 125.641 330.84 128.012C330.153 130.748 324.688 137.11 324.688 137.11L331.226 145.5C332.961 143.415 335.042 141.643 337.378 140.264C339.658 138.884 342.295 138.209 344.958 138.322C348.029 140.06 351.594 140.672 352.625 139.256C353.526 138.011 355.008 133.688 356.221 128.044C356.767 128.167 357.338 128.12 357.856 127.909C358.375 127.698 358.816 127.333 359.12 126.864C359.904 125.405 358.025 121.425 357.531 120.416Z"/><g style="mix-blend-mode:multiply" opacity=".5"><path fill="#92E3A9" d="M356.909 108.089C356.909 108.089 347.944 108.304 347.74 109.366C347.597 110.286 347.525 111.215 347.525 112.145C347.525 112.145 344.755 108.089 349.018 107.671C351.655 107.421 354.314 107.562 356.909 108.089Z"/></g><g style="mix-blend-mode:multiply" opacity=".5"><path fill="#92E3A9" d="M325.816 135.683L329.821 139.417L336.865 125.351L330.422 125.201C330.826 126.08 330.939 127.065 330.745 128.012C330.304 129.933 327.47 133.698 325.816 135.683Z"/></g><path stroke="#263238" stroke-linecap="round" stroke-linejoin="round" stroke-width=".827" d="M357.531 120.416C357.714 118.968 357.875 117.487 357.982 115.996C358.379 110.567 357.478 104.752 352.614 101.555C347.75 98.3581 338.366 97.3603 333.513 101.115C329.337 104.334 327.264 109.763 327.071 114.923C326.92 117.183 327.42 119.439 328.51 121.425C329.444 123.399 331.43 125.641 330.84 128.012C330.153 130.748 324.688 137.11 324.688 137.11L331.226 145.5C332.961 143.415 335.042 141.643 337.378 140.264C339.658 138.884 342.295 138.209 344.958 138.322C348.029 140.06 351.594 140.672 352.625 139.256C353.526 138.011 355.008 133.688 356.221 128.044C356.767 128.167 357.338 128.12 357.856 127.909C358.375 127.698 358.816 127.333 359.12 126.864C359.904 125.405 358.025 121.425 357.531 120.416Z"/><path fill="#263238" d="M339.989 118.968C339.989 118.968 343.51 119.44 343.983 117.799C344.455 116.157 345.389 115.46 347.493 114.516C349.598 113.571 347.032 111.705 346.559 109.366C346.087 107.027 353.592 107.016 358.048 108.186C362.503 109.355 367.206 109.366 366.025 103.261C364.844 97.1566 360.163 98.3475 357.822 98.3475C355.482 98.3475 360.163 93.8951 355.235 92.2536C350.307 90.6121 349.372 93.423 348.9 95.0645C348.428 96.706 346.087 96.706 343.983 96.706C341.878 96.706 339.752 94.1204 331.775 97.1673C323.798 100.214 322.391 110.771 324.259 117.101C326.127 123.431 327.19 126.51 330.776 128.012C334.362 129.514 339.978 122.723 339.978 120.846L339.989 118.968Z"/><path stroke="#fff" stroke-linecap="round" stroke-linejoin="round" stroke-width=".62" d="M345.463 108.818C345.463 108.818 345.775 107.563 342.339 110.374C338.903 113.185 337.647 116.007 332.676 116.318"/><path stroke="#fff" stroke-linecap="round" stroke-linejoin="round" stroke-width=".62" d="M328.266 120.062C328.266 120.062 332.013 121.63 334.203 120.062"/><path fill="#263238" d="M355.227 117.069L354.153 123.506C354.107 123.758 354.159 124.019 354.299 124.234C354.439 124.449 354.655 124.603 354.904 124.665L355.269 124.751L356.343 118.313C356.374 118.063 356.316 117.809 356.179 117.597C356.041 117.385 355.833 117.229 355.592 117.155L355.227 117.069Z"/><path fill="#263238" d="M355.225 117.069C355.225 117.069 337.972 116.758 336.973 117.069C336.259 117.932 335.644 118.871 335.137 119.869C334.836 120.77 335.685 120.62 336.211 120.127C336.737 119.633 337.596 117.788 338.047 117.691C338.498 117.595 355.021 118.635 355.021 118.635L355.419 117.144L355.225 117.069Z"/><path fill="#fff" d="M342.705 120.009C342.705 120.009 342.233 114.376 338.486 118.131C334.739 121.886 337.541 126.103 339.42 126.564C339.978 126.671 340.556 126.591 341.065 126.337C341.573 126.083 341.984 125.669 342.233 125.158"/><path stroke="#263238" stroke-linecap="round" stroke-linejoin="round" stroke-width=".827" d="M342.705 120.009C342.705 120.009 342.233 114.376 338.486 118.131C334.739 121.886 337.541 126.103 339.42 126.564C339.978 126.671 340.556 126.591 341.065 126.337C341.573 126.083 341.984 125.669 342.233 125.158"/><path fill="#fff" d="M353.827 132.797C353.827 132.797 349.844 132.1 349.844 130.651L353.827 132.797Z"/><path stroke="#263238" stroke-linecap="round" stroke-linejoin="round" stroke-width=".827" d="M353.827 132.797C353.827 132.797 349.844 132.1 349.844 130.651"/><path fill="#fff" d="M351.016 120.374C351.016 120.374 353.549 120.556 353.829 122.015L351.016 120.374Z"/><path stroke="#263238" stroke-linecap="round" stroke-linejoin="round" stroke-width=".827" d="M351.016 120.374C351.016 120.374 353.549 120.556 353.829 122.015"/><path fill="#fff" d="M351.949 114.989C351.949 114.989 354.301 112.637 355.707 114.753L351.949 114.989Z"/><path stroke="#263238" stroke-linecap="round" stroke-linejoin="round" stroke-width=".827" d="M351.949 114.989C351.949 114.989 354.301 112.637 355.707 114.753"/><path stroke="#263238" stroke-linecap="round" stroke-linejoin="round" stroke-width=".62" d="M339.422 126.564C339.422 126.564 339.83 131.317 341.709 134.128"/><path fill="#92E3A9" stroke="#263238" stroke-linecap="round" stroke-linejoin="round" stroke-width=".827" d="M324.999 133.763L336.906 146.734C336.906 146.734 340.997 175.787 344.723 197.748C348.448 219.71 348.448 227.542 348.448 227.542C340.764 228.198 333.038 228.198 325.354 227.542C317.679 226.767 310.076 225.397 302.613 223.444C302.613 223.444 305.974 172.429 308.583 158.278C310.902 145.682 321.8 135.747 324.151 133.709C324.272 133.606 324.428 133.555 324.586 133.565C324.744 133.575 324.893 133.646 324.999 133.763Z"/><path fill="#fff" stroke="#263238" stroke-miterlimit="10" d="M324.999 133.763L336.906 146.734C336.906 146.734 340.997 175.787 344.723 197.748C348.448 219.71 348.448 227.542 348.448 227.542C340.764 228.198 333.038 228.198 325.354 227.542C317.679 226.767 310.076 225.397 302.613 223.444C302.613 223.444 305.974 172.429 308.583 158.278C310.902 145.682 321.8 135.747 324.151 133.709C324.272 133.606 324.428 133.555 324.586 133.565C324.744 133.575 324.893 133.646 324.999 133.763Z" opacity=".5"/><path fill="#92E3A9" stroke="#263238" stroke-linecap="round" stroke-linejoin="round" stroke-width=".827" d="M320.137 137.432C320.137 137.432 329.8 151.583 330.938 152.699C332.076 153.814 336.908 146.733 336.908 146.733C336.908 146.733 326.471 134.074 324.603 133.333C322.735 132.593 320.137 137.432 320.137 137.432Z"/><path fill="#92E3A9" d="M329.154 158.525C331.613 161.979 337.239 180.594 337.239 180.594C337.239 180.594 364.639 165.885 366.54 165.885C368.827 165.123 370.727 168.932 372.628 174.242C374.528 179.553 373.39 180.326 373.39 180.326L361.579 182.911C348.695 191.129 328.371 204.444 327.351 203.424C325.837 201.901 320.136 187.471 317.086 180.626C314.037 173.781 313.672 165.81 315.948 160.113C316.533 158.644 317.204 157.211 317.956 155.821C317.956 155.821 321.274 152.173 323.174 152.935"/><path stroke="#263238" stroke-linecap="round" stroke-linejoin="round" stroke-width=".827" d="M329.154 158.525C331.613 161.979 337.239 180.594 337.239 180.594C337.239 180.594 364.639 165.885 366.54 165.885C368.827 165.123 370.727 168.932 372.628 174.242C374.528 179.553 373.39 180.326 373.39 180.326L361.579 182.911C348.695 191.129 328.371 204.444 327.351 203.424C325.837 201.901 320.136 187.471 317.086 180.626C314.037 173.781 313.672 165.81 315.948 160.113C316.533 158.644 317.204 157.211 317.956 155.821C317.956 155.821 321.274 152.173 323.174 152.935"/><g opacity=".5"><path fill="#fff" d="M329.154 158.525C331.613 161.979 337.239 180.594 337.239 180.594C337.239 180.594 364.639 165.885 366.54 165.885C368.827 165.123 370.727 168.932 372.628 174.242C374.528 179.553 373.39 180.326 373.39 180.326L361.579 182.911C348.695 191.129 328.371 204.444 327.351 203.424C325.837 201.901 320.136 187.471 317.086 180.626C314.037 173.781 313.672 165.81 315.948 160.113C316.533 158.644 317.204 157.211 317.956 155.821C317.956 155.821 321.274 152.173 323.174 152.935"/><path stroke="#263238" stroke-miterlimit="10" d="M329.154 158.525C331.613 161.979 337.239 180.594 337.239 180.594C337.239 180.594 364.639 165.885 366.54 165.885C368.827 165.123 370.727 168.932 372.628 174.242C374.528 179.553 373.39 180.326 373.39 180.326L361.579 182.911C348.695 191.129 328.371 204.444 327.351 203.424C325.837 201.901 320.136 187.471 317.086 180.626C314.037 173.781 313.672 165.81 315.948 160.113C316.533 158.644 317.204 157.211 317.956 155.821C317.956 155.821 321.274 152.173 323.174 152.935"/></g><path fill="#fff" stroke="#263238" stroke-linecap="round" stroke-linejoin="round" stroke-width=".827" d="M368.926 179.242C369.561 179.242 370.075 178.728 370.075 178.094C370.075 177.46 369.561 176.946 368.926 176.946C368.292 176.946 367.777 177.46 367.777 178.094C367.777 178.728 368.292 179.242 368.926 179.242Z"/><path stroke="#263238" stroke-linecap="round" stroke-linejoin="round" stroke-width=".62" d="M356.148 172.847L359.949 180.615"/><path stroke="#263238" stroke-linecap="round" stroke-linejoin="round" stroke-width=".62" d="M337.241 180.593C337.241 180.593 333.365 183.511 332.828 186.215"/><path stroke="#263238" stroke-linecap="round" stroke-linejoin="round" stroke-width=".62" d="M333.548 181.699C333.548 181.699 329.93 184.595 330.112 188.211"/><path stroke="#263238" stroke-linecap="round" stroke-linejoin="round" stroke-width=".62" d="M339.515 166.324H334.512"/><path stroke="#263238" stroke-linecap="round" stroke-linejoin="round" stroke-width=".62" d="M340.773 172.579H335.77"/><path stroke="#263238" stroke-linecap="round" stroke-linejoin="round" stroke-width=".62" d="M304.492 218.831C310.438 220.45 316.501 221.602 322.627 222.274L332.01 223.208"/><path stroke="#263238" stroke-linecap="round" stroke-linejoin="round" stroke-width=".62" d="M335.77 223.209L344.359 222.328"/><path stroke="#263238" stroke-linecap="round" stroke-linejoin="round" stroke-width=".62" d="M342.02 198.199L344.521 216.02"/><path stroke="#263238" stroke-linecap="round" stroke-linejoin="round" stroke-width=".62" d="M319.191 154.136C319.191 154.136 321.07 146.626 323.572 144.137"/><path stroke="#263238" stroke-linecap="round" stroke-linejoin="round" stroke-width=".62" d="M325.761 146.315L322.938 149.448"/><path fill="#92E3A9" d="M438.919 106.565H395.876C393.474 106.565 391.527 108.511 391.527 110.911V128.312C391.527 130.712 393.474 132.658 395.876 132.658H438.919C441.321 132.658 443.268 130.712 443.268 128.312V110.911C443.268 108.511 441.321 106.565 438.919 106.565Z"/><path fill="#92E3A9" d="M391.527 125.834V139.846L399.354 130.856"/><path fill="#fff" d="M409.564 120.095C409.566 119.563 409.41 119.043 409.116 118.601C408.822 118.158 408.403 117.812 407.912 117.608C407.421 117.404 406.88 117.35 406.358 117.453C405.837 117.556 405.358 117.812 404.982 118.187C404.605 118.563 404.35 119.042 404.246 119.563C404.143 120.085 404.197 120.625 404.402 121.115C404.606 121.606 404.952 122.025 405.395 122.319C405.838 122.613 406.358 122.768 406.89 122.766C407.598 122.763 408.277 122.481 408.778 121.981C409.278 121.48 409.561 120.802 409.564 120.095Z"/><path fill="#fff" d="M421.052 120.095C421.054 119.563 420.898 119.043 420.604 118.601C420.31 118.158 419.891 117.812 419.4 117.608C418.909 117.404 418.368 117.35 417.847 117.453C417.325 117.556 416.846 117.812 416.47 118.187C416.094 118.563 415.838 119.042 415.735 119.563C415.631 120.085 415.685 120.625 415.89 121.115C416.094 121.606 416.44 122.025 416.883 122.319C417.326 122.613 417.847 122.768 418.379 122.766C419.087 122.763 419.765 122.481 420.266 121.981C420.767 121.48 421.049 120.802 421.052 120.095Z"/><path fill="#fff" d="M432.54 120.095C432.542 119.564 432.387 119.044 432.093 118.602C431.799 118.159 431.381 117.814 430.891 117.609C430.4 117.404 429.86 117.35 429.339 117.452C428.818 117.554 428.338 117.809 427.962 118.184C427.585 118.558 427.329 119.036 427.224 119.557C427.12 120.077 427.172 120.617 427.375 121.108C427.578 121.599 427.922 122.018 428.364 122.313C428.805 122.609 429.325 122.766 429.856 122.766C430.566 122.766 431.247 122.485 431.75 121.984C432.253 121.484 432.537 120.804 432.54 120.095Z"/><path stroke="#263238" stroke-linecap="round" stroke-linejoin="round" stroke-width=".62" d="M310.742 177.268L317.088 180.594"/><path stroke="#263238" stroke-linecap="round" stroke-linejoin="round" stroke-width=".62" d="M309.496 183.824C309.496 183.824 315.433 184.135 317.624 182.578"/><path stroke="#92E3A9" stroke-linecap="round" stroke-linejoin="round" stroke-width=".62" d="M322.937 284.468C322.937 284.468 311.052 282.902 314.187 284.779C316.663 286.119 319.286 287.167 322.003 287.902H314.81" opacity=".59"/><path fill="#fff" stroke="#263238" stroke-linecap="round" stroke-linejoin="round" stroke-width=".827" d="M212.19 247.176C212.19 247.176 208.969 287.215 207.67 290.241C206.371 293.266 185.123 338.155 185.123 338.155L181.043 335.87L196.311 280.682L193.422 218.97L212.19 247.176Z"/><path fill="#fff" stroke="#263238" stroke-linecap="round" stroke-linejoin="round" stroke-width=".827" d="M218.664 210.376C218.664 210.376 224.72 242.916 225.987 252.497C227.254 262.078 226.298 342.253 226.298 342.253L221.628 342.929L207.81 254.01C207.81 254.01 199.585 234.548 195.409 229.709C190.566 224.109 188.129 217.425 190.942 211.889C192.778 208.177 218.664 210.376 218.664 210.376Z"/><path fill="#92E3A9" stroke="#263238" stroke-linecap="round" stroke-linejoin="round" stroke-width=".827" d="M190.469 326.879C196.912 313.372 206.822 292.279 207.648 290.241C208.915 287.215 212.168 247.176 212.168 247.176L193.401 218.949L196.31 280.682L184.199 324.487L190.469 326.879Z"/><path fill="#92E3A9" stroke="#263238" stroke-linecap="round" stroke-linejoin="round" stroke-width=".827" d="M226.416 330.334C226.652 307.803 226.942 259.76 225.987 252.497C224.72 242.916 218.664 210.376 218.664 210.376C218.664 210.376 192.778 208.177 190.899 211.889C188.086 217.425 190.523 224.109 195.366 229.709C199.585 234.591 207.809 254.01 207.809 254.01L219.91 330.741C222.087 330.944 224.282 330.807 226.416 330.334Z"/><path fill="#92E3A9" d="M203.397 213.917C203.397 213.917 201.142 216.17 202.646 217.425C204.149 218.681 210.161 216.921 208.411 218.176C206.661 219.432 199.886 223.691 203.644 223.197C207.402 222.704 211.933 222.189 210.172 223.948C208.411 225.708 207.66 225.697 208.916 228.454C210.172 231.212 211.933 236.984 211.933 236.984"/><path stroke="#263238" stroke-linecap="round" stroke-linejoin="round" stroke-width=".62" d="M203.397 213.917C203.397 213.917 201.142 216.17 202.646 217.425C204.149 218.681 210.161 216.921 208.411 218.176C206.661 219.432 199.886 223.691 203.644 223.197C207.402 222.704 211.933 222.189 210.172 223.948C208.411 225.708 207.66 225.697 208.916 228.454C210.172 231.212 211.933 236.984 211.933 236.984"/><path stroke="#263238" stroke-linecap="round" stroke-linejoin="round" stroke-width=".62" d="M212.684 239.237L214.938 245.513"/><path fill="#92E3A9" d="M205.405 264.814C205.405 264.814 204.407 281.368 203.644 283.879C202.882 286.389 199.135 283.375 200.638 285.381C202.141 287.387 203.859 288.138 203.151 288.385C202.442 288.632 200.133 288.138 200.133 289.136C200.133 290.134 197.621 298.169 197.621 298.169"/><path stroke="#263238" stroke-linecap="round" stroke-linejoin="round" stroke-width=".62" d="M205.405 264.814C205.405 264.814 204.407 281.368 203.644 283.879C202.882 286.389 199.135 283.375 200.638 285.381C202.141 287.387 203.859 288.138 203.151 288.385C202.442 288.632 200.133 288.138 200.133 289.136C200.133 290.134 197.621 298.169 197.621 298.169"/><path fill="#fff" d="M226.299 342.253C226.299 342.253 238.926 345.472 238.518 346.727C238.11 347.983 223.937 350.193 222.95 350.064C221.962 349.935 221.629 342.929 221.629 342.929L226.299 342.253Z"/><g style="mix-blend-mode:multiply"><path fill="#92E3A9" d="M223.055 350.171C224.043 350.3 238.216 348.026 238.624 346.835C238.709 346.577 238.205 346.223 237.346 345.826L222.25 347.854C222.4 349.109 222.679 350.128 223.055 350.171Z"/></g><path stroke="#263238" stroke-miterlimit="10" stroke-width=".827" d="M226.299 342.253C226.299 342.253 238.926 345.472 238.518 346.727C238.11 347.983 223.937 350.193 222.95 350.064C221.962 349.935 221.629 342.929 221.629 342.929L226.299 342.253Z"/><path fill="#fff" d="M185.134 338.155C185.763 339.139 186.517 340.037 187.378 340.826C188.376 341.577 192.134 343.079 192.134 344.045C192.134 345.01 184.619 345.547 183.115 345.3C181.612 345.053 179.894 342.081 178.359 341.009C176.824 339.936 181.054 335.805 181.054 335.805C182.37 336.662 183.732 337.447 185.134 338.155Z"/><g style="mix-blend-mode:multiply"><path fill="#92E3A9" d="M192.187 344.077C192.187 343.83 191.962 343.551 191.597 343.262C189.203 343.498 185.992 343.702 184.639 343.262C183.287 342.822 180.345 340.515 178.584 338.97C178.079 339.839 177.854 340.644 178.412 341.019C179.915 342.017 181.633 345.021 183.169 345.311C184.704 345.601 192.187 345.053 192.187 344.077Z"/></g><path stroke="#263238" stroke-linecap="round" stroke-linejoin="round" stroke-width=".827" d="M185.134 338.155C185.763 339.139 186.517 340.037 187.378 340.826C188.376 341.577 192.134 343.079 192.134 344.045C192.134 345.01 184.619 345.547 183.115 345.3C181.612 345.053 179.894 342.081 178.359 341.009C176.824 339.936 181.054 335.805 181.054 335.805C182.37 336.662 183.732 337.447 185.134 338.155V338.155Z"/><path stroke="#263238" stroke-linecap="round" stroke-linejoin="round" stroke-width=".62" d="M255.848 155.242C255.848 155.242 259.606 153.987 260.142 152.731C260.539 151.33 260.791 149.892 260.894 148.44C260.894 148.44 256.095 153.482 255.848 155.242Z"/><path fill="#fff" stroke="#263238" stroke-linecap="round" stroke-linejoin="round" stroke-width=".827" d="M248.202 147.56C248.202 147.56 244.165 154.126 244.165 154.877C244.165 155.628 225.73 171.785 225.73 171.785C225.73 171.785 221.435 174.307 220.684 175.819C219.932 177.332 220.179 186.666 221.189 186.913C222.198 187.16 245.679 158.407 246.957 157.945C248.234 157.484 252.508 155.928 252.508 155.928L256.555 150.886L248.202 147.56Z"/><path fill="#263238" d="M260.228 141.369L262.289 142.271C262.564 142.39 262.807 142.571 263.001 142.799C263.194 143.028 263.333 143.297 263.405 143.588C263.478 143.878 263.483 144.181 263.42 144.474C263.356 144.766 263.227 145.04 263.041 145.275L253.957 156.872C253.801 157.07 253.606 157.235 253.385 157.355C253.163 157.475 252.919 157.549 252.668 157.572C252.417 157.595 252.164 157.567 251.924 157.489C251.684 157.411 251.463 157.285 251.273 157.119L249.727 155.757C249.381 155.449 249.163 155.022 249.115 154.562C249.068 154.101 249.194 153.64 249.469 153.268L257.876 142.002C258.14 141.648 258.515 141.393 258.942 141.278C259.369 141.163 259.822 141.195 260.228 141.369Z"/><path fill="#fff" stroke="#263238" stroke-linecap="round" stroke-linejoin="round" stroke-width=".827" d="M250.469 145.5C250.469 145.5 254.516 149.792 254.259 150.8C254.001 151.809 252.745 152.57 251.983 151.809C251.22 151.047 248.45 148.783 248.203 147.517C248.121 147.213 248.125 146.893 248.215 146.591C248.305 146.289 248.477 146.019 248.712 145.809C248.948 145.6 249.236 145.46 249.547 145.406C249.857 145.351 250.176 145.384 250.469 145.5Z"/><path fill="#fff" d="M225.472 161.69C223.7 157.151 220.93 141.509 220.93 141.509C218.901 137.979 213.855 132.679 211.589 131.928C209.324 131.177 211.085 131.928 208.809 133.441C206.532 134.954 201.239 144.03 197.449 156.647C196.225 160.724 194.754 166.99 193.337 173.663C191.265 180.394 189.902 187.323 189.268 194.337C188.248 199.991 187.582 204.143 187.582 204.883C187.627 205.297 187.78 205.692 188.025 206.029C188.27 206.365 188.598 206.633 188.978 206.804C188.978 214.968 189.085 218.68 189.085 218.68C189.085 218.68 195.108 213.917 198.115 212.662C200.864 211.682 203.807 211.375 206.699 211.767C209.591 212.159 212.347 213.239 214.735 214.915C219.32 217.972 223.013 220.687 223.518 219.431C224.023 218.176 222.874 213.809 222.015 210.151C221.006 205.86 219.245 193.35 219.245 193.35C219.245 190.324 222.466 175.111 224.012 172.794C225.116 171.19 225.824 169.347 226.078 167.417C226.332 165.487 226.124 163.524 225.472 161.69Z"/><g style="mix-blend-mode:multiply" opacity=".5"><path fill="#92E3A9" d="M200.145 187.685L191.448 203.607C191.448 203.607 199.136 179.864 199.855 170.605C200.574 161.346 209.411 146.283 211.73 142.528C214.049 138.773 214.629 137.604 214.629 137.604L217.098 136.467C215.08 134.257 212.89 132.358 211.601 131.928C209.325 131.167 211.096 131.928 208.82 133.441C206.544 134.954 201.251 144.03 197.461 156.647C196.237 160.724 194.766 166.99 193.349 173.663C191.277 180.394 189.913 187.323 189.279 194.337C188.259 199.991 187.594 204.143 187.594 204.883C187.639 205.297 187.792 205.692 188.037 206.029C188.281 206.366 188.61 206.633 188.99 206.804C188.99 214.968 189.097 218.681 189.097 218.681C191.59 216.701 194.208 214.884 196.935 213.241C196.805 212.512 196.618 211.795 196.376 211.095C196.005 209.85 195.89 208.542 196.04 207.251C196.189 205.96 196.6 204.713 197.246 203.585C199.794 200.37 202.602 197.37 205.642 194.616C208.251 192.299 197.826 192.878 200.145 191.397C202.464 189.917 212.6 185.025 214.339 183.287C216.078 181.549 200.145 187.685 200.145 187.685Z"/></g><path stroke="#263238" stroke-linecap="round" stroke-linejoin="round" stroke-width=".827" d="M225.472 161.69C223.7 157.151 220.93 141.509 220.93 141.509C218.901 137.979 213.855 132.679 211.589 131.928C209.324 131.177 211.085 131.928 208.809 133.441C206.532 134.954 201.239 144.03 197.449 156.647C196.225 160.724 194.754 166.99 193.337 173.663C191.265 180.394 189.902 187.323 189.268 194.337C188.248 199.991 187.582 204.143 187.582 204.883C187.627 205.297 187.78 205.692 188.025 206.029C188.27 206.365 188.598 206.633 188.978 206.804C188.978 214.968 189.085 218.68 189.085 218.68C189.085 218.68 195.108 213.917 198.115 212.662C200.864 211.682 203.807 211.375 206.699 211.767C209.591 212.159 212.347 213.239 214.735 214.915C219.32 217.972 223.013 220.687 223.518 219.431C224.023 218.176 222.874 213.809 222.015 210.151C221.006 205.86 219.245 193.35 219.245 193.35C219.245 190.324 222.466 175.111 224.012 172.794C225.116 171.19 225.824 169.347 226.078 167.417C226.332 165.487 226.124 163.524 225.472 161.69V161.69Z"/><path stroke="#263238" stroke-linecap="round" stroke-linejoin="round" stroke-width=".62" d="M217.699 153.482C217.699 153.482 217.699 156.24 218.708 156.701C219.718 157.162 222.219 156.454 221.715 158.461C221.21 160.467 220.963 161.969 221.972 162.752C222.729 163.252 223.581 163.592 224.474 163.75"/><g style="mix-blend-mode:multiply" opacity=".5"><g style="mix-blend-mode:multiply" opacity=".5"><path fill="#92E3A9" d="M206.426 172.043C206.426 172.043 214.049 172.569 216.175 171.689C218.301 170.809 212.095 163.181 212.095 163.181L206.426 172.043Z"/></g></g><path fill="#fff" d="M216.884 118.346C218.408 123.796 215.176 131.22 212.095 132.798C211.139 133.27 214.339 137.765 216.798 140.748L218.945 144.46L219.954 149.47L221.457 149.223C221.457 149.223 220.148 143.859 220.931 141.509C221.715 139.16 222.252 137.99 222.252 137.99C223.462 135.704 225.332 133.835 227.62 132.626C228.018 127.959 216.229 116.093 216.884 118.346Z"/><g style="mix-blend-mode:multiply" opacity=".5"><path fill="#92E3A9" d="M224.401 134.965L217.1 136.467L214.63 137.604L211.57 134.643L218.13 128.259L224.401 134.965Z"/></g><path stroke="#263238" stroke-linecap="round" stroke-linejoin="round" stroke-width=".827" d="M216.884 118.346C218.408 123.796 215.176 131.22 212.095 132.798C211.139 133.27 214.339 137.765 216.798 140.748L218.945 144.46L219.954 149.47L221.457 149.223C221.457 149.223 220.148 143.859 220.931 141.509C221.715 139.16 222.252 137.99 222.252 137.99C223.462 135.704 225.332 133.835 227.62 132.626C228.018 127.959 216.229 116.093 216.884 118.346Z"/><path fill="#fff" d="M233.58 101.63C237.145 103.422 241.031 106.405 241.031 110.728C241.031 118.238 237.961 121.275 237.961 123.174C237.961 125.073 240.484 127.583 239.539 128.538C238.594 129.493 236.382 129.16 236.382 129.16C234.881 131.904 233.195 134.542 231.336 137.057C229.436 139.267 225.968 136.102 222.178 133.269C218.388 130.437 216.487 127.905 216.487 122.541C216.487 117.176 213.835 113.228 216.165 108.014C216.864 106.431 217.875 105.005 219.138 103.822C220.401 102.638 221.89 101.721 223.515 101.125C225.141 100.529 226.87 100.267 228.599 100.354C230.329 100.44 232.023 100.875 233.58 101.63Z"/><g style="mix-blend-mode:multiply" opacity=".5"><path fill="#92E3A9" d="M233.58 101.63C232.023 100.875 230.329 100.44 228.599 100.354C226.87 100.267 225.141 100.529 223.515 101.125C221.89 101.721 220.401 102.638 219.138 103.822C217.875 105.005 216.864 106.431 216.165 108.014C213.835 113.228 216.487 117.187 216.487 122.541C216.487 127.894 218.388 130.426 222.178 133.269L224.4 134.964C221.179 132.905 222.156 126.317 222.156 124.236C222.156 122.154 225.635 121.629 228.534 120.47C230.746 119.58 237.51 116.683 240.581 115.352C240.887 113.812 241.038 112.245 241.031 110.675C241.031 106.405 237.145 103.422 233.58 101.63Z"/></g><path stroke="#263238" stroke-linecap="round" stroke-linejoin="round" stroke-width=".827" d="M233.58 101.63C237.145 103.422 241.031 106.405 241.031 110.728C241.031 118.238 237.961 121.275 237.961 123.174C237.961 125.073 240.484 127.583 239.539 128.538C238.594 129.493 236.382 129.16 236.382 129.16C234.881 131.904 233.195 134.542 231.336 137.057C229.436 139.267 225.968 136.102 222.178 133.269C218.388 130.437 216.487 127.905 216.487 122.541C216.487 117.176 213.835 113.228 216.165 108.014C216.864 106.431 217.875 105.005 219.138 103.822C220.401 102.638 221.89 101.721 223.515 101.125C225.141 100.529 226.87 100.267 228.599 100.354C230.329 100.44 232.023 100.875 233.58 101.63V101.63Z"/><path fill="#fff" d="M232.505 132.164C232.505 132.164 230.251 131.671 229.746 130.416L232.505 132.164Z"/><path stroke="#263238" stroke-linecap="round" stroke-linejoin="round" stroke-width=".827" d="M232.505 132.164C232.505 132.164 230.251 131.671 229.746 130.416"/><path fill="#fff" d="M235.768 122.391L235.016 123.647C234.608 123.715 234.189 123.683 233.796 123.552C233.402 123.421 233.047 123.195 232.762 122.895"/><path stroke="#263238" stroke-linecap="round" stroke-linejoin="round" stroke-width=".827" d="M235.768 122.391L235.016 123.647C234.608 123.715 234.189 123.683 233.796 123.552C233.402 123.421 233.047 123.195 232.762 122.895"/><path fill="#fff" d="M232.504 120.139C232.504 120.139 235.016 117.873 236.519 118.883L232.504 120.139Z"/><path stroke="#263238" stroke-linecap="round" stroke-linejoin="round" stroke-width=".827" d="M232.504 120.139C232.504 120.139 235.016 117.873 236.519 118.883"/><path stroke="#263238" stroke-linecap="round" stroke-linejoin="round" stroke-width=".827" d="M152.207 261.059L175.291 235.224L179.307 263.569"/><path fill="#92E3A9" stroke="#263238" stroke-linecap="round" stroke-linejoin="round" stroke-width=".827" d="M183.578 263.816L146.429 260.555L133.137 301.431L190.6 307.192L183.578 263.816Z"/><path stroke="#263238" stroke-linecap="round" stroke-linejoin="round" stroke-width=".827" d="M175.042 233.218L161.492 263.816"/><path stroke="#263238" stroke-linecap="round" stroke-linejoin="round" stroke-width=".827" d="M176.805 236.232L182.57 266.326"/><path fill="#263238" d="M187.336 267.078L154.46 263.312L142.918 308.201L190.976 312.471L187.336 267.078Z"/><path fill="#263238" d="M251.326 118.678C249.823 110.16 241.792 101.384 241.792 101.384C240.09 99.5393 237.942 98.1647 235.553 97.3926C229.026 95.1289 219.996 94.8821 212.716 100.901C205.437 106.92 204.127 119.204 201.668 125.727C199.21 132.25 197.653 136.509 198.157 138.762C198.662 141.015 205.673 137.26 206.94 137.507C208.207 137.754 207.198 139.267 209.452 139.267C211.707 139.267 214.724 135.254 215.98 135.254C217.237 135.254 221.156 135.694 222.208 133.344C223.26 130.995 217.484 123.217 219.491 119.708C219.491 119.708 220.748 120.213 229.53 117.702C233.473 116.681 237.295 115.242 240.933 113.411C240.353 119.118 237.991 121.618 237.991 123.281C237.991 125.169 240.514 127.69 239.569 128.645C238.624 129.6 236.412 129.268 236.412 129.268C234.911 132.011 233.225 134.649 231.366 137.164C229.842 138.923 227.318 137.26 224.43 135.072C223.532 135.926 222.804 136.941 222.283 138.065C222.283 138.065 221.993 138.741 221.521 140.028C222.222 141.109 223.277 141.913 224.505 142.303C227.265 142.807 228.8 141.305 230.024 140.554C231.248 139.803 233.793 141.048 236.305 140.554C238.817 140.061 238.313 137.797 239.311 136.542C240.31 135.286 242.071 138.548 244.078 136.542C246.086 134.535 252.829 127.154 251.326 118.678Z"/><path stroke="#fff" stroke-linecap="round" stroke-linejoin="round" stroke-width=".62" d="M240.848 102.5C242.125 104.302 246.495 108.154 244.96 110.01C243.868 111.188 242.559 112.146 241.105 112.831"/><path stroke="#fff" stroke-linecap="round" stroke-linejoin="round" stroke-width=".62" d="M239.559 107.639C239.559 107.639 229.274 114.838 223.873 115.599C218.472 116.361 212.062 114.323 212.062 114.323"/><path stroke="#fff" stroke-linecap="round" stroke-linejoin="round" stroke-width=".62" d="M236.478 100.439C234.059 104.053 230.906 107.116 227.223 109.43C223.915 111.54 220.088 112.695 216.164 112.767"/><path fill="#fff" d="M221.469 121.135C221.469 121.135 219.709 115.117 217.959 115.868C216.208 116.619 215.951 119.633 216.702 122.144C217.454 124.654 219.204 124.397 220.213 123.646"/><path stroke="#263238" stroke-linecap="round" stroke-linejoin="round" stroke-width=".827" d="M221.469 121.135C221.469 121.135 219.709 115.117 217.959 115.868C216.208 116.619 215.951 119.633 216.702 122.144C217.454 124.654 219.204 124.397 220.213 123.646"/><g style="mix-blend-mode:multiply"><path fill="#fff" d="M221.469 121.135C221.469 121.135 219.709 115.117 217.959 115.868C216.208 116.619 215.951 119.633 216.702 122.144C217.454 124.654 219.204 124.397 220.213 123.646"/></g><g style="mix-blend-mode:multiply" opacity=".44"><g style="mix-blend-mode:multiply" opacity=".44"><path fill="#92E3A9" d="M221.531 121.135C221.531 121.135 219.78 115.117 218.02 115.868C216.259 116.619 216.012 119.633 216.763 122.144C217.515 124.654 219.276 124.397 220.274 123.646"/></g></g><path fill="#fff" d="M215.113 143.548C212.461 141.305 208.317 142.249 206.524 146.959C203.518 154.641 200.511 162.344 197.43 170.037C194.424 177.547 182.399 214.421 181.325 217.178C180.251 219.936 178.104 226.952 178.104 226.952C178.104 226.952 173.09 230.718 173.09 231.469C173.09 232.22 174.346 234.977 175.345 235.224C176.874 235.291 178.383 234.854 179.639 233.98C180.638 233.218 181.142 231.716 182.399 227.961C182.399 227.961 189.914 207.898 194.939 201.633C199.964 195.367 203.979 179.102 204.978 177.3C208.325 171.974 211.344 166.449 214.018 160.756C215.693 157.055 217.959 152.613 217.497 148.408C217.335 146.548 216.485 144.815 215.113 143.548Z"/><g style="mix-blend-mode:multiply" opacity=".5"><path fill="#92E3A9" d="M216.195 144.824C215.905 144.346 215.543 143.915 215.121 143.548C212.469 141.305 208.325 142.249 206.532 146.959C203.526 154.641 200.519 162.344 197.438 170.037C194.432 177.547 182.406 214.421 181.333 217.178C180.259 219.936 178.112 226.952 178.112 226.952C178.112 226.952 173.098 230.718 173.098 231.469C173.25 232.3 173.56 233.093 174.01 233.808C174.612 233.339 175.057 232.7 175.288 231.973C175.47 230.729 179.346 228.218 180.216 226.191C181.086 224.163 195.86 189.423 196.439 185.947C197.019 182.471 205.415 156.422 208.024 151.787C210.633 147.152 216.431 145.704 216.431 145.704L216.195 144.824Z"/></g><path stroke="#263238" stroke-linecap="round" stroke-linejoin="round" stroke-width=".827" d="M215.113 143.548C212.461 141.305 208.317 142.249 206.524 146.959C203.518 154.641 200.511 162.344 197.43 170.037C194.424 177.547 182.399 214.421 181.325 217.178C180.251 219.936 178.104 226.952 178.104 226.952C178.104 226.952 173.09 230.718 173.09 231.469C173.09 232.22 174.346 234.977 175.345 235.224C176.874 235.291 178.383 234.854 179.639 233.98C180.638 233.218 181.142 231.716 182.399 227.961C182.399 227.961 189.914 207.898 194.939 201.633C199.964 195.367 203.979 179.102 204.978 177.3C208.325 171.974 211.344 166.449 214.018 160.756C215.693 157.055 217.959 152.613 217.497 148.408C217.335 146.548 216.485 144.815 215.113 143.548V143.548Z"/><path fill="#fff" d="M178.552 231.212C177.762 232.177 176.923 233.101 176.039 233.98C175.07 235.114 174.461 236.511 174.289 237.992C174.289 237.992 174.794 239.494 175.545 238.743C176.297 237.992 178.047 235.729 178.047 235.729C179.097 235.381 179.988 234.669 180.559 233.722C181.816 231.973 182.32 227.961 182.32 227.961"/><path stroke="#263238" stroke-linecap="round" stroke-linejoin="round" stroke-width=".827" d="M178.552 231.212C177.762 232.177 176.923 233.101 176.039 233.98C175.07 235.114 174.461 236.511 174.289 237.992C174.289 237.992 174.794 239.494 175.545 238.743C176.297 237.992 178.047 235.729 178.047 235.729C179.097 235.381 179.988 234.669 180.559 233.722C181.816 231.973 182.32 227.961 182.32 227.961"/><path fill="#92E3A9" d="M224.398 134.965L224.527 135.061C224.645 135.126 224.613 135.094 224.398 134.965Z"/><path stroke="#263238" stroke-linecap="round" stroke-linejoin="round" stroke-width=".62" d="M202.809 185.668C202.809 185.668 212.472 182.782 216.176 179.381"/><path stroke="#263238" stroke-linecap="round" stroke-linejoin="round" stroke-width=".62" d="M203.324 188.555L208.306 187.235"/><path fill="#92E3A9" d="M307.232 106.566H264.188C261.787 106.566 259.84 108.511 259.84 110.911V128.313C259.84 130.713 261.787 132.658 264.188 132.658H307.232C309.633 132.658 311.58 130.713 311.58 128.313V110.911C311.58 108.511 309.633 106.566 307.232 106.566Z"/><path fill="#92E3A9" d="M259.84 125.834V139.846L267.656 130.856"/><path fill="#fff" d="M277.88 120.095C277.882 119.564 277.727 119.044 277.433 118.602C277.139 118.159 276.721 117.814 276.231 117.609C275.74 117.404 275.2 117.35 274.679 117.452C274.157 117.554 273.678 117.809 273.302 118.184C272.925 118.558 272.669 119.036 272.564 119.557C272.46 120.077 272.512 120.617 272.715 121.108C272.918 121.599 273.262 122.018 273.704 122.313C274.145 122.609 274.665 122.766 275.196 122.766C275.906 122.766 276.587 122.485 277.09 121.984C277.593 121.484 277.877 120.804 277.88 120.095Z"/><path fill="#fff" d="M289.368 120.095C289.37 119.564 289.215 119.044 288.921 118.602C288.628 118.159 288.209 117.814 287.719 117.609C287.229 117.404 286.689 117.35 286.167 117.452C285.646 117.554 285.166 117.809 284.79 118.184C284.413 118.558 284.157 119.036 284.052 119.557C283.948 120.077 284 120.617 284.203 121.108C284.406 121.599 284.75 122.018 285.192 122.313C285.633 122.609 286.153 122.766 286.684 122.766C287.394 122.766 288.075 122.485 288.578 121.984C289.081 121.484 289.366 120.804 289.368 120.095Z"/><path fill="#fff" d="M300.857 120.095C300.859 119.564 300.703 119.044 300.41 118.602C300.116 118.159 299.697 117.814 299.207 117.609C298.717 117.404 298.177 117.35 297.655 117.452C297.134 117.554 296.655 117.809 296.278 118.184C295.902 118.558 295.645 119.036 295.541 119.557C295.436 120.077 295.489 120.617 295.692 121.108C295.894 121.599 296.238 122.018 296.68 122.313C297.122 122.609 297.641 122.766 298.172 122.766C298.882 122.766 299.564 122.485 300.067 121.984C300.57 121.484 300.854 120.804 300.857 120.095Z"/><path fill="#263238" d="M80.7821 236.276L80.4922 235.911C80.5579 236.054 80.6574 236.179 80.7821 236.276Z"/><path fill="#fff" d="M71.2998 346.802C71.2998 346.802 57.9648 348.519 58.2224 349.806C58.4801 351.094 72.6848 355.224 73.7156 355.224C74.7463 355.224 75.981 348.1 75.981 348.1L71.2998 346.802Z"/><g style="mix-blend-mode:multiply"><path fill="#92E3A9" d="M74.5742 353.916L59.8326 348.884C58.759 349.195 58.1684 349.517 58.2221 349.806C58.4798 351.094 72.6845 355.224 73.7152 355.224C74.0051 355.224 74.295 354.709 74.5742 353.916Z"/></g><path stroke="#263238" stroke-miterlimit="10" stroke-width=".827" d="M71.2998 346.802C71.2998 346.802 57.9648 348.519 58.2224 349.806C58.4801 351.094 72.6848 355.224 73.7156 355.224C74.7463 355.224 75.981 348.1 75.981 348.1L71.2998 346.802Z"/><path fill="#fff" d="M124.071 343.98C123.424 344.993 122.648 345.916 121.762 346.727C120.688 347.499 116.855 349.044 116.855 350.085C116.855 351.126 124.597 351.63 126.153 351.373C127.71 351.115 129.503 348.014 131.06 346.984C132.617 345.955 128.279 341.62 128.279 341.62C126.921 342.484 125.516 343.272 124.071 343.98Z"/><g style="mix-blend-mode:multiply"><path fill="#92E3A9" d="M131.06 346.963C131.586 346.609 131.415 345.891 130.974 345.021C129.304 346.631 127.477 348.068 125.52 349.313C123.652 350.171 117.639 349.173 117.639 349.173H117.521C117.113 349.485 116.855 349.796 116.855 350.064C116.855 351.137 124.597 351.609 126.153 351.351C127.71 351.094 129.503 347.993 131.06 346.963Z"/></g><path stroke="#263238" stroke-linecap="round" stroke-linejoin="round" stroke-width=".827" d="M124.071 343.98C123.424 344.993 122.648 345.916 121.762 346.727C120.688 347.499 116.855 349.044 116.855 350.085C116.855 351.126 124.597 351.63 126.153 351.373C127.71 351.115 129.503 348.014 131.06 346.984C132.617 345.955 128.279 341.62 128.279 341.62C126.921 342.484 125.516 343.272 124.071 343.98V343.98Z"/><path fill="#92E3A9" stroke="#263238" stroke-linecap="round" stroke-linejoin="round" stroke-width=".827" d="M96.1875 250.18C96.1875 250.18 99.5374 291.41 100.837 294.629C102.136 297.847 124.071 343.981 124.071 343.981L128.28 341.62L112.55 284.758L115.535 221.159L96.1875 250.18Z"/><path fill="#000" d="M96.1875 250.18C96.1875 250.18 99.5374 291.41 100.837 294.629C102.136 297.847 124.071 343.981 124.071 343.981L128.28 341.62L112.55 284.758L115.535 221.159L96.1875 250.18Z" opacity=".2"/><path fill="#92E3A9" stroke="#263238" stroke-linecap="round" stroke-linejoin="round" stroke-width=".827" d="M89.5093 212.254C89.5093 212.254 83.2713 245.792 81.9936 255.673C80.7159 265.554 71.332 346.802 71.332 346.802L76.0133 348.1L100.708 257.229C100.708 257.229 109.297 237.992 112.679 232.274C116.061 226.555 119.175 217.972 118.101 213.81C117.028 209.647 89.5093 212.254 89.5093 212.254Z"/><path fill="#000" d="M89.5093 212.254C89.5093 212.254 83.2713 245.792 81.9936 255.673C80.7159 265.554 71.332 346.802 71.332 346.802L76.0133 348.1L100.708 257.229C100.708 257.229 109.297 237.992 112.679 232.274C116.061 226.555 119.175 217.972 118.101 213.81C117.028 209.647 89.5093 212.254 89.5093 212.254Z" opacity=".1"/><path stroke="#263238" stroke-linecap="round" stroke-linejoin="round" stroke-width=".62" d="M102.416 219.228C98.9017 226.96 96.1125 235.002 94.0846 243.249C91.2608 255.619 86.9661 272.098 86.9661 275.607C86.9661 279.115 87.2023 283.932 86.0106 285.842C84.8188 287.752 82.6714 288.224 82.4352 292.74C82.199 297.257 84.0994 303.684 81.2434 311.054C78.3875 318.425 76.7233 321.998 76.7233 326.997C76.7233 331.997 74.082 346.513 74.082 346.513"/><path stroke="#263238" stroke-linecap="round" stroke-linejoin="round" stroke-width=".62" d="M101.996 258.237V276.561C101.996 288.46 107.472 285.144 106.989 286.55C106.506 287.955 103.66 291.313 104.616 292.504C105.571 293.695 106.989 292.976 106.989 294.65C106.989 296.324 118.842 324.669 118.842 324.669"/><path stroke="#263238" stroke-linecap="round" stroke-linejoin="round" stroke-width=".62" d="M120.035 327.233L121.936 332.468"/><path fill="#fff" stroke="#263238" stroke-linecap="round" stroke-linejoin="round" stroke-width=".827" d="M46.575 147.646C46.3081 148.781 46.2176 149.949 46.3065 151.111C46.575 152.184 51.1059 153.772 51.1059 153.772L46.575 147.646Z"/><path fill="#fff" stroke="#263238" stroke-linecap="round" stroke-linejoin="round" stroke-width=".827" d="M59.0503 147.517C59.0503 147.517 63.2162 154.276 63.2162 155.027C63.2162 155.778 82.2095 172.44 82.2095 172.44C82.2095 172.44 86.633 175.047 87.4061 176.603C88.1791 178.158 87.9322 187.782 86.8907 188.039C85.8493 188.297 61.6701 158.696 60.371 158.181C59.0718 157.666 54.6483 156.1 54.6483 156.1L50.4609 150.864L59.0503 147.517Z"/><path fill="#fff" d="M87.4259 176.613C86.4902 175.387 85.323 174.355 83.9902 173.577C83.5412 175.283 82.8583 176.918 81.9609 178.437C81.4213 179.288 80.7755 180.067 80.0391 180.755C83.7325 185.046 86.567 188.136 86.9106 188.05C87.952 187.814 88.2097 178.201 87.4259 176.613Z"/><g style="mix-blend-mode:multiply" opacity=".5"><path fill="#92E3A9" d="M87.4259 176.613C86.4902 175.387 85.323 174.355 83.9902 173.577C83.5412 175.283 82.8583 176.918 81.9609 178.437C81.4213 179.288 80.7755 180.067 80.0391 180.755C83.7325 185.046 86.567 188.136 86.9106 188.05C87.952 187.814 88.2097 178.201 87.4259 176.613Z"/></g><path stroke="#263238" stroke-linecap="round" stroke-linejoin="round" stroke-width=".827" d="M87.4259 176.613C86.4902 175.387 85.323 174.355 83.9902 173.577C83.5412 175.283 82.8583 176.918 81.9609 178.437C81.4213 179.288 80.7755 180.067 80.0391 180.755C83.7325 185.046 86.567 188.136 86.9106 188.05C87.952 187.814 88.2097 178.201 87.4259 176.613Z"/><path fill="#263238" d="M46.6813 141.134L44.5339 142.056C44.25 142.179 43.9981 142.365 43.7977 142.6C43.5973 142.836 43.4536 143.114 43.3779 143.414C43.3021 143.713 43.2963 144.026 43.3609 144.329C43.4254 144.631 43.5586 144.914 43.7501 145.157L53.1233 157.109C53.2835 157.313 53.4838 157.482 53.7119 157.606C53.94 157.73 54.191 157.805 54.4496 157.828C54.7081 157.852 54.9687 157.822 55.2151 157.74C55.4616 157.659 55.6888 157.528 55.8827 157.355L57.4717 155.961C57.8297 155.642 58.0557 155.202 58.1054 154.725C58.155 154.249 58.0248 153.771 57.7401 153.386L49.0756 141.777C48.8062 141.418 48.4239 141.159 47.9897 141.042C47.5556 140.925 47.0949 140.958 46.6813 141.134Z"/><path fill="#fff" stroke="#263238" stroke-linecap="round" stroke-linejoin="round" stroke-width=".827" d="M56.7327 145.436C56.7327 145.436 52.6098 149.856 52.8245 150.864C53.0392 151.873 54.3921 152.688 55.1651 151.937C55.9382 151.186 58.8156 148.815 59.0733 147.517C59.1544 147.204 59.1475 146.874 59.0532 146.564C58.959 146.255 58.7811 145.977 58.5392 145.762C58.2972 145.547 58.0006 145.403 57.6819 145.345C57.3631 145.287 57.0347 145.319 56.7327 145.436Z"/><path fill="#fff" d="M88.4688 206.536L88.7372 213.295C88.7372 213.295 92.8923 216.675 102.523 217.19C108.57 217.411 114.572 216.07 119.949 213.295L118.102 202.899L88.4688 206.536Z"/><g style="mix-blend-mode:multiply" opacity=".5"><path fill="#92E3A9" d="M88.4688 206.536L88.6298 210.688C91.0885 211.589 93.311 212.179 93.311 212.179L93.0855 215.451C94.6224 215.979 96.1984 216.384 97.799 216.664L100.236 214.003C107.623 214.969 117.265 211.407 119.476 210.548L118.102 202.899L117.587 202.963L88.4688 206.536Z"/></g><path stroke="#263238" stroke-linecap="round" stroke-linejoin="round" stroke-width=".827" d="M88.4688 206.536L88.7372 213.295C88.7372 213.295 92.8923 216.675 102.523 217.19C108.57 217.411 114.572 216.07 119.949 213.295L118.102 202.899L88.4688 206.536Z"/><path fill="#fff" d="M87.1694 141.273C87.1694 141.273 84.3134 157.366 82.4882 162.076C81.8211 163.969 81.6143 165.993 81.885 167.982C82.1557 169.971 82.8961 171.867 84.045 173.513C85.6126 175.852 86.3856 193.79 86.3856 196.912C86.3856 200.034 84.3134 204.197 87.1694 207.576C90.0254 210.956 104.348 211.739 112.411 210.698C120.475 209.658 122.815 204.712 122.815 202.373C122.815 200.034 115.3 169.876 111.37 156.873C107.44 143.869 101.997 134.514 99.6562 132.958C97.3156 131.403 99.1409 130.619 96.8003 131.403C94.4596 132.186 89.2523 137.636 87.1694 141.273Z"/><g style="mix-blend-mode:multiply" opacity=".5"><path fill="#92E3A9" d="M91.369 208.156C89.7692 208.445 88.7707 207.823 87.2891 207.93C89.6511 209.422 94.2465 210.613 98.9814 211.342C101.129 208.124 105.767 200.613 106.325 196.118C107.055 190.292 109.611 177.879 107.786 173.513C105.96 169.146 100.495 145.082 99.0351 145.082C97.5749 145.082 95.7496 139.245 92.4642 147.625C92.4642 147.625 90.3168 151.272 91.7341 159.662C93.1513 168.052 95.7496 171.689 94.2894 177.901C92.8292 184.113 94.2894 188.844 96.8448 189.209C99.4001 189.574 100.13 190.282 99.4001 194.67C98.67 199.058 95.3846 207.426 91.369 208.156Z"/></g><g style="mix-blend-mode:multiply" opacity=".5"><path fill="#92E3A9" d="M84.1853 170.616C83.1214 169.805 82.3007 168.718 81.8125 167.473C82.0752 169.633 82.84 171.701 84.0457 173.513C85.6133 175.852 86.3864 193.79 86.3864 196.912C86.3917 197.009 86.3917 197.105 86.3864 197.202C86.8852 194.186 87.0651 191.125 86.9232 188.072C86.3649 183.662 92.2271 177.901 92.2271 175.358C92.2271 172.816 87.8358 173.17 84.1853 170.616Z"/></g><path stroke="#263238" stroke-linecap="round" stroke-linejoin="round" stroke-width=".827" d="M87.1694 141.273C87.1694 141.273 84.3134 157.366 82.4882 162.076C81.8211 163.969 81.6143 165.993 81.885 167.982C82.1557 169.971 82.8961 171.867 84.045 173.513C85.6126 175.852 86.3856 193.79 86.3856 196.912C86.3856 200.034 84.3134 204.197 87.1694 207.576C90.0254 210.956 104.348 211.739 112.411 210.698C120.475 209.658 122.815 204.712 122.815 202.373C122.815 200.034 115.3 169.876 111.37 156.873C107.44 143.869 101.997 134.514 99.6562 132.958C97.3156 131.403 99.1409 130.619 96.8003 131.403C94.4596 132.186 89.2523 137.636 87.1694 141.273Z"/><path stroke="#263238" stroke-linecap="round" stroke-linejoin="round" stroke-width=".62" d="M86.6992 147.131C86.6992 147.131 88.6104 148.086 91.2301 144.76"/><path fill="#fff" d="M116.837 181.581L105.649 185.733C105.649 185.733 103.04 195.099 101.483 199.519C99.9265 203.939 91.8202 223.433 91.8202 223.433C91.8202 223.433 87.139 228.637 86.0975 230.192C85.0561 231.748 84.7984 236.951 85.5822 237.702C86.366 238.453 88.1805 235.878 88.1805 235.878C88.1805 235.878 88.7066 237.177 90.7788 236.136C92.851 235.095 95.5566 225.257 95.5566 225.257C95.5566 225.257 106.476 206.535 110.384 200.581C114.292 194.627 117.406 188.876 117.406 186.537C117.356 184.872 117.165 183.214 116.837 181.581Z"/><g style="mix-blend-mode:multiply" opacity=".5"><path fill="#92E3A9" d="M117.17 183.759C117.095 183.169 117.019 182.686 116.955 182.278L114.604 182.407L105.649 185.733C105.649 185.733 103.04 195.099 101.483 199.519C99.9265 203.94 91.8202 223.434 91.8202 223.434C91.8202 223.434 87.139 228.637 86.0975 230.193C85.0561 231.748 84.7984 236.952 85.5822 237.703C86.366 238.454 88.1805 235.879 88.1805 235.879C87.3805 234.777 86.8542 233.501 86.6451 232.156C86.6451 230.6 92.5503 225.011 92.5503 225.011L110.932 188.415L117.17 183.759Z"/></g><path stroke="#263238" stroke-linecap="round" stroke-linejoin="round" stroke-width=".827" d="M116.837 181.581L105.649 185.733C105.649 185.733 103.04 195.099 101.483 199.519C99.9265 203.939 91.8202 223.433 91.8202 223.433C91.8202 223.433 87.139 228.637 86.0975 230.192C85.0561 231.748 84.7984 236.951 85.5822 237.702C86.366 238.453 88.1805 235.878 88.1805 235.878C88.1805 235.878 88.7066 237.177 90.7788 236.136C92.851 235.095 95.5566 225.257 95.5566 225.257C95.5566 225.257 106.476 206.535 110.384 200.581C114.292 194.627 117.406 188.876 117.406 186.537C117.356 184.872 117.165 183.214 116.837 181.581V181.581Z"/><path fill="#fff" stroke="#263238" stroke-linecap="round" stroke-linejoin="round" stroke-width=".827" d="M105.649 185.733C105.649 185.733 104.886 188.468 103.941 191.666C105.926 192.349 107.983 192.803 110.072 193.017C111.645 193.174 113.229 193.203 114.807 193.103C116.364 190.217 117.352 187.835 117.352 186.516C117.318 184.859 117.146 183.208 116.836 181.581L105.649 185.733Z"/><path fill="#fff" d="M97.8431 141.541C95.6753 143.392 94.2807 145.988 93.9349 148.816C93.4195 153.493 97.5746 164.909 97.5746 170.133C97.5746 175.358 98.6483 181.838 99.6576 184.435C100.667 187.031 105.38 188.597 110.33 187.299C115.28 186.001 119.435 185.218 119.435 179.5C119.435 173.781 114.227 163.9 110.588 155.317C106.948 146.734 103.823 139.203 97.8431 141.541Z"/><g style="mix-blend-mode:multiply" opacity=".5"><path fill="#92E3A9" d="M97.8405 141.541C97.8405 141.541 95.7683 143.161 96.7668 148.772C97.7653 154.383 99.0967 161.926 99.4832 165.605C99.8697 169.285 106.838 157.87 106.065 161.732C105.292 165.595 101.996 177.021 101.996 179.542C101.996 182.063 105.292 185.346 108.438 185.979C111.584 186.612 117.424 184.906 117.424 184.906C115.935 185.749 114.348 186.408 112.7 186.87C110.697 187.411 108.648 187.77 106.58 187.943L105.217 187.664C105.217 187.664 100.374 187.664 98.7746 183.211C97.1748 178.759 98.3881 170.251 96.4447 163.9C94.5014 157.548 93.739 153.643 93.5458 150.736C93.3525 147.828 95.8327 142.625 97.8405 141.541Z"/></g><path stroke="#263238" stroke-linecap="round" stroke-linejoin="round" stroke-width=".827" d="M97.8431 141.541C95.6753 143.392 94.2807 145.988 93.9349 148.816C93.4195 153.493 97.5746 164.909 97.5746 170.133C97.5746 175.358 98.6483 181.838 99.6576 184.435C100.667 187.031 105.38 188.597 110.33 187.299C115.28 186.001 119.435 185.218 119.435 179.5C119.435 173.781 114.227 163.9 110.588 155.317C106.948 146.734 103.823 139.203 97.8431 141.541Z"/><path stroke="#263238" stroke-linecap="round" stroke-linejoin="round" stroke-width=".62" d="M108.366 152.849C107.642 157.925 106.032 162.835 103.609 167.354"/><path stroke="#263238" stroke-linecap="round" stroke-linejoin="round" stroke-width=".62" d="M102.652 168.309L100.516 170.927"/><path fill="#fff" stroke="#263238" stroke-linecap="round" stroke-linejoin="round" stroke-width=".827" d="M80.2673 132.068C82.6355 133.315 84.5706 135.248 85.8182 137.615C87.4073 141.187 87.8045 143.966 89.0393 143.172C90.274 142.378 97.7682 133.012 96.351 132.293C93.13 130.716 89.8445 123.024 91.4228 117.402C92.0241 115.074 79.8701 127.315 80.2673 132.068Z"/><path fill="#fff" d="M74.1338 100.171C70.4618 102.017 66.457 105.085 66.457 109.548C66.457 117.348 69.6244 120.427 69.6244 122.369C69.6244 124.311 67.0153 126.929 67.9924 127.905C68.9694 128.881 71.2134 128.549 71.2134 128.549C72.7648 131.373 74.5045 134.09 76.4207 136.681C78.3748 138.955 81.9609 135.705 85.8691 132.776C89.7773 129.847 91.7206 127.25 91.7206 121.725C91.7206 116.2 94.4585 112.069 92.0534 106.705C91.3235 105.085 90.2767 103.628 88.9746 102.419C87.6725 101.21 86.1415 100.273 84.4716 99.6646C82.8018 99.0557 81.0269 98.7869 79.2515 98.8739C77.476 98.9609 75.736 99.402 74.1338 100.171Z"/><g style="mix-blend-mode:multiply" opacity=".5"><path fill="#92E3A9" d="M74.6612 99.1202C70.9892 100.966 66.9844 104.045 66.9844 108.497C68.8418 107.843 71.4187 107.188 72.6426 108.004C74.6826 109.355 72.3098 117.155 79.0847 120.202C85.8596 123.249 87.2231 122.916 88.2431 125.287C88.8873 126.789 87.8137 129.804 85.7952 132.197L86.4072 131.735C90.3153 128.806 92.2694 126.21 92.2694 120.674C92.2694 115.138 95.0073 111.083 92.6023 105.654C91.8725 104.032 90.8248 102.572 89.5211 101.361C88.2174 100.15 86.6841 99.2123 85.0118 98.6032C83.3394 97.9942 81.5619 97.7261 79.7841 97.8149C78.0063 97.9037 76.2644 98.3476 74.6612 99.1202Z"/></g><path stroke="#263238" stroke-linecap="round" stroke-linejoin="round" stroke-width=".827" d="M74.1338 100.171C70.4618 102.017 66.457 105.085 66.457 109.548C66.457 117.348 69.6244 120.427 69.6244 122.369C69.6244 124.311 67.0153 126.929 67.9924 127.905C68.9694 128.881 71.2134 128.549 71.2134 128.549C72.7648 131.373 74.5045 134.09 76.4207 136.681C78.3748 138.955 81.9609 135.705 85.8691 132.776C89.7772 129.847 91.7206 127.25 91.7206 121.725C91.7206 116.2 94.4585 112.069 92.0534 106.705C91.3235 105.085 90.2767 103.628 88.9746 102.419C87.6725 101.21 86.1415 100.273 84.4716 99.6646C82.8018 99.0557 81.0269 98.7869 79.2515 98.8739C77.476 98.9609 75.736 99.402 74.1338 100.171Z"/><g style="mix-blend-mode:multiply" opacity=".5"><path fill="#92E3A9" d="M70.7642 123.506L69.9375 125.352C69.9375 125.352 71.7842 127.197 71.7842 125.759C71.7842 124.322 72.3962 122.272 70.7642 123.506Z"/></g><path fill="#fff" d="M75.7461 129.772C76.496 129.482 77.1555 128.999 77.6573 128.371C78.159 127.744 78.4851 126.994 78.6021 126.199"/><path stroke="#263238" stroke-linecap="round" stroke-linejoin="round" stroke-width=".827" d="M75.7461 129.772C76.496 129.482 77.1555 128.999 77.6573 128.371C78.159 127.744 78.4851 126.994 78.6021 126.199"/><path fill="#fff" d="M72.418 119.301L72.8904 121.447C73.5012 121.632 74.1556 121.617 74.757 121.403C75.3583 121.188 75.8746 120.786 76.2295 120.256"/><path stroke="#263238" stroke-linecap="round" stroke-linejoin="round" stroke-width=".827" d="M72.418 119.301L72.8904 121.447C73.5012 121.632 74.1556 121.617 74.757 121.403C75.3583 121.188 75.8746 120.786 76.2295 120.256"/><path fill="#fff" d="M70.5078 117.402C70.9188 116.669 71.5718 116.101 72.3551 115.796C73.1384 115.491 74.0035 115.467 74.8025 115.728"/><path stroke="#263238" stroke-linecap="round" stroke-linejoin="round" stroke-width=".827" d="M70.5078 117.402C70.9188 116.669 71.5718 116.101 72.3551 115.796C73.1384 115.491 74.0035 115.467 74.8025 115.728"/><path fill="#263238" d="M83.6034 134.524C82.6907 135.211 81.8318 135.844 81.0051 136.348C83.7 144.073 74.9388 152.881 78.643 161.217C79.4796 163.024 80.513 164.733 81.7244 166.313C81.7244 166.006 81.7244 165.695 81.7244 165.38C81.7187 165.287 81.7187 165.194 81.7244 165.101C81.7244 164.865 81.7244 164.64 81.8103 164.404C81.8962 164.168 81.8103 164.189 81.8103 164.071C81.8103 163.953 81.907 163.61 81.9714 163.385C82.0358 163.159 81.9714 163.181 82.0465 163.073C82.1432 162.741 82.2505 162.408 82.3794 162.076C84.2046 157.398 87.0606 141.273 87.0606 141.273C87.0626 141.244 87.0626 141.215 87.0606 141.187C86.6955 140.221 86.2661 138.977 85.6541 137.614C85.1662 136.467 84.471 135.42 83.6034 134.524Z"/><path fill="#263238" d="M148.477 182.525C139.63 175.015 141.197 171.603 143.538 165.885C145.879 160.166 145.363 147.946 136.022 139.621C126.681 131.295 114.688 135.984 109.18 125.33C103.672 114.677 108.923 112.842 105.798 103.744C102.674 94.6462 91.2607 88.1446 82.6713 88.6381C80.5291 88.7843 78.4271 89.2921 76.4547 90.1401C62.4969 90.4835 57.7728 97.6502 60.6932 104.517C61.2961 105.83 62.3748 106.865 63.7118 107.415C65.0488 107.964 66.5446 107.987 67.8975 107.478C70.2596 106.619 73.427 106.094 74.9408 108.551C77.5499 112.713 76.5299 119.172 84.3355 120.728C88.19 121.5 90.5091 122.401 91.6687 123.699C91.6687 124.011 91.6043 124.332 91.5506 124.622C91.7848 125.516 92.0862 126.391 92.4525 127.24C92.3227 127.946 92.1286 128.639 91.8727 129.311C90.0582 134.246 86.15 138.966 92.1411 142.045C98.1322 145.125 96.5002 141.23 100.655 141.23C104.81 141.23 107.011 146.594 107.011 146.594C108.729 149.894 110.193 153.319 111.392 156.84L111.618 157.591C115.139 165.584 119.455 174.253 119.455 179.467C119.509 180.805 119.178 182.131 118.5 183.287C119.402 186.87 120.239 190.282 120.926 193.2C121.034 193.661 121.141 194.112 121.238 194.552V194.616C121.334 195.067 121.442 195.506 121.538 195.925C121.624 196.29 121.699 196.633 121.775 196.998V197.202C121.839 197.491 121.893 197.76 121.946 198.017C122 198.275 122 198.232 122.021 198.328C122.021 198.586 122.129 198.822 122.172 199.058L122.236 199.337C122.236 199.551 122.322 199.744 122.354 199.937L122.419 200.216C122.419 200.388 122.483 200.549 122.505 200.699C122.528 200.787 122.546 200.877 122.558 200.967C122.558 201.107 122.558 201.225 122.623 201.343C122.687 201.461 122.623 201.504 122.623 201.568C122.623 201.633 122.623 201.761 122.623 201.847C122.617 201.908 122.617 201.969 122.623 202.03C122.623 202.158 122.623 202.255 122.623 202.33C122.638 202.516 122.638 202.702 122.623 202.888V203.049C122.6 203.208 122.568 203.365 122.526 203.521C122.526 203.585 122.526 203.639 122.526 203.703C122.526 203.768 122.397 204.1 122.311 204.304V204.379C122.087 204.921 121.802 205.435 121.463 205.913V205.988C121.282 206.244 121.085 206.488 120.873 206.718C120.355 207.289 119.771 207.797 119.133 208.231L120.003 213.198C120.003 213.198 119.359 213.563 118.221 214.067C120.237 215.021 122.388 215.662 124.598 215.966C138.127 218.047 144.633 214.4 149.572 207.383C154.511 200.367 157.324 190.067 148.477 182.525Z"/><path stroke="#fff" stroke-linecap="round" stroke-linejoin="round" stroke-width=".62" d="M61.9922 104.85C61.9922 104.85 65.7286 107.703 71.8807 105.289C78.0329 102.875 83.3154 102.436 87.2665 107.263C91.2176 112.091 93.6441 114.291 96.2854 114.291C98.9266 114.291 105.734 119.784 106.389 126.371C107.044 132.959 110.565 135.158 115.408 136.918"/><path stroke="#fff" stroke-linecap="round" stroke-linejoin="round" stroke-width=".62" d="M118.477 137.583C120.571 138.107 122.703 138.466 124.854 138.655C127.936 138.87 130.137 138.87 132.37 141.295"/><path stroke="#fff" stroke-linecap="round" stroke-linejoin="round" stroke-width=".62" d="M77.3789 107.95C79.5106 109.888 81.1643 112.293 82.2104 114.977C83.5311 118.925 90.3489 120.03 93.8598 119.805"/><path stroke="#fff" stroke-linecap="round" stroke-linejoin="round" stroke-width=".62" d="M96.7274 102.875C96.7274 102.875 93.8607 97.5964 88.8144 95.3649C83.7681 93.1333 79.5808 96.2339 72.7093 99.0984C65.8378 101.963 61.7148 99.9782 61.7148 99.9782"/><path stroke="#fff" stroke-linecap="round" stroke-linejoin="round" stroke-width=".62" d="M111.66 145.264C111.66 145.264 115.611 151.637 120.894 155.371C126.176 159.104 132.103 161.958 129.247 171.185C126.391 180.411 123.964 185.465 130.782 191.397C137.6 197.33 140.016 206.772 137.375 210.505"/><path stroke="#fff" stroke-linecap="round" stroke-linejoin="round" stroke-width=".62" d="M94.7918 122.391C94.7918 122.391 99.1509 126.21 97.884 130.019C96.617 133.827 90.6152 136.016 94.0617 139.106C97.5082 142.196 104.605 139.471 106.248 140.018C107.291 140.392 108.227 141.014 108.975 141.831"/><path stroke="#fff" stroke-linecap="round" stroke-linejoin="round" stroke-width=".62" d="M96.7148 120.427C96.7148 120.427 101.697 122.573 101.997 126.982C102.298 131.392 98.8407 133.752 99.646 135.565C100.451 137.379 103.114 135.308 106.088 136.37"/><path fill="#92E3A9" d="M8.38533 138.022H51.429C53.8305 138.022 55.7773 136.077 55.7773 133.677V116.275C55.7773 113.875 53.8305 111.93 51.429 111.93H8.38533C5.98379 111.93 4.03696 113.875 4.03696 116.275V133.677C4.03696 136.077 5.98379 138.022 8.38533 138.022Z"/><path fill="#92E3A9" d="M55.7773 131.188V145.21L47.9609 136.209"/><path fill="#fff" d="M40.4225 128.13C41.9049 128.13 43.1067 126.93 43.1067 125.448C43.1067 123.967 41.9049 122.766 40.4225 122.766C38.94 122.766 37.7383 123.967 37.7383 125.448C37.7383 126.93 38.94 128.13 40.4225 128.13Z"/><path fill="#fff" d="M26.25 125.448C26.25 124.918 26.4074 124.399 26.7024 123.958C26.9973 123.517 27.4165 123.173 27.907 122.97C28.3975 122.767 28.9372 122.714 29.4578 122.818C29.9785 122.921 30.4568 123.177 30.8322 123.552C31.2076 123.927 31.4632 124.405 31.5668 124.925C31.6704 125.445 31.6172 125.985 31.414 126.475C31.2109 126.965 30.8669 127.384 30.4254 127.678C29.984 127.973 29.4651 128.13 28.9342 128.13C28.2223 128.13 27.5396 127.848 27.0362 127.345C26.5328 126.842 26.25 126.16 26.25 125.448Z"/><path fill="#fff" d="M17.4459 128.13C18.9283 128.13 20.1301 126.93 20.1301 125.448C20.1301 123.967 18.9283 122.766 17.4459 122.766C15.9635 122.766 14.7617 123.967 14.7617 125.448C14.7617 126.93 15.9635 128.13 17.4459 128.13Z"/><path stroke="#fff" stroke-linecap="round" stroke-linejoin="round" stroke-width=".62" d="M138.707 186.119L141.788 189.638"/><path stroke="#fff" stroke-linecap="round" stroke-linejoin="round" stroke-width=".62" d="M143.977 191.172C145.55 193.069 146.602 195.343 147.027 197.77C147.453 200.197 147.237 202.693 146.403 205.012"/></svg>