<svg width="408" height="331" viewBox="0 0 408 331" fill="none" xmlns="http://www.w3.org/2000/svg">
<path d="M185.09 278.806L116.276 306.337L36.4375 226.498L88.7446 218.932L185.09 278.806Z" fill="#92E3A9"/>
<path opacity="0.5" d="M185.09 278.806L116.276 306.337L36.4375 226.498L88.7446 218.932L185.09 278.806Z" fill="white"/>
<path d="M269.74 315.287C278.862 315.287 286.257 310.356 286.257 304.273C286.257 298.189 278.862 293.258 269.74 293.258C260.618 293.258 253.223 298.189 253.223 304.273C253.223 310.356 260.618 315.287 269.74 315.287Z" fill="#92E3A9"/>
<path opacity="0.5" d="M269.74 315.287C278.862 315.287 286.257 310.356 286.257 304.273C286.257 298.189 278.862 293.258 269.74 293.258C260.618 293.258 253.223 298.189 253.223 304.273C253.223 310.356 260.618 315.287 269.74 315.287Z" fill="white"/>
<path d="M205.055 241.736L305.891 249.726L283.51 238.205L205.055 241.736Z" fill="#92E3A9"/>
<path opacity="0.5" d="M205.055 241.736L305.891 249.726L283.51 238.205L205.055 241.736Z" fill="white"/>
<path d="M227.764 210.673L197.848 208.227L201.605 203.788H218.814L227.764 210.673Z" fill="#92E3A9"/>
<path opacity="0.5" d="M227.764 210.673L197.848 208.227L201.605 203.788H218.814L227.764 210.673Z" fill="white"/>
<path d="M324.772 330.08C336.363 330.08 345.759 324.382 345.759 317.352C345.759 310.322 336.363 304.624 324.772 304.624C313.181 304.624 303.785 310.322 303.785 317.352C303.785 324.382 313.181 330.08 324.772 330.08Z" fill="#92E3A9"/>
<path opacity="0.5" d="M324.772 330.08C336.363 330.08 345.759 324.382 345.759 317.352C345.759 310.322 336.363 304.624 324.772 304.624C313.181 304.624 303.785 310.322 303.785 317.352C303.785 324.382 313.181 330.08 324.772 330.08Z" fill="white"/>
<path d="M200.413 287.797L189.109 306.369L214.143 311.22L223.836 292.649L200.413 287.797Z" fill="white" stroke="#263238" stroke-linecap="round" stroke-linejoin="round"/>
<path d="M219.8 266.811L208.496 283.761L231.909 291.029L241.602 274.078L219.8 266.811Z" fill="#92E3A9"/>
<path opacity="0.5" d="M219.8 266.811L208.496 283.761L231.909 291.029L241.602 274.078L219.8 266.811Z" fill="white" stroke="#263238" stroke-miterlimit="10"/>
<path d="M219.8 266.811L208.496 283.761L231.909 291.029L241.602 274.078L219.8 266.811Z" stroke="#263238" stroke-linecap="round" stroke-linejoin="round"/>
<path d="M244.833 299.111L224.641 304.758L232.713 317.683L256.136 312.026L244.833 299.111Z" fill="#92E3A9" stroke="#263238" stroke-linecap="round" stroke-linejoin="round"/>
<path d="M302.438 295.797L304.502 311.478C304.502 317.971 312.399 323.246 322.144 323.246C331.889 323.246 339.797 317.971 339.797 311.478L341.923 295.797H302.438Z" fill="#92E3A9" stroke="#263238" stroke-linecap="round" stroke-linejoin="round"/>
<path d="M322.163 308.98C333.081 308.98 341.932 303.078 341.932 295.797C341.932 288.517 333.081 282.615 322.163 282.615C311.245 282.615 302.395 288.517 302.395 295.797C302.395 303.078 311.245 308.98 322.163 308.98Z" fill="#92E3A9" stroke="#263238" stroke-linecap="round" stroke-linejoin="round"/>
<path d="M322.164 307.008C331.451 307.008 338.98 301.989 338.98 295.797C338.98 289.606 331.451 284.586 322.164 284.586C312.877 284.586 305.348 289.606 305.348 295.797C305.348 301.989 312.877 307.008 322.164 307.008Z" fill="#92E3A9" stroke="#263238" stroke-linecap="round" stroke-linejoin="round"/>
<path d="M322.164 307.019C331.292 307.019 338.691 302.905 338.691 297.831C338.691 292.757 331.292 288.644 322.164 288.644C313.036 288.644 305.637 292.757 305.637 297.831C305.637 302.905 313.036 307.019 322.164 307.019Z" fill="#263238" stroke="#263238" stroke-linecap="round" stroke-linejoin="round"/>
<path d="M328.119 265.706C325.249 263.858 320.892 264.023 319.148 267.44C316.567 272.416 318.415 281.634 317.486 282.924C316.557 284.215 313.801 284.587 312.51 281.82C311.22 279.053 311.22 275.368 309.558 275.182C307.896 274.996 305.687 275.74 305.315 279.982C304.943 284.225 305.687 289.015 308.639 291.224C311.591 293.433 314.905 292.7 315.865 293.63C316.825 294.559 315.865 296.004 315.865 296.954C315.865 301.083 321.264 303.147 324.681 302.115C329.657 300.639 329.11 295.653 329.843 293.63C330.576 291.606 334.643 291.41 336.119 288.282C337.595 285.154 339.804 278.867 336.666 276.473C333.528 274.078 331.133 275.182 330.772 277.763C330.342 279.812 329.648 281.797 328.707 283.668C330.916 279.301 333.084 268.906 328.119 265.706Z" fill="#92E3A9"/>
<path opacity="0.2" d="M328.119 265.706C325.249 263.858 320.892 264.023 319.148 267.44C316.567 272.416 318.415 281.634 317.486 282.924C316.557 284.215 313.801 284.587 312.51 281.82C311.22 279.053 311.22 275.368 309.558 275.182C307.896 274.996 305.687 275.74 305.315 279.982C304.943 284.225 305.687 289.015 308.639 291.224C311.591 293.433 314.905 292.7 315.865 293.63C316.825 294.559 315.865 296.004 315.865 296.954C315.865 301.083 321.264 303.147 324.681 302.115C329.657 300.639 329.11 295.653 329.843 293.63C330.576 291.606 334.643 291.41 336.119 288.282C337.595 285.154 339.804 278.867 336.666 276.473C333.528 274.078 331.133 275.182 330.772 277.763C330.342 279.812 329.648 281.797 328.707 283.668C330.916 279.301 333.084 268.906 328.119 265.706Z" fill="black"/>
<path d="M328.119 265.706C325.249 263.858 320.892 264.023 319.148 267.44C316.567 272.416 318.415 281.634 317.486 282.924C316.557 284.215 313.801 284.587 312.51 281.82C311.22 279.053 311.22 275.368 309.558 275.182C307.896 274.996 305.687 275.74 305.315 279.982C304.943 284.225 305.687 289.015 308.639 291.224C311.591 293.433 314.905 292.7 315.865 293.63C316.825 294.559 315.865 296.004 315.865 296.954C315.865 301.083 321.264 303.147 324.681 302.115C329.657 300.639 329.11 295.653 329.843 293.63C330.576 291.606 334.643 291.41 336.119 288.282C337.595 285.154 339.804 278.867 336.666 276.473C333.528 274.078 331.133 275.182 330.772 277.763C330.342 279.812 329.648 281.797 328.707 283.668C330.916 279.301 333.084 268.906 328.119 265.706Z" stroke="#263238" stroke-linecap="round" stroke-linejoin="round"/>
<path d="M323.578 267.068C322.741 267.619 322.04 268.354 321.529 269.216C321.017 270.078 320.708 271.045 320.626 272.044C320.44 275.368 320.626 285.877 319.336 287.353C318.045 288.829 313.802 288.458 311.077 285.877C308.352 283.296 309.56 277.773 309.56 277.773" stroke="#263238" stroke-width="0.5" stroke-linecap="round" stroke-linejoin="round"/>
<path d="M310.375 289.129C311.331 289.873 312.437 290.401 313.616 290.677C316.94 291.41 319.335 289.759 319.893 291.41C320.45 293.062 319.335 298.977 319.335 298.977" stroke="#263238" stroke-width="0.5" stroke-linecap="round" stroke-linejoin="round"/>
<path d="M308.453 287.167C308.797 287.652 309.191 288.098 309.63 288.499" stroke="#263238" stroke-width="0.5" stroke-linecap="round" stroke-linejoin="round"/>
<path d="M323.516 295.952C323.702 293.203 323.723 290.445 323.578 287.694C323.247 283.564 325.167 275.894 325.642 272.426" stroke="#263238" stroke-width="0.5" stroke-linecap="round" stroke-linejoin="round"/>
<path d="M323.207 300.267C323.207 300.267 323.31 299.142 323.424 297.49" stroke="#263238" stroke-width="0.5" stroke-linecap="round" stroke-linejoin="round"/>
<path d="M335.977 281.789C336.069 280.891 336.121 280.344 336.121 280.344" stroke="#263238" stroke-width="0.5" stroke-linecap="round" stroke-linejoin="round"/>
<path d="M327.262 296.943C327.262 296.943 328.005 290.863 329.481 289.717C330.957 288.571 335.19 287.869 335.562 285.102C335.623 284.669 335.675 284.256 335.727 283.874" stroke="#263238" stroke-width="0.5" stroke-linecap="round" stroke-linejoin="round"/>
<path d="M333.541 277.949C333.155 278.208 332.846 278.568 332.65 278.991C332.453 279.413 332.376 279.881 332.426 280.344C332.502 281.449 332.267 282.553 331.747 283.531C331.227 284.509 330.443 285.322 329.484 285.877" stroke="#263238" stroke-width="0.5" stroke-linecap="round" stroke-linejoin="round"/>
<path d="M325.847 270.32C325.902 269.288 325.882 268.253 325.785 267.223" stroke="#263238" stroke-width="0.5" stroke-linecap="round" stroke-linejoin="round"/>
<path d="M255.547 266.273L258.283 295.075V298.12C258.283 302.249 264.084 305.522 271.248 305.522C278.413 305.522 284.214 302.208 284.214 298.12V295.075L286.702 265.974L255.547 266.273Z" fill="white" stroke="#263238" stroke-linecap="round" stroke-linejoin="round"/>
<path d="M284.337 293.516L285.772 276.741C283.842 279.745 278.082 281.903 271.268 281.903C264.094 281.903 258.096 279.487 256.496 276.235L258.127 293.413C260.77 295.612 265.653 297.098 271.268 297.098C276.884 297.098 281.695 295.684 284.337 293.516Z" fill="#92E3A9" stroke="#263238" stroke-linecap="round" stroke-linejoin="round"/>
<path d="M256.064 271.703V271.507L255.93 270.351L256.064 271.703Z" fill="white" stroke="#263238" stroke-linecap="round" stroke-linejoin="round"/>
<path d="M287.198 262C284.452 258.531 278.351 256.105 271.249 256.105C264.146 256.105 258.046 258.531 255.289 262H253.73V266.129C253.73 271.662 261.576 276.143 271.28 276.143C280.983 276.143 288.829 271.662 288.829 266.129V262H287.198Z" fill="#92E3A9" stroke="#263238" stroke-linecap="round" stroke-linejoin="round"/>
<path opacity="0.2" d="M287.198 262C284.452 258.531 278.351 256.105 271.249 256.105C264.146 256.105 258.046 258.531 255.289 262H253.73V266.129C253.73 271.662 261.576 276.143 271.28 276.143C280.983 276.143 288.829 271.662 288.829 266.129V262H287.198Z" fill="black"/>
<path d="M271.249 272.013C280.924 272.013 288.767 267.53 288.767 262C288.767 256.469 280.924 251.986 271.249 251.986C261.574 251.986 253.73 256.469 253.73 262C253.73 267.53 261.574 272.013 271.249 272.013Z" fill="white" stroke="#263238" stroke-linecap="round" stroke-linejoin="round"/>
<path d="M285.185 256.415C282.779 253.38 277.453 251.253 271.248 251.253C265.044 251.253 259.717 253.37 257.312 256.415H255.98V260.007C255.98 264.839 262.825 268.751 271.279 268.751C279.734 268.751 286.578 264.839 286.578 260.007V256.415H285.185Z" fill="#92E3A9" stroke="#263238" stroke-linecap="round" stroke-linejoin="round"/>
<path d="M271.248 265.159C279.697 265.159 286.547 261.244 286.547 256.415C286.547 251.586 279.697 247.671 271.248 247.671C262.799 247.671 255.949 251.586 255.949 256.415C255.949 261.244 262.799 265.159 271.248 265.159Z" fill="white" stroke="#263238" stroke-linecap="round" stroke-linejoin="round"/>
<path d="M116.836 171.508C116.836 171.508 118.033 170.713 125.631 173.903C133.229 177.093 136.212 176.401 143.604 175.1C152.482 173.552 159.852 172.003 160.74 175.596C162.278 181.79 156.064 181.717 144.884 182.915C133.704 184.112 127.221 180.695 123.629 179.095C121.975 178.416 120.374 177.616 118.839 176.7L116.836 171.508Z" fill="white" stroke="#263238" stroke-linecap="round" stroke-linejoin="round"/>
<path d="M99.6575 174.708C99.6575 174.708 109.65 186.29 114.038 183.09C118.425 179.89 118.033 169.515 114.038 166.315C110.043 163.115 98.8626 169.113 99.6575 174.708Z" fill="white" stroke="#263238" stroke-linecap="round" stroke-linejoin="round"/>
<path d="M130.04 142.747C130.04 142.747 130.443 153.535 127.645 160.72C124.848 167.905 119.655 172.705 118.86 176.7C118.065 180.695 118.458 186.29 114.463 187.89C110.468 189.49 110.468 186.693 110.87 183.493C111.273 180.293 112.068 168.318 112.068 168.318L98.8645 176.298C98.8645 176.298 102.457 186.29 94.8694 187.488C87.282 188.685 78.0944 177.103 76.8969 168.349C75.6994 159.595 80.4894 139.981 88.8821 134.788C97.2747 129.596 108.052 130.401 113.657 130.401C119.263 130.401 127.625 134.365 130.04 142.747Z" fill="white" stroke="#263238" stroke-linecap="round" stroke-linejoin="round"/>
<path d="M98.1943 131.661C98.1943 131.661 96.1297 132.693 92.5269 138.36C88.9242 144.028 96.1297 148.91 100.001 146.34C103.872 143.769 100.507 138.36 103.346 135.779C104.979 134.394 106.075 132.48 106.442 130.37L98.1943 131.661Z" fill="#263238"/>
<path d="M86.6125 139.64C85.6896 140.299 84.9144 141.144 84.3367 142.12C83.7589 143.096 83.3914 144.182 83.2575 145.308C82.9995 148.91 89.4514 142.211 90.2153 139.114C90.9792 136.017 86.6125 139.64 86.6125 139.64Z" fill="#263238"/>
<path d="M109.651 131.567C108.734 133.232 108.288 135.114 108.359 137.012C108.43 138.91 109.015 140.754 110.053 142.345C113.646 147.94 121.636 150.335 124.826 146.34C128.015 142.345 129.223 140.352 128.026 138.36C126.828 136.368 115.246 128.367 109.651 131.567Z" fill="#92E3A9" stroke="#263238" stroke-linecap="round" stroke-linejoin="round"/>
<path d="M139.205 111.995C137.689 112.16 136.155 111.995 134.708 111.512C133.262 111.029 131.936 110.24 130.823 109.197C126.828 105.605 123.225 97.6148 121.635 98.0071C120.045 98.3994 114.409 109.992 114.409 109.992C114.409 109.992 104.819 110.797 104.024 113.585C103.229 116.372 107.616 129.565 111.25 135.16C112.945 137.652 115.2 139.712 117.836 141.173C120.472 142.634 123.414 143.456 126.425 143.573C131.215 143.573 145.595 144.771 147.598 139.97C149.6 135.17 147.99 120.801 147.99 120.801C147.99 120.801 154.39 114.411 151.593 113.213C148.795 112.016 139.205 111.995 139.205 111.995Z" fill="white" stroke="#263238" stroke-linecap="round" stroke-linejoin="round"/>
<path d="M137.267 131.98C136.782 131.351 136.317 130.71 135.863 130.05C135.109 128.935 133.324 127.232 129.886 128.316C124.993 129.854 121.627 134.509 127.057 138.36C132.167 142.025 142.429 138.721 137.267 131.98Z" fill="#263238"/>
<path d="M114.442 109.992C114.442 109.992 120.037 113.192 123.227 111.995C126.417 110.797 124.424 97.2123 121.637 98.0072C118.85 98.8021 114.039 104.8 114.442 109.992Z" fill="white" stroke="#263238" stroke-linecap="round" stroke-linejoin="round"/>
<path d="M151.594 113.192C151.594 113.192 146.432 112.79 143.201 116.382C139.97 119.974 142.004 123.608 146.401 124.372C150.799 125.136 153.184 113.192 151.594 113.192Z" fill="white" stroke="#263238" stroke-linecap="round" stroke-linejoin="round"/>
<path d="M120.44 135.563C120.44 135.563 115.279 131.567 116.445 134.757C117.612 137.947 119.635 138.36 121.607 137.555C123.578 136.75 120.44 135.563 120.44 135.563Z" fill="#92E3A9" stroke="#263238" stroke-linecap="round" stroke-linejoin="round"/>
<path d="M117.589 125.549C117.289 126.582 116.443 127.304 115.7 127.098C114.956 126.891 114.595 125.859 114.894 124.796C115.194 123.733 116.04 123.041 116.783 123.247C117.527 123.454 117.888 124.496 117.589 125.549Z" fill="#263238"/>
<path d="M129.904 134.974C128.944 135.532 127.84 135.449 127.468 134.778C127.096 134.107 127.53 133.126 128.5 132.569C128.855 132.287 129.303 132.149 129.755 132.184C130.207 132.218 130.629 132.422 130.937 132.755C131.308 133.426 130.854 134.417 129.904 134.974Z" fill="white"/>
<path d="M94.0732 160.328C94.0732 160.328 92.8757 169.113 94.4655 172.715C96.0552 176.318 97.6657 189.893 100.866 190.265C104.066 190.636 102.858 183.039 102.858 181.872C102.858 180.706 103.261 167.895 103.261 167.895C103.261 167.895 106.058 161.897 107.648 158.707" fill="white"/>
<path d="M94.0732 160.328C94.0732 160.328 92.8757 169.113 94.4655 172.715C96.0552 176.318 97.6657 189.893 100.866 190.265C104.066 190.636 102.858 183.039 102.858 181.872C102.858 180.706 103.261 167.895 103.261 167.895C103.261 167.895 106.058 161.897 107.648 158.707" stroke="#263238" stroke-linecap="round" stroke-linejoin="round"/>
<path d="M80.8906 159.925C80.8906 159.925 91.6783 156.725 92.8757 168.71" stroke="#263238" stroke-linecap="round" stroke-linejoin="round"/>
<path d="M112.047 168.349C112.047 168.349 121.234 163.549 121.637 153.164" stroke="#263238" stroke-linecap="round" stroke-linejoin="round"/>
<path d="M1 184.689L7.80292 183.151" stroke="#263238" stroke-linecap="round" stroke-linejoin="round"/>
<path d="M57.7773 224.836L112.634 209.279C114.378 209.094 116.132 209.517 117.6 210.477L206.864 267.512C207.244 267.758 207.539 268.114 207.71 268.534C207.881 268.953 207.919 269.415 207.819 269.856C207.718 270.298 207.485 270.698 207.15 271.003C206.815 271.307 206.394 271.501 205.945 271.559L130.875 294.94L57.7773 224.836Z" fill="#92E3A9" stroke="#263238" stroke-linecap="round" stroke-linejoin="round"/>
<path d="M89.8516 228.119L97.6249 233.477L106.606 230.937L98.843 225.59L89.8516 228.119Z" fill="#263238"/>
<path d="M94.6919 243.098L86.9289 237.74L77.9375 240.28L85.7108 245.637L94.6919 243.098Z" fill="#263238"/>
<path d="M109.383 231.402L117.146 236.749L126.127 234.21L118.364 228.862L109.383 231.402Z" fill="#263238"/>
<path d="M118.438 237.637L126.2 242.984L135.182 240.445L127.419 235.098L118.438 237.637Z" fill="#263238"/>
<path d="M98.9023 234.354L106.665 239.712L115.646 237.173L107.883 231.825L98.9023 234.354Z" fill="#263238"/>
<path d="M79.3711 231.082L87.1341 236.44L96.1255 233.9L88.3522 228.542L79.3711 231.082Z" fill="#263238"/>
<path d="M141.361 265.075L133.588 259.718L124.617 262.257L132.38 267.615L141.361 265.075Z" fill="#263238"/>
<path d="M130.877 268.038L123.114 262.681L114.133 265.22L121.906 270.567L130.877 268.038Z" fill="#263238"/>
<path d="M103.736 249.333L95.9733 243.976L86.9922 246.515L94.7552 251.862L103.736 249.333Z" fill="#263238"/>
<path d="M150.408 271.311L142.645 265.964L133.664 268.493L141.427 273.851L150.408 271.311Z" fill="#263238"/>
<path d="M112.79 255.568L105.016 250.21L96.0352 252.75L103.808 258.097L112.79 255.568Z" fill="#263238"/>
<path d="M121.83 261.803L114.067 256.446L105.086 258.985L112.849 264.343L121.83 261.803Z" fill="#263238"/>
<path d="M127.48 243.872L135.243 249.219L144.225 246.68L136.462 241.333L127.48 243.872Z" fill="#263238"/>
<path d="M88.4258 237.317L96.1888 242.674L105.17 240.135L97.4069 234.788L88.4258 237.317Z" fill="#263238"/>
<path d="M160.885 268.348L153.122 263.001L144.141 265.54L151.904 270.888L160.885 268.348Z" fill="#263238"/>
<path d="M133.744 249.643L125.981 244.295L117 246.825L124.763 252.182L133.744 249.643Z" fill="#263238"/>
<path d="M114.213 246.37L106.45 241.013L97.4688 243.552L105.232 248.91L114.213 246.37Z" fill="#263238"/>
<path d="M76.5946 230.627L72.0524 227.489L65.9102 229.213L69.5026 232.63L76.5946 230.627Z" fill="#263238"/>
<path d="M85.639 236.863L77.876 231.505L70.5156 233.59L76.5959 239.35L76.6579 239.392L85.639 236.863Z" fill="#263238"/>
<path d="M107.949 240.6L115.723 245.947L124.704 243.407L116.93 238.06L107.949 240.6Z" fill="#263238"/>
<path d="M123.268 252.606L115.505 247.258L106.523 249.787L114.286 255.145L123.268 252.606Z" fill="#263238"/>
<path d="M162.318 259.15L154.555 253.803L145.574 256.342L153.337 261.69L162.318 259.15Z" fill="#263238"/>
<path d="M136.523 250.107L144.297 255.455L153.278 252.915L145.515 247.568L136.523 250.107Z" fill="#263238"/>
<path d="M151.842 262.113L144.079 256.766L135.098 259.305L142.861 264.652L151.842 262.113Z" fill="#263238"/>
<path d="M142.787 255.878L135.024 250.53L126.043 253.059L133.816 258.417L142.787 255.878Z" fill="#263238"/>
<path d="M132.31 258.841L124.548 253.493L115.566 256.022L123.329 261.38L132.31 258.841Z" fill="#263238"/>
<path d="M93.2593 252.285L85.4963 246.938L84.8047 247.134L90.9263 252.946L93.2593 252.285Z" fill="#263238"/>
<path d="M162.176 269.236L153.195 271.775L162.507 278.186L171.261 275.492L162.176 269.236Z" fill="#263238"/>
<path d="M151.688 272.199L142.707 274.728L152.297 281.335L161.041 278.64L151.688 272.199Z" fill="#263238"/>
<path d="M111.352 264.756L103.589 259.408L99.0781 260.678L105.21 266.5L111.352 264.756Z" fill="#263238"/>
<path d="M171.372 265.385L163.598 260.038L154.617 262.578L162.39 267.925L171.372 265.385Z" fill="#263238"/>
<path d="M120.396 271.001L112.633 265.644L106.223 267.46L112.344 273.272L120.396 271.001Z" fill="#263238"/>
<path d="M129.449 277.237L121.686 271.879L113.355 274.233L119.487 280.044L129.449 277.237Z" fill="#263238"/>
<path d="M139.928 274.274L132.165 268.916L123.184 271.455L130.947 276.813L139.928 274.274Z" fill="#263238"/>
<path d="M190.658 265.871L185.496 262.64L174.141 265.85L182.915 271.899L189.749 269.835C190.199 269.796 190.625 269.614 190.966 269.318C191.307 269.021 191.545 268.624 191.646 268.183C191.747 267.743 191.706 267.282 191.528 266.866C191.35 266.451 191.046 266.102 190.658 265.871Z" fill="#263238"/>
<path d="M130.73 278.114L120.5 281.004L128.552 288.643L140.62 284.927L130.73 278.114Z" fill="#263238"/>
<path d="M175.914 256.559L165.105 259.615L172.868 264.962L184.172 261.772L175.914 256.559Z" fill="#263238"/>
<path d="M172.653 266.273L163.672 268.813L172.715 275.048L181.469 272.354L172.653 266.273Z" fill="#263238"/>
<path d="M109.539 221.316L116.879 219.241L112.14 216.248L105.059 218.23L109.539 221.316Z" fill="#263238"/>
<path d="M150.829 281.789L141.208 275.151L132.227 277.691L142.075 284.483L150.829 281.789Z" fill="#263238"/>
<path d="M110.816 222.204L118.579 227.551L126.497 225.322L118.239 220.108L110.816 222.204Z" fill="#263238"/>
<path d="M128.914 234.674L136.677 240.022L145.72 237.472L137.472 232.259L128.914 234.674Z" fill="#263238"/>
<path d="M119.859 228.439L127.633 233.786L136.108 231.391L127.849 226.178L119.859 228.439Z" fill="#263238"/>
<path d="M137.957 240.909L145.72 246.257L155.331 243.552L147.083 238.329L137.957 240.909Z" fill="#263238"/>
<path d="M147.012 247.145L154.775 252.492L164.943 249.622L156.695 244.409L147.012 247.145Z" fill="#263238"/>
<path d="M166.306 250.479L156.055 253.38L163.818 258.727L174.554 255.702L166.306 250.479Z" fill="#263238"/>
<path d="M100.34 225.166L108.103 230.514L117.084 227.974L109.321 222.627L100.34 225.166Z" fill="#263238"/>
<path d="M82.2031 244.677L83.7929 246.174L84.2058 246.05L82.2031 244.677Z" fill="#263238"/>
<path d="M78.0929 230.204L87.074 227.665L82.5525 224.547L73.5508 227.066L78.0929 230.204Z" fill="#263238"/>
<path d="M88.5723 227.241L97.5534 224.702L93.0525 221.595L84.0508 224.124L88.5723 227.241Z" fill="#263238"/>
<path d="M94.5586 221.182L99.0595 224.279L108.041 221.739L103.55 218.653L94.5586 221.182Z" fill="#263238"/>
<path d="M102.302 258.531L94.5389 253.173L91.9375 253.906L98.0694 259.718L102.302 258.531Z" fill="#263238"/>
<path d="M130.825 294.941L107.081 198.822C106.541 196.637 105.375 194.657 103.726 193.124L39.7231 133.446C39.4511 133.193 39.1053 133.035 38.7363 132.993C38.3674 132.952 37.995 133.03 37.6737 133.216C37.3525 133.402 37.0994 133.686 36.9517 134.027C36.804 134.367 36.7696 134.746 36.8533 135.108L57.7782 224.836L130.825 294.941Z" fill="#92E3A9" stroke="#263238" stroke-linecap="round" stroke-linejoin="round"/>
<path d="M94.9414 189.19L102.26 195.591C102.26 195.591 104.542 196.045 106.823 207.473" stroke="#263238" stroke-width="0.5" stroke-linecap="round" stroke-linejoin="round"/>
<path d="M108.195 213.409L121.688 271.879" stroke="#263238" stroke-width="0.5" stroke-linecap="round" stroke-linejoin="round"/>
<path d="M68.6891 186.579C71.8583 194.28 71.5692 201.702 68.0387 203.158C64.5082 204.613 59.068 199.544 55.8988 191.802C52.7296 184.06 53.0186 176.679 56.5491 175.234C60.0796 173.788 65.5199 178.878 68.6891 186.579Z" fill="#92E3A9"/>
<path opacity="0.6" d="M68.6891 186.579C71.8583 194.28 71.5692 201.702 68.0387 203.158C64.5082 204.613 59.068 199.544 55.8988 191.802C52.7296 184.06 53.0186 176.679 56.5491 175.234C60.0796 173.788 65.5199 178.878 68.6891 186.579Z" fill="white"/>
<path d="M66.3753 199.128C68.8847 198.095 69.0906 192.817 66.8352 187.34C64.5798 181.862 60.7172 178.259 58.2077 179.293C55.6983 180.326 55.4924 185.604 57.7478 191.081C60.0033 196.559 63.8659 200.162 66.3753 199.128Z" stroke="#263238" stroke-miterlimit="10"/>
<path d="M73.5834 218.157C75.2351 222.152 74.5538 226.22 72.0763 227.241C69.5987 228.263 66.254 225.848 64.6023 221.863C62.9506 217.878 63.6423 213.801 66.1198 212.779C68.5974 211.757 71.9421 214.172 73.5834 218.157Z" fill="#263238"/>
<path d="M70.1651 224.919C68.6063 224.919 66.9133 223.504 66.0358 221.295C65.5418 220.159 65.3704 218.909 65.5403 217.682C65.5857 217.17 65.7638 216.679 66.0571 216.258C66.3504 215.836 66.7487 215.498 67.2126 215.277C68.9573 214.554 71.187 216.072 72.2813 218.725C73.3652 221.378 72.8491 224.021 71.1045 224.743C70.8055 224.862 70.4866 224.921 70.1651 224.919ZM68.1004 216.134C67.9231 216.132 67.7473 216.167 67.5843 216.237C67.2876 216.396 67.0368 216.628 66.856 216.912C66.6753 217.196 66.5705 217.522 66.552 217.858C66.4043 218.91 66.5545 219.983 66.9855 220.955C67.8217 223.019 69.525 224.32 70.7019 223.835C71.8787 223.35 72.1574 221.213 71.3109 219.169C70.5367 217.362 69.1327 216.134 68.1004 216.134Z" fill="#92E3A9"/>
<g opacity="0.5">
<path opacity="0.5" d="M70.1651 224.919C68.6063 224.919 66.9133 223.504 66.0358 221.295C65.5418 220.159 65.3704 218.909 65.5403 217.682C65.5857 217.17 65.7638 216.679 66.0571 216.258C66.3504 215.836 66.7487 215.498 67.2126 215.277C68.9573 214.554 71.187 216.072 72.2813 218.725C73.3652 221.378 72.8491 224.021 71.1045 224.743C70.8055 224.862 70.4866 224.921 70.1651 224.919ZM68.1004 216.134C67.9231 216.132 67.7473 216.167 67.5843 216.237C67.2876 216.396 67.0368 216.628 66.856 216.912C66.6753 217.196 66.5705 217.522 66.552 217.858C66.4043 218.91 66.5545 219.983 66.9855 220.955C67.8217 223.019 69.525 224.32 70.7019 223.835C71.8787 223.35 72.1574 221.213 71.3109 219.169C70.5367 217.362 69.1327 216.134 68.1004 216.134Z" fill="white"/>
</g>
<path d="M91.9888 219.437L86.1149 228.728C85.9636 228.954 85.8828 229.22 85.8828 229.492C85.8828 229.764 85.9636 230.03 86.1149 230.256L98.6885 248.59C98.7986 248.752 98.9417 248.89 99.1085 248.994C99.2752 249.098 99.4619 249.166 99.6565 249.193C99.8511 249.22 100.049 249.206 100.238 249.152C100.427 249.098 100.603 249.005 100.753 248.879L107.267 243.562C107.527 243.353 107.702 243.057 107.761 242.729C107.819 242.401 107.758 242.063 107.587 241.776L94.3631 219.489C94.2449 219.281 94.0746 219.107 93.8691 218.984C93.6636 218.862 93.4298 218.795 93.1906 218.789C92.9514 218.784 92.7149 218.841 92.5042 218.955C92.2936 219.068 92.116 219.234 91.9888 219.437Z" fill="#263238"/>
<path d="M81.7684 231.753C81.7684 231.753 98.0376 229.048 109.217 251.965L111.994 248.548C111.994 248.548 101.227 230.617 92.4528 229.017C83.6781 227.417 80.4883 227.407 80.4883 227.407L81.7684 231.753Z" fill="#92E3A9"/>
<path opacity="0.5" d="M81.7684 231.753C81.7684 231.753 98.0376 229.048 109.217 251.965L111.994 248.548C111.994 248.548 101.227 230.617 92.4528 229.017C83.6781 227.417 80.4883 227.407 80.4883 227.407L81.7684 231.753Z" fill="white"/>
<path d="M11.6016 182.295L38.1526 176.297" stroke="#263238" stroke-linecap="round" stroke-linejoin="round"/>
<path d="M180.179 240.104C176.997 240.607 173.788 240.927 170.568 241.065C165.582 241.261 163.466 241.261 164.23 242.417C164.994 243.573 170.961 244.719 173.067 245.101C175.173 245.483 180.179 240.104 180.179 240.104Z" fill="white" stroke="#263238" stroke-miterlimit="10"/>
<path d="M367.396 281.861L358.508 277.216" stroke="#263238" stroke-linecap="round" stroke-linejoin="round"/>
<path d="M189.852 173.365C189.852 173.365 191.72 170.093 192.505 174.15L189.852 173.365Z" fill="#263238"/>
<path d="M353.007 274.336L136.305 161.122" stroke="#263238" stroke-linecap="round" stroke-linejoin="round"/>
<path d="M142.004 205.46L187.539 234.819L224.991 219.541L174.542 193.898L142.004 205.46Z" fill="#263238" stroke="#263238" stroke-linecap="round" stroke-linejoin="round"/>
<path d="M171.269 199.338L153.121 205.749" stroke="white" stroke-width="0.5" stroke-linecap="round" stroke-linejoin="round"/>
<path d="M155.969 207.886L188.714 228.532L215.399 218.209" stroke="white" stroke-width="0.5" stroke-linecap="round" stroke-linejoin="round"/>
<path d="M329.626 66.7275C329.626 66.7275 355.702 70.8568 364.095 84.8343C372.487 98.8117 366.49 120.779 363.692 128.367C361.163 135.252 368.637 141.002 373.231 144.739C383.554 153.122 388.87 164.952 383.502 177.825C380.158 185.835 365.282 189.428 367.295 199.07C369.308 208.711 378.072 222.235 366.892 232.227C355.093 242.757 337.389 237.327 327.045 227.489C315.411 216.423 311.406 197.17 317.362 182.295C324.588 164.322 328.542 152.74 321.749 145.131C314.957 137.523 306.172 132.744 306.172 121.966C306.172 111.189 315.762 107.989 319.757 97.191C323.752 86.3931 318.157 75.2234 318.157 75.2234L329.626 66.7275Z" fill="#263238" stroke="#263238" stroke-linecap="round" stroke-linejoin="round"/>
<path d="M354.05 85.3711C359.088 89.1803 363.671 95.591 362.081 106.017C358.861 127.18 343.221 128.563 353.338 141.9C363.454 155.238 372.663 149.25 370.815 165.809C368.967 182.367 363 188.344 363 188.344" stroke="white" stroke-miterlimit="10"/>
<path d="M343.262 80.2822C345.278 80.7565 347.238 81.4488 349.105 82.3468" stroke="white" stroke-miterlimit="10"/>
<path d="M338.203 86.2695C338.203 86.2695 351.541 89.9446 355.68 100.98C359.82 112.015 343.292 121.224 342.343 128.119" stroke="white" stroke-miterlimit="10"/>
<path d="M337.614 266.294C337.429 259.966 337.346 251.521 337.728 242.613C338.533 224.238 360.501 199.865 361.296 195.477C362.09 191.09 360.098 190.316 360.098 190.316L316.555 171.538C296.312 184.834 291.387 223.505 290.18 241.549L337.614 266.294Z" fill="#92E3A9" stroke="#263238" stroke-linecap="round" stroke-linejoin="round"/>
<path d="M355.37 191.482C355.37 191.482 359.024 193.764 355.37 197.418C351.715 201.073 341.66 216.609 337.531 225.745" stroke="#263238" stroke-width="0.5" stroke-linecap="round" stroke-linejoin="round"/>
<path d="M335.727 230.287C335.727 230.287 332.527 237.596 332.991 244.905C333.456 252.213 333.446 259.068 333.446 259.068" stroke="#263238" stroke-width="0.5" stroke-linecap="round" stroke-linejoin="round"/>
<path d="M250.311 181.562C252.232 186.558 254.544 197.304 253.006 203.447C252.211 206.636 249.548 213.336 247.184 219.045L305.891 249.725C305.829 237.502 305.984 218.209 307.543 214.627C309.845 209.248 328.282 158.562 327.157 147.041C326.031 135.521 303.734 119.004 303.734 119.004L307.15 90.9248L286.804 103.22C286.804 103.22 284.491 114.348 282.189 117.042C279.887 119.737 261.068 123.566 255.69 130.462C250.311 137.358 252.232 158.5 252.232 159.646C252.232 160.792 248.391 176.607 250.311 181.562Z" fill="white"/>
<g style="mix-blend-mode:multiply" opacity="0.5">
<path d="M327.127 147C325.971 135.479 303.704 118.962 303.704 118.962L307.152 90.9248L286.805 103.22C286.805 103.22 286.134 106.43 285.164 109.826C286.475 109.713 287.941 109.527 289.582 109.238C297.345 107.865 301.464 105.109 301.464 105.109L297.335 122.472C297.335 122.472 318.353 134.86 323.834 149.89C324.578 151.955 325.373 153.885 326.188 155.805C326.883 152.924 327.199 149.963 327.127 147Z" fill="#92E3A9"/>
</g>
<path d="M250.311 181.562C252.232 186.558 254.544 197.304 253.006 203.447C252.211 206.636 249.548 213.336 247.184 219.045L305.891 249.725C305.829 237.502 305.984 218.209 307.543 214.626C309.845 209.248 328.282 158.562 327.157 147.041C326.031 135.521 303.734 119.004 303.734 119.004L307.15 90.9248L286.804 103.22C286.804 103.22 284.491 114.348 282.189 117.042C279.887 119.737 261.068 123.566 255.69 130.462C250.311 137.358 252.232 158.5 252.232 159.646C252.232 160.792 248.391 176.607 250.311 181.562Z" stroke="#263238" stroke-linecap="round" stroke-linejoin="round"/>
<path d="M250.311 181.562C252.232 186.559 254.544 197.305 253.006 203.447C252.211 206.637 249.548 213.337 247.184 219.045L305.891 249.726C305.829 237.503 305.984 218.209 307.543 214.627C309.845 209.249 328.282 158.562 327.157 147.042C326.444 139.867 317.546 130.772 310.929 124.919C304.415 131.825 290.283 144.709 279.959 138.969C270.669 133.807 271.257 125.962 272.63 121.296C266.354 123.608 258.849 126.561 255.762 130.525C250.384 137.441 252.304 158.562 252.304 159.708C252.304 160.854 248.391 176.607 250.311 181.562Z" fill="#263238" stroke="#263238" stroke-linecap="round" stroke-linejoin="round"/>
<path d="M284.608 167.915L271.828 161.917C271.828 161.917 268.225 155.93 266.232 155.93C264.24 155.93 263.032 164.322 263.032 164.322C263.032 164.322 256.25 170.712 258.645 177.102C261.04 183.492 269.825 193.083 280.613 189.49C291.4 185.898 288.2 174.718 288.2 174.718C288.2 174.718 292.598 167.13 292.598 165.53C292.598 163.93 284.608 167.915 284.608 167.915Z" fill="white" stroke="#263238" stroke-linecap="round" stroke-linejoin="round"/>
<path d="M257.231 44.0688C257.231 44.0688 259.926 57.9017 259.534 67.5022C259.141 77.1027 255.311 80.9222 256.437 85.165C257.562 89.4078 271.415 105.14 279.86 106.668C288.304 108.196 308.279 95.1475 314.04 89.3872C319.8 83.6269 320.564 75.1826 319.8 71.7243C319.036 68.2661 315.96 40.6208 304.439 29.4822C292.918 18.3436 262.61 19.4998 257.231 44.0688Z" fill="white"/>
<g style="mix-blend-mode:multiply" opacity="0.5">
<path d="M304.498 29.4818C300.194 25.3526 293.257 22.8751 285.979 22.7202L285.504 37.0487C285.504 37.0487 283.212 51.212 291.44 62.6293C299.667 74.0467 306.976 77.2571 307.884 81.82C308.793 86.3828 304.664 90.9249 294.175 98.7292C290.074 101.833 285.68 104.53 281.055 106.781C290.046 107.101 308.576 94.9096 314.089 89.3868C319.849 83.6265 320.613 75.1822 319.849 71.724C319.085 68.2657 315.988 40.6205 304.498 29.4818Z" fill="#92E3A9"/>
</g>
<path d="M257.231 44.0688C257.231 44.0688 259.926 57.9017 259.534 67.5022C259.141 77.1027 255.311 80.9222 256.437 85.165C257.562 89.4078 271.415 105.14 279.86 106.668C288.304 108.196 308.279 95.1475 314.04 89.3872C319.8 83.6269 320.564 75.1826 319.8 71.7243C319.036 68.2661 315.96 40.6208 304.439 29.4822C292.918 18.3436 262.61 19.4998 257.231 44.0688Z" stroke="#263238" stroke-linecap="round" stroke-linejoin="round"/>
<path d="M271.827 72.4883C271.827 72.4883 270.671 79.7867 268.73 82.0888C270.237 83.4031 272.118 84.2118 274.109 84.4011" stroke="#263238" stroke-linecap="round" stroke-linejoin="round"/>
<path d="M272.59 90.925C275.092 92.034 277.818 92.5425 280.552 92.4098C283.285 92.2772 285.95 91.5071 288.333 90.1611" stroke="#263238" stroke-linecap="round" stroke-linejoin="round"/>
<path d="M286.414 68.6477C286.414 69.9278 285.816 70.9601 285.072 70.9601C284.329 70.9601 283.73 69.9278 283.73 68.6477C283.73 67.3677 284.329 66.3457 285.072 66.3457C285.816 66.3457 286.414 67.378 286.414 68.6477Z" fill="#263238"/>
<path d="M267.407 65.5818C267.407 66.8516 266.808 67.8839 266.065 67.8839C265.321 67.8839 264.723 66.8516 264.723 65.5818C264.723 64.3121 265.321 63.2798 266.065 63.2798C266.808 63.2798 267.407 64.3121 267.407 65.5818Z" fill="#263238"/>
<path d="M262.227 55.5993C263.303 54.9271 264.504 54.4783 265.758 54.2797C267.012 54.081 268.293 54.1366 269.525 54.4431" stroke="#263238" stroke-linecap="round" stroke-linejoin="round"/>
<path d="M280.27 55.9815C280.27 55.9815 282.572 54.8253 287.568 57.9016" stroke="#263238" stroke-linecap="round" stroke-linejoin="round"/>
<path d="M282.571 33.7042C282.571 33.7042 271.825 42.5407 266.446 47.9087C261.068 53.2768 258.766 57.1273 250.704 53.6794C242.641 50.2314 236.871 38.3083 247.607 24.1037C258.343 9.89908 279.103 5.66661 299.449 11.4269C319.796 17.1872 328.261 30.2459 329.789 44.4608C331.317 58.6757 328.241 74.4081 321.014 78.6406C313.788 82.8731 297.581 65.5819 291.821 54.8252C288.211 48.0273 285.119 40.9669 282.571 33.7042Z" fill="#263238" stroke="#263238" stroke-linecap="round" stroke-linejoin="round"/>
<path d="M282.572 33.7041C282.572 33.7041 253.574 37.9779 252.201 44.4092C250.828 50.8404 259.562 49.0132 259.562 49.0132" stroke="white" stroke-miterlimit="10"/>
<path d="M248.466 37.9473C246.505 42.1384 248.064 44.8741 248.064 44.8741" stroke="white" stroke-miterlimit="10"/>
<path d="M311.529 20.0365C311.529 20.0365 283.47 15.4427 283.47 27.8511C283.47 27.8511 266.458 21.874 255.422 30.1532C253.766 31.3606 252.247 32.7452 250.891 34.2824" stroke="white" stroke-miterlimit="10"/>
<path d="M284.887 30.6177C284.887 30.6177 292.041 53.7001 306.968 59.5946" stroke="white" stroke-miterlimit="10"/>
<path d="M299.77 36.8218C305.519 41.5704 313.747 46.2571 323.513 45.7926" stroke="white" stroke-miterlimit="10"/>
<path d="M290.832 27.3965C292.176 29.2455 293.653 30.9947 295.25 32.6303" stroke="white" stroke-miterlimit="10"/>
<path d="M254.546 57.5193L299.472 65.1997C299.472 65.1997 299.472 72.0336 297.552 75.5228C295.632 79.012 293.33 79.0533 288.334 79.0533C283.337 79.0533 276.39 75.9564 276.049 74.8312C275.254 72.1059 275.791 63.1144 275.791 63.1144L272.209 62.5363C272.209 62.5363 272.674 73.0143 270.754 74.1705C268.833 75.3267 256.157 73.0143 253.855 69.9483C251.553 66.8824 253.008 57.127 254.546 57.5193Z" stroke="#263238" stroke-linecap="round" stroke-linejoin="round"/>
<path d="M299.473 65.1999L319.448 61.7417V64.4257L299.473 69.4221V65.1999Z" fill="#92E3A9" stroke="#263238" stroke-linecap="round" stroke-linejoin="round"/>
<path d="M334.188 67.5903C335.748 57.8802 332.09 49.2173 326.016 48.2411C319.942 47.265 313.753 54.3453 312.193 64.0555C310.632 73.7656 314.291 82.4285 320.365 83.4046C326.438 84.3807 332.627 77.3004 334.188 67.5903Z" fill="#92E3A9" stroke="#263238" stroke-linecap="round" stroke-linejoin="round"/>
<path d="M337.399 67.9767C336.087 76.1526 331.535 82.2123 327.251 81.5206C322.967 80.829 320.541 73.6545 321.852 65.4786C323.163 57.3027 327.705 51.2533 332 51.945C336.294 52.6366 338.71 59.8112 337.399 67.9767Z" fill="#92E3A9" stroke="#263238" stroke-linecap="round" stroke-linejoin="round"/>
<path d="M331.338 33.704C332.081 44.4509 330.91 55.2441 327.88 65.5818C327.88 65.5818 327.498 71.7756 333.259 69.04C339.019 66.3044 338.255 42.9226 337.481 33.3221C336.707 23.7216 329.429 26.4056 331.338 33.704Z" fill="white" stroke="#263238" stroke-linecap="round" stroke-linejoin="round"/>
<path d="M309.847 15.649C309.847 15.649 318.673 13.3469 323.267 21.4196C327.86 29.4922 327.107 36.7803 333.59 37.5442C340.073 38.3082 340.506 31.0201 337.048 21.8015C333.59 12.583 326.302 5.66652 316.309 4.90261C306.316 4.1387 301.402 12.201 301.402 12.201C301.402 12.201 306.77 12.965 309.847 15.649Z" fill="#92E3A9" stroke="#263238" stroke-linecap="round" stroke-linejoin="round"/>
<path d="M309.072 159.285L282.573 219.582C282.573 219.582 210.373 233.002 203.849 233.002C197.325 233.002 184.235 237.606 181.572 239.196C178.908 240.786 152.801 252.771 157.829 253.514C160.926 253.979 168.936 249.571 168.936 249.571C168.936 249.571 156.26 255.764 157.405 257.633C158.551 259.501 173.922 251.873 173.922 251.873C173.922 251.873 159.873 260.131 162.753 260.596C165.375 261.06 168.544 259.563 171.238 257.633C173.588 256.191 176.119 255.066 178.764 254.288C178.764 254.288 172.57 258.417 171.837 260.296C171.104 262.175 173.375 261.06 175.677 260.296C179.985 258.438 184.15 256.265 188.137 253.793C189.665 252.636 194.28 250.334 197.356 247.65L203.498 242.272C203.498 242.272 244.584 243.418 263.372 242.654C282.16 241.89 291.41 239.97 298.326 233.054C305.243 226.137 324.825 182.357 329.43 170.454C334.034 158.552 330.968 151.635 326.333 143.614" fill="white"/>
<g style="mix-blend-mode:multiply" opacity="0.5">
<path d="M310.148 198.791C297.76 222.09 287.303 229.399 276.34 234.922C265.376 240.445 205.059 241.776 205.059 241.776L207.598 242.386C218.489 242.654 248.189 243.284 263.343 242.664C282.162 241.9 291.38 239.98 298.297 233.064C305.213 226.147 324.796 182.367 329.4 170.464C331.537 164.952 332.012 160.513 331.465 156.528L328.853 158.17C323.442 172.075 317.196 185.64 310.148 198.791Z" fill="#92E3A9"/>
</g>
<path d="M309.072 159.285L282.573 219.582C282.573 219.582 210.373 233.002 203.849 233.002C197.325 233.002 184.235 237.606 181.572 239.196C178.908 240.786 152.801 252.771 157.829 253.514C160.926 253.979 168.936 249.571 168.936 249.571C168.936 249.571 156.26 255.764 157.405 257.633C158.551 259.501 173.922 251.873 173.922 251.873C173.922 251.873 159.873 260.131 162.753 260.596C165.375 261.06 168.544 259.563 171.238 257.633C173.588 256.191 176.119 255.066 178.764 254.288C178.764 254.288 172.57 258.417 171.837 260.296C171.104 262.175 173.375 261.06 175.677 260.296C179.985 258.438 184.15 256.265 188.137 253.793C189.665 252.637 194.28 250.334 197.356 247.65L203.498 242.272C203.498 242.272 244.584 243.418 263.372 242.654C282.16 241.89 291.41 239.97 298.326 233.054C305.243 226.137 324.825 182.357 329.43 170.454C334.034 158.552 330.968 151.635 326.333 143.614" stroke="#263238" stroke-miterlimit="10"/>
<path d="M308.629 157.767L300.566 178.671C306.492 175.513 317.61 171.27 326.477 177.639C327.726 174.707 328.748 172.23 329.43 170.465C334.044 158.562 330.968 151.646 326.333 143.625" fill="#263238"/>
<path d="M308.629 157.767L300.566 178.671C306.492 175.513 317.61 171.27 326.477 177.639C327.726 174.707 328.748 172.23 329.43 170.465C334.044 158.562 330.968 151.646 326.333 143.625" stroke="#263238" stroke-linecap="round" stroke-linejoin="round"/>
<path d="M251.573 185.505C243.779 187.787 212.995 196.799 210.136 197.47C208.365 197.901 206.568 198.222 204.758 198.43C204.758 198.43 194.001 193.815 191.121 191.71C188.241 189.604 184.782 190.935 183.058 191.71C181.334 192.484 179.961 197.852 183.255 197.852C186.548 197.852 187.095 197.656 190.739 200.732C194.383 203.808 194.393 205.346 197.077 206.492C199.761 207.638 204.19 206.874 206.492 206.492C208.556 206.152 244.254 203.777 253.039 203.313C254.185 198.482 253.039 190.935 251.573 185.505Z" fill="white"/>
<g style="mix-blend-mode:multiply" opacity="0.5">
<path d="M252.802 191.059L206.492 206.544C208.557 206.203 244.254 203.829 253.039 203.364C253.824 199.999 253.535 195.405 252.802 191.059Z" fill="#92E3A9"/>
</g>
<path d="M251.573 185.505C243.779 187.787 212.995 196.799 210.136 197.47C208.365 197.901 206.568 198.222 204.758 198.43C204.758 198.43 194.001 193.815 191.121 191.71C188.241 189.604 184.782 190.935 183.058 191.71C181.334 192.484 179.961 197.852 183.255 197.852C186.548 197.852 187.095 197.656 190.739 200.732C194.383 203.808 194.393 205.346 197.077 206.492C199.761 207.638 204.19 206.874 206.492 206.492C208.556 206.152 244.254 203.777 253.039 203.313C254.185 198.482 253.039 190.935 251.573 185.505Z" stroke="#263238" stroke-linecap="round" stroke-linejoin="round"/>
<path d="M174.605 198.048C174.605 198.048 170.569 200.35 169.444 203.034C168.319 205.718 170.59 204.954 171.364 204.386C172.138 203.818 175.4 201.114 175.4 201.114L174.605 198.048Z" fill="white" stroke="#263238" stroke-linecap="round" stroke-linejoin="round"/>
<path d="M175.76 196.117C175.004 196.602 174.406 197.297 174.039 198.117C173.672 198.936 173.553 199.845 173.695 200.732C174.077 203.994 177.535 208.794 177.927 206.874C178.32 204.954 175.76 196.117 175.76 196.117Z" fill="white" stroke="#263238" stroke-linecap="round" stroke-linejoin="round"/>
<path d="M180.562 193.237C180.562 193.237 176.907 194.197 175.761 196.117C174.616 198.038 176.525 206.306 177.878 206.874C178.165 207.003 178.477 207.065 178.791 207.054C179.106 207.044 179.414 206.962 179.691 206.815C179.969 206.667 180.21 206.459 180.395 206.204C180.579 205.95 180.704 205.656 180.758 205.346C181.14 203.994 180.562 193.237 180.562 193.237Z" fill="white" stroke="#263238" stroke-linecap="round" stroke-linejoin="round"/>
<path d="M185.175 191.317C185.175 191.317 180.364 191.317 179.796 193.63C179.229 195.942 178.258 205.914 179.218 207.452C180.178 208.991 181.717 208.412 182.481 206.492C183.244 204.572 185.175 191.317 185.175 191.317Z" fill="white" stroke="#263238" stroke-linecap="round" stroke-linejoin="round"/>
<path d="M189.543 173.427L181.656 209.341L182.895 213.925C182.914 213.995 182.95 214.059 183.002 214.111C183.053 214.162 183.117 214.199 183.187 214.218C183.257 214.237 183.331 214.237 183.401 214.218C183.471 214.199 183.535 214.162 183.587 214.111L187.035 210.683L192.795 174.387L189.543 173.427Z" fill="#263238"/>
<path d="M197.272 202.415C197.272 202.415 192.854 204.149 189.396 205.687C185.937 207.225 182.479 207.989 182.861 210.105C183.243 212.222 184.781 211.447 187.279 210.683C190.707 209.488 194.25 208.651 197.85 208.185C202.65 207.607 206.491 203.189 206.491 203.189" fill="white"/>
<path d="M197.272 202.415C197.272 202.415 192.854 204.149 189.396 205.687C185.937 207.225 182.479 207.989 182.861 210.105C183.243 212.222 184.781 211.447 187.279 210.683C190.707 209.488 194.25 208.651 197.85 208.185C202.65 207.607 206.491 203.189 206.491 203.189" stroke="#263238" stroke-linecap="round" stroke-linejoin="round"/>
<path d="M181.758 209.899L182.563 213.285C182.602 213.448 182.684 213.598 182.8 213.72C182.915 213.842 183.061 213.931 183.221 213.979C183.382 214.027 183.553 214.032 183.716 213.994C183.88 213.955 184.03 213.875 184.153 213.76L186.042 211.964" stroke="white" stroke-width="0.5" stroke-linecap="round" stroke-linejoin="round"/>
<path d="M181.664 209.341L185.742 191.152" stroke="white" stroke-width="0.5" stroke-linecap="round" stroke-linejoin="round"/>
<path d="M40.5781 138.019L92.6582 186.455" stroke="#263238" stroke-width="0.5" stroke-linecap="round" stroke-linejoin="round"/>
</svg>
