<svg width="582" height="404" viewBox="0 0 582 404" fill="none" xmlns="http://www.w3.org/2000/svg">
<path opacity="0.1" d="M147.938 161.876H86.3442C84.1628 161.876 82.3945 163.645 82.3945 165.826V178.935C82.3945 181.116 84.1628 182.884 86.3442 182.884H147.938C150.12 182.884 151.888 181.116 151.888 178.935V165.826C151.888 163.645 150.12 161.876 147.938 161.876Z" fill="#EBEBEB"/>
<path opacity="0.1" d="M220.663 182.89H159.069C156.887 182.89 155.119 184.658 155.119 186.839V199.948C155.119 202.129 156.887 203.898 159.069 203.898H220.663C222.844 203.898 224.612 202.129 224.612 199.948V186.839C224.612 184.658 222.844 182.89 220.663 182.89Z" fill="#EBEBEB"/>
<path opacity="0.1" d="M293.395 203.898H231.801C229.62 203.898 227.852 205.666 227.852 207.848V220.956C227.852 223.138 229.62 224.906 231.801 224.906H293.395C295.577 224.906 297.345 223.138 297.345 220.956V207.848C297.345 205.666 295.577 203.898 293.395 203.898Z" fill="#EBEBEB"/>
<path opacity="0.1" d="M147.938 130.364H86.3442C84.1628 130.364 82.3945 132.133 82.3945 134.314V147.423C82.3945 149.604 84.1628 151.372 86.3442 151.372H147.938C150.12 151.372 151.888 149.604 151.888 147.423V134.314C151.888 132.133 150.12 130.364 147.938 130.364Z" fill="#EBEBEB"/>
<path opacity="0.1" d="M220.663 151.373H159.069C156.887 151.373 155.119 153.141 155.119 155.322V168.431C155.119 170.612 156.887 172.381 159.069 172.381H220.663C222.844 172.381 224.612 170.612 224.612 168.431V155.322C224.612 153.141 222.844 151.373 220.663 151.373Z" fill="#EBEBEB"/>
<path opacity="0.1" d="M293.395 172.386H231.801C229.62 172.386 227.852 174.154 227.852 176.335V189.444C227.852 191.625 229.62 193.394 231.801 193.394H293.395C295.577 193.394 297.345 191.625 297.345 189.444V176.335C297.345 174.154 295.577 172.386 293.395 172.386Z" fill="#EBEBEB"/>
<path opacity="0.1" d="M374.2 161.876H312.606C310.425 161.876 308.656 163.645 308.656 165.826V178.935C308.656 181.116 310.425 182.884 312.606 182.884H374.2C376.381 182.884 378.15 181.116 378.15 178.935V165.826C378.15 163.645 376.381 161.876 374.2 161.876Z" fill="#EBEBEB"/>
<path opacity="0.1" d="M446.925 182.89H385.33C383.149 182.89 381.381 184.658 381.381 186.839V199.948C381.381 202.129 383.149 203.898 385.33 203.898H446.925C449.106 203.898 450.874 202.129 450.874 199.948V186.839C450.874 184.658 449.106 182.89 446.925 182.89Z" fill="#EBEBEB"/>
<path opacity="0.1" d="M374.2 130.364H312.606C310.425 130.364 308.656 132.133 308.656 134.314V147.423C308.656 149.604 310.425 151.372 312.606 151.372H374.2C376.381 151.372 378.15 149.604 378.15 147.423V134.314C378.15 132.133 376.381 130.364 374.2 130.364Z" fill="#EBEBEB"/>
<path opacity="0.1" d="M446.925 151.373H385.33C383.149 151.373 381.381 153.141 381.381 155.322V168.431C381.381 170.612 383.149 172.381 385.33 172.381H446.925C449.106 172.381 450.874 170.612 450.874 168.431V155.322C450.874 153.141 449.106 151.373 446.925 151.373Z" fill="#EBEBEB"/>
<path opacity="0.1" d="M147.938 88.3433H86.3442C84.1628 88.3433 82.3945 90.1116 82.3945 92.2929V105.402C82.3945 107.583 84.1628 109.351 86.3442 109.351H147.938C150.12 109.351 151.888 107.583 151.888 105.402V92.2929C151.888 90.1116 150.12 88.3433 147.938 88.3433Z" fill="#EBEBEB"/>
<path opacity="0.1" d="M220.663 109.351H159.069C156.887 109.351 155.119 111.119 155.119 113.301V126.409C155.119 128.591 156.887 130.359 159.069 130.359H220.663C222.844 130.359 224.612 128.591 224.612 126.409V113.301C224.612 111.119 222.844 109.351 220.663 109.351Z" fill="#EBEBEB"/>
<path opacity="0.1" d="M293.395 130.364H231.801C229.62 130.364 227.852 132.133 227.852 134.314V147.423C227.852 149.604 229.62 151.372 231.801 151.372H293.395C295.577 151.372 297.345 149.604 297.345 147.423V134.314C297.345 132.133 295.577 130.364 293.395 130.364Z" fill="#EBEBEB"/>
<path opacity="0.1" d="M147.938 56.8257H86.3442C84.1628 56.8257 82.3945 58.594 82.3945 60.7753V73.8841C82.3945 76.0654 84.1628 77.8337 86.3442 77.8337H147.938C150.12 77.8337 151.888 76.0654 151.888 73.8841V60.7753C151.888 58.594 150.12 56.8257 147.938 56.8257Z" fill="#EBEBEB"/>
<path opacity="0.1" d="M220.663 77.8389H159.069C156.887 77.8389 155.119 79.6072 155.119 81.7885V94.8972C155.119 97.0786 156.887 98.8469 159.069 98.8469H220.663C222.844 98.8469 224.612 97.0786 224.612 94.8972V81.7885C224.612 79.6072 222.844 77.8389 220.663 77.8389Z" fill="#EBEBEB"/>
<path opacity="0.1" d="M293.395 98.8472H231.801C229.62 98.8472 227.852 100.615 227.852 102.797V115.906C227.852 118.087 229.62 119.855 231.801 119.855H293.395C295.577 119.855 297.345 118.087 297.345 115.906V102.797C297.345 100.615 295.577 98.8472 293.395 98.8472Z" fill="#EBEBEB"/>
<path opacity="0.1" d="M374.2 88.3433H312.606C310.425 88.3433 308.656 90.1116 308.656 92.2929V105.402C308.656 107.583 310.425 109.351 312.606 109.351H374.2C376.381 109.351 378.15 107.583 378.15 105.402V92.2929C378.15 90.1116 376.381 88.3433 374.2 88.3433Z" fill="#EBEBEB"/>
<path opacity="0.1" d="M446.925 109.351H385.33C383.149 109.351 381.381 111.119 381.381 113.301V126.409C381.381 128.591 383.149 130.359 385.33 130.359H446.925C449.106 130.359 450.874 128.591 450.874 126.409V113.301C450.874 111.119 449.106 109.351 446.925 109.351Z" fill="#EBEBEB"/>
<path opacity="0.1" d="M374.2 56.8257H312.606C310.425 56.8257 308.656 58.594 308.656 60.7753V73.8841C308.656 76.0654 310.425 77.8337 312.606 77.8337H374.2C376.381 77.8337 378.15 76.0654 378.15 73.8841V60.7753C378.15 58.594 376.381 56.8257 374.2 56.8257Z" fill="#EBEBEB"/>
<path opacity="0.1" d="M446.925 77.8389H385.33C383.149 77.8389 381.381 79.6072 381.381 81.7885V94.8972C381.381 97.0786 383.149 98.8469 385.33 98.8469H446.925C449.106 98.8469 450.874 97.0786 450.874 94.8972V81.7885C450.874 79.6072 449.106 77.8389 446.925 77.8389Z" fill="#EBEBEB"/>
<path opacity="0.1" d="M290.774 404C451.364 404 581.547 380.319 581.547 351.108C581.547 321.896 451.364 298.216 290.774 298.216C130.184 298.216 0 321.896 0 351.108C0 380.319 130.184 404 290.774 404Z" fill="#EBEBEB"/>
<path d="M127.58 170.637L103.127 320.542L213.695 308.847L208.911 296.09L122.53 303.266L142.73 170.371L127.58 170.637Z" fill="#3F3D56"/>
<path d="M98.873 0.531579L247.715 0L290.773 325.858L141.399 346.058L98.873 0.531579Z" fill="#3F3D56"/>
<path d="M115.086 13.0239H235.223L277.218 316.024L153.36 333.035L115.086 13.0239Z" fill="white"/>
<path d="M228.388 302.394C229.143 303.84 229.707 305.403 230.69 306.705C233.56 310.543 239.009 311.144 243.097 313.648C243.302 313.752 243.47 313.915 243.581 314.115C243.767 314.557 243.352 315.019 242.953 315.296C239.854 317.47 235.788 317.518 231.998 317.491C230.724 317.536 229.45 317.415 228.207 317.13C226.203 316.598 224.486 315.2 222.509 314.631C221.484 314.375 220.434 314.227 219.378 314.19L215.226 313.908C214.121 313.892 213.026 313.689 211.989 313.307C211.472 313.11 211.014 312.784 210.657 312.361C210.3 311.938 210.056 311.432 209.948 310.889C209.831 310.006 210.208 309.151 210.431 308.289C210.963 306.248 210.798 303.782 212.388 302.389C213.043 301.887 213.793 301.526 214.594 301.326C217.483 300.352 220.432 299.567 223.423 298.976C225.884 298.492 227.298 300.3 228.388 302.394Z" fill="#3F3D56"/>
<path d="M181.429 313.892C181.535 315.024 181.567 316.321 180.748 317.113C180.239 317.537 179.623 317.812 178.967 317.911C175.039 318.825 170.659 318.889 167.241 316.752C166.885 316.549 166.571 316.28 166.316 315.96C166.031 315.524 165.869 315.019 165.848 314.498C165.726 312.994 166.188 311.511 166.608 310.059C167.602 306.616 168.357 303.108 168.867 299.561C168.91 299.268 178.898 301.155 179.563 302.144C180.397 303.367 180.403 306.301 180.626 307.758C180.963 309.792 181.23 311.837 181.429 313.892Z" fill="#3F3D56"/>
<path d="M218.607 175.565L221.265 200.278C221.797 205.328 222.355 210.404 221.988 215.47C221.563 221.318 219.925 227.165 220.616 232.959C220.888 235.213 221.504 237.424 221.595 239.694C221.611 241.204 221.535 242.713 221.366 244.213C220.165 259.209 223.965 274.087 226.092 288.977C226.434 290.814 226.509 292.69 226.315 294.548C226.039 296.435 225.486 298.912 227.166 299.805L211.388 305.525C209.374 303 210.708 299.072 210.325 295.866C209.974 292.98 208.39 290.407 207.545 287.627C206.779 285.128 206.62 282.497 206.37 279.903C204.993 265.779 200.767 252.022 199.779 237.866C199.747 236.499 199.569 235.139 199.247 233.81C198.715 232.05 197.652 230.514 196.876 228.861C195.685 226.378 195.101 223.657 194.527 220.967L191.151 205.152C187.738 210.234 187.877 216.847 187.201 222.939C186.255 231.444 184.14 239.806 182.417 248.205C182.017 250.012 181.717 251.84 181.519 253.68C181.072 258.608 181.96 263.583 181.487 268.506C180.955 274.21 178.558 279.775 179.137 285.479C179.456 288.637 180.668 291.624 181.487 294.686C182.306 297.748 182.71 301.108 181.46 304.026C177.094 302.423 172.404 301.905 167.793 302.516C162.728 297.333 161.829 290.104 161.484 282.848C161.138 275.592 161.973 268.325 161.069 261.138C160.803 259.012 160.389 256.939 160.319 254.818C160.096 248.019 163.365 241.656 164.992 235.048C166.456 229.1 166.596 222.903 165.401 216.895C164.604 212.924 163.233 209.07 162.743 205.046C162.079 199.406 163.206 193.723 164.338 188.152C165.098 184.394 165.853 180.636 166.714 176.899C167.639 172.885 168.74 168.787 171.212 165.502C175.166 160.244 182.189 157.911 188.754 158.421C195.319 158.931 201.448 161.919 206.87 165.64C211.143 168.496 215.081 171.825 218.607 175.565Z" fill="#192534"/>
<path d="M200.968 80.933C200.67 81.4119 200.462 81.9417 200.356 82.4958C200.224 83.5855 200.888 84.5849 201.42 85.5364C202.101 86.7589 202.624 88.0628 202.977 89.417C203.23 90.2551 203.308 91.1363 203.206 92.0057C203.076 92.6588 202.843 93.2869 202.515 93.8663C201.489 95.8437 199.968 97.6724 197.901 98.4963C196.299 99.086 194.553 99.1567 192.909 98.6983C191.276 98.2361 189.733 97.503 188.343 96.5295C187.171 95.787 186.118 94.8732 185.217 93.8184C184.357 92.665 183.633 91.4165 183.059 90.0974C181.953 87.785 180.832 85.3132 181.034 82.7775C181.044 82.5476 181.087 82.3203 181.161 82.1024C181.334 81.7087 181.575 81.3487 181.873 81.0393C184.141 78.3517 185.304 74.9032 185.127 71.3911L192.872 73.1506C194.578 73.5387 196.285 73.9267 197.97 74.4105C199.352 74.8092 201.478 75.362 202.376 76.5953C203.275 77.8285 201.579 79.806 200.968 80.933Z" fill="#FBBEBE"/>
<path d="M196.822 79.6148C204.596 79.6148 210.899 73.3127 210.899 65.5386C210.899 57.7645 204.596 51.4624 196.822 51.4624C189.048 51.4624 182.746 57.7645 182.746 65.5386C182.746 73.3127 189.048 79.6148 196.822 79.6148Z" fill="#FBBEBE"/>
<path d="M194.559 93.9354C195.154 92.6331 196.441 91.8091 197.615 90.9905C198.79 90.1719 199.981 89.1246 200.209 87.7053C200.224 87.3843 200.303 87.0695 200.443 86.7804C200.895 86.1 201.969 86.4402 202.612 86.9399C204.175 88.1572 205.238 89.8848 206.275 91.5699C207.616 93.6191 208.764 95.7884 209.703 98.0499C211.197 101.989 211.378 106.289 211.543 110.494C211.692 114.321 211.835 118.207 210.905 121.918C210.32 124.267 209.31 126.548 209.252 128.966C209.076 137.753 206.025 146.152 205.812 154.939C205.796 157.48 205.924 160.02 206.195 162.546L206.695 168.25C198.966 167.807 191.258 167.129 183.571 166.214C183.348 163.588 182.598 161.042 181.913 158.501C179.105 148.113 177.305 137.478 176.538 126.744C176.129 121.046 175.709 115.369 175.076 109.691C174.508 104.53 173.391 99.3363 174.061 94.1853C174.412 91.844 175.148 89.577 176.241 87.4767C176.586 86.64 177.18 85.9294 177.942 85.4408C178.322 85.2568 178.727 85.1262 179.143 85.0527C180.348 84.8086 181.571 84.6646 182.8 84.6222C183.101 84.5969 183.403 84.6257 183.693 84.7072C184.211 84.9654 184.636 85.3777 184.911 85.8873C187.279 89.4481 190.631 92.2441 194.559 93.9354Z" fill="#F2F2F2"/>
<path d="M188.029 92.8085C189.018 94.2225 191.112 94.5574 192.027 95.998C192.335 96.6001 192.569 97.2373 192.723 97.8957C193.281 99.6765 194.408 101.223 195.094 102.962C196.083 105.46 196.109 108.224 196.12 110.909C196.217 113.047 196.053 115.189 195.631 117.288C195.312 118.601 194.791 119.85 194.408 121.147C193.758 123.353 193.517 125.659 193.696 127.951C193.696 128.446 193.828 128.933 194.079 129.36C194.439 129.787 194.91 130.107 195.44 130.285C196.997 130.971 198.629 131.672 200.33 131.513C200.679 131.502 201.017 131.389 201.303 131.189C201.5 131.009 201.662 130.794 201.781 130.556L202.844 128.759C203.807 127.117 204.811 125.277 204.439 123.401C204.169 122.432 203.763 121.507 203.232 120.653C202.553 119.266 201.974 117.832 201.5 116.363C199.804 111.488 198.087 106.545 197.704 101.399C197.479 99.4405 197.697 97.4567 198.342 95.594C198.841 94.4476 199.469 93.3615 200.213 92.3567C200.045 92.1308 199.812 91.9616 199.545 91.8713C199.278 91.7811 198.99 91.7743 198.719 91.8517C198.185 92.0169 197.667 92.2323 197.172 92.4949C195.61 93.154 193.877 92.9148 192.298 92.463C191.681 92.2823 190.703 91.6656 190.065 91.7082C189.847 91.7347 188.067 92.8723 188.029 92.8085Z" fill="#EBEBEB"/>
<path d="M200.474 92.7501C200.155 92.4949 199.66 92.261 199.379 92.5587C199.284 92.6878 199.215 92.834 199.177 92.9893C198.9 93.7335 198.087 94.1003 197.348 94.3873C196.609 94.6744 195.812 94.8339 195.365 94.2863C195.224 94.0732 195.155 93.8206 195.167 93.5654C195.18 93.3101 195.273 93.0655 195.434 92.867C195.761 92.4731 196.155 92.1401 196.598 91.8836C199.044 90.1577 200.709 87.5369 201.234 84.5903C201.92 85.1353 202.373 85.9197 202.504 86.7857C202.68 87.631 202.701 88.5028 202.876 89.348C203.137 90.56 203.716 91.6922 203.849 92.9202C203.918 93.574 203.849 94.2332 203.849 94.887C203.873 95.5263 203.948 96.1626 204.072 96.7901C202.829 95.4718 201.951 93.9249 200.474 92.7501Z" fill="#F2F2F2"/>
<path d="M189.716 89.1407C189.185 88.6357 188.653 88.1573 188.121 87.6417C185.789 85.3649 184.027 82.569 182.981 79.4819C182.301 80.0135 181.551 80.7152 181.535 81.6082C181.596 82.2402 181.84 82.8406 182.237 83.3359C184.247 86.5016 185.574 90.0521 186.133 93.7601C186.42 93.3115 186.818 92.9443 187.288 92.6939C187.759 92.4434 188.285 92.3182 188.818 92.3302C189.658 92.3302 193.427 94.5628 193.698 93.9994C194.096 93.1169 190.354 89.7414 189.716 89.1407Z" fill="#F2F2F2"/>
<path d="M201.585 84.9091C206.585 89.8869 212.706 93.5929 219.435 95.7161C220.104 95.862 220.724 96.1768 221.237 96.6305C221.62 97.1089 221.878 97.6753 221.987 98.2784C223.284 103.35 223.72 108.596 224.15 113.811C224.263 114.674 224.245 115.548 224.097 116.405C223.783 117.798 222.795 118.925 221.822 119.972C218.771 123.241 215.289 126.659 214.773 131.103C214.734 131.96 214.633 132.813 214.47 133.655C214.204 134.644 213.614 135.515 213.253 136.478C211.477 141.214 215.491 146.95 213.046 151.362C214.369 153.905 215.277 156.644 215.735 159.474C215.817 160.547 216.063 161.601 216.464 162.599C217.192 164.12 218.691 165.087 219.871 166.32C223.47 170.01 223.911 175.655 224.124 180.806C224.257 183.708 224.214 187.041 221.997 188.944C220.716 190.055 218.967 190.417 217.293 190.693C215.066 191.065 212.642 191.331 210.669 190.231C209.255 189.444 208.293 188.067 207.374 186.738C205.63 184.203 203.881 181.672 202.228 179.073C199.613 174.975 197.146 170.291 197.901 165.486C197.688 170.403 196.652 175.357 194.238 179.642C191.825 183.926 187.939 187.504 183.224 188.918C178.509 190.332 172.996 189.333 169.483 185.888C168.336 184.707 167.351 183.379 166.554 181.938C164.554 178.513 163.094 174.8 162.227 170.929C161.998 169.925 161.828 168.803 162.333 167.905C162.572 167.479 162.939 167.144 163.189 166.724C164.029 165.295 163.221 163.492 162.407 162.036C161.169 162.153 160.281 160.696 160.393 159.452C160.504 158.209 161.249 157.129 161.775 155.997C163.316 152.659 162.976 148.773 162.232 145.174C161.488 141.575 160.377 137.998 160.462 134.325C160.552 130.439 157.756 126.941 155.624 123.693C154.434 121.865 153.046 120.163 152.01 118.244C149.849 114.206 149.349 109.484 150.617 105.083C151.361 102.823 152.338 100.646 153.53 98.5867L155.284 95.2962C155.611 94.51 156.118 93.8116 156.764 93.2575C157.411 92.7035 158.178 92.3092 159.005 92.1067L171.141 87.3225C172.693 86.7925 174.166 86.0558 175.521 85.1324C177.005 84.0161 178.11 82.4745 179.524 81.2838C179.73 81.0673 179.977 80.8942 180.251 80.7747C180.525 80.6551 180.82 80.5914 181.119 80.5874C182.257 80.6884 182.661 82.1237 182.777 83.2453C183.043 85.7544 184.904 87.8807 185.536 90.3206C188.96 103.796 196.205 116.224 198.193 129.982C200.426 124.618 202.659 119.244 205.518 114.194C205.97 113.469 206.349 112.701 206.651 111.903C206.994 110.751 207.122 109.545 207.028 108.346C206.885 104.886 205.965 101.505 205.056 98.1614C203.876 93.6111 202.813 89.4169 201.585 84.9091Z" fill="#3F3D56"/>
<path d="M224.714 126.085C224.948 128.35 225.177 130.619 225.597 132.857C226.086 135.446 226.83 137.977 227.569 140.507C227.93 141.929 228.447 143.307 229.11 144.616C229.351 144.996 229.542 145.405 229.679 145.833C229.94 146.896 229.344 147.96 229.089 149.023C228.324 152.212 230.62 155.758 229.174 158.697C228.738 159.591 227.978 160.329 227.691 161.286C227.356 162.387 227.691 163.561 227.867 164.699C228.318 167.888 227.229 171.131 226.155 174.198L224.326 179.376C222.657 176.271 220.972 173.135 218.665 170.472C217.841 169.515 216.943 168.627 216.182 167.617C215.049 166.03 214.154 164.286 213.524 162.44C211.902 158.053 210.974 153.44 210.776 148.768C210.644 147.439 210.798 146.098 211.228 144.834C211.58 144.103 211.974 143.393 212.408 142.708C213.833 140.14 214.125 137.099 214.099 134.165C214.072 131.231 213.758 128.286 214.099 125.367C214.376 122.931 215.097 120.565 216.225 118.388C216.89 116.978 217.879 115.745 219.111 114.789C220.031 114.101 221.152 113.736 222.301 113.752C224.039 113.853 223.64 115.347 223.789 116.788L224.714 126.085Z" fill="#3F3D56"/>
<path d="M146.525 118.851C145.441 122.04 144.463 125.258 143.591 128.504C142.74 131.693 141.98 134.901 141.31 138.126C140.966 139.544 140.774 140.994 140.736 142.453C140.804 144.151 141.096 145.833 141.603 147.455C145.026 159.793 151.267 171.174 158.294 181.875C160.302 179.37 162.688 177.193 165.364 175.421C165.583 175.291 165.766 175.109 165.896 174.89C165.963 174.683 165.983 174.464 165.954 174.248C165.924 174.033 165.846 173.827 165.726 173.646C163.786 169.67 160.713 166.166 159.746 161.845C159.342 160.048 159.326 158.177 158.868 156.391C158.278 154.078 156.96 151.963 156.657 149.592C156.333 147.008 157.189 144.191 155.977 141.9C158.449 140.938 159.878 138.391 160.926 135.951C162.045 133.455 162.845 130.828 163.307 128.132C164.035 122.963 163.023 117.699 160.431 113.168C159.165 110.908 157.541 108.868 155.621 107.129C154.988 106.56 153.494 104.929 152.575 104.944C151.347 104.971 150.953 106.959 150.602 107.852C149.183 111.499 147.78 115.151 146.525 118.851Z" fill="#3F3D56"/>
<path d="M168.542 178.35C168.702 178.467 168.882 178.627 168.84 178.818C168.797 179.009 168.643 179.057 168.505 179.137C167.786 179.647 167.25 180.373 166.974 181.21C166.091 183.201 165.32 185.24 164.667 187.318C163.477 185.536 162.078 183.903 160.499 182.454C159.287 181.338 157.932 180.28 157.283 178.77C157.283 178.728 160.069 176.67 160.324 176.447C161.105 175.751 162.089 173.821 162.897 173.396C163.811 172.917 164.683 174.794 165.379 175.549C166.337 176.586 167.397 177.524 168.542 178.35Z" fill="#FBBEBE"/>
<path d="M211.771 63.3376C211.734 62.6412 211.644 61.8704 211.112 61.4186C210.645 61.0958 210.083 60.9403 209.517 60.9774C206.418 60.8764 203.213 61.3973 200.289 60.3554C198.365 59.6697 196.722 58.3513 194.846 57.5327C192.969 56.7141 190.566 56.4961 189.051 57.8729C187.903 58.9361 187.59 60.568 187.191 62.0724C186.313 65.3927 184.75 68.4926 182.603 71.173C181.163 70.7265 180.132 69.4401 179.467 68.0899C177.208 63.4864 178.319 57.9899 179.924 53.11C180.456 51.4727 181.046 49.8514 181.636 48.2354L182.933 44.6632C184.635 44.496 186.217 43.709 187.377 42.4518L187.935 43.8073C189.377 43.7555 190.768 43.2639 191.922 42.3987C192.368 43.2386 193.517 43.4618 194.447 43.1907C195.377 42.9196 196.18 42.3987 197.105 42.1276C199.577 41.3302 202.213 42.5581 204.807 42.6964C205.905 42.6696 207.004 42.7016 208.098 42.792C211.16 43.2864 213.323 46.1676 214.259 49.1231C214.881 51.09 215.396 53.5087 217.337 54.205C217.379 54.9492 216.061 55.0928 215.949 55.7998C215.936 56.0355 215.992 56.27 216.109 56.4749L217.89 60.2969C217.038 60.5106 216.143 60.4662 215.317 60.1693C214.514 62.0565 211.851 64.7781 211.771 63.3376Z" fill="#192534"/>
<path d="M302.011 71.657C302.913 74.5718 303.623 77.5426 304.137 80.5503C304.52 82.8042 304.743 85.308 303.451 87.1897C308.374 79.7848 313.514 72.1567 320.993 67.3778C319.47 65.7264 318.312 63.7731 317.593 61.6447C316.874 59.5164 316.611 57.2606 316.82 55.0239C316.863 54.5774 310.681 56.911 310.207 57.1768C308.039 58.3835 306.051 59.8825 303.935 61.1743C302.84 61.8387 298.279 63.4122 298.236 64.3637C298.236 64.9751 300.049 66.8462 300.389 67.4894C301.057 68.8258 301.599 70.2209 302.011 71.657Z" fill="#FBBEBE"/>
<path d="M324.885 350.938C323.669 350.082 322.245 349.57 320.763 349.458C319.28 349.346 317.795 349.637 316.465 350.3C314.057 351.544 312.435 353.899 310.245 355.493C306.482 358.226 301.511 358.444 297.104 359.921C295.935 360.315 294.691 360.9 294.197 362.048C294.031 362.53 293.965 363.042 294.002 363.551C294.04 364.059 294.18 364.555 294.415 365.009C295.151 366.651 296.442 367.981 298.061 368.767C300.039 369.713 302.314 369.756 304.504 369.782L323.535 370.005C329.382 370.075 335.267 370.144 341.077 370.872C342.432 371.042 343.899 371.228 345.095 370.564C347.041 369.5 347.264 366.811 347.115 364.594C346.724 358.978 345.469 353.455 343.394 348.221C343.166 347.642 342.863 346.983 342.22 346.876C341.763 346.856 341.314 346.999 340.954 347.28C335.586 350.47 328.787 352.272 323.077 349.72" fill="white"/>
<path d="M334.412 229.525C332.285 241.874 333.673 254.562 336.065 266.858C336.505 269.306 337.086 271.727 337.803 274.109C338.659 276.82 339.813 279.424 340.615 282.151C342.657 289.062 342.369 296.451 342.066 303.664L340.674 336.489C340.557 339.243 340.451 342.06 341.28 344.686C341.615 345.749 342.024 347.078 341.179 347.796C340.848 348.033 340.462 348.182 340.057 348.227C336.253 348.927 332.325 348.338 328.894 346.552L328.517 313.392C328.4 303.17 328.277 292.905 326.704 282.81C325.455 274.784 323.286 266.863 323.142 258.741C322.993 250.235 325.077 241.842 327.204 233.597C327.661 231.832 329.33 230.54 330.701 229.344C331.18 228.872 331.763 228.519 332.402 228.313C333.04 228.138 334.018 228.988 334.412 229.525Z" fill="#3F3D56"/>
<path opacity="0.1" d="M334.412 229.525C332.285 241.874 333.673 254.562 336.065 266.858C336.505 269.306 337.086 271.727 337.803 274.109C338.659 276.82 339.813 279.424 340.615 282.151C342.657 289.062 342.369 296.451 342.066 303.664L340.674 336.489C340.557 339.243 340.451 342.06 341.28 344.686C341.615 345.749 342.024 347.078 341.179 347.796C340.848 348.033 340.462 348.182 340.057 348.227C336.253 348.927 332.325 348.338 328.894 346.552L328.517 313.392C328.4 303.17 328.277 292.905 326.704 282.81C325.455 274.784 323.286 266.863 323.142 258.741C322.993 250.235 325.077 241.842 327.204 233.597C327.661 231.832 329.33 230.54 330.701 229.344C331.18 228.872 331.763 228.519 332.402 228.313C333.04 228.138 334.018 228.988 334.412 229.525Z" fill="black"/>
<path d="M294.495 190.932C293.709 194.17 295.378 197.524 295.192 200.852C295.085 202.866 294.293 204.876 294.66 206.853C295.027 208.831 296.441 210.319 297.196 212.132C297.746 213.646 298.037 215.241 298.057 216.852C298.275 220.828 298.099 224.826 297.951 228.786C297.701 235.431 297.515 242.113 298.392 248.699C299.156 254.405 300.707 259.978 303.001 265.258C303.696 266.694 304.27 268.186 304.718 269.718C305.011 271.145 305.207 272.591 305.302 274.045C305.808 278.774 307.077 283.389 309.061 287.712C310.416 290.673 312.782 293.027 313.531 296.169C314.243 299.178 313.765 302.351 314.281 305.397C314.658 307.657 315.578 309.793 316.088 312.026C316.752 314.913 316.737 317.905 317.071 320.85C318.028 329.356 321.893 337.861 319.586 346.111C319.123 347.769 318.406 349.455 318.73 351.145C318.889 351.974 319.293 352.793 319.113 353.617C318.964 354.318 318.422 354.861 318.145 355.525C317.614 356.769 318.177 358.247 319.123 359.209C320.133 360.106 321.306 360.799 322.579 361.25C326.496 362.925 330.552 364.626 334.805 364.589C335.321 364.616 335.837 364.521 336.309 364.312C337.075 363.914 337.452 363.047 337.776 362.25L339.956 356.859C340.222 356.206 340.488 355.44 340.121 354.834C339.865 354.502 339.556 354.214 339.206 353.984C337.447 352.501 337.846 349.731 338.313 347.504C339.508 341.783 340.17 335.964 340.291 330.121C340.525 318.469 338.606 306.886 336.692 295.388C336.028 291.396 335.358 287.377 334.034 283.549C332.71 279.722 330.76 276.038 331.079 272.062C331.419 267.767 330.302 263.264 331.079 259.028C331.855 254.791 333.083 250.645 333.875 246.413C334.901 240.922 335.156 235.325 335.469 229.754C335.602 227.478 335.772 225.129 336.836 223.109C337.458 221.929 338.361 220.919 339.058 219.776C340.854 216.804 341.141 213.12 342.858 210.101C343.672 208.671 344.793 207.411 345.389 205.88C345.807 204.673 346.026 203.405 346.037 202.127C346.206 198.919 346.027 195.702 345.506 192.532C336.457 187.928 326.421 185.6 316.269 185.749C312.383 185.813 308.455 186.207 304.808 187.552C301.331 188.843 298.163 190.656 294.495 190.932Z" fill="#3F3D56"/>
<path d="M316.29 359.348C314.727 361.293 314.834 364.073 313.834 366.364C312.622 369.145 309.922 370.925 307.36 372.547L291.412 382.647C290.54 383.178 289.605 383.832 289.286 384.821C289.134 385.452 289.162 386.113 289.366 386.729C289.746 388.063 290.456 389.28 291.429 390.268C292.403 391.256 293.609 391.984 294.937 392.385C296.348 392.721 297.797 392.87 299.248 392.826L306.419 392.922C308.603 393.008 310.791 392.922 312.962 392.667C314.95 392.38 316.885 391.811 318.863 391.45C322.462 390.796 326.161 390.854 329.766 390.222C331.972 389.788 334.152 389.225 336.293 388.537C338.898 387.755 341.551 386.942 343.783 385.395C344.398 385.021 344.897 384.484 345.224 383.843C345.601 382.966 345.394 381.961 345.181 381.031L341.758 365.987C341.565 364.734 341.108 363.537 340.418 362.473C339.658 361.463 338.292 360.793 337.107 361.224C336.618 361.447 336.156 361.725 335.73 362.053C333.976 363.207 331.727 363.398 329.654 363.037C328.314 362.798 326.544 362.431 325.465 361.543C324.646 360.868 324.402 359.821 323.706 359.055C323.217 358.554 322.629 358.161 321.979 357.901C321.329 357.642 320.632 357.522 319.933 357.55C319.233 357.577 318.548 357.752 317.92 358.061C317.293 358.371 316.737 358.809 316.29 359.348Z" fill="white"/>
<path d="M305.95 69.5838C316.557 69.5838 325.156 60.985 325.156 50.3778C325.156 39.7707 316.557 31.1719 305.95 31.1719C295.343 31.1719 286.744 39.7707 286.744 50.3778C286.744 60.985 295.343 69.5838 305.95 69.5838Z" fill="#FBBEBE"/>
<path d="M291.136 51.5048C292.975 50.4736 292.975 47.502 294.857 46.5133C296.738 45.5246 298.875 47.2416 300.082 48.9745C301.841 51.5125 303.062 54.3834 303.67 57.4107C303.84 58.2718 304 59.2127 304.648 59.8134C305.297 60.4141 306.147 60.4885 306.977 60.5736C309.404 60.8146 311.835 61.0343 314.27 61.2327C316.981 61.4507 319.841 61.6261 322.302 60.4619C323.273 60.0277 324.108 59.3366 324.715 58.4632C325.203 57.6245 325.551 56.7126 325.747 55.7628C327.017 50.9307 328.298 46.0402 328.405 41.0434C328.447 38.9808 328.266 36.8439 327.272 35.0365C326.693 33.9734 325.842 33.0484 325.603 31.8789C325.364 30.7095 326.135 29.221 327.347 29.3486C326.251 29.3937 325.16 29.1863 324.157 28.7426C323.195 28.211 322.483 27.0681 322.823 26.0263C320.123 26.3718 318.156 23.7033 316.051 21.9756C315.708 21.6363 315.246 21.4453 314.764 21.444C314.394 21.5363 314.037 21.6738 313.701 21.8534C312.638 22.2255 311.527 21.5185 310.437 21.2101C307.514 20.3915 303.798 22.369 301.629 20.2427C301.836 21.5982 300.172 22.5072 298.801 22.4806C297.43 22.454 296.016 21.949 294.718 22.4062C294.906 22.7498 295.016 23.1306 295.04 23.5215C295.063 23.9124 295 24.3037 294.855 24.6673C294.709 25.031 294.486 25.358 294.199 25.6251C293.913 25.8922 293.571 26.0927 293.198 26.2123L293.841 27.6157C293.179 27.7482 292.566 28.0633 292.073 28.5254C291.58 28.9875 291.226 29.5783 291.051 30.231C290.344 33.0218 290.519 36.9874 290.689 39.8579C290.774 41.1178 292.002 51.0317 291.136 51.5048Z" fill="#192534"/>
<path d="M307.523 75.1334C297.875 85.9829 295.419 101.255 293.362 115.634L290.332 136.866C289.545 142.373 288.737 147.88 288.052 153.403C287.573 157.183 287.127 161.021 287.648 164.795C288.057 167.772 289.051 170.642 289.88 173.507C292.038 181.023 293.112 188.807 293.07 196.626C293.713 194.733 295.94 193.968 297.896 193.543C314.311 189.981 331.436 191.81 346.727 198.757C349.412 191.236 348.907 183.007 349.656 175.054C350.719 163.716 354.382 152.728 355.466 141.411C355.865 137.195 355.913 132.959 355.956 128.722C355.987 125.612 356.019 122.471 355.371 119.425C354.648 116.054 353.122 112.913 351.543 109.856C347.179 101.36 342.33 93.1206 337.021 85.1803C334.349 81.1828 331.561 77.2651 328.659 73.4271C327.188 71.4815 325.687 69.5572 324.156 67.6541C322.673 65.8095 322.03 64.2095 319.675 65.3152C315.226 67.3989 310.761 71.4921 307.523 75.1334Z" fill="#EBEBEB"/>
<path d="M313.052 165.438C310.698 165.523 308.342 165.449 305.998 165.215C304.26 165.045 302.484 164.79 300.789 165.215C300.051 165.401 299.361 165.739 298.763 166.209C298.542 166.406 298.383 166.664 298.305 166.95C298.228 167.237 298.235 167.539 298.327 167.821C298.419 168.103 298.591 168.352 298.823 168.538C299.054 168.724 299.335 168.838 299.63 168.867L301.448 169.026C302.601 169.127 303.803 169.244 304.701 170.089C305.07 170.422 305.304 170.877 305.36 171.371C305.472 172.609 304.398 173.284 303.436 173.8C302.068 174.442 300.803 175.284 299.683 176.298C298.806 177.146 298.254 178.275 298.125 179.488C298.121 179.596 298.146 179.703 298.196 179.799C298.247 179.895 298.322 179.975 298.413 180.033C298.505 180.091 298.61 180.123 298.718 180.127C298.826 180.131 298.933 180.107 299.029 180.057C301.155 178.993 302.543 175.841 304.876 176.367C302.754 177.04 300.936 178.438 299.741 180.317C299.447 180.766 299.312 181.301 299.36 181.835C299.408 182.37 299.634 182.873 300.004 183.263C300.373 183.652 300.863 183.905 301.394 183.982C301.926 184.058 302.467 183.952 302.931 183.682C303.276 183.48 303.61 183.258 303.93 183.017C305.511 181.738 306.927 180.266 308.146 178.637C306.445 182.225 304.722 186.425 306.679 189.992C306.776 190.188 306.928 190.352 307.117 190.463C307.306 190.574 307.523 190.629 307.742 190.619C308.358 190.555 308.539 189.976 308.64 189.466C308.959 187.823 309.039 186.09 309.847 184.628C311.718 181.237 316.332 180.907 319.846 179.254C324.061 177.298 326.948 173.088 328.112 168.59C328.519 167.279 328.59 165.886 328.319 164.54C327.538 161.515 323.806 160.819 321.409 162.281C318.469 164.146 316.763 165.321 313.052 165.438Z" fill="#FBBEBE"/>
<path opacity="0.1" d="M309.32 105.938C313.041 111.685 319.499 114.922 325.038 118.957C326.39 119.837 327.568 120.958 328.515 122.263C329.913 124.421 330.11 127.164 329.823 129.705C329.461 133.06 328.382 136.286 327.314 139.486L324.991 146.424C323.518 150.825 321.998 155.317 319.196 159.017C318.479 159.958 317.644 160.962 317.676 162.142C317.738 162.824 317.972 163.479 318.356 164.045C319.253 165.508 320.435 166.776 321.831 167.773C323.227 168.77 324.81 169.477 326.484 169.85C327.487 170.105 328.538 170.105 329.541 169.85C330.976 169.425 332.055 168.255 333.055 167.15C337.839 161.871 342.623 156.518 346.078 150.325C349.454 144.281 351.474 137.567 353.334 130.917C354.101 128.469 354.634 125.954 354.929 123.406C355.322 118.622 354.068 113.838 352.016 109.516C349.964 105.194 347.141 101.282 344.234 97.481C341.489 93.7477 338.44 90.2486 335.117 87.0195C329.334 81.6134 322.258 78.4345 314.518 81.5018C309.054 83.6706 307.007 88.1943 306.518 93.9885C306.104 98.1721 307.089 102.375 309.32 105.938Z" fill="black"/>
<path d="M311.256 104.482C314.977 110.228 321.441 113.466 326.975 117.5C328.322 118.389 329.495 119.517 330.435 120.828C331.833 122.986 332.03 125.724 331.743 128.27C331.376 131.624 330.302 134.851 329.229 138.051L326.906 144.962C325.433 149.363 323.913 153.85 321.111 157.555C320.399 158.496 319.565 159.495 319.596 160.68C319.655 161.361 319.889 162.015 320.277 162.578C321.172 164.042 322.352 165.31 323.748 166.308C325.143 167.307 326.725 168.014 328.399 168.388C329.404 168.644 330.457 168.644 331.461 168.388C332.897 167.968 333.97 166.794 334.975 165.693C339.759 160.409 344.543 155.062 347.999 148.869C351.374 142.825 353.394 136.111 355.255 129.456C356.023 127.01 356.557 124.497 356.849 121.95C357.243 117.165 355.988 112.381 353.942 108.054C351.895 103.727 349.067 99.82 346.159 96.0192C343.406 92.3054 340.349 88.8259 337.022 85.6162C331.243 80.2154 324.168 77.0312 316.428 80.1038C310.958 82.2726 308.917 86.791 308.423 92.5905C308.032 96.7582 309.028 100.938 311.256 104.482Z" fill="#EBEBEB"/>
<path d="M428.798 295.154C428.802 296.54 428.66 297.923 428.373 299.279C428.32 299.534 428.262 299.811 428.203 300.029C426.693 306.083 422.435 310.511 417.354 310.793C417.183 310.793 417.013 310.793 416.822 310.793C411.448 310.793 406.903 306.158 405.404 299.774C405.361 299.603 405.324 299.433 405.287 299.242C405 297.886 404.857 296.503 404.861 295.117C404.861 286.468 410.214 279.462 416.822 279.462C423.429 279.462 428.798 286.521 428.798 295.154Z" fill="#3F3D56"/>
<path opacity="0.1" d="M428.799 295.154C428.803 296.54 428.66 297.923 428.373 299.279C428.32 299.534 428.262 299.811 428.203 300.028C428.023 300.028 427.847 300.028 427.672 300.028C426.355 299.958 425.047 299.78 423.759 299.497C422.618 299.849 421.453 300.116 420.272 300.294C419.367 300.431 418.455 300.516 417.54 300.549H416.615C415.52 300.55 414.426 300.477 413.34 300.331C411.585 300.097 409.861 299.669 408.2 299.056C407.291 299.358 406.364 299.607 405.425 299.8C405.383 299.63 405.345 299.46 405.308 299.268C405.021 297.912 404.879 296.529 404.883 295.143C404.883 286.494 410.236 279.488 416.843 279.488C423.451 279.488 428.799 286.521 428.799 295.154Z" fill="black"/>
<path d="M454.315 265.992C454.32 262.186 453.428 258.432 451.71 255.036L437.645 259.411L449.993 252.149C447.922 249.158 445.205 246.67 442.044 244.869C438.883 243.067 435.358 241.998 431.728 241.741C431.151 240.865 430.517 240.026 429.831 239.232L409.631 245.521L426.2 235.777C423.03 233.344 419.31 231.73 415.368 231.078C411.426 230.426 407.384 230.755 403.6 232.037C399.816 233.319 396.406 235.514 393.672 238.428C390.938 241.341 388.965 244.884 387.926 248.742L405.229 268.66L386.459 255.084C381.704 258.456 378.319 263.424 376.921 269.083C375.523 274.743 376.204 280.716 378.841 285.914C381.477 291.113 385.894 295.192 391.286 297.407C396.678 299.622 402.687 299.826 408.217 297.982C413.219 299.821 418.685 299.972 423.781 298.413C427.334 299.195 431.017 299.17 434.559 298.341C438.101 297.512 441.412 295.899 444.248 293.621C447.085 291.344 449.375 288.459 450.949 285.18C452.524 281.901 453.344 278.31 453.348 274.672C453.348 274.141 453.348 273.609 453.294 273.078C453.983 270.779 454.327 268.391 454.315 265.992Z" fill="#EBEBEB"/>
<path opacity="0.1" d="M453.894 270.499C446.466 269.091 438.849 268.994 431.387 270.212C422.94 271.61 414.307 274.683 406.047 272.439C401.199 271.121 397.01 268.07 392.273 266.374C387.704 264.78 382.781 264.485 378.054 265.524C376.252 269.833 375.73 274.57 376.548 279.169C377.367 283.767 379.492 288.033 382.67 291.456C385.848 294.879 389.945 297.314 394.47 298.472C398.995 299.629 403.758 299.459 408.189 297.982C413.191 299.821 418.657 299.972 423.754 298.412C427.306 299.194 430.989 299.17 434.531 298.341C438.073 297.511 441.384 295.899 444.221 293.621C447.057 291.344 449.347 288.459 450.922 285.18C452.497 281.9 453.316 278.31 453.32 274.672C453.32 274.141 453.32 273.609 453.267 273.077C453.523 272.23 453.733 271.369 453.894 270.499Z" fill="black"/>
</svg>
