<svg xmlns="http://www.w3.org/2000/svg" width="350" height="280" fill="none" viewBox="0 0 350 280"><g clip-path="url(#clip0_406_1953)"><path fill="#F2F2F2" d="M302.3 77.2809C299.6 72.4151 296.605 67.719 293.331 63.2189C291.037 60.0617 288.613 57.0099 286.058 54.0635H286.052C281.431 48.7295 276.405 43.7593 271.019 39.197C269.916 38.2617 268.799 37.3455 267.667 36.4485C257.447 28.3259 246.114 21.7099 234.014 16.8027L234.122 34.4681L235.279 235.844H134.924L129.28 34.8481L129.701 17.4648C80.4996 38.1386 45.9532 86.7463 45.9532 143.418C45.944 155.116 47.4377 166.766 50.3977 178.083C51.648 182.867 53.1616 187.579 54.9318 192.196C55.5708 193.872 56.245 195.533 56.9543 197.18C57.2962 197.981 57.6445 198.776 58.0056 199.567C58.4689 200.602 58.9513 201.633 59.4466 202.651C59.83 203.452 60.2241 204.248 60.6288 205.039C61.1497 206.076 61.6875 207.105 62.2424 208.126C62.6706 208.927 63.1115 209.722 63.5589 210.514C70.7758 223.267 79.9915 234.783 90.8557 244.623C93.9519 247.429 97.1737 250.089 100.521 252.604C124.207 270.385 153.033 280 182.661 280C212.289 280 241.115 270.385 264.801 252.604C266.622 251.237 268.406 249.825 270.153 248.368C271.312 247.404 272.453 246.421 273.575 245.421C273.872 245.156 274.169 244.891 274.463 244.623C284.479 235.552 293.099 225.052 300.044 213.463C302.594 209.215 304.907 204.828 306.971 200.324C307.518 199.136 308.047 197.938 308.559 196.729C310.917 191.187 312.901 185.493 314.496 179.686C314.742 178.789 314.98 177.889 315.209 176.985V176.982C315.247 176.826 315.288 176.666 315.327 176.51C315.563 175.558 315.79 174.601 316.007 173.643V173.64C316.71 170.553 317.304 167.429 317.787 164.267C317.848 163.862 317.908 163.456 317.966 163.051C317.988 162.904 318.011 162.757 318.027 162.61V162.607C318.372 160.165 318.652 157.705 318.867 155.227C319.199 151.335 319.367 147.399 319.369 143.418C319.405 120.281 313.53 97.5164 302.3 77.2809V77.2809Z"/><path fill="#E6E6E6" d="M288.874 225.865C296.966 214.942 300.077 199.556 293.783 187.51C287.88 201.06 277.37 212.087 264.112 218.64C258.99 221.149 253.032 223.407 250.661 228.591C249.186 231.816 249.467 235.625 250.653 238.967C251.839 242.31 253.856 245.284 255.851 248.216L255.957 249.095C268.521 243.891 280.782 236.788 288.874 225.865Z"/><path fill="#fff" d="M293.516 187.606C293.154 198.848 289.255 209.691 282.373 218.593C280.926 220.536 279.181 222.238 277.203 223.638C275.232 224.94 272.948 225.69 270.588 225.812C268.391 225.969 266.125 225.876 264.003 226.564C262.923 226.932 261.932 227.525 261.097 228.303C260.262 229.08 259.601 230.026 259.157 231.076C257.982 233.666 257.809 236.523 257.738 239.323C257.658 242.431 257.624 245.662 256.156 248.487C255.979 248.83 256.521 249.085 256.698 248.743C259.252 243.827 257.594 238.078 259.115 232.909C259.825 230.498 261.267 228.285 263.677 227.319C265.784 226.474 268.121 226.568 270.348 226.428C272.651 226.343 274.899 225.696 276.895 224.544C278.938 223.249 280.745 221.616 282.24 219.716C285.673 215.49 288.421 210.752 290.381 205.674C292.65 199.891 293.913 193.762 294.113 187.554C294.126 187.17 293.528 187.224 293.516 187.606V187.606Z"/><path fill="#fff" d="M284.756 215.857C286.408 216.807 288.344 217.141 290.219 216.797C292.094 216.453 293.786 215.454 294.992 213.98C295.235 213.68 294.781 213.289 294.537 213.589C293.417 214.964 291.841 215.894 290.095 216.211C288.348 216.527 286.546 216.21 285.013 215.315C284.68 215.121 284.425 215.664 284.756 215.857Z"/><path fill="#fff" d="M271.712 225.878C270.666 222.128 271.074 218.122 272.853 214.658C273.03 214.315 272.488 214.059 272.312 214.402C270.466 218.01 270.051 222.18 271.147 226.08C271.252 226.452 271.816 226.248 271.712 225.878H271.712Z"/><path fill="#fff" d="M291.856 199.918C291.14 199.684 290.494 199.275 289.975 198.729C289.457 198.183 289.082 197.517 288.885 196.79C288.785 196.417 288.221 196.622 288.32 196.992C288.542 197.794 288.957 198.529 289.528 199.133C290.1 199.738 290.811 200.193 291.6 200.46C291.672 200.491 291.753 200.494 291.827 200.467C291.902 200.441 291.963 200.387 291.999 200.317C292.032 200.245 292.036 200.163 292.01 200.088C291.983 200.014 291.928 199.953 291.856 199.918V199.918Z"/><path fill="#E6E6E6" d="M248.743 177.922C248.799 178.157 248.855 178.391 248.907 178.63C249.641 181.788 250.118 184.999 250.331 188.234C250.352 188.484 250.369 188.737 250.382 188.987C250.813 196.786 249.792 204.597 247.369 212.022C246.402 214.976 245.212 217.853 243.809 220.626C241.87 224.457 239.463 228.456 238.92 232.581C238.859 233.011 238.824 233.444 238.816 233.878L254.877 249.155C254.931 249.171 254.982 249.191 255.036 249.208L255.649 249.847C255.732 249.709 255.814 249.564 255.897 249.426C255.945 249.347 255.989 249.263 256.037 249.183C256.068 249.129 256.099 249.075 256.13 249.027C256.14 249.009 256.151 248.991 256.158 248.977C256.189 248.93 256.212 248.882 256.24 248.839C256.703 248.03 257.162 247.217 257.615 246.399C257.619 246.395 257.619 246.395 257.619 246.388C261.058 240.147 264.006 233.564 265.861 226.743C265.916 226.538 265.976 226.329 266.024 226.117C266.843 223.038 267.409 219.897 267.715 216.726C267.877 214.989 267.952 213.245 267.937 211.5C267.892 206.993 267.137 202.52 265.701 198.247C262.836 189.729 257.277 182.222 249.352 178.222C249.149 178.12 248.949 178.021 248.743 177.922Z"/><path fill="#fff" d="M248.585 178.16C255.07 187.355 258.491 198.357 258.361 209.604C258.376 212.026 258.009 214.435 257.273 216.743C256.484 218.968 255.112 220.941 253.302 222.457C251.642 223.904 249.776 225.193 248.497 227.018C247.857 227.963 247.423 229.031 247.225 230.155C247.026 231.278 247.068 232.431 247.347 233.537C247.97 236.311 249.553 238.696 251.183 240.975C252.993 243.505 254.912 246.104 255.444 249.243C255.508 249.623 256.095 249.501 256.031 249.122C255.107 243.66 250.318 240.067 248.418 235.025C247.532 232.672 247.35 230.039 248.692 227.817C249.865 225.875 251.788 224.545 253.481 223.093C255.269 221.64 256.674 219.772 257.573 217.651C258.424 215.388 258.883 212.997 258.931 210.581C259.126 205.142 258.464 199.706 256.969 194.472C255.296 188.49 252.611 182.837 249.03 177.76C248.808 177.445 248.364 177.848 248.585 178.16V178.16Z"/><path fill="#fff" d="M258.616 205.985C260.508 205.751 262.255 204.852 263.544 203.45C264.834 202.048 265.583 200.233 265.657 198.33C265.671 197.945 265.073 197.905 265.059 198.291C264.993 200.063 264.295 201.754 263.092 203.057C261.888 204.36 260.258 205.191 258.495 205.399C258.112 205.445 258.235 206.031 258.616 205.985H258.616Z"/><path fill="#fff" d="M254.239 221.834C251.144 219.468 249.055 216.024 248.389 212.188C248.323 211.808 247.736 211.93 247.802 212.31C248.503 216.3 250.684 219.88 253.91 222.334C254.218 222.568 254.545 222.066 254.239 221.834V221.834Z"/><path fill="#fff" d="M254.68 188.99C253.967 189.233 253.204 189.295 252.461 189.171C251.718 189.047 251.017 188.741 250.422 188.28C250.118 188.042 249.79 188.544 250.093 188.78C250.753 189.287 251.527 189.624 252.348 189.763C253.169 189.902 254.011 189.838 254.801 189.576C254.878 189.558 254.944 189.511 254.988 189.445C255.031 189.38 255.047 189.3 255.034 189.222C255.018 189.145 254.971 189.077 254.905 189.033C254.838 188.99 254.758 188.974 254.68 188.99Z"/><path fill="#E6E6E6" d="M37.382 164.687C30.2057 153.143 28.3556 137.555 35.609 126.06C40.3903 140.044 49.9687 151.889 62.6493 159.497C67.5504 162.413 73.3055 165.147 75.2468 170.506C76.4549 173.841 75.8651 177.614 74.4112 180.849C72.9572 184.084 70.7049 186.885 68.4772 189.645L68.3009 190.513C56.2011 184.305 44.5584 176.231 37.382 164.687Z"/><path fill="#fff" d="M35.8676 126.178C35.3144 137.413 38.3185 148.536 44.4531 157.967C45.7377 160.021 47.3383 161.86 49.1959 163.416C51.0545 164.873 53.2698 165.806 55.6116 166.119C57.7892 166.454 60.0555 166.545 62.1137 167.403C63.1607 167.858 64.0996 168.529 64.8688 169.372C65.638 170.215 66.2202 171.211 66.5772 172.294C67.5371 174.971 67.477 177.833 67.321 180.629C67.1477 183.734 66.9185 186.956 68.1514 189.891C68.3007 190.247 67.7396 190.458 67.5904 190.103C65.4454 184.995 67.5656 179.399 66.4694 174.125C65.9578 171.663 64.7008 169.341 62.3775 168.182C60.3459 167.169 58.009 167.073 55.8011 166.753C53.5122 166.481 51.3246 165.654 49.4294 164.343C47.4985 162.887 45.8296 161.113 44.4945 159.097C41.416 154.607 39.0634 149.661 37.5228 144.441C35.7314 138.492 34.9717 132.282 35.2765 126.078C35.2955 125.694 35.8865 125.797 35.8676 126.178L35.8676 126.178Z"/><path fill="#fff" d="M42.2992 155.046C40.5756 155.86 38.6187 156.035 36.7779 155.54C34.9372 155.045 33.3325 153.912 32.2504 152.344C32.0325 152.026 32.5169 151.673 32.735 151.992C33.74 153.454 35.2349 154.508 36.9499 154.966C38.665 155.423 40.4872 155.253 42.0877 154.486C42.4357 154.32 42.6452 154.881 42.2992 155.046V155.046Z"/><path fill="#fff" d="M54.4882 166.094C55.8354 162.441 55.755 158.415 54.2629 154.818C54.1148 154.462 54.6759 154.251 54.8239 154.607C56.3695 158.353 56.4447 162.543 55.0344 166.341C54.8997 166.703 54.3542 166.454 54.4882 166.094V166.094Z"/><path fill="#fff" d="M36.5217 138.585C37.2542 138.409 37.9316 138.054 38.4929 137.552C39.0542 137.05 39.4819 136.416 39.7376 135.708C39.8676 135.345 40.413 135.594 40.2838 135.955C39.9977 136.736 39.5245 137.435 38.9055 137.991C38.2866 138.547 37.5407 138.943 36.7332 139.145C36.6587 139.17 36.5773 139.166 36.5055 139.134C36.4338 139.102 36.3771 139.043 36.347 138.97C36.3193 138.896 36.3222 138.814 36.3549 138.742C36.3876 138.669 36.4476 138.613 36.5217 138.585V138.585Z"/><path fill="#E6E6E6" d="M81.2842 120.162C81.2094 120.391 81.1347 120.62 81.063 120.854C80.0744 123.941 79.3384 127.104 78.8625 130.311C78.8217 130.558 78.7842 130.809 78.7506 131.057C77.6863 138.795 78.0692 146.663 79.8797 154.261C80.6029 157.283 81.5553 160.247 82.7285 163.125C84.3491 167.1 86.4227 171.282 86.6282 175.437C86.6545 175.87 86.6539 176.305 86.6264 176.738L69.376 190.661C69.3209 190.673 69.2688 190.689 69.2135 190.701L68.5502 191.288C68.4793 191.144 68.4089 190.993 68.338 190.849C68.2965 190.765 68.2589 190.679 68.2174 190.595C68.191 190.538 68.1647 190.482 68.1376 190.432C68.1287 190.413 68.1201 190.394 68.1144 190.379C68.0873 190.33 68.0674 190.281 68.0435 190.235C67.6475 189.391 67.2568 188.544 66.8713 187.692C66.8682 187.688 66.8682 187.688 66.8688 187.681C63.9483 181.181 61.5454 174.38 60.2519 167.431C60.2131 167.222 60.1708 167.009 60.1399 166.794C59.5742 163.658 59.2661 160.482 59.2184 157.296C59.1979 155.552 59.2659 153.808 59.4219 152.07C59.8338 147.581 60.9498 143.185 62.7291 139.043C66.2773 130.786 72.4292 123.754 80.6533 120.411C80.8638 120.326 81.0705 120.243 81.2842 120.162Z"/><path fill="#fff" d="M81.419 120.412C74.2072 129.05 69.9027 139.738 69.1171 150.958C68.9051 153.371 69.075 155.802 69.6206 158.161C70.2264 160.443 71.4328 162.521 73.1142 164.179C74.6509 165.756 76.4056 167.192 77.5316 169.116C78.0934 170.109 78.4388 171.209 78.545 172.345C78.6512 173.481 78.516 174.626 78.1481 175.706C77.3015 178.42 75.5291 180.669 73.7194 182.808C71.71 185.182 69.5853 187.617 68.8006 190.703C68.7055 191.077 68.1305 190.907 68.2254 190.534C69.5906 185.166 74.6555 181.973 76.959 177.102C78.0338 174.829 78.4295 172.219 77.2729 169.896C76.2615 167.865 74.4533 166.383 72.8836 164.799C71.2196 163.205 69.9714 161.229 69.2482 159.042C68.5841 156.718 68.3207 154.298 68.4694 151.885C68.7173 146.448 69.8194 141.084 71.7352 135.989C73.8894 130.163 77.0254 124.747 81.0075 119.976C81.2541 119.681 81.664 120.119 81.419 120.412V120.412Z"/><path fill="#fff" d="M69.1602 147.33C67.2937 146.943 65.6259 145.906 64.4544 144.403C63.283 142.901 62.6842 141.031 62.7651 139.128C62.7691 139.051 62.8031 138.978 62.8599 138.925C62.9167 138.872 62.9919 138.843 63.0696 138.844C63.1473 138.846 63.2215 138.877 63.2766 138.932C63.3316 138.987 63.3632 139.061 63.3646 139.138C63.286 140.91 63.844 142.652 64.9377 144.048C66.0314 145.445 67.5889 146.405 69.329 146.756C69.7071 146.832 69.5361 147.407 69.1602 147.33V147.33Z"/><path fill="#fff" d="M72.2323 163.481C75.5094 161.375 77.8715 158.112 78.8475 154.343C78.9439 153.969 79.519 154.138 79.4228 154.511C78.3998 158.432 75.9347 161.822 72.5197 164.007C72.194 164.215 71.9084 163.688 72.2323 163.481V163.481Z"/><path fill="#fff" d="M74.464 130.711C75.1549 131.011 75.9096 131.135 76.6603 131.072C77.4111 131.009 78.1343 130.76 78.7652 130.348C79.088 130.136 79.3733 130.663 79.0525 130.874C78.3535 131.326 77.5543 131.599 76.725 131.671C75.8957 131.742 75.0615 131.61 74.2951 131.285C74.2203 131.261 74.1577 131.209 74.1199 131.14C74.0822 131.071 74.0722 130.99 74.0919 130.914C74.1147 130.838 74.1665 130.774 74.2362 130.736C74.3058 130.698 74.3877 130.689 74.464 130.711V130.711Z"/><path fill="#FF6584" d="M170.598 46.8496C181.088 46.8496 189.592 38.354 189.592 27.8742C189.592 17.3943 181.088 8.89868 170.598 8.89868C160.109 8.89868 151.605 17.3943 151.605 27.8742C151.605 38.354 160.109 46.8496 170.598 46.8496Z"/><path fill="#E6E6E6" d="M228.75 26.8838C227.039 25.0776 225.232 23.364 223.337 21.7506C219.637 18.6158 215.541 15.9503 210.975 14.2711C209.256 13.6369 207.48 13.1697 205.671 12.8761C205.453 12.841 205.239 12.8059 205.022 12.7771C205.006 12.7755 204.99 12.7755 204.974 12.7771C204.941 12.7677 204.907 12.7613 204.872 12.758C204.428 12.7005 203.984 12.6558 203.536 12.6239C201.127 12.4639 198.708 12.6815 196.366 13.2688C195.008 13.6113 193.682 14.0727 192.404 14.6478C191.124 15.2738 189.883 15.9763 188.688 16.7515C188.046 17.1411 187.385 17.498 186.707 17.8209C184.728 18.7579 182.632 19.4278 180.476 19.8129C179.02 20.0739 177.546 20.2191 176.067 20.2471C174.782 20.2726 173.571 20.3173 172.354 20.7802C171.055 21.2679 169.888 22.0525 168.946 23.0713C168.005 24.0901 167.315 25.3148 166.932 26.6476C166.902 26.7659 166.91 26.8908 166.956 27.004C167.002 27.1172 167.083 27.2126 167.187 27.2764C167.517 27.5127 167.836 27.7808 168.184 27.9915C168.492 28.1317 168.82 28.2211 169.156 28.2565C169.705 28.3714 170.256 28.4832 170.808 28.5917C172.837 28.9939 174.874 29.3504 176.92 29.6611C181.036 30.2836 185.174 30.722 189.337 30.9763C189.362 30.98 189.388 30.9822 189.413 30.9827C194.116 31.2662 198.829 31.3121 203.536 31.12C204.249 31.0912 204.958 31.0561 205.671 31.0146C208.639 30.8486 211.6 30.5868 214.553 30.2293C217.285 29.8973 220.007 29.4855 222.717 28.9939C224.654 28.6428 226.582 28.2512 228.504 27.8191C228.597 27.7916 228.682 27.7404 228.749 27.6706C228.817 27.6008 228.866 27.5147 228.891 27.4207C228.915 27.3267 228.915 27.2279 228.891 27.1338C228.866 27.0398 228.818 26.9537 228.75 26.8838V26.8838Z"/><path fill="#E6E6E6" d="M189.273 52.186C186.523 49.2472 183.494 46.583 180.227 44.2308C179.144 43.4711 178.029 42.756 176.882 42.1015C175.475 41.2905 174.015 40.5769 172.511 39.9659C172.175 39.8287 171.836 39.6978 171.498 39.5733C169.573 38.8612 167.578 38.3603 165.545 38.0793C165.529 38.0761 165.513 38.0793 165.497 38.0761C165.465 38.0697 165.43 38.0633 165.398 38.0569C164.413 37.9293 163.42 37.8685 162.426 37.875C161.714 37.875 160.998 37.9133 160.289 37.9835C159.143 38.0963 158.006 38.2926 156.889 38.5709C156.336 38.7082 155.787 38.8678 155.247 39.0497C154.459 39.3087 153.686 39.6092 152.93 39.95C152.917 39.9564 152.908 39.9595 152.895 39.9659C151.627 40.586 150.397 41.2832 149.214 42.0537C149.189 42.0696 149.16 42.0856 149.134 42.1015C147.791 42.9047 146.369 43.5699 144.891 44.0872C143.622 44.5304 142.321 44.874 140.999 45.1151C139.543 45.3767 138.069 45.5208 136.59 45.546C135.305 45.5716 134.094 45.6162 132.88 46.0823C131.581 46.5699 130.413 47.3545 129.471 48.3733C128.529 49.392 127.838 50.6168 127.455 51.9497C127.425 52.0681 127.434 52.1928 127.48 52.3058C127.526 52.4188 127.606 52.5144 127.71 52.5786C128.039 52.8148 128.362 53.0798 128.707 53.2905C129.014 53.4317 129.342 53.5212 129.679 53.5554C130.228 53.6704 130.778 53.7853 131.33 53.8938C133.359 54.296 135.398 54.6515 137.446 54.96C140.255 55.3846 143.075 55.7241 145.907 55.9784C147.249 56.1029 148.592 56.205 149.936 56.2848C153.384 56.4923 156.835 56.5732 160.289 56.5274C161.001 56.5179 161.714 56.5019 162.426 56.4796C166.657 56.3551 170.875 56.038 175.08 55.5283C179.766 54.9617 184.422 54.1573 189.027 53.1181C189.12 53.0908 189.204 53.04 189.272 52.9705C189.34 52.901 189.388 52.8152 189.413 52.7214C189.438 52.6276 189.438 52.5291 189.413 52.4352C189.389 52.3414 189.34 52.2556 189.273 52.186V52.186Z"/><path fill="#92E3A9" d="M141.932 1.2599L158.664 232.272L125.199 235.239V4.19902C129.187 1.08705 134.911 0.600169 141.932 1.2599Z"/><path fill="#92E3A9" d="M224.525 1.2599L207.793 232.272L241.258 235.239V4.19902C237.27 1.08705 231.546 0.600169 224.525 1.2599Z"/><path fill="#92E3A9" d="M242.045 4.29977C241.006 1.75608 238.798 0 236.245 0H129.854C126.304 0 123.419 3.40288 123.419 7.58961V237.196C123.388 239.321 124.183 241.374 125.636 242.924C126.397 243.722 127.36 244.299 128.423 244.594C128.889 244.723 129.37 244.787 129.854 244.786H236.245C236.729 244.787 237.211 244.723 237.677 244.594C240.54 243.825 242.681 240.803 242.681 237.196V7.58961C242.684 6.46224 242.468 5.34499 242.045 4.29977V4.29977ZM240.546 237.196C240.546 239.993 238.616 242.269 236.245 242.269H129.854C127.889 242.269 126.224 240.705 125.716 238.576C125.608 238.124 125.553 237.661 125.553 237.196V7.58961C125.553 4.79344 127.483 2.52109 129.854 2.52109H236.245C236.682 2.52075 237.115 2.5986 237.524 2.75096C239.271 3.3916 240.546 5.31726 240.546 7.58961V237.196Z"/><path fill="#92E3A9" d="M241.615 69.7925H124.488V71.9266H241.615V69.7925Z"/><path fill="#92E3A9" d="M241.615 25.739H124.488V27.8731H241.615V25.739Z"/><path fill="#92E3A9" d="M241.615 105.36H124.488V107.494H241.615V105.36Z"/><path fill="#92E3A9" d="M162.495 0.95752H160.359V135.593H162.495V0.95752Z"/><path fill="#92E3A9" d="M205.742 0.95752H203.605V135.593H205.742V0.95752Z"/><path fill="#92E3A9" d="M254.964 231.449H114.697C112.149 231.452 109.706 232.464 107.904 234.264C106.103 236.065 105.089 238.505 105.086 241.051C105.085 242.275 105.32 243.488 105.779 244.623C106.493 246.404 107.724 247.93 109.313 249.005C110.902 250.08 112.778 250.656 114.697 250.657H254.964C256.642 250.656 258.291 250.217 259.746 249.382C261.201 248.548 262.412 247.347 263.259 245.9C263.5 245.491 263.71 245.064 263.885 244.623C264.345 243.488 264.58 242.275 264.579 241.051C264.575 238.505 263.561 236.064 261.759 234.264C259.956 232.464 257.513 231.452 254.964 231.449Z"/><path fill="#92E3A9" d="M241.614 130.614H125.199V137.727H241.614V130.614Z"/><path fill="#92E3A9" d="M182.338 128.48H184.474C185.513 128.48 186.509 128.892 187.243 129.626C187.978 130.359 188.39 131.355 188.39 132.392V132.392H178.422C178.422 131.878 178.523 131.37 178.72 130.895C178.917 130.42 179.205 129.989 179.569 129.626C179.933 129.262 180.364 128.974 180.839 128.778C181.314 128.581 181.824 128.48 182.338 128.48V128.48Z"/><path fill="#FFB8B8" d="M185.461 150.676C197.645 150.676 207.523 140.807 207.523 128.634C207.523 116.46 197.645 106.592 185.461 106.592C173.276 106.592 163.398 116.46 163.398 128.634C163.398 140.807 173.276 150.676 185.461 150.676Z"/><path fill="#2F2E41" d="M160.85 107.429C161.017 104.898 162.692 102.308 168.015 100.954C168.015 100.954 177.151 89.2832 189.565 95.4038C189.565 95.4038 195.583 94.3693 200.046 100.608C200.046 100.608 204.471 98.0007 206.337 102.622C206.337 102.622 211.527 112.048 209.616 121.662C207.706 131.277 206.728 132.477 206.728 132.477C206.728 132.477 209.163 112.589 195.137 113.968C181.111 115.347 169.819 110.419 166.643 121.209C164.005 130.168 164.338 134.821 164.338 134.821C164.338 134.821 155.518 125.884 158.516 118.846C160.05 115.246 160.592 111.333 160.85 107.429Z"/><path fill="#CDF4DE" d="M125.465 249.093H247.498C246.682 239.793 246.149 204.243 246.149 201.903C246.149 191.583 237.697 180.321 237.697 180.321L234.671 178.65L209.406 170.775L202.868 162.29C202.183 161.399 201.301 160.679 200.291 160.186C199.28 159.693 198.169 159.441 197.045 159.449L176.391 159.604C174.574 159.618 172.827 160.31 171.493 161.543L158.703 173.397L139.945 182.347L139.913 182.315L139.717 182.461L136.933 184.463L135.143 185.756C135.143 185.756 130.445 191.387 126.691 208.276C126.126 210.816 125.729 243.698 125.465 249.093Z"/><path fill="#92E3A9" d="M275.744 244.623C275.45 244.891 275.153 245.156 274.856 245.421C273.731 246.421 272.59 247.403 271.434 248.368C269.686 249.824 267.902 251.236 266.082 252.604H101.802C98.4569 250.095 95.235 247.435 92.1367 244.623H275.744Z"/><path fill="#2F2E41" d="M215.526 246.539H155.137L156.415 240.473H214.248L215.526 246.539Z"/><path fill="#263238" d="M270.16 220.362H254.446C254.091 220.361 253.741 220.438 253.419 220.587C253.097 220.735 252.812 220.953 252.583 221.224C252.364 221.182 252.141 221.16 251.918 221.16C251.429 221.16 250.944 221.256 250.491 221.443C250.038 221.629 249.627 221.904 249.28 222.25C248.934 222.595 248.659 223.006 248.472 223.458C248.284 223.91 248.188 224.395 248.188 224.884C248.188 225.373 248.284 225.858 248.472 226.31C248.659 226.762 248.934 227.172 249.28 227.518C249.627 227.864 250.038 228.138 250.491 228.325C250.944 228.512 251.429 228.608 251.918 228.608C252.481 228.608 253.036 228.479 253.542 228.231L253.804 231.449L254.845 244.167C254.895 244.326 254.961 244.479 255.043 244.623C255.254 245.01 255.565 245.332 255.943 245.557C256.321 245.781 256.753 245.9 257.194 245.9H267.412C267.853 245.9 268.285 245.781 268.664 245.556C269.043 245.332 269.354 245.009 269.566 244.623C269.645 244.478 269.711 244.325 269.76 244.167L272.508 223.538C272.621 223.171 272.647 222.783 272.582 222.404C272.517 222.025 272.365 221.667 272.136 221.358C271.908 221.049 271.61 220.798 271.267 220.625C270.923 220.452 270.544 220.362 270.16 220.362ZM251.918 227.545C251.213 227.544 250.536 227.263 250.037 226.764C249.538 226.265 249.258 225.589 249.258 224.884C249.258 224.179 249.538 223.502 250.037 223.004C250.536 222.505 251.213 222.224 251.918 222.223C251.966 222.223 252.011 222.236 252.059 222.239C251.954 222.668 251.967 223.117 252.097 223.538L253.222 227.19C252.826 227.42 252.376 227.542 251.918 227.545V227.545Z"/><path fill="#263238" d="M234.667 152.868H135.193C134.338 152.869 133.519 153.209 132.915 153.813C132.31 154.416 131.97 155.235 131.969 156.089V223.152C131.97 224.006 132.31 224.825 132.914 225.429C133.518 226.033 134.338 226.372 135.193 226.373H234.667C235.521 226.372 236.341 226.033 236.945 225.429C237.55 224.825 237.89 224.006 237.891 223.152V156.089C237.889 155.235 237.549 154.416 236.945 153.813C236.34 153.209 235.521 152.869 234.667 152.868Z"/><path fill="#2F2E41" d="M196.132 206.603H172.861C172.532 206.604 172.216 206.735 171.984 206.968C171.751 207.201 171.621 207.516 171.621 207.845V244.572H197.375V207.845C197.375 207.682 197.343 207.52 197.28 207.37C197.218 207.219 197.126 207.082 197.011 206.967C196.895 206.851 196.758 206.76 196.607 206.698C196.457 206.635 196.295 206.603 196.132 206.603V206.603ZM184.575 227.471C183.847 227.468 183.15 227.177 182.635 226.663C182.121 226.149 181.83 225.453 181.827 224.726V220.49C181.827 219.762 182.117 219.065 182.633 218.55C183.148 218.036 183.846 217.747 184.575 217.747C185.303 217.747 186.001 218.036 186.516 218.55C187.032 219.065 187.322 219.762 187.322 220.49V224.726C187.319 225.453 187.028 226.149 186.514 226.663C185.999 227.177 185.302 227.468 184.575 227.471V227.471Z"/><path fill="#263238" d="M171.543 243.397V246.941C171.543 247.125 171.617 247.301 171.746 247.43C171.876 247.56 172.053 247.633 172.236 247.634H196.763C196.946 247.633 197.122 247.559 197.252 247.43C197.382 247.3 197.455 247.124 197.456 246.941V243.397H171.543Z"/><path fill="#2F2E41" d="M232.551 222.451C233.418 222.451 234.121 221.748 234.121 220.882C234.121 220.015 233.418 219.313 232.551 219.313C231.684 219.313 230.98 220.015 230.98 220.882C230.98 221.748 231.684 222.451 232.551 222.451Z"/><path fill="#2F2E41" d="M147.749 218.606C147.677 218.606 147.605 218.62 147.538 218.648C147.472 218.676 147.411 218.716 147.36 218.767C147.309 218.818 147.269 218.879 147.241 218.945C147.213 219.012 147.199 219.083 147.199 219.155V221.98C147.2 222.126 147.258 222.265 147.361 222.368C147.464 222.47 147.603 222.528 147.749 222.528C147.894 222.528 148.034 222.47 148.137 222.368C148.24 222.265 148.298 222.126 148.298 221.98V219.155C148.298 219.083 148.284 219.012 148.257 218.945C148.229 218.879 148.188 218.818 148.137 218.767C148.086 218.716 148.026 218.676 147.959 218.648C147.892 218.62 147.821 218.606 147.749 218.606V218.606Z"/><path fill="#2F2E41" d="M150.733 218.606C150.661 218.606 150.59 218.62 150.523 218.648C150.456 218.676 150.396 218.716 150.345 218.767C150.294 218.818 150.253 218.879 150.225 218.945C150.198 219.012 150.184 219.083 150.184 219.155V221.98C150.184 222.126 150.241 222.266 150.345 222.369C150.448 222.472 150.587 222.53 150.733 222.53C150.879 222.53 151.019 222.472 151.122 222.369C151.225 222.266 151.283 222.126 151.283 221.98V219.155C151.283 219.083 151.269 219.012 151.241 218.945C151.213 218.879 151.173 218.818 151.122 218.767C151.071 218.716 151.01 218.676 150.943 218.648C150.877 218.62 150.805 218.606 150.733 218.606V218.606Z"/><path fill="#2F2E41" d="M153.718 218.606C153.645 218.606 153.574 218.62 153.507 218.648C153.441 218.676 153.38 218.716 153.329 218.767C153.278 218.818 153.237 218.879 153.21 218.945C153.182 219.012 153.168 219.083 153.168 219.155V221.98C153.168 222.126 153.226 222.265 153.329 222.368C153.432 222.47 153.572 222.528 153.718 222.528C153.863 222.528 154.003 222.47 154.106 222.368C154.209 222.265 154.267 222.126 154.267 221.98V219.155C154.267 219.083 154.253 219.012 154.225 218.945C154.198 218.879 154.157 218.818 154.106 218.767C154.055 218.716 153.995 218.676 153.928 218.648C153.861 218.62 153.79 218.606 153.718 218.606Z"/><path fill="#2F2E41" d="M156.702 218.606C156.63 218.606 156.558 218.62 156.492 218.648C156.425 218.676 156.364 218.716 156.313 218.767C156.262 218.818 156.222 218.879 156.194 218.945C156.167 219.012 156.152 219.083 156.152 219.155V221.98C156.153 222.126 156.211 222.265 156.314 222.368C156.417 222.47 156.556 222.528 156.702 222.528C156.847 222.528 156.987 222.47 157.09 222.368C157.193 222.265 157.251 222.126 157.252 221.98V219.155C157.252 219.083 157.237 219.012 157.21 218.945C157.182 218.879 157.142 218.818 157.091 218.767C157.04 218.716 156.979 218.676 156.912 218.648C156.846 218.62 156.774 218.606 156.702 218.606V218.606Z"/><path fill="#FFB8B8" d="M159.085 244.943C163.673 244.943 167.393 241.227 167.393 236.643C167.393 232.059 163.673 228.343 159.085 228.343C154.497 228.343 150.777 232.059 150.777 236.643C150.777 241.227 154.497 244.943 159.085 244.943Z"/><path fill="#FFB8B8" d="M217.124 246.539C221.712 246.539 225.432 242.823 225.432 238.239C225.432 233.655 221.712 229.939 217.124 229.939C212.536 229.939 208.816 233.655 208.816 238.239C208.816 242.823 212.536 246.539 217.124 246.539Z"/><path fill="#263238" d="M302.872 138.056C302.051 136.7 301.079 135.252 299.555 134.809C297.791 134.296 295.979 135.315 294.441 136.32C289.844 139.327 285.417 142.586 281.18 146.082L281.184 146.135C284.483 145.908 287.221 154.671 290.519 154.443C292.903 154.279 295.929 145.102 298.035 143.976C298.834 143.548 299.613 142.977 300.519 142.937C301.644 142.888 302.625 143.673 303.396 144.493C307.957 149.345 309.277 156.765 314.393 161.028C311.167 153.079 307.315 145.397 302.872 138.056V138.056Z"/><path fill="#263238" d="M311.65 149.842C314.056 154.183 316.608 158.438 319.306 162.607V162.611C319.29 162.757 319.268 162.904 319.245 163.051C318.919 162.553 318.597 162.053 318.277 161.551C315.855 157.755 313.554 153.887 311.372 149.947C310.337 148.073 309.327 146.184 308.343 144.281C307.583 142.806 306.838 141.322 306.11 139.831C305.902 139.403 305.701 138.975 305.499 138.544C305.027 137.535 304.56 136.52 304.062 135.524C303.493 134.388 302.8 133.2 301.755 132.437C301.279 132.075 300.711 131.856 300.116 131.805C299.277 131.81 298.456 132.045 297.741 132.485C292.336 135.324 287.291 138.799 282.714 142.838C278.132 146.86 274.035 151.404 270.509 156.376C270.4 156.529 270.144 156.382 270.253 156.226C270.684 155.62 271.119 155.023 271.566 154.429C277.11 147.063 283.908 140.729 291.648 135.716C292.949 134.873 294.275 134.07 295.626 133.306C296.307 132.919 296.991 132.539 297.687 132.182C298.354 131.791 299.102 131.56 299.873 131.505C302.525 131.464 303.899 134.464 304.841 136.482C305.135 137.117 305.434 137.751 305.739 138.384C306.886 140.779 308.078 143.154 309.315 145.51C310.075 146.962 310.854 148.406 311.65 149.842Z"/><path fill="#263238" d="M282.454 141.356C282.3 141.184 282.147 141.012 281.992 140.841C280.769 139.49 279.457 138.155 277.778 137.38C276.978 136.999 276.104 136.797 275.217 136.787C274.302 136.812 273.4 137.009 272.558 137.366C272.158 137.526 271.766 137.708 271.381 137.901C270.94 138.122 270.507 138.359 270.076 138.597C269.268 139.044 268.47 139.51 267.682 139.997C266.115 140.964 264.597 142.006 263.128 143.121C262.367 143.7 261.621 144.297 260.891 144.913C260.212 145.486 259.546 146.074 258.895 146.677C258.755 146.805 258.547 146.598 258.687 146.469C258.858 146.309 259.032 146.151 259.206 145.994C259.696 145.551 260.195 145.116 260.701 144.69C261.625 143.911 262.572 143.163 263.543 142.445C265.053 141.327 266.615 140.285 268.23 139.319C269.036 138.837 269.854 138.375 270.683 137.933C270.933 137.8 271.186 137.669 271.442 137.546C272.024 137.253 272.627 137.007 273.248 136.812C274.127 136.527 275.057 136.436 275.975 136.544C276.861 136.673 277.715 136.968 278.491 137.413C280.139 138.334 281.418 139.758 282.662 141.147C282.788 141.288 282.581 141.497 282.454 141.356Z"/><path fill="#263238" d="M270.391 147.855C269.972 147.876 269.558 147.758 269.214 147.518C268.301 146.828 268.325 145.169 269.287 142.448C269.548 141.71 269.958 141.035 270.492 140.462C271.025 139.889 271.671 139.432 272.388 139.118C273.06 138.817 273.787 138.66 274.523 138.656C275.259 138.651 275.988 138.8 276.664 139.092C276.782 139.143 276.898 139.198 277.012 139.257C277.794 139.695 278.527 140.214 279.199 140.807C279.77 141.302 280.379 141.751 281.02 142.151L281.234 142.276L281.031 142.419C275.855 146.059 272.346 147.855 270.391 147.855Z"/><path fill="#263238" d="M290.292 126.19C288.59 126.19 286.941 125.599 285.626 124.52C284.311 123.44 283.412 121.938 283.082 120.27C281.659 120.558 280.353 121.26 279.329 122.289C278.306 123.318 277.61 124.626 277.33 126.049C277.049 127.473 277.197 128.947 277.755 130.287C278.313 131.626 279.255 132.77 280.463 133.575C281.671 134.38 283.091 134.809 284.543 134.809C285.995 134.808 287.414 134.378 288.622 133.572C289.829 132.767 290.771 131.622 291.328 130.282C291.885 128.942 292.032 127.468 291.751 126.045C291.271 126.141 290.782 126.19 290.292 126.19V126.19Z"/><path fill="#263238" d="M93.5723 138.001C99.6291 138.001 104.539 133.096 104.539 127.044C104.539 120.993 99.6291 116.088 93.5723 116.088C87.5155 116.088 82.6055 120.993 82.6055 127.044C82.6055 133.096 87.5155 138.001 93.5723 138.001Z" opacity=".74"/><path fill="#CDF4DE" d="M104.537 138.001C110.594 138.001 115.504 133.096 115.504 127.044C115.504 120.993 110.594 116.088 104.537 116.088C98.4803 116.088 93.5703 120.993 93.5703 127.044C93.5703 133.096 98.4803 138.001 104.537 138.001Z" opacity=".74"/><path fill="#FF6584" d="M99.1465 129.269C105.203 129.269 110.113 124.363 110.113 118.312C110.113 112.261 105.203 107.355 99.1465 107.355C93.0897 107.355 88.1797 112.261 88.1797 118.312C88.1797 124.363 93.0897 129.269 99.1465 129.269Z" opacity=".74"/><path fill="#263238" d="M127.822 115.172L99.6523 124.014L99.8439 124.623L128.013 115.781L127.822 115.172Z"/><path fill="#263238" d="M128.005 116.652C128.711 116.652 129.283 116.08 129.283 115.375C129.283 114.67 128.711 114.098 128.005 114.098C127.299 114.098 126.727 114.67 126.727 115.375C126.727 116.08 127.299 116.652 128.005 116.652Z"/><path fill="#263238" d="M310.876 172.832C312.748 174.15 314.547 175.494 316.605 176.51C316.566 176.666 316.525 176.826 316.486 176.982C316.234 176.864 315.988 176.739 315.742 176.612C313.655 175.52 311.86 174.036 309.901 172.746C308.93 172.075 307.869 171.545 306.751 171.169C305.584 170.819 304.365 170.676 303.15 170.747C298.079 170.996 293.733 174.02 289.02 175.542C286.713 176.289 284.259 176.688 281.853 176.219C279.447 175.75 277.31 174.473 275.185 173.317C273.089 172.174 270.804 171.025 268.357 171.025C266.363 171.028 264.267 171.826 263.2 173.589C263.166 173.641 263.114 173.679 263.054 173.694C262.993 173.708 262.929 173.699 262.876 173.667C262.822 173.636 262.783 173.584 262.766 173.524C262.75 173.465 262.757 173.4 262.787 173.346C263.026 172.944 263.32 172.578 263.66 172.257C265.053 170.939 267.101 170.419 268.983 170.572C271.418 170.77 273.638 171.919 275.744 173.075C277.978 174.301 280.265 175.619 282.847 175.887C285.397 176.155 287.921 175.488 290.286 174.591C294.864 172.851 299.382 169.953 304.476 170.275C306.878 170.428 308.936 171.469 310.876 172.832Z"/><path fill="#CDF4DE" d="M110.46 80.5085V81.1565C110.245 81.1141 110.027 81.0927 109.808 81.0927H106.466V88.2625C106.465 89.324 106.043 90.3419 105.291 91.0925C104.54 91.8431 103.521 92.265 102.459 92.2656H97.5191V93.3702C97.519 93.8129 97.607 94.2513 97.7779 94.6598H97.0941C96.9512 94.2449 96.8788 93.809 96.88 93.3702V92.2656H94.1641V91.6272H96.88V84.4573C96.8806 83.3958 97.303 82.378 98.0542 81.6274C98.8055 80.8768 99.8243 80.4548 100.887 80.4542H105.827V79.3369H106.466V80.4542H109.808C110.026 80.4544 110.244 80.4726 110.46 80.5085V80.5085Z"/><path fill="#263238" d="M102.459 75.3464H93.5381C92.4756 75.347 91.4568 75.769 90.7055 76.5196C89.9542 77.2702 89.5319 78.288 89.5312 79.3495V88.2624C89.5319 89.3239 89.9542 90.3418 90.7055 91.0923C91.4568 91.8429 92.4756 92.2649 93.5381 92.2655H102.459C103.522 92.2649 104.54 91.8429 105.292 91.0923C106.043 90.3418 106.465 89.3239 106.466 88.2624V79.3368C106.462 78.2775 106.038 77.2628 105.287 76.5149C104.536 75.767 103.519 75.3469 102.459 75.3464V75.3464ZM105.827 88.2624C105.826 89.1544 105.471 90.0095 104.839 90.6403C104.208 91.271 103.352 91.6259 102.459 91.6271H93.5381C92.6452 91.6259 91.7893 91.271 91.158 90.6403C90.5267 90.0095 90.1715 89.1544 90.1703 88.2624V79.3495C90.1715 78.4576 90.5267 77.6024 91.158 76.9717C91.7893 76.341 92.6452 75.9861 93.5381 75.9849H102.459C103.35 75.9859 104.204 76.339 104.835 76.967C105.466 77.595 105.823 78.447 105.827 79.3368V88.2624Z"/><path fill="#263238" d="M96.8789 91.6271V92.2655H97.518V91.6271H96.8789ZM96.8789 91.6271V92.2655H97.518V91.6271H96.8789ZM110.459 80.5084C110.243 80.4725 110.025 80.4543 109.807 80.4541H100.886C99.8232 80.4547 98.8045 80.8767 98.0532 81.6273C97.3019 82.3779 96.8795 83.3957 96.8789 84.4572V93.3701C96.8777 93.8089 96.9501 94.2448 97.093 94.6597C97.3627 95.4509 97.8734 96.1379 98.5536 96.6245C99.2337 97.1111 100.049 97.3729 100.886 97.3732H109.807C110.869 97.3725 111.888 96.9506 112.639 96.2C113.391 95.4494 113.813 94.4316 113.814 93.3701V84.4572C113.813 83.5086 113.476 82.5909 112.861 81.8677C112.247 81.1444 111.395 80.6627 110.459 80.5084V80.5084ZM113.175 93.3701C113.173 94.2621 112.818 95.1172 112.187 95.7479C111.556 96.3786 110.7 96.7335 109.807 96.7347H100.886C99.9929 96.7334 99.1371 96.3785 98.5058 95.7478C97.8745 95.1171 97.5192 94.262 97.518 93.3701V84.4572C97.5192 83.5652 97.8744 82.7101 98.5057 82.0794C99.137 81.4486 99.9929 81.0938 100.886 81.0926H109.807C110.7 81.0929 111.556 81.4475 112.188 82.0784C112.819 82.7093 113.174 83.565 113.175 84.4572V93.3701ZM96.8789 91.6271V92.2655H97.518V91.6271H96.8789Z"/><path fill="#CDF4DE" d="M90.5681 174.846H52.6727C52.4089 174.847 52.1559 174.951 51.9691 175.137C51.7822 175.323 51.6768 175.576 51.6758 175.839V178.083C52.926 182.868 54.4397 187.579 56.2098 192.196H90.5681C90.6986 192.197 90.8279 192.171 90.9485 192.121C91.0691 192.071 91.1787 191.998 91.271 191.906C91.3633 191.814 91.4365 191.704 91.4864 191.584C91.5363 191.463 91.5619 191.334 91.5618 191.204V175.839C91.5615 175.576 91.4567 175.324 91.2704 175.138C91.0841 174.951 90.8315 174.847 90.5681 174.846V174.846Z"/><path fill="#E4E4E4" d="M86.9595 197.18H58.2344C58.5763 197.981 58.9246 198.776 59.2856 199.567H86.9595C88.5187 199.59 88.5028 197.157 86.9595 197.18Z"/><path fill="#E4E4E4" d="M86.9594 202.651H60.7266C61.11 203.452 61.504 204.248 61.9088 205.039H86.9594C88.5186 205.061 88.5027 202.632 86.9594 202.651Z"/><path fill="#E4E4E4" d="M86.9565 208.126H63.5195C63.9477 208.927 64.3886 209.722 64.836 210.514H86.9565C88.5158 210.536 88.4998 208.104 86.9565 208.126Z"/><path fill="#263238" d="M283.418 60.9731H283.236C283.802 60.9737 284.361 61.1057 284.868 61.3589H284.039C283.147 61.3599 282.291 61.7147 281.659 62.3454C281.028 62.9762 280.673 63.8314 280.672 64.7234V73.6365C280.673 74.5285 281.028 75.3837 281.659 76.0145C282.291 76.6452 283.147 77 284.039 77.001H284.568C284.143 77.1674 283.691 77.2531 283.236 77.2537H283.418C284.395 77.2526 285.332 76.8642 286.024 76.1736C286.715 75.483 287.104 74.5466 287.105 73.57V64.6569C287.104 63.6802 286.715 62.7439 286.024 62.0533C285.332 61.3627 284.395 60.9743 283.418 60.9731V60.9731Z"/><path fill="#000" d="M283.418 60.9731H283.236C283.802 60.9737 284.361 61.1057 284.868 61.3589H284.039C283.147 61.3599 282.291 61.7147 281.659 62.3454C281.028 62.9762 280.673 63.8314 280.672 64.7234V73.6365C280.673 74.5285 281.028 75.3837 281.659 76.0145C282.291 76.6452 283.147 77 284.039 77.001H284.568C284.143 77.1674 283.691 77.2531 283.236 77.2537H283.418C284.395 77.2526 285.332 76.8642 286.024 76.1736C286.715 75.483 287.104 74.5466 287.105 73.57V64.6569C287.104 63.6802 286.715 62.7439 286.024 62.0533C285.332 61.3627 284.395 60.9743 283.418 60.9731V60.9731Z" opacity=".21"/><path fill="#CDF4DE" d="M259.773 60.9731H259.591C260.158 60.9737 260.717 61.1057 261.224 61.3589H260.395C259.502 61.3599 258.646 61.7147 258.015 62.3454C257.383 62.9762 257.028 63.8314 257.027 64.7234V73.6365C257.028 74.5285 257.383 75.3837 258.015 76.0145C258.646 76.6452 259.502 77 260.395 77.001H260.923C260.499 77.1674 260.047 77.2531 259.591 77.2537H259.773C260.751 77.2526 261.688 76.8642 262.379 76.1736C263.07 75.483 263.459 74.5466 263.46 73.57V64.6569C263.459 63.6802 263.07 62.7439 262.379 62.0533C261.688 61.3627 260.751 60.9743 259.773 60.9731V60.9731Z"/><path fill="#000" d="M259.773 60.9731H259.591C260.158 60.9737 260.717 61.1057 261.224 61.3589H260.395C259.502 61.3599 258.646 61.7147 258.015 62.3454C257.383 62.9762 257.028 63.8314 257.027 64.7234V73.6365C257.028 74.5285 257.383 75.3837 258.015 76.0145C258.646 76.6452 259.502 77 260.395 77.001H260.923C260.499 77.1674 260.047 77.2531 259.591 77.2537H259.773C260.751 77.2526 261.688 76.8642 262.379 76.1736C263.07 75.483 263.459 74.5466 263.46 73.57V64.6569C263.459 63.6802 263.07 62.7439 262.379 62.0533C261.688 61.3627 260.751 60.9743 259.773 60.9731V60.9731Z" opacity=".21"/><path fill="#CDF4DE" d="M260.428 77.0289C259.535 77.0279 258.679 76.6731 258.048 76.0423C257.417 75.4116 257.061 74.5564 257.06 73.6644V64.7512C257.061 63.8592 257.417 63.004 258.048 62.3733C258.679 61.7425 259.535 61.3877 260.428 61.3867H261.257C260.75 61.1335 260.191 61.0015 259.624 61.001H250.703C249.725 61.0021 248.788 61.3906 248.097 62.0812C247.406 62.7718 247.017 63.7081 247.016 64.6847V73.5978C247.017 74.5745 247.406 75.5108 248.097 76.2014C248.788 76.892 249.725 77.2805 250.703 77.2816H259.624C260.08 77.2809 260.532 77.1952 260.956 77.0289L260.428 77.0289Z"/><path fill="#263238" d="M284.076 77.0289C283.184 77.0279 282.328 76.6731 281.696 76.0423C281.065 75.4116 280.71 74.5564 280.709 73.6644V64.7512C280.71 63.8592 281.065 63.004 281.696 62.3733C282.328 61.7425 283.184 61.3877 284.076 61.3867H284.905C284.398 61.1335 283.839 61.0015 283.273 61.001H274.351C273.374 61.0021 272.436 61.3906 271.745 62.0812C271.054 62.7718 270.665 63.7081 270.664 64.6847V73.5978C270.665 74.5745 271.054 75.5108 271.745 76.2014C272.436 76.892 273.374 77.2805 274.351 77.2816H283.273C283.728 77.2809 284.18 77.1952 284.605 77.0289L284.076 77.0289Z"/><path fill="#FF6584" d="M294.608 63.2192C297.882 67.7193 300.878 72.4155 303.577 77.2812H297.992C297.015 77.2798 296.077 76.8912 295.386 76.2006C294.695 75.5101 294.306 74.5739 294.305 73.5973V64.6845C294.304 64.1805 294.408 63.6817 294.608 63.2192V63.2192Z"/><path fill="#92E3A9" d="M283.41 81.9576L280.285 77.2809L278 73.862C277.867 73.6623 277.68 73.5044 277.46 73.4067C277.241 73.309 276.998 73.2753 276.76 73.3098C276.523 73.3442 276.299 73.4452 276.117 73.6011C275.934 73.7571 275.799 73.9615 275.728 74.1908L274.767 77.2809L272.83 83.4899C272.754 83.7373 272.755 84.0021 272.833 84.2489C272.911 84.4958 273.062 84.713 273.267 84.8716C273.472 85.0301 273.72 85.1224 273.979 85.1362C274.238 85.15 274.495 85.0846 274.715 84.9488L275.402 84.5242C275.541 84.439 275.698 84.3906 275.861 84.3834C276.023 84.3761 276.184 84.4105 276.33 84.483C276.475 84.5556 276.599 84.664 276.691 84.7981C276.782 84.9321 276.838 85.0873 276.853 85.2489L277.482 92.1123C277.512 92.4275 277.658 92.7205 277.892 92.9341C278.126 93.1477 278.431 93.2667 278.748 93.2679C278.786 93.2679 278.824 93.2647 278.866 93.2615L279.831 93.1753C279.997 93.1602 280.159 93.1124 280.307 93.0348C280.455 92.9571 280.586 92.851 280.693 92.7226C280.8 92.5942 280.88 92.446 280.93 92.2865C280.979 92.127 280.997 91.9593 280.981 91.793L280.333 84.7062C280.317 84.5397 280.346 84.3721 280.416 84.2203C280.486 84.0684 280.595 83.9377 280.732 83.8413C280.868 83.7449 281.028 83.6861 281.195 83.6709C281.361 83.6558 281.529 83.6847 281.681 83.7549L281.822 83.8187C282.073 83.9345 282.356 83.965 282.627 83.9054C282.897 83.8459 283.141 83.6997 283.321 83.489C283.501 83.2782 283.607 83.0146 283.623 82.7382C283.639 82.4617 283.564 82.1876 283.41 81.9576V81.9576Z"/></g><defs><clipPath id="clip0_406_1953"><rect width="288.37" height="280" fill="#fff" transform="translate(31)"/></clipPath></defs></svg>