<svg xmlns="http://www.w3.org/2000/svg" width="633" height="322" fill="none" viewBox="0 0 633 322"><path fill="#85E09F" d="M147.39 29.952C147.163 28.1559 146.703 26.397 146.023 24.7193C145.936 24.402 145.784 24.1063 145.577 23.8509C145.37 23.5956 145.112 23.3862 144.819 23.2361C144.428 23.1344 144.017 23.1298 143.624 23.2228L137.49 24.1614C136.976 24.1849 136.485 24.3759 136.09 24.7053C135.291 25.5455 136.078 26.8986 136.053 28.0578C136.026 29.3613 134.868 30.4194 133.612 30.7695C132.33 31.0285 131.007 31.0121 129.732 30.7213L121.154 29.3884C123.68 28.5818 125.929 27.0813 127.643 25.058C128.772 23.7208 129.373 21.2242 127.741 20.5909C127.257 20.4579 126.751 20.4173 126.251 20.4713C122.365 20.5015 119.307 17.2567 115.669 15.8901C113.34 15.0719 110.812 15.0111 108.447 15.7162C106.082 16.4213 104 17.8562 102.5 19.8158L107.069 20.0361C107.499 20.0124 107.925 20.1261 108.286 20.3608C109.288 21.1835 108.043 22.7639 108.184 24.0523C108.367 25.7262 110.59 26.0836 112.265 26.2528C113.94 26.4221 116.066 27.7833 115.26 29.2618C106.839 32.1623 98.2702 23.5921 89.4268 24.6471C87.1886 24.9141 85.0751 25.7934 82.8898 26.3462C69.5408 29.7237 55.7402 20.7122 42.1034 22.6207C39.0718 23.1375 36.0922 23.9233 33.2 24.9689C31.344 25.5783 29.4081 26.2368 28.0596 27.6501C26.711 29.0634 26.1978 31.4804 27.4753 32.9583C23.9541 33.2482 20.4093 32.9113 17.0058 31.9631C17.9262 32.4747 18.6918 33.2246 19.2224 34.1342C19.753 35.0438 20.029 36.0794 20.0213 37.1324C14.5233 38.029 9.17093 39.661 4.10807 41.9846C5.05299 43.5559 6.15666 45.0261 7.40174 46.3722L0.441406 50.8438C2.79294 51.4363 4.00874 54.6428 2.64124 56.6454C5.07951 55.5607 6.59063 52.7546 9.19796 52.1857C10.9061 51.813 12.6442 52.5118 14.2646 53.1682C15.8851 53.8246 17.6661 54.4611 19.3436 53.9685C21.0211 53.4758 22.2584 51.3007 21.1924 49.9149C28.3625 47.8229 35.7726 46.6652 43.239 46.4704C43.8151 46.3981 44.3992 46.509 44.9087 46.7873C45.8807 47.4616 45.625 48.9181 45.5726 50.0999C45.5203 51.2817 46.4413 52.8349 47.4976 52.3022C46.2549 53.3797 47.3172 55.4083 48.5094 56.5415C49.7016 57.6746 51.1386 59.2381 50.4087 60.7121C50.2182 61.0968 49.8951 61.4046 49.7118 61.7928C49.1708 62.9387 50.0298 64.2745 51.043 65.0354C52.0562 65.7963 53.2973 66.3281 54.0012 67.3818C54.705 68.4355 54.3854 70.2799 53.1268 70.427L49.5495 65.885C48.3273 67.1524 47.4894 68.7402 47.133 70.4644C50.9264 73.5655 51.497 79.8773 48.3212 83.6084C46.6983 85.515 44.3904 86.6736 42.376 88.1608C40.3617 89.6479 38.4979 91.7657 38.5029 94.2695C38.5117 98.5952 38.1582 102.614 39.7792 106.625C42.7683 114.02 46.2192 121.219 50.1117 128.181C51.1339 130.01 52.455 132.013 54.5257 132.328C51.9087 125.957 49.5529 119.487 47.4582 112.918C48.8225 112.923 50.3991 113.032 51.1989 114.137C51.8611 115.052 51.7189 116.297 51.9247 117.407C52.1864 118.484 52.6228 119.51 53.2166 120.445L65.7135 142.705C66.7495 144.551 67.9378 146.532 69.9178 147.279C71.1837 147.757 72.6482 147.667 73.8134 148.355C74.7267 148.894 75.3418 149.851 76.2728 150.359C78.9053 151.795 82.5661 149.041 85.0263 150.755C85.7298 151.246 86.1773 152.024 86.8254 152.586C89.0976 154.553 92.825 153.237 95.4479 154.705C97.1384 155.651 98.0145 157.543 98.9162 159.257C101.175 163.552 104.829 167.76 109.67 168.102C111.19 168.209 112.743 167.921 114.229 168.259C115.716 168.597 117.179 169.894 116.94 171.4C116.531 173.981 117.806 176.807 117.464 179.397C116.84 184.116 110.147 186.19 109.572 190.915C109.446 191.949 109.643 193.017 109.396 194.03C109.095 195.271 108.162 196.282 107.831 197.515C107.204 199.853 108.878 202.18 110.718 203.752C112.558 205.325 114.753 206.681 115.759 208.883C116.822 211.21 116.3 213.924 116.646 216.459C117.401 221.993 122.181 226.096 127.1 228.741C128.599 229.547 130.208 230.327 131.179 231.725C132.445 233.55 132.319 235.956 132.741 238.137C133.777 243.477 138.273 247.878 138.4 253.316C138.491 257.181 136.342 260.688 135.059 264.335C133.855 267.83 133.42 271.542 133.782 275.22C134.144 278.898 135.296 282.455 137.157 285.648C138.117 287.269 139.266 288.798 139.945 290.555C141.157 293.692 140.764 297.257 141.881 300.428C143.359 304.621 147.419 308.085 147.03 312.513C148.874 316.341 152.944 318.221 157.036 319.361L164.371 321.403C165.776 321.794 167.244 322.188 168.674 321.904C170.104 321.621 171.469 320.434 171.432 318.976C167.835 318.165 164.122 317.303 161.157 315.111C158.192 312.919 156.161 309.016 157.286 305.504C157.808 303.876 158.917 301.995 157.862 300.65C157.258 299.88 156.153 299.678 155.472 298.975C154.409 297.879 154.774 296.038 155.538 294.716C156.302 293.394 157.407 292.212 157.715 290.717C157.871 289.88 157.767 289.016 157.417 288.24C157.068 287.464 156.489 286.814 155.759 286.376C157.12 285.862 158.356 285.069 159.39 284.046C160.345 282.956 160.786 281.275 160.035 280.036C162.265 280.319 164.898 280.457 166.362 278.751C167.532 277.388 167.451 275.352 166.989 273.617C166.527 271.882 165.746 270.197 165.722 268.402C170.867 268.646 176.024 268.471 181.14 267.879C180.4 265.387 178.719 263.281 176.453 262.008C178.77 261.616 180.881 258.842 181.613 256.608C182.345 254.375 182.159 251.942 181.706 249.636C181.532 249.042 181.509 248.415 181.637 247.809C181.898 246.978 182.715 246.47 183.471 246.036L194.973 239.43C195.66 239.086 196.282 238.627 196.812 238.072C198.018 236.657 197.839 234.52 197.222 232.766C196.605 231.013 195.617 229.364 195.379 227.52C194.668 222.005 200.571 218.049 202.563 212.858C203.345 210.821 203.504 208.607 203.655 206.43C203.818 204.092 203.83 201.377 202.035 199.87C200.314 198.426 197.626 198.748 195.825 197.405C194.174 196.173 193.605 193.781 191.801 192.787C190.164 191.883 188.11 192.458 186.289 192.033C183.082 191.285 181.064 187.589 177.788 187.246C175.94 187.053 173.849 187.957 172.334 186.88C170.999 185.932 170.946 184.026 170.692 182.409C170.247 179.895 169.042 177.578 167.24 175.77C165.437 173.962 163.124 172.75 160.612 172.296C158.707 171.991 156.633 172.107 155.012 171.06C153.37 169.999 152.618 168.014 151.329 166.546C149.251 164.179 145.978 163.339 142.912 162.618L130.442 159.686C128.228 159.166 125.375 158.89 124.187 160.829C123.835 161.567 123.586 162.35 123.447 163.156C123.002 164.614 122.106 165.893 120.888 166.81C119.671 167.726 118.194 168.233 116.67 168.257C115.625 166.475 113.931 165.165 111.944 164.601C110.679 164.248 109.326 164.209 108.12 163.691C107.463 163.37 106.878 162.919 106.402 162.364C105.926 161.81 105.567 161.164 105.349 160.467C105.131 159.769 105.057 159.035 105.133 158.308C105.209 157.581 105.432 156.877 105.789 156.239C106.508 154.959 106.785 153.478 106.579 152.025C106.372 150.571 105.693 149.226 104.646 148.197C102.526 146.293 99.458 145.833 96.6144 146.023C95.8697 144.398 97.1149 142.565 98.4568 141.384C99.7987 140.203 101.428 139.042 101.72 137.278C102.18 134.504 98.6406 132.397 95.9532 133.225C93.2658 134.052 91.5505 136.662 90.4166 139.235C89.7661 140.711 89.213 142.266 88.1868 143.511C87.1607 144.756 85.5081 145.647 83.945 145.248C81.7322 144.682 80.8775 142.053 80.3878 139.822C79.7307 136.829 79.0698 133.794 79.2075 130.733C79.3451 127.672 80.3772 124.528 82.6345 122.456C86.313 119.079 91.956 119.41 96.9205 119.949C95.7476 118.627 96.0374 116.4 97.2924 115.156C97.9548 114.568 98.7509 114.15 99.6114 113.938C100.472 113.727 101.371 113.729 102.231 113.943C103.727 114.255 105.075 115.06 106.057 116.231C107.468 117.951 107.869 120.273 108.935 122.225C110.001 124.178 112.399 125.843 114.362 124.795C116.057 123.891 116.326 121.54 115.904 119.666C115.482 117.791 114.586 115.968 114.739 114.053C115.03 110.398 118.819 108.198 122.162 106.693C125.505 105.188 129.333 103.164 129.863 99.5361C129.881 98.8258 130.015 98.1232 130.259 97.4561C130.63 96.8669 131.145 96.3823 131.756 96.0485C141.513 89.6005 151.432 83.0738 162.584 79.5504C163.164 79.3671 163.232 79.5709 163.824 79.4273C164.651 78.949 164.103 77.6259 163.309 77.0929C162.516 76.56 161.456 76.1512 161.254 75.2169C161.106 74.53 161.511 73.8556 161.616 73.1609C161.874 71.4539 159.832 69.8778 158.246 70.5603C157.351 69.3739 159.123 67.9955 160.556 67.6009C164.86 66.4164 169.278 65.6947 173.735 65.4481C174.249 65.3663 174.776 65.4559 175.235 65.7031C175.983 66.2217 175.888 67.411 175.357 68.1511C174.826 68.8913 174.001 69.356 173.34 69.9822C172.618 70.6859 172.103 71.5744 171.851 72.5508C171.599 73.5273 171.62 74.5541 171.912 75.5193C174.239 76.7029 176.768 77.9212 179.345 77.5043C181.922 77.0873 184.21 74.1919 182.998 71.8795C181.87 69.7261 178.482 69.2404 177.9 66.8803C177.217 64.117 181.129 61.6594 180.248 58.953C179.862 57.7676 178.68 57.0699 177.774 56.214C176.703 55.1646 175.975 53.816 175.685 52.3452C175.394 50.8744 175.556 49.3502 176.147 47.9728C174.671 48.2326 173.153 48.1344 171.722 47.6867C170.292 47.2389 168.989 46.4545 167.924 45.3993C165.957 43.4142 164.388 40.2828 161.594 40.3716C159.031 40.4531 156.823 43.4435 154.427 42.5311C153.837 42.3067 153.215 41.8499 152.644 42.1175C152.457 42.2391 152.3 42.4016 152.184 42.5929C152.069 42.7841 151.999 42.999 151.979 43.2213C151.37 46.1333 152.418 49.4512 150.831 51.9675C149.104 54.7057 145.109 55.0854 143.015 57.5546C141.879 58.8949 141.438 60.7011 140.394 62.1142C139.349 63.5273 137.132 64.4258 135.878 63.1943C136.494 61.9276 136.662 60.4894 136.355 59.1147C136.048 57.7399 135.284 56.51 134.187 55.626C133.023 54.8666 131.768 54.2563 130.452 53.8094C128.982 53.187 127.583 52.4073 126.28 51.4841C125.627 51.0904 125.097 50.523 124.748 49.8452C124.472 48.9965 124.51 48.0772 124.853 47.2535C125.489 45.4309 126.61 43.8165 128.097 42.5846C129.583 41.3528 131.377 40.5503 133.286 40.2638C134.955 40.0367 136.898 40.1167 138.003 38.8448C138.587 38.1719 138.894 37.1544 139.743 36.8811C140.285 36.7721 140.849 36.8414 141.349 37.0789L147.579 39.2719C148.274 39.5858 149.04 39.7123 149.799 39.639C150.175 39.5883 150.519 39.3971 150.76 39.1038C151.001 38.8105 151.123 38.4367 151.1 38.0576C150.901 37.0229 149.309 36.5264 149.454 35.4827C149.535 35.1445 149.717 34.8389 149.975 34.6062C152.224 32.213 154.974 30.3465 158.028 29.1403C161.082 27.9342 164.365 27.4183 167.642 27.6295C168.429 28.9211 167.185 30.4505 166.15 31.5531C165.115 32.6556 164.284 34.6257 165.535 35.4744C166.048 35.7361 166.619 35.8646 167.194 35.848C168.728 36.0556 170.219 36.5078 171.61 37.1873C173.763 38.1242 175.874 39.1494 177.945 40.2628C177.762 38.8977 177.587 37.4596 178.105 36.1832C178.622 34.9068 180.093 33.9056 181.377 34.4027C182.615 34.8818 183.25 36.5209 184.569 36.671C186.328 36.8713 187.022 34.2724 186.287 32.6615C185.552 31.0506 184.098 29.7017 183.976 27.9353C183.894 26.7436 184.348 25.2656 183.396 24.544C183.057 24.3274 182.673 24.1926 182.273 24.1502L158.504 19.7764C157.093 19.5167 155.054 19.7158 154.991 21.1495C154.956 21.9498 155.671 22.7416 155.354 23.4774C155.016 24.2627 153.906 24.1909 153.098 24.4687C151.843 24.8997 151.214 26.3895 151.334 27.7106C151.555 29.0233 152.063 30.2709 152.823 31.3639C151.277 30.7174 148.936 30.5986 147.39 29.952Z"/><path fill="#92E3A9" d="M128.424 9.77547C126.926 9.27946 125.31 9.25636 123.798 9.70929C122.286 10.1622 120.949 11.0693 119.97 12.3075C119.578 12.8228 119.25 13.5331 119.577 14.0911C120.047 14.891 121.244 14.575 122.126 14.2889C123.423 13.8255 124.835 13.7918 126.153 14.1929C126.981 14.4773 127.723 14.9801 128.555 15.2539C128.96 15.4233 129.403 15.4793 129.838 15.4158C130.272 15.3523 130.681 15.1717 131.021 14.8934C131.592 14.3109 131.628 13.4053 131.629 12.5895C131.669 12.3165 131.647 12.0382 131.565 11.7747C131.484 11.5112 131.344 11.2693 131.157 11.0666C130.824 10.8737 130.45 10.763 130.065 10.7437C129.204 10.5843 128.426 10.1294 127.864 9.45755"/><path fill="#92E3A9" d="M136.996 7.38864C136.661 7.37037 136.326 7.43871 136.025 7.58707C135.723 7.73544 135.465 7.95884 135.275 8.23581C135.085 8.51277 134.97 8.83397 134.939 9.16854C134.909 9.5031 134.966 9.83976 135.104 10.1462C136.134 10.4271 137.21 10.4973 138.268 10.3525C138.795 10.2706 139.287 10.0343 139.681 9.67345C140.074 9.31261 140.352 8.84335 140.479 8.32479C139.234 8.55144 137.949 8.30598 136.874 7.6363"/><path fill="#92E3A9" d="M165.75 3.40421C162.947 4.00029 160.223 4.92546 157.637 6.16047C158.856 6.62919 159.893 7.47722 160.594 8.57959C161.295 9.68197 161.623 10.9804 161.53 12.2835C161.421 12.7837 161.434 13.303 161.567 13.7973C161.865 14.5198 162.729 14.7908 163.488 14.9763C164.852 15.3913 166.276 15.5731 167.7 15.5139C168.413 15.4767 169.105 15.2623 169.714 14.8902C170.323 14.5182 170.829 14.0002 171.187 13.3831C171.394 12.7975 171.636 12.225 171.912 11.669C173.732 8.89773 179.138 12.2487 181.092 9.57015C181.78 8.62661 181.717 7.20633 182.614 6.45866C183.078 6.13292 183.616 5.92767 184.179 5.86139C188.108 5.0808 192.077 4.51558 196.067 4.16826C197.958 4.00372 200.423 3.32478 200.438 1.42688C193.316 0.0281467 185.932 1.02158 179.433 4.25273C177.091 5.42556 173.994 7.89263 171.738 6.33775C170.894 5.75557 170.936 4.18792 169.773 3.53328C168.585 2.86399 167.012 3.1362 165.75 3.40421Z"/><path fill="#92E3A9" d="M189.042 7.75943L192.385 8.40182C191.77 8.37457 191.156 8.47886 190.584 8.70775C190.012 8.93663 189.495 9.28485 189.069 9.72916C188.642 10.1735 188.315 10.7037 188.11 11.2844C187.904 11.8651 187.825 12.4829 187.877 13.0967C191.008 14.1426 194.421 13.1248 197.719 13.2638C201.017 13.4029 204.854 15.7586 204.291 19.0111C204.121 19.9945 203.552 20.9773 203.848 21.9306C204.055 22.5988 204.644 23.0729 204.977 23.6883C205.67 24.9707 205.116 26.5927 204.241 27.7584C203.366 28.9242 202.189 29.8543 201.421 31.0931C199.51 34.1743 200.596 38.1576 201.734 41.5998C202.063 42.9004 202.671 44.1141 203.515 45.1567C205.201 46.9496 207.949 47.1056 210.411 47.1415C212.202 47.1676 214.254 47.0791 215.386 45.6913C216.865 43.8794 215.831 41.0525 216.805 38.926C217.689 36.9947 219.942 36.1662 221.983 35.5785C225.723 34.502 229.534 33.5867 233.069 31.9606C237.459 29.9414 241.562 26.7947 246.387 26.5348C247.74 26.4619 249.128 26.6216 250.432 26.2507C251.735 25.8798 252.974 24.7525 252.875 23.4005C252.791 22.2453 251.814 21.397 251.05 20.5261C250.286 19.6553 249.687 18.3162 250.388 17.3948L263.036 15.0325C262.139 12.5894 261.441 9.37168 263.501 7.7814C264.244 7.20762 265.239 6.97829 265.872 6.28462C266.951 5.10234 266.408 3.06575 265.163 2.06029C263.918 1.05483 262.235 0.821413 260.64 0.688937C255.094 0.228383 249.517 0.532707 243.961 0.837268C233.099 1.43262 222.238 2.02797 211.377 2.62332C209.19 2.74316 206.666 2.56007 204.661 3.306C202.963 3.93751 201.756 5.09671 199.814 5.50399C196.23 6.25586 192.286 5.74708 189.042 7.75943Z"/><path fill="#92E3A9" d="M248.933 34.1854C248.592 34.1315 248.244 34.2105 247.96 34.4061C247.772 34.6129 247.66 34.8776 247.643 35.1564C247.427 36.3872 247.684 37.6541 248.363 38.7033C248.708 39.218 249.185 39.6308 249.745 39.8989C250.304 40.1669 250.924 40.2804 251.542 40.2276C253.047 40.0356 254.157 38.7514 255.541 38.1247C257.674 37.1597 266.732 35.6553 260.466 32.27C258.307 31.1033 256.911 32.1332 255.209 32.9015C253.273 33.8922 251.103 34.3361 248.933 34.1854Z"/><path fill="#92E3A9" d="M303.817 5.84819C303.086 6.14712 302.474 6.67994 302.077 7.36344C301.894 7.71051 301.851 8.11459 301.958 8.4921C302.065 8.86961 302.313 9.19164 302.65 9.39157C302.923 9.49066 303.213 9.53662 303.504 9.52697L306.479 9.61586C307.743 9.65362 309.321 9.92279 309.661 11.1408C309.913 12.0451 309.349 13.2073 310.03 13.8536C310.322 14.0799 310.673 14.217 311.042 14.2483C312.022 14.5001 313.045 14.5331 314.04 14.3451C316.204 13.7644 315.067 12.4433 315.749 11.2668C316.792 9.46686 316.611 10.5565 318.449 9.52486C319.807 8.76301 321.561 7.38098 320.428 5.43922C318.457 2.06254 306.725 4.39758 303.817 5.84819Z"/><path fill="#92E3A9" d="M362.539 4.15084L360.812 4.38138C356.916 4.90124 352.998 5.42588 349.246 6.59574C350.87 7.23789 352.574 7.65602 354.311 7.83861C355.267 7.88548 356.217 8.02049 357.148 8.24192C358.806 8.73526 360.476 10.0092 362.077 9.35664C363.069 8.952 363.393 7.91836 364.216 7.37055C364.783 6.99229 366.937 6.38005 367.178 5.99827C369.124 2.91175 364.035 3.95119 362.539 4.15084Z"/><path fill="#92E3A9" d="M370.125 12.0027C367.817 13.293 365.676 14.8609 363.749 16.6714C362.938 17.4345 362.109 18.3835 362.182 19.495C362.28 20.9724 363.854 21.8294 365.217 22.4067L370.74 24.7448C371.41 23.8006 370.797 22.4971 370.104 21.5691C369.412 20.6411 368.589 19.5675 368.895 18.4508C369.244 17.1765 370.798 16.7423 372.101 16.5227C374.224 16.165 379.95 16.1937 379.262 12.7725C378.451 8.74135 372.256 10.8116 370.125 12.0027Z"/><path fill="#92E3A9" d="M369.013 240.131C368.488 241.653 368.438 243.446 369.347 244.775C370.368 246.266 372.41 246.822 374.177 246.444C375.936 245.976 377.505 244.967 378.661 243.561C379.718 242.382 380.588 241.048 381.24 239.606C382.15 237.357 382.792 235.009 383.152 232.611L384.867 223.608C385.25 221.596 385.235 215.427 381.537 217.437C380.527 217.986 378.188 222.321 377.129 223.55C375.221 225.766 374.968 227.916 373.964 230.6C372.705 233.962 370.176 236.764 369.013 240.131Z"/><path fill="#92E3A9" d="M564.337 286.202C563.126 285.729 561.952 285.17 560.822 284.529C559.69 287.643 559.088 290.924 559.041 294.238L567.321 289.552C568.567 288.847 569.979 287.868 569.952 286.437C569.963 286.26 569.927 286.084 569.846 285.926C569.766 285.768 569.644 285.635 569.494 285.541C569.31 285.467 569.11 285.443 568.914 285.473C567.686 285.575 566.566 286.179 565.408 286.599C564.25 287.019 562.895 287.241 561.833 286.618"/><path fill="#92E3A9" d="M608.016 288.984C607.108 289.231 606.22 289.55 605.361 289.937C603.461 290.903 602.168 292.74 600.458 294.013C598.822 295.232 596.852 295.901 594.918 296.551C594.35 297.054 594.611 298.067 595.228 298.509C595.892 298.886 596.654 299.057 597.415 299C599.424 299.044 601.541 299.064 603.3 298.093C604.292 297.45 605.22 296.714 606.071 295.894C608.128 294.178 610.599 293.045 613.045 291.951C613.935 291.615 614.758 291.122 615.476 290.497C617.012 288.983 617.12 286.647 614.904 286.132C613.114 285.716 609.721 288.432 608.016 288.984Z"/><path fill="#92E3A9" d="M627.317 276.377C627.417 275.335 627.278 274.284 626.912 273.303C626.546 272.323 625.962 271.438 625.204 270.717C625.181 272.801 625.118 275.022 623.946 276.746C623.11 277.974 621.801 278.803 620.885 279.973C619.97 281.143 619.564 282.997 620.638 284.024C621.324 284.546 622.159 284.834 623.022 284.845C625.158 285.097 627.632 285.237 629.131 283.693C629.949 282.85 630.346 281.602 631.344 280.983C631.716 280.827 632.048 280.589 632.315 280.288C632.727 279.633 632.073 278.77 631.336 278.534C630.599 278.298 629.787 278.409 629.047 278.185C628.306 277.961 627.627 277.128 628.007 276.454"/><path fill="#92E3A9" d="M593.016 199.952C591.894 200.224 590.733 200.293 589.588 200.154C587.686 199.804 586.205 198.37 584.669 197.194C581.018 194.415 576.58 192.864 571.992 192.765C567.819 192.686 563.607 193.817 559.508 193.028C559.776 194.518 561.05 195.635 562.41 196.299C563.77 196.963 565.271 197.297 566.637 197.948C568.826 199 570.562 200.805 571.526 203.034C571.966 204.061 572.243 205.179 572.91 206.076C574.273 207.909 576.855 208.312 579.135 208.162C582.106 207.967 585.21 207.112 587.975 208.219C590.09 209.066 591.604 210.917 593.37 212.357C595.136 213.796 597.623 214.864 599.651 213.826C597.545 213.144 595.711 211.807 594.419 210.009C593.126 208.212 592.442 206.048 592.466 203.834C594.455 204.017 600.184 203.946 599.875 200.567C599.614 197.703 594.723 199.642 593.016 199.952Z"/><path fill="#92E3A9" d="M566.996 223.253C567.349 221.317 569.28 219.606 568.679 217.732C568.263 216.435 566.76 215.795 565.399 215.763C564.037 215.731 562.7 216.137 561.339 216.175C560.453 216.128 559.565 216.14 558.681 216.213C555.98 216.657 554.314 219.488 551.768 220.495C550.22 221.107 548.481 220.99 546.871 221.414C543.216 222.374 540.904 225.828 538.349 228.613C534.221 233.092 528.843 236.228 522.912 237.615C520.834 238.096 518.6 238.404 516.948 239.754C514.761 241.541 514.222 244.605 513.736 247.387C512.391 255.072 510.336 262.615 507.598 269.919L516.276 271.027C517.926 271.238 519.636 271.444 521.226 270.956C522.381 270.52 523.475 269.937 524.481 269.221C528.346 266.822 532.672 265.26 537.179 264.638C539.451 264.326 541.834 264.269 543.967 265.114C546.099 265.958 547.929 267.874 548.108 270.161C549.03 269.874 550.013 269.843 550.951 270.071C551.89 270.3 552.749 270.778 553.436 271.457C554.795 272.842 555.685 274.618 555.98 276.535C556.209 277.723 556.438 279.145 557.539 279.643C558.438 280.05 559.469 279.612 560.452 279.533C563.789 279.266 566.558 283.157 569.837 282.487C573.354 281.769 574.218 276.501 577.649 275.446C579.62 274.84 582.384 275.577 583.328 273.744C584.16 272.128 582.5 270.263 582.671 268.454C582.882 266.227 585.51 265.281 587.535 264.33C594.519 261.054 597.833 251.654 594.449 244.721C592.444 240.614 588.499 237.381 587.77 232.868C587.209 229.397 588.578 225.348 586.364 222.615C585.238 221.225 583.332 220.458 582.662 218.799C582.24 217.755 582.41 216.571 582.183 215.468C581.956 214.365 580.993 213.211 579.904 213.497C576.743 214.327 575.734 224.093 574.041 226.467C571.468 230.074 566.186 227.698 566.996 223.253Z"/><path fill="#92E3A9" d="M508.559 203.641C507.478 203.338 506.298 203.04 505.263 203.473C504.228 203.906 503.623 205.426 504.454 206.18C510.954 205.927 517.494 205.675 523.939 206.558C531.364 207.575 538.713 210.094 546.171 209.353C541.911 208.096 537.58 207.092 533.202 206.344L525.901 204.949C523.942 204.539 521.963 204.233 519.972 204.033C515.807 203.689 512.654 204.79 508.559 203.641Z"/><path fill="#92E3A9" d="M515.066 181.003C514.526 180.958 513.858 180.919 513.578 181.383C513.312 181.826 513.617 182.412 513.474 182.909C513.278 183.588 512.388 183.762 511.688 183.669C510.987 183.577 510.229 183.356 509.608 183.693C509.293 183.908 509.057 184.22 508.934 184.581C508.811 184.942 508.808 185.333 508.927 185.695C509.181 186.415 509.591 187.069 510.129 187.611C511.047 188.768 512.093 189.817 513.247 190.739C515.481 192.388 518.508 193.183 519.915 195.577C520.113 196.04 520.418 196.451 520.805 196.775C521.481 197.203 522.362 196.877 523.089 196.545L525.638 195.38C526.097 195.215 526.507 194.936 526.83 194.57C527.412 193.779 527.055 192.656 526.566 191.805C526.077 190.953 525.451 190.072 525.556 189.096C525.743 187.356 527.981 186.69 528.901 185.201C529.828 183.7 529.224 181.766 529.331 180.005C529.456 177.946 530.751 175.267 528.668 173.728C526.899 172.42 525.207 173.628 523.937 175.072C521.258 178.117 519.991 181.414 515.066 181.003Z"/><path fill="#92E3A9" d="M530.541 150.23C531.411 151.896 533.226 152.89 534.175 154.513C535.203 156.272 535.086 158.545 536.202 160.25C537.347 162 539.651 162.928 540.294 164.918C540.995 167.09 539.404 169.73 540.672 171.628C540.908 171.939 541.207 172.196 541.548 172.385C541.889 172.574 542.266 172.69 542.655 172.726C543.043 172.762 543.435 172.716 543.805 172.593C544.175 172.469 544.515 172.27 544.804 172.008C545.338 171.426 545.625 170.658 545.601 169.868C545.578 169.078 545.247 168.329 544.679 167.779C543.928 167.095 542.85 166.799 542.223 166C541.897 165.538 541.68 165.009 541.587 164.451C541.246 162.843 541.3 161.175 541.747 159.593C541.915 159.191 541.957 158.748 541.869 158.322C541.587 157.501 540.476 157.443 539.697 157.063C537.926 156.199 537.969 153.7 538.279 151.754C538.073 153.05 533.459 150.847 532.976 150.113C532.016 148.655 532.538 145.844 532.348 144.233C530.276 145.231 529.477 148.192 530.541 150.23Z"/><path fill="#92E3A9" d="M484.056 175.87C483.204 174.916 481.922 173.919 480.78 174.494C479.909 174.933 479.669 176.138 480.011 177.051C480.426 177.939 481.067 178.702 481.868 179.266C484.248 181.229 486.81 183 488.886 185.281C492.6 189.363 494.568 194.871 498.608 198.632C499.42 199.504 500.495 200.086 501.669 200.289C502.846 200.398 504.168 199.645 504.303 198.471C504.415 197.503 503.741 196.638 503.081 195.921C501.512 194.214 499.794 192.643 498.313 190.859C497.628 190.174 497.198 189.276 497.094 188.313C497.086 187.353 497.962 186.348 498.892 186.585C497.761 186.296 496.921 184.411 495.26 184.056C493.872 183.76 493.537 184.62 491.885 183.911C488.734 182.56 486.262 178.34 484.056 175.87Z"/><path fill="#92E3A9" d="M558.086 83.0399C557.182 82.7713 556.294 82.4539 555.424 82.0891C553.085 81.3869 549.99 83.1063 550.302 85.5287C550.509 87.1382 552.007 88.2233 552.834 89.6194C554.061 91.6897 553.734 94.3156 553.089 96.6341C552.931 97.352 552.63 98.0308 552.204 98.63C551.609 99.2627 550.897 99.7746 550.108 100.138C546.949 101.909 544.163 104.276 541.904 107.107C541.659 107.369 541.488 107.691 541.409 108.041C541.297 108.859 542.119 109.455 542.584 110.137C543.617 111.652 542.87 113.691 542.972 115.522C542.957 115.781 543.007 116.04 543.12 116.273C543.232 116.507 543.402 116.708 543.614 116.858C544.236 117.174 544.974 116.637 545.311 116.026C546.43 113.998 545.587 110.743 547.687 109.765C548.084 109.58 548.566 109.502 548.831 109.153C549.251 108.6 548.845 107.78 549.058 107.119C549.378 106.125 550.737 106.081 551.78 106.125C553.576 106.2 555.371 105.961 557.085 105.418C557.758 105.258 558.368 104.905 558.841 104.401C559.469 103.618 559.414 102.504 559.288 101.508C558.66 96.5425 557.087 91.7432 554.654 87.369C556.499 87.6047 558.506 87.8087 560.098 86.8474C560.989 86.3091 562.058 84.6994 561.616 83.6037C560.917 81.8711 559.654 83.3295 558.086 83.0399Z"/><path fill="#92E3A9" d="M321.611 110.349C321.832 111.533 322.049 112.779 321.661 113.92C321.273 115.06 320.053 116.012 318.9 115.663C318.006 115.392 317.489 114.493 316.854 113.807C313.322 109.994 305.353 112.201 303.171 107.484C302.28 105.558 302.885 103.252 302.278 101.219C301.895 100.045 301.132 99.0305 300.11 98.3362C299.088 97.6419 297.864 97.3067 296.631 97.3833C295.506 97.5457 294.412 97.8726 293.382 98.3533C286.483 101.116 279.24 102.928 271.853 103.738C270.449 103.823 269.06 104.076 267.716 104.491C264.683 105.59 262.61 108.402 261.136 111.272C259.661 114.142 258.572 117.248 256.594 119.798C254.516 122.477 251.604 124.353 248.887 126.383C247.841 127.057 246.97 127.97 246.345 129.047C245.756 130.256 245.789 131.663 245.835 133.007L246.39 149.331C246.462 151.431 246.551 153.606 247.491 155.485C248.665 157.832 250.983 159.368 252.591 161.441C254.232 163.571 255.087 166.203 255.011 168.891C254.977 169.972 254.87 171.25 255.711 171.929C256.223 172.261 256.822 172.433 257.433 172.424L279.515 174.231C283.399 174.549 287.704 175.072 290.24 178.031C291.437 179.428 292.399 181.437 294.232 181.586C295.019 181.651 295.784 181.328 296.57 181.266C298.555 181.108 300.298 182.615 301.398 184.274C303.063 186.802 303.819 189.822 303.541 192.836C303.361 194.729 302.774 196.569 302.648 198.465C302.167 205.683 308.285 211.953 308.403 219.185C308.473 223.439 306.454 227.414 304.485 231.186C307.662 236 305.06 242.41 306.325 248.038C307.526 253.377 311.977 257.557 313.087 262.916C313.595 265.369 313.624 268.388 315.787 269.652C316.737 270.114 317.789 270.325 318.843 270.263C325.202 270.339 331.488 268.908 337.187 266.087C339.862 264.76 342.635 262.778 343.102 259.829C343.479 257.45 342.272 254.79 343.5 252.718C344.947 250.276 348.653 250.469 350.782 248.592C354.235 245.546 351.542 239.738 352.941 235.351C354.199 231.408 358.529 229.313 360.675 225.774C361.519 224.252 362.125 222.609 362.472 220.903C363.455 216.826 364.067 212.669 364.3 208.481C364.357 205.937 364.545 203.398 364.862 200.873C367.176 186.498 381.387 176.872 386.001 163.062C386.442 161.743 386.649 159.987 385.475 159.241C384.779 158.909 383.991 158.826 383.241 159.007L373.061 160.29C371.797 160.449 370.457 160.598 369.296 160.073C368.135 159.548 367.302 158.079 367.918 156.964C369.647 153.832 366.091 149.874 364.511 146.665C360.256 138.023 355.188 129.805 349.378 122.123C349.006 121.727 348.773 121.222 348.714 120.682L351.603 120.778C350.628 117.279 349.018 113.449 345.619 112.169C343.703 111.448 341.581 111.697 339.537 111.809C333.683 112.129 327.406 111.245 321.611 110.349Z"/><path fill="#92E3A9" d="M339.543 31.489C341.075 33.1159 342.792 34.8408 345.008 35.1244C348.924 35.6253 351.739 31.5767 353.531 28.0599C353.597 28.9565 354.011 29.7918 354.683 30.3882C355.356 30.9845 356.235 31.2949 357.133 31.2534C358.099 31.0908 359.022 30.7302 359.842 30.1942C367.599 25.955 376.288 23.7089 385.128 23.6576C385.043 22.988 385.209 22.3107 385.594 21.7563C385.979 21.2019 386.556 20.8098 387.213 20.6556C389.01 20.2993 390.629 21.8532 391.496 23.4674C392.363 25.0816 392.904 26.9525 394.282 28.1607C395.659 29.3689 398.326 29.3163 398.87 27.5667C399.392 25.887 397.643 24.4545 396.189 23.4642C394.735 22.4739 393.202 20.641 394.181 19.1795C401.609 17.5354 409.082 15.8851 416.682 15.5583C417.976 15.6033 419.266 15.3812 420.47 14.9058C421.629 14.3371 422.55 13.046 422.239 11.7931C420.58 12.183 418.843 12.0701 417.249 11.4688C415.655 10.8675 414.276 9.80506 413.288 8.41697C423.834 7.54673 435.05 6.80496 444.396 11.7672C445.518 14.1748 439.802 16.1779 441.331 18.3494C441.819 19.042 442.796 19.1232 443.643 19.139C450.138 19.2595 456.67 19.3778 463.091 18.3972C465.437 18.0389 467.808 17.5331 470.164 17.8237C474.088 18.3076 477.444 20.9259 481.305 21.7796C482.876 22.127 484.638 22.1388 485.962 21.2249C487.287 20.311 487.856 18.2299 486.771 17.0419C490.406 13.4793 496.439 14.3623 501.234 16.0678C506.029 17.7734 510.572 20.5239 515.648 20.9041C519.287 21.1767 522.977 20.1977 526.574 20.82C528.833 21.211 530.937 22.2164 533.146 22.8341C537.323 24.0023 541.742 23.7557 546.079 23.8119C557.146 23.961 568.092 26.136 578.375 30.2293C579.713 30.6648 580.939 31.3889 581.965 32.3505C582.922 33.3751 583.41 34.9673 582.767 36.213L572.141 34.6604C573.142 36.6313 575.733 36.9672 577.836 37.6471C579.939 38.327 582.12 40.6498 580.856 42.4633C578.577 41.7376 576.512 44.0162 575.361 46.1126C574.209 48.2091 572.806 50.7199 570.418 50.8476C568.279 50.962 565.693 49.1409 564.299 50.7669C566.225 53.1965 567.874 55.8331 569.216 58.628C570.593 61.4973 571.574 65.1126 569.713 67.6942C569.42 68.155 568.975 68.4995 568.456 68.6684C566.936 69.0533 565.948 67.1934 564.858 66.0662C563.484 64.6457 561.406 64.2433 559.546 63.5771C557.685 62.9109 555.725 61.6004 555.58 59.6296C555.489 58.4034 556.137 57.2636 556.614 56.1303C557.415 54.2201 557.766 52.1508 557.638 50.0832C557.534 48.4198 557.067 46.6895 555.873 45.5273C554.678 44.3651 552.615 43.9964 551.333 45.0608C550.735 45.5575 550.255 46.352 549.478 46.3817C548.105 46.4342 547.051 44.0404 545.946 44.8575C546.076 45.7282 545.895 46.6168 545.436 47.3679C542.139 50.2349 537.075 49.022 532.825 50.0347C530.805 50.6131 528.87 51.458 527.072 52.5473C526.4 52.8349 525.827 53.3152 525.428 53.9277C524.897 54.9586 525.482 56.2788 526.417 56.9643C527.409 57.5725 528.523 57.9528 529.679 58.0778C534.86 59.0591 540.117 60.5781 544.207 63.9059C548.298 67.2337 550.98 72.7347 549.686 77.8465L539.469 68.0837C539.857 72.1829 540.077 76.2934 540.129 80.4152C540.195 81.22 540.085 82.0295 539.805 82.7871C539.077 84.3959 537.103 84.9373 535.373 85.2924C534.892 85.3838 534.435 85.576 534.034 85.8563C533.632 86.1366 533.294 86.4987 533.043 86.9189C532.791 87.339 532.631 87.8076 532.573 88.294C532.515 88.7803 532.561 89.2734 532.708 89.7408C533.322 91.7442 534.855 93.3061 536.258 94.8625C537.661 96.4188 539.042 98.1877 539.226 100.275C539.41 102.363 537.835 104.716 535.744 104.57C534.159 104.46 532.984 103.042 532.308 101.604C531.632 100.167 531.229 98.5651 530.214 97.3436C527.14 93.6464 520.235 95.2304 517.481 91.2889C516.779 92.0852 516.292 93.0477 516.067 94.085C515.841 95.1223 515.885 96.2 516.193 97.2158C517.474 96.4138 519.228 97.159 520.191 98.3243C521.153 99.4897 521.607 100.984 522.363 102.293C523.383 104.059 525.007 105.625 525.149 107.659C525.111 108.429 525.124 109.2 525.188 109.967C525.441 111.2 526.483 112.085 527.205 113.116C528.886 115.514 528.803 118.807 527.72 121.528C526.636 124.248 524.69 126.522 522.762 128.726C519.394 132.575 515.957 136.402 511.965 139.599C510.826 140.511 509.61 141.408 508.9 142.683C508.191 143.959 508.154 145.749 509.245 146.719C508.465 146.758 507.065 147.142 506.285 147.181C506.011 144.051 505.951 140.906 506.107 137.768C503.028 136.29 499.713 140.249 500.11 143.641C500.508 147.033 502.961 149.755 504.708 152.69C505.985 154.836 506.935 157.339 506.508 159.8C506.082 162.26 503.885 164.531 501.397 164.314C497.439 163.968 495.784 158.287 491.865 157.637C491.519 157.555 491.157 157.592 490.834 157.739C490.252 158.058 490.151 158.837 490.118 159.5C489.958 162.753 489.819 166.135 491.089 169.134C492.947 173.522 497.746 177.207 496.739 181.864C491.316 179.343 488.496 173.261 487.216 167.419C485.936 161.577 485.722 155.444 483.427 149.922C481.685 152.155 478.022 150.309 476.43 147.966C474.92 145.744 473.991 143.175 472.526 140.923C471.062 138.672 468.818 136.656 466.135 136.532C463.323 136.402 460.883 138.333 458.738 140.157C456.973 141.656 455.162 143.215 454.131 145.288C452.63 148.305 453.023 151.862 452.951 155.231C452.872 158.872 452.101 162.715 449.618 165.381C447.136 168.047 442.555 168.976 439.817 166.573C438.388 165.319 437.695 163.444 437.079 161.645C434.108 152.973 431.633 144.138 429.667 135.185C429.207 137.228 427.412 139.862 425.698 138.658C425.313 138.335 425.002 137.933 424.784 137.48C421.586 132.061 415.664 128.81 409.681 126.86C403.697 124.911 397.402 124.002 391.485 121.86C388.169 120.659 385.002 119.081 382.046 117.158C381.293 118.265 380.853 119.556 380.773 120.892C380.693 122.229 380.976 123.563 381.592 124.752C382.905 127.076 385.875 128.42 388.418 127.608C389.731 127.188 390.841 126.276 392.145 125.826C393.448 125.375 395.198 125.596 395.768 126.852C396.314 128.055 395.489 129.509 395.898 130.764C396.521 132.676 399.405 132.823 400.413 134.563C401.163 135.857 400.546 137.576 399.475 138.621C398.404 139.665 396.974 140.238 395.667 140.965C391.424 143.324 388.407 147.352 384.7 150.485C380.992 153.618 375.761 155.906 371.342 153.896C372.396 148.562 366.042 144.647 364.874 139.337C364.489 137.59 364.688 135.734 364.139 134.031C363.344 131.565 361.156 129.87 359.362 128.001C357.185 125.71 355.49 123.006 354.375 120.049C353.26 117.093 352.749 113.942 352.871 110.785C352.968 108.59 353.371 106.36 352.871 104.222C352.372 102.083 350.601 100.013 348.407 100.11C343.395 100.331 337.081 100.704 334.452 96.4315C333.513 94.9067 333.105 92.6735 334.462 91.5053C335.419 90.6812 336.832 90.7588 338.089 90.8825L349.381 91.9933C352.022 92.2531 354.877 92.4675 357.143 91.0868C359.409 89.7061 360.392 86.0411 358.293 84.4167C356.76 83.2298 354.012 83.2942 353.567 81.407C353.196 79.8354 354.935 78.0521 353.996 76.7386C353.322 75.7969 351.807 76.0581 350.89 76.7641C349.972 77.4702 349.306 78.5026 348.279 79.0372C346.477 79.9749 344.324 79.0825 342.385 78.4759C340.447 77.8694 337.848 77.8179 336.908 79.6184C335.856 81.632 337.84 84.2706 336.797 86.2884C335.417 88.9561 330.744 87.4375 328.806 89.7322C326.583 92.3653 330.319 96.2916 329.569 99.6555C328.612 100.13 327.548 100.347 326.481 100.287C325.415 100.228 324.382 99.892 323.484 99.3136C322.6 98.7127 321.896 97.8835 321.446 96.9144C320.996 95.9452 320.818 94.8723 320.929 93.8096C321.115 92.2964 321.904 90.7517 321.375 89.3217C320.948 88.1655 319.787 87.4772 318.708 86.881L307.735 80.8172C306.716 82.7072 308.004 85.0502 309.615 86.4697C311.225 87.8892 313.243 88.9584 314.301 90.8265C314.971 92.1208 315.121 93.6219 314.721 95.0231C314.321 96.4243 313.401 97.62 312.149 98.3661C311.992 98.4743 311.814 98.5473 311.626 98.5801C311.438 98.6128 311.246 98.6045 311.062 98.5558C310.886 98.4529 310.734 98.3159 310.613 98.153C310.491 97.9901 310.404 97.8044 310.356 97.6072C308.42 92.6524 305.513 87.7673 300.866 85.179C296.218 82.5908 289.54 83.1229 286.493 87.483C285.769 88.5186 285.283 89.699 284.652 90.7939C281.302 96.611 274.12 99.3655 267.409 99.1856C266.753 99.2219 266.1 99.0685 265.528 98.7436C264.444 97.9946 264.493 96.4052 264.659 95.0977L265.363 89.5489C265.505 88.4346 265.71 87.203 266.591 86.5075C267.835 85.527 269.628 86.1458 271.211 86.123C272.41 86.0668 273.563 85.6432 274.514 84.9096C275.465 84.1761 276.167 83.1679 276.525 82.0219C276.845 80.8646 276.843 79.642 276.519 78.4858C276.195 77.3296 275.562 76.2836 274.688 75.4606C273.962 74.7791 272.989 73.923 273.372 73.0042C273.525 72.7501 273.731 72.5326 273.977 72.3669C274.223 72.2012 274.503 72.0915 274.796 72.0453C277.639 71.2195 280.644 71.0031 283.44 70.0287C286.237 69.0543 288.949 67.0608 289.611 64.1746C289.814 63.2901 289.906 62.2187 290.701 61.7802C291.099 61.6119 291.527 61.5244 291.96 61.5228C293.476 61.3072 294.856 60.5318 295.829 59.3493C296.802 58.1669 297.297 56.6631 297.217 55.1339C298.557 54.1975 300.435 54.8863 301.731 55.8823C303.028 56.8783 304.172 58.1941 305.75 58.6235C308.689 59.4236 311.53 56.8207 314.577 56.8086C315.858 56.8035 317.185 57.2565 318.39 56.8222C319.612 56.3818 320.342 55.1654 321.28 54.2668C322.217 53.3681 323.863 52.82 324.729 53.7881L323.992 48.3258C325.477 48.701 327.025 48.7541 328.532 48.4816C330.04 48.2091 331.471 47.6172 332.731 46.7458L323.2 43.5255C322.868 43.4427 322.562 43.279 322.309 43.049C321.616 42.3029 322.304 41.1402 322.868 40.292C324.216 38.263 324.442 34.9208 322.225 33.9106C320.712 33.2212 318.976 34.0488 317.523 34.8585L310.567 38.7372C310.346 40.0594 311.963 40.8088 312.965 41.6994C313.571 42.2383 314 42.9479 314.196 43.7351C314.391 44.5223 314.344 45.3502 314.061 46.1101C313.777 46.87 313.27 47.5263 312.607 47.9929C311.943 48.4595 311.154 48.7146 310.343 48.7245C310.801 49.32 311.12 50.011 311.275 50.7462C311.429 51.4814 311.417 52.242 311.238 52.9717L306.558 53.3083C306.032 53.414 305.487 53.3075 305.04 53.012C304.539 52.5675 304.607 51.7884 304.491 51.129C304.211 49.5376 302.653 48.4222 301.062 48.1362C299.472 47.8502 297.845 48.2168 296.27 48.5787C295.601 48.8194 294.867 48.8024 294.21 48.5312C293.833 48.2865 293.547 47.9252 293.395 47.5026C292.705 45.8285 293.35 43.8608 294.459 42.4292C295.568 40.9976 297.086 39.9511 298.449 38.7593C301.709 35.8987 304.105 32.1834 305.365 28.0332C307.941 26.9537 310.608 25.4869 313.185 24.4074C317.157 22.3962 321.612 21.5331 326.048 21.9152L334.773 22.0818C337.357 22.1312 340.01 22.1944 342.399 23.1793C344.788 24.1641 346.887 26.2943 347.051 28.8729C347.101 29.1648 347.076 29.4645 346.978 29.744C346.88 30.0235 346.713 30.2736 346.492 30.4707C346.155 30.6548 345.773 30.7409 345.389 30.7194C342.98 30.804 341.952 31.4043 339.543 31.489Z"/><path fill="#92E3A9" d="M269.994 58.835C270.335 58.5123 270.581 58.1019 270.703 57.6488C270.826 57.1958 270.822 56.7177 270.691 56.267C269.861 55.9469 268.959 55.8647 268.085 56.0297C267.211 56.1947 266.401 56.6003 265.745 57.2009C265.228 57.7237 264.783 58.3127 264.42 58.9523C263.274 60.823 262.26 63.0574 262.924 65.1484C262.978 65.3765 263.077 65.5914 263.216 65.7806C263.354 65.9698 263.529 66.1295 263.73 66.2502C264.028 66.3698 264.349 66.4201 264.669 66.3973C265.932 66.3957 267.194 66.318 268.447 66.1647C269.217 66.0706 270.112 65.8532 270.409 65.1368C270.8 64.1952 269.854 63.1295 270.13 62.1479C270.311 61.709 270.586 61.3149 270.936 60.9933C271.109 60.8313 271.243 60.6312 271.325 60.4087C271.408 60.1862 271.437 59.9476 271.411 59.7117C271.3 59.2512 270.595 58.9899 270.341 59.39"/><path fill="#92E3A9" d="M276.545 50.3433C275.423 50.0857 274.266 50.0131 273.121 50.1283C272.867 50.1208 272.616 50.1778 272.391 50.2941C272.173 50.455 272.015 50.6842 271.941 50.9452C271.699 51.7218 271.759 52.5609 272.108 53.2956C272.457 54.0302 273.07 54.6064 273.825 54.9094C274.236 55.004 274.63 55.1624 274.993 55.3788C275.961 56.1302 275.344 57.6661 275.527 58.8781C275.733 60.239 277.05 61.3814 276.809 62.7365C276.618 63.8041 275.478 64.6494 275.662 65.7182C275.854 66.8375 277.274 67.1739 278.407 67.2635C279.063 67.3784 279.738 67.3011 280.351 67.0407C280.966 66.6204 281.403 65.9874 281.578 65.2638C282.042 63.884 282.237 62.4282 282.152 60.9752C282.147 60.3143 281.981 59.6646 281.669 59.0823C281.328 58.621 280.95 58.1882 280.539 57.7883C278.369 55.265 280.653 51.5012 276.545 50.3433Z"/><path stroke="#CDF4DE" stroke-miterlimit="10" stroke-width="2" d="M561.798 248.009C561.798 248.009 395.654 152.64 324.127 170.71C324.127 170.71 172.54 187.023 154.972 222.912C154.972 222.912 106.785 72.3285 89.2168 67.3091" opacity=".8"/><path stroke="#CDF4DE" stroke-miterlimit="10" stroke-width="2" d="M154.972 222.912C182.83 148.624 433.802 66.3052 433.802 66.3052C398.164 75.3402 324.127 170.71 324.127 170.71C324.127 170.71 167.52 56.7682 89.2168 67.3091C89.2168 67.3091 434.053 78.6028 561.798 248.009" opacity=".8"/><path fill="#CDF4DE" d="M89.2157 74.5872C93.2354 74.5872 96.4939 71.3286 96.4939 67.309C96.4939 63.2893 93.2354 60.0308 89.2157 60.0308C85.1961 60.0308 81.9375 63.2893 81.9375 67.309C81.9375 71.3286 85.1961 74.5872 89.2157 74.5872Z"/><path fill="#CDF4DE" d="M154.972 230.19C158.991 230.19 162.25 226.932 162.25 222.912C162.25 218.892 158.991 215.634 154.972 215.634C150.952 215.634 147.693 218.892 147.693 222.912C147.693 226.932 150.952 230.19 154.972 230.19Z"/><path fill="#CDF4DE" d="M433.802 73.5833C437.821 73.5833 441.08 70.3247 441.08 66.3051C441.08 62.2854 437.821 59.0269 433.802 59.0269C429.782 59.0269 426.523 62.2854 426.523 66.3051C426.523 70.3247 429.782 73.5833 433.802 73.5833Z"/><path fill="#CDF4DE" d="M561.798 255.287C565.817 255.287 569.076 252.029 569.076 248.009C569.076 243.99 565.817 240.731 561.798 240.731C557.778 240.731 554.52 243.99 554.52 248.009C554.52 252.029 557.778 255.287 561.798 255.287Z"/><path fill="#CDF4DE" d="M324.126 177.988C328.145 177.988 331.404 174.729 331.404 170.71C331.404 166.69 328.145 163.432 324.126 163.432C320.106 163.432 316.848 166.69 316.848 170.71C316.848 174.729 320.106 177.988 324.126 177.988Z"/></svg>