<svg width="469" height="327" viewBox="0 0 469 327" fill="none" xmlns="http://www.w3.org/2000/svg">
<g clip-path="url(#clip0_248:14297)">
<path d="M395.321 227.086C394.836 226.551 394.475 225.916 394.262 225.227C394.049 224.537 393.991 223.809 394.09 223.094C394.19 222.379 394.445 221.695 394.838 221.089C395.231 220.483 395.752 219.971 396.364 219.588L392.445 202.485L400.994 205.679L403.405 221.431C403.981 222.502 404.143 223.746 403.862 224.928C403.58 226.11 402.874 227.148 401.878 227.846C400.881 228.543 399.663 228.85 398.455 228.71C397.247 228.571 396.131 227.993 395.321 227.086Z" fill="#FFB8B8"/>
<path d="M394.726 213.512L387.211 198.999L388.227 162.454L388.71 163.47C389.273 164.654 402.459 192.538 401.519 201.873L403.026 210.404L394.726 213.512Z" fill="#3F3D56"/>
<path d="M389.829 320.771H395.856L398.722 297.553L389.828 297.554L389.829 320.771Z" fill="#FFB8B8"/>
<path d="M388.289 318.806L400.157 318.805H400.158C402.163 318.805 404.087 319.601 405.505 321.018C406.924 322.434 407.72 324.356 407.72 326.359V326.605L388.289 326.606L388.289 318.806Z" fill="#2F2E41"/>
<path d="M330.285 316.196L336.091 317.809L345.081 296.207L336.512 293.827L330.285 316.196Z" fill="#FFB8B8"/>
<path d="M329.33 313.892L340.764 317.067L340.765 317.068C342.697 317.604 344.337 318.886 345.324 320.63C346.31 322.375 346.562 324.439 346.025 326.37L345.959 326.606L327.238 321.407L329.33 313.892Z" fill="#2F2E41"/>
<path d="M383.819 311.719L371.657 224.738L345.389 311.228L324.734 304.183L354.337 188.37L354.532 188.357L385.543 186.202L407.948 304.69L383.819 311.719Z" fill="#2F2E41"/>
<path d="M380.601 147.383C380.601 147.383 369.296 141.492 354.058 143.947C354.058 143.947 345.947 163.491 354.058 171.272L356.27 190.836C356.27 190.836 376.914 203.111 383.796 188.872L382.813 172.669C382.813 172.669 387.728 164.899 383.796 159.21C381.439 155.735 380.314 151.571 380.601 147.383Z" fill="#CDF4DE"/>
<path d="M382.034 236.371L384.018 195.242L378.402 146.314L378.66 146.275C386.027 145.166 388.39 157.843 388.487 158.383L401.309 230.798L382.034 236.371Z" fill="#3F3D56"/>
<path d="M357.035 236.799L334.367 234.283L334.373 234.036C334.453 230.684 336.405 151.871 341.872 146.289C347.371 140.674 357.748 143.103 358.187 143.21L358.406 143.263L356.541 176.612L357.035 236.799Z" fill="#3F3D56"/>
<path d="M361.212 189.694C360.525 189.919 359.797 189.991 359.08 189.905C358.363 189.819 357.673 189.577 357.059 189.195C356.446 188.814 355.923 188.303 355.529 187.698C355.135 187.093 354.878 186.409 354.777 185.695L337.539 182.321L343.935 175.817L359.324 180.018C360.537 179.927 361.741 180.285 362.708 181.022C363.675 181.759 364.338 182.826 364.571 184.018C364.803 185.211 364.59 186.448 363.971 187.494C363.352 188.54 362.37 189.323 361.212 189.694Z" fill="#FFB8B8"/>
<path d="M352.011 185.746L346.395 184.54C338.103 187.031 323.63 178.262 317.78 174.367C316.68 173.634 316.323 172.182 316.719 170.051C317.305 167.071 318.949 164.403 321.349 162.54L341.951 146.223L347.151 145.354L348.695 154.097L335.569 168.179L354.892 178.685L352.011 185.746Z" fill="#3F3D56"/>
<path d="M349.789 136.545V125.209C349.789 120.412 351.697 115.812 355.092 112.421C358.487 109.029 363.092 107.124 367.894 107.124C372.696 107.124 377.301 109.029 380.696 112.421C384.091 115.812 385.999 120.412 385.999 125.209V136.545C385.998 137.189 385.742 137.807 385.286 138.262C384.83 138.717 384.212 138.974 383.567 138.974H352.221C351.576 138.974 350.958 138.717 350.502 138.262C350.046 137.807 349.79 137.189 349.789 136.545Z" fill="#2F2E41"/>
<path d="M367.168 138.863C374.499 138.863 380.442 132.926 380.442 125.604C380.442 118.281 374.499 112.345 367.168 112.345C359.837 112.345 353.895 118.281 353.895 125.604C353.895 132.926 359.837 138.863 367.168 138.863Z" fill="#FFB8B8"/>
<path d="M353.529 125.553C353.402 125.407 353.309 125.235 353.254 125.049C353.199 124.864 353.185 124.668 353.213 124.477L354.785 113.54C354.817 113.317 354.903 113.106 355.036 112.925C355.17 112.744 355.346 112.6 355.55 112.504C363.576 108.752 371.714 108.747 379.74 112.49C379.953 112.591 380.136 112.745 380.272 112.938C380.407 113.13 380.49 113.355 380.512 113.589L381.562 124.54C381.58 124.727 381.559 124.916 381.499 125.095C381.44 125.273 381.344 125.437 381.217 125.577C381.09 125.716 380.936 125.827 380.764 125.903C380.591 125.979 380.405 126.018 380.217 126.018H377.555C377.298 126.018 377.047 125.944 376.83 125.806C376.613 125.669 376.44 125.472 376.331 125.24L375.182 122.781C375.107 122.622 374.983 122.491 374.828 122.408C374.673 122.326 374.495 122.296 374.321 122.323C374.147 122.351 373.987 122.434 373.865 122.56C373.743 122.686 373.665 122.849 373.643 123.023L373.416 124.836C373.375 125.162 373.216 125.462 372.969 125.68C372.722 125.898 372.404 126.018 372.075 126.018H354.55C354.357 126.018 354.165 125.977 353.989 125.897C353.813 125.816 353.656 125.699 353.529 125.553Z" fill="#2F2E41"/>
<path d="M297.785 21.791H0V207.016H297.785V21.791Z" fill="#E6E6E6"/>
<path d="M74.5082 57.4741H19.9688V92.8848H74.5082V57.4741Z" fill="white"/>
<path d="M142.278 57.4741H87.7383V92.8848H142.278V57.4741Z" fill="white"/>
<path d="M210.047 57.4741H155.508V92.8848H210.047V57.4741Z" fill="white"/>
<path d="M277.817 57.4741H223.277V92.8848H277.817V57.4741Z" fill="white"/>
<path d="M74.5082 107.594H19.9688V143.004H74.5082V107.594Z" fill="white"/>
<path d="M142.278 107.594H87.7383V143.004H142.278V107.594Z" fill="white"/>
<path d="M210.047 107.594H155.508V143.004H210.047V107.594Z" fill="white"/>
<path d="M277.817 107.594H223.277V143.004H277.817V107.594Z" fill="white"/>
<path d="M74.5082 157.713H19.9688V193.124H74.5082V157.713Z" fill="white"/>
<path d="M142.278 157.713H87.7383V193.124H142.278V157.713Z" fill="white"/>
<path d="M210.047 157.713H155.508V193.124H210.047V157.713Z" fill="white"/>
<path d="M277.817 157.713H223.277V193.124H277.817V157.713Z" fill="white"/>
<path d="M77.9934 43.5821C82.5116 43.5821 86.1743 39.9236 86.1743 35.4105C86.1743 30.8974 82.5116 27.2388 77.9934 27.2388C73.4752 27.2388 69.8125 30.8974 69.8125 35.4105C69.8125 39.9236 73.4752 43.5821 77.9934 43.5821Z" fill="white"/>
<path d="M213.251 43.5821C217.769 43.5821 221.432 39.9235 221.432 35.4104C221.432 30.8974 217.769 27.2388 213.251 27.2388C208.733 27.2388 205.07 30.8974 205.07 35.4104C205.07 39.9235 208.733 43.5821 213.251 43.5821Z" fill="white"/>
<path d="M81.2635 0H74.7188V37.5898H81.2635V0Z" fill="#E6E6E6"/>
<path d="M216.521 0H209.977V37.5898H216.521V0Z" fill="#E6E6E6"/>
<path d="M262.879 75.1798C262.876 78.1382 261.804 80.9963 259.861 83.2288C257.918 85.4613 255.233 86.9183 252.3 87.3321C249.368 87.746 246.384 87.0888 243.897 85.4813C241.411 83.8739 239.589 81.4242 238.766 78.5823C237.943 75.7404 238.174 72.6972 239.417 70.012C240.66 67.3268 242.832 65.1798 245.532 63.9656C248.233 62.7514 251.282 62.5516 254.119 63.4028C256.955 64.254 259.389 66.099 260.973 68.599C262.22 70.5676 262.881 72.85 262.879 75.1798Z" fill="#CDF4DE"/>
<path d="M260.975 68.5986L248.834 80.7232C248.071 79.5432 243.82 74.0595 243.82 74.0595C244.365 73.5095 244.946 72.9969 245.56 72.5252L249.086 77.22L259.553 66.7642C260.084 67.3294 260.56 67.9436 260.975 68.5986Z" fill="white"/>
<path d="M127.343 125.299C127.341 128.258 126.269 131.116 124.326 133.348C122.382 135.581 119.698 137.038 116.765 137.452C113.832 137.866 110.849 137.208 108.362 135.601C105.876 133.993 104.054 131.544 103.231 128.702C102.407 125.86 102.639 122.817 103.882 120.132C105.125 117.446 107.296 115.299 109.997 114.085C112.698 112.871 115.747 112.671 118.583 113.522C121.42 114.374 123.854 116.219 125.437 118.719C126.685 120.687 127.346 122.97 127.343 125.299Z" fill="#CDF4DE"/>
<path d="M125.436 118.718L113.295 130.843C112.532 129.663 108.281 124.179 108.281 124.179C108.826 123.629 109.407 123.117 110.021 122.645L113.546 127.34L124.014 116.884C124.545 117.449 125.021 118.063 125.436 118.718Z" fill="white"/>
<path d="M59.5741 125.299C59.5712 128.258 58.4997 131.116 56.5563 133.348C54.613 135.581 51.9283 137.038 48.9956 137.452C46.0629 137.866 43.0793 137.208 40.5928 135.601C38.1064 133.994 36.2842 131.544 35.4611 128.702C34.6379 125.86 34.8692 122.817 36.1123 120.132C37.3554 117.446 39.5269 115.299 42.2277 114.085C44.9286 112.871 47.9774 112.671 50.8139 113.522C53.6504 114.374 56.0842 116.219 57.668 118.719C58.9152 120.687 59.5763 122.97 59.5741 125.299Z" fill="#CDF4DE"/>
<path d="M57.6663 118.718L45.5258 130.843C44.7628 129.663 40.5117 124.179 40.5117 124.179C41.0565 123.629 41.6379 123.117 42.2518 122.645L45.7769 127.34L56.2446 116.884C56.7755 117.449 57.2515 118.063 57.6663 118.718Z" fill="white"/>
<path d="M467.665 327H261.755C261.612 327 261.474 326.943 261.373 326.842C261.272 326.741 261.215 326.603 261.215 326.46C261.215 326.317 261.272 326.18 261.373 326.079C261.474 325.977 261.612 325.92 261.755 325.92H467.665C467.808 325.92 467.946 325.977 468.047 326.079C468.149 326.18 468.206 326.317 468.206 326.46C468.206 326.603 468.149 326.741 468.047 326.842C467.946 326.943 467.808 327 467.665 327Z" fill="#3F3D56"/>
</g>
<defs>
<clipPath id="clip0_248:14297">
<rect width="468.205" height="327" fill="white"/>
</clipPath>
</defs>
</svg>
