<svg xmlns="http://www.w3.org/2000/svg" width="60" height="60" fill="none" viewBox="0 0 60 60"><path fill="url(#paint0_linear_551_2708)" d="M60 11.25V48.75C60 54.9625 54.9625 60 48.75 60H11.25C5.0375 60 0 54.9625 0 48.75V11.25C0 5.0375 5.0375 0 11.25 0H48.75C54.9625 0 60 5.0375 60 11.25Z"/><path fill="#fff" d="M36.2787 15.3949C36.5187 15.2512 36.7688 15.0974 37.0288 14.9624C37.7013 14.6174 38.4512 14.4437 39.2112 14.4812C39.76 14.5112 40.2587 14.6649 40.6437 15.0674C41.0087 15.4424 41.1437 15.9037 41.1825 16.4037C41.1925 16.5099 41.1925 16.6149 41.1925 16.7312V21.7099C41.1925 22.1424 41.135 22.1999 40.7025 22.1999H39.53C39.4525 22.1999 39.3762 22.1999 39.2987 22.1899C39.1837 22.1799 39.0875 22.0837 39.0675 21.9687C39.0475 21.8624 39.0475 21.7574 39.0475 21.6512V17.1999C39.0575 17.0162 39.0375 16.8449 38.99 16.6712C38.9125 16.3737 38.645 16.1624 38.3362 16.1424C37.77 16.1049 37.2013 16.2199 36.6825 16.4599C36.605 16.4799 36.5575 16.5562 36.5675 16.6337V21.6887C36.5675 21.7849 36.5675 21.8724 36.5475 21.9674C36.5475 22.1012 36.4413 22.1987 36.3075 22.1987C36.1638 22.2087 36.0188 22.2087 35.865 22.2087H34.8462C34.4912 22.2087 34.4137 22.1224 34.4137 21.7662V17.2199C34.4137 17.0562 34.4038 16.8824 34.3663 16.7199C34.2988 16.3924 34.0213 16.1612 33.6938 16.1437C33.1175 16.1062 32.5313 16.2212 32.0113 16.4712C31.9338 16.4912 31.8862 16.5774 31.905 16.6549V21.7787C31.905 22.1337 31.8275 22.2112 31.4725 22.2112H30.1837C29.8462 22.2112 29.7613 22.1149 29.7613 21.7887V15.1174C29.7613 15.0399 29.7713 14.9637 29.7913 14.8862C29.8288 14.7712 29.945 14.7024 30.06 14.7024H31.2612C31.435 14.7024 31.54 14.8087 31.5987 14.9712C31.6462 15.1049 31.6763 15.2312 31.7238 15.3749C31.82 15.3749 31.8775 15.3074 31.945 15.2687C32.4737 14.9412 33.03 14.6624 33.6562 14.5487C34.1375 14.4524 34.6175 14.4524 35.0987 14.5487C35.55 14.6449 35.955 14.9137 36.2138 15.2987C36.2338 15.3287 36.2512 15.3462 36.2712 15.3662C36.2587 15.3762 36.2687 15.3762 36.2787 15.3949ZM22.0712 15.7599C22.1387 15.7399 22.1963 15.7024 22.235 15.6449C22.4088 15.4712 22.59 15.3074 22.7837 15.1549C23.2837 14.7699 23.9088 14.5787 24.5338 14.6262C24.7838 14.6362 24.8712 14.7124 24.8887 14.9537C24.9087 15.2812 24.8988 15.6162 24.8988 15.9437C24.9088 16.0774 24.8987 16.2037 24.8787 16.3387C24.8412 16.5124 24.7725 16.5787 24.6 16.5987C24.4663 16.6087 24.34 16.5987 24.205 16.5887C23.5613 16.5312 22.9363 16.6562 22.33 16.8574C22.1963 16.9049 22.1962 17.0012 22.1962 17.1074V21.7212C22.1962 21.8074 22.1963 21.8849 22.1863 21.9712C22.1763 22.0962 22.08 22.1924 21.955 22.1924C21.8875 22.2024 21.8113 22.2024 21.7438 22.2024H20.4938C20.4263 22.2024 20.35 22.2024 20.2825 22.1924C20.1575 22.1824 20.0613 22.0774 20.0513 21.9524C20.0413 21.8749 20.0413 21.7987 20.0413 21.7212V15.1837C20.0413 14.7412 20.0887 14.6937 20.5312 14.6937H21.455C21.705 14.6937 21.82 14.7799 21.8875 15.0212C21.9575 15.2612 22.0137 15.5012 22.0712 15.7599ZM25.82 18.4324V15.0212C25.83 14.7899 25.9162 14.7037 26.1475 14.6937C26.6475 14.6837 27.1475 14.6837 27.6475 14.6937C27.8688 14.6937 27.9363 14.7612 27.955 14.9824C27.965 15.0687 27.965 15.1462 27.965 15.2324V21.6337C27.965 21.7399 27.955 21.8449 27.945 21.9512C27.935 22.0762 27.8387 22.1624 27.7137 22.1724C27.6562 22.1824 27.6075 22.1824 27.55 22.1824H26.2138C26.1663 22.1824 26.1275 22.1824 26.08 22.1724C25.9463 22.1624 25.83 22.0574 25.82 21.9224C25.81 21.8449 25.81 21.7687 25.81 21.6912C25.82 20.6237 25.82 19.5287 25.82 18.4324ZM26.935 11.2524C27.0888 11.2424 27.2425 11.2724 27.3863 11.3199C27.905 11.4937 28.1737 11.9449 28.1262 12.5312C28.0887 13.0312 27.7138 13.4349 27.2125 13.5112C27.0013 13.5487 26.78 13.5487 26.5687 13.5112C26.02 13.4049 25.6175 13.0024 25.655 12.3099C25.7138 11.6262 26.1663 11.2524 26.935 11.2524ZM18.6212 17.6449C18.5837 17.1449 18.4475 16.6549 18.2463 16.2024C17.8513 15.3762 17.2462 14.7699 16.3238 14.5587C15.2662 14.3274 14.315 14.5587 13.4488 15.2024C13.3913 15.2599 13.3237 15.3087 13.2475 15.3462C13.2275 15.3362 13.21 15.3262 13.21 15.3162C13.18 15.2199 13.1625 15.1249 13.1325 15.0274C13.055 14.7874 12.9587 14.6999 12.7 14.6999C12.4112 14.6999 12.1138 14.7099 11.8263 14.6999C11.605 14.6899 11.4038 14.7199 11.25 14.8912C11.25 18.2549 11.25 21.6299 11.26 24.9837C11.385 25.1849 11.5775 25.2237 11.7987 25.2149C12.1437 25.2049 12.4912 25.2149 12.8362 25.2149C13.4425 25.2149 13.4425 25.2149 13.4425 24.6187V21.8799C13.4425 21.8124 13.4125 21.7362 13.48 21.6787C13.9613 22.0537 14.5475 22.2849 15.1525 22.3412C15.9987 22.4274 16.7663 22.2162 17.4113 21.6387C17.8825 21.2062 18.2288 20.6487 18.4113 20.0324C18.67 19.2499 18.6875 18.4512 18.6212 17.6449ZM16.3238 19.6337C16.2563 19.9312 16.1025 20.1999 15.8812 20.4037C15.6312 20.6149 15.3225 20.7412 14.9975 20.7412C14.5075 20.7712 14.0262 20.6637 13.595 20.4337C13.4887 20.3862 13.4213 20.2799 13.4313 20.1649V18.4249C13.4313 17.8487 13.4413 17.2712 13.4313 16.6949C13.4213 16.5612 13.4988 16.4449 13.6225 16.3974C14.1513 16.1474 14.7 16.0324 15.2763 16.1474C15.68 16.2049 16.0262 16.4649 16.19 16.8399C16.3337 17.1474 16.4213 17.4837 16.44 17.8199C16.4975 18.4324 16.4975 19.0474 16.3238 19.6337ZM44.7 19.0574C45.42 19.1912 46.16 19.2012 46.8825 19.0874C47.305 19.0299 47.7087 18.9037 48.0837 18.7024C48.5162 18.4524 48.8337 18.1062 48.9675 17.6249C49.305 16.4137 48.7838 15.1924 47.525 14.7424C46.91 14.5412 46.2563 14.4737 45.6125 14.5587C44.0938 14.7324 43.1038 15.5687 42.6525 17.0187C42.335 18.0087 42.3737 19.0174 42.6325 20.0174C42.97 21.2962 43.815 22.0562 45.0925 22.3237C45.8225 22.4874 46.5625 22.4574 47.2937 22.3437C47.6787 22.2762 48.0638 22.1799 48.4288 22.0362C48.65 21.9499 48.7663 21.8149 48.7563 21.5649C48.7463 21.3337 48.7563 21.0937 48.7563 20.8537C48.7563 20.5649 48.6412 20.4787 48.3612 20.5462C48.0812 20.6137 47.8125 20.6712 47.535 20.7299C46.9387 20.8549 46.3238 20.8549 45.7275 20.7499C44.91 20.5862 44.3812 19.8849 44.4287 19.0199C44.5162 19.0299 44.6125 19.0374 44.7 19.0574ZM44.4588 17.5874C44.4888 17.3562 44.555 17.1362 44.6425 16.9249C44.9313 16.2224 45.5363 15.9837 46.1525 16.0212C46.3263 16.0312 46.4975 16.0687 46.6612 16.1362C46.9112 16.2424 47.0737 16.4737 47.1037 16.7424C47.1337 16.9062 47.1237 17.0799 47.075 17.2424C46.96 17.5874 46.68 17.7324 46.345 17.8012C46.1438 17.8487 45.9325 17.8687 45.72 17.8487C45.345 17.8487 44.96 17.8187 44.585 17.7624C44.44 17.7412 44.44 17.7412 44.4588 17.5874Z"/><path fill="#fff" d="M14.8772 35.084C14.9384 34.8778 14.9997 34.6815 15.0634 34.4753C15.5372 32.8765 16.0122 31.289 16.4859 29.6903L16.5472 29.504C16.5984 29.3178 16.7734 29.2053 16.9597 29.2053H18.5284C18.9197 29.2053 19.0022 29.319 18.8684 29.6903L18.2497 31.329C17.5584 33.124 16.8672 34.9278 16.1772 36.7228C16.1559 36.784 16.1259 36.8453 16.1047 36.909C16.0322 37.1253 15.8159 37.2703 15.5884 37.249C15.1347 37.239 14.6809 37.239 14.2272 37.249C13.9072 37.259 13.7222 37.1153 13.6084 36.8265C13.3509 36.1453 13.0822 35.454 12.8247 34.774C12.2059 33.154 11.5772 31.5353 10.9572 29.9065C10.8959 29.784 10.8534 29.6378 10.8234 29.504C10.7922 29.2978 10.8634 29.1953 11.0709 29.1953C11.6584 29.1853 12.2472 29.1953 12.8234 29.1953C13.0709 29.1953 13.1847 29.3603 13.2459 29.5778C13.3597 29.969 13.4722 30.3728 13.5972 30.764C14.0197 32.1978 14.4322 33.6415 14.8559 35.0753C14.8459 35.084 14.8572 35.084 14.8772 35.084ZM22.1809 33.2278V36.9403C22.1597 37.1465 22.0672 37.239 21.8609 37.249C21.3047 37.259 20.7572 37.259 20.2009 37.249C19.9947 37.249 19.9022 37.1453 19.8809 36.9503C19.8709 36.889 19.8709 36.8165 19.8709 36.754V29.6165C19.8809 29.2965 19.9634 29.204 20.2834 29.204H21.7684C22.0884 29.204 22.1809 29.2965 22.1809 29.6165V33.2278V33.2278ZM21.0347 25.5015C21.2409 25.4803 21.4472 25.5228 21.6434 25.6053C22.0459 25.7603 22.3247 26.1315 22.3447 26.5653C22.4272 27.504 21.7972 27.9778 20.9622 27.9578C20.8484 27.9578 20.7359 27.9365 20.6222 27.9178C19.9834 27.7628 19.6522 27.2678 19.7147 26.5565C19.7659 25.989 20.2097 25.5665 20.8184 25.514C20.8909 25.5015 20.9634 25.4915 21.0347 25.5015ZM49.1722 32.629C49.1822 32.5115 49.1409 32.2678 49.1409 32.2578C49.1197 32.0615 49.0797 31.8665 49.0272 31.6803C48.6447 30.319 47.7897 29.4215 46.3972 29.0715C45.7472 28.9165 45.0884 28.8965 44.4272 28.999C43.0359 29.2053 42.0334 29.9478 41.5497 31.2678C41.0759 32.5265 41.0847 33.909 41.5597 35.1665C41.9722 36.3103 42.7972 37.034 43.9834 37.3315C44.6134 37.4865 45.2734 37.5278 45.9222 37.4353C48.0872 37.1778 48.9859 35.5365 49.1297 34.114C49.1297 34.114 49.1809 33.6865 49.1809 33.4903L49.1722 32.629ZM46.6972 34.5465C46.6359 34.7628 46.5422 34.959 46.4084 35.1453C46.1822 35.4653 45.8209 35.6715 45.4297 35.7015C45.2334 35.7228 45.0384 35.7228 44.8422 35.6803C44.4084 35.5978 44.0472 35.309 43.8722 34.9065C43.7172 34.5865 43.6247 34.2365 43.5934 33.8853C43.5422 33.2765 43.5322 32.6678 43.6759 32.069C43.7272 31.8315 43.8309 31.5953 43.9547 31.3878C44.1809 31.0165 44.5734 30.779 45.0072 30.749C45.2034 30.7278 45.3984 30.7278 45.5947 30.7703C46.0072 30.8528 46.3472 31.1215 46.5334 31.5015C46.7084 31.8628 46.8122 32.2653 46.8322 32.6665C46.8422 32.8528 46.8534 33.0378 46.8422 33.2228C46.8722 33.6803 46.8197 34.124 46.6972 34.5465ZM31.0909 25.574H29.6572C29.2659 25.574 29.1922 25.6465 29.1922 26.039V29.3815C29.1922 29.454 29.2234 29.5253 29.1709 29.5978C29.0784 29.5878 29.0272 29.5253 28.9547 29.484C27.8822 28.854 26.7584 28.7415 25.6222 29.2678C24.8272 29.639 24.3322 30.3103 24.0134 31.1028C23.7047 31.8665 23.6309 32.6715 23.6522 33.4853C23.6522 34.249 23.8272 35.0015 24.1684 35.6815C24.5597 36.434 25.1284 37.0115 25.9534 37.259C27.0784 37.6103 28.1297 37.434 29.0884 36.7228C29.1609 36.6828 29.2022 36.609 29.2947 36.589C29.3459 36.7028 29.3872 36.8265 29.4084 36.9503C29.4484 37.1153 29.5947 37.229 29.7697 37.229H30.0172C30.3884 37.229 30.7484 37.239 31.1109 37.229C31.3997 37.229 31.4822 37.1365 31.4934 36.8378V25.9678C31.4834 25.6453 31.4009 25.574 31.0909 25.574ZM29.2047 33.164V35.0415C29.2259 35.164 29.1534 35.279 29.0397 35.3303C28.5447 35.609 27.9784 35.7215 27.4197 35.639C26.9459 35.5878 26.5322 35.299 26.3159 34.8753C26.1509 34.5453 26.0584 34.194 26.0272 33.8328C25.9447 33.1828 25.9959 32.524 26.1497 31.894C26.2009 31.719 26.2634 31.554 26.3559 31.389C26.5722 30.9865 26.9859 30.729 27.4384 30.6978C27.9859 30.6465 28.5322 30.749 29.0259 30.9765C29.1484 31.0165 29.2222 31.1415 29.2122 31.2753C29.1934 31.9165 29.2047 32.5365 29.2047 33.164ZM37.3209 33.9803C37.9197 33.9403 38.5172 33.8253 39.0547 33.5365C39.6022 33.2678 39.9834 32.7628 40.0972 32.164C40.1697 31.7928 40.1697 31.4003 40.0872 31.029C39.8709 30.1003 39.2834 29.524 38.3959 29.224C37.9009 29.069 37.3747 29.0078 36.8584 29.0278C35.1247 29.0678 33.8059 29.9453 33.2684 31.679C32.9072 32.8228 32.9597 33.9903 33.3084 35.134C33.6697 36.3103 34.4947 37.0215 35.6697 37.3415C36.0584 37.4365 36.4609 37.489 36.8609 37.499C36.9797 37.5015 37.0984 37.5015 37.2172 37.4965C37.9697 37.4865 38.7222 37.3415 39.4347 37.074C39.7334 36.9603 39.8059 36.8578 39.8059 36.5378V35.7953C39.7959 35.4965 39.6722 35.3928 39.3722 35.4653C39.1459 35.5265 38.9284 35.579 38.7022 35.6303C38.0109 35.7953 37.2897 35.8265 36.5872 35.7028C35.8859 35.569 35.4109 35.1665 35.2259 34.4653C35.1747 34.259 35.1334 34.0528 35.1122 33.8353C35.1634 33.8353 35.2159 33.8353 35.2559 33.8565C35.9384 33.9803 36.6297 34.0315 37.3209 33.9803ZM35.1647 32.329C35.2372 31.9265 35.3297 31.534 35.5772 31.204C35.9597 30.699 36.4847 30.554 37.0822 30.6165C37.1334 30.6165 37.1747 30.6378 37.2259 30.6378C37.9472 30.7515 38.1222 31.329 37.9897 31.8853C37.8859 32.2978 37.5459 32.4528 37.1647 32.524C36.9584 32.564 36.7422 32.5853 36.5259 32.5753C36.1034 32.5653 35.6909 32.5353 35.2784 32.4715C35.1859 32.464 35.1459 32.4228 35.1647 32.329Z"/><path fill="#fff" d="M30.5847 48.75C30.2234 48.7412 29.8622 48.7412 29.5009 48.75C29.0047 48.7225 28.5084 48.705 28.0097 48.6688C26.6909 48.57 25.3809 48.3725 24.0984 48.0762C19.6634 47.0537 15.7697 44.9988 12.3722 42.01C12.0547 41.7313 11.7584 41.445 11.4497 41.1575C11.3772 41.095 11.3134 41.005 11.2772 40.915C11.2234 40.7887 11.2497 40.6537 11.3409 40.5562C11.4309 40.4587 11.5759 40.4213 11.7022 40.475C11.7834 40.5113 11.8647 40.5475 11.9372 40.5925C15.1809 42.585 18.7209 44.04 22.4347 44.9C23.6809 45.1875 24.9372 45.4112 26.2009 45.5737C28.0159 45.7987 29.8497 45.88 31.6747 45.8162C32.6584 45.7887 33.6347 45.6987 34.6097 45.5737C36.8859 45.2862 39.1359 44.775 41.3134 44.0562C42.4609 43.68 43.5797 43.2475 44.6747 42.7462C44.8372 42.6562 45.0359 42.6287 45.2159 42.6737C45.5147 42.7462 45.6947 43.05 45.6222 43.3475C45.6134 43.3838 45.5947 43.4287 45.5772 43.465C45.5047 43.6 45.4047 43.7175 45.2784 43.805C44.2397 44.6137 43.1184 45.3225 41.9359 45.915C39.7034 47.0362 37.3197 47.835 34.8622 48.2925C33.4484 48.5425 32.0209 48.6962 30.5847 48.75ZM46.1134 40C46.7097 40.0175 47.2972 40.0538 47.8747 40.2075C48.0372 40.2525 48.1922 40.3063 48.3434 40.3788C48.5522 40.46 48.6859 40.6575 48.7134 40.8725C48.7497 41.125 48.7584 41.3838 48.7409 41.645C48.6234 43.18 48.1447 44.66 47.3497 45.98C47.0597 46.455 46.7084 46.8875 46.3022 47.2638C46.2209 47.345 46.1209 47.4075 46.0122 47.4438C45.8397 47.4888 45.7309 47.3988 45.7222 47.2275C45.7309 47.1375 45.7497 47.0475 45.7859 46.9575C46.1034 46.1138 46.4097 45.28 46.6534 44.4088C46.7984 43.9338 46.8984 43.4487 46.9609 42.955C46.9784 42.775 46.9884 42.5962 46.9697 42.4162C46.9609 42.11 46.7609 41.8513 46.4647 41.7613C46.1834 41.6713 45.8959 41.6175 45.5972 41.5987C44.7659 41.5625 43.9359 41.5988 43.1134 41.7063L42.0209 41.8412C41.9034 41.85 41.7947 41.8413 41.7309 41.7338C41.6672 41.6263 41.6947 41.5175 41.7584 41.4113C41.8309 41.3125 41.9209 41.2225 42.0297 41.1587C42.6984 40.6837 43.4484 40.395 44.2434 40.2063C44.8572 40.08 45.4809 40.0175 46.1134 40Z"/><defs><linearGradient id="paint0_linear_551_2708" x1=".051" x2="59.219" y1="59.949" y2=".781" gradientUnits="userSpaceOnUse"><stop offset=".069" stop-color="#00337A"/><stop offset=".178" stop-color="#044084"/><stop offset=".381" stop-color="#0F619E"/><stop offset=".652" stop-color="#2198C9"/><stop offset=".955" stop-color="#38DCFF"/></linearGradient></defs></svg>