<svg width="60" height="69" viewBox="0 0 60 69" fill="none" xmlns="http://www.w3.org/2000/svg">
<path d="M44.6462 0C40.7242 0.227908 36.2215 2.41292 33.5445 5.19544C31.1259 7.72624 29.2177 11.4849 29.9967 15.1212C34.2589 15.2335 38.537 12.9919 41.0984 10.1583C43.4898 7.50848 45.3027 3.80981 44.6462 0ZM44.8787 15.1146C38.7252 15.1146 36.1524 18.8949 31.8902 18.8949C27.5055 18.8949 23.4972 15.3538 18.1907 15.3538C10.9724 15.3572 0 22.0436 0 37.7965C0 52.1275 12.9862 68.0323 20.3167 68.0323C24.7694 68.0766 25.8489 65.2327 31.8902 65.2021C37.9382 65.1579 39.2433 68.0697 43.7028 68.0323C48.7236 67.9949 52.6446 62.4776 55.5088 58.1065C57.5634 54.977 58.408 53.3793 60 49.8417C48.1862 46.8482 45.8357 27.7969 60 23.8578C57.3263 19.2963 49.522 15.1146 44.8787 15.1146Z" fill="black"/>
</svg>
