<svg width="60" height="60" viewBox="0 0 60 60" fill="none" xmlns="http://www.w3.org/2000/svg">
<path d="M0 0V59.9008H60V0H0ZM9.08654 10.4207H11.7368V16.5234C11.7368 17.6727 11.3896 18.5924 10.8173 19.1647C10.245 19.737 9.3163 20.0841 8.16707 20.0841C6.44091 20.1995 5.51942 19.5152 4.83173 18.5968L6.5625 16.9832C7.02404 17.5601 7.47296 17.9026 8.04988 17.9026C8.74219 17.9026 9.08654 17.4419 9.08654 16.5234V10.4207ZM12.3137 10.5379H20.021V12.7284H14.9549V14.2248H19.5523V16.2981H14.9549V17.7855H20.1292V20.0931H12.4219L12.3137 10.5379ZM20.598 10.5379H28.9904V12.8456H26.1148V20.0841H23.4736V12.8456H20.598V10.5379ZM49.2368 22.1575C50.8475 22.1575 52.1152 22.6164 53.149 23.4195L51.7698 25.2674C50.8514 24.6905 49.9317 24.348 49.1286 24.348C48.4363 24.348 48.2091 24.5787 48.2091 24.9249C48.2091 25.3864 48.5581 25.5028 49.8227 25.8444C52.0104 26.3059 53.3834 26.9956 53.3834 28.8371C53.3788 30.7894 51.8896 31.9381 49.4712 31.9381C47.745 32.0535 46.1312 31.4756 44.982 30.4417L46.4784 28.7109C47.3968 29.514 48.4301 29.8648 49.5793 29.8648C50.2716 29.8648 50.7332 29.6322 50.7332 29.1707C50.7332 28.7091 50.3842 28.5927 49.1196 28.2512C47.0473 27.7897 45.5499 27.2153 45.5499 25.2584C45.5499 23.5323 46.9337 22.1575 49.2368 22.1575ZM5.06611 22.2746H10.015C11.1643 22.2746 12.0839 22.62 12.6562 23.0769C13.0024 23.4231 13.2332 23.9892 13.2332 24.6815C13.2332 25.8307 12.6552 26.4105 11.7368 26.872C12.886 27.2181 13.5757 27.9151 13.5757 29.1797C13.5757 30.7905 12.1937 31.8209 10.006 31.8209H5.06611V22.2746ZM14.0355 22.2746H18.5246C20.02 22.2746 20.9333 22.6146 21.6256 23.3023C22.2025 23.8792 22.4369 24.5743 22.4369 25.4928C22.4369 26.9882 21.6346 27.9087 20.4808 28.4856L21.9591 30.631L25.5379 22.2746H28.0709L32.0913 31.9381H29.2157L28.5306 30.2073H24.8528L24.1587 31.9381H21.4002L21.4453 31.8209H19.7867L17.8305 28.9453H16.6767V31.8209H14.0355V22.2746ZM32.4429 22.2746H35.0841V31.8209H32.4429V22.2746ZM35.7782 22.2746H38.1941L42.0974 27.3317V22.2746H44.7476V31.8209H42.4489L38.4195 26.6466V31.9381H35.7782V22.2746ZM7.70733 24.4651V26.1869H9.32091C10.124 26.0669 10.5829 25.8397 10.5829 25.2674C10.5829 24.6905 10.1258 24.4651 9.4381 24.4651H7.70733ZM16.6767 24.5733V26.881H18.4075C19.3259 26.881 19.7867 26.4149 19.7867 25.7272C19.7867 24.9195 19.2151 24.5733 18.4075 24.5733H16.6767ZM26.8089 25.3846L25.7632 28.0258H27.8365L26.8089 25.3846ZM7.59014 28.0258V29.7566H9.66346C10.4665 29.7566 10.9255 29.4094 10.9255 28.8371C10.9255 28.2602 10.4665 28.0258 9.66346 28.0258H7.59014ZM5.06611 50.8053H27.0343V54.4832H5.06611V50.8053Z" fill="black"/>
</svg>
