<svg width="60" height="20" viewBox="0 0 60 20" fill="none" xmlns="http://www.w3.org/2000/svg">
<path d="M59.9628 4.74322C60.7803 9.42692 48.0291 15.5619 31.478 18.4431C14.9307 21.3256 0.853333 19.8631 0.0370903 15.1769C-0.779152 10.4932 11.9757 4.35947 28.5243 1.4795C45.0742 -1.40548 59.1478 0.0582591 59.9628 4.74322Z" fill="#0D47A1"/>
<path d="M44.3882 11.6961L44.3032 6.82617H45.8395V12.9649H43.632L42.0982 7.92741H42.0657L42.1507 12.9649H40.6245V6.82617H42.9282L44.3545 11.6961H44.3882Z" fill="#FAFAFA"/>
<path d="M16.4718 7.40117L15.6218 13.0299H13.9468L15.0955 6.82617H17.8555L19.0017 13.0299H17.3317L16.5055 7.40117H16.4718Z" fill="#FAFAFA"/>
<path d="M23.7057 11.5686L24.472 6.82617H27.002L27.1357 13.0299H25.5857L25.5445 7.45242H25.512L24.4757 13.0299H22.902L21.8633 7.45242H21.8308L21.792 13.0299H20.2383L20.3758 6.82617H22.907L23.672 11.5686H23.7057Z" fill="#FAFAFA"/>
<path d="M11.3343 11.2796C11.3956 11.4296 11.3768 11.6233 11.3481 11.7396C11.2956 11.9458 11.1556 12.1558 10.7444 12.1558C10.3544 12.1558 10.1194 11.9321 10.1194 11.5933V10.9933H8.45437L8.45312 11.4733C8.45312 12.8558 9.54187 13.2745 10.7094 13.2745C11.8318 13.2745 12.7556 12.8908 12.9018 11.8571C12.9781 11.3208 12.9206 10.9708 12.8956 10.8371C12.6343 9.53833 10.2794 9.15084 10.1044 8.42459C10.0744 8.30084 10.0831 8.16835 10.0981 8.0971C10.1419 7.8996 10.2769 7.6821 10.6644 7.6821C11.0269 7.6821 11.2406 7.9071 11.2406 8.2446C11.2406 8.35834 11.2406 8.62834 11.2406 8.62834H12.7868V8.19335C12.7868 6.84211 11.5743 6.63086 10.6956 6.63086C9.59186 6.63086 8.69062 6.99585 8.52562 8.0046C8.48062 8.28334 8.47437 8.53209 8.53937 8.84334C8.81187 10.1083 11.0144 10.4758 11.3343 11.2796Z" fill="#FAFAFA"/>
<path d="M31.5056 11.2683C31.5668 11.417 31.5468 11.6058 31.5193 11.722C31.4681 11.9283 31.3293 12.1345 30.9206 12.1345C30.5368 12.1345 30.3031 11.9108 30.3031 11.5795L30.3018 10.9845H28.6544L28.6519 11.4583C28.6519 12.827 29.7306 13.2407 30.8856 13.2407C31.9956 13.2407 32.9106 12.862 33.0556 11.8383C33.1318 11.3058 33.0781 10.9608 33.0506 10.8295C32.7906 9.54327 30.4593 9.15953 30.2868 8.43953C30.2568 8.31579 30.2656 8.18578 30.2806 8.11829C30.3256 7.91829 30.4581 7.70704 30.8418 7.70704C31.2018 7.70704 31.4106 7.92579 31.4106 8.26204C31.4106 8.37453 31.4106 8.64203 31.4106 8.64203H32.9456V8.21079C32.9456 6.8733 31.7431 6.66455 30.8718 6.66455C29.7806 6.66455 28.8869 7.02455 28.7256 8.02704C28.6806 8.30203 28.6756 8.54578 28.7406 8.85578C29.0081 10.1083 31.1893 10.4733 31.5056 11.2683Z" fill="#FAFAFA"/>
<path d="M36.7158 12.1024C37.1458 12.1024 37.2795 11.8049 37.3095 11.6524C37.322 11.5849 37.3258 11.4962 37.3245 11.4149V6.82373H38.8932V11.2737C38.897 11.3874 38.8857 11.6224 38.8795 11.6799C38.7695 12.8387 37.8533 13.2137 36.7145 13.2137C35.5733 13.2137 34.657 12.8374 34.5483 11.6799C34.5433 11.6212 34.532 11.3862 34.5345 11.2737V6.82373H36.102V11.4137C36.102 11.4937 36.1045 11.5849 36.117 11.6512C36.152 11.8024 36.282 12.1024 36.7158 12.1024Z" fill="#FAFAFA"/>
<path d="M49.6565 12.0357C50.1052 12.0357 50.2627 11.7519 50.2915 11.5869C50.3027 11.5157 50.3065 11.4294 50.3052 11.3507V10.4507H49.669V9.54568H51.8689V11.2107C51.8677 11.3269 51.8652 11.4132 51.8464 11.6194C51.7439 12.7481 50.764 13.1506 49.6652 13.1506C48.564 13.1506 47.5865 12.7481 47.4815 11.6194C47.464 11.4119 47.4615 11.3269 47.459 11.2107L47.4602 8.59943C47.4602 8.48944 47.474 8.29444 47.4865 8.19069C47.624 7.0307 48.564 6.6582 49.6652 6.6582C50.7652 6.6582 51.7289 7.02945 51.8427 8.19069C51.8627 8.38819 51.8564 8.59943 51.8564 8.59943V8.80693H50.2927V8.45944C50.294 8.46069 50.2902 8.31194 50.2727 8.22319C50.2465 8.08569 50.1277 7.77069 49.654 7.77069C49.2015 7.77069 49.0702 8.06819 49.0365 8.22319C49.0177 8.30444 49.0102 8.41569 49.0102 8.51569V11.3532C49.009 11.4319 49.014 11.5182 49.0265 11.5894C49.0515 11.7519 49.2077 12.0357 49.6565 12.0357Z" fill="#FAFAFA"/>
</svg>
