<svg width="60" height="60" viewBox="0 0 60 60" fill="none" xmlns="http://www.w3.org/2000/svg">
<path d="M30 0C13.3845 0 0 13.3845 0 30C0 46.6155 13.3845 60 30 60C46.614 60 60 46.6155 60 30C60 13.3845 46.614 0 30 0Z" fill="url(#paint0_linear_551_2703)"/>
<path opacity="0.05" d="M25.8345 17.9072C34.1655 17.9072 42.9345 19.6622 49.512 23.3882C50.388 23.8277 51.045 24.7037 51.045 26.0192C50.8275 27.5537 49.7295 28.6517 48.1965 28.6517C47.5395 28.6517 47.319 28.4327 46.662 28.2152C41.4 25.1447 33.5085 23.3897 25.8345 23.3897C21.888 23.3897 17.9415 23.8292 14.4345 24.7052C13.995 24.7052 13.557 24.9242 12.9 24.9242C12.7875 24.9407 12.6765 24.9482 12.5685 24.9482C11.211 24.9482 10.269 23.7167 10.269 22.2932C10.269 20.7587 11.1465 19.8827 12.2415 19.6622C16.407 18.3467 20.7915 17.9072 25.8345 17.9072ZM25.176 27.5537C32.631 27.5537 39.8655 29.3087 45.5655 32.8142C46.4415 33.2507 46.881 34.1297 46.881 35.0057C46.881 36.3227 46.0035 37.4177 44.688 37.4177C44.031 37.4177 43.593 37.2017 43.1535 36.9812C38.5515 34.1312 32.1915 32.3747 24.9585 32.3747C21.45 32.3747 18.162 32.8142 15.75 33.4742C15.0915 33.6902 14.8725 33.6902 14.4345 33.6902C13.119 33.6902 12.2415 32.5952 12.2415 31.4987C12.2415 30.1832 12.9 29.5247 13.995 29.0882C17.283 28.2122 20.5725 27.5537 25.176 27.5537ZM25.833 36.9812C31.9725 36.9812 37.6725 38.5127 42.495 41.3672C43.152 41.8037 43.5915 42.2432 43.5915 43.3382C43.3725 44.2172 42.495 44.8727 41.619 44.8727C41.181 44.8727 40.7415 44.6552 40.3035 44.4347C36.138 42.0242 31.095 40.7087 25.6155 40.7087C22.545 40.7087 19.476 41.1452 16.626 41.8037C16.188 41.8037 15.5295 42.0227 15.3105 42.0227C14.214 42.0227 13.557 41.1437 13.557 40.2677C13.557 39.1727 14.214 38.5127 15.0915 38.2967C18.5985 37.4177 22.107 36.9812 25.833 36.9812ZM25.8345 16.4072C20.151 16.4072 15.8355 16.9637 11.859 18.2102C9.97804 18.6287 8.76904 20.2217 8.76904 22.2932C8.76904 24.6227 10.437 26.4482 12.5685 26.4482C12.711 26.4482 12.8565 26.4407 13.005 26.4227C13.4835 26.4122 13.866 26.3252 14.151 26.2622C14.253 26.2397 14.346 26.2097 14.4405 26.2052H14.625L14.799 26.1602C18.1275 25.3292 21.9435 24.8897 25.836 24.8897C33.4455 24.8897 40.9485 26.6177 45.9075 29.5112L46.0425 29.5907L46.191 29.6402C46.3545 29.6942 46.4835 29.7497 46.6005 29.7977C46.977 29.9552 47.445 30.1517 48.198 30.1517C50.4225 30.1517 52.2045 28.5392 52.5315 26.2292L52.5465 26.1242V26.0177C52.5465 24.2612 51.7005 22.8227 50.223 22.0652C43.8555 18.4697 34.9695 16.4072 25.8345 16.4072ZM25.176 26.0537C20.2395 26.0537 16.6995 26.8157 13.6095 27.6392L13.5225 27.6617L13.44 27.6947C11.649 28.4087 10.7415 29.6882 10.7415 31.4987C10.7415 33.5342 12.3975 35.1902 14.4345 35.1902C14.991 35.1902 15.3735 35.1767 16.218 34.8992C18.576 34.2557 21.789 33.8747 24.9585 33.8747C31.62 33.8747 37.8015 35.4302 42.363 38.2562L42.42 38.2922L42.48 38.3222C42.981 38.5742 43.668 38.9177 44.6865 38.9177C46.7925 38.9177 48.3795 37.2362 48.3795 35.0057C48.3795 33.5117 47.5845 32.1767 46.299 31.5047C40.5585 27.9887 33.0585 26.0537 25.176 26.0537ZM25.833 35.4812C22.0125 35.4812 18.3795 35.9267 14.727 36.8417C13.083 37.2467 12.057 38.5592 12.057 40.2677C12.057 42.0932 13.4865 43.5227 15.3105 43.5227C15.5685 43.5227 15.8115 43.4672 16.0935 43.4042C16.245 43.3697 16.5255 43.3067 16.629 43.3037L16.7805 43.2992L16.9635 43.2647C19.998 42.5642 22.908 42.2087 25.6155 42.2087C30.7485 42.2087 35.568 43.4267 39.552 45.7337L39.5895 45.7562L39.6285 45.7757C40.1295 46.0277 40.8165 46.3742 41.619 46.3742C43.194 46.3742 44.667 45.2252 45.0465 43.7027L45.0915 43.5242V43.3397C45.0915 41.5367 44.199 40.6997 43.3245 40.1192L43.2915 40.0982L43.2585 40.0787C38.181 37.0697 32.154 35.4812 25.833 35.4812Z" fill="black"/>
<path opacity="0.07" d="M25.8345 17.9072C34.1655 17.9072 42.9345 19.6622 49.512 23.3882C50.388 23.8277 51.045 24.7037 51.045 26.0192C50.8275 27.5537 49.7295 28.6517 48.1965 28.6517C47.5395 28.6517 47.319 28.4327 46.662 28.2152C41.4 25.1447 33.5085 23.3897 25.8345 23.3897C21.888 23.3897 17.9415 23.8292 14.4345 24.7052C13.995 24.7052 13.557 24.9242 12.9 24.9242C12.7875 24.9407 12.6765 24.9482 12.5685 24.9482C11.211 24.9482 10.269 23.7167 10.269 22.2932C10.269 20.7587 11.1465 19.8827 12.2415 19.6622C16.407 18.3467 20.7915 17.9072 25.8345 17.9072ZM25.176 27.5537C32.631 27.5537 39.8655 29.3087 45.5655 32.8142C46.4415 33.2507 46.881 34.1297 46.881 35.0057C46.881 36.3227 46.0035 37.4177 44.688 37.4177C44.031 37.4177 43.593 37.2017 43.1535 36.9812C38.5515 34.1312 32.1915 32.3747 24.9585 32.3747C21.45 32.3747 18.162 32.8142 15.75 33.4742C15.0915 33.6902 14.8725 33.6902 14.4345 33.6902C13.119 33.6902 12.2415 32.5952 12.2415 31.4987C12.2415 30.1832 12.9 29.5247 13.995 29.0882C17.283 28.2122 20.5725 27.5537 25.176 27.5537ZM25.833 36.9812C31.9725 36.9812 37.6725 38.5127 42.495 41.3672C43.152 41.8037 43.5915 42.2432 43.5915 43.3382C43.3725 44.2172 42.495 44.8727 41.619 44.8727C41.181 44.8727 40.7415 44.6552 40.3035 44.4347C36.138 42.0242 31.095 40.7087 25.6155 40.7087C22.545 40.7087 19.476 41.1452 16.626 41.8037C16.188 41.8037 15.5295 42.0227 15.3105 42.0227C14.214 42.0227 13.557 41.1437 13.557 40.2677C13.557 39.1727 14.214 38.5127 15.0915 38.2967C18.5985 37.4177 22.107 36.9812 25.833 36.9812ZM25.8345 17.1572C20.214 17.1572 15.9615 17.7062 12.0525 18.9362C10.4895 19.2692 9.51904 20.5532 9.51904 22.2932C9.51904 24.2027 10.8585 25.6982 12.5685 25.6982C12.6945 25.6982 12.822 25.6907 12.954 25.6742C13.374 25.6682 13.713 25.5917 13.9875 25.5302C14.166 25.4897 14.3205 25.4552 14.436 25.4552H14.5275L14.6175 25.4327C18.0045 24.5867 21.8835 24.1397 25.836 24.1397C33.573 24.1397 41.217 25.9052 46.2855 28.8632L46.353 28.9022L46.428 28.9262C46.6125 28.9877 46.7595 29.0492 46.8915 29.1047C47.238 29.2502 47.5965 29.4002 48.198 29.4002C50.0685 29.4002 51.5115 28.0832 51.789 26.1227L51.7965 26.0702V26.0177C51.7965 24.5402 51.087 23.3372 49.8495 22.7162C43.623 19.1912 34.8585 17.1572 25.8345 17.1572ZM25.176 26.8037C20.595 26.8037 17.316 27.4277 13.8015 28.3637L13.758 28.3757L13.716 28.3922C12.7605 28.7732 11.49 29.5097 11.49 31.4987C11.49 32.9132 12.615 34.4402 14.433 34.4402C14.943 34.4402 15.2445 34.4282 15.9825 34.1867C18.438 33.5162 21.723 33.1247 24.957 33.1247C31.7565 33.1247 38.0775 34.7207 42.7575 37.6187C43.275 37.8812 43.845 38.1677 44.6865 38.1677C46.365 38.1677 47.6295 36.8087 47.6295 35.0057C47.6295 33.7712 46.9665 32.6747 45.8985 32.1422C40.326 28.7117 32.946 26.8037 25.176 26.8037ZM25.833 36.2312C22.074 36.2312 18.501 36.6692 14.9085 37.5692C13.6125 37.8887 12.807 38.9222 12.807 40.2677C12.807 41.4992 13.743 42.7727 15.3105 42.7727C15.4845 42.7727 15.6795 42.7292 15.927 42.6722C16.149 42.6227 16.4535 42.5537 16.626 42.5537H16.7115L16.7955 42.5342C19.8855 41.8202 22.8525 41.4587 25.6155 41.4587C30.8805 41.4587 35.829 42.7127 39.9285 45.0842C40.425 45.3362 40.9965 45.6227 41.619 45.6227C42.8595 45.6227 44.0205 44.7182 44.319 43.5197L44.3415 43.4297V43.3382C44.3415 41.8202 43.602 41.2022 42.9105 40.7432C37.914 37.7837 32.0205 36.2312 25.833 36.2312Z" fill="black"/>
<path d="M41.619 44.8727C41.181 44.8727 40.7415 44.6552 40.3035 44.4347C36.138 42.0242 31.095 40.7087 25.6155 40.7087C22.545 40.7087 19.476 41.1452 16.626 41.8037C16.188 41.8037 15.5295 42.0227 15.3105 42.0227C14.214 42.0227 13.557 41.1437 13.557 40.2677C13.557 39.1727 14.214 38.5127 15.0915 38.2967C18.5985 37.4177 22.107 36.9812 25.833 36.9812C31.9725 36.9812 37.6725 38.5127 42.495 41.3672C43.152 41.8037 43.5915 42.2432 43.5915 43.3382C43.3725 44.2172 42.495 44.8727 41.619 44.8727ZM44.688 37.4177C44.031 37.4177 43.593 37.2017 43.1535 36.9812C38.5515 34.1312 32.1915 32.3747 24.9585 32.3747C21.45 32.3747 18.162 32.8142 15.75 33.4742C15.0915 33.6902 14.8725 33.6902 14.4345 33.6902C13.119 33.6902 12.2415 32.5952 12.2415 31.4987C12.2415 30.1832 12.9 29.5247 13.995 29.0882C17.283 28.2122 20.5725 27.5537 25.176 27.5537C32.631 27.5537 39.8655 29.3087 45.5655 32.8142C46.4415 33.2507 46.881 34.1297 46.881 35.0057C46.881 36.3227 46.0035 37.4177 44.688 37.4177ZM48.1965 28.6517C47.5395 28.6517 47.319 28.4327 46.662 28.2152C41.4 25.1447 33.5085 23.3897 25.8345 23.3897C21.888 23.3897 17.9415 23.8292 14.4345 24.7052C13.995 24.7052 13.557 24.9242 12.9 24.9242C11.3655 25.1432 10.269 23.8292 10.269 22.2932C10.269 20.7587 11.1465 19.8827 12.2415 19.6622C16.407 18.3467 20.7915 17.9072 25.8345 17.9072C34.1655 17.9072 42.9345 19.6622 49.512 23.3882C50.388 23.8277 51.045 24.7037 51.045 26.0192C50.8275 27.5537 49.7295 28.6517 48.1965 28.6517Z" fill="white"/>
<defs>
<linearGradient id="paint0_linear_551_2703" x1="30" y1="-13.1475" x2="30" y2="78.465" gradientUnits="userSpaceOnUse">
<stop stop-color="#4CAF50"/>
<stop offset="0.489" stop-color="#4AAF50"/>
<stop offset="0.665" stop-color="#43AD50"/>
<stop offset="0.79" stop-color="#38AA50"/>
<stop offset="0.892" stop-color="#27A550"/>
<stop offset="0.978" stop-color="#11A050"/>
<stop offset="1" stop-color="#0A9E50"/>
</linearGradient>
</defs>
</svg>
