<svg width="60" height="26" viewBox="0 0 60 26" fill="none" xmlns="http://www.w3.org/2000/svg">
<g clip-path="url(#clip0_547_2703)">
<path d="M3.02333 22.1271C3.11826 22.1682 3.19935 22.2358 3.25689 22.3218C3.31444 22.4078 3.34603 22.5085 3.34788 22.612V25.1658C3.34737 25.1885 3.33799 25.2101 3.32174 25.226C3.3055 25.2419 3.28367 25.2508 3.26095 25.2508H2.63118C2.62042 25.2513 2.60968 25.2495 2.59969 25.2455C2.58969 25.2415 2.58067 25.2354 2.57322 25.2276C2.55801 25.2107 2.54974 25.1886 2.55004 25.1658V22.8476H2.04198V25.1658C2.04218 25.188 2.03388 25.2094 2.0188 25.2257C2.01202 25.2344 2.00316 25.2413 1.99304 25.2457C1.98291 25.2501 1.97183 25.2518 1.96084 25.2508H1.3813C1.35876 25.2508 1.33714 25.2418 1.3212 25.2259C1.30525 25.21 1.2963 25.1883 1.2963 25.1658V22.8476H0.797893V25.1658C0.800653 25.1855 0.795498 25.2055 0.783553 25.2215C0.771607 25.2374 0.753844 25.2479 0.734143 25.2508H0.086988C0.0676049 25.2537 0.0478427 25.2491 0.0317025 25.238C0.0155622 25.2269 0.00425019 25.2101 5.66417e-05 25.1909V22.1696C-0.00270378 22.1498 0.00245185 22.1298 0.014397 22.1139C0.0263422 22.098 0.0441057 22.0874 0.0638063 22.0846H2.8147C2.88653 22.0832 2.95778 22.0977 3.02333 22.1271V22.1271Z" fill="#242425"/>
<path d="M6.18181 22.0844C6.2868 22.0838 6.38963 22.1142 6.4773 22.172C6.56498 22.2298 6.63357 22.3122 6.67442 22.4089C6.70369 22.4732 6.71884 22.5431 6.71885 22.6137V25.1676C6.71938 25.1785 6.71767 25.1895 6.71382 25.1998C6.70998 25.2101 6.70409 25.2195 6.6965 25.2274C6.68891 25.2354 6.67979 25.2417 6.66969 25.246C6.65958 25.2504 6.64871 25.2526 6.63772 25.2526H6.00409C5.98136 25.2526 5.95954 25.2437 5.94329 25.2278C5.92704 25.2119 5.91766 25.1903 5.91715 25.1676V25.1676V24.3562C5.91808 24.3342 5.91046 24.3128 5.89591 24.2963C5.88852 24.2878 5.87927 24.2811 5.86889 24.2768C5.85851 24.2724 5.84726 24.2705 5.83602 24.2712H4.93966C4.91694 24.2712 4.89511 24.2801 4.87886 24.296C4.86262 24.3119 4.85323 24.3335 4.85273 24.3562V24.3562V25.1676C4.85438 25.1772 4.85408 25.1871 4.85185 25.1966C4.84961 25.2062 4.8455 25.2152 4.83974 25.2231C4.83398 25.231 4.82669 25.2377 4.8183 25.2428C4.80992 25.2478 4.8006 25.2511 4.79091 25.2526H4.14376C4.13396 25.2545 4.12387 25.2544 4.11411 25.2523C4.10435 25.2502 4.09512 25.2462 4.08698 25.2404C4.07884 25.2346 4.07197 25.2272 4.06679 25.2187C4.0616 25.2101 4.05821 25.2006 4.05682 25.1907V22.6137C4.05667 22.5434 4.07046 22.4738 4.09739 22.4089C4.12261 22.343 4.16144 22.2831 4.21137 22.2331C4.26231 22.1845 4.32194 22.1458 4.38716 22.1192C4.45165 22.0907 4.52144 22.0762 4.59194 22.0767L6.18181 22.0844ZM5.90943 23.5931V22.7953H4.84693V23.5912L5.90943 23.5931Z" fill="#242425"/>
<path d="M9.56636 22.1093C9.57497 22.1166 9.58174 22.1258 9.58611 22.1362C9.59047 22.1466 9.59231 22.1579 9.59147 22.1692V24.7269C9.59194 24.7974 9.57746 24.8672 9.54897 24.9317C9.52197 24.9967 9.48335 25.0563 9.43499 25.1075C9.38612 25.1578 9.32676 25.1967 9.26113 25.2214C9.19555 25.2484 9.12532 25.2622 9.05443 25.262H7.70216C7.63127 25.2622 7.56103 25.2484 7.49546 25.2214C7.39828 25.1807 7.31548 25.1118 7.25766 25.0237C7.19984 24.9356 7.16963 24.8323 7.17091 24.7269V23.761C7.16812 23.7411 7.17322 23.7208 7.18513 23.7046C7.19703 23.6883 7.21481 23.6774 7.23466 23.6741H7.88182C7.90168 23.6718 7.92168 23.677 7.9378 23.6889C7.95393 23.7007 7.96498 23.7182 7.96875 23.7378V24.4081C7.96822 24.4192 7.97001 24.4302 7.974 24.4405C7.97799 24.4509 7.9841 24.4602 7.99193 24.468C8.00909 24.4827 8.03119 24.4903 8.05375 24.4893H8.71057C8.73252 24.4902 8.75399 24.4826 8.77045 24.468C8.77895 24.4606 8.78564 24.4514 8.78999 24.441C8.79435 24.4306 8.79625 24.4194 8.79556 24.4081V22.1692C8.79537 22.147 8.80366 22.1256 8.81875 22.1093C8.82604 22.1007 8.83526 22.0939 8.84567 22.0895C8.85608 22.0852 8.86738 22.0833 8.87863 22.0842H9.5084C9.5193 22.0839 9.53013 22.086 9.54014 22.0904C9.55014 22.0947 9.55909 22.1012 9.56636 22.1093V22.1093Z" fill="#242425"/>
<path d="M12.4313 22.0845C12.5018 22.084 12.5715 22.0985 12.636 22.127C12.6992 22.1529 12.7566 22.1911 12.8047 22.2396C12.8528 22.288 12.8907 22.3457 12.9161 22.409C12.9454 22.4733 12.9606 22.5432 12.9606 22.6138V24.7175C12.9604 24.7888 12.9452 24.8592 12.9161 24.9242C12.8904 24.9889 12.8524 25.048 12.8041 25.0981C12.7545 25.1485 12.6945 25.1874 12.6283 25.2121C12.5637 25.2401 12.4939 25.254 12.4235 25.2527H10.8279C10.758 25.2527 10.689 25.2382 10.625 25.2102C10.5292 25.1708 10.4472 25.1039 10.3895 25.0179C10.3317 24.932 10.3007 24.8308 10.3005 24.7272V22.6235C10.3003 22.5526 10.3141 22.4823 10.341 22.4168C10.3651 22.3512 10.4034 22.2919 10.4531 22.2429C10.504 22.1942 10.5637 22.1556 10.6289 22.1289C10.6933 22.1003 10.7631 22.0858 10.8337 22.0864L12.4313 22.0845ZM12.1589 22.8572H11.0964V24.4877H12.1705L12.1589 22.8572Z" fill="#242425"/>
<path d="M16.432 25.1812C16.4378 25.1886 16.441 25.1978 16.441 25.2072C16.441 25.2167 16.4378 25.2259 16.432 25.2333C16.4266 25.2408 16.4192 25.2468 16.4107 25.2505C16.4023 25.2542 16.3929 25.2556 16.3837 25.2546H15.6651C15.6397 25.2543 15.615 25.247 15.5936 25.2333C15.5706 25.2213 15.5512 25.2033 15.5376 25.1812L15.0682 24.3215C15.0651 24.3156 15.0603 24.3108 15.0544 24.3077C15.0486 24.3046 15.0419 24.3034 15.0353 24.3041H14.4886C14.4861 24.3036 14.4834 24.3035 14.4809 24.304C14.4783 24.3045 14.4759 24.3055 14.4737 24.3069C14.4716 24.3084 14.4697 24.3102 14.4683 24.3124C14.4669 24.3146 14.4659 24.317 14.4654 24.3196V25.1618C14.4668 25.1716 14.4661 25.1816 14.4635 25.1912C14.4609 25.2007 14.4564 25.2096 14.4503 25.2174C14.4442 25.2251 14.4365 25.2316 14.4278 25.2363C14.4191 25.241 14.4096 25.244 14.3997 25.2449H13.7565C13.737 25.2477 13.7173 25.2428 13.7014 25.2313C13.6855 25.2197 13.6748 25.2024 13.6715 25.1831C13.6695 25.1755 13.6695 25.1675 13.6715 25.1599V22.1695C13.6698 22.1598 13.6701 22.1499 13.6723 22.1404C13.6746 22.1309 13.6787 22.1219 13.6845 22.1139C13.6902 22.106 13.6975 22.0993 13.7059 22.0943C13.7143 22.0892 13.7236 22.0859 13.7333 22.0845H15.8042C15.8746 22.0842 15.9444 22.0987 16.0089 22.127C16.135 22.1817 16.2352 22.2826 16.2891 22.409C16.3175 22.4735 16.332 22.5433 16.3316 22.6138V23.8038C16.3323 23.9158 16.2963 24.0251 16.2292 24.1148C16.1662 24.2065 16.0744 24.2745 15.9684 24.308H15.9549C15.9336 24.308 15.9278 24.3234 15.9394 24.335L16.432 25.1812ZM15.5318 22.8224H14.4403V23.5951H15.5318V22.8224Z" fill="#242425"/>
<path d="M20.6936 24.484C20.7047 24.4832 20.7158 24.4849 20.7261 24.4889C20.7365 24.4929 20.7458 24.4992 20.7535 24.5072C20.7687 24.5242 20.777 24.5462 20.7767 24.569V25.1679C20.7769 25.1901 20.7686 25.2115 20.7535 25.2278C20.7462 25.2364 20.737 25.2431 20.7266 25.2475C20.7161 25.2519 20.7048 25.2537 20.6936 25.2529H18.7386C18.7189 25.2557 18.6989 25.2509 18.6828 25.2394C18.6666 25.2279 18.6554 25.2106 18.6517 25.1911V22.1697C18.6489 22.15 18.6541 22.13 18.666 22.1141C18.678 22.0981 18.6957 22.0876 18.7154 22.0847H19.3626C19.3823 22.082 19.4023 22.0871 19.4182 22.0991C19.4342 22.111 19.4447 22.1288 19.4476 22.1485C19.4496 22.1554 19.4496 22.1628 19.4476 22.1697V24.4029C19.4472 24.4141 19.4492 24.4252 19.4535 24.4356C19.4579 24.4459 19.4644 24.4552 19.4727 24.4628C19.4897 24.478 19.5117 24.4862 19.5345 24.4859L20.6936 24.484Z" fill="#242425"/>
<path d="M23.6222 22.1096C23.6304 22.1171 23.637 22.1264 23.6413 22.1368C23.6457 22.1471 23.6477 22.1583 23.6473 22.1695V22.7394C23.6481 22.7506 23.6463 22.7619 23.6419 22.7723C23.6376 22.7827 23.6308 22.7919 23.6222 22.7992C23.6059 22.8143 23.5845 22.8226 23.5623 22.8224H22.0439C22.0415 22.8219 22.0389 22.8218 22.0365 22.8223C22.034 22.8228 22.0317 22.8238 22.0297 22.8253C22.0277 22.8268 22.026 22.8286 22.0248 22.8308C22.0236 22.833 22.0228 22.8354 22.0226 22.8379C22.0226 22.8379 22.0226 22.8379 22.0226 22.8379V23.3305C22.0226 23.3421 22.0226 23.3479 22.0439 23.3479H23.3382C23.3491 23.3473 23.36 23.3493 23.3701 23.3537C23.3801 23.358 23.3891 23.3646 23.3961 23.373C23.4112 23.3893 23.4195 23.4107 23.4193 23.4329V23.8868C23.4195 23.909 23.4112 23.9305 23.3961 23.9467C23.3891 23.9551 23.3801 23.9617 23.3701 23.966C23.36 23.9704 23.3491 23.9724 23.3382 23.9718H22.0439C22.039 23.9713 22.0342 23.9725 22.0302 23.9754C22.0263 23.9783 22.0236 23.9825 22.0226 23.9873V24.476C22.0217 24.4785 22.0214 24.481 22.0216 24.4836C22.0218 24.4861 22.0226 24.4886 22.0239 24.4908C22.0252 24.493 22.027 24.4949 22.0291 24.4964C22.0312 24.4979 22.0336 24.4988 22.0362 24.4992H23.5681C23.5903 24.4992 23.6116 24.5079 23.6275 24.5234C23.6434 24.539 23.6526 24.5601 23.6531 24.5823V25.1618C23.6533 25.1729 23.6514 25.1839 23.6473 25.1942C23.6433 25.2045 23.6372 25.2139 23.6294 25.2218C23.6217 25.2297 23.6125 25.236 23.6022 25.2403C23.592 25.2446 23.5811 25.2468 23.57 25.2468H21.3117C21.2921 25.2497 21.2721 25.2448 21.2559 25.2333C21.2397 25.2218 21.2286 25.2045 21.2248 25.185V22.1695C21.2253 22.1468 21.2347 22.1251 21.2509 22.1092C21.2672 22.0934 21.289 22.0845 21.3117 22.0845H23.5681C23.5886 22.0857 23.608 22.0947 23.6222 22.1096V22.1096Z" fill="#242425"/>
<path d="M26.4948 22.0844C26.566 22.0838 26.6364 22.0983 26.7015 22.1269C26.8289 22.1792 26.9304 22.28 26.9836 22.407C27.0122 22.4714 27.0267 22.5413 27.0261 22.6118V25.1656C27.0266 25.1766 27.0249 25.1876 27.021 25.1979C27.0172 25.2082 27.0113 25.2176 27.0037 25.2255C26.9961 25.2335 26.987 25.2398 26.9769 25.2441C26.9668 25.2484 26.9559 25.2507 26.9449 25.2506H26.3055C26.283 25.2506 26.2613 25.2417 26.2454 25.2257C26.2295 25.2098 26.2205 25.1882 26.2205 25.1656V24.3543C26.2207 24.3321 26.2124 24.3107 26.1973 24.2944C26.19 24.2858 26.1808 24.279 26.1704 24.2746C26.16 24.2703 26.1487 24.2684 26.1374 24.2693H25.2546C25.2319 24.2693 25.2101 24.2782 25.1938 24.2941C25.1776 24.3099 25.1682 24.3316 25.1677 24.3543V24.3543V25.1656C25.1704 25.1854 25.1653 25.2054 25.1533 25.2213C25.1414 25.2372 25.1236 25.2478 25.1039 25.2506H24.4568C24.4471 25.2523 24.4372 25.252 24.4277 25.2498C24.4182 25.2475 24.4092 25.2434 24.4012 25.2376C24.3933 25.2319 24.3866 25.2246 24.3816 25.2162C24.3765 25.2078 24.3732 25.1985 24.3718 25.1888C24.3698 25.1812 24.3698 25.1732 24.3718 25.1656V22.6137C24.3716 22.5435 24.3854 22.4739 24.4123 22.409C24.4376 22.343 24.4764 22.2831 24.5263 22.2332C24.5773 22.1845 24.6369 22.1458 24.7021 22.1192C24.7665 22.0905 24.8364 22.076 24.9069 22.0767L26.4948 22.0844ZM26.2244 23.5932V22.7953H25.1599V23.5912L26.2244 23.5932Z" fill="#242425"/>
<path d="M30.368 23.5484C30.3761 23.5564 30.3824 23.5661 30.3864 23.5767C30.3904 23.5874 30.392 23.5988 30.3912 23.6102V24.7268C30.3917 24.7973 30.3772 24.867 30.3487 24.9315C30.3216 24.996 30.2837 25.0555 30.2367 25.1073C30.1867 25.1573 30.1268 25.1961 30.0609 25.2213C29.9959 25.2481 29.9264 25.2619 29.8561 25.2619H28.2527C28.1831 25.2621 28.1142 25.2486 28.0498 25.2221C27.9855 25.1956 27.9271 25.1566 27.8779 25.1074C27.8287 25.0582 27.7897 24.9997 27.7632 24.9354C27.7367 24.8711 27.7231 24.8021 27.7234 24.7326V22.6269C27.7234 22.5566 27.7372 22.4871 27.764 22.4221C27.7877 22.3559 27.826 22.2958 27.876 22.2463C27.9266 22.1982 27.9855 22.1595 28.0499 22.1323C28.1153 22.1048 28.1856 22.0904 28.2566 22.0898H30.1362C30.1593 22.0898 30.1814 22.099 30.1977 22.1153C30.214 22.1316 30.2232 22.1537 30.2232 22.1768V22.7737C30.2232 22.7968 30.214 22.8189 30.1977 22.8352C30.1814 22.8515 30.1593 22.8606 30.1362 22.8606H28.6198C28.597 22.8603 28.5749 22.8686 28.5579 22.8838C28.542 22.8997 28.5329 22.9212 28.5328 22.9437V24.4099C28.5329 24.4208 28.5352 24.4315 28.5395 24.4415C28.5438 24.4514 28.5501 24.4604 28.5579 24.4679C28.5661 24.4758 28.5758 24.4819 28.5864 24.4859C28.5971 24.4899 28.6084 24.4916 28.6198 24.4911H29.5161C29.5263 24.4916 29.5364 24.4901 29.546 24.4867C29.5556 24.4833 29.5644 24.478 29.5719 24.4712C29.5794 24.4644 29.5856 24.4561 29.5899 24.447C29.5943 24.4378 29.5968 24.4278 29.5972 24.4177V23.6179C29.5967 23.6069 29.5984 23.596 29.6023 23.5857C29.6061 23.5754 29.612 23.566 29.6196 23.558C29.6272 23.5501 29.6363 23.5437 29.6464 23.5394C29.6565 23.5351 29.6674 23.5329 29.6784 23.5329H30.312C30.3319 23.5311 30.3518 23.5366 30.368 23.5484V23.5484Z" fill="#242425"/>
<path d="M33.7081 22.1096C33.7241 22.1255 33.7331 22.147 33.7332 22.1695V24.7272C33.733 24.7979 33.7179 24.8677 33.6888 24.932C33.6624 24.9969 33.6244 25.0565 33.5767 25.1078C33.5268 25.1577 33.4669 25.1966 33.401 25.2218C33.3354 25.2487 33.2651 25.2625 33.1942 25.2624H31.5908C31.5206 25.2624 31.451 25.2486 31.3861 25.2218C31.2583 25.1684 31.1564 25.0672 31.1021 24.9397C31.0752 24.8742 31.0614 24.8039 31.0615 24.733V22.1695C31.0588 22.1498 31.0639 22.1298 31.0759 22.1139C31.0878 22.098 31.1056 22.0874 31.1253 22.0845H31.7724C31.7921 22.0818 31.8122 22.0869 31.8281 22.0989C31.844 22.1108 31.8546 22.1286 31.8574 22.1483C31.8594 22.1552 31.8594 22.1626 31.8574 22.1695V24.4027C31.857 24.4139 31.8591 24.4251 31.8634 24.4354C31.8677 24.4458 31.8743 24.455 31.8825 24.4626C31.8995 24.4778 31.9216 24.4861 31.9444 24.4858H32.8407C32.8514 24.4859 32.8621 24.484 32.872 24.48C32.882 24.476 32.891 24.4701 32.8987 24.4626C32.9069 24.4551 32.9133 24.4458 32.9174 24.4354C32.9214 24.425 32.9229 24.4138 32.9219 24.4027V22.1695C32.9224 22.1468 32.9317 22.1252 32.948 22.1093C32.9642 22.0934 32.9861 22.0845 33.0088 22.0845H33.6386C33.6513 22.0824 33.6644 22.0836 33.6766 22.088C33.6888 22.0924 33.6997 22.0998 33.7081 22.1096V22.1096Z" fill="#242425"/>
<path d="M36.8454 22.1092C36.8614 22.125 36.8704 22.1465 36.8705 22.169V22.7389C36.871 22.7501 36.8689 22.7613 36.8646 22.7716C36.8603 22.782 36.8537 22.7912 36.8454 22.7988C36.8285 22.814 36.8064 22.8223 36.7836 22.822H35.2672C35.2646 22.8214 35.262 22.8214 35.2594 22.8219C35.2569 22.8223 35.2544 22.8233 35.2523 22.8248C35.2501 22.8262 35.2483 22.8281 35.2468 22.8303C35.2454 22.8324 35.2444 22.8349 35.244 22.8374V23.3378C35.244 23.3494 35.244 23.3552 35.2672 23.3552H36.5615C36.5724 23.3549 36.5832 23.357 36.5932 23.3614C36.6032 23.3657 36.6121 23.3722 36.6194 23.3803C36.6345 23.3966 36.6428 23.418 36.6426 23.4402V23.8941C36.6428 23.9163 36.6345 23.9378 36.6194 23.954C36.6121 23.9622 36.6032 23.9686 36.5932 23.973C36.5832 23.9773 36.5724 23.9794 36.5615 23.9791H35.2672C35.2621 23.9785 35.2569 23.9797 35.2527 23.9825C35.2484 23.9854 35.2453 23.9897 35.244 23.9946V24.4911C35.2434 24.4936 35.2434 24.4962 35.2438 24.4988C35.2443 24.5014 35.2453 24.5038 35.2468 24.506C35.2482 24.5081 35.2501 24.51 35.2522 24.5114C35.2544 24.5128 35.2569 24.5138 35.2594 24.5143H36.7836C36.806 24.5142 36.8276 24.5229 36.8438 24.5383C36.86 24.5538 36.8696 24.5749 36.8705 24.5973V25.1769C36.8706 25.1991 36.8619 25.2204 36.8463 25.2363C36.8308 25.2522 36.8097 25.2614 36.7875 25.2619H34.535C34.5252 25.2635 34.5152 25.2632 34.5056 25.261C34.4959 25.2588 34.4868 25.2547 34.4787 25.249C34.4706 25.2432 34.4638 25.236 34.4585 25.2276C34.4533 25.2192 34.4497 25.2098 34.4481 25.2C34.4461 25.1924 34.4461 25.1845 34.4481 25.1769V22.169C34.4486 22.1463 34.458 22.1247 34.4742 22.1088C34.4904 22.0929 34.5123 22.084 34.535 22.084H36.7836C36.7951 22.0836 36.8066 22.0856 36.8172 22.09C36.8279 22.0943 36.8375 22.1008 36.8454 22.1092V22.1092Z" fill="#242425"/>
<path d="M41.7039 22.0845C41.7149 22.0839 41.7259 22.0856 41.7362 22.0895C41.7465 22.0933 41.7559 22.0992 41.7638 22.1068C41.7718 22.1144 41.7781 22.1235 41.7824 22.1336C41.7867 22.1437 41.7889 22.1546 41.7889 22.1656V25.1676C41.7892 25.1787 41.7872 25.1897 41.7832 25.2C41.7791 25.2103 41.773 25.2197 41.7653 25.2276C41.7576 25.2355 41.7483 25.2418 41.7381 25.2461C41.7279 25.2504 41.7169 25.2526 41.7059 25.2526H41.0742C41.0514 25.2526 41.0296 25.2437 41.0134 25.2278C40.9971 25.212 40.9877 25.1903 40.9872 25.1676V24.1148C40.9878 24.1046 40.9863 24.0945 40.9829 24.0849C40.9794 24.0753 40.9742 24.0665 40.9674 24.059C40.9605 24.0514 40.9523 24.0453 40.9431 24.041C40.9339 24.0366 40.924 24.0341 40.9138 24.0336H40.0117C39.9888 24.0329 39.9666 24.0413 39.9499 24.0568C39.9412 24.0641 39.9345 24.0733 39.9301 24.0838C39.9257 24.0942 39.9239 24.1055 39.9247 24.1167V25.1696C39.9275 25.1893 39.9223 25.2093 39.9104 25.2252C39.8984 25.2411 39.8807 25.2517 39.861 25.2546C39.854 25.2564 39.8467 25.2564 39.8397 25.2546H39.2158C39.196 25.2573 39.176 25.2522 39.1601 25.2402C39.1442 25.2283 39.1336 25.2105 39.1308 25.1908C39.1288 25.1839 39.1288 25.1765 39.1308 25.1696V22.1695C39.128 22.1497 39.1332 22.1297 39.1451 22.1138C39.157 22.0979 39.1748 22.0873 39.1945 22.0845H39.8417C39.8614 22.0817 39.8814 22.0868 39.8973 22.0988C39.9132 22.1107 39.9238 22.1285 39.9267 22.1482C39.9287 22.1551 39.9287 22.1625 39.9267 22.1695V23.1817C39.9239 23.2014 39.9291 23.2214 39.941 23.2374C39.953 23.2533 39.9707 23.2638 39.9904 23.2667H40.908C40.9191 23.2675 40.9302 23.2658 40.9406 23.2618C40.9509 23.2578 40.9603 23.2516 40.9679 23.2435C40.9831 23.2266 40.9914 23.2045 40.9911 23.1817V22.1675C40.9916 22.1448 41.001 22.1232 41.0172 22.1073C41.0335 22.0914 41.0553 22.0825 41.078 22.0825H41.7059L41.7039 22.0845Z" fill="#242425"/>
<path d="M44.6364 22.0844C44.7075 22.0838 44.778 22.0982 44.8431 22.1269C44.9705 22.1792 45.0719 22.2799 45.1251 22.407C45.1538 22.4714 45.1683 22.5413 45.1676 22.6118V25.1656C45.1681 25.1766 45.1664 25.1876 45.1626 25.1979C45.1588 25.2082 45.1529 25.2176 45.1453 25.2255C45.1377 25.2335 45.1286 25.2398 45.1185 25.2441C45.1084 25.2484 45.0975 25.2506 45.0865 25.2506H44.4529C44.4303 25.2506 44.4087 25.2417 44.3928 25.2257C44.3768 25.2098 44.3679 25.1882 44.3679 25.1656V24.3543C44.3681 24.3321 44.3598 24.3107 44.3447 24.2944C44.3374 24.2858 44.3282 24.279 44.3177 24.2746C44.3073 24.2703 44.296 24.2684 44.2848 24.2693H43.3865C43.364 24.2693 43.3423 24.2782 43.3264 24.2942C43.3105 24.3101 43.3015 24.3317 43.3015 24.3543V25.1656C43.3043 25.1853 43.2991 25.2054 43.2872 25.2213C43.2752 25.2372 43.2575 25.2478 43.2378 25.2506H42.5906C42.5808 25.2523 42.5708 25.252 42.5612 25.2498C42.5515 25.2476 42.5424 25.2435 42.5343 25.2378C42.5262 25.232 42.5194 25.2247 42.5141 25.2163C42.5089 25.2079 42.5053 25.1986 42.5037 25.1888V22.6137C42.5035 22.5434 42.5173 22.4738 42.5442 22.4089C42.5694 22.343 42.6083 22.2831 42.6582 22.2331C42.7094 22.1848 42.769 22.1462 42.834 22.1192C42.8986 22.0909 42.9683 22.0764 43.0388 22.0767L44.6364 22.0844ZM44.3659 23.5931V22.7953H43.3015V23.5912L44.3659 23.5931Z" fill="#242425"/>
<path d="M46.688 22.8765C46.68 22.8841 46.6737 22.8935 46.6697 22.9038C46.6657 22.9142 46.664 22.9253 46.6648 22.9364V24.4026C46.664 24.4137 46.6657 24.4248 46.6697 24.4351C46.6737 24.4455 46.68 24.4548 46.688 24.4625C46.705 24.4777 46.727 24.486 46.7498 24.4857H48.2045C48.2155 24.4851 48.2264 24.4869 48.2367 24.4907C48.247 24.4945 48.2564 24.5004 48.2644 24.508C48.2723 24.5156 48.2786 24.5247 48.283 24.5348C48.2873 24.5449 48.2895 24.5558 48.2895 24.5668V25.1695C48.29 25.1805 48.2883 25.1915 48.2844 25.2018C48.2806 25.2121 48.2747 25.2215 48.2671 25.2294C48.2595 25.2374 48.2504 25.2437 48.2403 25.248C48.2302 25.2523 48.2193 25.2545 48.2083 25.2545H46.3982C46.3279 25.2549 46.2583 25.2411 46.1935 25.214C46.1275 25.1887 46.0676 25.1499 46.0177 25.1C45.9195 24.9953 45.8649 24.8571 45.8651 24.7136V22.6157C45.8647 22.5454 45.8785 22.4757 45.9056 22.4109C45.9294 22.3447 45.9677 22.2846 46.0177 22.2351C46.0686 22.1864 46.1282 22.1478 46.1935 22.1211C46.2579 22.0925 46.3277 22.078 46.3982 22.0786H48.2045C48.2267 22.0786 48.248 22.0873 48.2639 22.1028C48.2798 22.1184 48.289 22.1395 48.2895 22.1617V22.7625C48.29 22.7847 48.2818 22.8063 48.2666 22.8225C48.2515 22.8388 48.2306 22.8484 48.2083 22.8494H46.7498C46.7382 22.8496 46.7268 22.8521 46.7162 22.8567C46.7056 22.8614 46.696 22.8681 46.688 22.8765V22.8765Z" fill="#242425"/>
<path d="M50.8066 23.4196C50.8028 23.4238 50.8007 23.4293 50.8007 23.435C50.8007 23.4407 50.8028 23.4462 50.8066 23.4505L51.8575 25.1891C51.8632 25.1966 51.8664 25.2058 51.8664 25.2152C51.8664 25.2246 51.8632 25.2338 51.8575 25.2413C51.852 25.2488 51.8447 25.2547 51.8362 25.2585C51.8277 25.2622 51.8184 25.2636 51.8092 25.2625H51.0558C51.0304 25.2623 51.0056 25.2549 50.9843 25.2413C50.9614 25.2297 50.9426 25.2115 50.9302 25.1891L50.2521 23.9547C50.2521 23.9373 50.2347 23.9373 50.2289 23.9547L49.8542 24.3662C49.8366 24.3849 49.8234 24.4074 49.8155 24.4319C49.8056 24.4564 49.8004 24.4826 49.8001 24.5091V25.1795C49.8024 25.1993 49.7971 25.2193 49.7853 25.2354C49.7735 25.2516 49.756 25.2626 49.7363 25.2664H49.1027C49.083 25.2692 49.063 25.264 49.0471 25.2521C49.0311 25.2401 49.0206 25.2223 49.0177 25.2026C49.0157 25.195 49.0157 25.1871 49.0177 25.1795V22.1697C49.0149 22.15 49.0201 22.13 49.032 22.1141C49.044 22.0981 49.0618 22.0876 49.0815 22.0847H49.7286C49.7483 22.082 49.7683 22.0871 49.7843 22.0991C49.8002 22.111 49.8107 22.1288 49.8136 22.1485C49.8156 22.1554 49.8156 22.1628 49.8136 22.1697V23.522L50.9823 22.1543C50.9957 22.1339 51.0127 22.1162 51.0326 22.1021C51.0567 22.0906 51.0831 22.0847 51.1098 22.0847H51.8613C51.8864 22.0847 51.9 22.0847 51.9057 22.1021C51.9115 22.1195 51.9057 22.1311 51.8903 22.1485L50.8066 23.4196Z" fill="#242425"/>
<path d="M53.2504 25.1679C53.252 25.1775 53.2517 25.1874 53.2495 25.197C53.2472 25.2065 53.2431 25.2155 53.2374 25.2234C53.2316 25.2313 53.2243 25.238 53.2159 25.2431C53.2075 25.2481 53.1982 25.2515 53.1885 25.2529H52.5452C52.5355 25.2545 52.5255 25.2543 52.5158 25.252C52.5062 25.2498 52.497 25.2457 52.489 25.24C52.4809 25.2343 52.474 25.227 52.4688 25.2186C52.4635 25.2102 52.4599 25.2008 52.4583 25.1911V22.1697C52.4555 22.15 52.4607 22.13 52.4727 22.1141C52.4846 22.0981 52.5024 22.0876 52.5221 22.0847H53.1692C53.1889 22.082 53.2089 22.0871 53.2249 22.0991C53.2408 22.111 53.2514 22.1288 53.2542 22.1485C53.2562 22.1554 53.2562 22.1628 53.2542 22.1697L53.2504 25.1679Z" fill="#242425"/>
<path d="M56.293 22.127C56.4196 22.1805 56.5206 22.2809 56.575 22.4071C56.6029 22.4717 56.6167 22.5415 56.6156 22.6119V25.1657C56.6161 25.1767 56.6144 25.1877 56.6105 25.198C56.6067 25.2082 56.6008 25.2177 56.5932 25.2256C56.5856 25.2335 56.5765 25.2399 56.5664 25.2442C56.5563 25.2485 56.5454 25.2507 56.5344 25.2507H55.9085C55.8975 25.2515 55.8863 25.2498 55.876 25.2458C55.8656 25.2418 55.8563 25.2356 55.8486 25.2275C55.8334 25.2106 55.8252 25.1885 55.8255 25.1657V22.9345C55.8263 22.9232 55.8245 22.9119 55.8201 22.9015C55.8157 22.8911 55.809 22.8819 55.8003 22.8746C55.7841 22.8595 55.7626 22.8512 55.7405 22.8514H54.8441C54.8213 22.8511 54.7992 22.8594 54.7823 22.8746C54.774 22.8822 54.7675 22.8914 54.7631 22.9018C54.7588 22.9121 54.7568 22.9233 54.7572 22.9345V25.1676C54.7599 25.1874 54.7548 25.2074 54.7428 25.2233C54.7309 25.2392 54.7131 25.2498 54.6934 25.2526H54.0463C54.0268 25.2554 54.0071 25.2506 53.9912 25.239C53.9753 25.2275 53.9646 25.2102 53.9613 25.1908C53.9593 25.1832 53.9593 25.1752 53.9613 25.1676V22.1695C53.9585 22.1498 53.9636 22.1298 53.9756 22.1138C53.9875 22.0979 54.0053 22.0874 54.025 22.0845H56.094C56.1626 22.0841 56.2305 22.0986 56.293 22.127V22.127Z" fill="#242425"/>
<path d="M59.9653 23.5487C59.9736 23.5567 59.9802 23.5663 59.9845 23.5769C59.9889 23.5876 59.9909 23.5991 59.9904 23.6106V24.7271C59.9902 24.7978 59.9751 24.8676 59.946 24.9319C59.9203 24.9972 59.8823 25.0569 59.834 25.1077C59.7844 25.1581 59.7244 25.197 59.6582 25.2217C59.5933 25.2488 59.5237 25.2626 59.4534 25.2623H57.85C57.7797 25.2623 57.7102 25.2485 57.6452 25.2217C57.5495 25.1797 57.4683 25.1104 57.4119 25.0224C57.3555 24.9344 57.3265 24.8316 57.3284 24.7271V22.6234C57.329 22.5495 57.3448 22.4765 57.3748 22.409C57.3988 22.3435 57.4371 22.2841 57.4868 22.2351C57.5377 22.1864 57.5974 22.1478 57.6626 22.1211C57.727 22.0925 57.7969 22.078 57.8674 22.0786H59.7374C59.7599 22.0786 59.7815 22.0876 59.7975 22.1035C59.8134 22.1195 59.8224 22.1411 59.8224 22.1636V22.7625C59.8224 22.785 59.8134 22.8067 59.7975 22.8226C59.7815 22.8385 59.7599 22.8475 59.7374 22.8475H58.219C58.1968 22.8473 58.1753 22.8556 58.1591 22.8707C58.1505 22.878 58.1437 22.8872 58.1393 22.8976C58.135 22.908 58.1331 22.9193 58.134 22.9306V24.3968C58.1331 24.4081 58.135 24.4194 58.1393 24.4298C58.1437 24.4402 58.1505 24.4494 58.1591 24.4567C58.167 24.4643 58.1764 24.4701 58.1867 24.4738C58.1971 24.4774 58.208 24.4788 58.219 24.4779H59.1057C59.1158 24.4785 59.126 24.477 59.1355 24.4736C59.1451 24.4702 59.1539 24.4649 59.1615 24.4581C59.169 24.4512 59.1751 24.443 59.1795 24.4338C59.1838 24.4246 59.1863 24.4147 59.1868 24.4045V23.6048C59.1863 23.5938 59.188 23.5828 59.1918 23.5725C59.1957 23.5622 59.2016 23.5528 59.2092 23.5449C59.2167 23.5369 59.2259 23.5306 59.236 23.5263C59.2461 23.522 59.2569 23.5198 59.2679 23.5198H59.9016C59.9137 23.5197 59.9256 23.5222 59.9366 23.5272C59.9476 23.5322 59.9574 23.5396 59.9653 23.5487V23.5487Z" fill="#242425"/>
<path d="M19.0959 0.27239C19.8917 0.611555 20.5252 1.24576 20.8635 2.04193C21.0432 2.4484 21.136 2.88794 21.1359 3.33237V19.9575C21.1369 20.0996 21.0816 20.2363 20.982 20.3377C20.8825 20.4391 20.7468 20.4969 20.6047 20.4984H16.6135C16.5438 20.5012 16.4744 20.4885 16.4102 20.4611C16.3461 20.4337 16.2888 20.3923 16.2426 20.34C16.1463 20.2349 16.0949 20.0962 16.0997 19.9536V4.8527H12.9025V19.9633C12.9063 20.1057 12.8551 20.244 12.7596 20.3497C12.7125 20.4013 12.6548 20.4422 12.5904 20.4695C12.5261 20.4968 12.4566 20.51 12.3868 20.5081H8.78394C8.71341 20.5091 8.64337 20.4962 8.57782 20.4702C8.51227 20.4441 8.4525 20.4054 8.40191 20.3563C8.35132 20.3071 8.31091 20.2485 8.28299 20.1837C8.25506 20.1189 8.24017 20.0493 8.23917 19.9788V4.8527H5.03623V19.9633C5.04657 20.0372 5.0396 20.1124 5.01585 20.1832C4.9921 20.2539 4.95223 20.3181 4.89939 20.3707C4.84655 20.4234 4.78218 20.463 4.71139 20.4865C4.64059 20.51 4.5653 20.5167 4.49146 20.5061H0.544779C0.470942 20.5167 0.39565 20.51 0.324853 20.4865C0.254056 20.463 0.189694 20.4234 0.136854 20.3707C0.0840134 20.3181 0.0441429 20.2539 0.020393 20.1832C-0.00335694 20.1124 -0.0103354 20.0372 9.03394e-06 19.9633V0.542843C-0.0103354 0.468968 -0.00335694 0.393701 0.020393 0.322988C0.0441429 0.252274 0.0840134 0.188054 0.136854 0.135401C0.189694 0.0827483 0.254056 0.0431062 0.324853 0.0196077C0.39565 -0.0038909 0.470942 -0.010602 0.544779 4.86024e-06H17.7939C18.2422 -0.00201382 18.686 0.090812 19.0959 0.27239V0.27239Z" fill="#E73427"/>
<path d="M38.4797 15.5279C38.5517 15.5264 38.6232 15.5398 38.6897 15.5674C38.7562 15.595 38.8162 15.6362 38.866 15.6882C38.9663 15.7953 39.0205 15.9375 39.0167 16.0842V19.9478C39.0192 20.0914 38.965 20.2302 38.866 20.3342C38.8166 20.3868 38.7566 20.4284 38.6901 20.4563C38.6235 20.4843 38.5518 20.498 38.4797 20.4965H24.8604C24.4741 20.4965 24.2809 20.3033 24.2809 19.9401V0.556361C24.2809 0.185454 24.4741 0 24.8604 0H29.0409C29.4272 0 29.6204 0.193181 29.6204 0.556361V15.0005C29.6182 15.074 29.6329 15.1471 29.6634 15.2141C29.6938 15.2811 29.7393 15.3402 29.7962 15.3868C29.9086 15.4858 30.0541 15.5389 30.2038 15.5356L38.4797 15.5279Z" fill="#1D539F"/>
<path d="M59.4109 -0.000271167C59.4871 -0.00238076 59.563 0.0109011 59.6341 0.0387815C59.7051 0.0666618 59.7698 0.108569 59.8243 0.162001C59.8796 0.21203 59.9239 0.27313 59.9542 0.341349C59.9845 0.409567 60.0001 0.483384 60.0001 0.558021V20.0075C60.0001 20.0821 59.9845 20.1559 59.9542 20.2241C59.9239 20.2923 59.8796 20.3534 59.8243 20.4035C59.7698 20.4569 59.7051 20.4988 59.6341 20.5267C59.563 20.5546 59.4871 20.5679 59.4109 20.5657H55.1763C55.1004 20.5677 55.0248 20.5544 54.9541 20.5265C54.8834 20.4986 54.819 20.4568 54.7649 20.4035C54.7088 20.354 54.6641 20.293 54.6337 20.2247C54.6034 20.1563 54.5881 20.0822 54.5891 20.0075V13.221C54.5923 13.1495 54.5804 13.0781 54.5541 13.0115C54.5277 12.9449 54.4877 12.8847 54.4365 12.8347C54.3835 12.7851 54.3213 12.7465 54.2532 12.7213C54.1852 12.6961 54.1129 12.6847 54.0404 12.6878H48.1021C47.9513 12.683 47.8043 12.7355 47.6906 12.8347C47.6338 12.8814 47.5884 12.9405 47.558 13.0075C47.5275 13.0744 47.5127 13.1475 47.5148 13.221V20.0075C47.5148 20.3784 47.3216 20.5657 46.9353 20.5657H42.7316C42.3453 20.5657 42.1521 20.3726 42.1521 20.0075V0.558021C42.1521 0.185182 42.3453 -0.000271167 42.7316 -0.000271167H46.943C47.3293 -0.000271167 47.5225 0.19291 47.5225 0.558021V7.14742C47.5225 7.51832 47.7157 7.70378 48.1021 7.70378H54.054C54.1278 7.70631 54.2014 7.69335 54.2699 7.66573C54.3384 7.63812 54.4004 7.59646 54.4519 7.54344C54.5499 7.43865 54.6045 7.30055 54.6045 7.15708V0.558021C54.6036 0.483435 54.6187 0.409517 54.6486 0.341217C54.6786 0.272918 54.7229 0.211815 54.7784 0.162001C54.8844 0.0575177 55.0275 -0.000811084 55.1763 -0.000271167H59.4109Z" fill="#F8B92A"/>
</g>
<defs>
<clipPath id="clip0_547_2703">
<rect width="60" height="25.2642" fill="white"/>
</clipPath>
</defs>
</svg>
