<svg width="60" height="60" viewBox="0 0 60 60" fill="none" xmlns="http://www.w3.org/2000/svg">
<g clip-path="url(#clip0_545_2693)">
<path d="M18.8722 2.65771C18.8722 2.65771 2.76664 21.4698 22.5312 42.4255C22.5312 42.4255 5.18261 36.6695 3.29513 23.2369C3.29513 23.2369 0.504374 9.54345 18.8722 2.65771V2.65771Z" fill="#6BB94F" stroke="#6BB94E" stroke-miterlimit="10"/>
<path d="M17.249 30.1228C17.249 30.1228 19.5112 2.65791 48.4408 6.15726C48.4408 6.15726 35.881 -4.11485 24.3027 1.90479C24.265 1.90479 7.81969 10.8213 17.249 30.1228V30.1228Z" fill="#EE7541" stroke="#ED7540" stroke-miterlimit="10"/>
<path d="M24.0383 17.9704C24.0383 17.9704 31.0921 6.1947 48.9314 8.67733C48.9314 8.67733 61.8686 12.5532 59.7547 35.0125C59.7169 35.0125 52.5499 7.81123 24.0383 17.9704Z" fill="#E9555F" stroke="#E9565F" stroke-miterlimit="10"/>
<path d="M38.5964 17.3306C38.5964 17.3306 60.5854 38.7758 38.5964 59.468C38.5964 59.468 52.0621 55.8933 57.1529 43.4775C57.1529 43.4775 62.3569 25.0071 38.5964 17.3306V17.3306Z" fill="#EA589F" stroke="#E9589F" stroke-miterlimit="10"/>
<path d="M45.65 32.0029C45.65 32.0029 35.8432 59.8444 9.44287 51.7537C9.44287 51.7537 17.3244 62.475 31.3564 59.4652C31.3537 59.4679 49.193 58.1149 45.65 32.0029V32.0029Z" fill="#32B7E9"/>
<path d="M0.957283 24.1025C0.957283 24.1025 7.0673 49.3107 36.4094 43.4794C36.4094 43.4794 26.0364 56.0835 9.44281 49.6873C9.44281 49.6846 -3.56995 43.1028 0.957283 24.1025V24.1025Z" fill="#118E9B"/>
</g>
<defs>
<clipPath id="clip0_545_2693">
<rect width="60" height="60" fill="white"/>
</clipPath>
</defs>
</svg>
