<svg width="60" height="60" viewBox="0 0 60 60" fill="none" xmlns="http://www.w3.org/2000/svg">
<path d="M60 30C60 46.566 46.566 60 30 60C13.434 60 0 46.566 0 30C0 13.434 13.434 0 30 0C46.566 0 60 13.434 60 30Z" fill="url(#paint0_linear_545_2679)"/>
<path fill-rule="evenodd" clip-rule="evenodd" d="M37.7916 34.4424C36.5388 35.8152 34.7808 36.51 33.9576 36.51C33.0048 36.51 32.4852 35.9268 32.3784 35.0496C32.3424 34.7136 32.3544 34.374 32.4144 34.0404C32.7288 32.0748 33.4524 30.8544 33.4068 30.4824C33.3936 30.3756 33.3336 30.3228 33.2556 30.3228C32.6472 30.3228 30.51 32.5272 30.186 33.9876L29.934 35.1564C29.7684 35.9796 28.962 36.51 28.4064 36.51C28.1412 36.51 27.9396 36.378 27.9048 36.0852C27.894 35.952 27.9048 35.8176 27.936 35.6868L28.0548 35.0712C26.9028 35.9328 25.6608 36.5136 25.0788 36.5136C24.2844 36.5136 23.838 36.0888 23.6796 35.4504C23.1552 36.1416 22.4604 36.5136 21.72 36.5136C20.7756 36.5136 19.8648 35.8884 19.428 34.9632C18.8052 35.6628 18.0672 36.3468 17.184 36.912C15.8808 37.7364 14.43 38.4 12.7116 38.4C11.1252 38.4 9.77757 37.5504 9.03237 36.8604C7.92717 35.8248 7.34277 34.284 7.17117 32.8764C6.62877 28.4412 9.32877 22.626 13.512 20.0772C14.472 19.4928 15.5472 19.2012 16.524 19.2012C18.534 19.2012 20.034 20.6388 20.244 22.3572C20.4336 23.9052 19.8144 25.2432 18.0972 26.1084C17.2212 26.5524 16.7868 26.5308 16.65 26.3196C16.5588 26.178 16.6104 25.9392 16.7868 25.7928C18.4008 24.444 18.4308 23.3376 18.2412 21.7776C18.1188 20.7744 17.4576 20.1312 16.7172 20.1312C13.5444 20.1312 8.99397 27.2484 9.62637 32.4264C9.87357 34.4448 11.1108 36.7824 13.6488 36.7824C14.4948 36.7824 15.3912 36.5436 16.1892 36.1452C17.5812 35.4336 18.3684 34.8708 19.1592 33.9492C18.9648 31.5552 21.0192 28.5492 24.0768 28.5492C25.3992 28.5492 26.4948 29.0796 26.6244 30.1428C26.7864 31.47 25.656 31.7364 25.2324 31.7364C24.8616 31.7364 24.2676 31.6296 24.2256 31.2852C24.18 30.9132 25.026 31.1256 24.9216 30.276C24.8568 29.7456 24.3048 29.5596 23.7768 29.5596C21.8736 29.5596 20.8224 32.2152 21.024 33.8628C21.1152 34.6068 21.4968 35.3496 22.1844 35.3496C22.7388 35.3496 23.5404 34.5528 23.8476 33.384C24.042 32.5872 24.7956 32.0568 25.3524 32.0568C25.6428 32.0568 25.8444 32.1888 25.8804 32.4816C25.8924 32.5884 25.8828 32.7216 25.8492 32.88C25.7856 33.2244 25.5204 34.374 25.5336 34.6116C25.5432 34.8192 25.662 35.1036 26.022 35.1036C26.3076 35.1036 27.3564 34.5372 28.3284 33.666C28.6332 32.0892 29.01 30.1392 29.04 29.9856C29.1588 29.346 29.388 28.6884 30.684 28.6884C30.9492 28.6884 31.1508 28.8204 31.1892 29.1396C31.2012 29.2452 31.1916 29.3796 31.158 29.538L30.7956 31.1772C31.932 29.6628 33.6996 28.5492 34.758 28.5492C35.208 28.5492 35.5548 28.7868 35.6136 29.2656C35.646 29.532 35.568 29.9832 35.3928 30.4872C35.016 31.5216 34.5936 33.078 34.3128 34.4172C34.2528 34.7016 34.3524 35.1312 34.872 35.1312C35.2872 35.1312 36.6216 34.6224 37.6992 33.1992C37.692 32.9976 37.6884 32.7936 37.6884 32.5872C37.6884 31.4712 37.7676 30.5688 37.9788 29.9064C38.19 29.2152 39.0636 28.5528 39.6444 28.5528C39.936 28.5528 40.1472 28.7124 40.1472 29.0304C40.1472 29.1372 40.1208 29.2704 40.068 29.4024C39.672 30.5712 39.4608 31.6608 39.4608 32.7492C39.4608 33.36 39.5928 34.3428 39.726 34.8468C39.7524 34.9536 39.7776 35.0592 39.8832 35.0592C40.068 35.0592 41.3112 33.8376 42.21 32.3496C41.4156 31.8444 40.9668 30.9156 40.9668 29.7732C40.9668 27.8616 42.1044 26.8788 43.2144 26.8788C44.0868 26.8788 44.88 27.516 44.88 28.7904C44.88 29.5884 44.562 30.4908 44.1144 31.3668C44.1144 31.3668 44.2992 31.3932 44.3784 31.3932C45.066 31.3932 45.5952 31.074 45.8868 30.7284C46.0188 30.5784 46.1412 30.4608 46.2588 30.3924C47.1444 29.3232 48.4416 28.5504 49.9644 28.5504C51.2604 28.5504 52.3788 29.0556 52.5084 30.1176C52.674 31.4712 51.5172 31.7376 51.12 31.7376C50.724 31.7376 50.1288 31.6308 50.0868 31.2864C50.0448 30.942 50.9136 31.1268 50.8128 30.3048C50.748 29.7732 50.1936 29.5608 49.6644 29.5608C47.892 29.5608 46.674 31.9248 46.908 33.8364C47.0016 34.6068 47.3568 35.3508 48.0444 35.3508C48.5988 35.3508 49.4292 34.5528 49.7352 33.3852C49.932 32.6148 50.6832 32.058 51.2388 32.058C51.5028 32.058 51.7308 32.19 51.7692 32.5092C51.7884 32.6688 51.7248 33.0144 51.4284 34.2612C51.3072 34.7916 51.2832 35.244 51.3288 35.616C51.4236 36.3864 51.7764 36.8904 52.1028 37.1832C52.2216 37.2888 52.2912 37.4208 52.3008 37.5024C52.326 37.7148 52.164 37.9008 51.9 37.9008C51.8208 37.9008 51.7152 37.9008 51.6288 37.848C50.2668 37.29 49.7016 36.3612 49.542 35.484C49.0164 36.1476 48.3204 36.5184 47.6064 36.5184C46.3896 36.5184 45.2016 35.4552 45.0336 34.0752C44.964 33.5076 45.0324 32.898 45.2184 32.2992C44.7252 32.604 44.1936 32.7732 43.7172 32.7732C43.5576 32.7732 43.4268 32.7732 43.2684 32.7468C42.0792 34.4724 40.836 35.6676 39.8832 36.1992C39.4872 36.4116 39.1176 36.5184 38.8524 36.5184C38.64 36.5184 38.4024 36.4656 38.298 36.2796C38.0508 35.8656 37.8864 35.2104 37.7916 34.4424ZM42.1008 28.7868C42.1008 29.5308 42.4704 30.3012 42.9468 30.8052C43.1328 30.3 43.2384 29.796 43.2384 29.2908C43.2384 28.3344 42.8676 27.9096 42.5772 27.9096C42.2328 27.9096 42.1008 28.3884 42.1008 28.7868Z" fill="white"/>
<defs>
<linearGradient id="paint0_linear_545_2679" x1="30" y1="-26.7132" x2="30" y2="68.1396" gradientUnits="userSpaceOnUse">
<stop stop-color="#00EDDD"/>
<stop offset="0.155" stop-color="#00E6E4"/>
<stop offset="0.809" stop-color="#00BBD4"/>
<stop offset="1" stop-color="#00B2CF"/>
</linearGradient>
</defs>
</svg>
