<svg width="60" height="60" viewBox="0 0 60 60" fill="none" xmlns="http://www.w3.org/2000/svg">
<path d="M30.0001 5.6167C24.0638 5.61695 18.3212 7.72948 13.8 11.5763C9.27874 15.4232 6.27382 20.7533 5.3229 26.6129C4.37198 32.4726 5.53711 38.4794 8.60982 43.5586C11.6825 48.6378 16.4623 52.4579 22.0939 54.3354C23.3439 54.5542 23.8126 53.8042 23.8126 53.1479C23.8126 52.5542 23.7813 50.5854 23.7813 48.4917C17.5001 49.6479 15.8751 46.9605 15.3751 45.5543C14.8203 44.1866 13.9408 42.9746 12.8126 42.0229C11.9376 41.5542 10.6876 40.398 12.7813 40.3668C13.5808 40.4535 14.3475 40.7317 15.0166 41.1777C15.6858 41.6238 16.2375 42.2246 16.6251 42.9292C16.967 43.5434 17.4268 44.0842 17.978 44.5204C18.5293 44.9567 19.1613 45.2799 19.8376 45.4714C20.514 45.663 21.2216 45.7193 21.9198 45.637C22.6179 45.5546 23.293 45.3354 23.9063 44.9917C24.0145 43.7207 24.5809 42.5324 25.5001 41.648C19.9376 41.023 14.1251 38.8667 14.1251 29.3043C14.0899 26.8196 15.0068 24.4157 16.6876 22.5855C15.9233 20.4261 16.0127 18.0562 16.9376 15.9605C16.9376 15.9605 19.0312 15.3042 23.8126 18.523C27.9033 17.398 32.2218 17.398 36.3126 18.523C41.0938 15.273 43.1876 15.9605 43.1876 15.9605C44.1126 18.0562 44.202 20.4261 43.4376 22.5855C45.1234 24.4126 46.0411 26.8186 46.0001 29.3043C46.0001 38.8979 40.1563 41.023 34.5938 41.648C35.1904 42.2527 35.6499 42.9788 35.9411 43.7768C36.2323 44.5748 36.3483 45.4262 36.2813 46.273C36.2813 49.6168 36.25 52.3042 36.25 53.148C36.25 53.8043 36.7188 54.5855 37.9688 54.3355C43.5905 52.4427 48.3565 48.6136 51.4161 43.5318C54.4757 38.45 55.6298 32.4463 54.6723 26.5923C53.7148 20.7383 50.708 15.4151 46.1887 11.573C41.6695 7.73083 35.9318 5.61979 30.0001 5.6167V5.6167Z" fill="black"/>
</svg>
